<?xml version="1.0" encoding="UTF-8"?>
<svg width="79px" height="78px" viewBox="0 0 79 78" version="1.1" xmlns="http://www.w3.org/2000/svg" xmlns:xlink="http://www.w3.org/1999/xlink">
    <title>brands</title>
    <g id="Page-1" stroke="none" stroke-width="1" fill="none" fill-rule="evenodd" stroke-linecap="round" stroke-linejoin="round">
        <g id="Brands---Empty-state" transform="translate(-989.000000, -535.000000)" stroke="#636363">
            <g id="brands" transform="translate(990.000000, 536.000000)">
                <polygon id="Path" stroke-width="2.5" points="50.2243767 75 11 35.7756233 14.9196676 13.9196676 36.7756233 10 76 49.2243767"></polygon>
                <g id="Group" transform="translate(27.000000, 26.000000)" fill="#636363" fill-rule="nonzero" stroke-width="0.9">
                    <path d="M0,6.03345025 L6.03499041,0 L8.29897199,2.2634038 C8.68960313,2.62600697 9.00320466,3.06353324 9.22107999,3.54989775 C9.37710213,3.93896151 9.40836233,4.36687652 9.31053823,4.77447488 C9.22348144,5.16326305 9.03057364,5.52040853 8.75314459,5.8064219 C8.49391313,6.06028036 8.17035212,6.2386692 7.81727378,6.32239541 C7.42078574,6.41022046 7.00735348,6.3815504 6.62679107,6.23983965 C6.8728787,6.65394738 6.9767911,7.13713748 6.92269139,7.61576901 C6.86438195,8.09423718 6.64040355,8.53721182 6.28960232,8.86786473 C6.01767907,9.14236915 5.68544841,9.34966587 5.3193245,9.47327365 C5.00143068,9.59380642 4.6586809,9.63398062 4.32152107,9.59022765 C3.97915837,9.53863828 3.65116147,9.41684195 3.35812465,9.23248601 C2.9668082,8.98496678 2.60642833,8.69165547 2.28462579,8.35877087 L0,6.03345025 Z M1.50702725,6.11600601 L3.0140545,7.61576901 C3.18823034,7.80488663 3.37941955,7.97760388 3.58521095,8.13174253 C3.77090257,8.27313623 3.98425198,8.37392396 4.21141862,8.42756734 C4.42083764,8.48527318 4.64197008,8.48527318 4.8513891,8.42756734 C5.08883899,8.34954465 5.30374925,8.21496489 5.47759677,8.03542747 C5.69275081,7.83389893 5.83748436,7.56862181 5.89048095,7.27866632 C5.93948569,6.99436169 5.89354006,6.70183524 5.75973429,6.44622906 C5.55124182,6.07096445 5.28930491,5.72798419 4.98213576,5.42804133 L3.60585516,4.05211197 L1.50702725,6.11600601 Z M4.29399546,3.36414729 L5.60146202,4.67128018 C5.84494322,4.93895011 6.12530686,5.17059647 6.43411178,5.35924486 C6.66056955,5.49782778 6.92804042,5.55373923 7.19106611,5.51747674 C7.45539886,5.47362826 7.69755438,5.34289765 7.87920641,5.14597581 C8.07204054,4.95914908 8.20599463,4.72000639 8.26456497,4.45801113 C8.31890243,4.21340983 8.28476857,3.95747123 8.16822533,3.73564822 C7.93392617,3.36528015 7.65163195,3.02753886 7.32869417,2.73121978 L6.11756725,1.50664265 L4.29399546,3.36414729 Z" id="Shape"></path>
                    <path d="M5.66339465,11.6953996 L11.6983851,5.66194932 L14.3752508,8.33813193 C14.8067655,8.73252393 15.1675208,9.19789584 15.4418683,9.71406129 C15.6119352,10.1067898 15.6458444,10.5450746 15.5382079,10.9592774 C15.4196985,11.4025375 15.1816555,11.8047273 14.8500676,12.1219377 C14.4598806,12.5394385 13.9209715,12.7865814 13.3499218,12.8099024 C12.6700422,12.7839342 12.0194107,12.5266605 11.5057058,12.0806598 C11.6011114,12.3330121 11.6635593,12.5966136 11.6915037,12.8649395 C11.7043415,13.357497 11.6557985,13.8497366 11.5469942,14.3303043 L10.9551935,17.0202462 L9.9505087,16.0158178 L10.4115627,13.9519237 C10.535428,13.3533945 10.6248862,12.8855785 10.6661746,12.5759944 C10.712264,12.3073564 10.712264,12.032834 10.6661746,11.764196 C10.626861,11.5807137 10.559554,11.4043678 10.4666139,11.2413429 C10.3414759,11.0727522 10.2009509,10.9161414 10.0468483,10.7735269 L9.12474035,9.84477458 L6.44099319,12.5209572 L5.66339465,11.6953996 Z M9.83352485,9.12241167 L11.5538756,10.8423234 C11.8303124,11.1551707 12.1585253,11.4181395 12.5241534,11.6197235 C12.7794343,11.747755 13.0709722,11.784188 13.3499218,11.7229182 C13.6111928,11.6662865 13.8503099,11.5348057 14.0380621,11.3445376 C14.3165132,11.0850665 14.4609978,10.7125432 14.430302,10.3332295 C14.3588933,9.84480461 14.1147524,9.39814079 13.7421617,9.07425414 L11.8291317,7.16171233 L9.83352485,9.12241167 Z" id="Shape"></path>
                    <path d="M11.1065844,17.1234409 L19.4606076,13.4084316 L20.3139016,14.2683875 L16.7218092,22.750992 L15.813464,21.8428786 L16.9420141,19.3111686 L14.4165392,16.7932179 L11.9254714,17.9558782 L11.1065844,17.1234409 Z M15.3248844,16.3873187 L17.3893053,18.4512127 L18.4352786,16.1534107 C18.7449417,15.465446 19.0201978,14.8944353 19.2541655,14.4747769 C18.7837825,14.7889243 18.2890405,15.0649889 17.7746639,15.3003345 L15.3248844,16.3873187 Z" id="Shape"></path>
                    <polygon id="Path" points="17.3548983 23.3839195 23.3898887 17.3504692 24.1812501 18.1691472 22.6398158 26.0669817 27.374221 21.3337847 28.1449382 22.0974255 22.1168292 28.1308758 21.2910608 27.3190775 22.8600207 19.4074836 18.118734 24.1475603"></polygon>
                    <path d="M23.4518213,29.5068052 L29.4868118,23.4733549 L31.5512326,25.5372489 C31.922335,25.8861951 32.2524761,26.2762623 32.5352733,26.6999093 C32.7942185,27.0930393 32.9503757,27.5448334 32.9894459,28.0139218 C33.0361859,28.6139307 32.927151,29.2158392 32.6729013,29.7613521 C32.376115,30.3831564 31.9706267,30.9469675 31.4755372,31.4262266 C31.0709312,31.8446135 30.607258,32.2015507 30.0992566,32.4856922 C29.6972255,32.7128643 29.2599218,32.8709976 28.8055529,32.9535082 C28.4434739,33.0154973 28.0734888,33.0154973 27.7114098,32.9535082 C27.3478256,32.87429 27.0008494,32.7322755 26.6860807,32.5338497 C26.2951007,32.2885276 25.9347309,31.997534 25.6125819,31.6670142 L23.4518213,29.5068052 Z M24.9588486,29.5893609 L26.245671,30.8827345 C26.5501902,31.2077272 26.9029886,31.4838607 27.2916442,31.7014125 C27.552447,31.8484946 27.8455715,31.9288469 28.1449382,31.9353205 C28.5718008,31.9111994 28.986861,31.7862415 29.3560651,31.5706992 C29.8469587,31.3080428 30.29294,30.9689977 30.6772945,30.5662708 C31.2087357,30.0974518 31.6034441,29.4936546 31.8196074,28.8188405 C31.9590487,28.3477792 31.934793,27.8433891 31.7507933,27.3878739 C31.5151474,26.9543073 31.2080607,26.5635694 30.8424481,26.2320933 L29.5693886,24.9593586 L24.9588486,29.5893609 Z" id="Shape"></path>
                </g>
                <line x1="37" y1="20" x2="66" y2="49" id="Path" stroke-width="2"></line>
                <line x1="21" y1="36" x2="50" y2="65" id="Path" stroke-width="2"></line>
                <path d="M25.1202794,24.1199377 C24.2629746,24.9786806 22.972923,25.2360247 21.8519583,24.7719142 C20.7309935,24.3078037 20,23.2136908 20,22 C20,20.7863092 20.7309935,19.6921963 21.8519583,19.2280858 C22.972923,18.7639753 24.2629746,19.0213194 25.1202794,19.8800623 C25.6834576,20.4416783 26,21.2044774 26,22 C26,22.7955226 25.6834576,23.5583217 25.1202794,24.1199377 Z" id="Path" stroke-width="2"></path>
                <path d="M16.2963143,23 C13.2492871,22.2052307 9.68303546,20.0654671 6.49937022,16.8863898 C0.685423603,11.1328033 -1.65791798,4.11573742 1.24563938,1.23554773 C4.14919673,-1.64464196 11.1997172,0.678529913 17,6.45928799" id="Path" stroke-width="2"></path>
            </g>
        </g>
    </g>
</svg>