<svg xmlns="http://www.w3.org/2000/svg" width="48" height="60" viewBox="0 0 48 60" fill="none"><path opacity="0.1" d="M0 45.9764L24 60L48 45.9764L24 32.0415L0 45.9764Z" fill="url(#paint0_linear_1850_41)"></path><path d="M24.1778 43.0469L0 29.6445V40.8279L24.1778 54.8515V43.0469Z" fill="url(#paint1_linear_1850_41)"></path><path d="M48.0019 40.8279V29.6445L24.1797 43.1356V54.8515L48.0019 40.8279Z" fill="url(#paint2_linear_1850_41)"></path><path d="M0 29.6443L24.0889 43.6679L48 29.6443L43.6444 27.0703L24.0889 38.875L4.17778 27.2478L0 29.6443Z" fill="url(#paint3_linear_1850_41)"></path><path d="M24.0889 26.6273L0 13.9351V25.0297L24.0889 39.0533V26.6273Z" fill="url(#paint4_linear_1850_41)"></path><path d="M47.9121 25.0297V13.9351L24.0898 26.7161V39.0533L47.9121 25.0297Z" fill="url(#paint5_linear_1850_41)"></path><path d="M0 13.9349L24.0889 27.9585L47.9111 13.9349L24 0L0 13.9349Z" fill="url(#paint6_linear_1850_41)"></path><path d="M10.4023 13.6684L24.8912 22.1004L26.2246 21.3016L11.8246 12.8696L10.4023 13.6684Z" fill="#818696"></path><path d="M16.3516 10.1186L30.8405 18.5506L32.0849 17.7517L17.6849 9.31982L16.3516 10.1186Z" fill="#818696"></path><path d="M21.8672 6.92284L36.3561 15.3548L37.6894 14.5559L23.2894 6.12402L21.8672 6.92284Z" fill="#818696"></path><path fill-rule="evenodd" clip-rule="evenodd" d="M10.5811 13.3135C12.0922 12.7809 13.6922 12.7809 15.1144 13.3135V14.4673C15.1144 14.9111 14.8477 15.2661 14.4033 15.4436C13.4255 15.9762 12.1811 15.9762 11.2033 15.4436C10.8477 15.2661 10.5811 14.9111 10.4922 14.4673C10.5811 14.201 10.5811 13.846 10.5811 13.3135Z" fill="url(#paint7_linear_1850_41)"></path><path fill-rule="evenodd" clip-rule="evenodd" d="M11.2005 12.4258C12.1783 11.8932 13.4227 11.8932 14.4005 12.4258C14.9338 12.6033 15.2005 13.2246 15.0227 13.7571C14.9338 14.0234 14.6672 14.2897 14.4005 14.3784C13.4227 14.911 12.1783 14.911 11.2005 14.3784C10.6672 14.2009 10.4005 13.5796 10.5783 13.0471C10.7561 12.7808 10.9338 12.5145 11.2005 12.4258Z" fill="url(#paint8_linear_1850_41)"></path><path fill-rule="evenodd" clip-rule="evenodd" d="M24.0889 14.2895C25.6 13.757 27.2 13.757 28.6222 14.2895V15.5321C28.5333 15.8872 28.3556 16.2422 27.9111 16.4197C26.9333 16.9523 25.6889 16.9523 24.7111 16.4197C24.3556 16.2422 24.0889 15.8872 24 15.4434C24 15.0884 24 14.8221 24.0889 14.2895Z" fill="url(#paint9_linear_1850_41)"></path><path fill-rule="evenodd" clip-rule="evenodd" d="M24.7084 13.3135C25.6862 12.7809 26.9306 12.7809 27.9084 13.3135C28.4418 13.491 28.7084 14.1123 28.5306 14.6448C28.4418 14.9111 28.1751 15.0886 27.9084 15.2661C26.9306 15.7987 25.6862 15.7987 24.7084 15.2661C24.1751 15.0886 23.9084 14.5561 23.9973 14.0235C24.1751 13.6685 24.4418 13.4022 24.7084 13.3135Z" fill="url(#paint10_linear_1850_41)"></path><path fill-rule="evenodd" clip-rule="evenodd" d="M24.624 7.81054C26.1352 7.278 27.7352 7.278 29.1574 7.81054V9.05314C29.0685 9.40817 28.8907 9.7632 28.4463 9.94071C27.4685 10.4733 26.224 10.4733 25.2463 9.94071C24.8907 9.7632 24.624 9.40817 24.5352 8.96438C24.624 8.60935 24.624 8.34308 24.624 7.81054Z" fill="url(#paint11_linear_1850_41)"></path><path fill-rule="evenodd" clip-rule="evenodd" d="M25.3333 6.83447C26.3111 6.30192 27.5555 6.30192 28.5333 6.83447C29.0667 7.01198 29.3333 7.63328 29.1555 8.16582C29.0667 8.43209 28.8 8.60961 28.5333 8.78712C27.5555 9.31966 26.3111 9.31966 25.3333 8.78712C24.8 8.60961 24.5333 8.07706 24.7111 7.54452C24.7111 7.18949 24.9778 6.92322 25.3333 6.83447Z" fill="url(#paint12_linear_1850_41)"></path><defs><linearGradient id="paint0_linear_1850_41" x1="38.801" y1="56.6703" x2="9.88828" y2="35.7183" gradientUnits="userSpaceOnUse"><stop></stop><stop offset="1"></stop></linearGradient><linearGradient id="paint1_linear_1850_41" x1="24.1778" y1="49.5115" x2="-2.07783" y2="45.3871" gradientUnits="userSpaceOnUse"><stop stop-color="#001DAC"></stop><stop offset="1" stop-color="#000F57"></stop></linearGradient><linearGradient id="paint2_linear_1850_41" x1="24.1797" y1="31.4889" x2="49.4426" y2="33.7684" gradientUnits="userSpaceOnUse"><stop stop-color="#0082F8"></stop><stop offset="1" stop-color="#1C40F2"></stop></linearGradient><linearGradient id="paint3_linear_1850_41" x1="45.3333" y1="29.9991" x2="5.61415" y2="35.8874" gradientUnits="userSpaceOnUse"><stop stop-color="#0082F8"></stop><stop offset="1" stop-color="#1C40F2"></stop></linearGradient><linearGradient id="paint4_linear_1850_41" x1="-4.47111" y1="26.4942" x2="19.6178" y2="26.4942" gradientUnits="userSpaceOnUse"><stop stop-color="#989AAD"></stop><stop offset="1" stop-color="#98A0B7"></stop></linearGradient><linearGradient id="paint5_linear_1850_41" x1="54.0987" y1="26.4942" x2="54.5165" y2="26.4942" gradientUnits="userSpaceOnUse"><stop stop-color="#E7E9E9"></stop><stop offset="1" stop-color="#98AACD"></stop></linearGradient><linearGradient id="paint6_linear_1850_41" x1="38.7372" y1="24.6131" x2="9.86895" y2="3.69679" gradientUnits="userSpaceOnUse"><stop stop-color="#CDD3DB"></stop><stop offset="1" stop-color="#ACB0C2"></stop></linearGradient><linearGradient id="paint7_linear_1850_41" x1="15.1144" y1="15.2226" x2="10.2931" y2="13.9765" gradientUnits="userSpaceOnUse"><stop stop-color="#001DAC"></stop><stop offset="1" stop-color="#000F57"></stop></linearGradient><linearGradient id="paint8_linear_1850_41" x1="10.5234" y1="12.2277" x2="15.2737" y2="12.9784" gradientUnits="userSpaceOnUse"><stop stop-color="#0082F8"></stop><stop offset="1" stop-color="#1C40F2"></stop></linearGradient><linearGradient id="paint9_linear_1850_41" x1="28.6222" y1="16.1986" x2="23.801" y2="14.9526" gradientUnits="userSpaceOnUse"><stop stop-color="#001DAC"></stop><stop offset="1" stop-color="#000F57"></stop></linearGradient><linearGradient id="paint10_linear_1850_41" x1="23.9805" y1="13.1154" x2="28.7812" y2="13.8825" gradientUnits="userSpaceOnUse"><stop stop-color="#0082F8"></stop><stop offset="1" stop-color="#1C40F2"></stop></linearGradient><linearGradient id="paint11_linear_1850_41" x1="29.1574" y1="9.71962" x2="24.3361" y2="8.47356" gradientUnits="userSpaceOnUse"><stop stop-color="#001DAC"></stop><stop offset="1" stop-color="#000F57"></stop></linearGradient><linearGradient id="paint12_linear_1850_41" x1="24.6562" y1="6.63639" x2="29.4065" y2="7.38705" gradientUnits="userSpaceOnUse"><stop stop-color="#0082F8"></stop><stop offset="1" stop-color="#1C40F2"></stop></linearGradient></defs></svg>