<svg xmlns="http://www.w3.org/2000/svg" width="93" height="30" viewBox="0 0 93 30" fill="none"><path d="M11.3413 0H12.1602C15.0031 0.0616812 17.7997 1.20278 19.8083 3.22284C19.0666 3.97844 18.3095 4.70319 17.5834 5.45879C16.4555 4.44105 15.0958 3.65461 13.6125 3.37705C11.4185 2.91444 9.05457 3.33079 7.21593 4.57983C5.20734 5.89056 3.84768 8.11108 3.55411 10.4858C3.22965 12.8297 3.89403 15.2969 5.42365 17.1165C6.89147 18.8899 9.13182 20.0001 11.4494 20.0772C13.6125 20.2006 15.8683 19.5375 17.4443 18.0263C18.6804 16.9623 19.252 15.3432 19.4374 13.7703C16.8726 13.7703 14.3078 13.7857 11.743 13.7703V10.5937H22.543C23.0993 14.0016 22.2958 17.8413 19.7001 20.2777C17.9696 22.0048 15.5748 23.0225 13.1336 23.223C10.7696 23.4543 8.32838 23.0071 6.22709 21.866C3.70862 20.5244 1.70003 18.2576 0.711182 15.5899C-0.21586 13.1381 -0.231311 10.3624 0.633929 7.89519C1.42191 5.64383 2.93608 3.65461 4.88287 2.26678C6.75241 0.894378 9.02366 0.138783 11.3413 0Z" fill="#3780FF"></path><path d="M73.2969 0.801758H76.6033V22.8219C75.5063 22.8219 74.3939 22.8374 73.2969 22.8065C73.3123 15.4819 73.2969 8.14182 73.2969 0.801758Z" fill="#38B137"></path><path d="M29.8952 8.43464C31.9347 8.04913 34.1441 8.4809 35.8283 9.69911C37.3579 10.7785 38.424 12.4748 38.7484 14.3252C39.1656 16.4686 38.6403 18.8125 37.2497 20.5087C35.751 22.4054 33.2943 23.4232 30.8995 23.269C28.7055 23.1456 26.5733 22.0508 25.2754 20.262C23.8076 18.2882 23.4522 15.5742 24.2557 13.2612C25.0591 10.7785 27.3304 8.88183 29.8952 8.43464ZM30.3587 11.3645C29.5244 11.5804 28.7518 12.0584 28.1956 12.7369C26.6969 14.5257 26.7896 17.4401 28.4428 19.1055C29.3853 20.0615 30.8068 20.5087 32.1201 20.2466C33.3407 20.0307 34.4068 19.2134 34.9939 18.134C36.0137 16.299 35.7201 13.7701 34.1596 12.336C33.1553 11.4108 31.6875 11.0253 30.3587 11.3645Z" fill="#FA3913"></path><path d="M46.277 8.4348C48.6101 7.98761 51.1595 8.63526 52.9054 10.2698C55.7483 12.8142 56.0574 17.579 53.6316 20.5089C52.1638 22.3593 49.7844 23.3771 47.4359 23.2691C45.1955 23.2074 42.986 22.0972 41.6573 20.2622C40.1586 18.2421 39.8341 15.4665 40.6839 13.1072C41.5337 10.7016 43.7586 8.86657 46.277 8.4348ZM46.7406 11.3647C45.9062 11.5805 45.1337 12.0586 44.5775 12.7216C43.0942 14.4796 43.156 17.3477 44.7474 19.0285C45.6899 20.0309 47.1577 20.5243 48.5174 20.2468C49.7226 20.0154 50.8041 19.2136 51.3912 18.1342C52.3955 16.2837 52.102 13.7548 50.526 12.3207C49.5217 11.3955 48.0539 11.0254 46.7406 11.3647Z" fill="#FCBD06"></path><path d="M60.1644 9.32966C61.9413 8.21939 64.3052 7.91099 66.2211 8.86705C66.8237 9.12919 67.3181 9.57638 67.7971 10.0236C67.8125 9.60722 67.7971 9.17545 67.8125 8.74369C68.8477 8.75911 69.8829 8.74369 70.9336 8.75911V22.3598C70.9181 24.4107 70.3928 26.585 68.9095 28.0807C67.2872 29.7307 64.7996 30.2396 62.5593 29.9003C60.1644 29.5457 58.0786 27.8032 57.1515 25.5981C58.0786 25.1509 59.052 24.7962 60.0099 24.3799C60.5507 25.6443 61.6477 26.7238 63.0228 26.9705C64.3979 27.2172 65.9893 26.878 66.8855 25.7369C67.8434 24.5649 67.8434 22.9612 67.7971 21.5271C67.0863 22.221 66.2675 22.8378 65.2786 23.0691C63.131 23.6705 60.767 22.9304 59.1138 21.4809C57.4451 20.0313 56.4563 17.7954 56.549 15.5749C56.5953 13.0614 58.0168 10.6404 60.1644 9.32966ZM63.3627 11.3035C62.4202 11.4577 61.5395 11.9819 60.937 12.7067C59.4846 14.4338 59.4846 17.194 60.9524 18.8902C61.7868 19.8926 63.131 20.4477 64.4288 20.3089C65.6494 20.1855 66.7773 19.4145 67.3799 18.3505C68.3997 16.5464 68.2297 14.0945 66.8546 12.5217C66.0048 11.5502 64.6451 11.0722 63.3627 11.3035Z" fill="#3780FF"></path><path d="M80.577 10.115C82.4311 8.3879 85.2895 7.80193 87.6689 8.71173C89.9247 9.55984 91.3616 11.7033 92.0878 13.9084C88.735 15.2962 85.3976 16.6686 82.0448 18.0564C82.5084 18.9354 83.2191 19.7372 84.177 20.0611C85.5212 20.5391 87.1281 20.3695 88.256 19.4751C88.7041 19.1359 89.0595 18.6887 89.3994 18.2569C90.2492 18.8274 91.0989 19.3826 91.9487 19.9531C90.7436 21.7573 88.7195 23.0218 86.541 23.2222C84.1307 23.5152 81.5659 22.59 80.0053 20.7087C77.4405 17.748 77.6877 12.7827 80.577 10.115ZM82.2302 12.9677C81.7049 13.7233 81.4886 14.6485 81.5041 15.5583C83.7444 14.6331 85.9848 13.7079 88.2251 12.7673C87.8543 11.9037 86.9582 11.3794 86.0466 11.2407C84.5788 10.9785 83.0491 11.7649 82.2302 12.9677Z" fill="#FA3913"></path></svg>