<svg xmlns="http://www.w3.org/2000/svg" width="122" height="18" viewBox="0 0 122 18" fill="none"><path d="M18 0H0V18H18V0Z" fill="#01B67B"></path><path d="M8.99922 12.1309L11.7367 11.4371L12.8805 14.9621L8.99922 12.1309ZM15.2992 7.57461H10.4805L8.99922 3.03711L7.51797 7.57461H2.69922L6.59922 10.3871L5.11797 14.9246L9.01797 12.1121L11.418 10.3871L15.2992 7.57461Z" fill="white"></path><path d="M44 0H26V18H44V0Z" fill="#01B67B"></path><path d="M34.9992 12.1309L37.7367 11.4371L38.8805 14.9621L34.9992 12.1309ZM41.2992 7.57461H36.4805L34.9992 3.03711L33.518 7.57461H28.6992L32.5992 10.3871L31.118 14.9246L35.018 12.1121L37.418 10.3871L41.2992 7.57461Z" fill="white"></path><path d="M70 0H52V18H70V0Z" fill="#01B67B"></path><path d="M60.9992 12.1309L63.7367 11.4371L64.8805 14.9621L60.9992 12.1309ZM67.2992 7.57461H62.4805L60.9992 3.03711L59.518 7.57461H54.6992L58.5992 10.3871L57.118 14.9246L61.018 12.1121L63.418 10.3871L67.2992 7.57461Z" fill="white"></path><path d="M96 0H78V18H96V0Z" fill="#01B67B"></path><path d="M86.9992 12.1309L89.7367 11.4371L90.8805 14.9621L86.9992 12.1309ZM93.2992 7.57461H88.4805L86.9992 3.03711L85.518 7.57461H80.6992L84.5992 10.3871L83.118 14.9246L87.018 12.1121L89.418 10.3871L93.2992 7.57461Z" fill="white"></path><path d="M122 0H104V18H122V0Z" fill="#01B67B"></path><path d="M112.999 12.1309L115.737 11.4371L116.88 14.9621L112.999 12.1309ZM119.299 7.57461H114.48L112.999 3.03711L111.518 7.57461H106.699L110.599 10.3871L109.118 14.9246L113.018 12.1121L115.418 10.3871L119.299 7.57461Z" fill="white"></path></svg>