<svg xmlns="http://www.w3.org/2000/svg" width="50" height="50" viewBox="0 0 50 50" fill="none"><circle cx="25" cy="25" r="25" fill="#F9A541" fill-opacity="0.1"></circle><path d="M22.2025 29.9892L24.5697 27.6174L19.2303 22.2755C18.4645 21.5087 18.4629 20.2569 19.2344 19.4844C20.0035 18.7143 21.2497 18.7143 22.0188 19.4835L22.2025 19.6682L24.5721 17.2972L24.3877 17.1127C23.0371 15.7604 21.1414 15.2875 19.409 15.694C19.16 14.1668 17.8368 13.0008 16.2406 13C14.4678 13 13.0307 14.4397 13.0303 16.2147C13.0303 17.7459 14.0991 19.0269 15.5301 19.3508C14.9879 21.1662 15.431 23.2141 16.8623 24.6473L22.2025 29.9892Z" fill="#7AC143"></path><path d="M19.9746 22.4577L22.3442 24.8286L24.8505 22.3217L27.2202 19.9508L27.6819 19.4885C28.4543 18.716 29.6973 18.7175 30.464 19.4844C31.2323 20.2536 31.2323 21.5022 30.4632 22.2723L30.2804 22.4561L32.6476 24.8287L32.832 24.6433C34.2489 23.2238 34.6994 21.2035 34.1826 19.4018C35.7556 19.1945 36.9703 17.8463 36.9703 16.2147C36.9703 14.4389 35.5323 13 33.7596 13C32.1364 13 30.7948 14.2057 30.5788 15.771C28.7729 15.2397 26.7405 15.6892 25.3147 17.1167L19.9746 22.4577Z" fill="#F9A541"></path><path d="M30.4637 27.9464C31.2353 28.7197 31.2337 29.9642 30.4678 30.7319C29.6995 31.5011 28.4524 31.5011 27.6825 30.731L27.5005 30.5489L25.1333 32.9215L25.3153 33.1029C26.7573 34.5466 28.8212 34.9879 30.6433 34.4267C30.9401 35.8956 32.2357 37.0001 33.7901 37.0001C35.5628 37.0001 37.0008 35.562 37.0008 33.7862C37.0008 32.1643 35.8015 30.8226 34.2414 30.6032C34.6652 28.8582 34.1945 26.9399 32.8325 25.5763L27.5005 20.2319L25.1309 22.6021L30.4637 27.9464Z" fill="#F44321"></path><path d="M29.7189 27.7631L27.3517 25.3906L22.0189 30.7349C21.2522 31.5025 20.0027 31.5041 19.2311 30.7316C18.462 29.9607 18.4612 28.7138 19.2304 27.9437L19.4131 27.7615L17.0435 25.3906L16.8624 25.572C15.4857 26.9502 15.0215 28.896 15.4695 30.6572C14.0538 30.9916 13 32.2661 13 33.786C12.9996 35.5609 14.4371 36.9998 16.2107 36.9998C17.7358 36.999 19.0136 35.935 19.3403 34.5066C21.0912 34.9414 23.0201 34.4759 24.3877 33.1058L29.7189 27.7631Z" fill="#5091CD"></path></svg>