<svg xmlns="http://www.w3.org/2000/svg" width="123" height="30" viewBox="0 0 123 30" fill="none"><path d="M32.1141 10.6318L44.4766 10.6318L44.4766 12.9332L39.609 12.9332L39.609 25.9067L36.941 25.9067L36.941 12.9332L32.0937 12.9332L32.1141 10.6318ZM43.947 14.8477L46.2281 14.8477L46.2281 16.9862L46.2688 16.9862C46.3503 16.6807 46.4928 16.3955 46.6965 16.1104C46.9002 15.8253 47.1446 15.5605 47.4501 15.3365C47.7352 15.0921 48.061 14.9088 48.4276 14.7662C48.7739 14.6237 49.1405 14.5422 49.5071 14.5422C49.7922 14.5422 49.9959 14.5626 50.0977 14.5626C50.1995 14.5829 50.3217 14.6033 50.4236 14.6033L50.4236 16.9454C50.2606 16.9047 50.0773 16.8843 49.894 16.864C49.7107 16.8436 49.5478 16.8232 49.3645 16.8232C48.9572 16.8232 48.5702 16.9047 48.2036 17.0676C47.837 17.2306 47.5315 17.475 47.2464 17.7805C46.9816 18.1063 46.7576 18.4933 46.5947 18.9617C46.4317 19.4301 46.3503 19.98 46.3503 20.591L46.3503 25.8456L43.9063 25.8456L43.947 14.8477ZM61.6251 25.9067L59.2219 25.9067L59.2219 24.3588L59.1811 24.3588C58.8756 24.9291 58.4276 25.3568 57.8369 25.703C57.2463 26.0492 56.6353 26.2122 56.0243 26.2122C54.5783 26.2122 53.5193 25.8659 52.8675 25.1328C52.2158 24.4199 51.8899 23.3201 51.8899 21.8741L51.8899 14.8477L54.3339 14.8477L54.3339 21.6297C54.3339 22.6073 54.5172 23.2998 54.9042 23.6867C55.2708 24.0941 55.8003 24.2977 56.4724 24.2977C56.9816 24.2977 57.4093 24.2163 57.7555 24.0533C58.1017 23.8904 58.3868 23.6867 58.5905 23.422C58.8145 23.1572 58.9571 22.8313 59.0589 22.4647C59.1608 22.0981 59.2015 21.6908 59.2015 21.2631L59.2015 14.8477L61.6455 14.8477L61.6455 25.9067L61.6251 25.9067ZM65.7799 22.3629C65.8613 23.0757 66.1261 23.5645 66.5945 23.87C67.063 24.1552 67.6332 24.2977 68.2849 24.2977C68.509 24.2977 68.7737 24.2774 69.0589 24.2366C69.344 24.1959 69.6291 24.1348 69.8735 24.033C70.1383 23.9311 70.342 23.7886 70.5049 23.5849C70.6678 23.3812 70.7493 23.1368 70.7289 22.8313C70.7085 22.5258 70.6067 22.2611 70.3827 22.0574C70.1587 21.8538 69.8939 21.7112 69.568 21.5686C69.2422 21.4464 68.8552 21.3446 68.4275 21.2631C67.9998 21.1817 67.5721 21.0798 67.1241 20.978C66.676 20.8762 66.2279 20.754 65.8002 20.6114C65.3725 20.4688 65.0059 20.2855 64.6597 20.0208C64.3339 19.7764 64.0487 19.4709 63.8654 19.0839C63.6618 18.697 63.5599 18.2489 63.5599 17.6786C63.5599 17.0676 63.7025 16.5788 64.008 16.1715C64.2931 15.7642 64.6801 15.4383 65.1281 15.1939C65.5762 14.9495 66.0854 14.7662 66.6353 14.6644C67.1852 14.5626 67.7147 14.5218 68.2035 14.5218C68.7737 14.5218 69.3236 14.5829 69.8328 14.7051C70.342 14.8273 70.8307 15.0106 71.2381 15.2958C71.6658 15.5605 72.012 15.9271 72.2768 16.3548C72.5619 16.7825 72.7248 17.312 72.8063 17.923L70.2605 17.923C70.1383 17.3324 69.8735 16.9454 69.4662 16.7418C69.0385 16.5381 68.5701 16.4363 68.0202 16.4363C67.8572 16.4363 67.6332 16.4566 67.4092 16.477C67.1648 16.5177 66.9611 16.5585 66.7371 16.6399C66.5334 16.7214 66.3501 16.8436 66.2076 16.9862C66.065 17.1287 65.9835 17.3324 65.9835 17.5768C65.9835 17.8823 66.0854 18.1063 66.289 18.2896C66.4927 18.4729 66.7575 18.6155 67.1037 18.7581C67.4295 18.8803 67.8165 18.9821 68.2442 19.0636C68.6719 19.145 69.12 19.2468 69.568 19.3487C70.0161 19.4505 70.4438 19.5727 70.8715 19.7153C71.2992 19.8578 71.6861 20.0411 72.012 20.3059C72.3379 20.5503 72.623 20.8558 72.8267 21.2224C73.0303 21.589 73.1322 22.0574 73.1322 22.5869C73.1322 23.2387 72.9896 23.7886 72.6841 24.257C72.3786 24.7051 71.9916 25.092 71.5232 25.3772C71.0548 25.6623 70.5049 25.8659 69.9346 26.0085C69.344 26.1307 68.7737 26.2122 68.2035 26.2122C67.511 26.2122 66.8593 26.1307 66.2687 25.9678C65.678 25.8048 65.1485 25.5604 64.7208 25.255C64.2931 24.9291 63.9469 24.5421 63.7025 24.0533C63.4581 23.5849 63.3155 23.0146 63.2952 22.3426L65.7595 22.3426L65.7595 22.3629L65.7799 22.3629ZM73.8246 14.8477L75.678 14.8477L75.678 11.5076L78.1219 11.5076L78.1219 14.8273L80.3215 14.8273L80.3215 16.6399L78.1219 16.6399L78.1219 22.5462C78.1219 22.811 78.1423 23.0146 78.1627 23.2183C78.183 23.4016 78.2441 23.5645 78.3052 23.6867C78.3867 23.8089 78.5089 23.9108 78.6515 23.9719C78.8144 24.033 79.0181 24.0737 79.3032 24.0737C79.4661 24.0737 79.6494 24.0737 79.8124 24.0533C79.9753 24.033 80.1586 24.0126 80.3215 23.9719L80.3215 25.8659C80.0568 25.9067 79.792 25.927 79.5272 25.9474C79.2625 25.9881 79.0181 25.9881 78.7329 25.9881C78.0812 25.9881 77.572 25.927 77.1851 25.8048C76.7981 25.6827 76.4926 25.4994 76.2686 25.2753C76.0446 25.0309 75.902 24.7458 75.8205 24.3996C75.7391 24.0533 75.6983 23.6256 75.678 23.1776L75.678 16.6603L73.8246 16.6603L73.8246 14.807L73.8246 14.8477ZM82.0323 14.8477L84.3337 14.8477L84.3337 16.3548L84.3744 16.3548C84.7207 15.7031 85.1891 15.255 85.8001 14.9699C86.4111 14.6848 87.0628 14.5422 87.796 14.5422C88.6718 14.5422 89.4253 14.6848 90.077 15.0106C90.7288 15.3161 91.2583 15.7235 91.686 16.2733C92.1137 16.8029 92.4396 17.4342 92.6432 18.1471C92.8469 18.8599 92.9691 19.6338 92.9691 20.4281C92.9691 21.1817 92.8673 21.8945 92.684 22.5869C92.4803 23.2794 92.1952 23.9108 91.8082 24.4403C91.4212 24.9698 90.9324 25.3975 90.3214 25.7234C89.7105 26.0492 89.018 26.2122 88.2033 26.2122C87.8571 26.2122 87.4905 26.1714 87.1443 26.1103C86.798 26.0492 86.4518 25.9474 86.126 25.8049C85.8001 25.6623 85.4946 25.479 85.2298 25.255C84.9447 25.0309 84.7207 24.7662 84.5374 24.481L84.4966 24.481L84.4966 30.0003L82.0527 30.0003L82.0527 14.8477L82.0323 14.8477ZM90.5658 20.3874C90.5658 19.8986 90.5047 19.4098 90.3622 18.9414C90.24 18.4729 90.0363 18.0656 89.7716 17.699C89.5068 17.3324 89.1809 17.0473 88.8143 16.8232C88.4274 16.5992 87.9793 16.4974 87.4905 16.4974C86.4722 16.4974 85.6983 16.8436 85.1687 17.5564C84.6596 18.2693 84.3948 19.2265 84.3948 20.4077C84.3948 20.978 84.4559 21.4872 84.5985 21.9556C84.741 22.424 84.9243 22.8313 85.2095 23.1776C85.4742 23.5238 85.8001 23.7886 86.1871 23.9922C86.574 24.1959 87.0017 24.2977 87.5109 24.2977C88.0811 24.2977 88.5292 24.1755 88.9162 23.9515C89.3031 23.7275 89.6086 23.422 89.8734 23.0757C90.1178 22.7091 90.3011 22.3018 90.4029 21.8334C90.5047 21.3446 90.5658 20.8762 90.5658 20.3874ZM94.8632 10.6318L97.3071 10.6318L97.3071 12.9332L94.8632 12.9332L94.8632 10.6318ZM94.8632 14.8477L97.3071 14.8477L97.3071 25.9067L94.8632 25.9067L94.8632 14.8477ZM99.4864 10.6318L101.93 10.6318L101.93 25.9067L99.4864 25.9067L99.4864 10.6318ZM109.384 26.2122C108.509 26.2122 107.714 26.0696 107.022 25.7641C106.329 25.4586 105.759 25.0717 105.27 24.5625C104.802 24.0533 104.435 23.422 104.191 22.7091C103.947 21.9963 103.804 21.202 103.804 20.367C103.804 19.532 103.926 18.7581 104.191 18.0452C104.435 17.3324 104.802 16.7214 105.27 16.1919C105.739 15.6827 106.329 15.2754 107.022 14.9903C107.714 14.7051 108.509 14.5422 109.384 14.5422C110.26 14.5422 111.055 14.6848 111.747 14.9903C112.439 15.2754 113.01 15.6827 113.498 16.1919C113.967 16.701 114.333 17.3324 114.578 18.0452C114.822 18.7581 114.965 19.532 114.965 20.367C114.965 21.2224 114.843 21.9963 114.578 22.7091C114.313 23.422 113.967 24.033 113.498 24.5625C113.03 25.0717 112.439 25.479 111.747 25.7641C111.055 26.0492 110.281 26.2122 109.384 26.2122ZM109.384 24.2774C109.914 24.2774 110.403 24.1552 110.79 23.9311C111.197 23.7071 111.503 23.4016 111.767 23.035C112.032 22.6684 112.215 22.2407 112.338 21.7927C112.46 21.3242 112.521 20.8558 112.521 20.367C112.521 19.8986 112.46 19.4302 112.338 18.9617C112.215 18.4933 112.032 18.086 111.767 17.7194C111.503 17.3528 111.177 17.0676 110.79 16.8436C110.382 16.6196 109.914 16.4974 109.384 16.4974C108.855 16.4974 108.366 16.6196 107.979 16.8436C107.572 17.0676 107.266 17.3731 107.002 17.7194C106.737 18.086 106.554 18.4933 106.431 18.9617C106.309 19.4301 106.248 19.8986 106.248 20.367C106.248 20.8558 106.309 21.3242 106.431 21.7927C106.554 22.2611 106.737 22.6684 107.002 23.035C107.266 23.4016 107.592 23.7071 107.979 23.9311C108.386 24.1755 108.855 24.2774 109.384 24.2774ZM115.698 14.8477L117.551 14.8477L117.551 11.5076L119.995 11.5076L119.995 14.8273L122.195 14.8273L122.195 16.6399L119.995 16.6399L119.995 22.5462C119.995 22.811 120.016 23.0146 120.036 23.2183C120.056 23.4016 120.118 23.5645 120.179 23.6867C120.26 23.8089 120.382 23.9108 120.525 23.9719C120.688 24.033 120.892 24.0737 121.177 24.0737C121.34 24.0737 121.523 24.0737 121.686 24.0533C121.849 24.033 122.032 24.0126 122.195 23.9719L122.195 25.8659C121.93 25.9067 121.665 25.927 121.401 25.9474C121.136 25.9881 120.892 25.9881 120.606 25.9881C119.955 25.9881 119.445 25.9271 119.059 25.8049C118.672 25.6827 118.366 25.4994 118.142 25.2753C117.918 25.0309 117.775 24.7458 117.694 24.3996C117.613 24.0533 117.572 23.6256 117.551 23.1776L117.551 16.6603L115.698 16.6603L115.698 14.807L115.698 14.8477Z" fill="black"></path><path d="M29.2666 10.6313L18.0854 10.6313L14.6435 1.28017e-06L11.1812 10.6313L-9.27637e-07 10.6109L9.04271 17.1893L5.58041 27.8206L14.6231 21.2422L23.6658 27.8206L20.2239 17.1893L29.2666 10.6313Z" fill="#00B67A"></path><path d="M20.9989 19.5927L20.2249 17.1895L14.6445 21.2424L20.9989 19.5927Z" fill="#005128"></path></svg>