<svg xmlns="http://www.w3.org/2000/svg" width="62" height="61" viewBox="0 0 62 61" fill="none"><path d="M30.9134 50.684L0 38.6934V42.4404L30.9134 60.4732V50.684Z" fill="url(#paint0_linear_2388_231)"></path><path d="M61.8269 42.253V38.6465L30.9136 55.8362V60.4732L61.8269 42.253Z" fill="url(#paint1_linear_2388_231)"></path><path d="M0 38.6932L30.8665 56.726L61.8267 38.6464L30.8665 20.6604L0 38.6932Z" fill="url(#paint2_linear_2388_231)"></path><path opacity="0.3" d="M9.41479 38.3656L30.6794 50.731L51.7567 38.3656L30.5858 26.0471L9.41479 38.3656Z" fill="url(#paint3_linear_2388_231)"></path><path d="M30.9136 36.0234L9.36792 24.7354V32.089L30.9136 44.5948V36.0234Z" fill="url(#paint4_linear_2388_231)"></path><path d="M51.9909 32.1827V24.7354L30.9136 35.9766L30.9604 44.5948L51.9909 32.1827Z" fill="url(#paint5_linear_2388_231)"></path><path d="M9.32104 24.7355L30.9136 37.054L51.7567 24.7355L30.5857 12.3701L9.32104 24.7355Z" fill="url(#paint6_linear_2388_231)"></path><path d="M30.9136 24.0799L9.36792 12.9324V20.286L30.9136 32.6514V24.0799Z" fill="url(#paint7_linear_2388_231)"></path><path d="M51.9909 20.2391V12.7917L30.9136 24.033V32.6512L51.9909 20.2391Z" fill="url(#paint8_linear_2388_231)"></path><path d="M9.32104 12.9322L30.8667 25.3444L51.944 12.7917L30.5857 0.473145L9.32104 12.9322Z" fill="url(#paint9_linear_2388_231)"></path><path fill-rule="evenodd" clip-rule="evenodd" d="M29.373 6.27867L24.7286 8.96011C23.9191 9.42746 23.9093 10.1823 24.7068 10.6427L26.2904 11.557L21.2641 14.4589C20.6799 14.7962 20.6728 15.3409 21.2483 15.6731L26.1873 18.5246C26.7628 18.8569 27.7062 18.8528 28.2904 18.5156L30.4724 17.2558L31.204 17.7993L30.7152 18.0815C30.1781 18.3916 30.1716 18.8925 30.7008 19.198C31.23 19.5035 32.0975 19.4998 32.6347 19.1897L43.226 13.0747C43.4619 12.9385 43.4648 12.7194 43.2324 12.5853L32.2872 6.26606C31.4898 5.80566 30.1825 5.81132 29.373 6.27867ZM27.0414 18.0315L22.1024 15.18C21.9928 15.1167 21.9942 15.009 22.1055 14.9447L30.3399 10.1906C30.4512 10.1263 30.6378 10.1255 30.7474 10.1888L35.6864 13.0403C35.7961 13.1036 35.7947 13.2114 35.6834 13.2756L27.449 18.0298C27.3377 18.094 27.1511 18.0948 27.0414 18.0315ZM31.333 16.7589L33.4822 15.5181L34.4236 15.9405L32.0647 17.3024L31.333 16.7589ZM31.7933 18.7039C31.7282 18.7414 31.6191 18.7419 31.5549 18.7049C31.4908 18.6679 31.4917 18.6049 31.5567 18.5673L36.6144 15.6472C36.6795 15.6096 36.7887 15.6092 36.8528 15.6462C36.9169 15.6832 36.9161 15.7462 36.851 15.7838L31.7933 18.7039ZM41.9576 12.8355L37.8175 15.2257C37.7836 15.2005 37.747 15.1762 37.7069 15.153C37.1778 14.8475 36.3102 14.8513 35.773 15.1614L35.2842 15.4436L34.3428 15.0212L36.5249 13.7614C37.109 13.4241 37.1161 12.8794 36.5406 12.5472L32.0765 9.96981L33.4209 9.19363C33.6568 9.05745 33.6596 8.83832 33.4272 8.70416C33.1949 8.57001 32.8153 8.57165 32.5795 8.70783L31.1674 9.52306C30.6213 9.3821 29.9518 9.44305 29.4985 9.70476L27.1445 11.0638L25.5609 10.1495C25.2274 9.95698 25.2315 9.64136 25.57 9.44591L30.2144 6.76447C30.5529 6.56902 31.0996 6.56666 31.4331 6.7592L41.9576 12.8355ZM31.4551 7.56554C31.6874 7.69969 31.6846 7.91882 31.4487 8.05501L27.8053 10.1585C27.5694 10.2947 27.1899 10.2964 26.9575 10.1622C26.7251 10.0281 26.728 9.80893 26.9639 9.67274L30.6073 7.56921C30.8432 7.43302 31.2227 7.43138 31.4551 7.56554ZM37.2709 11.3657C37.5244 11.5121 37.5213 11.7525 37.264 11.9011C37.0067 12.0496 36.5902 12.0514 36.3367 11.9051C36.0833 11.7588 36.0864 11.5183 36.3437 11.3697C36.6009 11.2212 37.0175 11.2194 37.2709 11.3657ZM39.1641 12.4588C39.4176 12.6051 39.4145 12.8456 39.1572 12.9941C38.8999 13.1427 38.4834 13.1445 38.2299 12.9981C37.9765 12.8518 37.9796 12.6113 38.2369 12.4628C38.4942 12.3142 38.9107 12.3124 39.1641 12.4588Z" fill="#7A8299"></path><path d="M36.5342 44.8761V31.3398L38.9229 32.5576L39.6255 32.5108L40.0002 45.3445L38.9229 46.094L36.5342 44.8761Z" fill="url(#paint10_linear_2388_231)"></path><path d="M57.5646 21.5036L38.8761 32.6043L36.4873 31.3397L54.8948 20.1921L57.5646 21.5036Z" fill="url(#paint11_linear_2388_231)"></path><path d="M38.876 32.6044L57.5645 21.5037V35.1805L38.876 46.1875V32.6044Z" fill="url(#paint12_linear_2388_231)"></path><path d="M43.3897 37.7718L43.8608 34.6998L44.2107 34.4978L44.8014 35.9508L45.392 33.8158L45.7419 33.6138L46.213 36.1418L45.7817 36.3908L45.4907 34.8268L44.9451 36.8098L44.6559 36.9768L44.1103 35.6238L43.821 37.5228L43.3897 37.7718ZM47.2066 35.6202C47.0473 35.7122 46.9018 35.7488 46.7701 35.7302C46.6396 35.7108 46.5351 35.6445 46.4566 35.5312C46.3793 35.4158 46.3406 35.2615 46.3406 35.0682C46.3406 34.9215 46.3631 34.7718 46.4081 34.6192C46.4532 34.4652 46.5149 34.3175 46.5935 34.1762C46.6731 34.0328 46.7655 33.9035 46.8706 33.7882C46.9757 33.6728 47.0877 33.5808 47.2066 33.5122C47.366 33.4202 47.5109 33.3838 47.6413 33.4032C47.773 33.4218 47.8775 33.4888 47.9548 33.6042C48.0334 33.7188 48.0726 33.8735 48.0726 34.0682C48.0726 34.2135 48.0501 34.3625 48.0051 34.5152C47.96 34.6678 47.8977 34.8158 47.818 34.9592C47.7395 35.1005 47.6477 35.2288 47.5426 35.3442C47.4387 35.4588 47.3267 35.5508 47.2066 35.6202ZM47.2066 35.1322C47.2909 35.0835 47.3665 35.0138 47.4335 34.9232C47.5005 34.8325 47.553 34.7335 47.5911 34.6262C47.6304 34.5182 47.65 34.4135 47.65 34.3122C47.65 34.2082 47.6298 34.1252 47.5894 34.0632C47.5501 33.9992 47.4964 33.9615 47.4283 33.9502C47.3613 33.9368 47.2874 33.9535 47.2066 34.0002C47.1235 34.0482 47.0484 34.1175 46.9814 34.2082C46.9145 34.2988 46.8613 34.3988 46.8221 34.5082C46.7828 34.6175 46.7632 34.7228 46.7632 34.8242C46.7632 34.9295 46.7834 35.0132 46.8238 35.0752C46.8642 35.1372 46.9179 35.1742 46.9849 35.1862C47.053 35.1962 47.1269 35.1782 47.2066 35.1322ZM49.3333 34.3403L48.7877 34.6553L48.1572 33.0173L48.6075 32.7573L49.0613 33.9353L49.5134 32.2343L49.9637 31.9743L49.3333 34.3403ZM50.9143 33.4795C50.7549 33.5715 50.6094 33.6082 50.4778 33.5895C50.3473 33.5702 50.2428 33.5032 50.1643 33.3885C50.0869 33.2732 50.0482 33.1189 50.0482 32.9255C50.0482 32.7802 50.0708 32.6312 50.1158 32.4785C50.1608 32.3245 50.2226 32.1769 50.3011 32.0355C50.3808 31.8922 50.4732 31.7629 50.5783 31.6475C50.6833 31.5322 50.7953 31.4402 50.9143 31.3715C51.0494 31.2935 51.1729 31.2555 51.2849 31.2575C51.3981 31.2575 51.4939 31.2922 51.5725 31.3615C51.651 31.4309 51.7081 31.5285 51.7439 31.6545C51.7797 31.7805 51.7878 31.9292 51.7682 32.1005L50.502 32.8315C50.5182 32.8969 50.5448 32.9489 50.5817 32.9875C50.6187 33.0249 50.6654 33.0452 50.722 33.0485C50.7786 33.0505 50.8427 33.0315 50.9143 32.9915C50.9882 32.9502 51.0551 32.8915 51.1152 32.8155C51.1764 32.7375 51.2272 32.6509 51.2676 32.5555L51.6989 32.4225C51.6285 32.6405 51.5234 32.8465 51.3837 33.0405C51.2439 33.2332 51.0875 33.3795 50.9143 33.4795ZM50.4882 32.4735L51.3404 31.9815C51.3277 31.9089 51.3005 31.8525 51.259 31.8125C51.2185 31.7705 51.1683 31.7475 51.1083 31.7435C51.0482 31.7395 50.9836 31.7575 50.9143 31.7975C50.845 31.8375 50.7809 31.8939 50.722 31.9665C50.6631 32.0379 50.6129 32.1182 50.5713 32.2075C50.5309 32.2949 50.5032 32.3835 50.4882 32.4735Z" fill="#01167F"></path><defs><linearGradient id="paint0_linear_2388_231" x1="30.9134" y1="55.8592" x2="-1.72165" y2="48.2731" gradientUnits="userSpaceOnUse"><stop stop-color="#001DAC"></stop><stop offset="1" stop-color="#000F57"></stop></linearGradient><linearGradient id="paint1_linear_2388_231" x1="30.9136" y1="40.2436" x2="63.3536" y2="44.6279" gradientUnits="userSpaceOnUse"><stop stop-color="#18029D"></stop><stop offset="1" stop-color="#1C40F2"></stop></linearGradient><linearGradient id="paint2_linear_2388_231" x1="-4.31829e-07" y1="23.2993" x2="64.375" y2="33.8356" gradientUnits="userSpaceOnUse"><stop stop-color="#0082F8"></stop><stop offset="1" stop-color="#1C40F2"></stop></linearGradient><linearGradient id="paint3_linear_2388_231" x1="43.6476" y1="47.8289" x2="18.0785" y2="29.3277" gradientUnits="userSpaceOnUse"><stop></stop><stop offset="1"></stop></linearGradient><linearGradient id="paint4_linear_2388_231" x1="24.3423" y1="36.2752" x2="4.28384" y2="28.5773" gradientUnits="userSpaceOnUse"><stop stop-color="#989AAD"></stop><stop offset="1" stop-color="#98A0B7"></stop></linearGradient><linearGradient id="paint5_linear_2388_231" x1="57.4897" y1="34.651" x2="57.8597" y2="34.651" gradientUnits="userSpaceOnUse"><stop stop-color="#E7E9E9"></stop><stop offset="1" stop-color="#98AACD"></stop></linearGradient><linearGradient id="paint6_linear_2388_231" x1="43.6347" y1="34.2065" x2="18" y2="15.6631" gradientUnits="userSpaceOnUse"><stop stop-color="#CDD3DB"></stop><stop offset="1" stop-color="#ACB0C2"></stop></linearGradient><linearGradient id="paint7_linear_2388_231" x1="5.32253" y1="22.7872" x2="26.8682" y2="22.7872" gradientUnits="userSpaceOnUse"><stop stop-color="#989AAD"></stop><stop offset="1" stop-color="#98A0B7"></stop></linearGradient><linearGradient id="paint8_linear_2388_231" x1="57.4899" y1="22.7168" x2="57.8602" y2="22.7168" gradientUnits="userSpaceOnUse"><stop stop-color="#E7E9E9"></stop><stop offset="1" stop-color="#98AACD"></stop></linearGradient><linearGradient id="paint9_linear_2388_231" x1="43.7537" y1="22.3444" x2="18.0581" y2="3.74954" gradientUnits="userSpaceOnUse"><stop stop-color="#CDD3DB"></stop><stop offset="1" stop-color="#ACB0C2"></stop></linearGradient><linearGradient id="paint10_linear_2388_231" x1="35.6255" y1="38.738" x2="35.5647" y2="38.738" gradientUnits="userSpaceOnUse"><stop stop-color="#989AAD"></stop><stop offset="1" stop-color="#98A0B7"></stop></linearGradient><linearGradient id="paint11_linear_2388_231" x1="47.7751" y1="25.9766" x2="28.6602" y2="34.598" gradientUnits="userSpaceOnUse"><stop stop-color="#CDD3DB"></stop><stop offset="1" stop-color="#ACB0C2"></stop></linearGradient><linearGradient id="paint12_linear_2388_231" x1="70.1924" y1="26.1164" x2="18.2432" y2="44.406" gradientUnits="userSpaceOnUse"><stop offset="0.49" stop-color="#E7E9E9"></stop><stop offset="0.57" stop-color="#DFE1E3"></stop><stop offset="0.71" stop-color="#C8CAD3"></stop><stop offset="0.87" stop-color="#A3A5B8"></stop><stop offset="0.99" stop-color="#8285A1"></stop></linearGradient></defs></svg>