<svg xmlns="http://www.w3.org/2000/svg" width="59" height="60" viewBox="0 0 59 60" fill="none"><path d="M31.9376 48.0926L0.0302734 37.7957V42.9592L29.3307 60L31.9376 48.0926Z" fill="url(#paint0_linear_2388_232)"></path><path d="M58.2789 42.9592V37.7957L29.2905 48.1932L29.3308 60L58.2789 42.9592Z" fill="url(#paint1_linear_2388_232)"></path><path d="M0.0302734 37.8157L29.2502 54.8162L58.2788 37.8157L29.1495 20.8052L0.0302734 37.8157Z" fill="url(#paint2_linear_2388_232)"></path><path d="M31.9376 37.564L0.0302734 27.2671V32.4306L29.3307 49.4714L31.9376 37.564Z" fill="url(#paint3_linear_2388_232)"></path><path d="M58.2789 32.4306V27.2671L29.2905 37.6747L29.3308 49.4714L58.2789 32.4306Z" fill="url(#paint4_linear_2388_232)"></path><path d="M0.0302734 27.2771L29.2502 44.2877L58.2788 27.2771L29.1495 10.2766L0.0302734 27.2771Z" fill="url(#paint5_linear_2388_232)"></path><path opacity="0.3" d="M35.1686 13.7997L6.01912 30.8002L0 27.3276L29.1595 10.2869L35.1686 13.7997Z" fill="white"></path><path d="M31.9376 27.2874L0.0302734 16.9905V22.154L29.3307 39.1948L31.9376 27.2874Z" fill="url(#paint6_linear_2388_232)"></path><path d="M58.2789 22.154V16.9905L29.2905 27.3881L29.3308 39.1847L58.2789 22.154Z" fill="url(#paint7_linear_2388_232)"></path><path d="M0.0302734 17.0005L29.2502 34.001L58.2788 17.0005L29.1495 0L0.0302734 17.0005Z" fill="url(#paint8_linear_2388_232)"></path><path opacity="0.3" d="M35.1686 3.51283L6.01912 20.5133L0 17.0508L29.1595 0L35.1686 3.51283Z" fill="white"></path><path fill-rule="evenodd" clip-rule="evenodd" d="M27.3981 4.29786C27.1003 4.14667 26.7709 4.06787 26.4369 4.06787C26.1028 4.06787 25.7735 4.14667 25.4756 4.29786C25.3584 4.33977 25.2569 4.41691 25.1852 4.51872C25.1135 4.62053 25.075 4.74202 25.075 4.86655C25.075 4.99109 25.1135 5.11258 25.1852 5.21439C25.2569 5.31619 25.3584 5.39334 25.4756 5.43525C25.7728 5.58882 26.1024 5.66897 26.4369 5.66897C26.7714 5.66897 27.101 5.58882 27.3981 5.43525C27.5204 5.39849 27.6275 5.32332 27.7037 5.22088C27.7798 5.11845 27.8209 4.9942 27.8209 4.86655C27.8209 4.73891 27.7798 4.61466 27.7037 4.51223C27.6275 4.40979 27.5204 4.33462 27.3981 4.29786Z" fill="#A5A5A5"></path><path fill-rule="evenodd" clip-rule="evenodd" d="M24.3381 6.07942C24.0409 5.92585 23.7113 5.8457 23.3768 5.8457C23.0423 5.8457 22.7127 5.92585 22.4156 6.07942C22.2983 6.12133 22.1968 6.19847 22.1251 6.30028C22.0534 6.40209 22.0149 6.52358 22.0149 6.64811C22.0149 6.77265 22.0534 6.89414 22.1251 6.99595C22.1968 7.09776 22.2983 7.1749 22.4156 7.21681C22.7127 7.37038 23.0423 7.45053 23.3768 7.45053C23.7113 7.45053 24.0409 7.37038 24.3381 7.21681C24.4603 7.18005 24.5674 7.10488 24.6436 7.00244C24.7198 6.90001 24.7609 6.77576 24.7609 6.64811C24.7609 6.52047 24.7198 6.39622 24.6436 6.29379C24.5674 6.19135 24.4603 6.11618 24.3381 6.07942Z" fill="#A5A5A5"></path><path fill-rule="evenodd" clip-rule="evenodd" d="M30.4275 2.56672C30.1304 2.41315 29.8008 2.33301 29.4663 2.33301C29.1318 2.33301 28.8022 2.41315 28.505 2.56672C28.3911 2.61055 28.2931 2.68787 28.224 2.78849C28.1549 2.88912 28.1179 3.00832 28.1179 3.13039C28.1179 3.25246 28.1549 3.37166 28.224 3.47228C28.2931 3.57291 28.3911 3.65023 28.505 3.69405C28.8022 3.84762 29.1318 3.92777 29.4663 3.92777C29.8008 3.92777 30.1304 3.84762 30.4275 3.69405C30.546 3.65476 30.649 3.57916 30.7221 3.47798C30.7951 3.3768 30.8344 3.25518 30.8344 3.13039C30.8344 3.0056 30.7951 2.88398 30.7221 2.78279C30.649 2.68161 30.546 2.60601 30.4275 2.56672Z" fill="#A5A5A5"></path><path d="M30.5545 10.5986L18.4716 17.9985C17.7611 18.4336 17.781 19.1124 18.5159 19.5117L30.9555 26.2702C31.6904 26.6695 32.8663 26.6404 33.5767 26.2053L45.6596 18.8054C46.3701 18.3703 46.3502 17.6914 45.6153 17.2921L33.1758 10.5336C32.4408 10.1344 31.2649 10.1635 30.5545 10.5986ZM19.3601 18.4813L31.443 11.0814C31.6798 10.9363 32.0718 10.9266 32.3168 11.0597L34.5381 12.2666L21.5962 20.1925L19.3749 18.9857C19.1299 18.8526 19.1233 18.6263 19.3601 18.4813ZM44.7711 18.3226L32.6882 25.7225C32.4514 25.8675 32.0594 25.8773 31.8144 25.7442L22.4848 20.6753L35.4267 12.7493L44.7563 17.8182C45.0013 17.9513 45.0079 18.1776 44.7711 18.3226Z" fill="#7A8299"></path><path d="M31.77 16.4444C31.4348 16.531 31.2764 16.7563 31.4164 16.9475L35.2761 22.2211C35.4161 22.4123 35.8013 22.4971 36.1365 22.4105C36.4719 22.3239 36.63 22.0986 36.4901 21.9075L32.6304 16.6338C32.4904 16.4426 32.1052 16.3578 31.77 16.4444Z" fill="#7A8299"></path><path d="M30.2598 19.6713C29.9163 19.6935 29.5603 19.881 29.4649 20.09L28.3575 22.5139C28.2467 22.7563 28.5342 22.9127 28.9473 22.8343L33.0757 22.0517C33.4318 21.9842 33.7349 21.7681 33.7526 21.569C33.7704 21.3699 33.4962 21.2632 33.1401 21.3307L29.8176 21.9605L30.7088 20.0098C30.8044 19.8007 30.6033 19.6492 30.2598 19.6713Z" fill="#7A8299"></path><path d="M38.9596 16.0209L34.8312 16.8035C34.475 16.871 34.1719 17.0872 34.1542 17.2863C34.1364 17.4854 34.4107 17.5921 34.7668 17.5246L38.0892 16.8948L37.198 18.8455C37.1025 19.0546 37.3035 19.2061 37.647 19.1839C37.9909 19.1617 38.3466 18.9741 38.4419 18.7653L39.5493 16.3413C39.6601 16.099 39.3726 15.9426 38.9596 16.0209Z" fill="#7A8299"></path><path d="M22.3058 18.9233C22.5588 18.7683 22.5525 18.5279 22.2918 18.3862C22.0311 18.2446 21.6147 18.2554 21.3617 18.4104C21.1087 18.5653 21.1149 18.8057 21.3756 18.9474C21.6363 19.089 22.0527 19.0782 22.3058 18.9233Z" fill="#7A8299"></path><path d="M24.138 17.8012C24.391 17.6463 24.3848 17.4058 24.1241 17.2642C23.8634 17.1225 23.447 17.1333 23.194 17.2883C22.9409 17.4432 22.9472 17.6837 23.2079 17.8253C23.4686 17.9669 23.885 17.9562 24.138 17.8012Z" fill="#7A8299"></path><path d="M25.9706 16.6789C26.2236 16.5239 26.2173 16.2835 25.9566 16.1419C25.6959 16.0002 25.2795 16.011 25.0265 16.166C24.7735 16.3209 24.7797 16.5614 25.0404 16.703C25.3011 16.8446 25.7175 16.8338 25.9706 16.6789Z" fill="#7A8299"></path><path d="M29.6356 14.4343L32.3843 12.7509C32.6373 12.5959 32.6311 12.3555 32.3704 12.2138C32.1097 12.0722 31.6932 12.083 31.4402 12.2379L28.6915 13.9213C28.4385 14.0763 28.4447 14.3167 28.7054 14.4584C28.9661 14.6 29.3826 14.5892 29.6356 14.4343Z" fill="#7A8299"></path><defs><linearGradient id="paint0_linear_2388_232" x1="31.9376" y1="55.2961" x2="-1.70361" y2="47.3789" gradientUnits="userSpaceOnUse"><stop stop-color="#001DAC"></stop><stop offset="1" stop-color="#000F57"></stop></linearGradient><linearGradient id="paint1_linear_2388_232" x1="29.2905" y1="39.4204" x2="59.7927" y2="43.2203" gradientUnits="userSpaceOnUse"><stop stop-color="#18029D"></stop><stop offset="1" stop-color="#1C40F2"></stop></linearGradient><linearGradient id="paint2_linear_2388_232" x1="0.030273" y1="23.2938" x2="60.6827" y2="33.2113" gradientUnits="userSpaceOnUse"><stop stop-color="#0082F8"></stop><stop offset="1" stop-color="#1C40F2"></stop></linearGradient><linearGradient id="paint3_linear_2388_232" x1="-5.96871" y1="38.3692" x2="25.9487" y2="38.3692" gradientUnits="userSpaceOnUse"><stop stop-color="#989AAD"></stop><stop offset="1" stop-color="#98A0B7"></stop></linearGradient><linearGradient id="paint4_linear_2388_232" x1="65.8381" y1="38.3692" x2="66.3514" y2="38.3692" gradientUnits="userSpaceOnUse"><stop stop-color="#E7E9E9"></stop><stop offset="1" stop-color="#98AACD"></stop></linearGradient><linearGradient id="paint5_linear_2388_232" x1="47.1163" y1="40.2816" x2="11.9276" y2="14.8161" gradientUnits="userSpaceOnUse"><stop stop-color="#CDD3DB"></stop><stop offset="1" stop-color="#ACB0C2"></stop></linearGradient><linearGradient id="paint6_linear_2388_232" x1="-5.96871" y1="28.0926" x2="25.9487" y2="28.0926" gradientUnits="userSpaceOnUse"><stop stop-color="#989AAD"></stop><stop offset="1" stop-color="#98A0B7"></stop></linearGradient><linearGradient id="paint7_linear_2388_232" x1="65.8381" y1="28.0926" x2="66.3514" y2="28.0926" gradientUnits="userSpaceOnUse"><stop stop-color="#E7E9E9"></stop><stop offset="1" stop-color="#98AACD"></stop></linearGradient><linearGradient id="paint8_linear_2388_232" x1="47.1163" y1="29.9949" x2="11.9276" y2="4.5395" gradientUnits="userSpaceOnUse"><stop stop-color="#CDD3DB"></stop><stop offset="1" stop-color="#ACB0C2"></stop></linearGradient></defs></svg>