<svg xmlns="http://www.w3.org/2000/svg" width="52" height="59" viewBox="0 0 52 59" fill="none"><path opacity="0.15" fill-rule="evenodd" clip-rule="evenodd" d="M30.7653 31.4822L3.42188 47.2713L23.7334 58.9998L50.7456 43.1323L30.7653 31.4822Z" fill="url(#paint0_linear_2283_3921)"></path><path fill-rule="evenodd" clip-rule="evenodd" d="M41.8931 30.1056L30.5654 36.2923L23.6816 42.2524V53.5801L50.6939 37.7126V26.8467L41.8931 30.1056Z" fill="#97003A"></path><path fill-rule="evenodd" clip-rule="evenodd" d="M23.6905 42.2524L3.75373 30.6545L3.05664 30.8985V41.7557L23.7341 53.5627V42.7316L23.6905 42.2524Z" fill="#540020"></path><path fill-rule="evenodd" clip-rule="evenodd" d="M23.7335 38.4445L7.01203 28.6504L3.09961 30.9072L23.7335 42.7142L50.7545 26.8466L46.9379 24.6421L23.7335 38.4445Z" fill="url(#paint1_linear_2283_3921)"></path><path fill-rule="evenodd" clip-rule="evenodd" d="M23.7246 27.6048V38.4794L50.7369 22.6119V11.7634L23.7246 27.6048Z" fill="url(#paint2_linear_2283_3921)"></path><path fill-rule="evenodd" clip-rule="evenodd" d="M3.05664 15.824V26.6724L23.7341 38.4794V27.6222L3.05664 15.824Z" fill="url(#paint3_linear_2283_3921)"></path><path fill-rule="evenodd" clip-rule="evenodd" d="M30.4349 0.0349121L3.05664 15.824L23.7254 27.6223L50.7376 11.7635L30.4349 0.0349121Z" fill="url(#paint4_linear_2283_3921)"></path><path opacity="0.5" fill-rule="evenodd" clip-rule="evenodd" d="M50.7804 11.7458L23.7246 27.6308L25.3802 12.8176L50.7804 11.7458Z" fill="url(#paint5_linear_2283_3921)"></path><path fill-rule="evenodd" clip-rule="evenodd" d="M30.4872 0L3.05664 15.824L28.5876 14.6476L30.4872 0Z" fill="url(#paint6_linear_2283_3921)"></path><path opacity="0.3" d="M51 20L23.7339 36.6059L1 23.2392" stroke="url(#paint7_linear_2283_3921)" stroke-width="0.75" stroke-miterlimit="10"></path><path opacity="0.3" d="M51 17L23.7339 33.6695L1 20.2941" stroke="url(#paint8_linear_2283_3921)" stroke-width="0.75" stroke-miterlimit="10"></path><path opacity="0.3" d="M51 14L23.7339 30.5587L1 17.1833" stroke="url(#paint9_linear_2283_3921)" stroke-width="0.75" stroke-miterlimit="10"></path><path d="M33.0675 10.0643C31.0969 9.06731 28.9194 8.54785 26.7109 8.54785C24.5025 8.54785 22.325 9.06731 20.3543 10.0643C16.8689 12.0858 16.8689 15.3709 20.3543 17.3924C22.3194 18.387 24.491 18.9053 26.6935 18.9053C28.896 18.9053 31.0675 18.387 33.0327 17.3924C36.5878 15.3709 36.5965 12.0945 33.0675 10.0643ZM33.0675 11.807H30.7584H29.6256L29.3642 10.4302L29.2684 9.92484C30.6891 10.1644 32.006 10.8228 33.0501 11.8157L33.0675 11.807ZM21.6091 10.8136C23.4844 9.83696 25.6058 9.4339 27.7086 9.65472C27.8568 10.5261 28.0223 11.5107 28.1792 12.4518L28.4754 14.151C28.4842 14.2058 28.4842 14.2617 28.4754 14.3165C28.4754 14.3165 28.3273 14.4734 27.9788 14.4908C27.7873 14.5038 27.5951 14.5038 27.4037 14.4908H27.2729L22.9161 14.2904L19.5527 14.1422C19.3523 12.8439 20.0842 11.746 21.6091 10.8136ZM19.9274 15.2837L21.9053 15.3796L23.7091 15.519V17.436V17.6538C22.2054 17.342 20.8635 16.5011 19.9274 15.2837ZM32.7451 16.1028C31.0547 17.558 27.8916 18.2551 24.9028 17.8455C24.9028 17.1746 24.9028 16.2597 24.9028 15.5277L27.0812 15.6584H27.6912C28.4154 15.7175 29.1341 15.4925 29.6953 15.031C29.8121 14.9201 29.9018 14.7838 29.9577 14.6328C30.0136 14.4817 30.0341 14.3199 30.0177 14.1597C29.9924 13.8076 29.9399 13.458 29.8609 13.114C29.8609 12.9746 29.8086 12.8352 29.7825 12.6609H32.9194H33.7036C33.9865 13.2536 34.0453 13.9287 33.8691 14.5614C33.693 15.1941 33.2937 15.7417 32.7451 16.1028Z" fill="#D50851"></path><defs><linearGradient id="paint0_linear_2283_3921" x1="42.1278" y1="36.2834" x2="-7.41788" y2="65.657" gradientUnits="userSpaceOnUse"><stop></stop><stop offset="1"></stop></linearGradient><linearGradient id="paint1_linear_2283_3921" x1="42.0583" y1="19.9106" x2="-7.775" y2="49.4411" gradientUnits="userSpaceOnUse"><stop stop-color="#FF0766"></stop><stop offset="1" stop-color="#670A18"></stop></linearGradient><linearGradient id="paint2_linear_2283_3921" x1="48.1402" y1="19.7713" x2="-5.4922" y2="46.0603" gradientUnits="userSpaceOnUse"><stop offset="0.14" stop-color="#E7E9E9"></stop><stop offset="1" stop-color="#98AACD"></stop></linearGradient><linearGradient id="paint3_linear_2283_3921" x1="-0.934203" y1="13.9941" x2="32.1863" y2="44.3524" gradientUnits="userSpaceOnUse"><stop stop-color="#989AAD"></stop><stop offset="1" stop-color="#98A0B7"></stop></linearGradient><linearGradient id="paint4_linear_2283_3921" x1="46.4331" y1="2.70128" x2="1.50562" y2="28.5372" gradientUnits="userSpaceOnUse"><stop offset="0.16" stop-color="#CDD3DB"></stop><stop offset="1" stop-color="#ACB0C2"></stop></linearGradient><linearGradient id="paint5_linear_2283_3921" x1="67.8156" y1="4.60939" x2="12.4579" y2="24.5985" gradientUnits="userSpaceOnUse"><stop stop-color="#F5F5F5"></stop><stop offset="0.4" stop-color="#F3F3F3"></stop><stop offset="0.59" stop-color="#EBECEE"></stop><stop offset="0.74" stop-color="#DEDFE5"></stop><stop offset="0.86" stop-color="#CCCED8"></stop><stop offset="0.97" stop-color="#B4B8C8"></stop><stop offset="1" stop-color="#ACB0C2"></stop></linearGradient><linearGradient id="paint6_linear_2283_3921" x1="48.9339" y1="-3.44188" x2="-15.9304" y2="32.5803" gradientUnits="userSpaceOnUse"><stop stop-color="#F1F1F1"></stop><stop offset="0.23" stop-color="#EEEEF0"></stop><stop offset="0.44" stop-color="#E3E6EB"></stop><stop offset="0.63" stop-color="#D1D7E4"></stop><stop offset="0.82" stop-color="#B8C3DA"></stop><stop offset="1" stop-color="#98AACD"></stop></linearGradient><linearGradient id="paint7_linear_2283_3921" x1="0.834441" y1="27.3607" x2="54.7805" y2="27.3607" gradientUnits="userSpaceOnUse"><stop stop-color="#050505"></stop><stop offset="1" stop-color="#ACB0C2"></stop></linearGradient><linearGradient id="paint8_linear_2283_3921" x1="0.834441" y1="24.4156" x2="54.7805" y2="24.4156" gradientUnits="userSpaceOnUse"><stop stop-color="#050505"></stop><stop offset="1" stop-color="#ACB0C2"></stop></linearGradient><linearGradient id="paint9_linear_2283_3921" x1="0.834441" y1="21.3048" x2="54.7805" y2="21.3048" gradientUnits="userSpaceOnUse"><stop stop-color="#050505"></stop><stop offset="1" stop-color="#ACB0C2"></stop></linearGradient></defs></svg>