<svg xmlns="http://www.w3.org/2000/svg" width="160" height="185" viewBox="0 0 160 185" fill="none"><path d="M13.2656 144.029L81.2958 179.681L146.742 144.029V4.61426H13.2656V144.029Z" fill="white"></path><path d="M148.121 5.14551L11.8887 146.512L82.5022 182.518L148.121 147.931V5.14551Z" fill="#F2F3F2"></path><path d="M8.79492 51.0834V147.042L11.2061 148.284L79.2363 183.936L81.303 185L83.3697 183.936L148.989 148.284L151.4 147.042V0H8.79492V51.0834ZM13.2729 144.382V4.6117H146.922V144.382L81.303 180.034L13.2729 144.382Z" fill="#DCDEDC"></path><path d="M80.0906 6.91755C80.7795 6.91755 81.4684 6.91755 82.1573 7.09492L80.0906 11.1745C76.9904 10.9971 74.2348 13.4803 74.0626 16.6731C73.8903 19.8658 76.3015 22.7037 79.4016 22.8811H80.0906C81.4684 22.8811 82.8462 22.349 83.8796 21.4621L86.1185 25.3643C84.3963 26.6059 82.3295 27.3154 80.0906 27.3154C74.5792 27.4928 69.9291 23.2359 69.7569 17.5599C69.5846 11.884 73.7181 7.09492 79.2294 6.91755H80.0906V6.91755ZM87.1519 15.6088L89.7353 20.0431L87.1519 24.3001L84.7407 20.0431H79.7461L82.3295 15.6088H87.1519ZM83.0184 14.0125C83.0184 13.303 83.1907 12.5935 83.5351 12.0614C83.8796 11.5292 84.5685 10.9971 85.0852 10.6424L85.4296 10.465C86.1185 10.1103 86.2908 9.93289 86.2908 9.57814C86.2908 9.2234 85.7741 8.86865 85.4296 8.86865C84.7407 8.86865 84.224 9.2234 83.8796 9.93289L83.0184 9.04602C83.1907 8.69128 83.5351 8.33653 83.8796 7.98178C84.3963 7.62704 84.9129 7.62704 85.4296 7.62704C85.9463 7.62704 86.6352 7.80441 86.9797 8.15916C87.3241 8.5139 87.6686 9.04602 87.6686 9.57814C87.6686 10.465 87.1519 11.1745 86.1185 11.5292L85.6018 11.884C85.0852 12.2387 84.7407 12.4161 84.5685 12.9482H87.6686V14.1898L83.0184 14.0125V14.0125ZM80.0906 36.1841L96.4522 26.6059V0H63.5566V26.4286L80.0906 36.1841Z" fill="#FF492C"></path><path d="M154.661 98.9775H5.5113L0 111.394L5.5113 123.81H154.661L160 111.394L154.661 98.9775Z" fill="#5A39A2"></path><path d="M35.3266 90.9942C35.2118 90.9942 35.1257 90.9351 35.0683 90.8169L32.7088 85.407C32.6743 85.3597 32.6341 85.336 32.5882 85.336H30.8315C30.7626 85.336 30.7281 85.3715 30.7281 85.4425V90.7636C30.7281 90.8228 30.7052 90.876 30.6592 90.9233C30.6248 90.9706 30.5731 90.9942 30.5042 90.9942H28.2825C28.2251 90.9942 28.1734 90.9706 28.1275 90.9233C28.0816 90.876 28.0586 90.8228 28.0586 90.7636V77.5671C28.0586 77.508 28.0816 77.4548 28.1275 77.4075C28.1734 77.3602 28.2251 77.3365 28.2825 77.3365H33.7077C34.5114 77.3365 35.2233 77.508 35.8433 77.8509C36.4518 78.182 36.9226 78.6609 37.2556 79.2876C37.5886 79.9143 37.755 80.6356 37.755 81.4516C37.755 82.3384 37.5426 83.0952 37.1178 83.7219C36.6815 84.3605 36.0787 84.8098 35.3094 85.07C35.252 85.0936 35.2348 85.135 35.2577 85.1941L37.8412 90.7282C37.8641 90.7755 37.8756 90.8109 37.8756 90.8346C37.8756 90.941 37.8067 90.9942 37.6689 90.9942H35.3266V90.9942ZM30.8315 79.6956C30.7626 79.6956 30.7281 79.731 30.7281 79.802V83.1366C30.7281 83.1957 30.7626 83.2253 30.8315 83.2253H33.3116C33.8397 83.2253 34.2703 83.0657 34.6033 82.7464C34.9362 82.4153 35.1027 81.9896 35.1027 81.4693C35.1027 80.949 34.9362 80.5233 34.6033 80.1922C34.2703 79.8611 33.8397 79.6956 33.3116 79.6956H30.8315ZM48.0026 84.9458C48.083 85.4425 48.1117 85.9982 48.0887 86.6131C48.0773 86.7668 47.9911 86.8437 47.8304 86.8437H41.9919C41.9115 86.8437 41.8828 86.8733 41.9057 86.9324C41.9402 87.1925 42.0091 87.4527 42.1124 87.7128C42.4454 88.446 43.1171 88.8125 44.1275 88.8125C44.9312 88.8007 45.5685 88.4637 46.0392 87.8015C46.0851 87.7187 46.1426 87.6774 46.2114 87.6774C46.2459 87.6774 46.2918 87.701 46.3492 87.7483L47.7098 89.1495C47.7672 89.2087 47.7959 89.2619 47.7959 89.3092C47.7959 89.3447 47.773 89.3979 47.7271 89.4688C47.3137 90.0009 46.7741 90.4148 46.1081 90.7104C45.4536 91.0061 44.736 91.1539 43.9553 91.1539C42.8645 91.1539 41.9459 90.8996 41.1996 90.3912C40.4418 89.8827 39.9022 89.1732 39.5807 88.2627C39.3166 87.6123 39.1845 86.7609 39.1845 85.7085C39.1845 84.9872 39.2764 84.3546 39.4601 83.8106C39.7586 82.8883 40.2696 82.1551 40.9929 81.6112C41.7163 81.0673 42.5774 80.7953 43.5764 80.7953C44.8394 80.7953 45.8555 81.1737 46.6248 81.9305C47.3826 82.6754 47.8419 83.6806 48.0026 84.9458V84.9458ZM43.5936 83.1721C42.8013 83.1721 42.2789 83.5564 42.0263 84.325C41.9689 84.4906 41.923 84.6975 41.8885 84.9458C41.8885 85.0168 41.923 85.0522 41.9919 85.0522H45.2642C45.3331 85.0522 45.356 85.0168 45.3331 84.9458C45.2757 84.5674 45.247 84.3841 45.247 84.396C45.1321 84.0057 44.9312 83.7042 44.6442 83.4914C44.3571 83.2785 44.0069 83.1721 43.5936 83.1721V83.1721ZM54.0134 91.1539C53.003 91.1539 52.1304 90.8937 51.3955 90.3734C50.6492 89.8531 50.121 89.1377 49.811 88.2272C49.5929 87.5768 49.4838 86.8082 49.4838 85.9214C49.4838 85.0463 49.5929 84.2895 49.811 83.651C50.1095 82.7759 50.632 82.0842 51.3783 81.5757C52.1246 81.0673 53.003 80.813 54.0134 80.813C55.0238 80.813 55.9136 81.0732 56.6829 81.5935C57.4407 82.1138 57.9459 82.77 58.1985 83.5623C58.3019 83.8698 58.3535 84.1062 58.3535 84.2718V84.3073C58.3535 84.4255 58.2904 84.4965 58.1641 84.5201L55.9768 84.8571H55.9423C55.8275 84.8571 55.7529 84.7921 55.7184 84.662L55.6668 84.3427C55.5749 83.9998 55.3797 83.7219 55.0812 83.5091C54.7712 83.2844 54.4095 83.1721 53.9962 83.1721C53.5943 83.1721 53.2556 83.2785 52.98 83.4914C52.693 83.6924 52.492 83.9762 52.3772 84.3427C52.2394 84.733 52.1705 85.2651 52.1705 85.9391C52.1705 86.6131 52.2337 87.1452 52.36 87.5355C52.4748 87.9257 52.6757 88.2331 52.9628 88.4578C53.2498 88.6825 53.5943 88.7948 53.9962 88.7948C54.3865 88.7948 54.731 88.6884 55.0295 88.4755C55.3281 88.2509 55.5347 87.9552 55.6495 87.5887C55.661 87.5532 55.6668 87.5118 55.6668 87.4645C55.6783 87.4527 55.684 87.4349 55.684 87.4113C55.6955 87.2457 55.7816 87.1807 55.9423 87.2162L58.1296 87.5532C58.2559 87.5887 58.3191 87.6655 58.3191 87.7838C58.3191 87.8784 58.2789 88.0735 58.1985 88.3691C57.9344 89.2323 57.4235 89.9123 56.6657 90.4089C55.8964 90.9055 55.0123 91.1539 54.0134 91.1539V91.1539ZM64.0887 91.1539C63.0324 91.1539 62.1253 90.8642 61.3675 90.2847C60.6097 89.7171 60.093 88.9367 59.8175 87.9434C59.6338 87.3403 59.5419 86.6782 59.5419 85.9568C59.5419 85.1882 59.6338 84.5024 59.8175 83.8993C60.1045 82.9297 60.6269 82.1729 61.3848 81.6289C62.1426 81.085 63.0496 80.813 64.106 80.813C65.1508 80.813 66.0349 81.0791 66.7583 81.6112C67.4931 82.1551 68.0155 82.9119 68.3255 83.8816C68.5207 84.5319 68.6183 85.2119 68.6183 85.9214C68.6183 86.619 68.5322 87.2753 68.36 87.8902C68.0844 88.9071 67.5677 89.7053 66.8099 90.2847C66.0636 90.8642 65.1565 91.1539 64.0887 91.1539V91.1539ZM64.0887 88.7948C64.5136 88.7948 64.8695 88.6647 65.1565 88.4046C65.4436 88.1444 65.6503 87.7838 65.7766 87.3226C65.8799 86.9087 65.9316 86.4535 65.9316 85.9568C65.9316 85.4129 65.8799 84.9517 65.7766 84.5733C65.6388 84.1358 65.4264 83.7929 65.1393 83.5446C64.8523 83.2962 64.4963 83.1721 64.0715 83.1721C63.6467 83.1721 63.2907 83.2962 63.0037 83.5446C62.7166 83.7929 62.51 84.1358 62.3837 84.5733C62.2918 84.8926 62.2459 85.3538 62.2459 85.9568C62.2459 86.5481 62.2861 87.0033 62.3665 87.3226C62.4928 87.7838 62.7052 88.1444 63.0037 88.4046C63.3022 88.6647 63.6639 88.7948 64.0887 88.7948V88.7948ZM81.1393 80.813C82.1268 80.813 82.9018 81.1205 83.4644 81.7354C84.0155 82.3384 84.2911 83.1957 84.2911 84.3073V90.7636C84.2911 90.8228 84.2681 90.876 84.2222 90.9233C84.1763 90.9706 84.1246 90.9942 84.0672 90.9942H81.8455C81.7766 90.9942 81.7249 90.9706 81.6905 90.9233C81.6445 90.876 81.6216 90.8228 81.6216 90.7636V84.9103C81.6216 84.3782 81.4895 83.9525 81.2254 83.6332C80.9614 83.3258 80.6054 83.1721 80.1576 83.1721C79.7213 83.1721 79.3596 83.3258 79.0726 83.6332C78.797 83.9525 78.6592 84.3723 78.6592 84.8926V90.7636C78.6592 90.8228 78.6363 90.876 78.5903 90.9233C78.5559 90.9706 78.5042 90.9942 78.4353 90.9942H76.2308C76.1734 90.9942 76.1217 90.9706 76.0758 90.9233C76.0299 90.876 76.0069 90.8228 76.0069 90.7636V84.9103C76.0069 84.39 75.8691 83.9703 75.5936 83.651C75.318 83.3317 74.9563 83.1721 74.5085 83.1721C74.1067 83.1721 73.768 83.2962 73.4924 83.5446C73.2283 83.7929 73.0676 84.1358 73.0102 84.5733V90.7636C73.0102 90.8228 72.9929 90.876 72.9585 90.9233C72.9126 90.9706 72.8551 90.9942 72.7863 90.9942H70.5817C70.5128 90.9942 70.4554 90.9706 70.4095 90.9233C70.3636 90.876 70.3406 90.8228 70.3406 90.7636V81.2032C70.3406 81.1323 70.3636 81.0732 70.4095 81.0259C70.4554 80.9904 70.5128 80.9727 70.5817 80.9727H72.7863C72.8551 80.9727 72.9126 80.9904 72.9585 81.0259C72.9929 81.0732 73.0102 81.1323 73.0102 81.2032V81.9659C73.0102 82.0014 73.0274 82.0251 73.0618 82.0369C73.0848 82.0487 73.1078 82.0369 73.1307 82.0014C73.6474 81.2092 74.4511 80.813 75.5419 80.813C76.1734 80.813 76.7245 80.949 77.1953 81.221C77.6661 81.493 78.0277 81.8832 78.2803 82.3916C78.3148 82.4626 78.3607 82.4626 78.4181 82.3916C78.6937 81.8595 79.0668 81.4634 79.5376 81.2032C80.0198 80.9431 80.5537 80.813 81.1393 80.813V80.813ZM96.9671 80.813C97.9545 80.813 98.7238 81.1205 99.275 81.7354C99.8261 82.3384 100.102 83.1957 100.102 84.3073V90.7636C100.102 90.8228 100.084 90.876 100.05 90.9233C100.004 90.9706 99.9466 90.9942 99.8778 90.9942H97.6732C97.6043 90.9942 97.5469 90.9706 97.501 90.9233C97.4551 90.876 97.4321 90.8228 97.4321 90.7636V84.9103C97.4321 84.3782 97.3001 83.9525 97.036 83.6332C96.7719 83.3258 96.4217 83.1721 95.9854 83.1721C95.5376 83.1721 95.1759 83.3258 94.9004 83.6332C94.6248 83.9525 94.487 84.3723 94.487 84.8926V90.7636C94.487 90.8228 94.464 90.876 94.4181 90.9233C94.3722 90.9706 94.3148 90.9942 94.2459 90.9942H92.0586C91.9897 90.9942 91.938 90.9706 91.9036 90.9233C91.8577 90.876 91.8347 90.8228 91.8347 90.7636V84.9103C91.8347 84.39 91.6912 83.9703 91.4041 83.651C91.1286 83.3317 90.7726 83.1721 90.3363 83.1721C89.9344 83.1721 89.5957 83.2962 89.3202 83.5446C89.0446 83.7929 88.8839 84.1358 88.8379 84.5733V90.7636C88.8379 90.8228 88.815 90.876 88.769 90.9233C88.7231 90.9706 88.6714 90.9942 88.614 90.9942H86.3923C86.3234 90.9942 86.2717 90.9706 86.2373 90.9233C86.1914 90.876 86.1684 90.8228 86.1684 90.7636V81.2032C86.1684 81.1323 86.1914 81.0732 86.2373 81.0259C86.2717 80.9904 86.3234 80.9727 86.3923 80.9727H88.614C88.6714 80.9727 88.7231 80.9904 88.769 81.0259C88.815 81.0732 88.8379 81.1323 88.8379 81.2032V81.9659C88.8379 82.0014 88.8494 82.0251 88.8724 82.0369C88.8953 82.0487 88.9183 82.0369 88.9413 82.0014C89.4694 81.2092 90.2732 80.813 91.3525 80.813C91.984 80.813 92.5351 80.949 93.0058 81.221C93.4881 81.493 93.8555 81.8832 94.1081 82.3916C94.1426 82.4626 94.1827 82.4626 94.2287 82.3916C94.5157 81.8595 94.8946 81.4634 95.3654 81.2032C95.8361 80.9431 96.37 80.813 96.9671 80.813V80.813ZM110.539 84.9458C110.619 85.4425 110.648 85.9982 110.625 86.6131C110.613 86.7668 110.533 86.8437 110.384 86.8437H104.528C104.448 86.8437 104.419 86.8733 104.442 86.9324C104.488 87.1925 104.557 87.4527 104.648 87.7128C104.981 88.446 105.653 88.8125 106.664 88.8125C107.467 88.8007 108.105 88.4637 108.575 87.8015C108.621 87.7187 108.679 87.6774 108.748 87.6774C108.782 87.6774 108.828 87.701 108.885 87.7483L110.246 89.1495C110.303 89.2087 110.332 89.2619 110.332 89.3092C110.332 89.3447 110.309 89.3979 110.263 89.4688C109.85 90.0009 109.31 90.4148 108.644 90.7104C107.99 91.0061 107.272 91.1539 106.491 91.1539C105.412 91.1539 104.493 90.8996 103.736 90.3912C102.989 89.8827 102.45 89.1732 102.117 88.2627C101.853 87.6123 101.721 86.7609 101.721 85.7085C101.721 84.9872 101.812 84.3546 101.996 83.8106C102.295 82.8883 102.806 82.1551 103.529 81.6112C104.252 81.0673 105.113 80.7953 106.112 80.7953C107.375 80.7953 108.392 81.1737 109.161 81.9305C109.919 82.6754 110.378 83.6806 110.539 84.9458ZM106.13 83.1721C105.337 83.1721 104.815 83.5564 104.562 84.325C104.516 84.4906 104.471 84.6975 104.425 84.9458C104.425 85.0168 104.459 85.0522 104.528 85.0522H107.8C107.881 85.0522 107.904 85.0168 107.869 84.9458C107.812 84.5674 107.783 84.3841 107.783 84.396C107.668 84.0057 107.467 83.7042 107.18 83.4914C106.905 83.2785 106.554 83.1721 106.13 83.1721V83.1721ZM117.342 80.813C118.352 80.813 119.167 81.1323 119.787 81.7708C120.407 82.4094 120.717 83.2726 120.717 84.3605V90.7636C120.717 90.8228 120.694 90.876 120.648 90.9233C120.603 90.9706 120.551 90.9942 120.493 90.9942H118.272C118.214 90.9942 118.163 90.9706 118.117 90.9233C118.071 90.876 118.048 90.8228 118.048 90.7636V84.9281C118.048 84.4078 117.904 83.9821 117.617 83.651C117.342 83.3317 116.969 83.1721 116.498 83.1721C116.027 83.1721 115.648 83.3317 115.361 83.651C115.085 83.9821 114.948 84.4078 114.948 84.9281V90.7636C114.948 90.8228 114.925 90.876 114.879 90.9233C114.833 90.9706 114.775 90.9942 114.707 90.9942H112.502C112.433 90.9942 112.376 90.9706 112.33 90.9233C112.295 90.876 112.278 90.8228 112.278 90.7636V81.2032C112.278 81.1323 112.295 81.0732 112.33 81.0259C112.376 80.9904 112.433 80.9727 112.502 80.9727H114.707C114.775 80.9727 114.833 80.9904 114.879 81.0259C114.925 81.0732 114.948 81.1323 114.948 81.2032V81.8773C114.948 81.9246 114.959 81.9541 114.982 81.9659C115.005 81.9778 115.022 81.9719 115.034 81.9482C115.551 81.1914 116.32 80.813 117.342 80.813ZM128.623 77.5671C128.623 77.508 128.646 77.4548 128.692 77.4075C128.737 77.3602 128.789 77.3365 128.847 77.3365H131.068C131.126 77.3365 131.177 77.3602 131.223 77.4075C131.269 77.4548 131.292 77.508 131.292 77.5671V90.7636C131.292 90.8228 131.269 90.876 131.223 90.9233C131.177 90.9706 131.126 90.9942 131.068 90.9942H128.847C128.789 90.9942 128.737 90.9706 128.692 90.9233C128.646 90.876 128.623 90.8228 128.623 90.7636V90.1251C128.623 90.0778 128.611 90.0542 128.588 90.0542C128.554 90.0423 128.525 90.0482 128.502 90.0719C127.974 90.7932 127.251 91.1539 126.332 91.1539C125.448 91.1539 124.684 90.8996 124.041 90.3912C123.41 89.8827 122.951 89.185 122.664 88.2982C122.457 87.6241 122.354 86.8378 122.354 85.9391C122.354 85.0168 122.468 84.2127 122.698 83.5268C122.985 82.6873 123.439 82.0251 124.059 81.5402C124.69 81.0554 125.465 80.813 126.384 80.813C127.291 80.813 127.997 81.1382 128.502 81.7886C128.525 81.824 128.554 81.8359 128.588 81.824C128.611 81.8122 128.623 81.7886 128.623 81.7531V77.5671V77.5671ZM128.227 87.9434C128.479 87.4704 128.605 86.8141 128.605 85.9746C128.605 85.1114 128.468 84.4314 128.192 83.9348C127.894 83.4263 127.469 83.1721 126.918 83.1721C126.321 83.1721 125.873 83.4263 125.574 83.9348C125.253 84.4433 125.092 85.1291 125.092 85.9923C125.092 86.7728 125.224 87.4231 125.488 87.9434C125.81 88.511 126.28 88.7948 126.9 88.7948C127.463 88.7948 127.905 88.511 128.227 87.9434ZM44.2308 71.4832C44.1734 71.4832 44.1217 71.4596 44.0758 71.4123C44.0299 71.365 44.0069 71.3117 44.0069 71.2526V58.0561C44.0069 57.9969 44.0299 57.9437 44.0758 57.8964C44.1217 57.8491 44.1734 57.8255 44.2308 57.8255H46.4526C46.5215 57.8255 46.5731 57.8491 46.6076 57.8964C46.6535 57.9437 46.6765 57.9969 46.6765 58.0561V69.0177C46.6765 69.0887 46.7109 69.1241 46.7798 69.1241H52.9628C53.0317 69.1241 53.0891 69.1478 53.135 69.1951C53.1809 69.2424 53.2039 69.2956 53.2039 69.3547V71.2526C53.2039 71.3117 53.1809 71.365 53.135 71.4123C53.0891 71.4596 53.0317 71.4832 52.9628 71.4832H44.2308V71.4832ZM56.1146 60.3264C55.6897 60.3264 55.3338 60.1786 55.0468 59.883C54.7597 59.5874 54.6162 59.2208 54.6162 58.7833C54.6162 58.3221 54.754 57.9496 55.0295 57.6658C55.3051 57.382 55.6668 57.2402 56.1146 57.2402C56.5509 57.2402 56.9126 57.382 57.1996 57.6658C57.4752 57.9496 57.613 58.3221 57.613 58.7833C57.613 59.2208 57.4694 59.5874 57.1824 59.883C56.8953 60.1786 56.5394 60.3264 56.1146 60.3264V60.3264ZM54.9779 71.4832C54.909 71.4832 54.8573 71.4596 54.8229 71.4123C54.7769 71.365 54.754 71.3117 54.754 71.2526V61.6745C54.754 61.6035 54.7769 61.5444 54.8229 61.4971C54.8573 61.4498 54.909 61.4262 54.9779 61.4262H57.1996C57.257 61.4262 57.3087 61.4498 57.3546 61.4971C57.4005 61.5444 57.4235 61.6035 57.4235 61.6745V71.2526C57.4235 71.3117 57.4005 71.365 57.3546 71.4123C57.3087 71.4596 57.257 71.4832 57.1996 71.4832H54.9779ZM59.7314 71.4832C59.674 71.4832 59.6223 71.4596 59.5764 71.4123C59.5304 71.365 59.5075 71.3117 59.5075 71.2526V58.0561C59.5075 57.9969 59.5304 57.9437 59.5764 57.8964C59.6223 57.8491 59.674 57.8255 59.7314 57.8255H61.9531C62.0105 57.8255 62.0622 57.8491 62.1081 57.8964C62.154 57.9437 62.177 57.9969 62.177 58.0561V64.6366C62.177 64.6721 62.1885 64.6957 62.2114 64.7076C62.2344 64.7076 62.2631 64.6957 62.2976 64.6721L64.8638 61.5858C64.9556 61.503 65.0532 61.4616 65.1565 61.4616H67.6711C67.7974 61.4616 67.8605 61.503 67.8605 61.5858C67.8605 61.6331 67.8433 61.6863 67.8089 61.7454L65.3977 64.8849C65.3747 64.944 65.369 64.9914 65.3804 65.0268L68.205 71.2171C68.228 71.2644 68.2394 71.2999 68.2394 71.3236C68.2394 71.43 68.1705 71.4832 68.0328 71.4832H65.7077C65.5814 71.4832 65.4895 71.4241 65.4321 71.3058L63.5548 66.7473C63.5433 66.7237 63.5204 66.706 63.4859 66.6941C63.463 66.6823 63.4457 66.6941 63.4343 66.7296L62.2114 68.2905C62.1885 68.3378 62.177 68.3733 62.177 68.3969V71.2526C62.177 71.3117 62.154 71.365 62.1081 71.4123C62.0622 71.4596 62.0105 71.4832 61.9531 71.4832H59.7314V71.4832ZM77.3503 65.4348C77.4307 65.9314 77.4536 66.4872 77.4192 67.1021C77.4077 67.2558 77.3273 67.3327 77.1781 67.3327H71.3223C71.2534 67.3327 71.2305 67.3622 71.2534 67.4214C71.2879 67.6815 71.3568 67.9417 71.4601 68.2018C71.7931 68.9349 72.4648 69.3015 73.4752 69.3015C74.2789 69.2897 74.9161 68.9527 75.3869 68.2905C75.4328 68.2077 75.4902 68.1663 75.5591 68.1663C75.5936 68.1663 75.6338 68.19 75.6797 68.2373L77.0403 69.6385C77.1092 69.6976 77.1436 69.7509 77.1436 69.7982C77.1436 69.8336 77.1207 69.8868 77.0747 69.9578C76.6499 70.4899 76.1103 70.9038 75.4558 71.1994C74.8013 71.495 74.0837 71.6428 73.3029 71.6428C72.2122 71.6428 71.2936 71.3886 70.5473 70.8801C69.7895 70.3717 69.2498 69.6622 68.9283 68.7517C68.6528 68.1013 68.515 67.2499 68.515 66.1975C68.515 65.4762 68.6126 64.8435 68.8078 64.2996C69.0948 63.3773 69.6058 62.6441 70.3406 62.1002C71.064 61.5562 71.9251 61.2843 72.924 61.2843C74.1871 61.2843 75.1975 61.6626 75.9553 62.4194C76.7245 63.1644 77.1896 64.1695 77.3503 65.4348V65.4348ZM72.9413 63.6611C72.1375 63.6611 71.6094 64.0454 71.3568 64.814C71.3108 64.9795 71.2706 65.1865 71.2362 65.4348C71.2362 65.5057 71.2649 65.5412 71.3223 65.5412H74.6119C74.6808 65.5412 74.7037 65.5057 74.6808 65.4348C74.6119 65.0564 74.5774 64.8731 74.5774 64.8849C74.4741 64.4947 74.2789 64.1932 73.9919 63.9803C73.7048 63.7675 73.3546 63.6611 72.9413 63.6611V63.6611ZM79.2965 71.4832C79.2391 71.4832 79.1874 71.4596 79.1415 71.4123C79.0955 71.365 79.0726 71.3117 79.0726 71.2526V58.0561C79.0726 57.9969 79.0955 57.9437 79.1415 57.8964C79.1874 57.8491 79.2391 57.8255 79.2965 57.8255H81.5182C81.5871 57.8255 81.6388 57.8491 81.6732 57.8964C81.7192 57.9437 81.7421 57.9969 81.7421 58.0561V71.2526C81.7421 71.3117 81.7192 71.365 81.6732 71.4123C81.6388 71.4596 81.5871 71.4832 81.5182 71.4832H79.2965ZM83.6366 75.3677C83.6022 75.3677 83.5735 75.344 83.5505 75.2967C83.5276 75.2494 83.5161 75.1962 83.5161 75.1371V73.3279C83.5161 73.2688 83.5333 73.2155 83.5677 73.1682C83.6137 73.1209 83.6711 73.0973 83.74 73.0973C84.2681 73.0855 84.6872 73.0441 84.9972 72.9731C85.3072 72.8904 85.5541 72.7366 85.7378 72.512C85.9215 72.2991 86.065 71.9739 86.1684 71.5364C86.1799 71.5128 86.1799 71.4773 86.1684 71.43L83.0511 61.71C83.0396 61.6863 83.0338 61.6508 83.0338 61.6035C83.0338 61.4853 83.1027 61.4262 83.2405 61.4262H85.6173C85.755 61.4262 85.8412 61.4971 85.8756 61.639L87.4601 67.9535C87.4831 67.989 87.506 68.0067 87.529 68.0067C87.552 68.0067 87.5692 67.989 87.5807 67.9535L89.1652 61.639C89.2111 61.4971 89.3029 61.4262 89.4407 61.4262H91.7486C91.8289 61.4262 91.8806 61.4498 91.9036 61.4971C91.938 61.5444 91.9438 61.6154 91.9208 61.71L88.6485 71.8557C88.327 72.8017 88.0055 73.5112 87.684 73.9842C87.351 74.4572 86.886 74.806 86.2889 75.0307C85.7034 75.2553 84.8652 75.3677 83.7744 75.3677H83.6366V75.3677ZM106.354 57.8255C106.422 57.8255 106.48 57.8491 106.526 57.8964C106.56 57.9437 106.577 57.9969 106.577 58.0561V59.9717C106.577 60.0426 106.56 60.0959 106.526 60.1313C106.48 60.1786 106.422 60.2023 106.354 60.2023H102.961C102.903 60.2023 102.875 60.2378 102.875 60.3087V71.2526C102.875 71.3117 102.852 71.365 102.806 71.4123C102.76 71.4596 102.708 71.4832 102.651 71.4832H100.429C100.36 71.4832 100.308 71.4596 100.274 71.4123C100.228 71.365 100.205 71.3117 100.205 71.2526V60.3087C100.205 60.2378 100.171 60.2023 100.102 60.2023H96.8121C96.7432 60.2023 96.6858 60.1786 96.6399 60.1313C96.6054 60.0959 96.5882 60.0426 96.5882 59.9717V58.0561C96.5882 57.9969 96.6054 57.9437 96.6399 57.8964C96.6858 57.8491 96.7432 57.8255 96.8121 57.8255H106.354ZM110.831 71.6428C109.764 71.6428 108.851 71.3531 108.093 70.7737C107.335 70.2061 106.819 69.4257 106.543 68.4324C106.371 67.8293 106.285 67.1671 106.285 66.4458C106.285 65.6772 106.371 64.9914 106.543 64.3883C106.83 63.4186 107.358 62.6619 108.127 62.1179C108.874 61.574 109.781 61.302 110.849 61.302C111.882 61.302 112.766 61.5681 113.501 62.1002C114.236 62.6441 114.753 63.4009 115.051 64.3705C115.258 65.0209 115.361 65.7008 115.361 66.4103C115.361 67.108 115.269 67.7643 115.086 68.3792C114.81 69.3961 114.299 70.1943 113.553 70.7737C112.795 71.3531 111.888 71.6428 110.831 71.6428V71.6428ZM110.831 69.2838C111.245 69.2838 111.595 69.1537 111.882 68.8936C112.181 68.6334 112.393 68.2728 112.519 67.8116C112.623 67.3977 112.674 66.9425 112.674 66.4458C112.674 65.9019 112.623 65.4407 112.519 65.0623C112.382 64.6248 112.163 64.2819 111.865 64.0335C111.578 63.7852 111.228 63.6611 110.814 63.6611C110.378 63.6611 110.022 63.7852 109.746 64.0335C109.459 64.2819 109.253 64.6248 109.126 65.0623C109.023 65.3816 108.971 65.8427 108.971 66.4458C108.971 67.0371 109.017 67.4923 109.109 67.8116C109.235 68.2728 109.448 68.6334 109.746 68.8936C110.033 69.1537 110.395 69.2838 110.831 69.2838ZM38.9951 52.1318C38.0306 52.1318 37.1752 51.9367 36.4289 51.5465C35.694 51.1563 35.1199 50.6064 34.7066 49.8969C34.3047 49.1874 34.1038 48.3715 34.1038 47.4492V38.545C34.1038 38.4859 34.121 38.4327 34.1555 38.3854C34.2014 38.3381 34.2588 38.3145 34.3277 38.3145H36.5322C36.6011 38.3145 36.6585 38.3381 36.7044 38.3854C36.7504 38.4327 36.7733 38.4859 36.7733 38.545V47.4669C36.7733 48.1527 36.9743 48.7085 37.3761 49.1342C37.7895 49.5599 38.3291 49.7727 38.9951 49.7727C39.6725 49.7727 40.2179 49.5599 40.6313 49.1342C41.0331 48.7085 41.2341 48.1527 41.2341 47.4669V38.545C41.2341 38.4859 41.257 38.4327 41.3029 38.3854C41.3489 38.3381 41.4005 38.3145 41.4579 38.3145H43.6797C43.7486 38.3145 43.806 38.3381 43.8519 38.3854C43.8864 38.4327 43.9036 38.4859 43.9036 38.545V47.4492C43.9036 48.3715 43.7027 49.1874 43.3008 49.8969C42.8874 50.6064 42.3133 51.1563 41.5785 51.5465C40.8322 51.9367 39.971 52.1318 38.9951 52.1318V52.1318ZM49.8282 52.1141C48.9786 52.1141 48.238 51.9899 47.6065 51.7416C46.975 51.4933 46.487 51.1503 46.1426 50.7128C45.7866 50.2635 45.6086 49.7609 45.6086 49.2052V49.01C45.6086 48.9391 45.6316 48.88 45.6775 48.8327C45.7235 48.7972 45.7809 48.7795 45.8498 48.7795H47.951C48.0084 48.7795 48.06 48.7972 48.106 48.8327C48.1519 48.88 48.1748 48.9391 48.1748 49.01V49.0278C48.1748 49.3116 48.3299 49.554 48.6399 49.755C48.9499 49.956 49.3345 50.0565 49.7938 50.0565C50.2301 50.0565 50.5803 49.9679 50.8444 49.7905C51.1085 49.6131 51.2405 49.4003 51.2405 49.1519C51.2405 48.9154 51.1257 48.7381 50.8961 48.6198C50.6664 48.5016 50.2933 48.3774 49.7766 48.2473C49.191 48.0936 48.726 47.9458 48.3815 47.8039C47.5778 47.5083 46.9348 47.1535 46.4526 46.7397C45.9703 46.3258 45.7292 45.7286 45.7292 44.9482C45.7292 43.9904 46.0909 43.2277 46.8142 42.6601C47.5376 42.0925 48.5021 41.8087 49.7077 41.8087C50.5114 41.8087 51.2175 41.9388 51.8261 42.1989C52.4346 42.4709 52.9054 42.8493 53.2384 43.3341C53.5713 43.8071 53.7378 44.351 53.7378 44.9659C53.7378 45.0369 53.7149 45.0901 53.6689 45.1256C53.6345 45.1729 53.5828 45.1965 53.5139 45.1965H51.4816C51.4242 45.1965 51.3726 45.1729 51.3266 45.1256C51.2807 45.0901 51.2577 45.0369 51.2577 44.9659C51.2577 44.6821 51.1142 44.4397 50.8272 44.2387C50.5516 44.0495 50.1784 43.9549 49.7077 43.9549C49.2943 43.9549 48.9556 44.0318 48.6915 44.1855C48.4274 44.3392 48.2954 44.5521 48.2954 44.824C48.2954 45.0842 48.4217 45.2793 48.6743 45.4094C48.9384 45.5394 49.369 45.6813 49.966 45.8351C50.1153 45.8705 50.276 45.9119 50.4483 45.9592L51.0166 46.1189C51.9122 46.3908 52.6183 46.7397 53.135 47.1654C53.6517 47.6029 53.91 48.2296 53.91 49.0455C53.91 50.0033 53.5426 50.7542 52.8078 51.2982C52.0615 51.8421 51.0683 52.1141 49.8282 52.1141V52.1141ZM64.0715 45.9238C64.1404 46.4204 64.1634 46.9762 64.1404 47.5911C64.1289 47.7448 64.0485 47.8216 63.8993 47.8216H58.0435C57.9631 47.8216 57.9402 47.8512 57.9746 47.9103C58.0091 48.1705 58.078 48.4306 58.1813 48.6908C58.5028 49.4239 59.1687 49.7905 60.1792 49.7905C60.9944 49.7787 61.6316 49.4417 62.0909 48.7795C62.1483 48.6967 62.2057 48.6553 62.2631 48.6553C62.309 48.6553 62.355 48.6789 62.4009 48.7262L63.7615 50.1275C63.8304 50.1866 63.8648 50.2398 63.8648 50.2871C63.8648 50.3226 63.8361 50.3758 63.7787 50.4468C63.3654 50.9789 62.8315 51.3928 62.177 51.6884C61.5225 51.984 60.7992 52.1318 60.0069 52.1318C58.9276 52.1318 58.0091 51.8776 57.2513 51.3691C56.505 50.8606 55.9653 50.1511 55.6323 49.2406C55.3682 48.5903 55.2362 47.7389 55.2362 46.6865C55.2362 45.9651 55.3338 45.3325 55.529 44.7886C55.816 43.8662 56.3212 43.1331 57.0446 42.5891C57.768 42.0452 58.6291 41.7732 59.628 41.7732C60.891 41.7732 61.9072 42.1516 62.6765 42.9084C63.4457 43.6534 63.9108 44.6585 64.0715 45.9238V45.9238ZM59.6452 44.15C58.853 44.15 58.3306 44.5343 58.078 45.303C58.032 45.4685 57.9861 45.6754 57.9402 45.9238C57.9402 45.9947 57.9746 46.0302 58.0435 46.0302H61.3159C61.3962 46.0302 61.4249 45.9947 61.402 45.9238C61.3331 45.5454 61.2986 45.3621 61.2986 45.3739C61.1838 44.9837 60.9886 44.6821 60.7131 44.4693C60.426 44.2565 60.0701 44.15 59.6452 44.15ZM70.6506 41.8087C71.0984 41.8087 71.4544 41.8974 71.7184 42.0748C71.8218 42.1339 71.862 42.2344 71.839 42.3763L71.4429 44.5935C71.4314 44.7472 71.3395 44.7945 71.1673 44.7354C70.9836 44.6644 70.7654 44.6289 70.5128 44.6289C70.4095 44.6289 70.2717 44.6467 70.0995 44.6821C69.6402 44.7176 69.2498 44.8891 68.9283 45.1965C68.6183 45.504 68.4633 45.9119 68.4633 46.4204V51.7416C68.4633 51.8007 68.4404 51.8539 68.3944 51.9012C68.3485 51.9485 68.2968 51.9722 68.2394 51.9722H66.0177C65.9603 51.9722 65.9086 51.9485 65.8627 51.9012C65.8168 51.8539 65.7938 51.8007 65.7938 51.7416V42.1812C65.7938 42.1102 65.8168 42.0511 65.8627 42.0038C65.9086 41.9683 65.9603 41.9506 66.0177 41.9506H68.2394C68.2968 41.9506 68.3485 41.9683 68.3944 42.0038C68.4404 42.0511 68.4633 42.1102 68.4633 42.1812V42.9262C68.4633 42.9616 68.4748 42.9853 68.4978 42.9971C68.5207 43.0089 68.5437 43.003 68.5667 42.9794C69.0833 42.1989 69.778 41.8087 70.6506 41.8087ZM76.782 52.1141C75.9323 52.1141 75.1917 51.9899 74.5602 51.7416C73.9287 51.4933 73.4407 51.1503 73.0963 50.7128C72.7518 50.2635 72.5796 49.7609 72.5796 49.2052V49.01C72.5796 48.9391 72.6026 48.88 72.6485 48.8327C72.6829 48.7972 72.7346 48.7795 72.8035 48.7795H74.9047C74.9621 48.7795 75.0137 48.7972 75.0597 48.8327C75.1056 48.88 75.1286 48.9391 75.1286 49.01V49.0278C75.1286 49.3116 75.2836 49.554 75.5936 49.755C75.9036 49.956 76.294 50.0565 76.7647 50.0565C77.1896 50.0565 77.534 49.9679 77.7981 49.7905C78.0622 49.6131 78.1942 49.4003 78.1942 49.1519C78.1942 48.9154 78.0851 48.7381 77.867 48.6198C77.6374 48.5016 77.2642 48.3774 76.7475 48.2473C76.1504 48.0936 75.6797 47.9458 75.3352 47.8039C74.5315 47.5083 73.8885 47.1535 73.4063 46.7397C72.924 46.3258 72.6829 45.7286 72.6829 44.9482C72.6829 43.9904 73.0503 43.2277 73.7852 42.6601C74.5085 42.0925 75.4673 41.8087 76.6614 41.8087C77.4766 41.8087 78.1827 41.9388 78.7798 42.1989C79.3883 42.4709 79.8591 42.8493 80.1921 43.3341C80.5365 43.8071 80.7088 44.351 80.7088 44.9659C80.7088 45.0369 80.6858 45.0901 80.6399 45.1256C80.5939 45.1729 80.5365 45.1965 80.4676 45.1965H78.4526C78.3837 45.1965 78.3263 45.1729 78.2803 45.1256C78.2344 45.0901 78.2114 45.0369 78.2114 44.9659C78.2114 44.6821 78.0737 44.4397 77.7981 44.2387C77.5111 44.0495 77.1321 43.9549 76.6614 43.9549C76.248 43.9549 75.9093 44.0318 75.6452 44.1855C75.3812 44.3392 75.2491 44.5521 75.2491 44.824C75.2491 45.0842 75.3754 45.2793 75.628 45.4094C75.8921 45.5394 76.3284 45.6813 76.937 45.8351C77.0747 45.8705 77.2297 45.9119 77.402 45.9592C77.5857 46.0065 77.7751 46.0597 77.9703 46.1189C78.8659 46.3908 79.5721 46.7397 80.0887 47.1654C80.6054 47.6029 80.8638 48.2296 80.8638 49.0455C80.8638 50.0033 80.4963 50.7542 79.7615 51.2982C79.0267 51.8421 78.0335 52.1141 76.782 52.1141V52.1141ZM94.8831 38.4741C94.952 38.3677 95.0439 38.3145 95.1587 38.3145H97.3804C97.4379 38.3145 97.4895 38.3381 97.5354 38.3854C97.5814 38.4327 97.6043 38.4859 97.6043 38.545V51.7416C97.6043 51.8007 97.5814 51.8539 97.5354 51.9012C97.4895 51.9485 97.4379 51.9722 97.3804 51.9722H95.1587C95.0898 51.9722 95.0381 51.9485 95.0037 51.9012C94.9578 51.8539 94.9348 51.8007 94.9348 51.7416V43.139C94.9348 43.0799 94.9176 43.0503 94.8831 43.0503C94.8602 43.0503 94.8372 43.074 94.8142 43.1213L92.7992 46.3495C92.7418 46.4559 92.6557 46.5091 92.5408 46.5091H91.4214C91.3065 46.5091 91.2204 46.4559 91.163 46.3495L89.1479 43.1213C89.125 43.074 89.102 43.0562 89.079 43.068C89.0561 43.068 89.0446 43.0976 89.0446 43.1567V51.7416C89.0446 51.8007 89.0216 51.8539 88.9757 51.9012C88.9298 51.9485 88.8724 51.9722 88.8035 51.9722H86.599C86.5301 51.9722 86.4727 51.9485 86.4267 51.9012C86.3808 51.8539 86.3578 51.8007 86.3578 51.7416V38.545C86.3578 38.4859 86.3808 38.4327 86.4267 38.3854C86.4727 38.3381 86.5301 38.3145 86.599 38.3145H88.8035C88.9183 38.3145 89.0102 38.3677 89.079 38.4741L91.9208 43.0148C91.9553 43.0976 91.9897 43.0976 92.0241 43.0148L94.8831 38.4741V38.4741ZM104.046 52.1318C102.978 52.1318 102.065 51.8421 101.307 51.2627C100.549 50.6951 100.033 49.9146 99.7572 48.9214C99.585 48.3183 99.4988 47.6561 99.4988 46.9348C99.4988 46.1662 99.585 45.4803 99.7572 44.8773C100.044 43.9076 100.572 43.1508 101.342 42.6069C102.088 42.0629 102.995 41.791 104.063 41.791C105.096 41.791 105.98 42.057 106.715 42.5891C107.45 43.1331 107.967 43.8899 108.265 44.8595C108.472 45.5099 108.575 46.1898 108.575 46.8993C108.575 47.597 108.483 48.2533 108.3 48.8681C108.024 49.8851 107.513 50.6833 106.767 51.2627C106.009 51.8421 105.102 52.1318 104.046 52.1318V52.1318ZM104.046 49.7727C104.459 49.7727 104.809 49.6427 105.096 49.3825C105.395 49.1224 105.607 48.7617 105.734 48.3006C105.837 47.8867 105.889 47.4314 105.889 46.9348C105.889 46.3908 105.837 45.9297 105.734 45.5513C105.596 45.1138 105.378 44.7708 105.079 44.5225C104.792 44.2742 104.442 44.15 104.028 44.15C103.592 44.15 103.236 44.2742 102.961 44.5225C102.674 44.7708 102.467 45.1138 102.341 45.5513C102.237 45.8705 102.186 46.3317 102.186 46.9348C102.186 47.526 102.232 47.9813 102.323 48.3006C102.45 48.7617 102.662 49.1224 102.961 49.3825C103.248 49.6427 103.609 49.7727 104.046 49.7727V49.7727ZM114.173 52.1141C113.335 52.1141 112.6 51.9899 111.968 51.7416C111.337 51.4933 110.843 51.1503 110.487 50.7128C110.143 50.2635 109.97 49.7609 109.97 49.2052V49.01C109.97 48.9391 109.993 48.88 110.039 48.8327C110.085 48.7972 110.137 48.7795 110.194 48.7795H112.295C112.364 48.7795 112.422 48.7972 112.468 48.8327C112.514 48.88 112.537 48.9391 112.537 49.01V49.0278C112.537 49.3116 112.692 49.554 113.002 49.755C113.312 49.956 113.696 50.0565 114.155 50.0565C114.592 50.0565 114.942 49.9679 115.206 49.7905C115.47 49.6131 115.602 49.4003 115.602 49.1519C115.602 48.9154 115.487 48.7381 115.258 48.6198C115.028 48.5016 114.655 48.3774 114.138 48.2473C113.541 48.0936 113.076 47.9458 112.743 47.8039C111.928 47.5083 111.285 47.1535 110.814 46.7397C110.332 46.3258 110.091 45.7286 110.091 44.9482C110.091 43.9904 110.453 43.2277 111.176 42.6601C111.899 42.0925 112.864 41.8087 114.069 41.8087C114.873 41.8087 115.579 41.9388 116.188 42.1989C116.796 42.4709 117.267 42.8493 117.6 43.3341C117.933 43.8071 118.099 44.351 118.099 44.9659C118.099 45.0369 118.077 45.0901 118.031 45.1256C117.985 45.1729 117.933 45.1965 117.876 45.1965H115.843C115.786 45.1965 115.734 45.1729 115.688 45.1256C115.642 45.0901 115.619 45.0369 115.619 44.9659C115.619 44.6821 115.476 44.4397 115.189 44.2387C114.902 44.0495 114.529 43.9549 114.069 43.9549C113.645 43.9549 113.3 44.0318 113.036 44.1855C112.772 44.3392 112.64 44.5521 112.64 44.824C112.64 45.0842 112.772 45.2793 113.036 45.4094C113.289 45.5394 113.719 45.6813 114.328 45.8351L114.81 45.9592L115.378 46.1189C116.274 46.3908 116.98 46.7397 117.497 47.1654C118.013 47.6029 118.272 48.2296 118.272 49.0455C118.272 50.0033 117.904 50.7542 117.169 51.2982C116.423 51.8421 115.424 52.1141 114.173 52.1141V52.1141ZM125.368 43.9194C125.368 43.9786 125.35 44.0318 125.316 44.0791C125.27 44.1264 125.213 44.15 125.144 44.15H123.335C123.266 44.15 123.232 44.1796 123.232 44.2387V48.3892C123.232 48.8149 123.318 49.1342 123.49 49.3471C123.662 49.5481 123.938 49.6486 124.317 49.6486H124.937C125.006 49.6486 125.058 49.6722 125.092 49.7195C125.138 49.7668 125.161 49.82 125.161 49.8792V51.7416C125.161 51.8835 125.086 51.9663 124.937 51.9899C124.409 52.0136 124.03 52.0254 123.8 52.0254C122.755 52.0254 121.975 51.848 121.458 51.4933C120.941 51.1385 120.677 50.4645 120.666 49.4712V44.2387C120.666 44.1796 120.631 44.15 120.562 44.15H119.477C119.42 44.15 119.368 44.1264 119.322 44.0791C119.276 44.0318 119.253 43.9786 119.253 43.9194V42.1812C119.253 42.1102 119.276 42.0511 119.322 42.0038C119.368 41.9683 119.42 41.9506 119.477 41.9506H120.562C120.631 41.9506 120.666 41.9151 120.666 41.8442V39.5206C120.666 39.4615 120.683 39.4083 120.717 39.361C120.763 39.3137 120.821 39.29 120.89 39.29H123.008C123.065 39.29 123.117 39.3137 123.163 39.361C123.209 39.4083 123.232 39.4615 123.232 39.5206V41.8442C123.232 41.9151 123.266 41.9506 123.335 41.9506H125.144C125.213 41.9506 125.27 41.9683 125.316 42.0038C125.35 42.0511 125.368 42.1102 125.368 42.1812V43.9194V43.9194Z" fill="#252530"></path><path d="M53.0472 118.31C52.9209 118.31 52.8405 118.251 52.8061 118.132L49.6715 106.124L49.6543 106.053C49.6543 105.947 49.7174 105.894 49.8437 105.894H51.5316C51.6579 105.894 51.7383 105.953 51.7727 106.071L53.7361 114.159C53.7476 114.195 53.7648 114.212 53.7878 114.212C53.8107 114.212 53.828 114.195 53.8394 114.159L55.7167 106.071C55.7512 105.953 55.8258 105.894 55.9406 105.894H57.594C57.7203 105.894 57.8007 105.953 57.8351 106.071L59.833 114.177C59.8445 114.212 59.8617 114.23 59.8847 114.23C59.9076 114.23 59.9248 114.212 59.9363 114.177L61.8653 106.071C61.8997 105.953 61.9801 105.894 62.1064 105.894H63.7081C63.8689 105.894 63.932 105.97 63.8976 106.124L60.918 118.132C60.8836 118.251 60.8032 118.31 60.6769 118.31H59.0752C58.9489 118.31 58.8685 118.251 58.8341 118.132L56.819 109.672C56.8075 109.636 56.7903 109.612 56.7673 109.601C56.7444 109.601 56.7271 109.624 56.7157 109.672L54.7867 118.132C54.7523 118.251 54.6776 118.31 54.5628 118.31H53.0472V118.31ZM65.8093 118.31C65.7519 118.31 65.7002 118.286 65.6543 118.239C65.6199 118.203 65.6026 118.156 65.6026 118.097V106.106C65.6026 106.047 65.6199 106 65.6543 105.965C65.7002 105.917 65.7519 105.894 65.8093 105.894H67.3938C67.4512 105.894 67.4971 105.917 67.5316 105.965C67.5775 106 67.6005 106.047 67.6005 106.106V118.097C67.6005 118.156 67.5775 118.203 67.5316 118.239C67.4971 118.286 67.4512 118.31 67.3938 118.31H65.8093ZM77.1247 106.106C77.1247 106.047 77.1419 106 77.1764 105.965C77.2223 105.917 77.274 105.894 77.3314 105.894H78.9159C78.9733 105.894 79.0192 105.917 79.0537 105.965C79.0996 106 79.1225 106.047 79.1225 106.106V118.097C79.1225 118.156 79.0996 118.203 79.0537 118.239C79.0192 118.286 78.9733 118.31 78.9159 118.31H77.383C77.2682 118.31 77.1878 118.262 77.1419 118.168L72.1818 109.796C72.1588 109.76 72.1358 109.743 72.1129 109.743C72.0899 109.754 72.0784 109.784 72.0784 109.831L72.1129 118.097C72.1129 118.156 72.0899 118.203 72.044 118.239C72.0095 118.286 71.9636 118.31 71.9062 118.31H70.3217C70.2643 118.31 70.2126 118.286 70.1667 118.239C70.1322 118.203 70.115 118.156 70.115 118.097V106.106C70.115 106.047 70.1322 106 70.1667 105.965C70.2126 105.917 70.2643 105.894 70.3217 105.894H71.8545C71.9693 105.894 72.0497 105.941 72.0956 106.035L77.0386 114.407C77.0615 114.443 77.0845 114.455 77.1075 114.443C77.1304 114.443 77.1419 114.419 77.1419 114.372L77.1247 106.106V106.106ZM89.5596 105.894C89.617 105.894 89.6629 105.917 89.6974 105.965C89.7433 106 89.7663 106.047 89.7663 106.106V107.472C89.7663 107.531 89.7433 107.579 89.6974 107.614C89.6629 107.661 89.617 107.685 89.5596 107.685H86.3906C86.3332 107.685 86.3045 107.715 86.3045 107.774V118.097C86.3045 118.156 86.2872 118.203 86.2528 118.239C86.2069 118.286 86.1552 118.31 86.0978 118.31H84.5133C84.4559 118.31 84.41 118.286 84.3755 118.239C84.3296 118.203 84.3066 118.156 84.3066 118.097V107.774C84.3066 107.715 84.2779 107.685 84.2205 107.685H81.1721C81.1146 107.685 81.063 107.661 81.0171 107.614C80.9826 107.579 80.9654 107.531 80.9654 107.472V106.106C80.9654 106.047 80.9826 106 81.0171 105.965C81.063 105.917 81.1146 105.894 81.1721 105.894H89.5596V105.894ZM99.7727 107.454C99.7727 107.514 99.7497 107.561 99.7038 107.596C99.6694 107.644 99.6234 107.667 99.566 107.667H93.6931C93.6356 107.667 93.6069 107.697 93.6069 107.756V111.073C93.6069 111.132 93.6356 111.162 93.6931 111.162H97.6371C97.6945 111.162 97.7462 111.179 97.7921 111.215C97.8265 111.262 97.8438 111.315 97.8438 111.374V112.722C97.8438 112.782 97.8265 112.835 97.7921 112.882C97.7462 112.918 97.6945 112.935 97.6371 112.935H93.6931C93.6356 112.935 93.6069 112.965 93.6069 113.024V116.447C93.6069 116.506 93.6356 116.536 93.6931 116.536H99.566C99.6234 116.536 99.6694 116.56 99.7038 116.607C99.7497 116.642 99.7727 116.69 99.7727 116.749V118.097C99.7727 118.156 99.7497 118.203 99.7038 118.239C99.6694 118.286 99.6234 118.31 99.566 118.31H91.8158C91.7584 118.31 91.7067 118.286 91.6608 118.239C91.6263 118.203 91.6091 118.156 91.6091 118.097V106.106C91.6091 106.047 91.6263 106 91.6608 105.965C91.7067 105.917 91.7584 105.894 91.8158 105.894H99.566C99.6234 105.894 99.6694 105.917 99.7038 105.965C99.7497 106 99.7727 106.047 99.7727 106.106V107.454V107.454ZM108.574 118.31C108.459 118.31 108.378 118.256 108.332 118.15L106.059 113.042C106.036 112.994 106.002 112.971 105.956 112.971H103.889C103.832 112.971 103.803 113 103.803 113.059V118.097C103.803 118.156 103.78 118.203 103.734 118.239C103.7 118.286 103.654 118.31 103.596 118.31H102.012C101.954 118.31 101.903 118.286 101.857 118.239C101.822 118.203 101.805 118.156 101.805 118.097V106.106C101.805 106.047 101.822 106 101.857 105.965C101.903 105.917 101.954 105.894 102.012 105.894H106.748C107.448 105.894 108.068 106.041 108.608 106.337C109.148 106.644 109.567 107.07 109.865 107.614C110.164 108.17 110.313 108.802 110.313 109.512C110.313 110.328 110.106 111.02 109.693 111.587C109.291 112.167 108.729 112.569 108.005 112.793C107.982 112.793 107.965 112.805 107.954 112.829C107.942 112.852 107.942 112.876 107.954 112.9L110.382 118.061C110.405 118.109 110.416 118.144 110.416 118.168C110.416 118.262 110.353 118.31 110.227 118.31H108.574V118.31ZM103.889 107.667C103.832 107.667 103.803 107.697 103.803 107.756V111.286C103.803 111.345 103.832 111.374 103.889 111.374H106.472C107.024 111.374 107.471 111.203 107.816 110.86C108.149 110.529 108.315 110.085 108.315 109.53C108.315 108.974 108.149 108.525 107.816 108.182C107.471 107.839 107.024 107.667 106.472 107.667H103.889V107.667Z" fill="white"></path><path d="M57.4712 150.342C57.4367 150.378 57.4253 150.413 57.4367 150.449C57.4597 150.484 57.4941 150.502 57.5401 150.502H64.3086C64.389 150.502 64.4579 150.531 64.5153 150.591C64.5842 150.65 64.6187 150.721 64.6187 150.803V153.304C64.6187 153.387 64.5842 153.458 64.5153 153.517C64.4579 153.576 64.389 153.606 64.3086 153.606H53.0794C52.9875 153.606 52.9129 153.576 52.8555 153.517C52.7981 153.458 52.7694 153.387 52.7694 153.304V150.928C52.7694 150.774 52.821 150.644 52.9244 150.537C53.7396 149.721 54.572 148.829 55.4217 147.859C56.2713 146.889 56.8052 146.286 57.0234 146.05C57.4827 145.482 57.9534 144.938 58.4357 144.418C59.9513 142.692 60.7091 141.409 60.7091 140.569C60.7091 139.966 60.5024 139.469 60.0891 139.079C59.6757 138.701 59.1361 138.511 58.4701 138.511C57.8042 138.511 57.2645 138.701 56.8512 139.079C56.4263 139.469 56.2139 139.984 56.2139 140.622V141.261C56.2139 141.343 56.1852 141.414 56.1278 141.474C56.0704 141.533 56.0015 141.562 55.9211 141.562H52.976C52.8957 141.562 52.8268 141.533 52.7694 141.474C52.7005 141.414 52.666 141.343 52.666 141.261V140.055C52.7234 139.132 53.0105 138.31 53.5272 137.589C54.0438 136.88 54.727 136.336 55.5767 135.957C56.4378 135.579 57.4023 135.39 58.4701 135.39C59.6527 135.39 60.6804 135.62 61.553 136.081C62.4256 136.531 63.0973 137.14 63.5681 137.908C64.0503 138.689 64.2914 139.546 64.2914 140.48C64.2914 141.202 64.1134 141.941 63.7575 142.697C63.4131 143.454 62.8906 144.27 62.1902 145.145C61.6735 145.807 61.1167 146.47 60.5196 147.132C59.9226 147.782 59.0327 148.722 57.8501 149.952L57.4712 150.342V150.342ZM72.7306 153.89C70.8935 153.89 69.4468 153.363 68.3905 152.311C67.3226 151.259 66.7887 149.822 66.7887 148.001V141.207C66.7887 139.422 67.3226 138.009 68.3905 136.968C69.4468 135.916 70.8935 135.39 72.7306 135.39C74.5562 135.39 76.0087 135.916 77.088 136.968C78.1558 138.009 78.6897 139.422 78.6897 141.207V148.001C78.6897 149.822 78.1558 151.259 77.088 152.311C76.0087 153.363 74.5562 153.89 72.7306 153.89ZM72.7306 150.786C73.4769 150.786 74.0682 150.549 74.5046 150.076C74.9523 149.603 75.1762 148.971 75.1762 148.178V141.101C75.1762 140.321 74.9523 139.694 74.5046 139.221C74.0682 138.748 73.4769 138.511 72.7306 138.511C71.9958 138.511 71.4102 138.748 70.9739 139.221C70.5261 139.694 70.3022 140.321 70.3022 141.101V148.178C70.3022 148.971 70.5261 149.603 70.9739 150.076C71.4102 150.549 71.9958 150.786 72.7306 150.786ZM85.6822 150.342C85.6477 150.378 85.642 150.413 85.6649 150.449C85.6764 150.484 85.7109 150.502 85.7683 150.502H92.5369C92.6172 150.502 92.6861 150.531 92.7435 150.591C92.8009 150.65 92.8296 150.721 92.8296 150.803V153.304C92.8296 153.387 92.8009 153.458 92.7435 153.517C92.6861 153.576 92.6172 153.606 92.5369 153.606H81.2903C81.21 153.606 81.1411 153.576 81.0837 153.517C81.0263 153.458 80.9976 153.387 80.9976 153.304V150.928C80.9976 150.774 81.0435 150.644 81.1353 150.537C81.962 149.721 82.7945 148.829 83.6326 147.859C84.4823 146.889 85.0162 146.286 85.2344 146.05C85.7051 145.482 86.1816 144.938 86.6639 144.418C88.1795 142.692 88.9373 141.409 88.9373 140.569C88.9373 139.966 88.7306 139.469 88.3173 139.079C87.8924 138.701 87.347 138.511 86.6811 138.511C86.0151 138.511 85.4755 138.701 85.0621 139.079C84.6488 139.469 84.4421 139.984 84.4421 140.622V141.261C84.4421 141.343 84.4134 141.414 84.356 141.474C84.2986 141.533 84.224 141.562 84.1321 141.562H81.187C81.1066 141.562 81.0377 141.533 80.9803 141.474C80.9229 141.414 80.8942 141.343 80.8942 141.261V140.055C80.9401 139.132 81.2215 138.31 81.7381 137.589C82.2548 136.88 82.9437 136.336 83.8049 135.957C84.666 135.579 85.6248 135.39 86.6811 135.39C87.8637 135.39 88.8914 135.62 89.764 136.081C90.6481 136.531 91.3255 137.14 91.7963 137.908C92.267 138.689 92.5024 139.546 92.5024 140.48C92.5024 141.202 92.3302 141.941 91.9857 142.697C91.6298 143.454 91.1016 144.27 90.4012 145.145C89.8845 145.807 89.3277 146.47 88.7306 147.132C88.1335 147.782 87.2437 148.722 86.0611 149.952L85.6822 150.342V150.342ZM99.6671 150.342C99.6327 150.378 99.6269 150.413 99.6499 150.449C99.6614 150.484 99.6958 150.502 99.7532 150.502H106.522C106.602 150.502 106.671 150.531 106.728 150.591C106.786 150.65 106.815 150.721 106.815 150.803V153.304C106.815 153.387 106.786 153.458 106.728 153.517C106.671 153.576 106.602 153.606 106.522 153.606H95.2753C95.1949 153.606 95.126 153.576 95.0686 153.517C95.0112 153.458 94.9825 153.387 94.9825 153.304V150.928C94.9825 150.774 95.0284 150.644 95.1203 150.537C95.947 149.721 96.7794 148.829 97.6176 147.859C98.4672 146.889 99.0011 146.286 99.2193 146.05C99.6901 145.482 100.167 144.938 100.649 144.418C102.164 142.692 102.922 141.409 102.922 140.569C102.922 139.966 102.716 139.469 102.302 139.079C101.877 138.701 101.332 138.511 100.666 138.511C100 138.511 99.4604 138.701 99.0471 139.079C98.6337 139.469 98.4271 139.984 98.4271 140.622V141.261C98.4271 141.343 98.3983 141.414 98.3409 141.474C98.2835 141.533 98.2089 141.562 98.117 141.562H95.1719C95.0916 141.562 95.0227 141.533 94.9653 141.474C94.9079 141.414 94.8792 141.343 94.8792 141.261V140.055C94.9251 139.132 95.2064 138.31 95.7231 137.589C96.2398 136.88 96.9287 136.336 97.7898 135.957C98.651 135.579 99.6097 135.39 100.666 135.39C101.849 135.39 102.876 135.62 103.749 136.081C104.633 136.531 105.31 137.14 105.781 137.908C106.252 138.689 106.487 139.546 106.487 140.48C106.487 141.202 106.315 141.941 105.971 142.697C105.615 143.454 105.087 144.27 104.386 145.145C103.869 145.807 103.313 146.47 102.716 147.132C102.118 147.782 101.229 148.722 100.046 149.952L99.6671 150.342V150.342Z" fill="#252530"></path></svg>