<svg xmlns="http://www.w3.org/2000/svg" width="160" height="185" viewBox="0 0 160 185" fill="none"><path d="M13.2617 144.027L81.2919 179.679L146.739 144.027V4.6123H13.2617V144.027Z" fill="white"></path><path d="M148.117 5.14355L11.8848 146.51L82.4983 182.517L148.117 147.929V5.14355Z" fill="#F2F3F2"></path><path d="M8.7832 51.0834V147.042L11.1944 148.284L79.2245 183.936L81.2913 185L83.358 183.936L148.977 148.284L151.388 147.042V0H8.7832V51.0834ZM13.2611 144.382V4.6117H146.91V144.382L81.2913 180.034L13.2611 144.382Z" fill="#DCDEDC" fill-opacity="0.5"></path><path d="M80.0866 6.91755C80.7756 6.91755 81.4645 6.91754 82.1534 7.09492L80.0866 11.1745C76.9865 10.9971 74.2309 13.4803 74.0587 16.6731C73.8864 19.8658 76.2976 22.7037 79.3977 22.8811H80.0866C81.4645 22.8811 82.8423 22.349 83.8757 21.4621L86.1146 25.3643C84.3924 26.6059 82.3256 27.3154 80.0866 27.3154C74.5753 27.4928 69.9252 23.2359 69.753 17.5599C69.5807 11.884 73.7142 7.09492 79.2255 6.91755H80.0866V6.91755ZM87.148 15.6088L89.7314 20.0431L87.148 24.3001L84.7368 20.0431H79.7422L82.3256 15.6088H87.148ZM83.0145 14.0125C83.0145 13.303 83.1868 12.5935 83.5312 12.0614C83.8757 11.5292 84.5646 10.9971 85.0813 10.6424L85.4257 10.465C86.1146 10.1103 86.2869 9.93289 86.2869 9.57814C86.2869 9.22339 85.7702 8.86865 85.4257 8.86865C84.7368 8.86865 84.2201 9.22339 83.8757 9.93288L83.0145 9.04602C83.1867 8.69127 83.5312 8.33653 83.8757 7.98178C84.3923 7.62704 84.909 7.62704 85.4257 7.62704C85.9424 7.62704 86.6313 7.80441 86.9758 8.15916C87.3202 8.5139 87.6647 9.04602 87.6647 9.57814C87.6647 10.465 87.148 11.1745 86.1146 11.5292L85.5979 11.884C85.0813 12.2387 84.7368 12.4161 84.5646 12.9482H87.6647V14.1898L83.0145 14.0125V14.0125ZM80.0866 36.1841L96.4483 26.6059V0H63.5527V26.4286L80.0866 36.1841Z" fill="#9132A2"></path><path d="M154.661 98.9736H5.5113L0 111.39L5.5113 123.806H154.661L160 111.39L154.661 98.9736Z" fill="#9132A2"></path><path d="M37.2664 91.2066C35.946 91.2066 34.7806 90.9406 33.7702 90.4084C32.7598 89.8763 31.979 89.1255 31.4279 88.1558C30.8653 87.1862 30.584 86.0746 30.584 84.8212V72.6889C30.584 72.6061 30.6127 72.5293 30.6701 72.4583C30.7275 72.3992 30.8021 72.3696 30.894 72.3696H33.908C33.9998 72.3696 34.0745 72.3992 34.1319 72.4583C34.2008 72.5293 34.2352 72.6061 34.2352 72.6889V84.8567C34.2352 85.7908 34.5108 86.5476 35.0619 87.127C35.6245 87.7065 36.3594 87.9962 37.2664 87.9962C38.185 87.9962 38.9256 87.7065 39.4882 87.127C40.0508 86.5476 40.3321 85.7908 40.3321 84.8567V72.6889C40.3321 72.6061 40.3608 72.5293 40.4182 72.4583C40.4756 72.3992 40.5445 72.3696 40.6249 72.3696H43.6561C43.7365 72.3696 43.8111 72.3992 43.88 72.4583C43.9374 72.5293 43.9661 72.6061 43.9661 72.6889V84.8212C43.9661 86.0746 43.6848 87.1862 43.1222 88.1558C42.5596 89.1255 41.7788 89.8763 40.7799 90.4084C39.7695 90.9406 38.5983 91.2066 37.2664 91.2066V91.2066ZM52.0264 91.1711C50.8782 91.1711 49.8735 91.0056 49.0124 90.6745C48.1513 90.3434 47.4796 89.8763 46.9973 89.2733C46.5266 88.6702 46.2912 87.9843 46.2912 87.2157V86.9497C46.2912 86.8669 46.3199 86.79 46.3773 86.7191C46.4462 86.66 46.5208 86.6304 46.6012 86.6304H49.4602C49.5521 86.6304 49.6267 86.66 49.6841 86.7191C49.7415 86.79 49.7702 86.8669 49.7702 86.9497V86.9674C49.7702 87.3695 49.9826 87.7065 50.4074 87.9784C50.8323 88.2504 51.3662 88.3864 52.0092 88.3864C52.5947 88.3864 53.0655 88.2682 53.4214 88.0317C53.7774 87.7833 53.9553 87.4877 53.9553 87.1448C53.9553 86.8255 53.8003 86.5831 53.4903 86.4176C53.1918 86.2638 52.6866 86.0983 51.9747 85.9209C51.1595 85.7081 50.5223 85.5011 50.063 85.3001C48.9607 84.9099 48.0824 84.431 47.4279 83.8634C46.7734 83.2958 46.4462 82.4799 46.4462 81.4156C46.4462 80.1031 46.9399 79.0625 47.9274 78.2939C48.9263 77.5253 50.241 77.1409 51.8714 77.1409C52.9737 77.1409 53.9381 77.3183 54.7648 77.6731C55.5915 78.0396 56.2345 78.554 56.6938 79.2162C57.1416 79.8666 57.3655 80.6115 57.3655 81.4511C57.3655 81.5339 57.3368 81.6048 57.2794 81.664C57.2219 81.7231 57.1473 81.7526 57.0555 81.7526H54.2998C54.2194 81.7526 54.1448 81.7231 54.0759 81.664C54.0185 81.6048 53.9898 81.5339 53.9898 81.4511C53.9898 81.0609 53.7946 80.7298 53.4042 80.4578C53.0253 80.1859 52.5144 80.0499 51.8714 80.0499C51.3088 80.0499 50.8438 80.1622 50.4763 80.3869C50.1089 80.5997 49.9252 80.8894 49.9252 81.256C49.9252 81.6107 50.1032 81.8768 50.4591 82.0542C50.8151 82.2316 51.4064 82.4207 52.2331 82.6218C52.4168 82.6691 52.6349 82.7223 52.8875 82.7814C53.1287 82.8405 53.3813 82.9174 53.6453 83.012C54.8739 83.3904 55.8384 83.8693 56.5388 84.4487C57.2506 85.04 57.6066 85.8913 57.6066 87.0029C57.6066 88.3154 57.1014 89.3383 56.091 90.0714C55.0921 90.8046 53.7372 91.1711 52.0264 91.1711V91.1711ZM64.9952 77.1055C66.1204 77.1055 67.1193 77.3065 67.992 77.7085C68.8646 78.1106 69.5477 78.6545 70.0415 79.3404C70.5352 80.038 70.782 80.8126 70.782 81.664V90.6745C70.782 90.7691 70.7533 90.846 70.6959 90.9051C70.627 90.9642 70.5524 90.9938 70.472 90.9938H67.4408C67.3604 90.9938 67.2916 90.9642 67.2341 90.9051C67.1653 90.846 67.1308 90.7691 67.1308 90.6745V89.8054C67.1308 89.7463 67.1193 89.7108 67.0964 89.699C67.0504 89.6753 67.016 89.693 66.993 89.7522C66.2582 90.7218 65.0928 91.2066 63.4968 91.2066C62.1534 91.2066 61.0684 90.8696 60.2417 90.1956C59.415 89.5216 59.0016 88.5283 59.0016 87.2157C59.0016 85.8559 59.4667 84.7976 60.3967 84.0408C61.3267 83.284 62.6529 82.9056 64.3752 82.9056H67.0102C67.0906 82.9056 67.1308 82.8642 67.1308 82.7814V82.1961C67.1308 81.6048 66.9643 81.1437 66.6313 80.8126C66.2754 80.4933 65.753 80.3337 65.0641 80.3337C64.5359 80.3337 64.0938 80.4283 63.7379 80.6175C63.3935 80.8185 63.1696 81.0964 63.0662 81.4511C63.0088 81.6403 62.894 81.729 62.7218 81.7172L59.5872 81.2915C59.3805 81.256 59.2887 81.1732 59.3116 81.0432C59.3805 80.2982 59.6676 79.6242 60.1728 79.0211C60.678 78.418 61.3497 77.951 62.1879 77.6199C63.026 77.2769 63.9618 77.1055 64.9952 77.1055V77.1055ZM64.4785 88.4219C65.2133 88.4219 65.8391 88.2149 66.3558 87.8011C66.8725 87.3872 67.1308 86.861 67.1308 86.2224V85.2646C67.1308 85.1819 67.0906 85.1405 67.0102 85.1405H65.1502C64.3694 85.1405 63.7609 85.2942 63.3246 85.6016C62.8882 85.8973 62.6701 86.323 62.6701 86.8787C62.6701 87.3517 62.8308 87.7242 63.1523 87.9962C63.4853 88.28 63.9274 88.4219 64.4785 88.4219V88.4219ZM85.0942 80.7948C85.4157 81.729 85.5764 82.8346 85.5764 84.1117C85.5764 85.3297 85.4329 86.3998 85.1459 87.3222C84.744 88.5283 84.1125 89.4802 83.2514 90.1779C82.3787 90.8637 81.3511 91.2066 80.1685 91.2066C78.9055 91.2066 77.9123 90.7218 77.1889 89.7522C77.1545 89.7167 77.12 89.699 77.0856 89.699C77.0512 89.7108 77.0339 89.7463 77.0339 89.8054V90.6745C77.0339 90.7691 77.0052 90.846 76.9478 90.9051C76.8789 90.9642 76.8043 90.9938 76.7239 90.9938H73.6927C73.6123 90.9938 73.5434 90.9642 73.486 90.9051C73.4171 90.846 73.3827 90.7691 73.3827 90.6745V72.6889C73.3827 72.6061 73.4171 72.5293 73.486 72.4583C73.5434 72.3992 73.6123 72.3696 73.6927 72.3696H76.7239C76.8043 72.3696 76.8789 72.3992 76.9478 72.4583C77.0052 72.5293 77.0339 72.6061 77.0339 72.6889V78.3826C77.0339 78.4417 77.0512 78.4772 77.0856 78.489C77.12 78.5008 77.1545 78.4831 77.1889 78.4358C77.8549 77.5489 78.8079 77.1055 80.0479 77.1055C81.3109 77.1055 82.3673 77.4366 83.2169 78.0988C84.0666 78.761 84.6923 79.6596 85.0942 80.7948V80.7948ZM81.2707 86.8433C81.6267 86.1692 81.8047 85.2824 81.8047 84.1827C81.8047 82.9529 81.598 82.0128 81.1846 81.3624C80.7713 80.6766 80.1627 80.3337 79.359 80.3337C78.6012 80.3337 78.0214 80.6766 77.6195 81.3624C77.2406 82.0364 77.0512 82.9706 77.0512 84.1649C77.0512 85.3474 77.2234 86.2402 77.5678 86.8433C77.9812 87.6119 78.584 87.9962 79.3762 87.9962C80.2259 87.9962 80.8574 87.6119 81.2707 86.8433V86.8433ZM89.9338 75.7752C89.3368 75.7752 88.8488 75.5742 88.4699 75.1721C88.0795 74.7819 87.8843 74.2852 87.8843 73.6822C87.8843 73.0555 88.0738 72.547 88.4527 72.1568C88.8316 71.7666 89.3253 71.5714 89.9338 71.5714C90.5309 71.5714 91.0189 71.7666 91.3978 72.1568C91.7767 72.547 91.9661 73.0555 91.9661 73.6822C91.9661 74.2852 91.7709 74.7819 91.3805 75.1721C90.9902 75.5742 90.5079 75.7752 89.9338 75.7752V75.7752ZM88.3838 90.9938C88.2919 90.9938 88.2173 90.9642 88.1599 90.9051C88.1025 90.846 88.0738 90.7691 88.0738 90.6745V77.6199C88.0738 77.5253 88.1025 77.4484 88.1599 77.3893C88.2173 77.3302 88.2919 77.3006 88.3838 77.3006H91.3978C91.4896 77.3006 91.5642 77.3302 91.6217 77.3893C91.6791 77.4484 91.7078 77.5253 91.7078 77.6199V90.6745C91.7078 90.7691 91.6791 90.846 91.6217 90.9051C91.5642 90.9642 91.4896 90.9938 91.3978 90.9938H88.3838ZM94.8595 90.9938C94.7792 90.9938 94.7045 90.9642 94.6356 90.9051C94.5782 90.846 94.5495 90.7691 94.5495 90.6745V72.6889C94.5495 72.6061 94.5782 72.5293 94.6356 72.4583C94.7045 72.3992 94.7792 72.3696 94.8595 72.3696H97.8908C97.9711 72.3696 98.04 72.3992 98.0974 72.4583C98.1663 72.5293 98.2008 72.6061 98.2008 72.6889V90.6745C98.2008 90.7691 98.1663 90.846 98.0974 90.9051C98.04 90.9642 97.9711 90.9938 97.8908 90.9938H94.8595V90.9938ZM102.816 75.7752C102.231 75.7752 101.743 75.5742 101.353 75.1721C100.962 74.7819 100.767 74.2852 100.767 73.6822C100.767 73.0555 100.956 72.547 101.335 72.1568C101.726 71.7666 102.219 71.5714 102.816 71.5714C103.414 71.5714 103.902 71.7666 104.28 72.1568C104.659 72.547 104.849 73.0555 104.849 73.6822C104.849 74.2852 104.659 74.7819 104.28 75.1721C103.89 75.5742 103.402 75.7752 102.816 75.7752V75.7752ZM101.266 90.9938C101.175 90.9938 101.1 90.9642 101.043 90.9051C100.985 90.846 100.956 90.7691 100.956 90.6745V77.6199C100.956 77.5253 100.985 77.4484 101.043 77.3893C101.1 77.3302 101.175 77.3006 101.266 77.3006H104.28C104.372 77.3006 104.447 77.3302 104.504 77.3893C104.562 77.4484 104.59 77.5253 104.59 77.6199V90.6745C104.59 90.7691 104.562 90.846 104.504 90.9051C104.447 90.9642 104.372 90.9938 104.28 90.9938H101.266ZM115.062 80.0144C115.062 80.0972 115.033 80.1681 114.976 80.2272C114.918 80.2982 114.844 80.3337 114.752 80.3337H112.272C112.191 80.3337 112.151 80.3751 112.151 80.4578V86.0983C112.151 86.6777 112.266 87.1152 112.496 87.4108C112.725 87.6946 113.099 87.8365 113.615 87.8365H114.476C114.557 87.8365 114.626 87.8661 114.683 87.9252C114.752 87.9844 114.786 88.0612 114.786 88.1558V90.6745C114.786 90.8755 114.683 90.9879 114.476 91.0115C113.742 91.047 113.225 91.0647 112.926 91.0647C111.491 91.0647 110.423 90.8223 109.723 90.3375C109.011 89.8527 108.649 88.9363 108.638 87.5882V80.4578C108.638 80.3751 108.592 80.3337 108.5 80.3337H107.036C106.944 80.3337 106.87 80.2982 106.812 80.2272C106.755 80.1681 106.726 80.0972 106.726 80.0144V77.6376C106.726 77.5548 106.755 77.478 106.812 77.407C106.87 77.3479 106.944 77.3183 107.036 77.3183H108.5C108.592 77.3183 108.638 77.271 108.638 77.1764V74.0192C108.638 73.9364 108.667 73.8595 108.724 73.7886C108.781 73.7295 108.856 73.6999 108.948 73.6999H111.841C111.922 73.6999 111.991 73.7295 112.048 73.7886C112.117 73.8595 112.151 73.9364 112.151 74.0192V77.1764C112.151 77.271 112.191 77.3183 112.272 77.3183H114.752C114.844 77.3183 114.918 77.3479 114.976 77.407C115.033 77.478 115.062 77.5548 115.062 77.6376V80.0144V80.0144ZM117.18 96.2795C117.134 96.2795 117.094 96.2499 117.06 96.1908C117.025 96.1317 117.008 96.0548 117.008 95.9602V93.5302C117.008 93.4356 117.037 93.3588 117.094 93.2996C117.152 93.2287 117.226 93.1932 117.318 93.1932C118.041 93.1814 118.61 93.1223 119.023 93.0158C119.448 92.9094 119.787 92.7025 120.039 92.395C120.292 92.0994 120.487 91.656 120.625 91.0647C120.636 91.0293 120.636 90.982 120.625 90.9228L116.388 77.6731C116.365 77.6376 116.354 77.5903 116.354 77.5312C116.354 77.3774 116.451 77.3006 116.646 77.3006H119.867C120.062 77.3006 120.183 77.3893 120.229 77.5666L122.399 86.187C122.422 86.2343 122.45 86.2579 122.485 86.2579C122.519 86.2579 122.542 86.2343 122.554 86.187L124.724 77.5666C124.781 77.3893 124.902 77.3006 125.086 77.3006H128.237C128.341 77.3006 128.415 77.3302 128.461 77.3893C128.507 77.4484 128.513 77.543 128.478 77.6731L124.001 91.4904C123.576 92.7912 123.139 93.7667 122.692 94.4171C122.244 95.0674 121.612 95.5404 120.797 95.8361C119.993 96.1317 118.851 96.2795 117.37 96.2795H117.18V96.2795ZM65.0468 54.6855C64.9435 54.7328 64.9435 54.786 65.0468 54.8452C66.6773 55.7084 67.4925 57.151 67.4925 59.1731C67.4925 60.8995 66.9241 62.2002 65.7874 63.0753C64.6507 63.9503 63.1638 64.3878 61.3267 64.3878H54.627C54.5467 64.3878 54.4778 64.3583 54.4204 64.2991C54.3515 64.24 54.317 64.1632 54.317 64.0686V46.0829C54.317 46.0002 54.3515 45.9233 54.4204 45.8524C54.4778 45.7932 54.5467 45.7637 54.627 45.7637H61.12C65.1961 45.7637 67.2341 47.4665 67.2341 50.872C67.2341 52.6457 66.505 53.9169 65.0468 54.6855ZM58.0888 48.9741C58.0085 48.9741 57.9683 49.0214 57.9683 49.116V53.2665C57.9683 53.3611 58.0085 53.4084 58.0888 53.4084H61.12C61.9238 53.4084 62.5553 53.2133 63.0146 52.8231C63.4509 52.4329 63.669 51.9008 63.669 51.2268C63.669 50.5291 63.4509 49.9792 63.0146 49.5772C62.5553 49.1751 61.9238 48.9741 61.12 48.9741H58.0888ZM61.3267 61.1419C62.119 61.1419 62.739 60.935 63.1868 60.5211C63.6346 60.1072 63.8585 59.5337 63.8585 58.8006C63.8585 58.0793 63.6346 57.5058 63.1868 57.0801C62.739 56.6662 62.1075 56.4593 61.2923 56.4593H58.0888C58.0085 56.4593 57.9683 56.5066 57.9683 56.6012V61C57.9683 61.0946 58.0085 61.1419 58.0888 61.1419H61.3267V61.1419ZM81.8563 56.14C81.9597 56.814 81.9941 57.5649 81.9597 58.3926C81.9482 58.6173 81.8391 58.7296 81.6324 58.7296H73.641C73.5377 58.7296 73.5032 58.771 73.5377 58.8538C73.5951 59.2085 73.6927 59.5633 73.8305 59.918C74.2783 60.9113 75.1911 61.408 76.5689 61.408C77.6712 61.3961 78.5381 60.935 79.1696 60.0245C79.2384 59.918 79.3188 59.8648 79.4107 59.8648C79.4566 59.8648 79.514 59.9003 79.5829 59.9712L81.443 61.8514C81.5348 61.946 81.5808 62.0288 81.5808 62.0997C81.5808 62.1352 81.5463 62.2061 81.4774 62.3126C80.9033 63.0457 80.1685 63.6074 79.2729 63.9976C78.3888 64.3997 77.4071 64.6007 76.3278 64.6007C74.8466 64.6007 73.5951 64.2578 72.5732 63.5719C71.5513 62.8743 70.8165 61.9046 70.3687 60.663C70.0013 59.7761 69.8176 58.6173 69.8176 57.1865C69.8176 56.205 69.9496 55.3418 70.2137 54.5968C70.6041 53.3434 71.2987 52.3442 72.2977 51.5992C73.2851 50.8543 74.4562 50.4818 75.8111 50.4818C77.5334 50.4818 78.917 50.9962 79.9618 52.0249C81.0067 53.0537 81.6382 54.4254 81.8563 56.14V56.14ZM75.8456 53.7277C74.7548 53.7277 74.0372 54.248 73.6927 55.2886C73.6238 55.5251 73.5664 55.8089 73.5205 56.14C73.5205 56.2228 73.5607 56.2641 73.641 56.2641H78.119C78.2223 56.2641 78.2567 56.2228 78.2223 56.14C78.1304 55.6315 78.0845 55.3832 78.0845 55.395C77.9353 54.8629 77.6654 54.449 77.275 54.1534C76.8847 53.8696 76.4082 53.7277 75.8456 53.7277V53.7277ZM89.331 64.5652C88.1714 64.5652 87.1609 64.3997 86.2998 64.0686C85.4387 63.7375 84.7727 63.2704 84.302 62.6673C83.8312 62.0642 83.5958 61.3784 83.5958 60.6098V60.3437C83.5958 60.261 83.6245 60.1841 83.6819 60.1131C83.7393 60.054 83.814 60.0245 83.9058 60.0245H86.7648C86.8567 60.0245 86.9313 60.054 86.9887 60.1131C87.0461 60.1841 87.0748 60.261 87.0748 60.3437V60.3615C87.0748 60.7635 87.2872 61.1005 87.7121 61.3725C88.1369 61.6445 88.6651 61.7804 89.2966 61.7804C89.8822 61.7804 90.3587 61.6622 90.7261 61.4257C91.082 61.1774 91.26 60.8818 91.26 60.5388C91.26 60.2196 91.105 59.9772 90.795 59.8116C90.4849 59.6579 89.9798 59.4923 89.2794 59.315C88.4641 59.1021 87.8269 58.8952 87.3676 58.6942C86.2654 58.3039 85.387 57.825 84.7325 57.2574C84.0781 56.6898 83.7508 55.8739 83.7508 54.8097C83.7508 53.4971 84.2445 52.4565 85.232 51.6879C86.2194 50.9193 87.5341 50.535 89.176 50.535C90.2783 50.535 91.2428 50.7124 92.0695 51.0671C92.8961 51.4337 93.5391 51.9481 93.9984 52.6103C94.4462 53.2606 94.6701 54.0056 94.6701 54.8452C94.6701 54.9279 94.6414 54.9989 94.584 55.058C94.5266 55.1171 94.4519 55.1467 94.3601 55.1467H91.6044C91.5126 55.1467 91.4379 55.1171 91.3805 55.058C91.3231 54.9989 91.2944 54.9279 91.2944 54.8452C91.2944 54.4549 91.0992 54.1239 90.7088 53.8519C90.3185 53.5799 89.8075 53.4439 89.176 53.4439C88.6019 53.4439 88.1369 53.5563 87.781 53.7809C87.4135 53.9938 87.2298 54.2835 87.2298 54.6501C87.2298 55.0048 87.4078 55.2709 87.7637 55.4482C88.1197 55.6256 88.711 55.8148 89.5377 56.0158C89.7214 56.0631 89.9338 56.1163 90.1749 56.1755C90.4161 56.2346 90.6744 56.3115 90.95 56.406C92.1785 56.7844 93.143 57.2634 93.8434 57.8428C94.5553 58.434 94.9112 59.2854 94.9112 60.3969C94.9112 61.7095 94.406 62.7324 93.3956 63.4655C92.3852 64.1986 91.0303 64.5652 89.331 64.5652V64.5652ZM104.59 53.4084C104.59 53.4912 104.562 53.5622 104.504 53.6213C104.447 53.6922 104.372 53.7277 104.28 53.7277H101.8C101.72 53.7277 101.68 53.7691 101.68 53.8519V59.4923C101.68 60.0718 101.795 60.5093 102.024 60.8049C102.254 61.0887 102.633 61.2306 103.161 61.2306H104.005C104.085 61.2306 104.16 61.2602 104.229 61.3193C104.286 61.3784 104.315 61.4553 104.315 61.5499V64.0686C104.315 64.2696 104.212 64.3819 104.005 64.4056C103.282 64.441 102.765 64.4588 102.455 64.4588C101.02 64.4588 99.9518 64.2164 99.2514 63.7316C98.5395 63.2467 98.1778 62.3303 98.1663 60.9823V53.8519C98.1663 53.7691 98.1204 53.7277 98.0285 53.7277H96.5646C96.4728 53.7277 96.3981 53.6922 96.3407 53.6213C96.2833 53.5622 96.2546 53.4912 96.2546 53.4084V51.0317C96.2546 50.9489 96.2833 50.872 96.3407 50.8011C96.3981 50.7419 96.4728 50.7124 96.5646 50.7124H98.0285C98.1204 50.7124 98.1663 50.6651 98.1663 50.5705V47.4132C98.1663 47.3305 98.195 47.2536 98.2524 47.1827C98.3099 47.1235 98.3845 47.094 98.4763 47.094H101.37C101.45 47.094 101.525 47.1235 101.594 47.1827C101.651 47.2536 101.68 47.3305 101.68 47.4132V50.5705C101.68 50.6651 101.72 50.7124 101.8 50.7124H104.28C104.372 50.7124 104.447 50.7419 104.504 50.8011C104.562 50.872 104.59 50.9489 104.59 51.0317V53.4084V53.4084Z" fill="#252530"></path><path d="M28.4126 118.449C27.517 118.449 26.7362 118.302 26.0703 118.006C25.4043 117.71 24.8877 117.296 24.5202 116.764C24.1643 116.232 23.9863 115.605 23.9863 114.884V114.441C23.9863 114.382 24.0093 114.328 24.0552 114.281C24.0897 114.246 24.1356 114.228 24.193 114.228H25.7258C25.7832 114.228 25.8349 114.246 25.8808 114.281C25.9153 114.328 25.9325 114.382 25.9325 114.441V114.778C25.9325 115.322 26.1679 115.771 26.6386 116.126C27.1094 116.492 27.7524 116.676 28.5676 116.676C29.268 116.676 29.7962 116.522 30.1521 116.214C30.508 115.907 30.686 115.511 30.686 115.026C30.686 114.695 30.5884 114.411 30.3932 114.175C30.198 113.95 29.9225 113.743 29.5665 113.554C29.1991 113.365 28.6537 113.128 27.9304 112.844C27.1151 112.537 26.4549 112.247 25.9497 111.975C25.4445 111.703 25.0254 111.331 24.6925 110.858C24.348 110.397 24.1758 109.817 24.1758 109.12C24.1758 108.079 24.5432 107.257 25.278 106.654C26.0129 106.051 26.9946 105.749 28.2231 105.749C29.0843 105.749 29.8478 105.903 30.5138 106.211C31.1682 106.518 31.6792 106.95 32.0466 107.505C32.414 108.049 32.5977 108.682 32.5977 109.403V109.705C32.5977 109.764 32.5748 109.817 32.5288 109.865C32.4944 109.9 32.4485 109.918 32.3911 109.918H30.841C30.7836 109.918 30.7377 109.9 30.7032 109.865C30.6573 109.817 30.6343 109.764 30.6343 109.705V109.51C30.6343 108.954 30.4162 108.487 29.9799 108.109C29.5321 107.718 28.9178 107.523 28.137 107.523C27.5055 107.523 27.0175 107.659 26.6731 107.931C26.3172 108.203 26.1392 108.587 26.1392 109.084C26.1392 109.439 26.231 109.729 26.4147 109.953C26.5985 110.178 26.874 110.379 27.2414 110.556C27.6089 110.745 28.1772 110.982 28.9465 111.266C29.7617 111.585 30.4162 111.875 30.9099 112.135C31.3921 112.395 31.8112 112.756 32.1672 113.217C32.5116 113.69 32.6839 114.275 32.6839 114.973C32.6839 116.037 32.2992 116.883 31.5299 117.509C30.7721 118.136 29.733 118.449 28.4126 118.449V118.449ZM43.9304 109.102C44.8145 109.102 45.5091 109.374 46.0143 109.918C46.508 110.473 46.7549 111.242 46.7549 112.224V118.095C46.7549 118.154 46.7377 118.201 46.7032 118.237C46.6573 118.284 46.6056 118.307 46.5482 118.307H44.9809C44.9235 118.307 44.8776 118.284 44.8432 118.237C44.7972 118.201 44.7743 118.154 44.7743 118.095V112.649C44.7743 112.105 44.6365 111.674 44.3609 111.354C44.0739 111.035 43.695 110.876 43.2242 110.876C42.7535 110.876 42.3688 111.035 42.0703 111.354C41.7718 111.674 41.6225 112.099 41.6225 112.632V118.095C41.6225 118.154 41.6053 118.201 41.5708 118.237C41.5249 118.284 41.4732 118.307 41.4158 118.307H39.8485C39.7911 118.307 39.7395 118.284 39.6935 118.237C39.6591 118.201 39.6419 118.154 39.6419 118.095V112.649C39.6419 112.105 39.4983 111.674 39.2113 111.354C38.9243 111.035 38.5454 110.876 38.0746 110.876C37.6383 110.876 37.2766 111.006 36.9896 111.266C36.714 111.526 36.5532 111.881 36.5073 112.33V118.095C36.5073 118.154 36.4901 118.201 36.4556 118.237C36.4097 118.284 36.3581 118.307 36.3006 118.307H34.7161C34.6587 118.307 34.6128 118.284 34.5784 118.237C34.5324 118.201 34.5095 118.154 34.5095 118.095V109.457C34.5095 109.397 34.5324 109.344 34.5784 109.297C34.6128 109.261 34.6587 109.244 34.7161 109.244H36.3006C36.3581 109.244 36.4097 109.261 36.4556 109.297C36.4901 109.344 36.5073 109.397 36.5073 109.457V110.042C36.5073 110.077 36.5188 110.101 36.5418 110.113C36.5647 110.125 36.5877 110.113 36.6107 110.077C36.8633 109.746 37.1733 109.504 37.5407 109.35C37.9196 109.185 38.3387 109.102 38.798 109.102C39.3606 109.102 39.8543 109.22 40.2791 109.457C40.7039 109.693 41.0312 110.036 41.2608 110.485C41.2953 110.533 41.3354 110.533 41.3814 110.485C41.634 110.012 41.9842 109.663 42.432 109.439C42.8798 109.214 43.3792 109.102 43.9304 109.102V109.102ZM52.1456 109.102C52.869 109.102 53.5062 109.232 54.0574 109.492C54.6085 109.752 55.0333 110.107 55.3319 110.556C55.6304 111.017 55.7797 111.538 55.7797 112.117V118.095C55.7797 118.154 55.7624 118.201 55.728 118.237C55.6821 118.284 55.6304 118.307 55.573 118.307H53.9885C53.9311 118.307 53.8851 118.284 53.8507 118.237C53.8048 118.201 53.7818 118.154 53.7818 118.095V117.527C53.7818 117.492 53.7703 117.468 53.7474 117.456C53.7244 117.456 53.7014 117.468 53.6785 117.492C53.1159 118.13 52.3006 118.449 51.2328 118.449C50.3717 118.449 49.6656 118.225 49.1144 117.775C48.5518 117.326 48.2705 116.658 48.2705 115.771C48.2705 114.849 48.5863 114.127 49.2178 113.607C49.8378 113.099 50.7161 112.844 51.8529 112.844H53.6957C53.7531 112.844 53.7818 112.815 53.7818 112.756V112.33C53.7818 111.869 53.6498 111.508 53.3857 111.248C53.1216 111 52.7255 110.876 52.1973 110.876C51.761 110.876 51.4108 110.958 51.1467 111.124C50.8712 111.278 50.6989 111.496 50.63 111.78C50.5956 111.922 50.5152 111.981 50.3889 111.958L48.7183 111.745C48.6609 111.733 48.615 111.715 48.5805 111.691C48.5346 111.656 48.5174 111.615 48.5288 111.567C48.6207 110.846 48.9996 110.255 49.6656 109.794C50.32 109.332 51.1467 109.102 52.1456 109.102V109.102ZM51.7323 116.818C52.2949 116.818 52.7771 116.664 53.179 116.356C53.5809 116.049 53.7818 115.659 53.7818 115.186V114.352C53.7818 114.293 53.7531 114.263 53.6957 114.263H52.249C51.6404 114.263 51.1639 114.382 50.8195 114.618C50.4635 114.855 50.2856 115.192 50.2856 115.629C50.2856 116.008 50.4234 116.297 50.6989 116.498C50.963 116.711 51.3075 116.818 51.7323 116.818V116.818ZM57.9842 118.307C57.9268 118.307 57.8808 118.284 57.8464 118.237C57.8005 118.201 57.7775 118.154 57.7775 118.095V106.104C57.7775 106.045 57.8005 105.998 57.8464 105.962C57.8808 105.915 57.9268 105.891 57.9842 105.891H59.5687C59.6261 105.891 59.6778 105.915 59.7237 105.962C59.7581 105.998 59.7754 106.045 59.7754 106.104V118.095C59.7754 118.154 59.7581 118.201 59.7237 118.237C59.6778 118.284 59.6261 118.307 59.5687 118.307H57.9842ZM62.1004 118.307C62.043 118.307 61.9971 118.284 61.9626 118.237C61.9167 118.201 61.8938 118.154 61.8938 118.095V106.104C61.8938 106.045 61.9167 105.998 61.9626 105.962C61.9971 105.915 62.043 105.891 62.1004 105.891H63.6849C63.7423 105.891 63.794 105.915 63.8399 105.962C63.8744 105.998 63.8916 106.045 63.8916 106.104V118.095C63.8916 118.154 63.8744 118.201 63.8399 118.237C63.794 118.284 63.7423 118.307 63.6849 118.307H62.1004ZM76.3781 111.833C76.3093 111.869 76.3093 111.904 76.3781 111.94C77.5493 112.507 78.1349 113.483 78.1349 114.866C78.1349 115.99 77.7732 116.847 77.0498 117.438C76.315 118.018 75.362 118.307 74.1908 118.307H69.8507C69.7933 118.307 69.7474 118.284 69.7129 118.237C69.667 118.201 69.644 118.154 69.644 118.095V106.104C69.644 106.045 69.667 105.998 69.7129 105.962C69.7474 105.915 69.7933 105.891 69.8507 105.891H74.0531C75.3046 105.891 76.2691 106.169 76.9465 106.725C77.6239 107.281 77.9626 108.12 77.9626 109.244C77.9626 110.485 77.4345 111.349 76.3781 111.833V111.833ZM71.728 107.665C71.6706 107.665 71.6419 107.695 71.6419 107.754V111.035C71.6419 111.094 71.6706 111.124 71.728 111.124H74.0531C74.6616 111.124 75.1438 110.976 75.4998 110.68C75.8442 110.373 76.0165 109.953 76.0165 109.421C76.0165 108.877 75.8442 108.446 75.4998 108.126C75.1438 107.819 74.6616 107.665 74.0531 107.665H71.728V107.665ZM74.1908 116.516C74.7879 116.516 75.2644 116.35 75.6203 116.019C75.9648 115.688 76.137 115.239 76.137 114.671C76.137 114.092 75.9591 113.643 75.6031 113.323C75.2472 112.992 74.7649 112.827 74.1564 112.827H71.728C71.6706 112.827 71.6419 112.856 71.6419 112.915V116.427C71.6419 116.486 71.6706 116.516 71.728 116.516H74.1908V116.516ZM85.2135 109.457C85.2135 109.397 85.2307 109.344 85.2651 109.297C85.3111 109.261 85.3627 109.244 85.4201 109.244H86.9874C87.0448 109.244 87.0965 109.261 87.1424 109.297C87.1769 109.344 87.1941 109.397 87.1941 109.457V118.095C87.1941 118.154 87.1769 118.201 87.1424 118.237C87.0965 118.284 87.0448 118.307 86.9874 118.307H85.4201C85.3627 118.307 85.3111 118.284 85.2651 118.237C85.2307 118.201 85.2135 118.154 85.2135 118.095V117.527C85.2135 117.492 85.202 117.468 85.179 117.456C85.156 117.444 85.1331 117.456 85.1101 117.492C84.6394 118.118 83.9332 118.432 82.9917 118.432C82.1191 118.432 81.39 118.171 80.8044 117.651C80.2074 117.131 79.9088 116.392 79.9088 115.434V109.457C79.9088 109.397 79.926 109.344 79.9605 109.297C80.0064 109.261 80.0581 109.244 80.1155 109.244H81.7C81.7574 109.244 81.8091 109.261 81.855 109.297C81.8894 109.344 81.9067 109.397 81.9067 109.457V114.849C81.9067 115.404 82.0502 115.848 82.3372 116.179C82.6128 116.51 83.0032 116.676 83.5084 116.676C84.0251 116.676 84.4384 116.51 84.7484 116.179C85.0584 115.848 85.2135 115.404 85.2135 114.849V109.457V109.457ZM92.602 118.414C91.8787 118.414 91.2414 118.302 90.6903 118.077C90.1507 117.864 89.7316 117.563 89.433 117.172C89.1345 116.794 88.9852 116.368 88.9852 115.895V115.736C88.9852 115.676 89.0025 115.623 89.0369 115.576C89.0828 115.54 89.1345 115.523 89.1919 115.523H90.7075C90.7649 115.523 90.8109 115.54 90.8453 115.576C90.8912 115.623 90.9142 115.676 90.9142 115.736V115.771C90.9142 116.067 91.0692 116.327 91.3792 116.551C91.7007 116.764 92.1026 116.871 92.5848 116.871C93.0441 116.871 93.4173 116.776 93.7043 116.587C93.9914 116.386 94.1349 116.138 94.1349 115.842C94.1349 115.57 94.0143 115.363 93.7732 115.221C93.5436 115.091 93.1647 114.949 92.6365 114.795L91.982 114.583C91.3965 114.405 90.9027 114.216 90.5009 114.015C90.099 113.814 89.7603 113.536 89.4847 113.181C89.2091 112.838 89.0714 112.395 89.0714 111.851C89.0714 111.023 89.3871 110.367 90.0186 109.882C90.6501 109.386 91.4826 109.137 92.5159 109.137C93.2163 109.137 93.8306 109.25 94.3588 109.474C94.8869 109.711 95.2945 110.03 95.5816 110.432C95.8686 110.846 96.0122 111.313 96.0122 111.833C96.0122 111.892 95.9892 111.946 95.9433 111.993C95.9088 112.028 95.8629 112.046 95.8055 112.046H94.3415C94.2841 112.046 94.2325 112.028 94.1865 111.993C94.1521 111.946 94.1349 111.892 94.1349 111.833C94.1349 111.526 93.9856 111.272 93.6871 111.071C93.4 110.858 93.0039 110.751 92.4987 110.751C92.0509 110.751 91.6835 110.834 91.3964 111C91.1209 111.177 90.9831 111.419 90.9831 111.727C90.9831 112.011 91.1151 112.224 91.3792 112.365C91.6548 112.519 92.1083 112.685 92.7398 112.862L93.1187 112.969C93.7273 113.158 94.2382 113.347 94.6516 113.536C95.0649 113.737 95.4151 114.009 95.7022 114.352C95.9892 114.707 96.1327 115.162 96.1327 115.718C96.1327 116.557 95.8112 117.214 95.1682 117.687C94.5253 118.171 93.6699 118.414 92.602 118.414V118.414ZM98.9573 108.002C98.6013 108.002 98.3085 107.884 98.0789 107.647C97.8493 107.411 97.7344 107.109 97.7344 106.743C97.7344 106.376 97.8493 106.075 98.0789 105.838C98.3085 105.602 98.6013 105.483 98.9573 105.483C99.3132 105.483 99.606 105.602 99.8356 105.838C100.065 106.075 100.18 106.376 100.18 106.743C100.18 107.109 100.065 107.411 99.8356 107.647C99.606 107.884 99.3132 108.002 98.9573 108.002ZM98.1306 118.307C98.0732 118.307 98.0215 118.284 97.9756 118.237C97.9411 118.201 97.9239 118.154 97.9239 118.095V109.439C97.9239 109.38 97.9411 109.332 97.9756 109.297C98.0215 109.25 98.0732 109.226 98.1306 109.226H99.7151C99.7725 109.226 99.8184 109.25 99.8529 109.297C99.8988 109.332 99.9217 109.38 99.9217 109.439V118.095C99.9217 118.154 99.8988 118.201 99.8529 118.237C99.8184 118.284 99.7725 118.307 99.7151 118.307H98.1306V118.307ZM106.432 109.102C107.362 109.102 108.103 109.386 108.654 109.953C109.216 110.521 109.498 111.295 109.498 112.277V118.095C109.498 118.154 109.475 118.201 109.429 118.237C109.394 118.284 109.348 118.307 109.291 118.307H107.706C107.649 118.307 107.597 118.284 107.551 118.237C107.517 118.201 107.5 118.154 107.5 118.095V112.702C107.5 112.159 107.351 111.715 107.052 111.372C106.753 111.041 106.357 110.876 105.864 110.876C105.37 110.876 104.968 111.041 104.658 111.372C104.359 111.703 104.21 112.141 104.21 112.685V118.095C104.21 118.154 104.187 118.201 104.141 118.237C104.107 118.284 104.061 118.307 104.004 118.307H102.419C102.362 118.307 102.31 118.284 102.264 118.237C102.23 118.201 102.212 118.154 102.212 118.095V109.457C102.212 109.397 102.23 109.344 102.264 109.297C102.31 109.261 102.362 109.244 102.419 109.244H104.004C104.061 109.244 104.107 109.261 104.141 109.297C104.187 109.344 104.21 109.397 104.21 109.457V110.024C104.21 110.06 104.222 110.083 104.245 110.095C104.268 110.107 104.285 110.095 104.296 110.06C104.767 109.421 105.479 109.102 106.432 109.102V109.102ZM118.936 112.756C118.982 113.051 119.005 113.382 119.005 113.749L118.987 114.299C118.987 114.441 118.919 114.512 118.781 114.512H113.39C113.333 114.512 113.304 114.541 113.304 114.6C113.338 114.991 113.39 115.257 113.459 115.399C113.734 116.25 114.406 116.682 115.474 116.693C116.255 116.693 116.875 116.362 117.334 115.7C117.38 115.629 117.437 115.594 117.506 115.594C117.552 115.594 117.592 115.611 117.627 115.647L118.695 116.551C118.798 116.634 118.815 116.729 118.746 116.835C118.39 117.356 117.914 117.758 117.317 118.041C116.731 118.325 116.077 118.467 115.353 118.467C114.458 118.467 113.694 118.26 113.063 117.846C112.443 117.432 111.989 116.853 111.702 116.108C111.438 115.47 111.306 114.583 111.306 113.447C111.306 112.762 111.375 112.206 111.513 111.78C111.742 110.952 112.173 110.296 112.804 109.811C113.447 109.338 114.217 109.102 115.112 109.102C117.374 109.102 118.649 110.32 118.936 112.756V112.756ZM115.112 110.876C114.687 110.876 114.332 110.988 114.044 111.213C113.769 111.425 113.574 111.727 113.459 112.117C113.39 112.318 113.344 112.578 113.321 112.898C113.298 112.957 113.321 112.986 113.39 112.986H116.886C116.944 112.986 116.972 112.957 116.972 112.898C116.949 112.602 116.915 112.377 116.869 112.224C116.766 111.798 116.559 111.467 116.249 111.23C115.95 110.994 115.572 110.876 115.112 110.876ZM123.965 118.414C123.241 118.414 122.604 118.302 122.053 118.077C121.513 117.864 121.094 117.563 120.796 117.172C120.497 116.794 120.348 116.368 120.348 115.895V115.736C120.348 115.676 120.365 115.623 120.4 115.576C120.446 115.54 120.497 115.523 120.555 115.523H122.07C122.128 115.523 122.174 115.54 122.208 115.576C122.254 115.623 122.277 115.676 122.277 115.736V115.771C122.277 116.067 122.432 116.327 122.742 116.551C123.063 116.764 123.465 116.871 123.948 116.871C124.407 116.871 124.78 116.776 125.067 116.587C125.354 116.386 125.498 116.138 125.498 115.842C125.498 115.57 125.377 115.363 125.136 115.221C124.906 115.091 124.527 114.949 123.999 114.795L123.345 114.583C122.759 114.405 122.265 114.216 121.864 114.015C121.462 113.814 121.123 113.536 120.847 113.181C120.572 112.838 120.434 112.395 120.434 111.851C120.434 111.023 120.75 110.367 121.381 109.882C122.013 109.386 122.845 109.137 123.879 109.137C124.579 109.137 125.193 109.25 125.722 109.474C126.25 109.711 126.657 110.03 126.944 110.432C127.231 110.846 127.375 111.313 127.375 111.833C127.375 111.892 127.352 111.946 127.306 111.993C127.272 112.028 127.226 112.046 127.168 112.046H125.704C125.647 112.046 125.595 112.028 125.549 111.993C125.515 111.946 125.498 111.892 125.498 111.833C125.498 111.526 125.348 111.272 125.05 111.071C124.763 110.858 124.367 110.751 123.861 110.751C123.414 110.751 123.046 110.834 122.759 111C122.484 111.177 122.346 111.419 122.346 111.727C122.346 112.011 122.478 112.224 122.742 112.365C123.018 112.519 123.471 112.685 124.103 112.862L124.481 112.969C125.09 113.158 125.601 113.347 126.014 113.536C126.428 113.737 126.778 114.009 127.065 114.352C127.352 114.707 127.495 115.162 127.495 115.718C127.495 116.557 127.174 117.214 126.531 117.687C125.888 118.171 125.033 118.414 123.965 118.414V118.414ZM132.283 118.414C131.56 118.414 130.923 118.302 130.372 118.077C129.832 117.864 129.413 117.563 129.114 117.172C128.816 116.794 128.667 116.368 128.667 115.895V115.736C128.667 115.676 128.684 115.623 128.718 115.576C128.764 115.54 128.816 115.523 128.873 115.523H130.389C130.446 115.523 130.492 115.54 130.527 115.576C130.573 115.623 130.596 115.676 130.596 115.736V115.771C130.596 116.067 130.751 116.327 131.061 116.551C131.382 116.764 131.784 116.871 132.266 116.871C132.725 116.871 133.099 116.776 133.386 116.587C133.673 116.386 133.816 116.138 133.816 115.842C133.816 115.57 133.696 115.363 133.455 115.221C133.225 115.091 132.846 114.949 132.318 114.795L131.663 114.583C131.078 114.405 130.584 114.216 130.182 114.015C129.78 113.814 129.442 113.536 129.166 113.181C128.891 112.838 128.753 112.395 128.753 111.851C128.753 111.023 129.068 110.367 129.7 109.882C130.331 109.386 131.164 109.137 132.197 109.137C132.898 109.137 133.512 109.25 134.04 109.474C134.568 109.711 134.976 110.03 135.263 110.432C135.55 110.846 135.694 111.313 135.694 111.833C135.694 111.892 135.671 111.946 135.625 111.993C135.59 112.028 135.544 112.046 135.487 112.046H134.023C133.966 112.046 133.914 112.028 133.868 111.993C133.833 111.946 133.816 111.892 133.816 111.833C133.816 111.526 133.667 111.272 133.368 111.071C133.081 110.858 132.685 110.751 132.18 110.751C131.732 110.751 131.365 110.834 131.078 111C130.802 111.177 130.664 111.419 130.664 111.727C130.664 112.011 130.797 112.224 131.061 112.365C131.336 112.519 131.79 112.685 132.421 112.862L132.8 112.969C133.409 113.158 133.92 113.347 134.333 113.536C134.746 113.737 135.096 114.009 135.384 114.352C135.671 114.707 135.814 115.162 135.814 115.718C135.814 116.557 135.493 117.214 134.85 117.687C134.207 118.171 133.351 118.414 132.283 118.414V118.414Z" fill="white"></path><path d="M51.9605 143.46C51.042 143.46 50.2382 143.306 49.5493 142.999C48.8604 142.703 48.3323 142.271 47.9648 141.704C47.5859 141.148 47.3965 140.498 47.3965 139.753V139.362C47.3965 139.303 47.4194 139.256 47.4654 139.22C47.4998 139.173 47.5458 139.15 47.6032 139.15H49.5666C49.624 139.15 49.6756 139.173 49.7216 139.22C49.756 139.256 49.7732 139.303 49.7732 139.362V139.628C49.7732 140.101 49.9856 140.498 50.4105 140.817C50.8353 141.148 51.4094 141.313 52.1328 141.313C52.7413 141.313 53.1948 141.183 53.4934 140.923C53.7919 140.651 53.9412 140.32 53.9412 139.93C53.9412 139.646 53.8493 139.41 53.6656 139.22C53.4819 139.019 53.2293 138.848 52.9078 138.706C52.5978 138.552 52.0983 138.345 51.4094 138.085C50.6401 137.813 49.9856 137.535 49.446 137.252C48.9178 136.968 48.4758 136.578 48.1198 136.081C47.7524 135.596 47.5687 134.993 47.5687 134.272C47.5687 133.562 47.7467 132.941 48.1026 132.409C48.4586 131.877 48.9523 131.469 49.5838 131.185C50.2153 130.902 50.9444 130.76 51.7711 130.76C52.6437 130.76 53.4187 130.919 54.0962 131.239C54.7851 131.558 55.3247 132.007 55.7151 132.587C56.094 133.154 56.2835 133.816 56.2835 134.573V134.839C56.2835 134.898 56.2662 134.946 56.2318 134.981C56.1859 135.029 56.1342 135.052 56.0768 135.052H54.0962C54.0388 135.052 53.9928 135.029 53.9584 134.981C53.9124 134.946 53.8895 134.898 53.8895 134.839V134.697C53.8895 134.201 53.6943 133.775 53.3039 133.42C52.902 133.077 52.3567 132.906 51.6677 132.906C51.1281 132.906 50.7033 133.024 50.3933 133.261C50.0947 133.497 49.9455 133.822 49.9455 134.236C49.9455 134.532 50.0373 134.78 50.221 134.981C50.3933 135.182 50.6573 135.36 51.0133 135.513C51.3577 135.679 51.8974 135.898 52.6322 136.17C53.4474 136.477 54.0847 136.749 54.544 136.986C55.0147 137.222 55.4395 137.571 55.8184 138.032C56.1859 138.505 56.3696 139.114 56.3696 139.859C56.3696 140.971 55.9734 141.846 55.1812 142.484C54.3889 143.134 53.3154 143.46 51.9605 143.46V143.46ZM62.4492 143.46C61.5651 143.46 60.7901 143.282 60.1241 142.928C59.4467 142.573 58.9185 142.076 58.5396 141.438C58.1722 140.787 57.9885 140.042 57.9885 139.203V131.115C57.9885 131.055 58.0057 131.008 58.0402 130.973C58.0861 130.925 58.1378 130.902 58.1952 130.902H60.2103C60.2677 130.902 60.3136 130.925 60.348 130.973C60.394 131.008 60.4169 131.055 60.4169 131.115V139.22C60.4169 139.847 60.6064 140.35 60.9853 140.728C61.3527 141.118 61.8407 141.313 62.4492 141.313C63.0578 141.313 63.5515 141.118 63.9304 140.728C64.2978 140.35 64.4815 139.847 64.4815 139.22V131.115C64.4815 131.055 64.5045 131.008 64.5504 130.973C64.5849 130.925 64.6308 130.902 64.6882 130.902H66.7033C66.7607 130.902 66.8123 130.925 66.8583 130.973C66.8927 131.008 66.9099 131.055 66.9099 131.115V139.203C66.9099 140.042 66.7262 140.787 66.3588 141.438C65.9799 142.076 65.4575 142.573 64.7915 142.928C64.1141 143.282 63.3333 143.46 62.4492 143.46V143.46ZM76.6581 131.044C76.7155 130.949 76.7958 130.902 76.8992 130.902H78.9142C78.9717 130.902 79.0233 130.925 79.0692 130.973C79.1037 131.008 79.1209 131.055 79.1209 131.115V143.105C79.1209 143.164 79.1037 143.211 79.0692 143.247C79.0233 143.294 78.9717 143.318 78.9142 143.318H76.8992C76.8418 143.318 76.7958 143.294 76.7614 143.247C76.7155 143.211 76.6925 143.164 76.6925 143.105V135.283C76.6925 135.235 76.681 135.212 76.6581 135.212C76.6351 135.212 76.6121 135.23 76.5892 135.265L74.7635 138.209C74.7061 138.304 74.6258 138.351 74.5224 138.351H73.5063C73.4029 138.351 73.3226 138.304 73.2652 138.209L71.4395 135.265C71.4166 135.23 71.3936 135.212 71.3706 135.212C71.3477 135.224 71.3362 135.253 71.3362 135.301V143.105C71.3362 143.164 71.3132 143.211 71.2673 143.247C71.2329 143.294 71.1869 143.318 71.1295 143.318H69.1145C69.057 143.318 69.0054 143.294 68.9595 143.247C68.925 143.211 68.9078 143.164 68.9078 143.105V131.115C68.9078 131.055 68.925 131.008 68.9595 130.973C69.0054 130.925 69.057 130.902 69.1145 130.902H71.1295C71.2329 130.902 71.3132 130.949 71.3706 131.044L73.9541 135.176C73.9885 135.247 74.023 135.247 74.0574 135.176L76.6581 131.044V131.044ZM88.9724 131.044C89.0298 130.949 89.1102 130.902 89.2135 130.902H91.2286C91.286 130.902 91.3319 130.925 91.3663 130.973C91.4123 131.008 91.4352 131.055 91.4352 131.115V143.105C91.4352 143.164 91.4123 143.211 91.3663 143.247C91.3319 143.294 91.286 143.318 91.2286 143.318H89.2135C89.1561 143.318 89.1044 143.294 89.0585 143.247C89.024 143.211 89.0068 143.164 89.0068 143.105V135.283C89.0068 135.235 88.9953 135.212 88.9724 135.212C88.9494 135.212 88.9264 135.23 88.9035 135.265L87.0779 138.209C87.0204 138.304 86.9401 138.351 86.8367 138.351H85.8206C85.7173 138.351 85.6369 138.304 85.5795 138.209L83.7539 135.265C83.7309 135.23 83.7079 135.212 83.685 135.212C83.662 135.224 83.6505 135.253 83.6505 135.301V143.105C83.6505 143.164 83.6333 143.211 83.5988 143.247C83.5529 143.294 83.5012 143.318 83.4438 143.318H81.4288C81.3714 143.318 81.3254 143.294 81.291 143.247C81.2451 143.211 81.2221 143.164 81.2221 143.105V131.115C81.2221 131.055 81.2451 131.008 81.291 130.973C81.3254 130.925 81.3714 130.902 81.4288 130.902H83.4438C83.5472 130.902 83.6276 130.949 83.685 131.044L86.2684 135.176C86.3028 135.247 86.3373 135.247 86.3717 135.176L88.9724 131.044V131.044ZM101.907 132.835C101.907 132.894 101.889 132.941 101.855 132.977C101.809 133.024 101.757 133.048 101.7 133.048H96.0509C95.9935 133.048 95.9648 133.077 95.9648 133.137V135.886C95.9648 135.945 95.9935 135.975 96.0509 135.975H99.7539C99.8113 135.975 99.8572 135.992 99.8916 136.028C99.9376 136.075 99.9605 136.128 99.9605 136.187V137.908C99.9605 137.967 99.9376 138.02 99.8916 138.068C99.8572 138.103 99.8113 138.121 99.7539 138.121H96.0509C95.9935 138.121 95.9648 138.15 95.9648 138.209V141.083C95.9648 141.142 95.9935 141.172 96.0509 141.172H101.7C101.757 141.172 101.809 141.189 101.855 141.225C101.889 141.272 101.907 141.325 101.907 141.384V143.105C101.907 143.164 101.889 143.211 101.855 143.247C101.809 143.294 101.757 143.318 101.7 143.318H93.7431C93.6857 143.318 93.634 143.294 93.5881 143.247C93.5536 143.211 93.5364 143.164 93.5364 143.105V131.115C93.5364 131.055 93.5536 131.008 93.5881 130.973C93.634 130.925 93.6857 130.902 93.7431 130.902H101.7C101.757 130.902 101.809 130.925 101.855 130.973C101.889 131.008 101.907 131.055 101.907 131.115V132.835ZM110.208 143.318C110.093 143.318 110.013 143.265 109.967 143.158L107.814 138.245C107.791 138.198 107.757 138.174 107.711 138.174H106.109C106.052 138.174 106.023 138.204 106.023 138.263V143.105C106.023 143.164 106 143.211 105.954 143.247C105.92 143.294 105.874 143.318 105.816 143.318H103.801C103.744 143.318 103.692 143.294 103.646 143.247C103.612 143.211 103.595 143.164 103.595 143.105V131.115C103.595 131.055 103.612 131.008 103.646 130.973C103.692 130.925 103.744 130.902 103.801 130.902H108.727C109.462 130.902 110.105 131.055 110.656 131.363C111.219 131.67 111.649 132.108 111.948 132.675C112.258 133.243 112.413 133.899 112.413 134.644C112.413 135.448 112.217 136.134 111.827 136.702C111.437 137.281 110.891 137.689 110.191 137.926C110.133 137.949 110.116 137.991 110.139 138.05L112.482 143.069C112.504 143.117 112.516 143.152 112.516 143.176C112.516 143.27 112.453 143.318 112.327 143.318H110.208V143.318ZM106.109 133.048C106.052 133.048 106.023 133.077 106.023 133.137V136.17C106.023 136.229 106.052 136.258 106.109 136.258H108.365C108.848 136.258 109.238 136.111 109.536 135.815C109.846 135.519 110.001 135.135 110.001 134.662C110.001 134.189 109.846 133.799 109.536 133.491C109.238 133.196 108.848 133.048 108.365 133.048H106.109V133.048ZM64.5504 157.738C64.5274 157.762 64.5217 157.785 64.5332 157.809C64.5447 157.833 64.5676 157.845 64.6021 157.845H69.2695C69.3269 157.845 69.3785 157.862 69.4245 157.898C69.4589 157.945 69.4761 157.998 69.4761 158.057V159.778C69.4761 159.837 69.4589 159.884 69.4245 159.92C69.3785 159.967 69.3269 159.991 69.2695 159.991H61.5192C61.4618 159.991 61.4101 159.967 61.3642 159.92C61.3297 159.884 61.3125 159.837 61.3125 159.778V158.146C61.3125 158.04 61.347 157.951 61.4159 157.88C61.9785 157.312 62.5526 156.698 63.1381 156.035C63.7237 155.361 64.0911 154.942 64.2404 154.776C64.5619 154.386 64.8891 154.013 65.2221 153.659C66.267 152.464 66.7894 151.577 66.7894 150.998C66.7894 150.584 66.6459 150.241 66.3588 149.969C66.0718 149.709 65.6986 149.579 65.2393 149.579C64.78 149.579 64.4069 149.709 64.1198 149.969C63.8328 150.241 63.6893 150.596 63.6893 151.033V151.477C63.6893 151.536 63.6663 151.589 63.6204 151.637C63.5859 151.672 63.54 151.69 63.4826 151.69H61.4503C61.3929 151.69 61.347 151.672 61.3125 151.637C61.2666 151.589 61.2436 151.536 61.2436 151.477V150.643C61.2781 150.005 61.4733 149.437 61.8292 148.94C62.1851 148.456 62.6559 148.083 63.2415 147.823C63.8385 147.563 64.5045 147.433 65.2393 147.433C66.0545 147.433 66.7664 147.587 67.375 147.894C67.972 148.213 68.437 148.639 68.77 149.171C69.0915 149.703 69.2522 150.294 69.2522 150.945C69.2522 151.441 69.1317 151.95 68.8906 152.47C68.6494 152.991 68.2878 153.552 67.8055 154.155C67.4496 154.616 67.0649 155.072 66.6516 155.521C66.2382 155.97 65.624 156.621 64.8088 157.472L64.5504 157.738V157.738ZM75.0736 160.186C73.8105 160.186 72.8116 159.819 72.0768 159.086C71.3419 158.365 70.9745 157.378 70.9745 156.124V151.441C70.9745 150.212 71.3419 149.236 72.0768 148.515C72.8116 147.793 73.8105 147.433 75.0736 147.433C76.3366 147.433 77.3412 147.793 78.0875 148.515C78.8224 149.236 79.1898 150.212 79.1898 151.441V156.124C79.1898 157.378 78.8224 158.365 78.0875 159.086C77.3412 159.819 76.3366 160.186 75.0736 160.186ZM75.0736 158.04C75.5902 158.04 76.0036 157.874 76.3136 157.543C76.6121 157.224 76.7614 156.792 76.7614 156.248V151.371C76.7614 150.827 76.6121 150.395 76.3136 150.076C76.0036 149.745 75.5902 149.579 75.0736 149.579C74.5684 149.579 74.1665 149.745 73.868 150.076C73.5579 150.395 73.4029 150.827 73.4029 151.371V156.248C73.4029 156.792 73.5579 157.224 73.868 157.543C74.1665 157.874 74.5684 158.04 75.0736 158.04ZM84.0122 157.738C83.9892 157.762 83.9835 157.785 83.995 157.809C84.0065 157.833 84.0294 157.845 84.0639 157.845H88.7312C88.7887 157.845 88.8403 157.862 88.8863 157.898C88.9207 157.945 88.9379 157.998 88.9379 158.057V159.778C88.9379 159.837 88.9207 159.884 88.8863 159.92C88.8403 159.967 88.7887 159.991 88.7312 159.991H80.981C80.9236 159.991 80.8776 159.967 80.8432 159.92C80.7973 159.884 80.7743 159.837 80.7743 159.778V158.146C80.7743 158.04 80.8088 157.951 80.8776 157.88C81.4403 157.312 82.0143 156.698 82.5999 156.035C83.1855 155.361 83.5529 154.942 83.7022 154.776C84.0237 154.386 84.3509 154.013 84.6839 153.659C85.7287 152.464 86.2512 151.577 86.2512 150.998C86.2512 150.584 86.1076 150.241 85.8206 149.969C85.5335 149.709 85.1604 149.579 84.7011 149.579C84.2418 149.579 83.8687 149.709 83.5816 149.969C83.2946 150.241 83.1511 150.596 83.1511 151.033V151.477C83.1511 151.536 83.1338 151.589 83.0994 151.637C83.0535 151.672 83.0018 151.69 82.9444 151.69H80.9121C80.8547 151.69 80.8088 151.672 80.7743 151.637C80.7284 151.589 80.7054 151.536 80.7054 151.477V150.643C80.7399 150.005 80.935 149.437 81.291 148.94C81.6469 148.456 82.1234 148.083 82.7205 147.823C83.3061 147.563 83.9663 147.433 84.7011 147.433C85.5163 147.433 86.2282 147.587 86.8367 147.894C87.4338 148.213 87.8988 148.639 88.2318 149.171C88.5533 149.703 88.714 150.294 88.714 150.945C88.714 151.441 88.5935 151.95 88.3523 152.47C88.1112 152.991 87.7495 153.552 87.2673 154.155C86.9114 154.616 86.5267 155.072 86.1134 155.521C85.7 155.97 85.0858 156.621 84.2705 157.472L84.0122 157.738V157.738ZM93.657 157.738C93.634 157.762 93.6283 157.785 93.6398 157.809C93.6512 157.833 93.6742 157.845 93.7086 157.845H98.376C98.4334 157.845 98.4851 157.862 98.531 157.898C98.5655 157.945 98.5827 157.998 98.5827 158.057V159.778C98.5827 159.837 98.5655 159.884 98.531 159.92C98.4851 159.967 98.4334 159.991 98.376 159.991H90.6258C90.5683 159.991 90.5224 159.967 90.488 159.92C90.442 159.884 90.4191 159.837 90.4191 159.778V158.146C90.4191 158.04 90.4535 157.951 90.5224 157.88C91.085 157.312 91.6591 156.698 92.2447 156.035C92.8303 155.361 93.1977 154.942 93.347 154.776C93.6685 154.386 93.9957 154.013 94.3287 153.659C95.3735 152.464 95.8959 151.577 95.8959 150.998C95.8959 150.584 95.7524 150.241 95.4654 149.969C95.1783 149.709 94.8052 149.579 94.3459 149.579C93.8866 149.579 93.5134 149.709 93.2264 149.969C92.9394 150.241 92.7958 150.596 92.7958 151.033V151.477C92.7958 151.536 92.7786 151.589 92.7442 151.637C92.6982 151.672 92.6466 151.69 92.5892 151.69H90.5569C90.4995 151.69 90.4535 151.672 90.4191 151.637C90.3732 151.589 90.3502 151.536 90.3502 151.477V150.643C90.3846 150.005 90.5798 149.437 90.9358 148.94C91.2917 148.456 91.7682 148.083 92.3653 147.823C92.9508 147.563 93.611 147.433 94.3459 147.433C95.1611 147.433 95.873 147.587 96.4815 147.894C97.0786 148.213 97.5436 148.639 97.8766 149.171C98.1981 149.703 98.3588 150.294 98.3588 150.945C98.3588 151.441 98.2382 151.95 97.9971 152.47C97.756 152.991 97.3943 153.552 96.9121 154.155C96.5561 154.616 96.1715 155.072 95.7582 155.521C95.3448 155.97 94.7305 156.621 93.9153 157.472L93.657 157.738V157.738Z" fill="#252530"></path></svg>