<svg xmlns="http://www.w3.org/2000/svg" width="1920" height="826" viewBox="0 0 1920 826" fill="none"><mask id="mask0_2762_779" style="mask-type:alpha" maskUnits="userSpaceOnUse" x="0" y="0" width="1920" height="826"><rect width="1920" height="826" fill="white"></rect></mask><g mask="url(#mask0_2762_779)"><path d="M940.409 905.866C937.895 906.259 935.37 906.56 932.832 906.773C919.891 907.85 904.599 903.619 886.085 893.842C869.529 885.099 850.64 872.026 828.337 853.877C786.733 820.02 739.75 773.769 690.004 724.8C632.261 667.961 572.552 609.184 515.147 563.731C450.046 512.184 398.325 486.523 357.023 485.27C232.948 481.516 81.081 589.871 -40.9464 676.937C-86.2357 709.249 -129.014 739.774 -163.671 759.528C-202.156 781.467 -227.434 788.325 -243.23 781.114L-242.681 779.905C-227.305 786.923 -202.409 780.082 -164.331 758.377C-129.733 738.656 -86.9815 708.153 -41.7197 675.858C66.359 598.743 197.835 504.938 312.931 486.922C327.958 484.57 342.681 483.512 357.061 483.947C379.078 484.615 404.444 492.301 432.458 506.796C457.537 519.771 484.854 538.056 515.969 562.694C573.432 608.193 633.167 666.992 690.935 723.858C740.656 772.803 787.619 819.031 829.173 852.848C851.407 870.944 870.225 883.968 886.704 892.669C904.987 902.325 920.04 906.506 932.722 905.449C972.597 902.128 1007.84 876.696 1040.47 827.697C1069.2 784.545 1091.86 729.95 1113.77 677.149L1114.12 676.319C1138.77 616.933 1168.69 547.722 1203.77 484.642C1240.15 419.221 1277.84 367.961 1318.99 327.93C1362.5 285.611 1410.91 253.227 1462.89 231.672C1513.31 210.766 1565.72 200.575 1618.66 201.38C1640.86 201.717 1663.04 204.282 1684.59 208.997C1705.32 213.536 1726.12 220.212 1746.42 228.843C1784.7 245.117 1821.82 268.263 1859.9 299.609C1936.3 362.484 2004.38 449.452 2060.9 526.234L2059.83 527.023C1945.43 371.621 1807.56 205.582 1618.65 202.71C1511.33 201.079 1405.24 245.886 1319.92 328.884C1226.83 419.437 1165.51 555.967 1115.35 676.833L1115 677.663C1093.06 730.522 1070.37 785.181 1041.57 828.439C1025.94 851.906 1010.17 869.565 993.345 882.42C976.766 895.089 958.99 902.957 940.409 905.866Z" fill="#BFBFBF"></path><path d="M937.178 892.449C932.304 893.212 927.355 893.664 922.32 893.807C908.042 894.21 891.542 889.966 871.879 880.829C854.28 872.653 834.422 860.662 811.171 844.175C767.799 813.418 719.462 771.863 668.29 727.87C612.403 679.823 554.611 630.137 498.274 590.261C454.126 559.011 397.287 522.534 349.227 517.778C243.08 507.268 118.756 574.021 11.1409 640.711C-7.20351 652.076 -25.1502 663.494 -42.508 674.533C-85.0168 701.57 -125.171 727.109 -158.542 743.751C-195.681 762.273 -220.866 768.017 -237.798 761.827L-237.371 760.651C-220.784 766.717 -195.912 760.988 -159.1 742.631C-125.788 726.019 -85.6614 700.498 -43.1801 673.479C-25.8195 662.436 -7.86575 651.02 10.4809 639.648C56.9029 610.883 118.202 574.582 180.705 548.994C211.287 536.476 240.262 527.362 266.827 521.903C296.347 515.84 324.111 514.029 349.347 516.529C370.128 518.587 393.37 526.303 420.401 540.119C442.978 551.657 467.949 567.267 498.993 589.237C555.383 629.149 613.194 678.852 669.105 726.919C720.254 770.895 768.567 812.431 811.894 843.154C860.494 877.616 895.572 893.315 922.286 892.559C998.296 890.405 1044.63 816 1079.94 743.504C1090.59 721.511 1100.43 698.945 1109.61 677.718C1145.23 595.131 1178.06 521.544 1218.96 457.328C1233.94 433.921 1250.07 412.213 1266.89 392.804C1283.67 373.452 1301.74 355.7 1320.6 340.032C1347.78 317.447 1377.23 298.099 1408.11 282.518C1440.84 265.908 1475.46 253.776 1511.01 246.463C1545.74 239.319 1581.57 236.726 1617.49 238.756C1640.99 240.032 1664.67 243.627 1687.86 249.442C1709.86 254.959 1732.2 262.673 1754.25 272.364C1799.19 292.044 1843.14 319.474 1888.59 356.221C1927.05 387.309 1967.13 425.649 2011.13 473.433C2030.43 494.391 2049.19 515.397 2066.89 535.87L2065.95 536.69C2048.26 516.23 2029.5 495.233 2010.21 474.283C1915.8 371.759 1836.71 309.839 1753.75 273.511C1708.15 253.469 1663.56 242.51 1617.42 240.008C1544.11 235.86 1473.88 250.541 1408.68 283.637C1377.88 299.174 1348.51 318.473 1321.4 340.996C1283.33 372.617 1250.17 410.89 1220.01 458.004C1179.16 522.142 1146.36 595.68 1110.75 678.214C1101.57 699.456 1091.72 722.033 1081.06 744.051C1057.86 791.692 1036.51 824.956 1013.88 848.73C990.095 873.713 964.876 888.114 937.178 892.449Z" fill="#BFBFBF"></path><path d="M934.584 879.36C927.18 880.519 919.604 881.009 911.817 880.837C895.764 880.479 877.589 876.104 856.242 867.452C837.125 859.705 815.776 848.637 790.979 833.618C744.721 805.599 693.81 768.275 639.913 728.76C590.576 692.587 539.562 655.185 488.939 622.68C434.074 587.45 385.105 557.684 341.435 550.271C233.99 532.032 110.772 587.786 15.4312 638.396C-5.5229 649.521 -26.0069 660.882 -45.8137 671.871C-125.079 715.841 -193.537 753.817 -232.371 742.528L-232.045 741.398C-193.679 752.548 -125.421 714.685 -46.3851 670.838C-26.5717 659.848 -6.08496 648.483 14.8817 637.353C78.5262 603.569 130.513 580.88 178.493 565.948C207.821 556.82 235.776 550.693 261.581 547.733C290.064 544.464 316.999 544.927 341.632 549.108C361.677 552.511 384.659 561.058 411.894 575.235C435.302 587.423 459.879 602.617 489.576 621.689C540.229 654.214 591.259 691.63 640.611 727.81C694.488 767.309 745.373 804.62 791.59 832.612C843.475 864.039 881.687 878.992 911.847 879.659C974.541 881.052 1024.61 839.243 1074.18 744.1C1085.66 722.053 1096.16 698.992 1105.1 679.106C1107.58 673.579 1110.05 668.052 1112.52 662.527C1143.7 592.76 1175.94 520.618 1216.68 460.161C1246.34 416.148 1280.86 380.812 1322.21 352.128C1349.29 333.345 1377.96 317.87 1409.86 304.813C1442.04 291.637 1476.17 282.559 1511.28 277.829C1545.25 273.251 1580.59 272.68 1616.32 276.129C1661.56 280.496 1706.07 292.1 1752.4 311.6C1798.15 330.714 1842.93 355.845 1889.3 388.428C1928.95 416.282 1970.08 449.904 2015.05 491.217C2033.45 508.127 2053.2 526.407 2072.9 545.502L2072.08 546.346C2052.39 527.26 2032.65 508.989 2014.25 492.084C1917.88 403.548 1836.98 348.219 1751.95 312.686C1705.73 293.229 1661.33 281.656 1616.21 277.299C1543.18 270.247 1473.9 279.872 1410.31 305.903C1378.49 318.927 1349.89 334.364 1322.89 353.099C1281.66 381.697 1247.24 416.936 1217.66 460.822C1176.98 521.196 1144.75 593.29 1113.59 663.01C1111.12 668.536 1108.66 674.062 1106.18 679.593C1097.23 699.494 1086.72 722.57 1075.22 744.649C1051.54 790.099 1029.25 821.538 1005.06 843.6C983.142 863.581 959.915 875.395 934.584 879.36Z" fill="#BFBFBF"></path><path d="M933.066 866.613C922.86 868.21 912.296 868.62 901.319 867.864C882.289 866.551 861.081 861.703 836.486 853.042C814.443 845.279 790.043 834.564 761.886 820.286C709.356 793.645 652.119 758.831 591.524 721.974C555.076 699.804 517.389 676.88 479.602 655.095C472.283 650.876 464.965 646.603 457.886 642.474C413.282 616.445 371.152 591.864 333.647 582.756C251.07 562.711 148.384 580.15 19.7182 636.067C-4.48718 646.585 -28.1312 657.708 -50.9972 668.46C-123.904 702.753 -186.864 732.366 -226.96 723.227L-226.718 722.157C-186.991 731.216 -124.186 701.678 -51.4671 667.475C-28.5951 656.719 -4.94445 645.595 19.2763 635.068C77.6499 609.699 129.001 592.666 176.265 582.989C204.327 577.245 231.266 574.104 256.338 573.651C283.771 573.155 309.866 575.864 333.901 581.698C371.563 590.841 413.76 615.462 458.433 641.531C465.51 645.66 472.826 649.93 480.142 654.15C517.941 675.943 555.635 698.87 592.086 721.042C652.663 757.889 709.882 792.693 762.375 819.316C821.338 849.218 865.511 864.3 901.384 866.775C967.291 871.322 1018.8 833.677 1068.39 744.715C1080.26 723.437 1090.87 701.282 1100.57 680.513C1105.53 669.844 1110.53 658.979 1115.36 648.472C1144.8 584.399 1175.24 518.146 1214.39 463.014C1230.26 440.654 1247.37 421.516 1266.69 404.506C1283.96 389.291 1302.65 376.121 1323.8 364.248C1350.3 349.375 1379.01 337.234 1411.58 327.128C1473.42 307.935 1541.9 303.357 1615.12 313.516C1658.91 319.591 1703.21 331.808 1750.53 350.853C1837.33 385.434 1922.61 435.693 2018.93 509.019C2022.39 511.653 2025.85 514.284 2029.32 516.921C2045.61 529.293 2062.44 542.085 2078.87 555.148L2078.18 556.008C2061.77 542.953 2044.94 530.163 2028.66 517.794C2025.19 515.157 2021.73 512.527 2018.27 509.892C1922.04 436.627 1836.83 386.416 1750.13 351.871C1702.89 332.856 1658.68 320.667 1614.98 314.604C1541.92 304.467 1473.6 309.034 1411.91 328.179C1379.42 338.262 1350.78 350.373 1324.35 365.209C1279.93 390.138 1245.27 421.42 1215.29 463.653C1176.2 518.702 1145.78 584.908 1116.36 648.934C1111.53 659.441 1106.54 670.306 1101.57 680.979C1091.86 701.766 1081.24 723.943 1069.36 745.25C1045.47 788.091 1021.53 818.55 996.164 838.37C976.512 853.718 955.668 863.075 933.066 866.613Z" fill="#BFBFBF"></path><path d="M932.925 854.276C919.598 856.362 905.607 856.559 890.824 854.893C780.68 842.488 629.039 768.64 470.265 687.515C453.403 678.901 436.966 669.803 421.07 661.007C387.263 642.296 355.331 624.626 325.867 615.255C242.806 588.839 141.246 595.063 24.003 633.751C-4.14859 643.041 -31.6515 653.601 -58.2489 663.812C-90.7468 676.29 -121.443 688.076 -149.061 695.862C-180.014 704.589 -203.047 707.149 -221.548 703.917L-221.373 702.912C-181.209 709.929 -124.395 688.115 -58.6132 662.857C-32.0032 652.641 -4.49101 642.076 23.6863 632.778C141.137 594.021 242.909 587.798 326.177 614.279C355.737 623.679 387.713 641.375 421.568 660.113C437.457 668.906 453.887 677.998 470.734 686.604C629.423 767.685 780.97 841.491 890.943 853.876C960.358 861.696 1013.31 828.215 1062.64 745.314C1075.41 723.868 1086.71 701.226 1096.08 681.904C1102.8 667.957 1109.51 653.711 1115.99 639.934C1144.36 579.631 1173.7 517.275 1212.12 465.851C1242.57 425.099 1278.57 396.66 1325.43 376.355C1351.45 365.078 1379.38 356.521 1413.32 349.427C1444.19 342.979 1477.3 339.947 1511.73 340.426C1543.89 340.871 1578.28 344.389 1613.95 350.883C1655.8 358.503 1698.61 370.957 1748.69 390.083C1796.86 408.479 1843.34 429.041 1890.8 452.943C1934.32 474.863 1977.51 499.023 2022.83 526.808C2029.91 531.142 2037.13 535.517 2044.12 539.745C2057.5 547.848 2071.35 556.228 2084.86 564.785L2084.31 565.647C2070.81 557.096 2056.97 548.718 2043.59 540.618C2036.6 536.387 2029.38 532.015 2022.3 527.678C1929.11 470.549 1839.48 425.856 1748.32 391.038C1698.31 371.936 1655.55 359.496 1613.76 351.886C1539.25 338.32 1473.75 337.843 1413.53 350.427C1379.65 357.504 1351.79 366.041 1325.82 377.291C1279.14 397.523 1243.27 425.857 1212.93 466.46C1174.57 517.805 1145.26 580.11 1116.91 640.368C1110.42 654.149 1103.72 668.395 1096.99 682.349C1087.61 701.689 1076.3 724.357 1063.51 745.837C1039.1 786.854 1014.16 815.386 987.27 833.054C970.324 844.194 952.331 851.239 932.925 854.276Z" fill="#BFBFBF"></path><path d="M934.342 842.474C917.623 845.091 899.705 844.894 880.335 841.92C812.199 831.459 749.793 818.368 689.552 801.899C611.854 780.656 537.07 753.845 460.924 719.93C436.153 708.897 412.566 695.998 389.758 683.521C364.552 669.736 340.745 656.713 318.089 647.745C211.492 605.552 101.656 615.578 28.2825 631.419C-4.59408 638.519 -36.7666 648.099 -67.884 657.363C-96.4825 665.88 -123.496 673.923 -148.477 679.252C-176.542 685.238 -198.047 686.941 -216.155 684.609L-216.033 683.672C-176.606 688.754 -123.926 673.066 -68.1501 656.457C-37.0169 647.187 -4.82516 637.6 28.0842 630.496C76.8244 619.972 125.152 615.52 171.722 617.262C224.436 619.236 273.801 629.196 318.435 646.864C341.144 655.854 364.977 668.89 390.208 682.688C413.001 695.153 436.57 708.045 461.306 719.064C638.086 797.8 785.199 826.355 880.474 840.984C954.655 852.373 1007.41 823.945 1056.87 745.922C1070.55 724.335 1082.59 701.116 1091.55 683.3C1099.65 667.119 1107.63 650.519 1115.34 634.468C1143.03 576.875 1171.66 517.319 1209.83 468.693C1226.8 447.072 1245.32 429.907 1266.46 416.213C1284.32 404.637 1304.13 395.566 1327.03 388.477C1359.45 378.436 1391.1 374.259 1415.05 371.743C1472.41 365.716 1537.08 371.119 1612.76 388.261C1662.53 399.535 1710.56 416.131 1746.83 429.327C1852.1 467.624 1943.66 505.335 2026.73 544.613C2036.07 549.027 2045.6 553.404 2054.82 557.634C2066.66 563.062 2078.89 568.68 2090.85 574.439L2090.44 575.289C2078.49 569.533 2066.26 563.918 2054.43 558.492C2045.21 554.262 2035.67 549.886 2026.33 545.466C1943.29 506.204 1851.76 468.505 1746.51 430.217C1710.26 417.028 1662.27 400.449 1612.55 389.184C1536.98 372.063 1472.4 366.668 1415.15 372.683C1391.24 375.195 1359.65 379.363 1327.3 389.381C1278.63 404.456 1241.53 429.845 1210.58 469.282C1172.47 517.824 1143.86 577.332 1116.2 634.882C1108.48 650.937 1100.5 667.541 1092.4 683.729C1083.43 701.567 1071.37 724.812 1057.66 746.432C1032.71 785.793 1006.78 812.373 978.368 827.684C964.611 835.104 950.002 840.023 934.342 842.474Z" fill="#BFBFBF"></path><path d="M937.159 831.492C932.42 832.234 927.568 832.751 922.575 833.049C906.477 834.013 889.23 832.672 869.85 828.949C830.302 821.355 789.799 817.339 746.919 813.087C702.924 808.726 657.427 804.214 608.53 795.435C553.016 785.466 501.678 771.372 451.583 752.343C419.802 740.273 390.169 723.644 361.508 707.563C343.654 697.544 326.791 688.083 310.322 680.238C223.448 638.856 124.806 620.69 32.5683 629.088C-5.90817 632.59 -43.7134 640.723 -80.2775 648.591C-128.172 658.894 -173.41 668.627 -210.755 665.303L-210.679 664.438C-173.463 667.752 -128.287 658.032 -80.4607 647.742C-43.8704 639.87 -6.03564 631.733 32.49 628.223C76.7699 624.193 122.819 626.292 169.359 634.469C218.661 643.131 266.213 658.266 310.696 679.453C327.194 687.311 344.068 696.78 361.936 706.803C390.568 722.869 420.175 739.481 451.892 751.528C563.881 794.065 661.17 803.709 747.008 812.219C789.908 816.472 830.428 820.488 870.015 828.093C949.334 843.327 1001.8 819.697 1051.1 746.535C1065.62 725.003 1077.93 702.178 1087.05 684.701C1096.26 666.927 1105.25 648.606 1113.94 630.887C1141.18 575.35 1169.34 517.924 1207.56 471.543C1225.15 450.191 1244.37 434.006 1266.33 422.058C1284.6 412.115 1304.98 405.096 1328.63 400.605C1359.32 394.776 1390.41 394.023 1416.78 394.06C1446.27 394.1 1477.47 397.018 1512.15 402.984C1541.72 408.069 1574.24 415.479 1611.57 425.639C1655.39 437.562 1699.5 452.827 1742.15 467.588L1744.99 468.569C1800.98 487.945 1854.63 505.161 1906.5 521.807C1949.62 535.643 1990.34 548.713 2030.64 562.421C2041.7 566.185 2052.97 569.803 2063.87 573.301C2074.69 576.776 2085.89 580.371 2096.84 584.095L2096.57 584.918C2085.62 581.196 2074.43 577.604 2063.61 574.128C2052.71 570.627 2041.43 567.007 2030.37 563.241C1990.07 549.531 1949.35 536.464 1906.24 522.631C1854.36 505.983 1800.71 488.767 1744.71 469.386L1741.87 468.405C1699.23 453.648 1655.14 438.389 1611.35 426.474C1531.46 404.732 1471.45 395.002 1416.78 394.927C1390.45 394.891 1359.41 395.638 1328.8 401.457C1277.65 411.173 1240.47 432.96 1208.23 472.093C1170.08 518.397 1141.93 575.779 1114.72 631.268C1106.03 648.992 1097.04 667.316 1087.82 685.101C1078.7 702.6 1066.36 725.451 1051.83 747.02C1038.82 766.323 1025.81 781.794 1012.06 794.317C998.468 806.686 984.544 815.826 969.483 822.254C959.156 826.664 948.486 829.719 937.159 831.492Z" fill="#BFBFBF"></path><path d="M940.556 821.509C931.739 822.889 922.512 823.469 912.71 823.269C896.874 822.945 879.423 820.56 859.368 815.979C805.098 803.577 751.541 805.873 694.842 808.301C657.118 809.917 618.109 811.586 576.406 809.079C529.173 806.237 485.287 798.28 442.238 784.757C403.857 772.697 368.711 751.762 334.724 731.516C323.585 724.88 313.062 718.615 302.558 712.733C210.021 660.934 115.658 630.398 36.8528 626.75C-8.14938 624.665 -52.7535 630.958 -95.8894 637.041C-135.09 642.569 -172.112 647.789 -205.367 645.993L-205.326 645.204C-172.149 646.995 -135.159 641.78 -96.0023 636.256C-52.8303 630.167 -8.18968 623.872 36.8866 625.959C76.6965 627.801 120.444 636.455 166.915 651.678C211.998 666.446 257.761 686.755 302.94 712.042C313.454 717.925 323.979 724.197 335.125 730.835C369.074 751.057 404.18 771.968 442.472 784.001C538.589 814.201 618.006 810.799 694.805 807.51C751.561 805.079 805.169 802.782 859.543 815.208C930.28 831.372 988.947 825.984 1045.33 747.153C1057.29 730.427 1068.76 711.6 1082.53 686.108C1092.7 667.162 1102.51 647.532 1112.01 628.55C1138.95 574.649 1166.82 518.913 1205.27 474.399C1223.51 453.278 1243.43 438.069 1266.18 427.9C1284.94 419.51 1305.89 414.554 1330.22 412.753C1360.76 410.49 1390.57 413.312 1418.49 416.397C1476.53 422.808 1537.17 439.675 1610.38 463.026C1634.91 470.852 1659.87 479.45 1684 487.766C1703.3 494.415 1723.26 501.291 1743.13 507.824C1834.07 537.71 1919.13 555.75 2001.38 573.196C2012.29 575.509 2023.58 577.903 2034.54 580.257C2047.09 582.949 2059.84 585.39 2072.16 587.75C2082.23 589.677 2092.63 591.672 2102.83 593.782L2102.67 594.557C2092.48 592.445 2082.07 590.454 2072.01 588.526C2059.69 586.164 2046.94 583.725 2034.38 581.029C2023.41 578.675 2012.13 576.283 2001.22 573.968C1918.94 556.518 1833.86 538.475 1742.89 508.575C1723.01 502.04 1703.05 495.165 1683.74 488.512C1659.61 480.199 1634.66 471.6 1610.13 463.776C1536.98 440.441 1476.38 423.585 1418.41 417.181C1390.52 414.1 1360.75 411.278 1330.28 413.537C1277.52 417.446 1239.14 436.377 1205.86 474.914C1167.48 519.351 1139.64 575.043 1112.71 628.901C1103.21 647.889 1093.4 667.523 1083.22 686.48C1069.44 712.005 1057.95 730.858 1045.97 747.611C1032.48 766.468 1018.92 781.243 1004.5 792.787C990.598 803.921 976.229 811.77 960.584 816.78C954.116 818.855 947.461 820.428 940.556 821.509Z" fill="#BFBFBF"></path><path d="M944.244 812.662C912.049 817.702 878.175 810.712 848.887 803.004C786.607 786.615 728.313 798.335 666.597 810.738C631.924 817.709 596.069 824.914 557.589 827.58C514.044 830.598 473.253 827.188 432.887 817.16C387.916 805.988 347.386 779.526 308.187 753.938C303.781 751.062 299.226 748.087 294.795 745.225C188.842 676.746 105.872 637.223 41.1407 624.398C-11.2303 614.021 -64.0316 618.357 -115.092 622.551C-144.839 624.996 -172.939 627.304 -199.987 626.677L-199.971 625.962C-172.964 626.585 -144.881 624.28 -115.153 621.838C-64.0432 617.639 -11.1955 613.3 41.2757 623.695C76.6284 630.698 118.058 645.89 164.413 668.845C203.342 688.123 246.116 712.912 295.181 744.62C299.611 747.483 304.167 750.457 308.573 753.334C347.719 778.889 388.198 805.319 433.053 816.462C523.124 838.84 595.986 824.194 666.449 810.032C728.25 797.612 786.623 785.88 849.064 802.307C927.818 823.028 984.235 820.748 1039.55 747.761C1051.98 731.366 1064.2 712.216 1078.01 687.501C1089.02 667.676 1099.54 647.025 1109.71 627.057C1136.48 574.497 1164.16 520.145 1202.97 477.241C1221.89 456.328 1242.51 442.088 1266.03 433.704C1285.35 426.817 1306.87 423.93 1331.8 424.881C1361.06 425.999 1389.14 431.807 1420.2 438.714C1474.74 450.846 1530.8 471.511 1590.16 493.393C1596.46 495.717 1602.8 498.053 1609.17 500.389C1616.72 503.161 1624.42 506.007 1631.85 508.758C1667.32 521.875 1704 535.435 1741.28 547.054C1846.24 579.763 1943.96 589.068 2038.46 598.067C2052.39 599.395 2066.5 600.377 2080.14 601.327C2089.55 601.982 2099.28 602.661 2108.83 603.444L2108.78 604.156C2099.23 603.371 2089.5 602.696 2080.09 602.041C2066.44 601.091 2052.34 600.107 2038.39 598.78C1991.99 594.36 1944 589.791 1894.25 582.201C1838.1 573.632 1787.99 562.36 1741.07 547.736C1703.77 536.113 1667.08 522.547 1631.61 509.429C1624.17 506.677 1616.47 503.831 1608.92 501.06C1602.55 498.723 1596.22 496.387 1589.91 494.063C1530.58 472.192 1474.53 451.53 1420.04 439.411C1389.02 432.513 1360.97 426.712 1331.77 425.595C1277.54 423.526 1237.98 439.601 1203.5 477.72C1164.76 520.553 1137.1 574.862 1110.35 627.381C1100.17 647.357 1089.65 668.015 1078.63 687.85C1064.8 712.596 1052.57 731.771 1040.12 748.193C1026.14 766.64 1012.02 780.715 996.961 791.231C982.737 801.158 967.937 807.71 951.707 811.259C949.237 811.807 946.744 812.271 944.244 812.662Z" fill="#BFBFBF"></path><path d="M947.037 805.129C945.651 805.346 944.258 805.541 942.854 805.71C912.484 809.412 880.375 802.455 838.416 790.032C770.263 769.853 709.971 792.081 646.139 815.615C613.421 827.677 579.593 840.149 543.042 847.611C501.693 856.053 462.603 856.69 423.537 849.561C401.218 845.489 377.966 836.419 352.457 821.835C329.803 808.883 307.721 792.939 287.048 777.714C276.865 770.216 266.482 762.51 256.441 755.057C183.631 701.007 108.34 645.116 45.4455 622.037C-14.7596 599.946 -77.4405 602.796 -138.054 605.555C-156.708 606.404 -175.995 607.282 -194.602 607.364L-194.604 606.726C-176.012 606.642 -156.731 605.765 -138.083 604.917C-77.4059 602.159 -14.6618 599.305 45.664 621.438C73.9247 631.808 107.098 649.663 147.08 676.033C182.727 699.542 220.393 727.504 256.82 754.544C266.862 761.997 277.242 769.703 287.424 777.202C333.73 811.297 375.943 840.228 423.651 848.935C510.787 864.835 579.482 839.507 645.914 815.015C709.847 791.441 770.238 769.178 838.595 789.419C915.378 812.152 974.328 822.518 1033.79 748.382C1046.84 732.107 1059.46 713.211 1073.5 688.906C1085.28 668.417 1096.41 646.951 1107.18 626.19C1133.85 574.759 1161.43 521.579 1200.69 480.093C1220.3 459.373 1241.63 446.099 1265.89 439.507C1285.83 434.094 1307.9 433.281 1333.38 437.027C1364.07 441.541 1394.69 451.867 1421.71 460.979L1421.9 461.045C1462.48 474.731 1503.47 492.603 1546.86 511.524C1566.7 520.174 1587.21 529.117 1607.98 537.766C1649.17 554.925 1693.6 572.682 1739.44 586.3C1843.73 616.834 1942.25 617.728 2042.39 615.902C2057.73 615.621 2073.21 614.926 2088.19 614.249C2096.93 613.855 2105.97 613.446 2114.86 613.13L2114.88 613.769C2106 614.087 2096.96 614.493 2088.22 614.887C2073.24 615.564 2057.75 616.26 2042.4 616.539C1998.44 617.34 1947.19 617.874 1895.26 614.052C1838.37 609.865 1787.34 600.986 1739.26 586.909C1693.39 573.283 1648.94 555.518 1607.73 538.352C1586.96 529.701 1566.45 520.754 1546.61 512.105C1503.23 493.189 1462.25 475.321 1421.7 461.646L1421.5 461.579C1394.51 452.476 1363.92 442.159 1333.29 437.654C1298.78 432.578 1247.55 431.502 1201.15 480.524C1161.96 521.943 1134.4 575.086 1107.74 626.475C1096.97 647.239 1085.83 668.713 1074.05 689.213C1059.99 713.544 1047.35 732.47 1034.28 748.768C1007.65 781.999 979.819 799.998 947.037 805.129Z" fill="#BFBFBF"></path><path d="M481.398 880.597C458.826 884.131 436.569 884.569 414.185 881.969C391.729 879.36 368.78 871.157 344.023 856.895C319.47 842.749 296.537 824.52 279.305 810.216C251.45 787.101 223.543 761.789 196.556 737.312C143.772 689.437 93.9157 644.221 49.7676 619.683C-18.0469 581.993 -89.3277 584.539 -164.796 587.233C-172.797 587.517 -181.071 587.814 -189.22 588.051L-189.238 587.489C-181.089 587.252 -172.818 586.956 -164.817 586.672C-128.587 585.377 -91.1217 584.04 -55.1519 587.778C-35.7986 589.787 -18.3514 593.069 -1.80833 597.804C16.739 603.116 33.6997 610.111 50.0363 619.19C94.2431 643.759 144.123 688.999 196.931 736.897C223.914 761.372 251.817 786.678 279.661 809.787C320.402 843.598 364.901 875.677 414.248 881.411C499.818 891.358 565.448 855.629 628.918 821.073C661.846 803.146 692.948 786.214 725.436 776.507C742.864 771.298 759.15 768.638 775.223 768.374C793.161 768.077 810.464 770.743 828.119 776.528C905.328 801.819 966.31 821.796 1028.02 749.002C1041.69 732.869 1054.71 714.219 1068.98 690.311C1081.47 669.315 1093.15 647.191 1104.45 625.79C1131.08 575.332 1158.62 523.16 1198.41 482.947C1208.83 472.415 1219.99 463.875 1231.58 457.57C1242.34 451.718 1253.84 447.588 1265.77 445.301C1286.36 441.352 1308.99 442.616 1334.95 449.178C1365.32 456.853 1395.28 470.489 1421.72 482.523L1423.6 483.378C1453.7 497.079 1483.68 512.701 1515.43 529.244C1544.89 544.592 1575.35 560.462 1606.77 575.15C1657.52 598.87 1697.86 614.413 1737.59 625.552C1845.58 655.444 1949.32 645.992 2046.32 633.746C2063.22 631.612 2080.23 629.007 2096.68 626.482C2104.61 625.268 2112.82 624.007 2120.88 622.822L2120.96 623.377C2112.9 624.562 2104.7 625.819 2096.76 627.034C2080.31 629.556 2063.3 632.165 2046.39 634.3C1999.2 640.259 1948.34 645.794 1896.21 645.952C1838.3 646.13 1786.37 639.631 1737.44 626.09C1697.68 614.943 1657.31 599.387 1606.53 575.655C1575.1 560.959 1544.63 545.086 1515.17 529.739C1483.43 513.202 1453.45 497.582 1423.36 483.892L1421.48 483.038C1395.07 471.017 1365.13 457.391 1334.81 449.728C1278.73 435.554 1235.52 446.238 1198.8 483.345C1159.08 523.495 1131.56 575.635 1104.94 626.055C1093.64 647.461 1081.96 669.592 1069.46 690.6C1055.17 714.533 1042.14 733.205 1028.44 749.366C966.493 822.446 905.351 802.417 827.944 777.063C754.889 753.13 693.829 786.372 629.186 821.566C597.923 838.587 565.593 856.188 530.388 868.277C513.799 873.973 497.517 878.074 481.398 880.597Z" fill="#BFBFBF"></path><path d="M448.153 912.081C433.735 914.337 419.338 915.092 404.826 914.372C382.329 913.255 359.67 905.915 335.555 891.935C315.665 880.403 295.329 864.763 271.561 842.719C235.336 809.123 200.199 769.585 166.22 731.349C126.074 686.175 88.1582 643.509 54.0946 617.326C-14.6061 564.514 -91.0482 563.969 -183.844 568.74L-183.869 568.257C-140.673 566.033 -98.624 564.523 -59.0666 570.351C-37.8016 573.483 -18.7394 578.459 -0.788717 585.558C19.1022 593.426 37.152 603.689 54.3901 616.94C88.4884 643.152 126.421 685.835 166.582 731.023C200.553 769.251 235.682 808.78 271.891 842.362C306.321 874.296 352.553 911.287 404.848 913.885C489.553 918.094 552.72 872.123 613.81 827.664C646.824 803.636 678.008 780.94 711.076 767.408C728.814 760.147 745.537 756.165 762.198 755.234C780.789 754.196 798.924 756.944 817.638 763.638C823.034 765.57 828.407 767.529 833.606 769.421C905.519 795.626 962.319 816.324 1022.24 749.628C1036.47 733.667 1050.28 714.725 1064.47 691.722C1077.6 670.359 1089.78 647.716 1101.56 625.823C1128.24 576.229 1155.82 524.945 1196.12 485.811C1206.92 475.394 1218.47 467.179 1230.44 461.396C1241.56 456.022 1253.42 452.569 1265.68 451.131C1286.97 448.632 1310.14 451.97 1336.5 461.339C1367.14 472.223 1396.92 489.38 1423.19 504.521L1425.27 505.721C1447.55 518.553 1469.52 532.16 1492.77 546.564C1528.94 568.972 1566.34 592.142 1605.57 612.532C1653.36 637.374 1694.73 653.983 1735.75 664.806C1811.34 684.556 1886.42 681.24 1956.38 670.289C1988.94 665.192 2020.38 658.442 2050.27 651.593C2069.06 647.286 2087.97 642.451 2106.25 637.778C2113.02 636.046 2120.03 634.257 2126.92 632.52L2127.03 632.992C2120.14 634.726 2113.14 636.518 2106.37 638.251C2088.08 642.924 2069.17 647.757 2050.38 652.067C2002.72 662.993 1951.16 673.674 1897.12 677.828C1838.13 682.362 1785.31 678.257 1735.62 665.276C1694.56 654.446 1653.17 637.824 1605.34 612.964C1566.1 592.566 1528.69 569.391 1492.51 546.977C1469.26 532.573 1447.3 518.968 1425.03 506.142L1422.95 504.942C1396.69 489.812 1366.93 472.666 1336.34 461.798C1279.2 441.499 1234.75 449.243 1196.45 486.168C1156.21 525.249 1128.65 576.498 1101.99 626.058C1090.21 647.959 1078.03 670.608 1064.88 691.983C1050.68 715.009 1036.85 733.973 1022.6 749.958C995.014 780.666 966.237 794.888 932.037 794.709C901.13 794.548 868.252 782.569 833.443 769.883C828.248 767.991 822.875 766.032 817.478 764.1C740.047 736.403 678.869 780.926 614.098 828.066C584.008 849.965 552.894 872.61 518.721 889.233C494.831 900.848 471.473 908.43 448.153 912.081Z" fill="#BFBFBF"></path><path d="M421.459 944.537C412.885 945.879 404.25 946.619 395.463 946.768C372.972 947.156 350.595 940.672 327.054 926.946C306.926 915.209 286.244 898.292 263.828 875.22C223.017 833.216 185.013 780.403 148.263 729.333C116.251 684.849 86.0173 642.829 58.4441 614.971C-5.05537 550.811 -79.2851 542.327 -178.468 549.428L-178.498 549.02C-139.256 546.208 -93.4211 544.603 -51.0042 553.983C-30.1555 558.595 -11.4692 565.438 6.11979 574.903C25.1754 585.157 42.3859 598.167 58.7278 614.681C86.3248 642.562 116.567 684.594 148.588 729.09C185.33 780.151 223.321 832.95 264.112 874.933C312.153 924.377 353.887 947.074 395.449 946.357C479.661 944.906 540.735 888.802 599.801 834.546C632.702 804.324 663.776 775.78 697.243 758.36C715.192 749.016 732.263 743.695 749.429 742.087C768.58 740.296 787.46 743.122 807.15 750.735C816.768 754.453 826.212 758.33 835.348 762.079C901.026 789.038 957.748 812.32 1016.46 750.24C1031.25 734.537 1045.48 715.85 1059.95 693.118C1073.71 671.454 1086.35 648.347 1098.57 626.001C1125.28 577.169 1152.89 526.673 1193.82 488.657C1204.98 478.336 1216.9 470.43 1229.25 465.155C1240.73 460.256 1252.94 457.477 1265.56 456.891C1287.56 455.873 1311.27 461.294 1338.04 473.47C1369.87 487.946 1400.2 509.243 1426.95 528.03C1443.81 539.8 1461.07 552.368 1477.78 564.527C1518.18 593.939 1559.96 624.356 1604.36 649.89C1650.15 676.08 1692.52 693.793 1733.91 704.034C1846.98 731.863 1958.54 700.757 2054.23 669.417C2075.77 662.36 2097.46 654.714 2118.43 647.317C2123.27 645.607 2128.12 643.901 2132.97 642.198L2133.1 642.583C2128.25 644.287 2123.41 645.993 2118.56 647.703C2097.59 655.1 2075.9 662.747 2054.35 669.804C2009.64 684.45 1956.85 700.46 1902.75 708.932C1901.16 709.181 1899.57 709.423 1897.97 709.659C1837.91 718.546 1784.21 716.838 1733.81 704.429C1692.39 694.177 1649.98 676.453 1604.16 650.245C1559.74 624.7 1517.95 594.278 1477.53 564.857C1460.84 552.701 1443.57 540.133 1426.71 528.365C1399.98 509.586 1369.67 488.303 1337.88 473.842C1279.59 447.33 1233.9 452.132 1194.1 488.956C1153.22 526.927 1125.62 577.391 1098.94 626.196C1086.71 648.546 1074.07 671.661 1060.3 693.336C1045.81 716.094 1031.57 734.796 1016.77 750.522C989.782 779.051 961.821 791.619 928.771 790.063C899.051 788.665 868.033 775.937 835.199 762.456C826.067 758.709 816.626 754.832 807.011 751.114C725.528 719.61 664.595 775.584 600.083 834.844C570.996 861.565 540.916 889.191 507.594 910.302C489.585 921.709 472.335 930.174 454.853 936.177C443.692 940.019 432.629 942.789 421.459 944.537Z" fill="#BFBFBF"></path><path d="M398.342 977.695C394.291 978.329 390.211 978.819 386.092 979.168C342.531 982.854 298.287 957.495 250.825 901.641C209.418 852.91 170.823 787.138 136.771 729.108C110.54 684.405 85.7605 642.177 62.7973 612.622C0.277099 532.151 -76.7219 521.442 -173.097 530.114L-173.125 529.782C-118.13 524.834 -77.9603 527.259 -42.8799 537.65C-1.06051 550.034 33.5926 574.492 63.0611 612.42C86.0372 641.992 110.821 684.226 137.057 728.942C171.101 786.96 209.69 852.716 251.077 901.427C298.461 957.192 342.615 982.515 386.064 978.837C469.962 971.738 529.187 905.598 586.465 841.631C619.134 805.147 649.99 770.684 683.747 749.346C701.848 737.905 719.211 731.231 736.834 728.943C756.487 726.391 776.063 729.303 796.673 737.844C809.632 743.214 822.243 749.042 834.441 754.678C897.844 783.98 952.598 809.284 1010.69 750.867C1046.14 715.229 1071.23 670.085 1095.5 626.428C1108.89 602.347 1122.73 577.448 1138.13 554.469C1155.41 528.696 1172.88 508.106 1191.54 491.518C1210.29 474.856 1230.99 465.31 1253.07 463.137C1272.54 461.226 1292.95 464.771 1315.47 473.978C1356.74 490.855 1396.6 523.85 1428.62 550.359C1440.83 560.464 1453.28 571 1465.31 581.186C1545.54 649.094 1628.5 719.317 1732.08 743.281C1778.81 754.096 1825.32 753.656 1870.59 746.57C1936.78 736.209 2000.33 711.644 2058.2 687.254C2084.97 675.975 2111.95 663.954 2138.04 652.328L2139.03 651.883L2139.17 652.188L2138.17 652.632C2112.08 664.26 2085.1 676.281 2058.33 687.56C2011.52 707.291 1955.95 729.128 1898.81 741.502C1837.67 754.738 1783.11 755.427 1732 743.602C1628.35 719.62 1545.36 649.371 1465.1 581.438C1453.07 571.251 1440.62 560.719 1428.41 550.613C1396.41 524.118 1356.57 491.144 1315.34 474.287C1267.46 454.704 1227.04 460.42 1191.77 491.765C1150.21 528.696 1122.55 578.464 1095.79 626.59C1071.51 670.266 1046.41 715.432 1010.94 751.101C990.213 771.938 969.913 782.158 949.51 785.355C912.554 791.143 875.231 773.89 834.31 754.978C822.116 749.344 809.508 743.516 796.557 738.148C757.626 722.014 721.842 725.663 683.935 749.623C650.218 770.937 619.375 805.381 586.723 841.846C558.525 873.339 529.363 905.906 496.773 931.464C479.164 945.276 462.219 955.777 444.974 963.565C429.482 970.568 414.124 975.224 398.342 977.695Z" fill="#BFBFBF"></path><g filter="url(#filter0_f_2762_779)"><ellipse cx="959.5" cy="549.5" rx="973.5" ry="576.5" fill="white"></ellipse></g></g><defs><filter id="filter0_f_2762_779" x="-514" y="-527" width="2947" height="2153" filterUnits="userSpaceOnUse" color-interpolation-filters="sRGB"><feGaussianBlur stdDeviation="250"></feGaussianBlur></filter></defs></svg>