<svg xmlns="http://www.w3.org/2000/svg" width="100" height="100" viewBox="0 0 100 100" fill="none"><g clip-path="url(#clip0_3084_130)"><path d="M50 100C77.6142 100 100 77.6142 100 50C100 22.3858 77.6142 0 50 0C22.3858 0 0 22.3858 0 50C0 77.6142 22.3858 100 50 100Z" fill="url(#paint0_linear_3084_130)"></path><path d="M75.2538 26.5896L54.6249 5.96069L51.1696 8.27065L50.7811 13.6478L55.8163 18.683L54.8317 19.1595L51.4854 19.9781L41.9179 10.4105L39.33 12.9984L44.5272 18.1957L41.388 20.8892L40.3895 24.0736L50.9226 34.6066L49.8294 35.0867L34.5913 19.8486L32.0028 22.4371L46.2319 36.6662L9.10596 52.9681L15.1337 58.9958L9.10596 57.6996L21.6206 70.2142L12.1901 79.6447L26.8946 94.3492C33.806 97.9572 41.6638 100 49.9999 100C77.6142 100 99.9999 77.6142 99.9999 50C99.9999 44.8175 99.2112 39.8193 97.7479 35.1187L82.8866 20.2574L75.2538 26.5896Z" fill="#000C44"></path><path d="M50.7814 60.4903L89.1963 67.8246L90.8941 45.7703L50.7814 38.1119L47.7217 49.144L50.7814 60.4903Z" fill="#EDBE00"></path><path d="M50.7812 38.5467L13.6509 31.4576L9.10596 52.9682L50.7812 60.9252V38.5467Z" fill="#FFD944"></path><path d="M50.7815 24.7328L47.022 36.6012L50.7815 47.1112L85.9712 42.2024L75.2022 32.5268L82.887 20.2574L50.7815 24.7328Z" fill="#F9163D"></path><path d="M50.7814 74.2211L90.8941 68.5836V46.2053L50.7814 51.8428L47.7217 63.5604L50.7814 74.2211Z" fill="#F9163D"></path><path d="M50.7812 24.7329L9.10596 30.5899V52.9683L50.7812 47.1112V24.7329Z" fill="#FF415B"></path><path d="M50.7812 74.2211V51.8428L9.10596 57.6998L19.8749 67.3754L12.1901 79.6447L50.7812 74.2211Z" fill="#FF415B"></path><path d="M38.3129 45.7766L35.5879 45.1549L38.9131 30.5783L41.3191 30.2373L48.4893 43.3473L46.0371 44.6885L40.7615 35.0428L38.3129 45.7766Z" fill="#F7F9FA"></path><path d="M38.2358 42.4044C37.5503 42.4044 36.9519 41.8995 36.8536 41.2011C36.7462 40.4368 37.2786 39.7302 38.0431 39.6227L44.6286 38.6972C45.3927 38.5901 46.0995 39.1224 46.2069 39.8866C46.3144 40.6509 45.7819 41.3575 45.0175 41.4649L38.4319 42.3905C38.3661 42.3997 38.3007 42.4044 38.2358 42.4044Z" fill="#F7F9FA"></path><path d="M27.4168 46.7098L25.3682 32.1328L28.1359 31.7438L29.7957 43.5528L32.5504 43.1656L32.9393 45.9334L27.4168 46.7098Z" fill="#F7F9FA"></path><path d="M60.938 27.134L63.7052 26.7455L65.7527 41.3285L62.9855 41.717L60.938 27.134Z" fill="#E5E5E8"></path><path d="M71.286 41.1385L62.8884 35.0433L62.6294 33.0252L68.7237 25.6088L70.8831 27.3834L65.7312 33.6531L72.9278 38.8763L71.286 41.1385Z" fill="#E5E5E8"></path><path d="M14.7901 42.007L13.6343 33.782L18.4513 33.1048C19.5472 32.9511 20.6378 33.2328 21.5218 33.899C22.4058 34.5652 22.9774 35.5355 23.1313 36.6316C23.2853 37.7277 23.0034 38.8181 22.3372 39.7021C21.671 40.5861 20.7007 41.1578 19.6046 41.3117C18.8612 41.4162 16.1794 41.8054 16.1794 41.8054L14.7901 42.007ZM16.7909 36.1607L17.1671 38.8382C17.9454 38.7257 18.8343 38.5976 19.2153 38.5441C19.5722 38.4939 19.888 38.308 20.1048 38.0201C20.3216 37.7324 20.4134 37.3773 20.3634 37.0207C20.3132 36.6638 20.1272 36.348 19.8394 36.1312C19.5517 35.9142 19.1964 35.8222 18.8399 35.8726L16.7909 36.1607Z" fill="#F7F9FA"></path><path d="M15.6854 48.3748L14.3994 39.2243L19.8158 38.4631C21.0352 38.2916 22.2484 38.6055 23.2318 39.3465C24.2152 40.0875 24.8512 41.1672 25.0225 42.3866C25.3762 44.9039 23.616 47.2397 21.0988 47.5934C20.2287 47.7157 17.0744 48.1733 17.0744 48.1733L15.6854 48.3748ZM17.5563 41.603L18.0625 45.2059C19.0275 45.0664 20.2242 44.8938 20.7102 44.8254C21.7012 44.6862 22.3941 43.7664 22.2549 42.7752C22.1873 42.2952 21.9371 41.8702 21.5498 41.5784C21.1625 41.2866 20.6848 41.1631 20.2049 41.2305L17.5563 41.603Z" fill="#F7F9FA"></path><path d="M66.7738 68.8855L64.0488 68.2639L67.4154 53.5055L69.8289 53.1641L77.0881 66.4369L74.6359 67.7781L69.2662 57.96L66.7738 68.8855Z" fill="#E5E5E8"></path><path d="M66.7109 65.4675C66.0254 65.4675 65.427 64.9626 65.3287 64.2643C65.2213 63.4999 65.7537 62.7932 66.518 62.6858L73.201 61.7466C73.966 61.6391 74.6721 62.1718 74.7795 62.936C74.8869 63.7003 74.3545 64.4069 73.5902 64.5143L66.9072 65.4536C66.8412 65.4628 66.7756 65.4675 66.7109 65.4675Z" fill="#E5E5E8"></path><path d="M45.75 56.3672L48.5172 55.9787L50.5892 70.7362L47.822 71.1248L45.75 56.3672Z" fill="#F7F9FA"></path><path d="M25.803 74.2336L23.7407 59.56L31.3341 58.4928L31.7231 61.2606L26.8976 61.9389L28.571 73.8447L25.803 74.2336Z" fill="#F7F9FA"></path><path d="M24.5459 65.3861L31.754 64.3741L32.1424 67.141L24.9344 68.1531L24.5459 65.3861Z" fill="#F7F9FA"></path><path d="M53.1678 70.3931L52.9684 69.0097C52.9684 69.0097 52.3604 64.7925 52.1328 63.1747C51.9463 61.8475 51.3088 57.3718 51.3088 57.3718L51.1113 55.9856L55.7943 55.3274C59.4338 54.8153 62.2852 57.3673 62.8906 61.6759C63.4666 65.7743 61.383 69.1454 57.9359 69.6915C56.9996 69.8397 54.6508 70.1792 54.5514 70.1934L53.1678 70.3931ZM54.2731 58.3636C54.4768 59.795 54.7811 61.9356 54.9004 62.7856C55.0434 63.8028 55.3371 65.8497 55.5352 67.2255C56.2436 67.1216 57.0494 67.0018 57.4986 66.9307C59.1094 66.6755 60.5455 65.072 60.1229 62.0645C59.8215 59.9202 58.6301 57.7514 56.1832 58.095L54.2731 58.3636Z" fill="#E5E5E8"></path><path d="M80.1632 60.3327C79.763 60.3327 79.3782 60.1606 79.1108 59.8545L73.5356 53.4735L75.6405 51.6344L79.8054 56.4014L82.4687 50.7063L85.0005 51.8903L81.4292 59.5272C81.2292 59.9549 80.8265 60.2528 80.3589 60.319C80.2935 60.328 80.228 60.3327 80.1632 60.3327Z" fill="#E5E5E8"></path><path d="M78.6333 57.7455L81.4031 57.3626L82.6336 66.2634L79.8638 66.6463L78.6333 57.7455Z" fill="#E5E5E8"></path><path d="M43.6653 72.304L35.9976 65.7204L38.2989 64.0126L45.4862 70.1833L43.6653 72.304Z" fill="#F7F9FA"></path><path d="M33.7476 58.0518L36.5147 57.6632L38.5867 72.4208L35.8196 72.8093L33.7476 58.0518Z" fill="#F7F9FA"></path><path d="M36.2482 66.8925C35.5662 66.8925 34.9695 66.3927 34.8674 65.6979C34.8674 65.6979 34.534 63.4306 34.4117 62.5604C34.3117 61.8487 33.9664 59.4489 33.9664 59.4489C33.9135 59.0813 34.0092 58.7077 34.2322 58.4106C34.4553 58.1136 34.7873 57.9177 35.1553 57.8659L38.3424 57.4181C40.9225 57.0548 43.3033 58.78 43.6523 61.2616C43.8232 62.4767 43.4813 63.688 42.6898 64.6729C41.9223 65.628 40.8277 66.2483 39.6074 66.4198C38.725 66.5438 36.4529 66.8772 36.4529 66.8772C36.384 66.8876 36.3156 66.8925 36.2482 66.8925ZM36.9322 60.4388C37.0277 61.105 37.1316 61.8308 37.1795 62.1714C37.2359 62.5729 37.3377 63.2739 37.4305 63.9099C38.0807 63.8151 38.8029 63.7104 39.2184 63.6522C39.7242 63.5811 40.1953 63.3151 40.5109 62.9224C40.8141 62.5452 40.9467 62.0936 40.8844 61.6507C40.7523 60.7112 39.7656 60.0411 38.7313 60.1858L36.9322 60.4388Z" fill="#F7F9FA"></path><path d="M54.0108 30.9297C54.9177 30.8024 55.8298 30.9461 56.6485 31.3463L57.904 31.96L59.1313 29.4488L57.8757 28.8352C56.554 28.1893 55.0831 27.9565 53.6218 28.1619C52.5974 28.3059 51.6358 28.657 50.781 29.1842L50.195 31.1029L50.781 33.0235C51.4737 31.9242 52.6265 31.1242 54.0108 30.9297V30.9297ZM58.5208 37.2477L57.7804 38.4328C57.6921 38.5744 57.5944 38.7084 57.4899 38.8315C56.9534 39.4637 56.2108 39.8504 55.2827 39.9809C53.4476 40.2381 51.7114 39.3627 50.7808 37.8899L50.1948 40.0332L50.7808 41.7188C51.9161 42.4207 53.2448 42.8211 54.6417 42.8209C54.9813 42.8209 55.3257 42.7973 55.6716 42.7486C57.2761 42.5231 58.6419 41.7938 59.6208 40.6399C59.8124 40.4141 59.9909 40.1697 60.1507 39.9137L60.8909 38.7283L58.5208 37.2477Z" fill="#E5E5E8"></path><path d="M50.7809 37.8899C50.4457 37.3594 50.2139 36.752 50.1211 36.0912C49.9651 34.9803 50.225 33.9057 50.7809 33.0235V29.1842C50.0102 29.6596 49.326 30.278 48.7647 31.0229C47.5807 32.594 47.0795 34.5323 47.3534 36.4803C47.6701 38.7338 48.9819 40.6063 50.7809 41.7188V37.8899Z" fill="#F7F9FA"></path><path d="M61.3765 79.9539L66.294 72.9053L69.9659 79.6588L61.3765 79.9539Z" fill="#EDBE00"></path><path d="M56.7915 84.6836L63.8401 89.6012L57.0866 93.2731L56.7915 84.6836Z" fill="#EDBE00"></path><path d="M50.7809 83.7671L49.874 79.954L50.7809 77.4335H53.9477L50.7809 83.7671Z" fill="#EDBE00"></path><path d="M73.654 76.9086C74.6648 76.9086 75.4843 76.0892 75.4843 75.0783C75.4843 74.0675 74.6648 73.248 73.654 73.248C72.6432 73.248 71.8237 74.0675 71.8237 75.0783C71.8237 76.0892 72.6432 76.9086 73.654 76.9086Z" fill="#EDBE00"></path><path d="M67.3542 87.0617C68.365 87.0617 69.1845 86.2422 69.1845 85.2314C69.1845 84.2206 68.365 83.4011 67.3542 83.4011C66.3434 83.4011 65.5239 84.2206 65.5239 85.2314C65.5239 86.2422 66.3434 87.0617 67.3542 87.0617Z" fill="#EDBE00"></path><path d="M46.0171 17.578L40.3894 24.0737L37.4438 16.9733L46.0171 17.578Z" fill="#FFD944"></path><path d="M50.7814 13.6478L49.79 9.00757L50.7814 5.96069H54.6252L50.7814 13.6478Z" fill="#EDBE00"></path><path d="M56.8324 15.3357L57.3381 22.3988L51.4854 19.9781L56.8324 15.3357Z" fill="#EDBE00"></path><path d="M33.2966 22.973C34.3074 22.973 35.1269 22.1536 35.1269 21.1428C35.1269 20.1319 34.3074 19.3125 33.2966 19.3125C32.2858 19.3125 31.4663 20.1319 31.4663 21.1428C31.4663 22.1536 32.2858 22.973 33.2966 22.973Z" fill="#FFD944"></path><path d="M40.6242 13.5346C41.6351 13.5346 42.4545 12.7151 42.4545 11.7043C42.4545 10.6935 41.6351 9.87402 40.6242 9.87402C39.6134 9.87402 38.7939 10.6935 38.7939 11.7043C38.7939 12.7151 39.6134 13.5346 40.6242 13.5346Z" fill="#FFD944"></path><path d="M47.6143 77.4335L50.7811 83.7671V77.4335H47.6143Z" fill="#FFD944"></path><path d="M46.9375 5.96069L50.7811 13.6478V5.96069H46.9375Z" fill="#FFD944"></path></g><defs><linearGradient id="paint0_linear_3084_130" x1="100" y1="78.8154" x2="-8.36704" y2="61.0677" gradientUnits="userSpaceOnUse"><stop stop-color="#001DAC"></stop><stop offset="1" stop-color="#000F57"></stop></linearGradient><clipPath id="clip0_3084_130"><rect width="100" height="100" fill="white"></rect></clipPath></defs></svg>