<svg xmlns="http://www.w3.org/2000/svg" width="91" height="104" viewBox="0 0 91 104" fill="none"><path d="M23.719 81.8355C23.719 81.8355 29.509 76.5584 37.8413 67.5851C44.7636 75.9815 46.131 88.416 47.947 103.884C47.947 83.3952 49.528 72.6913 55.6384 66.3459C62.1975 71.6444 69.5684 77.3489 77.7726 83.4379C77.7726 83.4379 70.2735 75.597 57.8604 64.3589C64.2913 59.4877 74.6106 57.6503 90.9976 54.9369C73.0296 53.4627 62.6675 50.6212 56.4503 45.8568C60.2746 40.9856 64.1631 35.7725 67.9661 30.2603C67.9661 30.2603 62.8384 34.5974 54.2497 43.9126C45.896 35.4093 47.2847 21.7143 44.1227 0.541504C43.3535 24.919 42.4348 37.3535 34.8289 44.6176C28.3339 39.3832 21.3261 33.9565 13.9125 28.6579C13.9125 28.6579 19.8733 35.3025 32.4146 46.6046C26.1546 51.0271 16.3267 53.2491 0.6875 55.5779C18.7837 55.6847 29.4235 59.21 35.9398 65.534C32.0941 70.4052 28.0134 75.832 23.719 81.8355Z" fill="url(#paint0_linear_1763_126)"></path><defs><linearGradient id="paint0_linear_1763_126" x1="178.046" y1="-7.98231" x2="-0.76469" y2="62.0962" gradientUnits="userSpaceOnUse"><stop stop-color="#EBEBEB"></stop><stop offset="1" stop-color="#EBEBEB" stop-opacity="0"></stop></linearGradient></defs></svg>