<svg xmlns="http://www.w3.org/2000/svg" width="130" height="29" viewBox="0 0 130 29" fill="none"><path d="M0 10.8617L12.1619 10.864L19.5574 10.8651V3.62158L0 10.8617Z" fill="#FF9D28"></path><path d="M19.5574 3.41822V28.9739L28.2496 0L19.5574 3.41822Z" fill="#68C5ED"></path><path d="M19.5574 10.8663L12.3139 10.8652L19.5574 28.9739V10.8663Z" fill="#044D80"></path><path d="M0 10.8652L13.7626 15.2113L11.9061 10.8674L0 10.8652Z" fill="#E54747"></path><path d="M43.9208 22.0508C43.8157 22.1558 43.6407 22.287 43.396 22.4442C43.1508 22.6016 42.8318 22.7591 42.4384 22.9168C42.045 23.0737 41.5636 23.2092 40.9957 23.3231C40.4271 23.4364 39.7758 23.4934 39.0412 23.4934C37.6246 23.4934 36.4003 23.266 35.3683 22.8115C34.3361 22.3569 33.4835 21.7227 32.8106 20.9096C32.1371 20.0965 31.6433 19.1345 31.3284 18.0238C31.0137 16.913 30.8563 15.6937 30.8563 14.3641C30.8563 13.0352 31.0269 11.8063 31.3679 10.6783C31.7089 9.55002 32.2205 8.5756 32.9025 7.75321C33.5847 6.93134 34.4373 6.28861 35.4605 5.82502C36.4834 5.36194 37.6858 5.12988 39.0675 5.12988C39.7497 5.12988 40.3661 5.19132 40.9172 5.31341C41.4681 5.43602 41.949 5.58031 42.3602 5.74629C42.7708 5.91278 43.1121 6.08727 43.3831 6.27106C43.6542 6.45458 43.8596 6.60817 43.9998 6.73C44.1572 6.87017 44.2925 7.0364 44.4063 7.22844C44.5199 7.42126 44.577 7.63112 44.577 7.85801C44.577 8.20803 44.4458 8.55753 44.1836 8.90729C43.9213 9.25731 43.6327 9.58074 43.3178 9.87784C43.108 9.66799 42.872 9.454 42.6098 9.23511C42.3473 9.01648 42.0543 8.82443 41.7309 8.65794C41.4072 8.49197 41.0399 8.35206 40.6289 8.23823C40.2177 8.12466 39.7588 8.06761 39.2518 8.06761C38.3597 8.06761 37.6122 8.24726 37.009 8.60528C36.4057 8.96408 35.9202 9.4318 35.5529 10.009C35.1856 10.5861 34.9233 11.2464 34.7659 11.9896C34.6087 12.733 34.5299 13.4895 34.5299 14.259C34.5299 15.0814 34.6087 15.8682 34.7659 16.6198C34.9233 17.3717 35.1941 18.0364 35.5792 18.6136C35.9636 19.1905 36.4666 19.6543 37.0877 20.0038C37.7082 20.3541 38.4821 20.5286 39.4095 20.5286C39.8989 20.5286 40.3494 20.4677 40.7606 20.3451C41.1712 20.2227 41.5344 20.0741 41.8491 19.8988C42.164 19.7243 42.4394 19.5408 42.6756 19.3482C42.9118 19.1556 43.1085 18.9897 43.2659 18.8495C43.371 18.9721 43.4931 19.1208 43.6332 19.2958C43.7742 19.4724 43.9056 19.6561 44.0266 19.8466C44.149 20.0392 44.2538 20.2315 44.3415 20.4236C44.4288 20.6161 44.4727 20.7909 44.4727 20.9481C44.4727 21.1757 44.429 21.3678 44.3415 21.5252C44.2527 21.6837 44.1128 21.8587 43.9208 22.0508ZM57.4401 20.0389C57.4401 21.4292 57.6422 22.4408 58.0472 23.0742C57.7305 23.1971 57.4357 23.2851 57.1631 23.3378C56.89 23.3907 56.6043 23.417 56.3054 23.417C55.672 23.417 55.1924 23.2939 54.8671 23.0474C54.5414 22.8014 54.3346 22.4496 54.2471 21.9917C53.8599 22.3969 53.3496 22.7397 52.7162 23.0213C52.0827 23.3024 51.3083 23.4436 50.3935 23.4436C49.9186 23.4436 49.4436 23.3775 48.9684 23.2464C48.4932 23.1143 48.0622 22.8997 47.6752 22.6021C47.288 22.3037 46.9713 21.9047 46.7251 21.4047C46.4783 20.9044 46.3554 20.2953 46.3554 19.5764C46.3554 18.6817 46.5707 17.9538 47.002 17.3926C47.4328 16.8312 47.9739 16.3883 48.6251 16.0641C49.2759 15.7399 49.9798 15.5168 50.7366 15.3935C51.4929 15.2706 52.1883 15.1921 52.8215 15.1563C53.0326 15.1392 53.2394 15.1299 53.4417 15.1299H54.0091V14.6495C54.0091 13.9733 53.8284 13.4929 53.4681 13.2084C53.1072 12.9237 52.522 12.7812 51.7131 12.7812C50.9565 12.7812 50.2833 12.9046 49.694 13.1506C49.1045 13.3971 48.5281 13.6785 47.9654 13.9952C47.7186 13.696 47.5206 13.3664 47.3714 13.0055C47.2217 12.6452 47.1471 12.3768 47.1471 12.2007C47.1471 11.9545 47.2831 11.717 47.556 11.488C47.8286 11.2596 48.2026 11.0526 48.6778 10.8678C49.153 10.6829 49.6982 10.5337 50.314 10.4191C50.9297 10.3048 51.5809 10.2475 52.267 10.2475C53.2169 10.2475 54.022 10.3443 54.6815 10.5379C55.3416 10.7317 55.8779 11.0306 56.2915 11.4351C56.7047 11.8401 56.9995 12.3458 57.1755 12.9526C57.3513 13.5597 57.4396 14.268 57.4396 15.077L57.4401 20.0389ZM54.0618 16.9776H53.6924C53.569 16.9776 53.4456 16.9866 53.3228 17.0044C52.8826 17.0398 52.4472 17.0925 52.0164 17.1624C51.5851 17.2329 51.2023 17.3562 50.8685 17.532C50.534 17.7083 50.2614 17.937 50.0502 18.2181C49.8391 18.4997 49.7335 18.8606 49.7335 19.3002C49.7335 19.7927 49.8742 20.2106 50.1558 20.5537C50.4369 20.8967 50.9121 21.0681 51.5809 21.0681C51.9149 21.0681 52.2317 21.0247 52.5311 20.9359C52.83 20.8484 53.0941 20.7341 53.3228 20.5931C53.5512 20.4525 53.7319 20.2986 53.8638 20.1314C53.9957 19.9643 54.0618 19.8105 54.0618 19.6696V16.9776ZM64.0112 11.7784C64.2915 11.4444 64.7304 11.1055 65.3266 10.7622C65.9231 10.4191 66.6771 10.2475 67.5893 10.2475C68.2385 10.2475 68.8567 10.3574 69.4445 10.5774C70.0315 10.7975 70.5539 11.154 71.0095 11.6463C71.4659 12.139 71.8298 12.7903 72.1016 13.5992C72.3734 14.4087 72.5095 15.4028 72.5095 16.5816C72.5095 17.9538 72.3515 19.0847 72.0358 19.9731C71.7196 20.8618 71.3123 21.5658 70.8128 22.0846C70.3126 22.6037 69.7555 22.9689 69.142 23.1796C68.5279 23.3907 67.9138 23.4968 67.3002 23.4968C66.7915 23.4968 66.3483 23.4392 65.9719 23.3251C65.5943 23.2105 65.2745 23.0833 65.0112 22.9423C64.7482 22.8017 64.5466 22.6612 64.4064 22.52C64.2662 22.3796 64.1785 22.2823 64.1434 22.2297V28.7174H60.5539V10.6171C60.6422 10.5998 60.7485 10.5823 60.8729 10.5645C60.9795 10.5472 61.1037 10.534 61.2454 10.525C61.3871 10.5162 61.5557 10.5118 61.7505 10.5118C62.3352 10.5118 62.8318 10.6086 63.2397 10.8022C63.6473 10.9958 63.9049 11.321 64.0112 11.7784ZM68.762 16.6609C68.762 16.133 68.7181 15.6405 68.6306 15.1828C68.5431 14.7257 68.3991 14.3295 68.1977 13.9952C67.9964 13.6612 67.7249 13.4013 67.3841 13.2164C67.0426 13.0319 66.6273 12.9395 66.1379 12.9395C65.403 12.9395 64.8912 13.0804 64.6026 13.3615C64.314 13.6431 64.1697 13.9513 64.1697 14.2853V19.8807C64.3093 20.0214 64.5584 20.1881 64.9172 20.3817C65.276 20.5756 65.6913 20.6721 66.1637 20.6721C67.0561 20.6721 67.7122 20.3206 68.1322 19.6164C68.5519 18.9133 68.762 17.9275 68.762 16.6609ZM75.2797 21.2003C75.1563 20.8487 75.0776 20.4788 75.0422 20.0916C75.0068 19.7049 74.9895 19.3177 74.9895 18.9303V6.68457C75.1124 6.66728 75.2443 6.64973 75.3855 6.63191C75.5081 6.61462 75.64 6.60146 75.7812 6.59242C75.9219 6.58364 76.0626 6.57926 76.2032 6.57926C76.4846 6.57926 76.7665 6.60559 77.0478 6.65824C77.3289 6.71116 77.5842 6.81673 77.8134 6.97497C78.0419 7.1332 78.2267 7.34899 78.3674 7.62157C78.508 7.89466 78.5783 8.25088 78.5783 8.69047V10.5642H82.2738V13.2299H78.5788V18.858C78.5788 20.0852 79.0803 20.6987 80.0834 20.6987C80.3296 20.6987 80.5622 20.6595 80.7826 20.5802C81.0026 20.501 81.2003 20.4132 81.3766 20.3164C81.5524 20.2196 81.7065 20.1185 81.8384 20.0126C81.9705 19.9073 82.0627 19.8281 82.1153 19.7751C82.3792 20.1626 82.5815 20.4979 82.7225 20.7808C82.8631 21.064 82.9336 21.3298 82.9336 21.5782C82.9336 21.8094 82.8415 22.0358 82.6566 22.2578C82.4716 22.4795 82.2119 22.684 81.8776 22.8706C81.5433 23.0569 81.1391 23.208 80.6639 23.3233C80.1887 23.4387 79.6694 23.4968 79.1066 23.4968C78.0153 23.4968 77.1668 23.2857 76.56 22.8634C75.9526 22.4408 75.5257 21.8863 75.2797 21.2003ZM91.3642 20.8572C91.8054 20.8572 92.1939 20.8089 92.5297 20.7119C92.865 20.6153 93.1649 20.4966 93.43 20.3557C93.6946 20.215 93.9243 20.0612 94.1187 19.8939C94.3128 19.7271 94.4894 19.573 94.6486 19.4321C94.86 19.6956 95.0807 20.0348 95.3102 20.4481C95.5399 20.8621 95.6545 21.2003 95.6545 21.4643C95.6545 21.8515 95.4344 22.2033 94.9948 22.52C94.6254 22.8017 94.1014 23.0435 93.4246 23.2459C92.747 23.448 91.9507 23.5495 91.0362 23.5495C90.2086 23.5495 89.3953 23.4441 88.5948 23.2327C87.7939 23.0216 87.0814 22.652 86.457 22.1241C85.8324 21.5965 85.3264 20.8884 84.9392 19.9997C84.5523 19.1115 84.3587 17.99 84.3587 16.6348C84.3587 15.5264 84.5304 14.5721 84.8732 13.7714C85.2165 12.971 85.6739 12.3068 86.2459 11.7789C86.8174 11.2511 87.464 10.8644 88.1857 10.6176C88.9069 10.3716 89.6459 10.2483 90.4027 10.2483C91.3877 10.2483 92.2235 10.4026 92.9099 10.71C93.596 11.018 94.1543 11.4318 94.5856 11.9506C95.0165 12.4697 95.3288 13.0636 95.5226 13.7319C95.716 14.4007 95.8128 15.1044 95.8128 15.8431V16.2128C95.8128 16.3539 95.8084 16.5031 95.7996 16.6614C95.7906 16.8196 95.7821 16.974 95.7733 17.1232C95.764 17.2729 95.7508 17.3916 95.7338 17.4796H87.948C88.0184 18.4473 88.3189 19.2522 88.8483 19.8944C89.3777 20.5364 90.2166 20.8572 91.3642 20.8572ZM92.5671 15.4996C92.5671 14.6552 92.4029 13.9689 92.0759 13.441C91.7483 12.9134 91.1598 12.6493 90.3108 12.6493C89.585 12.6493 89.0055 12.9002 88.5724 13.4015C88.1385 13.9031 87.9221 14.6023 87.9221 15.4993L92.5671 15.4996ZM102.059 11.845C102.165 11.6881 102.305 11.5136 102.482 11.3213C102.657 11.1292 102.873 10.9547 103.128 10.7975C103.383 10.6406 103.665 10.5092 103.973 10.4047C104.28 10.2999 104.61 10.2477 104.963 10.2477C105.173 10.2477 105.398 10.2653 105.635 10.3001C105.873 10.3352 106.092 10.4008 106.295 10.4966C106.497 10.5926 106.66 10.7232 106.784 10.8892C106.906 11.0549 106.968 11.2598 106.968 11.504C106.968 11.8879 106.871 12.3287 106.678 12.8267C106.484 13.3248 106.291 13.7497 106.098 14.1013C105.798 13.855 105.499 13.6658 105.2 13.5339C104.901 13.402 104.549 13.3359 104.144 13.3359C103.599 13.3359 103.141 13.4947 102.772 13.8122C102.402 14.1297 102.218 14.5091 102.218 14.95V23.494H98.6287V10.6174C98.7164 10.6001 98.822 10.5825 98.9454 10.5647C99.051 10.5474 99.1741 10.5343 99.315 10.5252C99.4557 10.5164 99.6225 10.5121 99.8163 10.5121C100.379 10.5121 100.867 10.6212 101.281 10.8391C101.694 11.0562 101.954 11.392 102.059 11.845ZM112.264 11.845C112.369 11.6881 112.51 11.5136 112.686 11.3213C112.862 11.1292 113.078 10.9547 113.333 10.7975C113.588 10.6406 113.869 10.5092 114.177 10.4047C114.485 10.2999 114.815 10.2477 115.167 10.2477C115.378 10.2477 115.603 10.2653 115.84 10.3001C116.077 10.3352 116.297 10.4008 116.5 10.4966C116.702 10.5926 116.865 10.7232 116.988 10.8892C117.111 11.0549 117.173 11.2598 117.173 11.504C117.173 11.8879 117.076 12.3287 116.883 12.8267C116.689 13.3248 116.496 13.7497 116.302 14.1013C116.003 13.855 115.704 13.6658 115.404 13.5339C115.106 13.402 114.754 13.3359 114.349 13.3359C113.804 13.3359 113.346 13.4947 112.977 13.8122C112.607 14.1297 112.423 14.5091 112.423 14.95V23.494H108.833V10.6174C108.921 10.6001 109.027 10.5825 109.15 10.5647C109.256 10.5474 109.379 10.5343 109.52 10.5252C109.66 10.5164 109.827 10.5121 110.021 10.5121C110.584 10.5121 111.072 10.6212 111.486 10.8391C111.899 11.0562 112.158 11.392 112.264 11.845ZM129.393 20.0389C129.393 21.4292 129.595 22.4408 130 23.0742C129.683 23.1971 129.388 23.2851 129.116 23.3378C128.843 23.3907 128.557 23.417 128.258 23.417C127.625 23.417 127.145 23.2939 126.82 23.0474C126.494 22.8014 126.287 22.4496 126.2 21.9917C125.813 22.3969 125.302 22.7397 124.669 23.0213C124.035 23.3024 123.261 23.4436 122.347 23.4436C121.871 23.4436 121.396 23.3775 120.921 23.2464C120.446 23.1143 120.015 22.8997 119.628 22.6021C119.241 22.3037 118.924 21.9047 118.678 21.4047C118.431 20.9044 118.308 20.2953 118.308 19.5764C118.308 18.6817 118.523 17.9538 118.955 17.3926C119.386 16.8312 119.927 16.3883 120.578 16.0641C121.229 15.7399 121.932 15.5168 122.69 15.3935C123.446 15.2706 124.141 15.1921 124.774 15.1563C124.986 15.1392 125.192 15.1299 125.395 15.1299H125.962V14.6495C125.962 13.9733 125.781 13.4929 125.421 13.2084C125.06 12.9237 124.475 12.7812 123.666 12.7812C122.909 12.7812 122.236 12.9046 121.647 13.1506C121.057 13.3971 120.481 13.6785 119.918 13.9952C119.672 13.696 119.473 13.3664 119.324 13.0055C119.175 12.6452 119.1 12.3768 119.1 12.2007C119.1 11.9545 119.236 11.717 119.509 11.488C119.782 11.2596 120.156 11.0526 120.631 10.8678C121.106 10.6829 121.651 10.5337 122.267 10.4191C122.883 10.3048 123.534 10.2475 124.22 10.2475C125.17 10.2475 125.975 10.3443 126.635 10.5379C127.295 10.7317 127.831 11.0306 128.244 11.4351C128.658 11.8401 128.952 12.3458 129.129 12.9526C129.304 13.5597 129.393 14.268 129.393 15.077V20.0389H129.393ZM126.014 16.9776H125.645C125.521 16.9776 125.398 16.9866 125.275 17.0044C124.836 17.0398 124.4 17.0925 123.969 17.1624C123.538 17.2329 123.155 17.3562 122.821 17.532C122.486 17.7083 122.214 17.937 122.003 18.2181C121.792 18.4997 121.686 18.8606 121.686 19.3002C121.686 19.7927 121.827 20.2106 122.108 20.5537C122.39 20.8967 122.865 21.0681 123.533 21.0681C123.867 21.0681 124.184 21.0247 124.484 20.9359C124.782 20.8484 125.047 20.7341 125.275 20.5931C125.504 20.4525 125.684 20.2986 125.816 20.1314C125.948 19.9643 126.014 19.8105 126.014 19.6696V16.9776H126.014Z" fill="#044D80"></path></svg>