<svg xmlns="http://www.w3.org/2000/svg" width="60" height="60" viewBox="0 0 60 60" fill="none"><path opacity="0.05" fill-rule="evenodd" clip-rule="evenodd" d="M14.4719 36.9705C24.1777 31.9411 35.8248 31.9411 45.5307 36.9705C54.0895 42.0882 54.0895 50.2058 45.5307 55.3235C35.8248 60.3529 24.1777 60.3529 14.4719 55.3235C5.91303 50.2058 5.91303 42 14.4719 36.9705Z" fill="url(#paint0_linear_2155_846)"></path><path fill-rule="evenodd" clip-rule="evenodd" d="M8.03027 29.8236C17.7362 24.7942 42.1773 24.8824 51.9715 29.9118V39.4412C51.9715 42.7942 49.7656 45.9706 45.5303 48.4412C35.8244 53.4706 24.1773 53.4706 14.4714 48.4412C10.2362 45.9706 8.03027 42.7059 8.03027 39.353V29.8236Z" fill="url(#paint1_linear_2155_846)"></path><path fill-rule="evenodd" clip-rule="evenodd" d="M14.4719 20.7352C24.1777 15.7058 35.8248 15.7058 45.5307 20.7352C54.0895 25.8528 54.0895 33.9705 45.5307 39.0881C35.8248 44.1175 24.1777 44.1175 14.4719 39.0881C5.91303 33.9705 5.91303 25.7646 14.4719 20.7352Z" fill="url(#paint2_linear_2155_846)"></path><path fill-rule="evenodd" clip-rule="evenodd" d="M8.11847 13.4118C17.8244 8.38241 42.1773 8.47065 51.9714 13.5001V23.2059C51.9714 26.5589 49.7655 29.7354 45.5302 32.2059C35.8244 37.2354 24.2655 37.2354 14.5596 32.2059C10.3244 29.7354 8.29494 26.4706 8.11847 23.1177C7.942 19.7648 8.11847 18.353 8.11847 13.4118Z" fill="url(#paint3_linear_2155_846)"></path><path fill-rule="evenodd" clip-rule="evenodd" d="M14.4719 4.67636C24.1777 -0.353056 35.8248 -0.353056 45.5307 4.67636C54.0895 9.794 54.0895 17.9116 45.5307 23.0293C35.8248 28.0587 24.1777 28.0587 14.4719 23.0293C5.91303 18.0881 5.91303 9.794 14.4719 4.67636Z" fill="url(#paint4_linear_2155_846)"></path><path opacity="0.5" d="M18.707 7.76473C25.5011 4.23532 33.6188 4.23532 40.4129 7.76473C46.4129 11.2941 46.4129 17.0294 40.4129 20.6471C33.6188 24.1765 25.5011 24.1765 18.707 20.6471C12.707 17.1177 12.707 11.3824 18.707 7.76473Z" stroke="#818696" stroke-width="1.11" stroke-linecap="round" stroke-linejoin="round"></path><path fill-rule="evenodd" clip-rule="evenodd" d="M29.2955 24.9705C29.8249 25.3235 30.7955 25.0588 30.7955 24.6176L31.0602 13.2352C31.0602 12.7941 30.1778 12.5294 29.5602 12.8823L14.6484 19.7647C14.6484 19.7647 14.6484 21.6176 14.6484 21.7941C14.6484 21.9705 15.0014 22.2352 15.5308 22.2352H21.5308L18.8837 23.9999C18.8837 23.9999 18.8837 25.9411 18.8837 26.0294C18.8837 26.1176 19.0602 26.3823 19.4131 26.4705L21.7955 26.9999C22.2367 27.0882 22.6778 26.9999 22.9426 26.647L25.6778 22.8529L29.2955 24.9705Z" fill="url(#paint5_linear_2155_846)"></path><path fill-rule="evenodd" clip-rule="evenodd" d="M29.2949 23.0294C29.8243 23.3823 30.7949 23.1176 30.7949 22.6764L31.0596 11.2941C31.0596 10.8529 30.1772 10.5882 29.5596 10.9411L15.0008 19.4117C14.4713 19.7647 14.8243 20.2941 15.6184 20.2941H21.6184L18.9713 23.8235C18.7949 24.0882 18.9713 24.3529 19.4125 24.4411L21.7949 24.9706C22.2361 25.0588 22.6772 24.9706 22.9419 24.6176L25.6772 20.8235L29.2949 23.0294Z" fill="url(#paint6_linear_2155_846)"></path><defs><linearGradient id="paint0_linear_2155_846" x1="54.6013" y1="43.0718" x2="11.0042" y2="48.5336" gradientUnits="userSpaceOnUse"><stop></stop><stop offset="1"></stop></linearGradient><linearGradient id="paint1_linear_2155_846" x1="7.80894" y1="39.1559" x2="51.584" y2="39.1559" gradientUnits="userSpaceOnUse"><stop stop-color="#1C40F2"></stop><stop offset="0.9833" stop-color="#03F8FB"></stop></linearGradient><linearGradient id="paint2_linear_2155_846" x1="51.9498" y1="37.374" x2="6.59891" y2="24.7843" gradientUnits="userSpaceOnUse"><stop stop-color="#001DAC"></stop><stop offset="1" stop-color="#000F57"></stop></linearGradient><linearGradient id="paint3_linear_2155_846" x1="53.2926" y1="22.7067" x2="-1.52106" y2="23.0503" gradientUnits="userSpaceOnUse"><stop offset="0.42" stop-color="#E7E9E9"></stop><stop offset="0.68" stop-color="#B1B4C3"></stop><stop offset="0.88" stop-color="#8F92AA"></stop><stop offset="0.99" stop-color="#8285A1"></stop></linearGradient><linearGradient id="paint4_linear_2155_846" x1="54.5918" y1="10.7731" x2="10.9948" y2="16.2348" gradientUnits="userSpaceOnUse"><stop stop-color="#CDD3DB"></stop><stop offset="1" stop-color="#ACB0C2"></stop></linearGradient><linearGradient id="paint5_linear_2155_846" x1="14.6484" y1="13.766" x2="31.9866" y2="15.6641" gradientUnits="userSpaceOnUse"><stop stop-color="#0082F8"></stop><stop offset="1" stop-color="#1C40F2"></stop></linearGradient><linearGradient id="paint6_linear_2155_846" x1="14.6669" y1="17.8909" x2="30.9158" y2="17.8909" gradientUnits="userSpaceOnUse"><stop stop-color="#1C40F2"></stop><stop offset="0.9833" stop-color="#03F8FB"></stop></linearGradient></defs></svg>