<svg xmlns="http://www.w3.org/2000/svg" width="60" height="60" viewBox="0 0 60 60" fill="none"><path opacity="0.05" fill-rule="evenodd" clip-rule="evenodd" d="M16.6769 57.706L24.1769 59.5589L28.0592 56.4707C28.8533 56.4707 29.6475 56.4707 30.5298 56.4707L33.971 59.6472L41.6475 57.9707L40.5004 54.353C41.2063 54.0001 41.9122 53.6472 42.5298 53.206L49.0592 54.0883L52.5886 49.9413L47.2063 47.9119C47.2945 47.3825 47.2945 46.9413 47.2945 46.4119L53.0298 44.4707L50.118 40.2354L43.5004 40.9413C42.8828 40.5883 42.2651 40.2354 41.6475 39.9707L43.3239 36.353L35.7357 34.4119L31.6769 37.7648C30.7945 37.6766 29.9122 37.6766 29.0298 37.7648L25.5886 34.5001L17.8239 36.1766L19.2357 39.7942C18.618 40.1472 17.9122 40.5001 17.2945 40.853L10.7651 39.9707L7.32393 44.1177L12.971 46.1472C12.8828 46.6766 12.7945 47.1177 12.8828 47.6472L7.14746 49.5883L10.0592 53.8236L16.5886 53.1177C17.2063 53.5589 17.8239 53.9119 18.4416 54.1766L16.6769 57.706Z" fill="url(#paint0_linear_2132_14957)"></path><path fill-rule="evenodd" clip-rule="evenodd" d="M16.6769 50.3823L24.1769 52.2352L28.0592 49.147C28.8533 49.147 29.6475 49.147 30.5298 49.147L33.971 52.2352L41.6475 50.4705C41.6475 50.4705 41.7357 47.647 41.8239 45.6176L49.0592 46.5882L52.5886 42.5294V37.2352L52.7651 37.147L52.9416 27.9705L43.2357 28.8529V19.8529L35.7357 27.0882L25.5886 27.1764L17.8239 19.7646V28.8529L7.2357 27.7058L7.14746 33.1764V42.2647L9.97099 46.4999L16.5886 45.7058L16.6769 50.3823Z" fill="url(#paint1_linear_2132_14957)"></path><path fill-rule="evenodd" clip-rule="evenodd" d="M16.6772 41.2941L24.1772 43.1471L28.0596 40.0588C28.8537 40.0588 29.6478 40.0588 30.5302 40.0588L33.9713 43.2353L41.6478 41.5588L40.5007 37.9412C41.2066 37.5882 41.9125 37.2353 42.5302 36.8824L49.0596 37.7647L52.589 33.6176L47.2066 31.5882C47.2949 31.0588 47.2949 30.6176 47.2949 30.0882L53.0302 28.1471L50.1184 23.9118L43.5007 24.6176C42.8831 24.2647 42.2655 23.9118 41.6478 23.5588L43.3243 19.9412L35.8243 18.0882L31.7655 21.4412C30.8831 21.3529 30.0007 21.3529 29.1184 21.4412L25.589 18L17.736 19.6765L19.1478 23.2941C18.5302 23.6471 17.8243 24 17.2066 24.3529L10.6772 23.4706L7.23604 27.7059L12.8831 29.7353C12.7949 30.2647 12.7949 30.7059 12.7949 31.2353L7.05957 33.1765L9.97134 37.4118L16.5007 36.6176C17.1184 37.0588 17.736 37.4118 18.3537 37.6765L16.6772 41.2941Z" fill="url(#paint2_linear_2132_14957)"></path><path fill-rule="evenodd" clip-rule="evenodd" d="M16.6769 32.9117L24.1769 34.7646L28.0592 31.6764C28.8533 31.6764 29.6475 31.6764 30.5298 31.6764L33.971 34.7646L41.6475 33.0882C41.6475 33.0882 41.7357 30.2646 41.8239 28.3235L49.0592 29.294L52.5886 25.147V19.8529L52.7651 19.7646L52.9416 10.5882L43.2357 11.4705V2.29405L35.8239 9.52934L25.5886 9.61758L17.8239 2.20581V11.294L7.2357 10.2352L7.14746 15.7058V24.794L9.97099 29.0293L16.5886 28.2352L16.6769 32.9117Z" fill="url(#paint3_linear_2132_14957)"></path><path fill-rule="evenodd" clip-rule="evenodd" d="M16.6769 23.8235L24.1769 25.6765L28.0592 22.5882C28.8533 22.5882 29.6475 22.5882 30.5298 22.5882L33.971 25.7647L41.6475 24.0882L40.5004 20.2941C41.2063 19.9412 41.9122 19.5882 42.5298 19.2353L49.0592 20.1176L52.5886 15.9706L47.2063 13.9412C47.2945 13.4118 47.2945 12.9706 47.2945 12.4412L53.0298 10.5L50.118 6.26469L43.5004 6.97057C42.7945 6.5294 42.0886 6.17646 41.471 5.91175L43.2357 2.2941L35.7357 0.441162L31.6769 3.70587C30.7945 3.70587 29.9122 3.70587 29.0298 3.70587L25.5886 0.529397L17.7357 2.20587L19.1475 5.82351C18.5298 6.17646 17.9122 6.5294 17.2945 6.88234L10.7651 5.99999L7.32393 10.2353L12.971 12.2647C12.8828 12.7941 12.7945 13.2353 12.8828 13.7647L7.14746 15.7059L10.0592 19.9412L16.5886 19.147C17.2063 19.5882 17.8239 19.9412 18.4416 20.2059L16.6769 23.8235Z" fill="url(#paint4_linear_2132_14957)"></path><path opacity="0.6" fill-rule="evenodd" clip-rule="evenodd" d="M25.2363 10.147C28.2363 8.55875 31.8539 8.55875 34.8539 10.147C37.501 11.7352 37.501 14.2058 34.8539 15.7058C31.8539 17.294 28.2363 17.294 25.2363 15.7058C22.5892 14.2058 22.5892 11.7352 25.2363 10.147Z" fill="#818696"></path><path fill-rule="evenodd" clip-rule="evenodd" d="M26.6475 11.0295C28.7652 9.97065 31.2358 9.97065 33.3534 11.0295C35.2063 12.0883 35.2063 13.853 33.3534 14.9118C31.2358 15.9706 28.7652 15.9706 26.6475 14.9118C24.7946 13.853 24.7946 12.0883 26.6475 11.0295Z" fill="url(#paint5_linear_2132_14957)"></path><defs><linearGradient id="paint0_linear_2132_14957" x1="35.3711" y1="47.1345" x2="-10.3552" y2="45.9936" gradientUnits="userSpaceOnUse"><stop></stop><stop offset="1"></stop></linearGradient><linearGradient id="paint1_linear_2132_14957" x1="52.9416" y1="45.3565" x2="4.56561" y2="34.1828" gradientUnits="userSpaceOnUse"><stop stop-color="#001DAC"></stop><stop offset="1" stop-color="#000F57"></stop></linearGradient><linearGradient id="paint2_linear_2132_14957" x1="7.05957" y1="19.8465" x2="54.7641" y2="28.1434" gradientUnits="userSpaceOnUse"><stop stop-color="#0082F8"></stop><stop offset="1" stop-color="#1C40F2"></stop></linearGradient><linearGradient id="paint3_linear_2132_14957" x1="52.53" y1="18.6718" x2="-7.63698" y2="18.0924" gradientUnits="userSpaceOnUse"><stop offset="0.36" stop-color="#E7E9E9"></stop><stop offset="0.53" stop-color="#B1B4C3"></stop><stop offset="0.67" stop-color="#8F92AA"></stop><stop offset="0.74" stop-color="#8285A1"></stop></linearGradient><linearGradient id="paint4_linear_2132_14957" x1="35.3714" y1="13.1539" x2="-10.355" y2="12.022" gradientUnits="userSpaceOnUse"><stop offset="0.02" stop-color="#CDD3DB"></stop><stop offset="0.92" stop-color="#ACB0C2"></stop></linearGradient><linearGradient id="paint5_linear_2132_14957" x1="25.2578" y1="10.6356" x2="35.1281" y2="12.2696" gradientUnits="userSpaceOnUse"><stop stop-color="#0082F8"></stop><stop offset="1" stop-color="#1C40F2"></stop></linearGradient></defs></svg>