<svg xmlns="http://www.w3.org/2000/svg" width="85" height="23" viewBox="0 0 85 23" fill="none"><path d="M20.669 8.87411C21.5522 9.35009 21.7381 10.2068 21.8776 11.1112C22.11 12.8723 22.11 14.681 22.11 16.4898C22.11 17.4893 22.0635 18.5365 21.9706 19.536C21.9241 20.012 21.8311 20.488 21.7381 20.9639C21.5522 21.7731 20.9944 22.1539 20.2506 22.2967C19.4604 22.4871 18.6701 22.4395 17.8334 22.3919C16.3924 22.2491 14.9978 22.1063 13.5568 21.9159C12.0692 21.7255 10.5817 21.7255 9.09419 21.9159C7.5137 22.1539 5.88672 22.4395 4.30622 22.6299C3.7484 22.7251 3.1441 22.6775 2.53979 22.6299C1.84251 22.5823 1.37766 22.1063 1.00578 21.5351C0.587415 20.8212 0.354988 20.012 0.262018 19.1552C0.0760775 17.6797 -0.0633778 16.2042 0.0295924 14.7762C0.122563 13.0627 0.354989 11.3968 1.00578 9.82607C1.23821 9.20729 1.61009 8.68372 1.98197 8.06495C1.84251 7.92215 1.65657 7.73176 1.51712 7.54137C0.540929 6.44662 0.494445 5.20908 1.33118 4.01914C1.889 3.25757 2.58627 2.734 3.37652 2.30562C5.28241 1.21087 7.32776 0.592096 9.51256 0.401705C12.3017 0.116119 15.0443 0.544498 17.601 1.73444C18.6236 2.21042 19.5998 2.82919 20.3901 3.63835C21.2268 4.54271 21.7381 5.54227 21.7846 6.77981C21.8311 7.54137 21.6452 8.25534 20.9479 8.73132C20.8549 8.82651 20.762 8.82651 20.669 8.87411ZM18.3447 8.58852C18.3912 8.54093 18.3912 8.54093 18.4377 8.54093C19.135 8.01735 19.2744 7.49377 18.949 6.68461C18.6701 6.01824 18.2053 5.44707 17.6475 5.01869C16.8572 4.35232 15.881 3.92394 14.9048 3.59076C12.9525 2.97199 10.9536 2.78159 8.90825 3.06718C7.69964 3.25757 6.49102 3.54316 5.42186 4.11433C4.6781 4.49511 3.98083 5.01869 3.60895 5.82785C3.23707 6.58942 3.37652 7.35098 4.02731 7.92215C4.12028 8.01735 4.25974 8.11255 4.35271 8.20774C4.12028 8.58852 3.84137 8.96931 3.65543 9.35009C3.19058 10.302 2.91167 11.3492 2.72573 12.3963C2.53979 13.7767 2.35385 15.157 2.4933 16.5849C2.58628 17.3465 2.72573 18.1081 3.1441 18.822C3.51598 19.4408 4.02731 19.9168 4.81756 19.9168C5.09647 19.9168 5.42187 19.8692 5.70078 19.8216C6.76994 19.5836 7.83909 19.298 8.90825 19.1076C10.0239 18.8696 11.1395 18.822 12.2552 18.9648C13.4638 19.1076 14.6724 19.298 15.8345 19.4408C16.5783 19.536 17.2756 19.6312 18.0193 19.4884C18.949 19.3456 19.5069 18.822 19.6928 17.8701C19.9717 16.347 20.0647 14.8238 19.9717 13.3007C19.9252 12.3487 19.8787 11.4444 19.6463 10.54C19.4139 9.73087 19.0885 9.0169 18.3447 8.58852ZM47.9557 14.0623C47.9093 16.1566 47.3979 17.8225 46.0499 19.2504C45.0737 20.25 43.9115 20.8687 42.61 21.1067C41.0295 21.3923 39.449 21.2971 37.9614 20.5832C35.9626 19.6312 34.754 17.9653 34.3356 15.7282C33.9637 13.7767 34.2426 11.9204 35.3118 10.2068C36.381 8.54093 37.915 7.63657 39.7744 7.35098C41.2154 7.11299 42.6564 7.25578 43.958 7.82696C46.1428 8.77891 47.3514 10.54 47.7698 12.8723C47.9093 13.3483 47.9093 13.8243 47.9557 14.0623ZM37.729 14.2527C37.729 14.919 37.822 15.5854 38.1474 16.2042C38.7052 17.4417 39.6349 18.1081 40.983 18.1081C42.1916 18.1557 43.2143 17.6321 43.8186 16.5374C44.6553 15.0142 44.6553 13.3959 43.7721 11.8728C42.7029 10.1117 40.1462 9.87366 38.7982 11.3968C38.0079 12.206 37.729 13.2055 37.729 14.2527ZM58.2754 14.1099V12.5391C58.2754 12.3487 58.2754 12.1108 58.229 11.9204C58.043 11.016 57.3922 10.4924 56.5555 10.302C55.1609 9.96886 53.8594 10.1593 52.6043 10.9208C52.2324 11.1588 51.8605 11.254 51.4886 11.1112C50.5589 10.778 50.3265 9.58808 51.0238 8.87411C51.4421 8.39813 52 8.11255 52.6043 7.92215C54.3707 7.30338 56.2301 7.11299 58.0895 7.54137C59.2051 7.77936 60.1813 8.30294 60.8786 9.30249C61.4829 10.1593 61.7153 11.1588 61.7153 12.206V19.3932C61.7153 20.3928 60.9716 21.1543 59.9954 21.1067C59.8095 21.1067 59.577 21.1067 59.3911 21.0591C58.7403 20.8688 58.3219 20.3928 58.2754 19.6312C58.229 19.6312 58.229 19.6312 58.1825 19.6788C57.2993 20.6308 56.1836 21.0591 54.9285 21.2495C53.9058 21.3923 52.9296 21.2495 51.9999 20.7736C50.373 19.9644 49.4898 18.3461 49.6292 16.4898C49.8152 14.4431 51.0238 13.0151 53.0691 12.6343C54.6031 12.3487 56.0442 12.5391 57.3922 13.3959C57.5317 13.4911 57.6711 13.5863 57.8106 13.7291C57.95 13.8243 58.0895 13.9671 58.2754 14.1099ZM58.2754 16.9181V16.4422C58.3219 16.109 58.1825 15.871 57.95 15.6806C56.8344 14.8238 55.5793 14.681 54.3242 15.157C53.534 15.4426 53.1156 16.1566 53.1156 16.9181C53.1156 17.7273 53.5804 18.3461 54.3707 18.6317C54.975 18.8696 55.6258 18.9172 56.2766 18.7744C56.9274 18.6793 57.5317 18.4413 58.043 17.9653C58.229 17.8225 58.3219 17.6321 58.2754 17.3941C58.229 17.2513 58.2754 17.1085 58.2754 16.9181ZM69.5248 7.25579C70.9659 7.30338 72.1745 7.44618 73.2901 8.01735C73.6155 8.16014 73.9409 8.44573 74.2663 8.68372C74.6382 9.0169 74.7777 9.49288 74.5917 9.96886C74.4058 10.4924 74.0804 10.778 73.569 10.8732C73.2437 10.9684 72.9183 10.8732 72.5929 10.6828C71.6632 10.1593 70.687 9.92126 69.6178 9.92126C69.0135 9.92126 68.4092 10.0641 67.9908 10.54C67.526 11.016 67.5725 11.6824 68.2233 11.9204C68.7346 12.1584 69.2924 12.3012 69.8502 12.4439C70.8264 12.6819 71.8026 12.8247 72.7323 13.2055C73.4296 13.4911 74.0804 13.8719 74.5917 14.4431C75.289 15.2522 75.4749 16.2042 75.4285 17.2513C75.289 18.9648 74.3128 20.0596 72.8253 20.6784C71.7561 21.1543 70.594 21.2971 69.4319 21.2019C68.1768 21.1543 66.9217 20.9163 65.7595 20.3452C65.3412 20.1548 64.9693 19.9168 64.6904 19.5836C63.9466 18.7269 64.5044 17.4893 65.5271 17.2513C65.8525 17.2037 66.1779 17.2513 66.5033 17.4417C67.433 17.9653 68.4092 18.3461 69.5248 18.4889C70.1292 18.5365 70.7335 18.5365 71.2913 18.2985C71.8026 18.1081 72.128 17.7749 72.1745 17.1561C72.221 16.8705 72.0815 16.5849 71.8491 16.4422C71.5237 16.2518 71.1518 16.0614 70.7799 15.9662C69.8502 15.7282 68.9205 15.5378 68.0373 15.2998C67.3865 15.157 66.7822 14.8714 66.1779 14.5382C64.0396 13.3007 64.0396 10.3496 65.4806 8.82651C66.3174 7.92216 67.3865 7.49377 68.5487 7.30338C68.8741 7.30338 69.2924 7.30338 69.5248 7.25579ZM78.5894 10.6828H77.7992C76.916 10.6828 76.2652 10.0165 76.2652 9.1597C76.2652 8.30294 76.916 7.63657 77.7527 7.63657H78.543V7.35098C78.543 6.68461 78.543 6.01824 78.5894 5.39947C78.6359 4.44752 79.4727 3.78115 80.4024 3.82875C81.2856 3.87634 81.9828 4.63791 81.9828 5.54226V7.63657H83.4704C84.2606 7.68417 84.8184 8.39813 84.772 9.30249C84.7255 10.0641 84.0747 10.6828 83.3309 10.6828H82.0293V16.7753C82.0293 17.4417 82.4012 17.9177 82.9126 18.0605C83.0985 18.1081 83.2844 18.1081 83.4704 18.1081C84.7255 18.1081 85.1438 19.1552 84.9579 20.0596C84.8649 20.3928 84.6325 20.6784 84.3536 20.8212C83.7958 21.1067 83.238 21.1543 82.6336 21.2019C81.8899 21.2495 81.1461 21.1543 80.4953 20.8687C79.4262 20.3928 78.8219 19.536 78.6824 18.3937C78.6359 18.1081 78.6359 17.7749 78.6359 17.4893V10.9684C78.5894 10.8732 78.5894 10.778 78.5894 10.6828ZM26.5726 7.58897V5.63746C26.5726 5.44707 26.5726 5.30428 26.6191 5.11389C26.805 4.25713 27.6418 3.63835 28.525 3.78115C29.4082 3.87634 30.0125 4.59031 30.0125 5.49467V7.54137H31.407C32.1973 7.58897 32.8016 8.30294 32.7551 9.1597C32.7086 9.96886 32.0578 10.5876 31.2676 10.5876H29.966V16.4898C29.966 16.6801 29.966 16.8229 30.0125 17.0133C30.1055 17.6797 30.5703 18.0605 31.2211 18.0605C31.5 18.0605 31.7789 18.1081 32.0114 18.1557C32.5227 18.2985 32.8481 18.822 32.8946 19.3932C32.9411 20.012 32.7551 20.488 32.1508 20.7736C31.7324 21.0115 31.2676 21.0591 30.8027 21.1067C30.1055 21.1543 29.4547 21.1543 28.8039 20.9639C27.4558 20.6308 26.6656 19.6788 26.4796 18.2509C26.4331 17.9653 26.4331 17.6797 26.4331 17.3941V10.4924H25.6429C24.8062 10.4924 24.1089 9.82607 24.1089 8.96931C24.1089 8.11255 24.7597 7.44618 25.5964 7.44618C26.0148 7.58897 26.2937 7.58897 26.5726 7.58897Z" fill="#EAEAEA"></path></svg>