<svg xmlns="http://www.w3.org/2000/svg" width="119" height="22" viewBox="0 0 119 22" fill="none"><path d="M0 6.65084C0 6.55199 0.0501263 6.45315 0.100253 6.30488C0.250632 5.71182 0.55139 5.26703 0.952401 4.82223L4.91238 0.917912C5.5139 0.324851 6.21567 0.0283203 7.06782 0.0283203H10.326C11.1782 0.0283203 11.9301 0.324851 12.4815 0.86849L17.2936 5.61298C17.3939 5.71182 17.444 5.90951 17.444 6.00835V11.4447C17.3938 11.4942 17.2936 11.5436 17.1933 11.6424L12.5817 16.1892C11.9301 16.8317 11.1782 17.1777 10.2258 17.1777H6.51643C6.01516 17.1777 5.76453 17.4248 5.76453 17.919V20.9337C5.76453 21.3785 5.61415 21.7245 5.21314 21.8727H4.91238C4.762 21.7739 4.5615 21.6751 4.46125 21.5762C3.30834 20.4395 2.10531 19.3028 0.952401 18.1167C0.501264 17.6719 0.200505 17.1777 0.0501263 16.5846C0.0501263 16.4858 0 16.3869 0 16.2387C0 16.2387 0 6.65084 0 6.65084ZM8.67186 5.76125H6.4663C6.01516 5.76125 5.76453 6.00835 5.76453 6.45315V10.8023C5.76453 11.2471 6.01516 11.4942 6.4663 11.4942H10.8774C11.3787 11.4942 11.5792 11.2965 11.5792 10.8023V6.45315C11.5792 6.00835 11.3286 5.76125 10.8774 5.76125H8.67186ZM18.647 21.9222C18.4966 21.8727 18.2961 21.8233 18.1457 21.7245C17.6946 21.4774 17.444 21.082 17.444 20.5384V11.4942H22.9579C23.1584 11.4942 23.2085 11.5436 23.2085 11.7413V20.5384C23.2085 21.2303 22.8075 21.7739 22.1057 21.9222C22.0556 21.9222 22.0055 21.9716 21.9553 21.9716C20.8526 21.9222 19.7498 21.9222 18.647 21.9222ZM119 17.919H116.143V4.77281H119V17.919ZM85.8665 14.5089L86.7687 10.5057C87.2199 8.67713 87.7713 6.84852 88.2224 5.01992C88.2725 4.87165 88.3227 4.82223 88.5232 4.82223H91.0295C91.1297 4.82223 91.23 4.82223 91.2801 4.9705C91.9318 7.34274 92.6335 9.71499 93.2852 12.0872C93.4857 12.8286 93.5859 13.6193 93.7864 14.4101C94.2376 11.1976 95.0897 8.03465 95.7414 4.82223H99.0497C97.9469 9.22077 96.794 13.5699 95.6912 17.919H92.2325C91.4305 15.0525 90.6285 12.2355 89.8264 9.41846C89.6761 9.96209 89.5758 10.5552 89.4254 11.1482C88.7738 13.3722 88.1222 15.5468 87.5206 17.7707C87.4705 17.919 87.4204 17.9684 87.27 17.9684H84.2123C84.0118 17.9684 84.0118 17.8696 83.9617 17.7213C83.1596 14.6077 82.3576 11.5436 81.6057 8.43002C81.305 7.29332 81.0543 6.20604 80.7536 5.06934C80.7536 4.9705 80.7035 4.92108 80.7035 4.82223H83.7612C83.9115 4.82223 84.0118 4.87165 84.0619 5.01992C84.6133 7.68869 85.2148 10.3575 85.7662 13.0262C85.7161 13.471 85.7662 13.9653 85.8665 14.5089ZM34.7877 13.6193V17.8696H31.4794V4.77281H31.6799C33.9356 4.77281 36.1912 4.77281 38.4469 4.82223C38.9482 4.82223 39.4996 4.92107 40.0008 5.01992C41.3543 5.36587 42.2064 6.15662 42.6074 7.49101C42.9583 8.57829 42.9583 9.66556 42.6074 10.7034C42.056 12.2849 40.9031 13.1251 39.2991 13.4216C38.4469 13.5699 37.5948 13.5699 36.7426 13.6193C36.091 13.6687 35.4393 13.6193 34.7877 13.6193ZM34.7877 11.1976H36.893C37.1938 11.1976 37.4945 11.1976 37.7452 11.1482C38.8479 11 39.3492 10.5552 39.4996 9.61614C39.5497 9.41846 39.5497 9.17135 39.4996 8.97366C39.4996 8.03465 38.9983 7.49101 38.096 7.29332C37.9457 7.2439 37.7452 7.2439 37.5948 7.2439C36.6925 7.2439 35.7902 7.2439 34.9381 7.19448H34.7877V11.1976ZM108.925 13.6687H101.857C101.706 14.6077 102.358 15.6456 103.21 15.9421C103.862 16.1892 104.564 16.1398 105.215 15.8433C105.717 15.6456 105.967 15.3985 106.569 14.3606C107.27 14.7066 107.972 15.0525 108.724 15.4479C107.872 16.8811 106.669 17.8202 105.015 18.1661C104.012 18.3638 103.01 18.3144 102.007 18.0178C100.303 17.4742 99.3505 16.2881 98.9996 14.5583C98.7489 13.2239 98.8492 11.939 99.4006 10.654C100.152 8.92424 101.506 8.08407 103.31 7.88638C104.263 7.78754 105.215 7.88638 106.118 8.28176C107.571 8.97366 108.323 10.1104 108.674 11.6424C108.824 12.3343 108.874 12.9768 108.925 13.6687ZM105.867 11.8401C105.767 10.5552 104.965 9.81383 103.762 9.91267C102.759 9.96209 101.857 10.9505 101.907 11.8401H105.867ZM61.0539 12.878C61.0038 14.5089 60.6028 15.8433 59.5501 16.8811C58.8484 17.573 57.9962 17.919 57.0438 18.1167C55.7906 18.3144 54.5876 18.265 53.4347 17.8202C51.7805 17.1777 50.8783 15.9421 50.5775 14.2618C50.377 13.2734 50.4271 12.2849 50.7279 11.2965C51.3294 9.36903 52.7329 8.28176 54.738 8.03465C55.6904 7.88638 56.6428 7.9358 57.5451 8.18291C59.3997 8.72655 60.4524 9.9621 60.9035 11.7907C61.0038 12.1861 61.0539 12.6309 61.0539 12.878ZM53.3345 13.0262C53.4347 13.471 53.4848 13.9158 53.6352 14.3606C53.9861 15.3491 54.738 15.9421 55.7405 15.9421C56.743 15.9421 57.5451 15.4479 57.896 14.4595C58.2468 13.4216 58.2468 12.3838 57.7957 11.3953C57.4448 10.6046 56.8433 10.2092 55.9911 10.1598C55.0387 10.1104 54.2869 10.4069 53.8357 11.2471C53.4848 11.8401 53.3846 12.4332 53.3345 13.0262ZM61.9061 8.43002H63.46V6.7991C63.5101 5.71182 64.0615 5.06934 65.1643 4.72339C65.9663 4.47628 66.7683 4.5257 67.5202 4.67397C67.7207 4.67397 67.8711 4.72339 68.0716 4.77281V6.89795H67.42C66.4676 6.89795 66.2671 7.09563 66.2671 8.03465C66.2671 8.52886 66.2169 8.43002 66.6681 8.43002H68.1719V10.1598H66.2671V17.919H63.4099V10.2092H61.8559C61.9061 9.61614 61.9061 9.02308 61.9061 8.43002ZM80.3024 8.43002V10.1598H78.3976V15.0031C78.4478 15.3985 78.6483 15.5962 79.0493 15.5962H80.1521V17.5236C80.1521 17.6719 80.1019 17.7707 79.9014 17.8202C78.9992 17.9684 78.0969 18.0178 77.2447 17.8202C76.1921 17.573 75.5906 16.8811 75.5404 15.8433C75.4903 15.2996 75.4903 14.756 75.4903 14.2124V10.1104H74.3374C74.1369 10.1104 74.0868 10.0609 74.0868 9.86325V8.3806H75.4903V5.36587H78.3976V8.3806C79.0493 8.43002 79.6508 8.43002 80.3024 8.43002ZM110.629 4.82223H113.486V17.919H110.629V4.82223ZM46.9183 17.919H44.0611V8.23233H46.8682V9.27019C47.7203 8.52886 48.6727 8.23233 49.7254 8.13349V10.654C49.2742 10.7528 48.773 10.8023 48.3218 10.9011H48.2717C47.3193 11.0988 47.0185 11.4447 47.0185 12.4332V17.6225C46.9183 17.7213 46.9183 17.8202 46.9183 17.919ZM72.5329 17.919H69.7258V8.47944C69.7258 8.28176 69.7759 8.23233 69.9764 8.23233H72.583C72.5329 11.4447 72.5329 14.6572 72.5329 17.919ZM72.5329 6.94737H69.7258V4.77281H72.5329V6.94737Z" fill="#EAEAEA"></path></svg>