<svg xmlns="http://www.w3.org/2000/svg" width="128" height="28" viewBox="0 0 128 28" fill="none"><path d="M13.3351 0.849609C10.6974 0.84961 8.11896 1.62103 5.9259 3.0663C3.73284 4.51156 2.02365 6.56575 1.01452 8.96906C0.00539551 11.3724 -0.258346 14.0168 0.256657 16.568C0.77166 19.1191 2.04227 21.4623 3.90779 23.3012C5.77331 25.1402 8.14993 26.3922 10.7371 26.899C13.3242 27.4058 16.0056 27.1445 18.4422 26.1483C20.8787 25.1521 22.961 23.4657 24.4256 21.3023C25.8901 19.1389 26.6713 16.5958 26.6701 13.9946C26.6686 10.5078 25.263 7.16435 22.7623 4.69935C20.2617 2.23434 16.8707 0.849609 13.3351 0.849609ZM22.8971 14.1991C22.7931 14.249 22.6787 14.2743 22.563 14.273H16.1518L16.3189 14.9717C16.6645 16.4487 17.5804 20.3683 18.5596 20.3683H18.6115C19.3776 20.3683 19.7635 19.2776 20.6218 16.9031L21.0884 15.625V15.5113C21.1146 15.4362 21.1699 15.3743 21.2422 15.3392C21.3145 15.3041 21.3979 15.2986 21.4743 15.3239C21.512 15.3366 21.5467 15.3566 21.5765 15.3827C21.6062 15.4089 21.6304 15.4406 21.6475 15.476C21.6647 15.5115 21.6745 15.5499 21.6764 15.5891C21.6783 15.6284 21.6723 15.6676 21.6587 15.7045V15.8181C21.5665 16.1078 21.4801 16.4941 21.3649 16.9542C20.858 19.0333 20.0861 22.1747 18.1161 22.1747C16.8431 22.1747 16.0827 20.1638 15.7601 19.2946C15.1724 17.6625 14.6706 16.0016 14.2567 14.3184H8.42154L7.21188 18.1188C7.1213 18.2519 6.98229 18.3456 6.8236 18.3805C6.66492 18.4154 6.49871 18.3888 6.35936 18.3062C6.2708 18.2545 6.19791 18.1803 6.14827 18.0914C6.09863 18.0025 6.07406 17.9021 6.0771 17.8006L6.15199 17.3746C6.31903 16.3918 6.51488 15.375 6.72801 14.3525H4.27413C4.05712 14.3182 3.85902 14.2104 3.71393 14.0476C3.56883 13.8849 3.48583 13.6773 3.47922 13.4606C3.47743 13.2464 3.55291 13.0385 3.6922 12.8741C3.83148 12.7097 4.02549 12.5995 4.23957 12.5631C4.33523 12.5517 4.43193 12.5517 4.52759 12.5631H7.20036C8.47914 7.45051 9.95953 4.82038 11.6127 4.82038C13.2659 4.82038 14.6426 8.79683 15.6449 12.6937C17.7993 12.6937 20.0976 12.8074 22.3384 12.9664H22.563C22.6571 12.9827 22.7468 13.0175 22.827 13.0686C22.9072 13.1197 22.9762 13.1861 23.0299 13.264C23.0836 13.3418 23.1209 13.4295 23.1397 13.5218C23.1584 13.6141 23.1582 13.7092 23.1391 13.8015C23.0993 13.9544 23.0152 14.0926 22.8971 14.1991ZM34.0663 17.2553L33.0122 19.8343H29.9362L35.7886 6.3996H38.496L44.3196 19.8343H41.2724L40.2125 17.2553H34.0663ZM37.1135 9.77958L35.1204 14.6763H39.1526L37.1135 9.77958ZM61.6466 14.6536V19.8229H58.8471V14.8865C58.8471 13.3925 58.104 12.5858 56.8079 12.5858C56.4455 12.5964 56.0917 12.6973 55.7795 12.8791C55.4673 13.0609 55.2068 13.3176 55.0222 13.6254C55.0222 13.9662 55.0913 14.307 55.0971 14.6536V19.8229H52.3322V14.8865C52.3322 13.3925 51.5891 12.5801 50.27 12.5801C49.9169 12.6082 49.5757 12.7193 49.275 12.9041C48.9744 13.0889 48.723 13.3421 48.5419 13.6424V19.8173H45.777V10.4101H48.5534V10.9782C48.8632 10.683 49.2327 10.4556 49.6376 10.3107C50.0426 10.1659 50.474 10.1068 50.9036 10.1375C51.4866 10.1194 52.0664 10.2282 52.602 10.4559C53.1376 10.6837 53.6158 11.0249 54.0027 11.4554C54.4491 11.0008 54.9876 10.644 55.583 10.4082C56.1785 10.1723 56.8176 10.0627 57.4588 10.0863C59.7917 10.0863 61.6466 11.9041 61.6466 14.6536ZM73.8065 15.1251C73.8369 15.9959 73.6254 16.8583 73.1951 17.6192C72.7647 18.3802 72.1317 19.0107 71.3645 19.4428C70.5973 19.8749 69.725 20.0922 68.8417 20.0711C67.9584 20.0499 67.0978 19.7913 66.3527 19.3231V24.3618H63.582V10.4101H66.3527V10.9214C67.1655 10.4214 68.108 10.1649 69.0658 10.1829C70.3435 10.2038 71.5606 10.7242 72.4495 11.6296C73.3385 12.535 73.8265 13.7514 73.8065 15.0114V15.1251ZM71.0819 15.1251C71.1068 14.457 70.8617 13.8064 70.4005 13.3165C69.9393 12.8265 69.2997 12.5371 68.6223 12.512C68.1828 12.4969 67.7464 12.5897 67.3523 12.7821C66.9582 12.9744 66.6187 13.2603 66.3642 13.614V16.6361C66.6237 16.9831 66.9648 17.2626 67.3581 17.4507C67.7515 17.6387 68.1853 17.7296 68.6223 17.7154C68.9574 17.7059 69.2874 17.6313 69.5933 17.4959C69.8992 17.3605 70.175 17.167 70.405 16.9265C70.6351 16.6859 70.8148 16.403 70.9339 16.0939C71.053 15.7848 71.1092 15.4556 71.0992 15.1251H71.0819ZM78.1325 19.8343H75.3618V5.88834H78.1325V19.8343ZM80.6267 7.08695C80.728 6.72832 80.9455 6.41226 81.2462 6.18709C81.5468 5.96191 81.9139 5.84001 82.2914 5.84001C82.6689 5.84001 83.036 5.96191 83.3366 6.18709C83.6373 6.41226 83.8548 6.72832 83.9561 7.08695C83.8548 7.44558 83.6373 7.76164 83.3366 7.98682C83.036 8.21199 82.6689 8.3339 82.2914 8.3339C81.9139 8.3339 81.5468 8.21199 81.2462 7.98682C80.9455 7.76164 80.728 7.44558 80.6267 7.08695ZM83.6911 10.4442V19.8343H80.9147V10.4101L83.6911 10.4442ZM93.7486 19.7093C92.9295 20.0049 92.0632 20.1531 91.191 20.1467C88.8869 20.1467 87.372 18.5334 87.372 16.0964V12.7221H85.3501V10.4101H87.4123V7.05287H90.16V10.4101H93.5643V12.6824H90.16V16.0737C90.1272 16.4481 90.2426 16.8204 90.4821 17.1127C90.7216 17.405 91.0665 17.5945 91.4445 17.6416C91.5687 17.6585 91.6947 17.6585 91.8189 17.6416C92.3668 17.6237 92.9104 17.5397 93.4376 17.3916L93.7486 19.7093ZM104.895 19.8343H102.118V19.1413C101.353 19.7795 100.385 20.1332 99.3822 20.1411C96.8822 20.1411 95.206 18.3517 95.206 15.5966V10.4101H97.9709V15.3466C97.9709 16.8463 98.737 17.6529 100.033 17.6529C100.447 17.6173 100.848 17.4937 101.209 17.2907C101.57 17.0878 101.882 16.8102 102.124 16.4771V10.4101H104.901V19.8343H104.895ZM116.663 19.8343H113.91V19.3231C113.1 19.8267 112.159 20.0854 111.202 20.0672C110.45 20.0333 109.716 19.8315 109.055 19.477C108.394 19.1224 107.823 18.6245 107.385 18.0206C106.947 17.4167 106.654 16.7227 106.528 15.9909C106.402 15.2591 106.446 14.5087 106.657 13.7961C106.868 13.0836 107.24 12.4276 107.746 11.8777C108.251 11.3277 108.877 10.8981 109.575 10.6212C110.274 10.3444 111.027 10.2276 111.777 10.2796C112.528 10.3316 113.257 10.551 113.91 10.9214V5.88834H116.686L116.663 19.8343ZM113.91 16.6247V13.6197C113.653 13.271 113.313 12.9898 112.92 12.8007C112.528 12.6115 112.094 12.5202 111.657 12.5347C110.989 12.5783 110.363 12.8708 109.905 13.3528C109.448 13.8349 109.193 14.4705 109.193 15.1307C109.193 15.791 109.448 16.4266 109.905 16.9087C110.363 17.3907 110.989 17.6832 111.657 17.7268C112.096 17.7389 112.53 17.6447 112.923 17.4526C113.315 17.2604 113.654 16.9762 113.91 16.6247ZM127.901 15.8181H120.868C120.946 16.3957 121.246 16.9217 121.706 17.2875C122.165 17.6533 122.75 17.8309 123.339 17.7836C123.648 17.8173 123.96 17.7699 124.245 17.6462C124.529 17.5225 124.775 17.3269 124.958 17.0792H127.838C127.53 18.0183 126.915 18.8303 126.09 19.3884C125.265 19.9465 124.275 20.2192 123.276 20.1638C122.629 20.1873 121.983 20.085 121.376 19.8625C120.769 19.64 120.212 19.3017 119.738 18.8671C119.264 18.4324 118.881 17.9098 118.611 17.3292C118.341 16.7485 118.19 16.1212 118.166 15.4829V15.1251C118.102 13.8548 118.551 12.6111 119.415 11.6667C120.279 10.7222 121.487 10.1539 122.775 10.0863H123.218C123.824 10.0643 124.428 10.1604 124.996 10.369C125.564 10.5776 126.085 10.8946 126.528 11.302C126.972 11.7094 127.33 12.199 127.581 12.743C127.833 13.2869 127.973 13.8744 127.993 14.4718C128.002 14.6156 128.002 14.7597 127.993 14.9035C127.992 15.2105 127.961 15.5167 127.901 15.8181ZM120.885 14.2048H125.217C125.2 13.705 124.984 13.2321 124.615 12.8893C124.246 12.5465 123.754 12.3618 123.247 12.3756C122.694 12.3394 122.147 12.5062 121.711 12.8439C121.275 13.1815 120.981 13.6663 120.885 14.2048Z" fill="#EAEAEA"></path></svg>