<svg xmlns="http://www.w3.org/2000/svg" width="109" height="27" viewBox="0 0 109 27" fill="none"><path d="M9.5434 0.985352C11.0718 1.32789 11.9775 2.2984 12.6567 3.66855C13.1662 4.75325 13.8455 5.78086 14.4115 6.86555C14.8078 7.60772 14.6379 7.89316 13.8455 8.00734C11.751 8.29279 10.2227 9.32039 9.09056 11.0902C8.29808 12.3461 7.44899 13.6021 6.5999 14.801C5.75081 15.9998 4.50548 16.5707 3.03373 16.3424C1.56197 16.114 0.543066 15.2006 0.146825 13.7163C-0.136205 12.6887 -0.0229936 11.7181 0.599671 10.8047C2.46767 8.00734 4.33566 5.26705 6.14705 2.46967C6.71311 1.61333 7.61881 1.2708 8.58111 0.985352H9.5434ZM18.0909 14.3443C17.8645 14.9722 17.6947 15.7144 17.2984 16.2282C15.5436 18.9685 13.7322 21.6517 11.8642 24.3349C10.2227 26.6756 7.05275 26.5614 5.6376 24.0494L3.42997 20.1103C3.03373 19.4252 3.20354 19.0827 3.99603 18.9685C6.09045 18.683 7.73202 17.6554 8.86414 15.8286C9.65662 14.5726 10.4491 13.3737 11.3548 12.1749C12.2039 10.976 13.3926 10.4051 14.8644 10.6334C16.2795 10.8618 17.2418 11.7181 17.6947 13.0883C17.8079 13.4308 17.8079 13.8305 17.8645 14.2301C18.0343 14.2872 18.0909 14.3443 18.0909 14.3443ZM67.3946 10.4622C70.7344 8.80659 71.7533 8.86368 73.2817 10.8618C73.4515 10.6905 73.6213 10.5764 73.7911 10.4051C74.7534 9.49166 75.8855 9.20622 77.1309 9.37748C78.3762 9.54875 79.2819 10.4622 79.3385 11.7752C79.3951 14.1159 79.3385 16.4566 79.3951 18.8543C79.3951 19.2539 79.2253 19.3681 78.829 19.4252C76.7346 19.5965 76.7346 19.5965 76.7346 17.5413V13.3737C76.7346 12.1749 76.2818 11.6611 75.3195 11.6611C74.244 11.7181 73.4515 12.4603 73.4515 13.4308C73.4515 15.1435 73.3949 16.8562 73.4515 18.5118C73.4515 19.1398 73.3383 19.3681 72.659 19.3681C70.8476 19.3681 70.8476 19.3681 70.8476 17.5413V13.3737C70.8476 12.1749 70.3948 11.604 69.3759 11.604C68.2437 11.604 67.3946 12.4032 67.3946 13.4308C67.3946 15.1435 67.338 16.8562 67.3946 18.5118C67.3946 19.1398 67.1682 19.3681 66.5456 19.311C64.7908 19.311 64.7908 19.311 64.7908 17.4842C64.7908 15.0864 64.8474 12.6887 64.7908 10.348C64.7908 9.66293 65.0172 9.43457 65.6399 9.49166C65.8663 9.54875 66.0927 9.54875 66.3757 9.49166C66.9418 9.49166 67.5079 9.54875 67.3946 10.4622ZM30.2046 15.3148C30.3744 15.486 30.6008 15.6002 30.7706 15.7715C32.0726 16.8562 33.6009 17.1987 35.2425 17.0275C35.5821 16.9704 35.8652 16.8562 36.2048 16.6849C37.1105 16.114 37.1105 15.0864 36.1482 14.5726C35.4689 14.2301 34.6764 14.0588 33.9406 13.8305C33.0915 13.545 32.1858 13.3737 31.3367 13.0312C30.0347 12.4603 29.1857 11.5469 29.0724 10.0055C28.9592 8.34988 29.6385 7.09391 31.0537 6.23757C33.3179 4.92451 37.1671 5.32414 39.1483 7.03682C39.4313 7.32227 39.5445 7.49354 39.2615 7.83607C39.2049 7.89316 39.1483 7.95025 39.1483 8.00734C38.8087 8.46406 38.5256 9.14913 38.0728 9.3204C37.6765 9.43457 37.1105 8.92077 36.601 8.69241C35.6387 8.17861 34.5632 8.06443 33.4877 8.17861C32.6952 8.2357 32.1292 8.69241 32.0726 9.3204C31.9593 10.1196 32.5254 10.4051 33.1481 10.5764C33.9406 10.8047 34.733 10.976 35.5255 11.2043C36.2048 11.4327 36.9407 11.604 37.5633 11.8894C39.0917 12.5745 39.8842 13.6592 39.8276 15.429C39.771 17.1416 39.0351 18.5118 37.4501 19.0827C34.5632 20.2245 31.7895 19.8819 29.2423 18.0551C28.7894 17.7125 28.6196 17.4271 29.0158 16.9133C29.4121 16.4566 29.6951 15.9428 30.0347 15.486C30.0347 15.429 30.0914 15.429 30.2046 15.3148ZM87.6596 14.173C87.9426 12.289 87.2633 11.3756 85.5085 11.5469C84.5462 11.604 83.6405 12.0607 82.565 12.4032C82.3952 12.1178 82.1122 11.6611 81.8858 11.1473C81.8292 11.0331 81.999 10.6905 82.1688 10.5764C84.2066 9.20622 86.3576 8.92077 88.6219 9.89129C89.754 10.348 90.32 11.3756 90.32 12.5745C90.3766 14.6868 90.32 16.742 90.3766 18.8543C90.3766 19.3681 90.1502 19.4823 89.754 19.4823C89.3577 19.4823 88.9049 19.4252 88.5087 19.4823C87.9992 19.5394 87.7162 19.3681 87.7728 18.683C86.6973 19.5394 85.5651 19.8819 84.3198 19.7677C82.7915 19.6536 81.6027 18.626 81.2631 17.1987C80.9801 15.7144 81.5461 14.3443 82.7915 13.7163C84.2066 13.0883 85.6217 13.1454 87.0369 13.8875C87.2633 13.8875 87.4331 14.0017 87.6596 14.173ZM85.9614 14.9722C85.5651 15.0293 85.3953 15.0293 85.2255 15.0293C84.433 15.1435 83.867 15.7144 83.8104 16.3995C83.7538 17.0845 84.2632 17.7125 85.1123 17.7696C85.7916 17.8267 86.4708 17.6554 87.0935 17.4842C87.603 17.37 87.6596 16.8562 87.6596 16.3995C87.6596 15.8857 87.4897 15.5431 87.0369 15.3719C86.6973 15.1435 86.2444 15.0293 85.9614 14.9722ZM55.7338 15.3148C55.7338 17.4842 57.9415 18.0551 60.9982 16.6278C61.168 16.8562 61.3378 17.0845 61.451 17.3129C62.1303 18.3405 62.1303 18.4547 61.0548 18.9685C59.3 19.7677 57.5452 19.939 55.7338 19.1969C53.7526 18.3405 52.7903 16.5707 52.8469 14.0588C52.9035 12.0607 54.1489 10.2338 56.0735 9.54875C58.0547 8.80659 60.2057 9.3204 61.5076 10.8618C62.4699 11.9465 62.8096 13.2596 62.753 14.6868C62.753 15.2006 62.4133 15.2577 62.0171 15.2577H56.5263C56.2999 15.3148 56.0169 15.3148 55.7338 15.3148ZM55.6772 13.4308H60.2057C60.0359 12.1178 59.1302 11.3185 57.8849 11.3756C56.5829 11.4327 55.7338 12.232 55.6772 13.4308ZM107.302 16.742C107.415 16.9133 107.528 17.0845 107.698 17.3129C108.434 18.3976 108.434 18.5118 107.245 19.0256C105.547 19.8248 103.736 19.939 101.981 19.1969C99.9996 18.3405 99.0374 16.5707 99.094 14.0588C99.1506 12.0607 100.452 10.2909 102.32 9.60584C104.302 8.86368 106.453 9.37748 107.755 10.9189C108.717 12.0036 109 13.3166 109 14.7439C109 15.2577 108.66 15.2577 108.264 15.2577H102.66C101.868 15.2577 101.754 15.429 102.151 16.1711C102.66 17.1416 103.849 17.7696 105.038 17.4842C105.773 17.37 106.453 17.0275 107.302 16.742ZM101.924 13.4879H106.396C106.396 12.289 105.49 11.4327 104.245 11.3756C102.943 11.3185 101.981 12.1749 101.924 13.4879ZM47.1297 14.9152C47.1297 14.173 47.0731 13.4308 47.1297 12.6316C47.1863 12.0607 46.9599 11.7752 46.3938 11.8894C45.658 12.0036 45.4316 11.6611 45.4882 10.976C45.5448 10.8047 45.5448 10.5764 45.4882 10.4051C45.4316 9.77711 45.658 9.49166 46.2806 9.60584C46.9033 9.72002 47.1863 9.43457 47.0731 8.80659V8.7495C47.0731 6.75137 47.1863 6.6372 49.1675 6.92264C49.3374 6.97973 49.6204 7.26518 49.6204 7.43645C49.677 7.95025 49.677 8.46406 49.677 8.97786C49.677 9.43458 49.7902 9.60584 50.2997 9.60584C51.7714 9.66293 51.7148 9.66293 51.7148 11.1473C51.7148 11.7752 51.4884 12.0036 50.8657 11.9465H50.2431C49.8468 11.9465 49.677 12.1178 49.677 12.5174V16.2282C49.7336 17.1416 50.0732 17.4271 50.9789 17.2558C51.3752 17.1987 51.4884 17.3129 51.6016 17.6554C52.1677 19.1398 51.828 19.6536 50.2997 19.7107C49.7336 19.7107 49.1675 19.7107 48.6581 19.5394C47.6392 19.2539 47.1297 18.4547 47.0731 17.37V17.1987C47.1297 16.3995 47.1297 15.6573 47.1297 14.9152ZM93.3768 14.9152V12.6316C93.3768 12.1178 93.2635 11.8323 92.6975 11.8894C91.905 12.0036 91.6786 11.604 91.7352 10.8618C91.7918 10.6905 91.7352 10.5193 91.7352 10.348C91.6786 9.77711 91.905 9.43458 92.5277 9.54875C93.2635 9.66293 93.3768 9.32039 93.3768 8.63532C93.3768 6.52302 92.9239 6.86555 95.3014 6.80846C95.8108 6.80846 96.0938 6.97973 96.0372 7.55063V7.89316C96.0938 8.40697 95.924 9.03495 96.1505 9.37748C96.3769 9.66293 97.0561 9.49166 97.509 9.60584C97.7354 9.66293 97.8486 9.94838 98.0184 10.1196C98.0751 10.1767 98.0184 10.348 98.0184 10.4622C98.0184 11.9465 98.1883 11.8894 96.7165 11.8894C96.2637 11.8894 96.0372 12.0607 96.0372 12.5745C96.0938 13.7734 96.0372 14.9722 96.0372 16.1711C96.0372 17.1416 96.4335 17.37 97.3392 17.3129C97.509 17.3129 97.8486 17.4842 97.9052 17.5984C98.5279 19.0256 98.1883 19.5965 96.6033 19.7107H95.641C94.2259 19.5965 93.3768 18.683 93.3768 17.3129V14.9152ZM44.2428 14.4584V18.626C44.2428 19.1969 44.073 19.4252 43.507 19.4252C41.639 19.4252 41.639 19.4823 41.639 17.5413V10.4051C41.639 9.8342 41.8088 9.60584 42.4314 9.60584C44.2994 9.60584 44.2994 9.54875 44.2994 11.4327C44.2428 12.4032 44.2428 13.4308 44.2428 14.4584ZM44.4126 6.46593C44.4126 7.37936 43.8466 8.00734 42.8843 8.00734C41.9786 8.00734 41.3559 7.37936 41.3559 6.46593C41.3559 5.60959 42.0352 4.92452 42.8843 4.92452C43.79 4.92452 44.4126 5.5525 44.4126 6.46593Z" fill="#EAEAEA"></path></svg>