<svg xmlns="http://www.w3.org/2000/svg" width="115" height="26" viewBox="0 0 115 26" fill="none"><path d="M12.6267 8.32617H8.93688L6.32526 15.4901L3.66582 8.32617H0L4.88776 20.0902H7.76285L12.6267 8.32617Z" fill="#EAEAEA"></path><path d="M23.8584 13.6934C23.8584 10.5547 21.3666 8.08691 18.18 8.08691C14.7538 8.08691 12.0703 10.7224 12.0703 14.1486C12.0703 17.6467 14.8017 20.3302 18.2519 20.3302C20.6957 20.3302 22.6604 19.4197 23.5229 17.8623L20.8874 16.2571C20.4801 16.9758 19.378 17.455 18.3237 17.455C16.7185 17.455 15.6164 16.6165 15.3048 15.0112H23.7625C23.8345 14.556 23.8584 14.1007 23.8584 13.6934ZM15.3528 12.8548C15.6643 11.585 16.5987 10.8183 18.0123 10.8183C19.2582 10.8183 20.3364 11.6808 20.4801 12.8548H15.3528Z" fill="#EAEAEA"></path><path d="M28.5267 3.31934H25.1484V20.0909H28.5267V3.31934Z" fill="#EAEAEA"></path><path d="M35.8206 8.08691C32.3464 8.08691 29.7109 10.7224 29.7109 14.2205C29.7109 17.7186 32.3464 20.3302 35.8206 20.3302C39.2707 20.3302 41.9303 17.7186 41.9303 14.2205C41.9303 10.7224 39.2707 8.08691 35.8206 8.08691ZM35.8206 11.3214C37.4019 11.3214 38.6238 12.5434 38.6238 14.2205C38.6238 15.8498 37.4019 17.0956 35.8206 17.0956C34.2153 17.0956 33.0173 15.8498 33.0173 14.2205C33.0173 12.5434 34.2153 11.3214 35.8206 11.3214Z" fill="#EAEAEA"></path><path d="M54.3294 16.9519L51.3345 15.6102C50.8794 16.5446 49.9449 17.0956 48.7948 17.0956C47.1177 17.0956 45.9198 15.8498 45.9198 14.2205C45.9198 12.5673 47.1177 11.3214 48.7948 11.3214C49.8251 11.3214 50.6877 11.8246 51.119 12.6152L53.9701 10.986C53.0357 9.23691 51.0949 8.08691 48.7948 8.08691C45.2728 8.08691 42.6133 10.7224 42.6133 14.2205C42.6133 17.7186 45.2728 20.3302 48.7948 20.3302C51.3106 20.3302 53.443 18.9885 54.3294 16.9519Z" fill="#EAEAEA"></path><path d="M57.0606 2.62402C55.9344 2.62402 55 3.55846 55 4.66056C55 5.7867 55.9344 6.72105 57.0606 6.72105C58.1866 6.72105 59.1211 5.7867 59.1211 4.66056C59.1211 3.55846 58.1866 2.62402 57.0606 2.62402ZM55.3834 8.32638V20.0904H58.7616V8.32638H55.3834Z" fill="#EAEAEA"></path><path d="M68.0158 16.9525C67.7522 17.0484 67.297 17.1202 66.9616 17.1202C65.9792 17.1202 65.1406 16.4254 65.1406 15.3233V11.5377H68.0397V8.32715H65.1406V5.23633H61.7624V8.32715H59.582V11.5377H61.7624V15.491C61.7624 18.5339 63.7031 20.2829 66.4584 20.2829C67.0813 20.2829 67.7522 20.1631 68.1835 19.9474L68.0158 16.9525Z" fill="#EAEAEA"></path><path d="M77.3219 8.32617L74.7106 15.2025L72.0988 8.32617H68.457L72.9856 19.1318L70.805 23.9957H74.4227L80.9638 8.32617H77.3219Z" fill="#EAEAEA"></path><path fill-rule="evenodd" clip-rule="evenodd" d="M90.7879 0.0302734C89.8325 0.0302734 89.0586 0.804492 89.0586 1.7596V19.0528C89.0586 22.8732 92.1558 25.9701 95.9759 25.9701H108.081C111.901 25.9701 114.998 22.8732 114.998 19.0528V6.94757C114.998 3.12723 111.901 0.0302734 108.081 0.0302734H90.7879ZM95.9759 10.2236C95.9759 7.01311 98.7074 4.35358 101.99 4.35358C105.296 4.35358 108.003 7.01311 108.003 10.2236C108.003 11.3258 107.596 12.8113 106.686 14.2728L102.278 21.3648H98.2283L101.774 15.7583C101.63 15.7822 101.486 15.7822 101.343 15.7822C98.2759 15.7822 95.9759 13.4342 95.9759 10.2236ZM99.4259 10.2476C99.4259 11.6612 100.553 12.7873 102.014 12.7873C103.428 12.7873 104.529 11.6612 104.529 10.2476C104.529 8.834 103.403 7.7319 101.99 7.7319C100.553 7.7319 99.4259 8.834 99.4259 10.2476Z" fill="#EAEAEA"></path></svg>