<svg xmlns="http://www.w3.org/2000/svg" width="94" height="29" viewBox="0 0 94 29" fill="none"><path d="M0 13.0754C0.110481 12.3573 0.276203 11.6392 0.386684 10.921C0.662886 9.65051 1.21529 8.43521 1.87818 7.33041C2.0439 7.0542 2.20962 6.94372 2.48582 6.94372H4.30876C4.41924 6.94372 4.52972 6.94372 4.69544 6.99896C4.364 7.49613 4.0878 7.88281 3.81159 8.32474C1.54673 12.3573 1.49149 16.3898 3.86683 20.4224C5.30309 22.853 7.40223 24.455 10.0538 25.3388C10.5509 25.5045 10.8824 25.7255 11.1033 26.2227C11.3795 26.7751 11.711 27.2722 12.0424 27.8246C12.0424 27.8799 12.0424 27.9351 12.0977 28.0456C11.8215 28.0456 11.6005 27.9903 11.3795 27.9903C5.46881 26.996 0.773368 22.0796 0.0552417 16.0584C0.0552417 15.9479 0 15.8927 0 15.7822V13.0754ZM13.2577 28.2113C12.8158 27.4932 12.3739 26.7751 11.9319 25.9465C12.1529 25.9465 12.2634 25.8912 12.4291 25.9465C15.7435 26.3331 18.7265 25.5045 21.2676 23.4054C23.5877 21.5272 24.9687 19.0414 25.4106 16.0584C25.6316 14.6774 25.5763 13.3516 25.3001 11.9706C25.2449 11.7496 25.3001 11.4182 25.4106 11.1972C25.6868 10.6448 26.0183 10.1477 26.2945 9.59527C26.4049 9.42955 26.5154 9.26382 26.6812 8.98762C26.7916 9.26382 26.8469 9.3743 26.9021 9.54002C28.5593 14.5669 27.8412 19.1519 24.4715 23.2397C22.1514 26.0569 19.1132 27.6037 15.5226 28.1008C15.4121 28.1008 15.3569 28.1561 15.2464 28.1561C14.5835 28.2113 13.9206 28.2113 13.2577 28.2113ZM57.3949 12.4125C58.334 11.4734 59.3835 10.9763 60.5436 10.9763C61.7589 10.9763 62.7532 11.4182 63.3056 12.6335C63.7475 12.2468 64.1894 11.8601 64.6314 11.5839C65.7362 10.921 66.8962 10.7553 68.1115 11.2525C69.1058 11.6392 69.5478 12.523 69.603 13.5173C69.6582 16.0032 69.603 18.4337 69.603 20.9196C69.603 21.1958 69.4925 21.3062 69.2163 21.3062H67.2829C66.8962 21.3062 66.8962 21.0853 66.8962 20.8091V15.0088C66.8962 13.6831 66.0676 13.2411 64.9076 13.5726C64.4656 13.6831 64.079 13.9593 63.7475 14.2907C63.5818 14.4564 63.4713 14.7879 63.4713 15.0088V20.7538C63.4713 21.3062 63.4713 21.3062 62.9189 21.3062H61.3169C60.9303 21.3062 60.7645 21.1958 60.7645 20.8091V15.0641C60.7645 14.6774 60.6541 14.2907 60.4883 13.9593C60.2674 13.5173 59.8254 13.4621 59.3283 13.4621C58.5549 13.4621 58.0025 13.8488 57.5606 14.4012C57.4501 14.5669 57.3949 14.7879 57.3949 15.0088V20.7538C57.3949 21.3062 57.3949 21.3062 56.7872 21.3062H55.2405C54.8538 21.3062 54.6881 21.1958 54.7433 20.8091V11.6944C54.7433 11.4182 54.8538 11.2525 55.1852 11.2525H57.0082C57.3396 11.2525 57.4501 11.4182 57.4501 11.7496C57.3949 11.8601 57.3949 12.0811 57.3949 12.4125ZM74.7404 20.091V24.5102C74.7404 24.8969 74.6299 25.0626 74.2432 25.0626H72.5307C72.1441 25.0626 72.0336 24.9521 72.0336 24.5654V11.8049C72.0336 11.2525 72.0336 11.1972 72.586 11.1972H74.188C74.5746 11.1972 74.7404 11.3077 74.6851 11.6944V12.302C74.7956 12.2468 74.8509 12.1916 74.9061 12.1916C76.8948 10.2029 80.4301 10.8106 81.535 13.5726C82.4188 15.7822 82.3636 17.9918 80.9826 19.9805C79.6015 21.9691 76.729 22.1349 74.9613 20.4776C74.9613 20.3119 74.9061 20.2567 74.7404 20.091ZM79.4911 16.2794C79.4358 15.285 79.0491 14.3459 78.552 13.904C77.5024 12.9649 75.7347 13.4069 75.0718 14.7879C74.5746 15.8927 74.6299 17.0527 75.2928 18.0471C75.7899 18.7652 76.5633 19.0966 77.4472 19.0414C78.2205 18.9861 78.7729 18.5442 79.0491 17.8261C79.2701 17.3289 79.3253 16.8318 79.4911 16.2794ZM93.7983 16.2794C93.8536 19.0966 91.9202 21.5272 88.6057 21.5272C85.4018 21.5272 83.3579 19.3728 83.3026 16.2794C83.2474 13.2411 85.5123 11.0315 88.5505 11.0315C91.644 10.9763 93.7983 13.1859 93.7983 16.2794ZM91.0916 15.9479C91.0916 15.506 90.9258 14.8431 90.4839 14.2907C89.6001 13.0754 87.5562 13.1307 86.7276 14.3459C86.0094 15.3955 85.9542 16.5556 86.4514 17.6604C87.0038 18.9862 88.661 19.4833 89.8763 18.7099C90.7601 18.1575 91.0363 17.2185 91.0916 15.9479ZM45.7391 17.108C45.7944 18.1575 46.6782 19.0966 47.783 19.2623C48.8326 19.4281 49.8269 19.2071 50.7108 18.5995C50.987 18.3785 51.1527 18.4337 51.3184 18.7099C51.5394 19.0966 51.7603 19.4281 52.0365 19.7595C52.2023 20.0357 52.147 20.1462 51.9261 20.3119C51.0975 20.9196 50.1584 21.251 49.164 21.4167C47.5621 21.6377 46.0706 21.3615 44.7448 20.3672C43.5847 19.4833 43.0323 18.268 42.9219 16.8318C42.7561 15.3403 43.0876 13.9593 44.0819 12.744C45.4077 11.1972 47.0649 10.7001 48.9983 11.0315C50.8765 11.363 52.0918 12.5783 52.5889 14.4012C52.8099 15.0641 52.8651 15.7822 52.9204 16.5003C52.9756 16.9975 52.9204 17.0527 52.368 17.0527H46.1258C46.0153 17.108 45.9048 17.108 45.7391 17.108ZM47.9487 15.2298H49.8269C50.3241 15.2298 50.3793 15.1193 50.2136 14.6774C49.8269 13.6278 49.0536 13.1307 47.7278 13.1859C46.7334 13.2411 45.9601 13.904 45.6839 14.8431C45.6286 15.1193 45.7391 15.2298 45.9601 15.2298H47.9487ZM36.8454 15.6165V10.5896C36.8454 10.2029 36.7349 10.0924 36.3482 10.0924H33.3653C33.0338 10.0924 32.8681 9.98195 32.8681 9.59527V7.88281C32.8681 7.49613 32.9786 7.38565 33.3653 7.38565H43.1981C43.5847 7.38565 43.7505 7.49613 43.7505 7.93805C43.6952 8.43522 43.7505 8.98762 43.7505 9.48479C43.7505 10.0372 43.7505 10.0372 43.1981 10.0372H40.436C39.8836 10.0372 39.8284 10.0372 39.8284 10.5896V20.5329C39.8284 21.1405 39.8284 21.1405 39.1655 21.1958H37.2873C36.9559 21.1958 36.8454 21.0853 36.8454 20.7538V15.6165ZM2.76202 6.05988C3.09347 5.61795 3.42491 5.17603 3.81159 4.78934C6.13169 2.46924 8.94896 1.03299 12.2634 0.646308C15.0807 0.314865 17.7874 0.81203 20.3285 2.1378C22.8143 3.46357 24.7477 5.34175 26.0735 7.82757C26.1287 7.93805 26.184 8.15901 26.1287 8.26949L24.9687 10.2582C24.9687 10.3134 24.9135 10.3134 24.803 10.3686C24.7477 10.2029 24.6925 10.0924 24.582 9.98195C22.8143 6.05988 19.8313 3.68453 15.6331 2.96641C12.2081 2.414 9.05944 3.24261 6.4079 5.50747C5.68977 6.11512 5.02688 6.33608 4.19828 6.28084C3.70111 6.2256 3.25919 6.28084 2.76202 6.28084V6.05988Z" fill="#EAEAEA"></path><path d="M12.0986 14.9538C12.2643 14.8434 12.3748 14.7329 12.4853 14.6224C14.253 12.8547 16.0207 11.087 17.8436 9.31931C18.2303 8.93263 18.3408 8.93263 18.6722 9.31931L20.3847 11.0318C20.7161 11.3632 20.7161 11.4737 20.3847 11.8051L12.5405 19.6493C12.2643 19.9255 12.0434 19.9255 11.7672 19.6493C10.3862 18.2683 8.94991 16.8873 7.56889 15.5062C7.23745 15.1748 7.23745 15.0643 7.56889 14.6776L9.28135 12.9652C9.61279 12.6337 9.72327 12.6337 10.0547 12.9652L11.7672 14.6776C11.8224 14.6776 11.9329 14.7881 12.0986 14.9538Z" fill="#EAEAEA"></path></svg>