<svg xmlns="http://www.w3.org/2000/svg" width="45" height="40" viewBox="0 0 45 40" fill="none"><path opacity="0.05" d="M44.6684 26.2632L22.3342 39.342L0 26.2632L22.3342 13.1845L44.6684 26.2632Z" fill="url(#paint0_linear_2415_5470)"></path><path d="M22.3641 31.7124L44.638 18.7547V21.4794L22.6056 34.649L22.3641 31.7124Z" fill="url(#paint1_linear_2415_5470)"></path><path d="M0 21.4496V18.7249L22.6058 30.4715V34.6495L0 21.4496Z" fill="url(#paint2_linear_2415_5470)"></path><path d="M44.6382 18.7548L22.6058 31.8033L0 18.7246L22.3342 5.64581L44.6382 18.7548Z" fill="url(#paint3_linear_2415_5470)"></path><path opacity="0.3" fill-rule="evenodd" clip-rule="evenodd" d="M22.4246 26.1118L21.9417 25.8393L18.7726 27.6861L17.8068 23.4476L8.23934 17.9073C7.183 17.3018 7.183 16.3028 8.23934 15.667L18.3501 9.79366C19.5574 9.18816 21.0061 9.18816 22.2133 9.79366L36.3986 17.9981C37.4549 18.6036 37.4549 19.6027 36.3986 20.2385L26.2878 26.1118C25.0805 26.7476 23.6318 26.7476 22.4246 26.1118Z" fill="white"></path><path fill-rule="evenodd" clip-rule="evenodd" d="M22.4242 22.3272L21.9413 22.0547L18.6817 23.9923L18.561 17.6346C18.561 17.6346 21.1566 5.40355 22.2431 6.03932L37.3941 10.0053C37.3941 10.0053 37.3941 14.8796 37.3941 15.2732C37.3941 15.6667 36.9112 16.1209 36.3982 16.4539L26.2874 22.3272C25.0801 22.9327 23.6314 22.9327 22.4242 22.3272Z" fill="url(#paint4_linear_2415_5470)"></path><path fill-rule="evenodd" clip-rule="evenodd" d="M18.6824 24.0228L17.8072 19.633L8.23967 14.123C7.69641 13.8202 7.48514 13.3964 7.51532 12.9725C7.5455 12.5487 7.51532 7.52304 7.51532 7.52304L18.6824 14.456V24.0228Z" fill="url(#paint5_linear_2415_5470)"></path><path fill-rule="evenodd" clip-rule="evenodd" d="M22.4253 16.9991L21.9424 16.7266L18.6828 18.5431L17.8075 14.3046L8.33059 8.82486C7.27424 8.21936 7.27424 7.22029 8.33059 6.58452L18.3508 0.711196C19.5581 0.105698 21.0068 0.105698 22.214 0.711196L36.5803 8.94596C37.6367 9.55146 37.6367 10.5505 36.5803 11.1863L26.2885 16.9991C25.0812 17.6046 23.6325 17.6046 22.4253 16.9991Z" fill="url(#paint6_linear_2415_5470)"></path><path fill-rule="evenodd" clip-rule="evenodd" d="M20.0099 9.76363L23.3298 10.0664L28.5814 10.5508L24.7785 8.34071L27.2232 5.55542L22.4244 6.97834L18.6215 4.76827L19.4666 7.85631L14.6678 9.27923L20.0099 9.76363L20.855 12.8214L22.7564 10.6719L20.0099 9.76363Z" fill="url(#paint7_linear_2415_5470)"></path><defs><linearGradient id="paint0_linear_2415_5470" x1="8.54881" y1="36.2695" x2="35.5882" y2="16.7672" gradientUnits="userSpaceOnUse"><stop></stop><stop offset="1"></stop></linearGradient><linearGradient id="paint1_linear_2415_5470" x1="22.3641" y1="19.9177" x2="45.7585" y2="23.0478" gradientUnits="userSpaceOnUse"><stop stop-color="#0082F8"></stop><stop offset="1" stop-color="#1C40F2"></stop></linearGradient><linearGradient id="paint2_linear_2415_5470" x1="-1.57891e-07" y1="19.8901" x2="23.7322" y2="23.1066" gradientUnits="userSpaceOnUse"><stop stop-color="#0082F8"></stop><stop offset="1" stop-color="#1C40F2"></stop></linearGradient><linearGradient id="paint3_linear_2415_5470" x1="-0.224846" y1="18.7262" x2="44.2446" y2="18.7262" gradientUnits="userSpaceOnUse"><stop stop-color="#1C40F2"></stop><stop offset="0.9833" stop-color="#03F8FB"></stop></linearGradient><linearGradient id="paint4_linear_2415_5470" x1="38.7544" y1="14.9998" x2="44.7696" y2="14.9998" gradientUnits="userSpaceOnUse"><stop stop-color="#E7E9E9"></stop><stop offset="1" stop-color="#98AACD"></stop></linearGradient><linearGradient id="paint5_linear_2415_5470" x1="-7.3509" y1="15.7696" x2="9.08638" y2="15.7696" gradientUnits="userSpaceOnUse"><stop stop-color="#989AAD"></stop><stop offset="1" stop-color="#98A0B7"></stop></linearGradient><linearGradient id="paint6_linear_2415_5470" x1="33.4628" y1="9.39687" x2="3.61973" y2="9.39384" gradientUnits="userSpaceOnUse"><stop stop-color="#CDD3DB"></stop><stop offset="1" stop-color="#ACB0C2"></stop></linearGradient><linearGradient id="paint7_linear_2415_5470" x1="14.6678" y1="5.35753" x2="29.1489" y2="7.74625" gradientUnits="userSpaceOnUse"><stop stop-color="#0082F8"></stop><stop offset="1" stop-color="#1C40F2"></stop></linearGradient></defs></svg>