<svg xmlns="http://www.w3.org/2000/svg" width="40" height="40" viewBox="0 0 40 40" fill="none"><g clip-path="url(#clip0_2470_42)"><path d="M7.28573 19.6777H13.7501C14.7894 19.6387 14.7798 18.1499 13.7501 18.1152H7.28573C5.25002 18.1152 3.59385 16.4591 3.59385 14.4234C3.59385 12.6222 4.93666 11.054 6.71744 10.7756C7.05651 10.7226 7.32127 10.4546 7.3701 10.1148C8.54448 1.6164 19.6356 -1.49031 25.0088 5.2332C25.2109 5.48062 25.5433 5.58015 25.8482 5.48422C28.7881 4.51375 31.9846 6.84445 31.9332 9.95031C31.9333 10.3817 32.2831 10.7315 32.7146 10.7315C37.5996 10.9141 37.6097 17.9284 32.7145 18.1152H26.2501C25.8186 18.1152 25.4689 18.465 25.4689 18.8964C25.4689 19.3278 25.8186 19.6777 26.2501 19.6777H32.7146C39.2285 19.4946 39.841 10.2959 33.4535 9.22078C33.0855 5.63773 29.4544 3.01406 25.8884 3.85711C19.5967 -3.26352 7.68276 0.0306233 5.9144 9.35203C0.0668981 11.086 1.15323 19.5387 7.28573 19.6777Z" fill="#000F57"></path><path d="M38.4257 29.4748H31.969L31.7492 28.8182C31.4668 27.9753 30.8424 27.4919 30.0359 27.4919H25.624C24.7559 27.4919 24.0496 28.1981 24.0496 29.0662V32.9606H20.7813V26.3184C20.7813 25.887 20.4315 25.5371 20 25.5371C19.5686 25.5371 19.2188 25.887 19.2188 26.3184V32.9606H15.9504V31.0491C15.9504 30.181 15.2442 29.4748 14.3761 29.4748H7.91936L7.69952 28.8182C7.41725 27.9753 6.79288 27.4919 5.98632 27.4919H1.57445C0.706327 27.4919 0 28.1981 0 29.0662V38.4174C0 39.2855 0.706249 39.9918 1.57437 39.9918H14.3761C15.2442 39.9918 15.9504 39.2855 15.9504 38.4174V34.523H24.0496V38.4174C24.0496 39.2855 24.7558 39.9918 25.6239 39.9918H38.4257C39.2938 39.9918 40.0001 39.2855 40.0001 38.4174V31.0491C40 30.181 39.2938 29.4748 38.4257 29.4748ZM14.3879 38.4175C14.3896 38.4522 1.58632 38.4175 1.57437 38.4294C1.55101 38.4193 1.55195 29.0644 1.57437 29.0544H5.98632C6.05069 29.0544 6.13085 29.0544 6.21788 29.3144L6.61631 30.5042C6.72296 30.8226 7.02124 31.0373 7.35709 31.0373C7.36905 31.0491 14.3893 31.0147 14.3879 31.0491C14.3879 31.0491 14.3879 38.4175 14.3879 38.4175ZM38.4375 38.4175C38.4391 38.4522 25.6359 38.4175 25.6239 38.4294C25.6006 38.4193 25.6015 29.0644 25.6239 29.0544H30.0358C30.1002 29.0544 30.1803 29.0544 30.2674 29.3144L30.6659 30.5042C30.7725 30.8226 31.0708 31.0373 31.4067 31.0373C31.4186 31.0491 38.4389 31.0147 38.4374 31.0491C38.4375 31.0491 38.4375 38.4175 38.4375 38.4175Z" fill="#000F57"></path><path fill-rule="evenodd" clip-rule="evenodd" d="M16.332 10.6934C16.332 12.7191 14.6897 14.3614 12.6639 14.3614C12.6639 19.9746 13.6026 25.3854 20 27.0996C26.3975 25.3854 27.3361 19.9747 27.3361 14.3614C25.3103 14.3614 23.6681 12.7191 23.6681 10.6934H16.332Z" fill="url(#paint0_linear_2470_42)"></path><path d="M21.5629 17.334C21.5629 16.4709 20.863 15.7712 19.9998 15.7715C18.399 15.7806 17.8552 17.8973 19.2186 18.6872V20.459C19.2186 20.8904 19.5684 21.2402 19.9998 21.2402C20.4313 21.2402 20.7811 20.8904 20.7811 20.459V18.6877C21.2484 18.4177 21.5629 17.9126 21.5629 17.334Z" fill="white"></path></g><defs><linearGradient id="paint0_linear_2470_42" x1="12.6639" y1="11.8938" x2="28.2366" y2="13.2235" gradientUnits="userSpaceOnUse"><stop stop-color="#0082F8"></stop><stop offset="1" stop-color="#1C40F2"></stop></linearGradient><clipPath id="clip0_2470_42"><rect width="40" height="40" fill="white"></rect></clipPath></defs></svg>