<svg xmlns="http://www.w3.org/2000/svg" width="53" height="59" viewBox="0 0 53 59" fill="none"><path opacity="0.15" d="M0.435547 46.3821L22.6258 59.0001L51.7778 41.683L30.1967 29.0649L0.435547 46.3821Z" fill="#515151"></path><path d="M23.1475 43.3363L0 31.5015V37.5929L22.6254 50.2109L23.1475 43.3363Z" fill="#950238"></path><path d="M52.2121 32.8938V26.7153L22.625 42.5531V50.2109L52.2121 32.8938Z" fill="#E30858"></path><path d="M0 31.5015L22.5384 44.3806L52.2125 26.7154L30.1962 13.9233L0 31.5015Z" fill="url(#paint0_linear_2283_3731)"></path><path d="M23.1475 29.3259L0 17.5781V23.6696L22.7124 36.2876L23.1475 29.3259Z" fill="url(#paint1_linear_2283_3731)"></path><path d="M52.2121 18.8834V12.792L22.625 28.6298V36.2876L52.2121 18.8834Z" fill="url(#paint2_linear_2283_3731)"></path><path d="M0 17.5782L22.5384 30.3703L52.2125 12.7921L30.1962 0L0 17.5782Z" fill="url(#paint3_linear_2283_3731)"></path><path fill-rule="evenodd" clip-rule="evenodd" d="M13.4011 20.7978C14.4454 20.2757 15.5766 20.2757 16.6209 20.7978C17.143 20.9719 17.4041 21.581 17.23 22.1032C17.143 22.3642 16.882 22.6253 16.6209 22.7123C15.5766 23.2344 14.4454 23.2344 13.4011 22.7123C12.879 22.5383 12.6179 21.9291 12.792 21.407C12.879 21.1459 13.1401 20.8849 13.4011 20.7978Z" fill="#FF0766"></path><path d="M9.91992 15.1416L25.8447 24.3658L46.0335 12.4439L30.1958 3.21973L9.91992 15.1416Z" fill="url(#paint4_linear_2283_3731)"></path><defs><linearGradient id="paint0_linear_2283_3731" x1="19" y1="40" x2="47.5" y2="18.5" gradientUnits="userSpaceOnUse"><stop stop-color="#FF0766"></stop><stop offset="1" stop-color="#670A18"></stop></linearGradient><linearGradient id="paint1_linear_2283_3731" x1="-4.35104" y1="26.9396" x2="18.8052" y2="26.9396" gradientUnits="userSpaceOnUse"><stop stop-color="#989AAD"></stop><stop offset="1" stop-color="#98A0B7"></stop></linearGradient><linearGradient id="paint2_linear_2283_3731" x1="59.9372" y1="24.5401" x2="60.4592" y2="24.5401" gradientUnits="userSpaceOnUse"><stop stop-color="#E7E9E9"></stop><stop offset="1" stop-color="#98AACD"></stop></linearGradient><linearGradient id="paint3_linear_2283_3731" x1="41.1249" y1="26.0622" x2="11.6865" y2="4.75786" gradientUnits="userSpaceOnUse"><stop stop-color="#CDD3DB"></stop><stop offset="1" stop-color="#ACB0C2"></stop></linearGradient><linearGradient id="paint4_linear_2283_3731" x1="28.7527" y1="14.1289" x2="-7.54367" y2="-2.96197" gradientUnits="userSpaceOnUse"><stop stop-color="#E7E9E9"></stop><stop offset="0.23" stop-color="#DADFE4"></stop><stop offset="0.66" stop-color="#B8C3D8"></stop><stop offset="1" stop-color="#98AACD"></stop></linearGradient></defs></svg>