<svg xmlns="http://www.w3.org/2000/svg" width="181" height="77" viewBox="0 0 181 77" fill="none"><path fill-rule="evenodd" clip-rule="evenodd" d="M174.453 36.2636H156.33C154.754 36.2705 153.244 36.8959 152.131 38.0029C151.019 39.11 150.394 40.6086 150.394 42.1708V57.7161C150.394 59.276 151.02 60.7719 152.133 61.8748C153.246 62.9778 154.756 63.5974 156.33 63.5974H174.453C175.257 63.6051 176.055 63.4508 176.797 63.1439C177.539 62.837 178.21 62.3839 178.77 61.812C179.33 61.2402 179.767 60.5617 180.055 59.8175C180.342 59.0733 180.474 58.2791 180.442 57.483V41.9377C180.381 40.4072 179.722 38.9601 178.605 37.9015C177.488 36.843 175.999 36.2557 174.453 36.2636ZM107.925 15.8215H105.676V15.5365C106.304 15.5365 106.696 15.5365 106.408 14.8888C106.121 14.2411 107.794 14.1375 108.056 14.2929C108.317 14.4484 108.213 15.4847 108.056 15.9252L107.925 15.8215ZM104.865 16.3397H107.48C107.193 16.8061 106.356 18.3088 105.807 18.3088C105.332 17.7298 104.985 17.0592 104.787 16.3397H104.865ZM156.435 42.0413H174.348V57.5866H156.435V42.0413ZM119.667 42.0413H144.589C144.554 40.4927 143.908 39.0193 142.787 37.9387C141.667 36.858 140.164 36.2565 138.6 36.2636H119.51C117.933 36.2705 116.423 36.8959 115.311 38.0029C114.198 39.11 113.574 40.6086 113.574 42.1708V57.7161C113.574 59.276 114.199 60.7719 115.312 61.8748C116.426 62.9778 117.936 63.5974 119.51 63.5974H138.6C140.174 63.5974 141.684 62.9778 142.798 61.8748C143.911 60.7719 144.536 59.276 144.536 57.7161V47.2749H124.348C124.355 48.4798 124.843 49.6329 125.705 50.4825C126.568 51.3321 127.734 51.8089 128.95 51.8089H138.914V57.457H119.667V41.9117V42.0413ZM41.8415 42.0413H65.6389C65.6047 40.4927 64.9578 39.0193 63.8377 37.9387C62.7175 36.858 61.2138 36.2565 59.6503 36.2636H41.3447C39.7655 36.2704 38.2529 36.895 37.1362 38.0013C36.0195 39.1077 35.3891 40.6062 35.3823 42.1708V46.9381C35.3892 48.5003 36.0204 49.9961 37.1378 51.0983C38.2552 52.2006 39.7679 52.8194 41.3447 52.8194H59.8073V57.6125H35.2776C35.2846 59.1747 35.9158 60.6706 37.0332 61.7728C38.1506 62.875 39.6633 63.4938 41.2401 63.4938H60.278C61.8524 63.4938 63.3623 62.8742 64.4755 61.7712C65.5888 60.6683 66.2142 59.1723 66.2142 57.6125V52.6898C66.2142 51.13 65.5888 49.6341 64.4755 48.5311C63.3623 47.4281 61.8524 46.8085 60.278 46.8085H41.8415V42.0413ZM7.55763 42.0413H30.0213C29.9871 40.4972 29.3439 39.0277 28.2294 37.9478C27.1149 36.8678 25.6178 36.2632 24.0589 36.2636H5.93627C4.38186 36.27 2.89143 36.8775 1.78256 37.9568C0.673694 39.036 0.0340748 40.5016 0 42.0413L0 57.5866C0 59.1464 0.625426 60.6423 1.73869 61.7453C2.85196 62.8483 4.36187 63.4679 5.93627 63.4679H24.0589C25.6333 63.4679 27.1432 62.8483 28.2565 61.7453C29.3697 60.6423 29.9952 59.1464 29.9952 57.5866H7.53148V42.0413H7.55763ZM113.626 13.127C113.495 13.2175 113.341 13.2712 113.181 13.2825C112.345 14.4743 112.868 14.3447 111.351 15.3293C111.287 16.6813 111.473 18.0335 111.9 19.3192L110.723 19.5783C110.809 20.258 110.809 20.9455 110.723 21.6251C109.776 23.4415 108.324 24.9517 106.539 25.9778C105.467 26.1851 104.316 25.2783 102.486 24.4751C101.963 24.2419 100.263 23.1537 99.3998 22.8428C98.5368 22.5319 97.9092 24.3974 98.8245 24.8637C99.3767 25.0596 99.8464 25.4337 100.158 25.926C100.672 29.0627 100.178 32.2802 98.746 35.1236C98.1184 35.1236 97.5954 34.5536 97.1247 34.7091C96.654 34.8645 96.837 37.6368 97.1247 38.0772C102.198 43.259 101.596 47.0676 103.741 49.9176C104.735 49.9176 104.081 50.9539 104.839 52.1716C104.94 52.9224 104.859 53.6859 104.604 54.3998V55.9543L104.421 56.4466V57.8198L103.976 59.9961C103.662 61.2916 104.839 62.302 104.133 63.5715C104.133 64.3229 104.133 64.1674 103.662 64.7892C103.531 66.3151 103.531 67.8493 103.662 69.3751C104.471 70.6917 105.497 71.8651 106.696 72.8469C108.056 73.4428 110.069 73.3133 109.311 75.4378C105.31 76.6555 102.773 74.7642 100.655 74.7382V75.101C99.7658 75.0873 98.8839 74.9388 98.04 74.6605C98.04 74.2978 98.4845 71.4996 98.6153 71.0592L99.086 70.3337C99.1113 68.6989 99.0415 67.0639 98.8768 65.437C98.04 64.8152 97.8831 62.8461 97.8831 61.9134C97.6622 60.9971 97.5568 60.0572 97.5692 59.1152C97.4181 58.523 97.3738 57.909 97.4385 57.3016C97.5692 56.8871 98.04 56.6798 98.1707 56.343V55.1771C98.3451 54.7354 98.381 54.2518 98.2737 53.7896C98.1664 53.3274 97.9209 52.908 97.5692 52.5862C95.7125 52.5862 95.451 52.7157 94.4311 51.1353C94.1173 50.643 91.5022 46.5753 91.2407 46.4717C89.0702 45.5131 89.5147 45.8758 88.6256 44.2176C88.1426 44.386 87.7412 44.7282 87.5011 45.1763C86.4308 47.1524 85.555 49.226 84.886 51.3685C84.6768 52.0939 84.886 52.8971 84.5722 53.5189C84.2584 54.1407 83.5523 54.0889 83.3954 54.3739C82.637 55.7471 83.1862 55.6434 81.7479 56.6021C81.4864 56.913 81.4864 57.4311 81.2772 57.8198L80.9634 58.2861C80.728 58.8043 81.2249 59.737 81.1203 60.0738C80.8791 60.9583 80.5732 61.8243 80.205 62.6647C79.5512 64.2193 79.6297 66.292 78.9498 67.2506C78.6359 67.7429 77.7991 67.2506 77.1976 67.6651C77.1976 68.0019 76.1778 70.256 75.9685 70.8519V74.4014C76.1516 74.9973 76.6746 75.5673 76.5177 76.3187C76.3608 77.07 73.5365 77.0959 71.9936 76.8887C71.7815 76.8738 71.575 76.8148 71.3874 76.7158C71.1998 76.6167 71.0354 76.4796 70.9047 76.3135C70.774 76.1474 70.68 75.9559 70.6288 75.7515C70.5776 75.5471 70.5704 75.3342 70.6076 75.1269C70.6076 74.0905 72.7258 67.3542 72.5951 67.0174C70.9999 65.2556 73.0135 63.442 73.615 61.8356C73.9026 61.0325 73.615 59.9184 74.0334 59.2448L75.707 56.2134C76.7269 55.2548 76.2562 55.203 76.8054 54.3739C77.3546 53.5448 77.8776 53.1303 77.5376 51.9903C76.8577 49.7103 78.3221 46.4976 78.4267 44.2176C78.1652 43.9326 77.2761 44.0104 77.1715 43.2849C77.0375 41.7602 77.4044 40.2335 78.2175 38.9322C78.4529 38.9322 78.6882 38.9322 78.8713 38.9322C78.8713 37.8441 77.773 31.6518 78.6098 31.3409C79.4466 31.03 80.3358 31.0559 80.5711 30.9523C80.8065 30.8487 80.3619 30.1232 80.1527 30.0973L78.4006 29.7605C76.5439 29.346 78.2698 21.9878 78.4006 21.9878C78.8975 21.3401 81.2772 22.2469 81.5649 21.081C82.3755 20.0965 80.9634 16.2102 83.6831 11.4689C84.0387 10.5603 84.7041 9.80367 85.5639 9.3304C86.4238 8.85714 87.4237 8.69707 88.3903 8.87798C89.0702 9.11116 88.6518 10.0957 89.8809 9.05934C89.8482 8.49065 89.6968 7.93487 89.4363 7.42708C87.2396 1.18305 94.1435 -2.00373 98.7722 1.36441C99.2152 1.51893 99.6369 1.72783 100.027 1.98623C100.289 3.33349 101.623 5.7171 100.289 7.16799C99.6997 7.30825 99.1414 7.55411 98.6414 7.89344C98.6276 8.34769 98.6804 8.80152 98.7983 9.2407C98.7983 9.55161 99.0598 9.65524 98.6153 9.8366C98.1707 10.018 98.6153 10.0439 98.6153 10.1216C99.6556 10.2375 100.708 10.0578 101.649 9.60342H102.538V8.61889H102.956V7.7639H103.375V9.26661H104.604V9.73297H120.974V10.588H121.707V7.4789H122.308V10.0698H123.72V11.4948H128.035V10.9766H128.767V11.1839H130.755V12.3757H128.663V12.557H127.931V12.1166H123.616V12.557H121.707V12.272H120.87V13.127H113.626Z" fill="#EAEAEA"></path></svg>