<svg xmlns="http://www.w3.org/2000/svg" width="51" height="66" viewBox="0 0 51 66" fill="none"><path opacity="0.1" fill-rule="evenodd" clip-rule="evenodd" d="M7.92503 41.2593C13.338 38.4787 19.3449 37.0273 25.4409 37.0273C31.5368 37.0273 37.5437 38.4787 42.9567 41.2593C52.6325 46.9327 52.6325 56.0866 42.9567 61.76C37.5453 64.5455 31.5378 65.9996 25.4409 65.9996C19.344 65.9996 13.3365 64.5455 7.92503 61.76C-1.74063 56.1167 -1.74063 46.9327 7.92503 41.2593Z" fill="url(#paint0_linear_1850_73)"></path><path fill-rule="evenodd" clip-rule="evenodd" d="M0.690995 35.7777C11.665 30.1244 39.2319 30.2552 50.1857 35.8883C50.1857 40.4451 50.1857 39.3889 50.1857 43.141C50.1857 46.8931 47.6907 50.4238 42.9339 53.2002C37.5232 55.9881 31.5154 57.4436 25.4181 57.4436C19.3207 57.4436 13.3129 55.9881 7.90221 53.2002C3.12516 50.444 0.690994 46.7522 0.670709 43.0605C0.650425 39.3688 0.660568 41.3404 0.690995 35.7777Z" fill="url(#paint1_linear_1850_73)"></path><path fill-rule="evenodd" clip-rule="evenodd" d="M7.92503 24.5919C13.338 21.8112 19.3449 20.3599 25.4409 20.3599C31.5368 20.3599 37.5437 21.8112 42.9567 24.5919C52.6325 30.2652 52.6325 39.4191 42.9567 45.0925C37.5468 47.8829 31.5387 49.3398 25.4409 49.3398C19.3431 49.3398 13.335 47.8829 7.92503 45.0925C-1.74063 39.4493 -1.74063 30.2652 7.92503 24.5919Z" fill="url(#paint2_linear_1850_73)"></path><path fill-rule="evenodd" clip-rule="evenodd" d="M0.690995 13.9091C11.665 8.2659 39.2319 8.38661 50.1857 14.0198C50.1857 18.5766 50.1857 25.5476 50.1857 29.2997C50.1857 33.0517 47.7515 36.6127 42.9542 39.3689C37.5442 42.1593 31.5361 43.6162 25.4383 43.6162C19.3405 43.6162 13.3324 42.1593 7.92249 39.3689C3.12516 36.6127 0.690994 32.9008 0.670709 29.2091C0.650425 25.5174 0.660568 19.5121 0.690995 13.9091Z" fill="url(#paint3_linear_1850_73)"></path><path fill-rule="evenodd" clip-rule="evenodd" d="M7.92503 4.23199C13.338 1.45132 19.3449 0 25.4409 0C31.5368 0 37.5437 1.45132 42.9567 4.23199C52.6325 9.90537 52.6325 19.0592 42.9567 24.7326C37.5453 27.5181 31.5378 28.9722 25.4409 28.9722C19.344 28.9722 13.3365 27.5181 7.92503 24.7326C-1.74063 19.0894 -1.74063 9.90537 7.92503 4.23199Z" fill="url(#paint4_linear_1850_73)"></path><path d="M34.2219 9.18067C37.8326 11.7759 37.5791 15.5984 33.441 18.0227C30.9756 19.2941 28.2377 19.9578 25.4589 19.9578C22.6802 19.9578 19.9423 19.2941 17.4769 18.0227C13.065 15.4475 13.065 11.2629 17.4769 8.67771C18.4498 8.17161 19.4685 7.75736 20.5196 7.44043" stroke="url(#paint5_linear_1850_73)" stroke-width="1.99" stroke-miterlimit="10" stroke-linecap="round"></path><g opacity="0.3"><path opacity="0.3" d="M0.00612704 20.5782C0.310878 23.236 1.54122 25.705 3.48495 27.5593C4.40264 28.4974 5.42322 29.3308 6.52766 30.0439C7.6379 30.7515 8.80879 31.3607 10.0268 31.8646C14.9299 33.9414 20.203 35.0223 25.5344 35.0433C30.8708 35.0178 36.1476 33.93 41.0522 31.8445L42.8576 31.0096C43.4394 30.7095 44.0018 30.3736 44.5412 30.0037C45.6445 29.2813 46.6648 28.4414 47.5839 27.4989C49.5031 25.6107 50.7067 23.1237 50.9917 20.4575C51.0994 23.2516 50.1518 25.985 48.3344 28.1226C46.5397 30.2914 44.2808 32.0369 41.7216 33.2327C36.6898 35.6881 31.1625 36.9812 25.5547 37.0149C19.9464 36.9956 14.4166 35.7053 9.3878 33.2427C6.82666 32.0724 4.55811 30.3548 2.74456 28.2132C0.891165 26.1032 -0.0873271 23.3751 0.00612704 20.5782Z" fill="url(#paint6_linear_1850_73)"></path></g><path d="M37.3267 8.16486L32.9655 7.90332L32.8945 11.927" stroke="url(#paint7_linear_1850_73)" stroke-width="1.99" stroke-linecap="round" stroke-linejoin="round"></path><defs><linearGradient id="paint0_linear_1850_73" x1="53.1396" y1="48.0593" x2="4.0024" y2="54.2651" gradientUnits="userSpaceOnUse"><stop></stop><stop offset="1"></stop></linearGradient><linearGradient id="paint1_linear_1850_73" x1="0.660156" y1="33.4911" x2="51.8933" y2="42.8649" gradientUnits="userSpaceOnUse"><stop stop-color="#0082F8"></stop><stop offset="1" stop-color="#1C40F2"></stop></linearGradient><linearGradient id="paint2_linear_1850_73" x1="50.2136" y1="43.2005" x2="-0.902772" y2="28.8903" gradientUnits="userSpaceOnUse"><stop stop-color="#001DAC"></stop><stop offset="1" stop-color="#000F57"></stop></linearGradient><linearGradient id="paint3_linear_1850_73" x1="51.6969" y1="26.5233" x2="-10.2526" y2="26.9119" gradientUnits="userSpaceOnUse"><stop offset="0.42" stop-color="#E7E9E9"></stop><stop offset="0.68" stop-color="#B1B4C3"></stop><stop offset="0.88" stop-color="#8F92AA"></stop><stop offset="0.99" stop-color="#8285A1"></stop></linearGradient><linearGradient id="paint4_linear_1850_73" x1="53.1396" y1="11.032" x2="4.0024" y2="17.2377" gradientUnits="userSpaceOnUse"><stop stop-color="#CDD3DB"></stop><stop offset="1" stop-color="#ACB0C2"></stop></linearGradient><linearGradient id="paint5_linear_1850_73" x1="36.7502" y1="17.306" x2="13.6396" y2="10.4778" gradientUnits="userSpaceOnUse"><stop stop-color="#001DAC"></stop><stop offset="1" stop-color="#000F57"></stop></linearGradient><linearGradient id="paint6_linear_1850_73" x1="-0.997966" y1="28.7664" x2="51.9958" y2="28.7664" gradientUnits="userSpaceOnUse"><stop stop-color="#050505"></stop><stop offset="1" stop-color="#ACB0C2"></stop></linearGradient><linearGradient id="paint7_linear_1850_73" x1="37.3267" y1="11.0746" x2="32.5503" y2="10.2129" gradientUnits="userSpaceOnUse"><stop stop-color="#001DAC"></stop><stop offset="1" stop-color="#000F57"></stop></linearGradient></defs></svg>