<svg xmlns="http://www.w3.org/2000/svg" width="48" height="48" viewBox="0 0 48 48" fill="none"><path d="M24 48C10.7274 48 0 37.276 0 24C0 10.7273 10.7241 0 24 0C37.2727 0 48 10.724 48 24C48 37.2726 37.276 48 24 48Z" fill="#30313F"></path><path d="M23.9649 28.7337L25.8336 27.7438C25.2848 28.4977 24.9556 29.4204 24.9407 30.4176L23.4141 31.2266C23.2422 31.317 23.0373 31.3174 22.8654 31.2266L14.3074 26.6931C13.8975 26.4927 13.8975 25.8583 14.3074 25.6579L15.4084 25.0747L22.3147 28.7337C22.3154 28.734 22.3162 28.7344 22.317 28.7348C22.5698 28.868 22.854 28.9383 23.1394 28.9383C23.426 28.9385 23.7116 28.8674 23.9649 28.7337Z" fill="url(#paint0_linear_1763_164)"></path><path d="M32.2842 26.1756C32.2842 26.3127 32.2361 26.4432 32.1519 26.5459C31.3887 26.0544 30.4514 25.7781 29.4844 25.81L30.8716 25.0752L31.9722 25.658C32.1645 25.7596 32.2842 25.9588 32.2842 26.1756Z" fill="url(#paint1_linear_1763_164)"></path><path d="M32.2838 22.6473C32.2838 22.8641 32.164 23.0633 31.9718 23.1648L23.4142 27.6984C23.2423 27.7888 23.0374 27.7892 22.8654 27.6984L14.3074 23.1648C13.8975 22.9645 13.8975 22.3301 14.3074 22.1297L15.408 21.5469L22.3147 25.2054C22.8241 25.478 23.4597 25.4779 23.9692 25.2054L30.8735 21.548L31.9718 22.1297C32.164 22.2312 32.2838 22.4305 32.2838 22.6473Z" fill="url(#paint2_linear_1763_164)"></path><path d="M31.976 18.6017L23.4182 14.0686C23.2454 13.9771 23.0379 13.9771 22.865 14.0686L14.3072 18.6017C13.8974 18.8021 13.8978 19.4369 14.3072 19.6373L22.865 24.1704C23.0384 24.2618 23.2448 24.2618 23.4182 24.1704L31.976 19.6373C32.3855 19.4369 32.3859 18.8021 31.976 18.6017Z" fill="url(#paint3_linear_1763_164)"></path><path d="M29.6267 26.9795H29.6263C27.6891 26.9795 26.1133 28.5541 26.1133 30.4896C26.1133 32.4251 27.6891 33.9993 29.6263 33.9997H29.6267C31.5634 33.9997 33.1397 32.4251 33.1397 30.4896C33.1397 28.5541 31.5634 26.9795 29.6267 26.9795ZM30.6444 31.0755H30.2068V31.506C30.2068 31.8275 29.9472 32.0888 29.6263 32.0919H29.6204C29.2967 32.0919 29.0345 31.8295 29.0345 31.506V31.0755H28.609C28.2853 31.0755 28.023 30.813 28.023 30.4896C28.023 30.1658 28.2853 29.9037 28.609 29.9037H29.0345V29.4728C29.0345 29.1494 29.2967 28.8869 29.6204 28.8869H29.6263C29.9473 28.89 30.2068 29.1513 30.2068 29.4728V29.9037H30.6444C30.9677 29.9037 31.2303 30.1658 31.2303 30.4896C31.2303 30.813 30.9677 31.0755 30.6444 31.0755Z" fill="url(#paint4_linear_1763_164)"></path><defs><linearGradient id="paint0_linear_1763_164" x1="14" y1="25.0747" x2="26.9313" y2="27.8726" gradientUnits="userSpaceOnUse"><stop stop-color="#F16262"></stop><stop offset="1" stop-color="#3200FF"></stop></linearGradient><linearGradient id="paint1_linear_1763_164" x1="29.4844" y1="25.0752" x2="32.5438" y2="25.7376" gradientUnits="userSpaceOnUse"><stop stop-color="#F16262"></stop><stop offset="1" stop-color="#3200FF"></stop></linearGradient><linearGradient id="paint2_linear_1763_164" x1="14" y1="21.5469" x2="32.8126" y2="27.8363" gradientUnits="userSpaceOnUse"><stop stop-color="#F16262"></stop><stop offset="1" stop-color="#3200FF"></stop></linearGradient><linearGradient id="paint3_linear_1763_164" x1="14" y1="14" x2="34.0864" y2="18.0789" gradientUnits="userSpaceOnUse"><stop stop-color="#F16262"></stop><stop offset="1" stop-color="#3200FF"></stop></linearGradient><linearGradient id="paint4_linear_1763_164" x1="26.1133" y1="26.9795" x2="34.0481" y2="27.8827" gradientUnits="userSpaceOnUse"><stop stop-color="#F16262"></stop><stop offset="1" stop-color="#3200FF"></stop></linearGradient></defs></svg>