<svg xmlns="http://www.w3.org/2000/svg" width="22" height="22" viewBox="0 0 22 22" fill="none"><path d="M11.7009 22H10.2685C10.2506 21.991 10.2327 21.9821 10.2148 21.9731C9.79403 21.9194 9.36431 21.8836 8.94354 21.812C8.32582 21.7046 7.726 21.5435 7.14409 21.3108C4.94178 20.4874 3.06175 18.9838 1.77259 17.0148C1.11011 16.0213 0.626675 14.9115 0.340195 13.7569C0.205907 13.2199 0.14324 12.665 0.053715 12.1101C0.03581 11.9758 0.017905 11.8416 0 11.7073V10.2932C0.0089525 10.2574 0.017905 10.2306 0.017905 10.1948C0.0626675 9.80991 0.0895249 9.42505 0.161145 9.04915C0.295432 8.28839 0.519245 7.53658 0.814677 6.82056C1.20859 5.85395 1.74574 4.94999 2.39032 4.13552C4.35091 1.68318 7.26047 0.188511 10.3938 0.0184586C11.1727 -0.0262921 11.9426 0.00950846 12.7125 0.13481C13.5362 0.269062 14.3419 0.492816 15.1208 0.806071C17.2515 1.65633 19.0599 3.16891 20.2864 5.11109C21.298 6.68631 21.8889 8.49424 21.9784 10.3648C22.0321 11.233 21.9873 12.1011 21.8262 12.9604C21.674 13.7748 21.4412 14.5714 21.1189 15.3232C20.2774 17.2922 18.8898 18.9749 17.1082 20.1563C15.9713 20.926 14.7 21.463 13.3571 21.7494C12.9364 21.8389 12.4977 21.8836 12.068 21.9463C11.9426 21.9731 11.8173 21.9821 11.7009 22ZM12.1217 9.0402C12.1396 9.076 12.1485 9.08495 12.1485 9.0939C12.1575 9.2013 12.1754 9.3087 12.1754 9.40715C12.1933 10.2306 12.1396 11.0629 12.0142 11.8774C11.9516 12.3249 11.88 12.7724 11.8173 13.2199C11.7636 13.6316 11.7188 14.0433 11.692 14.455C11.6382 15.0368 11.6561 15.6186 11.7457 16.1914C11.7457 16.2898 11.8352 16.3704 11.9337 16.3704C11.9426 16.3704 11.9426 16.3704 11.9516 16.3704C12.3007 16.3793 12.6499 16.3167 12.9811 16.1914C13.3392 16.0571 13.563 15.7707 13.563 15.4664C13.563 14.9473 13.563 14.4192 13.5809 13.9001C13.5899 13.5332 13.6257 13.1662 13.6615 12.7993C13.7063 12.3607 13.751 11.9221 13.8047 11.4836C13.8585 11.045 13.9122 10.6065 13.9659 10.1769C14.0196 9.74726 14.0644 9.3087 14.1091 8.8791C14.1449 8.50319 14.1808 8.11833 14.1987 7.73348C14.2166 7.16962 14.2166 6.59681 14.2166 6.024C14.2076 5.9882 14.1808 5.96135 14.1449 5.94345C14.0196 5.9166 13.8853 5.8987 13.751 5.88975C13.3124 5.88975 12.8826 6.03295 12.5335 6.30146C12.1396 6.59681 11.8083 6.95482 11.5398 7.36652C11.0832 8.01988 10.6445 8.70009 10.1879 9.35345C9.98203 9.64881 9.74927 9.92626 9.52546 10.2037C9.4986 10.2395 9.40907 10.2664 9.40012 10.2485C9.30164 10.15 9.19421 10.0605 9.19421 9.89046C9.20317 8.94175 9.21212 7.99303 9.19421 7.05327C9.18526 6.59681 9.08678 6.1493 8.89878 5.7376C8.84507 5.5944 8.71973 5.48699 8.56754 5.46014C8.45116 5.43329 8.33477 5.42434 8.22734 5.43329C7.83343 5.46014 7.50219 5.58545 7.34105 5.99715C6.86656 7.26807 6.38313 8.53004 5.89969 9.78306C5.63112 10.4991 5.3894 11.2151 4.99549 11.8774C4.74482 12.307 4.51206 12.7456 4.28825 13.1841C4.10024 13.5511 3.96596 13.927 3.99281 14.3476C4.01072 14.6877 4.19872 14.9652 4.47625 15.0189C4.92387 15.1084 5.38045 15.0189 5.76541 14.7772C5.9176 14.6877 6.03398 14.5356 6.0877 14.3655C6.15036 14.1597 6.21303 13.9538 6.25779 13.739C6.33837 13.2378 6.49951 12.7545 6.73228 12.298C6.83971 12.1011 6.88447 11.8595 6.94714 11.6357C6.9919 11.5015 7.0098 11.3583 7.06352 11.224C7.13514 11.0361 7.29628 11.0003 7.44848 11.1435C7.51114 11.1972 7.56486 11.2777 7.59172 11.3583C7.63648 11.5015 7.66334 11.6536 7.66334 11.8058C7.63648 12.2175 7.58276 12.6292 7.54695 13.0409C7.538 13.1304 7.54695 13.2289 7.56486 13.3184C7.69019 13.7122 8.13782 13.8643 8.56754 13.7838C8.96145 13.7122 9.24793 13.4705 9.4986 13.1841C9.58812 13.0946 9.64184 12.9693 9.65079 12.844C9.65974 12.6829 9.72241 12.5218 9.82089 12.3876C10.0268 12.1101 10.2237 11.8147 10.4207 11.5194C10.8415 10.875 11.2533 10.2216 11.683 9.57721C11.8173 9.3982 11.9695 9.22815 12.1217 9.0402ZM17.7618 6.37306C17.4753 6.41781 17.1798 6.44466 16.9113 6.53416C15.7564 6.93692 15.0044 7.73348 14.6284 8.88805C14.4493 9.46981 14.3329 10.0695 14.2971 10.6781C14.2524 11.1703 14.2971 11.6715 14.4314 12.1459C14.7 13.0409 15.4341 13.6137 16.3652 13.5958C16.8396 13.5869 17.3052 13.4884 17.7797 13.4526C18.3079 13.4079 18.7465 12.9514 18.8629 12.495C18.9166 12.3249 18.8987 12.1369 18.8002 11.9848C18.7555 11.9132 18.7107 11.8953 18.6212 11.9311C18.2362 12.0832 17.8513 12.2354 17.4574 12.3518C17.0366 12.486 16.6337 12.4592 16.2667 12.1638C16.0429 11.9848 15.9981 11.6715 16.3114 11.5015C16.8755 11.2061 17.4305 10.8929 18.0035 10.5886C18.5227 10.3111 19.0599 10.0605 19.5164 9.68461C19.6597 9.56826 19.8208 9.434 19.8835 9.2729C20.0267 8.897 20.0446 8.47634 19.9551 8.09148C19.6955 7.05327 18.845 6.39096 17.7618 6.37306ZM1.56669 13.7838C1.55773 14.1239 1.69202 14.455 1.92479 14.6967C2.21127 15.001 2.6768 15.0099 2.98118 14.7235C3.06175 14.6519 3.12442 14.5624 3.16023 14.464C3.28557 14.1507 3.29452 13.8017 3.20499 13.4795C3.15128 13.2289 2.95432 13.032 2.6947 12.9962C2.57832 12.9783 2.45298 12.9693 2.3366 12.9783C1.90688 12.9783 1.56669 13.3273 1.55773 13.748C1.55773 13.7569 1.56669 13.7659 1.56669 13.7838ZM17.4663 7.81403C16.8755 7.81403 16.4457 8.08253 16.1951 8.61954C16.0966 8.8433 16.025 9.076 15.9802 9.31765C15.9533 9.46981 15.9444 9.63091 15.9623 9.79201C15.9713 9.89941 16.0608 9.97996 16.1682 9.97101C16.1772 9.97101 16.1861 9.97101 16.1951 9.97101C16.4905 9.94416 16.777 9.89046 17.0724 9.82781C17.6454 9.67566 18.1199 9.2908 18.3884 8.77169C18.5585 8.46739 18.4869 8.18994 18.1915 8.01093C17.9766 7.86773 17.7259 7.80508 17.4663 7.81403ZM16.1951 8.61954C16.0966 8.8433 16.025 9.076 15.9802 9.31765C15.9533 9.46981 15.9444 9.63091 15.9623 9.79201C15.9713 9.89941 16.0608 9.97996 16.1682 9.97101C16.1772 9.97101 16.1861 9.97101 16.1951 9.97101C16.4905 9.94416 16.777 9.89046 17.0724 9.82781C17.6454 9.67566 18.1199 9.2908 18.3884 8.77169C18.5585 8.46739 18.4869 8.18994 18.1915 8.01093C17.9766 7.87668 17.717 7.81403 17.4663 7.82298C16.8755 7.81403 16.4457 8.08253 16.1951 8.61954Z" fill="#ED4239"></path></svg>