<svg xmlns="http://www.w3.org/2000/svg" width="48" height="60" viewBox="0 0 48 60" fill="none"><path opacity="0.15" fill-rule="evenodd" clip-rule="evenodd" d="M7.208 36.3891C16.7133 30.8813 31.9929 30.8813 41.4094 36.3002C45.3181 38.6099 47.3613 41.3638 47.9832 44.2954C37.4118 50.6026 20.622 59.8414 20.4444 59.8414C15.7361 59.5749 11.2056 58.3312 7.03033 56.1104C-2.29732 50.6915 -2.29732 41.808 7.208 36.3891Z" fill="url(#paint0_linear_2283_3718)"></path><path fill-rule="evenodd" clip-rule="evenodd" d="M0.102578 30.1707C2.05694 42.0745 21.0676 43.7624 21.0676 43.7624C21.0676 43.7624 21.0676 50.0696 20.5346 52.1128C15.8263 51.8463 11.2958 50.6027 7.12052 48.3818C2.50112 45.8056 0.191412 42.341 0.102578 38.8765C-0.075092 35.2342 0.0137428 34.8789 0.102578 30.1707Z" fill="url(#paint1_linear_2283_3718)"></path><path fill-rule="evenodd" clip-rule="evenodd" d="M20.5352 43.4959C30.0405 37.9881 47.9851 28.2163 47.9851 28.2163V36.5668L20.5352 52.2017C20.5352 52.2017 20.5352 48.4706 20.5352 43.4959Z" fill="#74002C"></path><path fill-rule="evenodd" clip-rule="evenodd" d="M7.208 20.31C16.7133 14.8022 31.9929 14.8022 41.4094 20.2211C45.3181 22.5308 47.3613 25.2847 47.9832 28.2163C37.4118 34.5235 20.622 43.7623 20.4444 43.7623C15.7361 43.4958 11.2056 42.2521 7.03033 40.0313C-2.29732 34.6124 -2.29732 25.8177 7.208 20.31Z" fill="#FF0766"></path><path fill-rule="evenodd" clip-rule="evenodd" d="M0.102507 13.9138C2.05687 25.8177 21.0675 27.5944 21.0675 27.5944C21.0675 27.5944 20.7122 35.9448 20.5345 35.9448C15.9151 35.6783 11.2957 34.4347 7.20929 32.2138C2.67872 29.5487 0.280176 26.173 0.191341 22.7085C-0.075163 18.9774 0.0136719 18.7109 0.102507 13.9138Z" fill="url(#paint2_linear_2283_3718)"></path><path fill-rule="evenodd" clip-rule="evenodd" d="M20.5352 27.2392C30.0405 21.7315 47.9851 11.782 47.9851 11.782V20.1325L20.5352 35.945C20.5352 35.945 20.5352 32.214 20.5352 27.2392Z" fill="url(#paint3_linear_2283_3718)"></path><path fill-rule="evenodd" clip-rule="evenodd" d="M7.208 4.14199C16.7133 -1.36577 31.9929 -1.36577 41.4094 4.05315C45.3181 6.36286 47.3613 9.11674 47.9832 12.0483C37.4118 18.3556 20.622 27.5944 20.4444 27.5944C15.7361 27.3279 11.2056 26.0842 7.03033 23.8633C-2.29732 18.3556 -2.29732 9.56091 7.208 4.14199Z" fill="url(#paint4_linear_2283_3718)"></path><path d="M11.2071 21.0205C4.36682 17.1117 4.45566 10.6268 11.2959 6.62925C18.1362 2.63168 29.3294 2.63168 36.1697 6.54041" stroke="#818696" stroke-width="2" stroke-linecap="round" stroke-linejoin="round"></path><path fill-rule="evenodd" clip-rule="evenodd" d="M21.9562 11.6929C23.3776 10.9822 25.1543 10.9822 26.5756 11.6929C27.8193 12.4036 27.8193 13.6473 26.5756 14.358C25.1543 15.0686 23.3776 15.0686 21.9562 14.358C20.7125 13.6473 20.7125 12.4924 21.9562 11.6929Z" fill="#FF0766"></path><path d="M11.2065 21.0206C6.3206 18.1779 4.98808 14.0915 7.12012 10.5381" stroke="url(#paint5_linear_2283_3718)" stroke-width="2" stroke-miterlimit="10" stroke-linecap="round"></path><path d="M23.9113 12.7591L13.6953 10.8936" stroke="url(#paint6_linear_2283_3718)" stroke-width="2" stroke-linecap="round" stroke-linejoin="round"></path><defs><linearGradient id="paint0_linear_2283_3718" x1="0.0520895" y1="46.0303" x2="47.9654" y2="46.0303" gradientUnits="userSpaceOnUse"><stop></stop><stop offset="1"></stop></linearGradient><linearGradient id="paint1_linear_2283_3718" x1="16.8224" y1="42.9045" x2="-3.33417" y2="38.2408" gradientUnits="userSpaceOnUse"><stop stop-color="#910037"></stop><stop offset="1" stop-color="#510A18"></stop></linearGradient><linearGradient id="paint2_linear_2283_3718" x1="0.0136719" y1="24.9027" x2="21.0231" y2="24.9027" gradientUnits="userSpaceOnUse"><stop stop-color="#989AAD"></stop><stop offset="1" stop-color="#98A0B7"></stop></linearGradient><linearGradient id="paint3_linear_2283_3718" x1="52.3959" y1="22.0272" x2="56.7042" y2="21.6017" gradientUnits="userSpaceOnUse"><stop stop-color="#E7E9E9"></stop><stop offset="1" stop-color="#98AACD"></stop></linearGradient><linearGradient id="paint4_linear_2283_3718" x1="45.2415" y1="16.5861" x2="-2.28506" y2="10.4655" gradientUnits="userSpaceOnUse"><stop stop-color="#CDD3DB"></stop><stop offset="1" stop-color="#ACB0C2"></stop></linearGradient><linearGradient id="paint5_linear_2283_3718" x1="5" y1="12" x2="12" y2="20" gradientUnits="userSpaceOnUse"><stop stop-color="#FF0766"></stop><stop offset="1" stop-color="#670A18"></stop></linearGradient><linearGradient id="paint6_linear_2283_3718" x1="12.8426" y1="11.8441" x2="24.8264" y2="11.8441" gradientUnits="userSpaceOnUse"><stop stop-color="#FF0766"></stop><stop offset="1" stop-color="#F70E28"></stop></linearGradient></defs></svg>