<svg xmlns="http://www.w3.org/2000/svg" width="59" height="53" viewBox="0 0 59 53" fill="none"><circle cx="40" cy="33.0015" r="19" fill="#0082F8" fill-opacity="0.15"></circle><path fill-rule="evenodd" clip-rule="evenodd" d="M45.8482 31.6246C45.8482 30.447 45.8482 26.2634 45.8482 24.6823C45.8482 23.8587 45.2058 24.0399 44.6046 23.414C43.7811 22.5905 41.6893 19.4446 40.487 18.7611C33.8987 14.9646 23.1929 14.9564 16.6623 18.7611C16.6623 18.7611 7.33992 24.7646 4.36698 26.6093C2.86006 27.4707 1.41535 28.4366 0.0434537 29.4999C-0.0224287 32.1929 -0.00595808 34.9764 0.0434537 37.0764C0.0434537 38.7234 1.15522 40.214 3.14816 41.367L11.7046 46.3081C16.267 48.9434 24.214 48.6387 29.5423 45.6411L29.6905 45.5587L40.7752 39.1187C44.0611 37.1423 45.8482 34.4905 45.8482 31.6246ZM34.7305 34.0952L18.3258 26.1317C24.1729 22.9281 33.4293 22.9776 39.1693 26.2881C40.2502 26.8824 41.2109 27.6727 42.0023 28.6187C42.3976 29.1129 41.1787 29.3764 41.4011 29.9034C41.6235 30.4305 34.7305 34.0952 34.7305 34.0952Z" fill="url(#paint0_linear_3001_46)"></path><path fill-rule="evenodd" clip-rule="evenodd" d="M45.8487 24.2705C45.8487 21.314 43.9546 18.5882 40.5123 16.6035C33.924 12.807 23.2182 12.807 16.6876 16.6035L4.33463 23.7105C-0.845374 26.7823 -1.37243 31.3693 3.18992 34.0129L11.7464 38.954C16.3087 41.5893 24.2558 41.2846 29.584 38.2952L40.8252 31.7646C44.0617 29.7882 45.8487 27.1364 45.8487 24.2705ZM39.1864 29.5823L38.124 30.1999L18.3593 18.7693C24.2064 15.574 33.4629 15.6235 39.2029 18.934C41.7476 20.4164 43.1476 22.3105 43.1476 24.2705C43.1476 26.2305 41.7476 28.1411 39.1864 29.5823Z" fill="url(#paint1_linear_3001_46)"></path><path fill-rule="evenodd" clip-rule="evenodd" d="M45.8482 17.8717C45.8482 16.6941 45.8482 12.5023 45.8482 10.9211C45.8482 10.1388 45.2058 10.2788 44.6046 9.65288C43.7811 8.82935 41.6893 5.69171 40.487 4.99994C33.8987 1.20347 23.1929 1.20347 16.6623 4.99994C16.6623 4.99994 7.33992 11.0117 4.36698 12.8564C2.85709 13.713 1.41204 14.6791 0.0434537 15.747C-0.0224287 18.4317 -0.00595808 21.2235 0.0434537 23.3235C0.0434537 24.9294 1.15522 26.4529 3.14816 27.6141L11.7046 32.5552C16.267 35.1905 24.214 34.8858 29.5423 31.8964L29.6905 31.8141L40.8082 25.3988C44.0611 23.3811 45.8482 20.7294 45.8482 17.8717ZM34.7305 20.3423L18.3258 12.3705C24.2058 9.19994 33.4293 9.19994 39.1693 12.5352C40.2502 13.1294 41.2109 13.9198 42.0023 14.8658C42.3976 15.3599 41.1787 15.6235 41.4011 16.1423C41.6235 16.6611 34.7305 20.3423 34.7305 20.3423Z" fill="url(#paint2_linear_3001_46)"></path><path fill-rule="evenodd" clip-rule="evenodd" d="M45.8487 10.5093C45.8487 7.5528 43.9546 4.83515 40.5123 2.85044C33.924 -0.946029 23.2182 -0.954264 16.6876 2.85044L4.33463 9.94927C-0.845374 13.0293 -1.37243 17.6163 3.18992 20.2516L11.7464 25.1928C16.3087 27.8281 24.2558 27.5234 29.584 24.5257L40.8252 18.0034C44.0617 16.0269 45.8487 13.3834 45.8487 10.5093ZM39.1864 15.8293L38.124 16.4387L18.3593 5.01632C24.2064 1.78809 33.4299 1.86221 39.1699 5.18103C41.7476 6.66338 43.1476 8.5575 43.1476 10.5093C43.1476 12.461 41.7476 14.3469 39.1864 15.8293Z" fill="url(#paint3_linear_3001_46)"></path><path fill-rule="evenodd" clip-rule="evenodd" d="M22.0395 16.1833C21.0229 16.697 19.8724 16.884 18.7454 16.7186L15.4513 18.621L12.8242 17.0975L16.1183 15.2033C15.8466 14.5445 16.1595 13.8198 17.0489 13.301C17.8231 12.9069 18.6796 12.7014 19.5483 12.7014C20.4171 12.7014 21.2735 12.9069 22.0477 13.301C23.3819 14.141 23.3819 15.3927 22.0395 16.1833Z" fill="url(#paint4_linear_3001_46)"></path><defs><linearGradient id="paint0_linear_3001_46" x1="-3.2006e-07" y1="18.2662" x2="48.1027" y2="24.8035" gradientUnits="userSpaceOnUse"><stop stop-color="#18029D"></stop><stop offset="1" stop-color="#1C40F2"></stop></linearGradient><linearGradient id="paint1_linear_3001_46" x1="0.0820309" y1="15.7312" x2="47.7622" y2="23.4495" gradientUnits="userSpaceOnUse"><stop stop-color="#0082F8"></stop><stop offset="1" stop-color="#1C40F2"></stop></linearGradient><linearGradient id="paint2_linear_3001_46" x1="44.4811" y1="18.2341" x2="-9.28713" y2="18.2588" gradientUnits="userSpaceOnUse"><stop offset="0.19" stop-color="#E7E9E9"></stop><stop offset="0.25" stop-color="#E0E2E4"></stop><stop offset="0.99" stop-color="#8285A1"></stop></linearGradient><linearGradient id="paint3_linear_3001_46" x1="43.2793" y1="13.1857" x2="-2.5089" y2="13.9104" gradientUnits="userSpaceOnUse"><stop stop-color="#CDD3DB"></stop><stop offset="1" stop-color="#ACB0C2"></stop></linearGradient><linearGradient id="paint4_linear_3001_46" x1="12.8242" y1="13.1346" x2="23.4645" y2="14.889" gradientUnits="userSpaceOnUse"><stop stop-color="#0082F8"></stop><stop offset="1" stop-color="#1C40F2"></stop></linearGradient></defs></svg>