<svg xmlns="http://www.w3.org/2000/svg" width="63" height="53" viewBox="0 0 63 53" fill="none"><path d="M29.7691 44.1251L0 31.396V34.6088L26.841 50.266L29.7691 44.1251Z" fill="url(#paint0_linear_2424_5732)"></path><path d="M53.6808 34.446V31.3552L26.8398 46.2398V50.2659L53.6808 34.446Z" fill="url(#paint1_linear_2424_5732)"></path><circle cx="44" cy="34" r="19" fill="#0082F8" fill-opacity="0.15"></circle><path d="M0 31.3958L26.841 47.0123L53.682 31.3551L26.9223 15.7385L0 31.3958Z" fill="url(#paint2_linear_2424_5732)"></path><path opacity="0.3" fill-rule="evenodd" clip-rule="evenodd" d="M17.2025 40.0581L22.3673 41.3188L25.0514 39.1634C25.5801 39.1634 26.1495 39.1634 26.7595 39.1228L29.1589 41.3188L34.4864 40.1395L33.7137 37.618C34.2017 37.374 34.6491 37.13 35.0964 36.8453L39.5699 37.4554L42.01 34.5679L38.2686 33.1852C38.3499 32.8599 38.3499 32.4939 38.3092 32.1278L42.254 30.7858L40.2613 27.8577L35.7065 28.3457C35.2998 28.061 34.8524 27.817 34.4051 27.6137L35.5845 25.0923L30.4196 23.8315L27.6135 26.1496C27.0035 26.109 26.3935 26.1496 25.7834 26.1496L23.4654 23.8722L18.0565 25.0923L19.0325 27.6543C18.5852 27.8577 18.1378 28.1017 17.6905 28.3864L13.1763 27.7764L10.7769 30.6638L14.681 32.0872C14.5997 32.4125 14.5997 32.7785 14.6404 33.1445L10.6956 34.4866L12.6883 37.4554L17.1618 36.886C17.5685 37.1707 17.9752 37.4147 18.4225 37.6587L17.2025 40.0581Z" fill="white"></path><path fill-rule="evenodd" clip-rule="evenodd" d="M17.5287 34.0394L22.6529 35.3001L25.337 33.104C25.8657 33.104 26.4351 33.104 27.0451 33.0634L29.4445 35.2594L34.772 34.0801C34.772 34.0801 34.8127 32.0873 34.8534 30.7046L39.8555 31.396L42.255 28.4679L42.2956 24.8077L42.4176 24.7671L42.5396 18.3822L35.7887 19.0328V12.6886L30.5832 17.7315L24.0356 17.7721L18.3828 12.6479L18.3421 18.9922L11.0625 18.3008V22.1236V28.4272L12.9332 31.274L17.5287 30.7046V34.0394Z" fill="url(#paint3_linear_2424_5732)"></path><path fill-rule="evenodd" clip-rule="evenodd" d="M17.6914 27.6545L22.8156 28.9152L25.4997 26.7191C26.0284 26.7191 26.5977 26.7191 27.2078 26.6784L29.5665 28.8745L34.8534 27.6951L34.04 25.2144C34.528 24.9704 34.9754 24.7264 35.4227 24.4417L39.8962 25.0517L42.2956 22.1643L38.5948 20.7409C38.6762 20.4155 38.6762 20.0495 38.6355 19.6835L42.5396 18.3415L40.5469 15.4134L35.9921 15.942C35.5854 15.6574 35.138 15.4134 34.6907 15.21L35.8701 12.6886L30.7865 11.3872L27.9804 13.7053C27.3704 13.6646 26.7604 13.7053 26.1504 13.7053L23.8323 11.4279L18.4641 12.6073L19.4401 15.1693C18.9928 15.3727 18.5454 15.6167 18.0981 15.9014L13.4619 15.4134L11.0625 18.3008L15.1293 19.6022C15.048 19.9275 15.048 20.2935 15.0886 20.6595L11.1845 22.0016L13.1772 24.9704L17.6507 24.401C18.0574 24.6857 18.4641 24.9297 18.9115 25.1737L17.6914 27.6545Z" fill="url(#paint4_linear_2424_5732)"></path><path fill-rule="evenodd" clip-rule="evenodd" d="M17.5287 22.7337L22.6936 23.9944L25.3777 21.7983C25.9064 21.7983 26.4757 21.7983 27.0857 21.7576L29.4852 23.9537L34.8127 22.7743C34.8127 22.7743 34.8534 20.7816 34.894 19.3989L39.8962 20.0902L42.2143 17.2841V13.4207L42.6616 13.3393V7.03576L35.7887 7.68645V1.22021L30.6239 6.3444L23.9543 6.38507L18.3421 1.30155V7.56445L11.0625 6.79175V10.7366V17.0808L12.9739 19.9682L17.5287 19.3989V22.7337Z" fill="url(#paint5_linear_2424_5732)"></path><path fill-rule="evenodd" clip-rule="evenodd" d="M17.6914 16.3486L22.8156 17.6093L25.4997 15.4132C26.0284 15.4132 26.5977 15.4132 27.2078 15.3726L29.5665 17.5686L34.8534 16.3893L34.0807 13.8678C34.5687 13.6238 35.016 13.3798 35.4634 13.0951L39.9369 13.7052L42.3363 10.8177L38.6355 9.43501C38.7168 9.10966 38.7168 8.74365 38.6762 8.37764L42.6616 6.99492L40.5876 4.06681L36.0734 4.55483C35.5854 4.27016 35.0974 3.98548 34.5687 3.74147L35.7887 1.13871L30.8272 0L27.9804 2.39942C27.3704 2.35875 26.7604 2.35875 26.1504 2.39942L23.7103 0.0813362L18.3421 1.30138L19.4401 3.86347C18.9928 4.10748 18.5454 4.31082 18.0981 4.5955L13.4619 3.94481L11.0625 6.83225L15.1293 8.33697C15.048 8.66231 15.0073 8.98766 15.048 9.35367L11.1438 10.6957L13.1366 13.6645L17.6101 13.0951C18.0168 13.3798 18.4234 13.6238 18.8708 13.8678L17.6914 16.3486Z" fill="url(#paint6_linear_2424_5732)"></path><path opacity="0.6" fill-rule="evenodd" clip-rule="evenodd" d="M23.4253 6.87286C25.4994 5.81549 27.9395 5.81549 30.0135 6.87286C31.8436 7.9709 31.8436 9.67896 30.0135 10.777C27.9395 11.875 25.4994 11.875 23.4253 10.777C21.5952 9.71963 21.5952 7.9709 23.4253 6.87286Z" fill="#818696"></path><path fill-rule="evenodd" clip-rule="evenodd" d="M24.4006 7.4831C25.824 6.75108 27.5321 6.75108 28.9961 7.4831C30.2568 8.21513 30.2568 9.43517 28.9961 10.2079C27.5727 10.9399 25.8647 10.9399 24.4006 10.2079C23.1399 9.43517 23.1399 8.21513 24.4006 7.4831Z" fill="url(#paint7_linear_2424_5732)"></path><path fill-rule="evenodd" clip-rule="evenodd" d="M39.6499 16.1455V16.3895C39.6499 16.3081 39.6499 16.2268 39.6499 16.1455C38.3892 18.5449 36.7218 21.1883 32.2483 22.5304C32.8583 29.5253 34.9731 32.2907 36.7625 33.3074L38.9585 34.6088L39.4059 33.9581L49.2882 15.1694C49.2882 15.1694 47.9462 14.3967 47.0515 13.8274C42.6187 17.7315 40.9513 17.0402 39.6499 16.1455Z" fill="url(#paint8_linear_2424_5732)"></path><path fill-rule="evenodd" clip-rule="evenodd" d="M39.6499 16.1455V16.3895C39.6499 16.3081 39.6499 16.2268 39.6499 16.1455C38.3892 18.5449 36.7218 21.1883 32.2483 22.5304C34.241 23.6691 34.485 23.8318 34.485 23.8318L40.8293 23.9538L49.3289 15.1694C49.3289 15.1694 47.9869 14.3967 47.0922 13.8274C42.6187 17.7315 40.9513 17.0402 39.6499 16.1455Z" fill="url(#paint9_linear_2424_5732)"></path><path fill-rule="evenodd" clip-rule="evenodd" d="M41.8879 17.4466V17.6907C41.8879 17.6093 41.8879 17.528 41.8879 17.4466C40.6272 19.8461 38.9598 22.4895 34.4863 23.8315C35.5844 36.52 41.6846 35.2186 41.6846 35.2186C41.6846 35.2186 48.6795 28.549 49.3302 15.0879C44.8974 19.0327 43.1893 18.3413 41.8879 17.4466Z" fill="url(#paint10_linear_2424_5732)"></path><path d="M40.0173 27.0038L41.6441 28.3458L43.9621 23.5876" stroke="url(#paint11_linear_2424_5732)" stroke-width="1.71" stroke-linecap="round" stroke-linejoin="round"></path><defs><linearGradient id="paint0_linear_2424_5732" x1="29.7691" y1="46.2685" x2="-1.28321" y2="38.2456" gradientUnits="userSpaceOnUse"><stop stop-color="#001DAC"></stop><stop offset="1" stop-color="#000F57"></stop></linearGradient><linearGradient id="paint1_linear_2424_5732" x1="53.6808" y1="46.2598" x2="25.345" y2="39.673" gradientUnits="userSpaceOnUse"><stop stop-color="#001DAC"></stop><stop offset="1" stop-color="#000F57"></stop></linearGradient><linearGradient id="paint2_linear_2424_5732" x1="-3.74942e-07" y1="18.0269" x2="55.8907" y2="27.1864" gradientUnits="userSpaceOnUse"><stop stop-color="#0082F8"></stop><stop offset="1" stop-color="#1C40F2"></stop></linearGradient><linearGradient id="paint3_linear_2424_5732" x1="42.2866" y1="24.1195" x2="0.851421" y2="23.7227" gradientUnits="userSpaceOnUse"><stop offset="0.36" stop-color="#E7E9E9"></stop><stop offset="0.53" stop-color="#B1B4C3"></stop><stop offset="0.67" stop-color="#8F92AA"></stop><stop offset="0.74" stop-color="#8285A1"></stop></linearGradient><linearGradient id="paint4_linear_2424_5732" x1="44.2182" y1="20.5867" x2="12.6427" y2="19.7971" gradientUnits="userSpaceOnUse"><stop offset="0.02" stop-color="#CDD3DB"></stop><stop offset="0.92" stop-color="#ACB0C2"></stop></linearGradient><linearGradient id="paint5_linear_2424_5732" x1="42.4652" y1="12.7332" x2="0.794728" y2="12.3364" gradientUnits="userSpaceOnUse"><stop offset="0.36" stop-color="#E7E9E9"></stop><stop offset="0.53" stop-color="#B1B4C3"></stop><stop offset="0.67" stop-color="#8F92AA"></stop><stop offset="0.74" stop-color="#8285A1"></stop></linearGradient><linearGradient id="paint6_linear_2424_5732" x1="30.5284" y1="8.89717" x2="-1.11191" y2="8.10756" gradientUnits="userSpaceOnUse"><stop offset="0.02" stop-color="#CDD3DB"></stop><stop offset="0.92" stop-color="#ACB0C2"></stop></linearGradient><linearGradient id="paint7_linear_2424_5732" x1="23.4551" y1="7.2138" x2="30.2126" y2="8.30853" gradientUnits="userSpaceOnUse"><stop stop-color="#0082F8"></stop><stop offset="1" stop-color="#1C40F2"></stop></linearGradient><linearGradient id="paint8_linear_2424_5732" x1="40.7986" y1="16.5002" x2="40.476" y2="41.4637" gradientUnits="userSpaceOnUse"><stop stop-color="#989AAD"></stop><stop offset="1" stop-color="#98A0B7"></stop></linearGradient><linearGradient id="paint9_linear_2424_5732" x1="46.1282" y1="18.0645" x2="29.9626" y2="23.5141" gradientUnits="userSpaceOnUse"><stop offset="0.08" stop-color="#CDD3DB"></stop><stop offset="1" stop-color="#ACB0C2"></stop></linearGradient><linearGradient id="paint10_linear_2424_5732" x1="55.4492" y1="20.3263" x2="21.0567" y2="35.4456" gradientUnits="userSpaceOnUse"><stop offset="0.25" stop-color="#E7E9E9"></stop><stop offset="1" stop-color="#98AACD"></stop></linearGradient><linearGradient id="paint11_linear_2424_5732" x1="40.0173" y1="23.9358" x2="44.2085" y2="24.2676" gradientUnits="userSpaceOnUse"><stop stop-color="#0082F8"></stop><stop offset="1" stop-color="#1C40F2"></stop></linearGradient></defs></svg>