<svg xmlns="http://www.w3.org/2000/svg" width="66" height="52" viewBox="0 0 66 52" fill="none"><circle cx="47" cy="33.0007" r="19" fill="#0082F8" fill-opacity="0.15"></circle><path opacity="0.95" d="M26.7585 2.20972V3.48013" stroke="#818696" stroke-width="1.44" stroke-linecap="round" stroke-linejoin="round"></path><path d="M28.2667 45.9202L0 31.8662V35.0422L26.2023 50.3269L28.2667 45.9202Z" fill="url(#paint0_linear_2401_730)"></path><path d="M52.3648 34.8834V31.8662L26.2021 46.3966V50.3269L52.3648 34.8834Z" fill="url(#paint1_linear_2401_730)"></path><path d="M0 31.8661L26.2023 47.1508L52.4046 31.8661L26.2817 16.6211L0 31.8661Z" fill="url(#paint2_linear_2401_730)"></path><path opacity="0.1" fill-rule="evenodd" clip-rule="evenodd" d="M15.8008 24.5214C22.4308 21.0674 30.3312 21.0674 36.9612 24.5214C42.7971 27.9753 42.7971 33.5334 36.9612 36.9873C30.3312 40.4413 22.4308 40.4413 15.8008 36.9873C9.96484 33.5731 9.96484 27.9753 15.8008 24.5214Z" fill="white"></path><path fill-rule="evenodd" clip-rule="evenodd" d="M11.553 18.2093C18.1036 14.7951 34.5793 14.8745 41.1695 18.2887C41.2092 21.028 41.2092 21.9412 41.1695 24.2041C41.1298 26.467 39.7006 28.6108 36.8422 30.2783C30.2916 33.6925 22.4706 33.6925 15.8803 30.2783C13.0219 28.6108 11.553 26.3876 11.553 24.1644C11.553 21.9412 11.553 21.5442 11.553 18.2093Z" fill="url(#paint3_linear_2401_730)"></path><path fill-rule="evenodd" clip-rule="evenodd" d="M15.8799 11.8966C22.4702 8.48238 30.2515 8.48238 36.8418 11.8966C42.6381 15.3109 42.6381 20.8292 36.8418 24.2435C30.2912 27.6577 22.4702 27.6577 15.8799 24.2435C10.1234 20.8689 10.1234 15.3109 15.8799 11.8966Z" fill="url(#paint4_linear_2401_730)"></path><path fill-rule="evenodd" clip-rule="evenodd" d="M11.553 8.48226C18.1036 5.06802 34.5793 5.14742 41.1695 8.56167C41.2092 11.301 41.2092 12.6111 41.1695 14.874C41.1695 17.0576 39.6609 19.2808 36.8422 20.9482C30.2916 24.3625 22.4706 24.3625 15.8803 20.9482C13.0219 19.2411 11.553 17.0576 11.553 14.8343C11.553 12.6111 11.553 11.8171 11.553 8.48226Z" fill="url(#paint5_linear_2401_730)"></path><path fill-rule="evenodd" clip-rule="evenodd" d="M15.8799 2.56713C22.4305 -0.847111 30.2515 -0.847111 36.8418 2.52743C42.6381 5.94167 42.6381 11.46 36.8418 14.914C30.2912 18.3282 22.4702 18.3282 15.8799 14.914C10.1234 11.4997 10.1234 5.98137 15.8799 2.56713Z" fill="url(#paint6_linear_2401_730)"></path><path fill-rule="evenodd" clip-rule="evenodd" d="M20.4829 4.68373C20.8708 4.02442 21.7196 3.80435 22.3789 4.19217L26.4128 6.56503L29.2765 4.72931C29.9461 4.30012 30.8367 4.49496 31.2659 5.1645C31.6951 5.83404 31.5003 6.72473 30.8308 7.15392L28.4566 8.6758C28.4402 8.87729 28.3791 9.07829 28.2698 9.26421C27.8819 9.92352 27.0331 10.1436 26.3738 9.75577L20.9745 6.57973C20.3152 6.19191 20.0951 5.34304 20.4829 4.68373Z" fill="url(#paint7_linear_2401_730)"></path><path opacity="0.95" d="M19.7705 4.23457L18.6589 3.59937" stroke="#818696" stroke-width="2.77" stroke-linecap="round" stroke-linejoin="round"></path><path opacity="0.95" d="M15.443 8.8001L14.252 8.7207" stroke="#818696" stroke-width="1.39" stroke-linecap="round" stroke-linejoin="round"></path><path opacity="0.95" d="M38.3909 8.36343L37.1602 8.32373" stroke="#818696" stroke-width="1.44" stroke-linecap="round" stroke-linejoin="round"></path><path opacity="0.95" d="M35.6115 13.0083L34.0234 12.0952" stroke="#818696" stroke-width="2.88" stroke-linecap="round" stroke-linejoin="round"></path><path d="M32.8318 4.27442L34.0228 3.55981" stroke="#818696" stroke-width="2.88" stroke-linecap="round" stroke-linejoin="round"></path><path d="M17.9053 13.4846L19.3345 12.6509" stroke="#818696" stroke-width="2.77" stroke-linecap="round" stroke-linejoin="round"></path><path opacity="0.5" d="M17.0712 3.28173C22.9072 0.26449 29.8151 0.26449 35.6511 3.28173C40.7724 6.29896 40.7724 11.2218 35.6511 14.2391C29.8548 17.2563 22.9072 17.2563 17.0712 14.2391C11.9499 11.2218 11.9499 6.29896 17.0712 3.28173Z" stroke="#818696" stroke-width="1.39" stroke-linecap="round" stroke-linejoin="round"></path><path opacity="0.95" d="M26.6787 14.2788V15.5095" stroke="#818696" stroke-width="1.44" stroke-linecap="round" stroke-linejoin="round"></path><path opacity="0.95" d="M26.6787 1.6936V2.92432" stroke="#818696" stroke-width="1.44" stroke-linecap="round" stroke-linejoin="round"></path><path fill-rule="evenodd" clip-rule="evenodd" d="M44.0669 29.1663L43.6699 29.4045L43.7096 32.5805L40.0572 31.5483L32.9905 37.7813C32.9905 37.7813 30.9658 36.5903 30.6879 36.4315C30.3306 36.1932 30.1321 35.7962 30.1718 35.3595L30.2115 25.2756C30.2512 24.0846 30.8864 23.0127 31.8789 22.3775L43.9875 15.3108C44.3448 15.0329 44.7815 14.9932 45.1785 15.1917C45.4961 15.3505 47.64 16.5812 47.64 16.5812L45.774 26.3078C45.6549 27.4591 45.0594 28.5311 44.0669 29.1663Z" fill="url(#paint8_linear_2401_730)"></path><path fill-rule="evenodd" clip-rule="evenodd" d="M46.4502 30.556L46.0135 30.8339V34.0099L42.4801 32.8983L34.3018 37.702C33.3887 38.2579 32.5947 37.8608 32.5947 36.7889V26.705C32.6344 25.514 33.1902 24.4024 34.1827 23.7672L46.3311 16.6211C47.2442 16.0653 47.9985 16.502 47.9985 17.5739V27.7372C47.9588 28.8885 47.403 29.9208 46.4502 30.556Z" fill="url(#paint9_linear_2401_730)"></path><path d="M39.1838 25.5537C39.2632 25.3949 39.3823 25.2758 39.5014 25.117C39.6205 24.9582 39.7396 24.8391 39.8587 24.6803C39.9778 24.5215 40.097 24.4024 40.2558 24.2833C40.4146 24.1642 40.5734 24.0451 40.7322 23.9657C40.9307 23.8466 41.1292 23.7672 41.3674 23.7275C41.5262 23.6878 41.7247 23.6878 41.8835 23.7672C42.0423 23.8069 42.1217 23.926 42.2011 24.0848C42.2805 24.2833 42.3202 24.4818 42.3202 24.6803C42.3202 24.9185 42.2805 25.1567 42.2408 25.3552C42.2011 25.5537 42.1217 25.7522 42.0026 25.9507C41.9232 26.1492 41.8041 26.308 41.685 26.4668C41.5659 26.6256 41.4865 26.7844 41.3674 26.9035C41.288 27.0226 41.2086 27.1814 41.1292 27.3005C41.0498 27.4196 41.0101 27.5387 41.0101 27.6578L40.9307 28.4121L40.3352 28.7695L40.2558 28.0151C40.2558 27.8563 40.2558 27.7372 40.3352 27.5784C40.4146 27.4196 40.4543 27.3005 40.5734 27.1417C40.6528 26.9829 40.7719 26.8241 40.891 26.705C41.0101 26.5462 41.0895 26.3874 41.2086 26.2286C41.288 26.0698 41.3674 25.911 41.4468 25.7125C41.5262 25.5537 41.5659 25.3552 41.5659 25.1964C41.5659 25.0773 41.5659 24.9979 41.4865 24.8788C41.4468 24.7994 41.4071 24.7597 41.3277 24.72C41.2483 24.6803 41.1689 24.6803 41.0498 24.72C40.9307 24.7597 40.8116 24.7994 40.7322 24.8391C40.5734 24.9185 40.4543 25.0376 40.3352 25.1567C40.2161 25.2361 40.1367 25.3552 40.0573 25.4743C39.9778 25.5934 39.8984 25.6728 39.8587 25.7522C39.819 25.7919 39.7793 25.8713 39.7396 25.911C39.6602 25.9507 39.5808 25.9507 39.5411 25.8713L39.1838 25.5537ZM39.9778 30.7545C39.9778 30.6751 39.9778 30.556 40.0176 30.4766C40.0573 30.3972 40.0969 30.2781 40.1367 30.1987C40.1764 30.1193 40.2558 30.0399 40.3352 29.9605C40.4146 29.8811 40.494 29.8414 40.5734 29.762C40.6528 29.7223 40.7322 29.6826 40.8116 29.6826C40.891 29.6826 40.9307 29.6826 41.0101 29.7223C41.0498 29.762 41.0895 29.8017 41.1292 29.8811C41.1689 29.9605 41.1689 30.0399 41.1689 30.1193C41.1689 30.1987 41.1689 30.3178 41.1292 30.3972C41.0895 30.4766 41.0498 30.5957 41.0101 30.6751C40.9704 30.7545 40.891 30.8339 40.8116 30.9133C40.7322 30.9927 40.6528 31.0324 40.5734 31.0721C40.494 31.1118 40.4146 31.1515 40.3352 31.1515C40.2558 31.1515 40.2161 31.1515 40.1367 31.1118C40.0969 31.0721 40.0573 31.0324 40.0176 30.9927C39.9778 30.9133 39.9778 30.8339 39.9778 30.7545Z" fill="url(#paint10_linear_2401_730)"></path><defs><linearGradient id="paint0_linear_2401_730" x1="28.2667" y1="46.4161" x2="-1.32578" y2="38.9952" gradientUnits="userSpaceOnUse"><stop stop-color="#001DAC"></stop><stop offset="1" stop-color="#000F57"></stop></linearGradient><linearGradient id="paint1_linear_2401_730" x1="52.3648" y1="46.4161" x2="24.7408" y2="40.0045" gradientUnits="userSpaceOnUse"><stop stop-color="#001DAC"></stop><stop offset="1" stop-color="#000F57"></stop></linearGradient><linearGradient id="paint2_linear_2401_730" x1="-3.6602e-07" y1="18.855" x2="54.5609" y2="27.7966" gradientUnits="userSpaceOnUse"><stop stop-color="#0082F8"></stop><stop offset="1" stop-color="#1C40F2"></stop></linearGradient><linearGradient id="paint3_linear_2401_730" x1="42.0786" y1="24.1631" x2="5.03809" y2="24.3974" gradientUnits="userSpaceOnUse"><stop offset="0.42" stop-color="#E7E9E9"></stop><stop offset="0.68" stop-color="#B1B4C3"></stop><stop offset="0.88" stop-color="#8F92AA"></stop><stop offset="0.99" stop-color="#8285A1"></stop></linearGradient><linearGradient id="paint4_linear_2401_730" x1="42.9498" y1="15.9908" x2="13.5397" y2="19.679" gradientUnits="userSpaceOnUse"><stop stop-color="#CDD3DB"></stop><stop offset="1" stop-color="#ACB0C2"></stop></linearGradient><linearGradient id="paint5_linear_2401_730" x1="42.0826" y1="14.6345" x2="5.03813" y2="14.8688" gradientUnits="userSpaceOnUse"><stop offset="0.42" stop-color="#E7E9E9"></stop><stop offset="0.68" stop-color="#B1B4C3"></stop><stop offset="0.88" stop-color="#8F92AA"></stop><stop offset="0.99" stop-color="#8285A1"></stop></linearGradient><linearGradient id="paint6_linear_2401_730" x1="42.9518" y1="6.6612" x2="13.5417" y2="10.3454" gradientUnits="userSpaceOnUse"><stop stop-color="#CDD3DB"></stop><stop offset="1" stop-color="#ACB0C2"></stop></linearGradient><linearGradient id="paint7_linear_2401_730" x1="20.2915" y1="4.43584" x2="31.8927" y2="6.52243" gradientUnits="userSpaceOnUse"><stop stop-color="#0082F8"></stop><stop offset="1" stop-color="#1C40F2"></stop></linearGradient><linearGradient id="paint8_linear_2401_730" x1="50.2902" y1="19.8885" x2="16.2864" y2="40.5435" gradientUnits="userSpaceOnUse"><stop stop-color="#E7E9E9"></stop><stop offset="0.46" stop-color="#B1B4C3"></stop><stop offset="0.81" stop-color="#8F92AA"></stop><stop offset="0.99" stop-color="#8285A1"></stop></linearGradient><linearGradient id="paint9_linear_2401_730" x1="50.3347" y1="22.6692" x2="28.3837" y2="36.0057" gradientUnits="userSpaceOnUse"><stop stop-color="#E7E9E9"></stop><stop offset="0.45" stop-color="#E5E7E8"></stop><stop offset="0.63" stop-color="#DEE2E6"></stop><stop offset="0.75" stop-color="#D2D8E2"></stop><stop offset="0.86" stop-color="#C1CBDB"></stop><stop offset="0.94" stop-color="#ABB9D4"></stop><stop offset="1" stop-color="#98AACD"></stop></linearGradient><linearGradient id="paint10_linear_2401_730" x1="39.1838" y1="24.2465" x2="42.5315" y2="24.3811" gradientUnits="userSpaceOnUse"><stop stop-color="#0082F8"></stop><stop offset="1" stop-color="#1C40F2"></stop></linearGradient></defs></svg>