<svg xmlns="http://www.w3.org/2000/svg" width="62" height="56" viewBox="0 0 62 56" fill="none"><circle cx="43" cy="32.0007" r="19" fill="#0082F8" fill-opacity="0.15"></circle><path d="M23.1339 40.093L0 27.991V36.059L23.1339 49.4783V40.093Z" fill="url(#paint0_linear_3001_48)"></path><path d="M45.9384 36.059V27.991L23.0515 40.1754L23.1338 49.4783L45.9384 36.059Z" fill="url(#paint1_linear_3001_48)"></path><path d="M0 27.9913L23.0515 41.4106L45.9384 27.9913L22.9692 14.572L0 27.9913Z" fill="url(#paint2_linear_3001_48)"></path><path d="M23.1339 27.1677L0 15.0657V23.1337L23.1339 36.553V27.1677Z" fill="url(#paint3_linear_3001_48)"></path><path d="M45.9384 23.1337V15.0657L23.0515 27.2501L23.1338 36.553L45.9384 23.1337Z" fill="url(#paint4_linear_3001_48)"></path><path d="M0 15.0658L23.0515 28.4027L45.9384 15.0658L22.9692 1.64648L0 15.0658Z" fill="url(#paint5_linear_3001_48)"></path><path d="M4.93962 16.2186L0 13.3372V15.066L4.93962 17.9475V16.2186Z" fill="url(#paint6_linear_3001_48)"></path><path d="M27.8263 4.52794V2.79907L4.93945 15.0658V17.9472L27.8263 4.52794Z" fill="url(#paint7_linear_3001_48)"></path><path d="M0 13.4193L4.93962 16.2184L27.7442 2.79912L22.9692 0L0 13.4193Z" fill="url(#paint8_linear_3001_48)"></path><path d="M18.0294 18.7706C17.7825 18.6059 17.5355 18.3589 17.3708 18.0296C17.2885 17.7826 17.2062 17.5357 17.2885 17.371C17.3708 17.124 17.4531 16.877 17.6178 16.7124C17.8648 16.4654 18.1118 16.3008 18.3587 16.1361C18.6881 15.9714 19.0174 15.8068 19.429 15.7245C19.7583 15.6421 20.1699 15.5598 20.4992 15.5598C20.8286 15.5598 21.2402 15.5598 21.5695 15.6421C21.8988 15.7245 22.2281 15.8068 22.4751 15.9714C22.6397 16.0538 22.8867 16.2184 23.0514 16.3831C23.1337 16.4654 23.216 16.6301 23.2984 16.7947C23.2984 16.9594 23.2984 17.0417 23.2984 17.2064C23.216 17.371 23.1337 17.5357 23.0514 17.618C23.5453 17.4533 24.1216 17.371 24.6979 17.371C25.1919 17.371 25.6858 17.5357 26.1798 17.7826C26.5091 17.9473 26.7561 18.1943 26.9207 18.4413C27.0854 18.6882 27.0854 18.9352 27.0854 19.1822C27.0031 19.4292 26.9207 19.6762 26.7561 19.9231C26.5091 20.1701 26.2621 20.4171 25.9328 20.5818C25.6035 20.7464 25.1919 20.9111 24.7802 21.0757C24.4509 21.158 24.0393 21.2404 23.6277 21.2404C23.216 21.2404 22.8867 21.2404 22.4751 21.158C22.0635 21.0757 21.7341 20.9934 21.3225 20.9111L21.5695 20.4994C21.6518 20.4171 21.7341 20.3348 21.8988 20.2524C22.0635 20.2524 22.2281 20.2524 22.3104 20.2524L22.8867 20.3348C23.0514 20.3348 23.2984 20.4171 23.463 20.3348C23.71 20.3348 23.8746 20.3348 24.1216 20.2524C24.3686 20.1701 24.6156 20.0878 24.7802 19.9231C24.9449 19.8408 25.1096 19.6762 25.2742 19.5115C25.3565 19.3469 25.4389 19.2645 25.4389 19.0999C25.4389 18.9352 25.3565 18.8529 25.2742 18.6882C25.1919 18.5236 25.0272 18.4413 24.9449 18.3589C24.7802 18.2766 24.5333 18.1943 24.3686 18.1119C24.1216 18.0296 23.957 18.0296 23.71 18.0296C23.463 18.0296 23.1337 18.1119 22.8867 18.1943C22.5574 18.3589 22.2281 18.4413 21.8988 18.6882L21.0755 18.1943C21.3225 18.0296 21.5695 17.865 21.7341 17.7003C21.8988 17.618 21.9811 17.4533 21.9811 17.2887C21.9811 17.124 21.9811 17.0417 21.8988 16.877C21.8165 16.7124 21.6518 16.6301 21.4872 16.5477C21.3225 16.4654 21.0755 16.3831 20.9109 16.3008C20.7462 16.2184 20.4992 16.2184 20.3346 16.2184C20.1699 16.2184 19.923 16.2184 19.7583 16.3008C19.5936 16.3831 19.3467 16.4654 19.182 16.5477C19.0174 16.6301 18.935 16.7124 18.7704 16.877C18.6881 16.9594 18.6057 17.124 18.6057 17.2064C18.6057 17.2887 18.6057 17.4533 18.6057 17.5357C18.6881 17.618 18.7704 17.7826 18.8527 17.865C18.935 17.9473 18.935 18.0296 18.935 18.1119C18.935 18.1943 18.7704 18.2766 18.6057 18.3589L18.0294 18.7706Z" fill="url(#paint9_linear_3001_48)"></path><path d="M30.79 13.3371C31.3663 13.6664 31.8603 13.9957 32.2719 14.4073C32.6012 14.6543 32.7659 15.0659 32.8482 15.3952C32.9305 15.7245 32.8482 16.0539 32.6835 16.3008C32.4366 16.6301 32.1896 16.8771 31.8603 17.0418C31.4486 17.2888 31.037 17.4534 30.543 17.5357C30.0491 17.6181 29.4728 17.7004 28.9788 17.6181C28.4025 17.5357 27.7439 17.4534 27.1676 17.2888C26.509 17.0418 25.8504 16.7948 25.2741 16.4655C24.6978 16.1362 24.2039 15.8069 23.7922 15.3952C23.4629 15.1483 23.2983 14.7366 23.1336 14.4073C23.0513 14.078 23.1336 13.7487 23.2983 13.5017C23.5453 13.1724 23.7922 12.9254 24.1215 12.7608C24.5332 12.5138 24.9448 12.3491 25.4388 12.2668C25.9327 12.1845 26.509 12.1022 27.003 12.1845C27.5793 12.2668 28.1556 12.3491 28.7318 12.5138C29.5551 12.6785 30.2137 12.9254 30.79 13.3371ZM29.6374 13.9957C29.1435 13.6664 28.6495 13.5017 28.1556 13.2547C27.7439 13.0901 27.3323 13.0078 26.9207 12.9254C26.5913 12.8431 26.262 12.8431 25.9327 12.9254C25.6858 13.0078 25.4388 13.0901 25.1918 13.1724C25.0271 13.2547 24.8625 13.4194 24.7802 13.584C24.6978 13.7487 24.6978 13.9957 24.7802 14.1603C24.8625 14.4073 25.1095 14.6543 25.3564 14.9013C25.7681 15.2306 26.1797 15.5599 26.5913 15.8069C27.0853 16.0539 27.5793 16.3008 28.0732 16.5478C28.4849 16.7125 28.8965 16.7948 29.3081 16.8771C29.6374 16.9595 29.9668 16.9595 30.2961 16.8771C30.543 16.7948 30.79 16.7125 31.037 16.6301C31.2017 16.5478 31.3663 16.3832 31.4486 16.2185C31.531 16.0539 31.531 15.8069 31.4486 15.6422C31.3663 15.3952 31.1193 15.1483 30.8723 14.9013C30.543 14.4896 30.1314 14.2427 29.6374 13.9957Z" fill="url(#paint10_linear_3001_48)"></path><path opacity="0.3" fill-rule="evenodd" clip-rule="evenodd" d="M23.1315 34.1213L0.0825195 20.5818V21.4051L23.1366 34.8691L45.774 20.9934V20.1702L23.1315 34.1213Z" fill="url(#paint11_linear_3001_48)"></path><path opacity="0.3" fill-rule="evenodd" clip-rule="evenodd" d="M23.1275 31.1603L45.774 17.7002V18.5235L23.1406 31.9022L22.9782 31.812L23.134 31.5313C22.9782 31.812 22.9782 31.812 22.9782 31.812L22.3823 31.4804C21.9961 31.2652 21.4332 30.9511 20.7262 30.5556C19.3124 29.7645 17.3225 28.6475 15.018 27.3435C10.4094 24.7357 5.11702 21.9268 0.0825195 18.935V18.1118C5.11118 21.1001 10.727 24.1776 15.3342 26.7846C17.6377 28.088 19.6267 29.2045 21.0398 29.9952C21.7464 30.3905 22.3089 30.7044 22.6948 30.9194L23.1275 31.1603Z" fill="url(#paint12_linear_3001_48)"></path><defs><linearGradient id="paint0_linear_3001_48" x1="23.1339" y1="44.9263" x2="-1.83185" y2="40.5242" gradientUnits="userSpaceOnUse"><stop stop-color="#001DAC"></stop><stop offset="1" stop-color="#000F57"></stop></linearGradient><linearGradient id="paint1_linear_3001_48" x1="45.9384" y1="44.9263" x2="21.2234" y2="40.615" gradientUnits="userSpaceOnUse"><stop stop-color="#001DAC"></stop><stop offset="1" stop-color="#000F57"></stop></linearGradient><linearGradient id="paint2_linear_3001_48" x1="-3.20857e-07" y1="16.5358" x2="47.8357" y2="24.3531" gradientUnits="userSpaceOnUse"><stop stop-color="#0082F8"></stop><stop offset="1" stop-color="#1C40F2"></stop></linearGradient><linearGradient id="paint3_linear_3001_48" x1="-4.29747" y1="25.7929" x2="18.7705" y2="25.7929" gradientUnits="userSpaceOnUse"><stop stop-color="#989AAD"></stop><stop offset="1" stop-color="#98A0B7"></stop></linearGradient><linearGradient id="paint4_linear_3001_48" x1="51.8495" y1="25.7929" x2="52.2529" y2="25.7929" gradientUnits="userSpaceOnUse"><stop stop-color="#E7E9E9"></stop><stop offset="1" stop-color="#98AACD"></stop></linearGradient><linearGradient id="paint5_linear_3001_48" x1="37.1074" y1="25.2871" x2="9.40437" y2="5.2487" gradientUnits="userSpaceOnUse"><stop stop-color="#CDD3DB"></stop><stop offset="1" stop-color="#ACB0C2"></stop></linearGradient><linearGradient id="paint6_linear_3001_48" x1="-0.889131" y1="15.6547" x2="4.03402" y2="15.6547" gradientUnits="userSpaceOnUse"><stop stop-color="#989AAD"></stop><stop offset="1" stop-color="#98A0B7"></stop></linearGradient><linearGradient id="paint7_linear_3001_48" x1="33.7539" y1="10.3773" x2="34.149" y2="10.3773" gradientUnits="userSpaceOnUse"><stop stop-color="#E7E9E9"></stop><stop offset="1" stop-color="#98AACD"></stop></linearGradient><linearGradient id="paint8_linear_3001_48" x1="20.0971" y1="12.578" x2="7.97032" y2="3.80194" gradientUnits="userSpaceOnUse"><stop stop-color="#CDD3DB"></stop><stop offset="1" stop-color="#ACB0C2"></stop></linearGradient><linearGradient id="paint9_linear_3001_48" x1="17.2544" y1="15.9755" x2="27.4855" y2="17.666" gradientUnits="userSpaceOnUse"><stop stop-color="#0082F8"></stop><stop offset="1" stop-color="#1C40F2"></stop></linearGradient><linearGradient id="paint10_linear_3001_48" x1="23.1013" y1="12.553" x2="33.2637" y2="14.2775" gradientUnits="userSpaceOnUse"><stop stop-color="#0082F8"></stop><stop offset="1" stop-color="#1C40F2"></stop></linearGradient><linearGradient id="paint11_linear_3001_48" x1="-3.37295" y1="26.7925" x2="47.3152" y2="26.7925" gradientUnits="userSpaceOnUse"><stop stop-color="#050505"></stop><stop offset="1" stop-color="#ACB0C2"></stop></linearGradient><linearGradient id="paint12_linear_3001_48" x1="-2.83155" y1="23.9449" x2="47.3151" y2="23.9449" gradientUnits="userSpaceOnUse"><stop stop-color="#050505"></stop><stop offset="1" stop-color="#ACB0C2"></stop></linearGradient></defs></svg>