<svg xmlns="http://www.w3.org/2000/svg" width="62" height="52" viewBox="0 0 62 52" fill="none"><circle cx="43" cy="32.0007" r="19" fill="#0082F8" fill-opacity="0.15"></circle><path d="M24.1043 39.1834L0 29.988V37.7751L22.8745 51.1953L24.1043 39.1834Z" fill="url(#paint0_linear_3001_47)"></path><path d="M45.7495 37.7751V29.988L22.875 39.1005V51.1953L45.7495 37.7751Z" fill="url(#paint1_linear_3001_47)"></path><path d="M0 29.9879L22.8745 43.4909L45.7491 29.9879L22.8745 16.4849L0 29.9879Z" fill="url(#paint2_linear_3001_47)"></path><path d="M24.5134 11.0178L13.0352 5.79883V14.7456L22.8737 20.5445L24.5134 11.0178Z" fill="url(#paint3_linear_3001_47)"></path><path d="M32.7135 15.1598V5.79883L22.875 10.935V20.9587L32.7135 15.1598Z" fill="url(#paint4_linear_3001_47)"></path><path d="M13.0352 5.79885L22.8737 11.5149L32.7122 5.79885L22.8737 0L13.0352 5.79885Z" fill="url(#paint5_linear_3001_47)"></path><path d="M33.4513 25.1006L22.6289 19.5503V27.7515L32.7134 33.6332L33.4513 25.1006Z" fill="url(#paint6_linear_3001_47)"></path><path d="M42.4694 27.8345V19.7161L32.7129 24.8522V33.6333L42.4694 27.8345Z" fill="url(#paint7_linear_3001_47)"></path><path d="M22.875 19.7158L32.7135 25.5147L42.47 19.7158L32.7135 13.917L22.875 19.7158Z" fill="url(#paint8_linear_3001_47)"></path><path d="M14.0196 24.7693L3.19727 19.7161V27.8345L13.0358 33.6333L14.0196 24.7693Z" fill="url(#paint9_linear_3001_47)"></path><path d="M22.7917 27.8345V19.7161L13.0352 24.8522V33.6333L22.7917 27.8345Z" fill="url(#paint10_linear_3001_47)"></path><path d="M3.19727 19.7158L13.0358 25.5147L22.8743 19.7158L13.0358 13.917L3.19727 19.7158Z" fill="url(#paint11_linear_3001_47)"></path><defs><linearGradient id="paint0_linear_3001_47" x1="24.1043" y1="46.7026" x2="-1.81917" y2="41.877" gradientUnits="userSpaceOnUse"><stop stop-color="#001DAC"></stop><stop offset="1" stop-color="#000F57"></stop></linearGradient><linearGradient id="paint1_linear_3001_47" x1="46.001" y1="32.333" x2="38.1825" y2="54.3868" gradientUnits="userSpaceOnUse"><stop stop-color="#18029D"></stop><stop offset="1" stop-color="#1C40F2"></stop></linearGradient><linearGradient id="paint2_linear_3001_47" x1="-3.19535e-07" y1="18.4609" x2="47.6639" y2="26.1699" gradientUnits="userSpaceOnUse"><stop stop-color="#0082F8"></stop><stop offset="1" stop-color="#1C40F2"></stop></linearGradient><linearGradient id="paint3_linear_3001_47" x1="10.8707" y1="13.1509" x2="22.3489" y2="13.1509" gradientUnits="userSpaceOnUse"><stop stop-color="#989AAD"></stop><stop offset="1" stop-color="#98A0B7"></stop></linearGradient><linearGradient id="paint4_linear_3001_47" x1="35.2305" y1="13.358" x2="35.4027" y2="13.358" gradientUnits="userSpaceOnUse"><stop stop-color="#E7E9E9"></stop><stop offset="1" stop-color="#98AACD"></stop></linearGradient><linearGradient id="paint5_linear_3001_47" x1="28.9091" y1="10.1878" x2="16.9614" y2="1.63189" gradientUnits="userSpaceOnUse"><stop stop-color="#CDD3DB"></stop><stop offset="1" stop-color="#ACB0C2"></stop></linearGradient><linearGradient id="paint6_linear_3001_47" x1="20.5792" y1="26.6207" x2="31.3852" y2="26.6207" gradientUnits="userSpaceOnUse"><stop stop-color="#989AAD"></stop><stop offset="1" stop-color="#98A0B7"></stop></linearGradient><linearGradient id="paint7_linear_3001_47" x1="45.0602" y1="26.6913" x2="45.2324" y2="26.6913" gradientUnits="userSpaceOnUse"><stop stop-color="#E7E9E9"></stop><stop offset="1" stop-color="#98AACD"></stop></linearGradient><linearGradient id="paint8_linear_3001_47" x1="38.73" y1="24.1414" x2="26.7823" y2="15.5855" gradientUnits="userSpaceOnUse"><stop stop-color="#CDD3DB"></stop><stop offset="1" stop-color="#ACB0C2"></stop></linearGradient><linearGradient id="paint9_linear_3001_47" x1="1.16397" y1="26.6871" x2="11.9781" y2="26.6871" gradientUnits="userSpaceOnUse"><stop stop-color="#989AAD"></stop><stop offset="1" stop-color="#98A0B7"></stop></linearGradient><linearGradient id="paint10_linear_3001_47" x1="25.3333" y1="26.6788" x2="25.5055" y2="26.6788" gradientUnits="userSpaceOnUse"><stop stop-color="#E7E9E9"></stop><stop offset="1" stop-color="#98AACD"></stop></linearGradient><linearGradient id="paint11_linear_3001_47" x1="19.0876" y1="24.1462" x2="7.13987" y2="15.5903" gradientUnits="userSpaceOnUse"><stop stop-color="#CDD3DB"></stop><stop offset="1" stop-color="#ACB0C2"></stop></linearGradient></defs></svg>