<svg xmlns="http://www.w3.org/2000/svg" width="48" height="48" viewBox="0 0 48 48" fill="none"><path d="M24 48C10.7274 48 0 37.276 0 24C0 10.7273 10.7241 0 24 0C37.2727 0 48 10.724 48 24C48 37.2726 37.276 48 24 48Z" fill="#30313F"></path><g clip-path="url(#clip0_1763_155)"><path d="M32.2119 19.7188C29.5702 15.3787 25.5908 18.3982 25.5908 18.3982C25.3327 18.5932 24.8568 18.7536 24.5335 18.7543L23.4676 18.7551C23.1442 18.7555 22.6683 18.5951 22.4106 18.4C22.4106 18.4 18.4308 15.3799 15.7888 19.7199C13.1476 24.0585 14.212 28.7834 14.212 28.7834C14.3985 29.9403 15.0131 30.7123 16.173 30.6154C17.3295 30.5188 19.8399 27.4997 19.8399 27.4997C20.0472 27.251 20.4817 27.0477 20.8043 27.0477L27.1945 27.0466C27.5175 27.0466 27.9516 27.2498 28.1586 27.4986C28.1586 27.4986 30.6693 30.5177 31.8277 30.6143C32.9861 30.7112 33.6022 29.9385 33.7876 28.7823C33.7872 28.7823 34.8535 24.0581 32.2119 19.7188ZM21.5987 23.2514H20.2285V24.572C20.2285 24.572 19.9383 24.7936 19.4893 24.788C19.041 24.7813 18.8381 24.5463 18.8381 24.5463V23.2518H17.544C17.544 23.2518 17.3825 23.0862 17.3392 22.6502C17.2967 22.2142 17.5179 21.8618 17.5179 21.8618H18.8885V20.4916C18.8885 20.4916 19.1704 20.3405 19.5758 20.3521C19.9816 20.3647 20.2788 20.5173 20.2788 20.5173L20.2732 21.8614H21.5674C21.5674 21.8614 21.7934 22.1516 21.812 22.5021C21.8307 22.8531 21.5987 23.2514 21.5987 23.2514ZM27.8837 24.7566C27.2836 24.7566 26.7999 24.2714 26.7999 23.6721C26.7999 23.0716 27.2836 22.5876 27.8837 22.5876C28.4812 22.5876 28.9686 23.0716 28.9686 23.6721C28.9686 24.2718 28.4812 24.7566 27.8837 24.7566ZM27.8837 21.7726C27.2836 21.7726 26.7999 21.2878 26.7999 20.6885C26.7999 20.088 27.2836 19.6039 27.8837 19.6039C28.4812 19.6039 28.9686 20.088 28.9686 20.6885C28.9686 21.2882 28.4812 21.7726 27.8837 21.7726ZM30.5847 23.3745C29.9846 23.3745 29.5009 22.8896 29.5009 22.2899C29.5009 21.6899 29.9846 21.2054 30.5847 21.2054C31.1821 21.2054 31.6696 21.6899 31.6696 22.2899C31.6696 22.8896 31.1821 23.3745 30.5847 23.3745Z" fill="url(#paint0_linear_1763_155)"></path></g><defs><linearGradient id="paint0_linear_1763_155" x1="14" y1="17.376" x2="36.2234" y2="21.1915" gradientUnits="userSpaceOnUse"><stop stop-color="#F16262"></stop><stop offset="1" stop-color="#3200FF"></stop></linearGradient><clipPath id="clip0_1763_155"><rect width="20" height="20" fill="white" transform="translate(14 14)"></rect></clipPath></defs></svg>