<svg xmlns="http://www.w3.org/2000/svg" width="57" height="50" viewBox="0 0 57 50" fill="none"><path opacity="0.1" d="M56.0381 33.0974L28.0381 49.4434L0.0380859 33.0974L28.0381 16.7515L56.0381 33.0974Z" fill="url(#paint0_linear_2144_638)"></path><path d="M28.0762 39.9085L56.0005 23.7139V27.1193L28.3789 43.5787L28.0762 39.9085Z" fill="url(#paint1_linear_2144_638)"></path><path d="M0.0380859 27.0812V23.6758L28.3786 38.3569V43.5785L0.0380859 27.0812Z" fill="url(#paint2_linear_2144_638)"></path><path d="M56.0002 23.7139L28.3786 40.022L0.0380859 23.676L28.0381 7.33008L56.0002 23.7139Z" fill="url(#paint3_linear_2144_638)"></path><path opacity="0.3" fill-rule="evenodd" clip-rule="evenodd" d="M28.152 32.9085L27.5466 32.5679L23.5736 34.876L22.3628 29.5787L10.3682 22.6544C9.04392 21.8976 9.04392 20.649 10.3682 19.8544L23.0439 12.5139C24.5574 11.7571 26.3736 11.7571 27.8872 12.5139L45.6709 22.7679C46.9953 23.5247 46.9953 24.7733 45.6709 25.5679L32.9953 32.9085C31.4818 33.703 29.6655 33.703 28.152 32.9085Z" fill="white"></path><path fill-rule="evenodd" clip-rule="evenodd" d="M28.1518 28.1787L27.5464 27.8381L23.4599 30.2598L23.3086 22.3138C23.3086 22.3138 26.5626 7.02734 27.9248 7.82193L46.9194 12.7787C46.9194 12.7787 46.9194 18.8706 46.9194 19.3625C46.9194 19.8544 46.314 20.4219 45.6708 20.8381L32.9951 28.1787C31.4816 28.9354 29.6654 28.9354 28.1518 28.1787Z" fill="url(#paint4_linear_2144_638)"></path><path fill-rule="evenodd" clip-rule="evenodd" d="M23.4596 30.2974L22.3623 24.8109L10.3677 17.9244C9.6866 17.5461 9.42174 17.0163 9.45957 16.4866C9.49741 15.9569 9.45957 9.67578 9.45957 9.67578L23.4596 18.3406V30.2974Z" fill="url(#paint5_linear_2144_638)"></path><path fill-rule="evenodd" clip-rule="evenodd" d="M28.1518 21.5191L27.5464 21.1785L23.4599 23.4488L22.3626 18.1515L10.4815 11.3028C9.1572 10.5461 9.1572 9.29743 10.4815 8.50283L23.0437 1.16229C24.5572 0.405537 26.3734 0.405537 27.8869 1.16229L45.8977 11.4542C47.2221 12.2109 47.2221 13.4596 45.8977 14.2542L32.995 21.5191C31.4815 22.2758 29.6653 22.2758 28.1518 21.5191Z" fill="url(#paint6_linear_2144_638)"></path><path d="M22.8539 13.9894C20.0539 12.3624 20.0539 9.75159 22.8539 8.12457C25.6539 6.49754 30.1944 6.49754 33.0323 8.12457C34.3944 8.91916 35.0377 9.86511 35.1134 10.8489L32.389 10.8111C32.3134 8.76781 27.6215 7.59484 24.7836 9.22186C23.0053 10.2435 23.0053 11.9084 24.708 12.8921C26.2593 13.7624 28.1134 13.9138 29.7782 13.3084L26.9026 11.6435L28.6431 10.6219L33.4863 13.4219C33.2593 13.6111 32.9944 13.8002 32.7296 13.9516C29.6647 15.6543 25.9188 15.6921 22.8539 13.9894Z" fill="url(#paint7_linear_2144_638)"></path><defs><linearGradient id="paint0_linear_2144_638" x1="10.7556" y1="45.6033" x2="44.5826" y2="21.1298" gradientUnits="userSpaceOnUse"><stop></stop><stop offset="1"></stop></linearGradient><linearGradient id="paint1_linear_2144_638" x1="28.0762" y1="25.1674" x2="57.4021" y2="29.1032" gradientUnits="userSpaceOnUse"><stop stop-color="#0082F8"></stop><stop offset="1" stop-color="#1C40F2"></stop></linearGradient><linearGradient id="paint2_linear_2144_638" x1="0.0380857" y1="25.1321" x2="29.7874" y2="29.1765" gradientUnits="userSpaceOnUse"><stop stop-color="#0082F8"></stop><stop offset="1" stop-color="#1C40F2"></stop></linearGradient><linearGradient id="paint3_linear_2144_638" x1="-0.243799" y1="23.678" x2="55.5068" y2="23.678" gradientUnits="userSpaceOnUse"><stop stop-color="#1C40F2"></stop><stop offset="0.9833" stop-color="#03F8FB"></stop></linearGradient><linearGradient id="paint4_linear_2144_638" x1="48.6247" y1="19.0208" x2="56.1658" y2="19.0208" gradientUnits="userSpaceOnUse"><stop stop-color="#E7E9E9"></stop><stop offset="1" stop-color="#98AACD"></stop></linearGradient><linearGradient id="paint5_linear_2144_638" x1="-9.17794" y1="19.9824" x2="11.4292" y2="19.9824" gradientUnits="userSpaceOnUse"><stop stop-color="#989AAD"></stop><stop offset="1" stop-color="#98A0B7"></stop></linearGradient><linearGradient id="paint6_linear_2144_638" x1="41.9893" y1="12.0177" x2="4.5756" y2="12.0139" gradientUnits="userSpaceOnUse"><stop stop-color="#CDD3DB"></stop><stop offset="1" stop-color="#ACB0C2"></stop></linearGradient><linearGradient id="paint7_linear_2144_638" x1="20.7539" y1="7.51479" x2="35.7021" y2="9.97104" gradientUnits="userSpaceOnUse"><stop stop-color="#0082F8"></stop><stop offset="1" stop-color="#1C40F2"></stop></linearGradient></defs></svg>