<svg xmlns="http://www.w3.org/2000/svg" width="46" height="40" viewBox="0 0 46 40" fill="none"><path opacity="0.1" d="M45.8098 26.4659L23.0103 39.7759L0.2108 26.4659L23.0103 13.1559L45.8098 26.4659Z" fill="url(#paint0_linear_2415_5493)"></path><path d="M23.0421 32.0119L45.78 18.8252V21.5981L23.2886 35.0005L23.0421 32.0119Z" fill="url(#paint1_linear_2415_5493)"></path><path d="M0.2108 21.5671V18.7942L23.2876 30.7485V35.0003L0.2108 21.5671Z" fill="url(#paint2_linear_2415_5493)"></path><path d="M45.779 18.825L23.2876 32.1042L0.2108 18.7942L23.0103 5.48421L45.779 18.825Z" fill="url(#paint3_linear_2415_5493)"></path><path opacity="0.3" fill-rule="evenodd" clip-rule="evenodd" d="M23.1023 26.312L22.6093 26.0347L19.3743 27.9142L18.3883 23.6007L8.62153 17.9625C7.54317 17.3463 7.54317 16.3296 8.62153 15.6825L18.9429 9.70537C20.1753 9.08917 21.6542 9.08917 22.8866 9.70537L37.3674 18.0549C38.4457 18.6711 38.4457 19.6879 37.3674 20.3349L27.046 26.312C25.8136 26.959 24.3347 26.959 23.1023 26.312Z" fill="white"></path><path fill-rule="evenodd" clip-rule="evenodd" d="M23.1021 22.4606L22.6092 22.1833L19.2817 24.1552L19.1584 17.685C19.1584 17.685 21.8081 5.23772 22.9173 5.88474L38.384 9.92087C38.384 9.92087 38.384 14.8813 38.384 15.2818C38.384 15.6824 37.891 16.1445 37.3672 16.4834L27.0458 22.4606C25.8134 23.0768 24.3346 23.0768 23.1021 22.4606Z" fill="url(#paint4_linear_2415_5493)"></path><path fill-rule="evenodd" clip-rule="evenodd" d="M19.2822 24.186L18.3887 19.7185L8.62187 14.1111C8.06729 13.8029 7.85162 13.3716 7.88243 12.9403C7.91324 12.5089 7.88243 7.39444 7.88243 7.39444L19.2822 14.45V24.186Z" fill="url(#paint5_linear_2415_5493)"></path><path fill-rule="evenodd" clip-rule="evenodd" d="M23.1021 17.038L22.6091 16.7607L19.2816 18.6093L18.3881 14.2959L8.71377 8.71927C7.63541 8.10307 7.63541 7.08634 8.71377 6.43932L18.9427 0.462156C20.1751 -0.154047 21.654 -0.154047 22.8864 0.462156L37.5521 8.84251C38.6304 9.45872 38.6304 10.4755 37.5521 11.1225L27.0458 17.038C25.8134 17.6542 24.3345 17.6542 23.1021 17.038Z" fill="url(#paint6_linear_2415_5493)"></path><path d="M18.7882 10.9069C16.5083 9.58205 16.5083 7.45615 18.7882 6.13131C21.0682 4.80647 24.7654 4.80647 27.0761 6.13131C28.1853 6.77832 28.7091 7.54858 28.7707 8.34964L26.5524 8.31883C26.4907 6.65508 22.6703 5.69997 20.3595 7.02481C18.9115 7.85668 18.9115 9.21233 20.2979 10.0134C21.5611 10.722 23.0708 10.8453 24.4265 10.3523L22.0849 8.99665L23.5022 8.16478L27.4459 10.4447C27.261 10.5988 27.0453 10.7528 26.8297 10.8761C24.334 12.2625 21.2838 12.2933 18.7882 10.9069Z" fill="url(#paint7_linear_2415_5493)"></path><defs><linearGradient id="paint0_linear_2415_5493" x1="8.93771" y1="36.6491" x2="36.4819" y2="16.7211" gradientUnits="userSpaceOnUse"><stop></stop><stop offset="1"></stop></linearGradient><linearGradient id="paint1_linear_2415_5493" x1="23.0421" y1="20.0087" x2="46.9213" y2="23.2136" gradientUnits="userSpaceOnUse"><stop stop-color="#0082F8"></stop><stop offset="1" stop-color="#1C40F2"></stop></linearGradient><linearGradient id="paint2_linear_2415_5493" x1="0.2108" y1="19.98" x2="24.4347" y2="23.2733" gradientUnits="userSpaceOnUse"><stop stop-color="#0082F8"></stop><stop offset="1" stop-color="#1C40F2"></stop></linearGradient><linearGradient id="paint3_linear_2415_5493" x1="-0.0187299" y1="18.7958" x2="45.3772" y2="18.7958" gradientUnits="userSpaceOnUse"><stop stop-color="#1C40F2"></stop><stop offset="0.9833" stop-color="#03F8FB"></stop></linearGradient><linearGradient id="paint4_linear_2415_5493" x1="39.7726" y1="15.0036" x2="45.9131" y2="15.0036" gradientUnits="userSpaceOnUse"><stop stop-color="#E7E9E9"></stop><stop offset="1" stop-color="#98AACD"></stop></linearGradient><linearGradient id="paint5_linear_2415_5493" x1="-7.29351" y1="15.7868" x2="9.48622" y2="15.7868" gradientUnits="userSpaceOnUse"><stop stop-color="#989AAD"></stop><stop offset="1" stop-color="#98A0B7"></stop></linearGradient><linearGradient id="paint6_linear_2415_5493" x1="34.3696" y1="9.3014" x2="3.90476" y2="9.29829" gradientUnits="userSpaceOnUse"><stop stop-color="#CDD3DB"></stop><stop offset="1" stop-color="#ACB0C2"></stop></linearGradient><linearGradient id="paint7_linear_2415_5493" x1="17.0782" y1="5.63479" x2="29.2501" y2="7.63483" gradientUnits="userSpaceOnUse"><stop stop-color="#0082F8"></stop><stop offset="1" stop-color="#1C40F2"></stop></linearGradient></defs></svg>