<svg xmlns="http://www.w3.org/2000/svg" width="190" height="54" viewBox="0 0 190 54" fill="none"><path d="M21.7146 2.78598C24.7006 1.06201 28.3795 1.06201 31.3656 2.78599L44.699 10.4841C47.685 12.208 49.5245 15.3941 49.5245 18.842V34.2382C49.5245 37.6861 47.685 40.8721 44.699 42.5961L31.3656 50.2942C28.3795 52.0182 24.7006 52.0182 21.7146 50.2942L8.38116 42.5961C5.39515 40.8721 3.5557 37.6861 3.5557 34.2382V18.842C3.5557 15.3941 5.39515 12.208 8.38117 10.4841L21.7146 2.78598Z" fill="url(#paint0_linear_1911_28)"></path><path d="M30.2933 11.9878H29.3808V23.6777H25.2326V16.7035H16.9414V34.4271C16.9414 38.6029 20.2514 42.0001 24.32 42.0001H25.2326V31.0065H29.3808V38.2617H37.6719V19.5608C37.6719 15.3849 34.362 11.9878 30.2933 11.9878ZM23.4075 40.05C20.7774 39.6024 18.7665 37.2509 18.7665 34.4271V31.0065H23.4075V40.05ZM35.8468 36.3886H31.2059V29.1334H18.7665V18.5767H23.4075V25.5509H35.8468V36.3886ZM35.8468 23.6777H31.2059V13.9379C33.836 14.3855 35.8468 16.7363 35.8468 19.5608V23.6777Z" fill="white"></path><path d="M63.3565 16.8155H68.845V36.0254H63.3565V16.8155ZM78.45 29.1647H72.9614L70.2172 25.0483H78.45V16.8155H83.9385V36.0254H78.45V29.1647ZM101.776 22.3041C101.776 21.3893 101.319 20.9319 100.404 20.9319V16.8155C104.978 16.8155 107.265 18.6451 107.265 22.3041V30.5369C107.265 34.1959 104.978 36.0254 100.404 36.0254H94.9155V31.909H100.404C101.319 31.909 101.776 31.4516 101.776 30.5369V22.3041ZM92.1713 30.5369C92.1713 31.4516 92.6287 31.909 93.5434 31.909V36.0254C88.9696 36.0254 86.6828 34.1959 86.6828 30.5369V22.3041C86.6828 18.6451 88.9696 16.8155 93.5434 16.8155H99.0319V20.9319H93.5434C92.6287 20.9319 92.1713 21.3893 92.1713 22.3041V30.5369ZM116.87 16.8155H130.591V20.9319H116.87C115.955 20.9319 115.498 21.3893 115.498 22.3041V23.6762C115.498 24.591 115.955 25.0483 116.87 25.0483H119.614V29.1647H116.87C112.296 29.1647 110.009 27.3352 110.009 23.6762V22.3041C110.009 18.6451 112.296 16.8155 116.87 16.8155ZM123.73 36.0254H110.009V31.909H123.73C124.645 31.909 125.102 31.4516 125.102 30.5369C125.102 29.6221 124.645 29.1647 123.73 29.1647H120.986V25.0483H123.73C128.304 25.0483 130.591 26.8778 130.591 30.5369C130.591 34.1959 128.304 36.0254 123.73 36.0254ZM152.545 20.9319H133.335V16.8155H152.545V20.9319ZM140.196 22.3041H145.684V36.0254H140.196V22.3041ZM154.96 16.8155H160.449V36.0254H154.96V16.8155ZM168.681 25.0209V36.0254H163.193V16.8155H170.328L178.382 32.7872L175.542 38.262L168.681 25.0209ZM187.891 16.8155V36.0254H182.403V25.0209L179.219 31.168L176.352 25.4874L180.756 16.8155H187.891Z" fill="white"></path><defs><linearGradient id="paint0_linear_1911_28" x1="0" y1="0" x2="59.9444" y2="6.81702" gradientUnits="userSpaceOnUse"><stop stop-color="#F16262"></stop><stop offset="1" stop-color="#3200FF"></stop></linearGradient></defs></svg>