<svg xmlns="http://www.w3.org/2000/svg" width="89" height="110" viewBox="0 0 89 110" fill="none"><path d="M3.4729 85.6377L45.1316 106.836L85.2083 85.6377V2.74219H3.4729V85.6377Z" fill="white"></path><path d="M86.0529 3.05811L2.63013 87.1137L45.8708 108.523L86.0529 87.9574V3.05811Z" fill="#F2F3F2"></path><path d="M0.731201 30.3739V87.4305L2.20771 88.1688L43.8664 109.367L45.132 110L46.3975 109.367L86.5797 88.1688L88.0562 87.4305V0H0.731201V30.3739ZM3.47329 85.8485V2.74209H85.3141V85.8485L45.132 107.047L3.47329 85.8485Z" fill="#DCDEDC" fill-opacity="0.5"></path><path d="M44.3956 4.11314C44.8175 4.11314 45.2394 4.11314 45.6612 4.2186L44.3956 6.6443C42.4973 6.53883 40.8098 8.01534 40.7044 9.91371C40.5989 11.8121 42.0754 13.4995 43.9738 13.605H44.3956C45.2394 13.605 46.0831 13.2886 46.7159 12.7613L48.0869 15.0815C47.0323 15.8198 45.7667 16.2416 44.3956 16.2416C41.0208 16.3471 38.1732 13.8159 38.0677 10.441C37.9623 7.06616 40.4934 4.2186 43.8683 4.11314H44.3956ZM48.7197 9.28092L50.3017 11.9175L48.7197 14.4487L47.2432 11.9175H44.1847L45.7667 9.28092H48.7197ZM46.1885 8.33174C46.1885 7.90988 46.294 7.48802 46.5049 7.17162C46.7159 6.85523 47.1377 6.53883 47.4541 6.3279L47.6651 6.22244C48.0869 6.01151 48.1924 5.90604 48.1924 5.69511C48.1924 5.48418 47.876 5.27325 47.6651 5.27325C47.2432 5.27325 46.9268 5.48418 46.7159 5.90604L46.1885 5.37872C46.294 5.16779 46.5049 4.95686 46.7159 4.74593C47.0323 4.535 47.3487 4.535 47.6651 4.535C47.9814 4.535 48.4033 4.64046 48.6142 4.85139C48.8252 5.06232 49.0361 5.37872 49.0361 5.69511C49.0361 6.22244 48.7197 6.6443 48.0869 6.85523L47.7705 7.06616C47.4541 7.27709 47.2432 7.38255 47.1377 7.69895H49.0361V8.4372L46.1885 8.33174ZM44.3956 21.5149L54.4148 15.8198V0H34.271V15.7143L44.3956 21.5149Z" fill="#FF492C"></path><path d="M19.5048 42.6081V33.3271C19.5048 33.2217 19.6103 33.1162 19.7157 33.1162H22.1414C22.2469 33.1162 22.3524 33.2217 22.3524 33.3271V42.6081C22.3524 43.9791 23.3015 45.0338 24.7781 45.0338C26.2546 45.0338 27.2037 44.0846 27.2037 42.6081V33.3271C27.2037 33.2217 27.3092 33.1162 27.4147 33.1162H29.8404C29.9458 33.1162 30.0513 33.2217 30.0513 33.3271V42.6081C30.0513 45.5611 27.942 47.4595 24.7781 47.4595C21.6141 47.4595 19.5048 45.4556 19.5048 42.6081ZM31.8442 44.401V44.19C31.8442 44.0846 31.9497 43.9791 32.0551 43.9791H34.2699C34.3754 43.9791 34.4808 44.0846 34.4808 44.19C34.4808 44.8228 35.2191 45.2447 36.2737 45.2447C37.2229 45.2447 37.8557 44.8228 37.8557 44.2955C37.8557 43.4518 36.2737 43.4518 34.7972 42.9245C33.4262 42.5026 31.9497 41.7643 31.9497 39.9714C31.9497 37.9676 33.6371 36.702 36.2737 36.702C38.9104 36.702 40.5978 38.0731 40.5978 39.9714C40.5978 40.0769 40.4923 40.1824 40.3869 40.1824H38.1721C38.0666 40.1824 37.9612 40.0769 37.9612 39.9714C37.9612 39.3386 37.3284 38.9168 36.2737 38.9168C35.43 38.9168 34.7972 39.2332 34.7972 39.866C34.7972 40.7097 36.1683 40.7097 37.7502 41.237C39.3322 41.6589 40.9142 42.3971 40.9142 44.2955C40.9142 46.2993 39.1213 47.4595 36.4847 47.4595C33.6371 47.4595 31.8442 46.1939 31.8442 44.401ZM51.7771 42.7135C51.7771 42.9245 51.6716 42.9245 51.4607 42.9245H45.1328C45.0273 42.9245 45.0273 42.9245 45.0273 43.0299C45.0273 43.3463 45.1328 43.5572 45.2383 43.8736C45.5547 44.6119 46.1874 45.0338 47.3476 45.0338C48.2967 45.0338 48.9295 44.6119 49.4569 43.9791C49.5623 43.8736 49.6678 43.7682 49.7733 43.9791L51.2498 45.4556C51.3552 45.5611 51.3552 45.6665 51.2498 45.772C50.3006 46.9321 48.8241 47.5649 47.1366 47.5649C44.8164 47.5649 43.2344 46.4048 42.4962 44.5064C42.1798 43.7682 42.0743 43.0299 42.0743 41.9753C42.0743 41.237 42.1798 40.4988 42.3907 39.866C43.0235 37.9676 44.6055 36.702 46.8202 36.702C49.5623 36.702 51.2498 38.4949 51.5662 41.0261C51.7771 41.5534 51.7771 42.0807 51.7771 42.7135ZM45.2383 40.2878C45.1328 40.4988 45.1328 40.7097 45.1328 40.9206C45.1328 41.0261 45.1328 41.0261 45.2383 41.0261H48.7186C48.8241 41.0261 48.8241 41.0261 48.8241 40.9206C48.8241 40.7097 48.7186 40.4988 48.7186 40.3933C48.5077 39.5496 47.8749 39.1277 46.9257 39.1277C46.082 39.1277 45.5547 39.5496 45.2383 40.2878ZM60.0034 37.0184C60.1088 37.1239 60.1088 37.2293 60.1088 37.3348L59.687 39.655C59.687 39.866 59.5815 39.866 59.3706 39.7605C59.0542 39.655 58.6323 39.655 58.2105 39.655C57.2613 39.7605 56.4175 40.3933 56.4175 41.4479V47.0376C56.4175 47.1431 56.3121 47.2485 56.2066 47.2485H53.7809C53.6755 47.2485 53.57 47.1431 53.57 47.0376V37.1239C53.57 37.0184 53.6755 36.913 53.7809 36.913H56.2066C56.3121 36.913 56.4175 37.0184 56.4175 37.1239V37.8621C56.4175 37.9676 56.523 37.9676 56.523 37.9676C57.0503 37.2293 57.7886 36.702 58.7378 36.702C59.3706 36.702 59.687 36.8075 60.0034 37.0184ZM60.8471 44.401V44.19C60.8471 44.0846 60.9525 43.9791 61.058 43.9791H63.2728C63.3783 43.9791 63.4837 44.0846 63.4837 44.19C63.4837 44.8228 64.222 45.2447 65.2766 45.2447C66.2258 45.2447 66.8586 44.8228 66.8586 44.2955C66.8586 43.4518 65.2766 43.4518 63.8001 42.9245C62.4291 42.5026 60.9525 41.7643 60.9525 39.9714C60.9525 37.9676 62.64 36.702 65.2766 36.702C67.9132 36.702 69.6007 38.0731 69.6007 39.9714C69.6007 40.0769 69.4952 40.1824 69.3897 40.1824H67.175C67.0695 40.1824 66.9641 40.0769 66.9641 39.9714C66.9641 39.3386 66.3313 38.9168 65.2766 38.9168C64.4329 38.9168 63.8001 39.2332 63.8001 39.866C63.8001 40.7097 65.1712 40.7097 66.7531 41.237C68.3351 41.6589 69.9171 42.3971 69.9171 44.2955C69.9171 46.2993 68.1242 47.4595 65.4875 47.4595C62.64 47.4595 60.8471 46.1939 60.8471 44.401ZM10.3293 64.1229V50.4125C10.3293 50.307 10.4348 50.2015 10.5403 50.2015H12.966C13.0714 50.2015 13.1769 50.307 13.1769 50.4125V61.8027C13.1769 61.9082 13.1769 61.9082 13.2824 61.9082H19.9267C20.0321 61.9082 20.1376 62.0136 20.1376 62.1191V64.1229C20.1376 64.2284 20.0321 64.3339 19.9267 64.3339H10.5403C10.4348 64.3339 10.3293 64.2284 10.3293 64.1229ZM21.825 61.1699C21.6141 60.5371 21.5086 59.7989 21.5086 59.0606C21.5086 58.3223 21.6141 57.4786 21.825 56.9513C22.4578 54.9475 24.1453 53.7874 26.4655 53.7874C28.6803 53.7874 30.3677 55.0529 31.0005 56.9513C31.2114 57.5841 31.3169 58.3223 31.3169 59.0606C31.3169 59.7989 31.2114 60.5371 31.0005 61.0644C30.3677 63.1737 28.6803 64.4393 26.4655 64.4393C24.1453 64.5448 22.3524 63.2792 21.825 61.1699ZM28.2584 60.5371C28.3639 60.1153 28.4693 59.5879 28.4693 59.1661C28.4693 58.6387 28.3639 58.1114 28.2584 57.6896C27.942 56.7404 27.3092 56.213 26.4655 56.213C25.5163 56.213 24.8835 56.7404 24.6726 57.6896C24.4617 58.006 24.4617 58.5333 24.4617 59.1661C24.4617 59.6934 24.4617 60.2207 24.5671 60.5371C24.8835 61.4863 25.5163 62.0136 26.4655 62.0136C27.3092 62.1191 27.942 61.4863 28.2584 60.5371ZM35.2191 64.1229L31.9497 54.1037C31.8442 53.8928 31.9497 53.7874 32.1606 53.7874H34.7972C34.9027 53.7874 35.0082 53.8928 35.1136 53.9983L36.8011 60.1153C36.8011 60.2207 36.9065 60.2207 36.9065 60.1153L38.594 53.9983C38.594 53.8928 38.6994 53.7874 38.9104 53.7874H41.547C41.7579 53.7874 41.8634 53.8928 41.7579 54.1037L38.4885 64.0175C38.4885 64.1229 38.383 64.2284 38.1721 64.2284H35.5355C35.3246 64.3339 35.2191 64.3339 35.2191 64.1229ZM51.8826 59.7989C51.8826 60.0098 51.7771 60.0098 51.5662 60.0098H45.2383C45.1328 60.0098 45.1328 60.0098 45.1328 60.1153C45.1328 60.4316 45.2383 60.6426 45.3437 60.959C45.6601 61.6972 46.2929 62.1191 47.453 62.1191C48.4022 62.1191 49.035 61.6972 49.5623 61.0644C49.6678 60.959 49.7733 60.8535 49.8787 61.0644L51.3552 62.5409C51.4607 62.6464 51.4607 62.7519 51.3552 62.8573C50.4061 64.0175 48.9295 64.6502 47.2421 64.6502C44.9219 64.6502 43.3399 63.4901 42.6016 61.5918C42.2852 60.8535 42.1798 60.1153 42.1798 59.0606C42.1798 58.3223 42.2852 57.5841 42.4962 56.9513C43.129 55.0529 44.7109 53.7874 46.9257 53.7874C49.6678 53.7874 51.3552 55.5803 51.6716 58.1114C51.8826 58.6387 51.8826 59.1661 51.8826 59.7989ZM45.3437 57.3732C45.2383 57.5841 45.2383 57.795 45.2383 58.006C45.2383 58.1114 45.2383 58.1114 45.3437 58.1114H48.8241C48.9295 58.1114 48.9295 58.1114 48.9295 58.006C48.9295 57.795 48.8241 57.5841 48.8241 57.4786C48.6131 56.6349 47.9804 56.213 47.0312 56.213C46.082 56.213 45.5547 56.6349 45.3437 57.3732ZM57.7886 59.6934V50.4125C57.7886 50.307 57.8941 50.2015 57.9995 50.2015H60.4252C60.5307 50.2015 60.6362 50.307 60.6362 50.4125V59.6934C60.6362 61.0644 61.5853 62.1191 63.0618 62.1191C64.5384 62.1191 65.4875 61.1699 65.4875 59.6934V50.4125C65.4875 50.307 65.593 50.2015 65.6985 50.2015H68.1242C68.2296 50.2015 68.3351 50.307 68.3351 50.4125V59.6934C68.3351 62.6464 66.2258 64.5448 63.0618 64.5448C59.8979 64.5448 57.7886 62.541 57.7886 59.6934ZM70.128 61.4863V61.2754C70.128 61.1699 70.2335 61.0644 70.3389 61.0644H72.5537C72.6592 61.0644 72.7646 61.1699 72.7646 61.2754C72.7646 61.9082 73.5029 62.33 74.5575 62.33C75.5067 62.33 76.1395 61.9082 76.1395 61.3808C76.1395 60.5371 74.5575 60.5371 73.081 60.0098C71.71 59.5879 70.2335 58.8497 70.2335 57.0568C70.2335 55.0529 71.9209 53.7874 74.5575 53.7874C77.1942 53.7874 78.8816 55.1584 78.8816 57.0568C78.8816 57.1622 78.7761 57.2677 78.6707 57.2677H76.4559C76.3504 57.2677 76.245 57.1622 76.245 57.0568C76.245 56.424 75.6122 56.0021 74.5575 56.0021C73.7138 56.0021 73.081 56.3185 73.081 56.9513C73.081 57.795 74.4521 57.795 76.034 58.3223C77.616 58.7442 79.198 59.4825 79.198 61.3808C79.198 63.3847 77.4051 64.5448 74.7685 64.5448C71.9209 64.5448 70.128 63.2792 70.128 61.4863Z" fill="#252530"></path><path d="M15.2842 76.4624H36.3772V77.3061H15.2842V76.4624ZM53.0407 76.4624H74.1337V77.3061H53.0407V76.4624Z" fill="#DCDEDC"></path><path d="M39.6475 75.5131L42.9169 74.9857L44.6043 71.7163L46.1863 74.8803L49.6666 75.5131L47.2409 77.9387L47.7683 81.4191L44.6043 79.9426L41.4404 81.4191L41.8622 77.9387L39.6475 75.5131Z" fill="#DCDEDC"></path></svg>