<svg xmlns="http://www.w3.org/2000/svg" width="88" height="24" viewBox="0 0 88 24" fill="none"><path d="M0.00195312 11.5C37.297 11.5 46.9203 11.5 46.9203 11.5V5.5H47.6703V11.5H49.7503V11.77H49.9203V4.25H50.6703V11.58C54.1903 10.78 62.9203 8 66.8703 0L75.8203 11.88L66.8203 23.75C62.8703 15.75 54.1403 12.97 50.6203 12.17V19.32H49.8703V12H49.7003V12.27H47.6203V18.46H46.8703V12.25C46.8703 12.25 37.3009 12.25 0.00195312 12.25" fill="#E75D6B"></path><path d="M79.9681 8.68996C80.5821 8.68798 81.1828 8.86836 81.6942 9.20823C82.2055 9.5481 82.6044 10.0322 82.8402 10.599C83.0761 11.1659 83.1383 11.79 83.019 12.3923C82.8997 12.9945 82.6043 13.5478 82.1702 13.982C81.736 14.4161 81.1827 14.7116 80.5805 14.8309C79.9782 14.9502 79.3541 14.8879 78.7872 14.6521C78.2203 14.4162 77.7363 14.0173 77.3964 13.506C77.0565 12.9947 76.8762 12.3939 76.8781 11.78C76.8781 11.3742 76.9581 10.9724 77.1134 10.5975C77.2686 10.2226 77.4962 9.88193 77.7832 9.595C78.0701 9.30807 78.4108 9.08046 78.7856 8.92517C79.1605 8.76988 79.5624 8.68996 79.9681 8.68996Z" fill="#E75D6B"></path><path d="M86.4399 10.1C86.8644 10.1327 87.2609 10.3244 87.5501 10.6368C87.8393 10.9492 88 11.3592 88 11.785C88 12.2107 87.8393 12.6207 87.5501 12.9331C87.2609 13.2455 86.8644 13.4372 86.4399 13.47C86.2077 13.4879 85.9743 13.4576 85.7544 13.381C85.5345 13.3045 85.3327 13.1833 85.1618 13.0251C84.991 12.8668 84.8546 12.675 84.7614 12.4616C84.6681 12.2482 84.62 12.0179 84.62 11.785C84.62 11.5521 84.6681 11.3217 84.7614 11.1083C84.8546 10.8949 84.991 10.7031 85.1618 10.5449C85.3327 10.3867 85.5345 10.2655 85.7544 10.1889C85.9743 10.1124 86.2077 10.0821 86.4399 10.1Z" fill="#E75D6B"></path></svg>