<svg xmlns="http://www.w3.org/2000/svg" width="147" height="24" viewBox="0 0 147 24" fill="none"><path d="M0.00195312 11.5C18.3247 11.5 105.92 11.5 105.92 11.5V5.5H106.67V11.5H108.75V11.77H108.92V4.25H109.67V11.58C113.19 10.78 121.92 8 125.87 0L134.82 11.88L125.82 23.75C121.87 15.75 113.14 12.97 109.62 12.17V19.32H108.87V12H108.7V12.27H106.62V18.46H105.87V12.25C105.87 12.25 37.3009 12.25 0.00195312 12.25" fill="#FFAC12"></path><path d="M138.968 8.68996C139.582 8.68798 140.183 8.86836 140.694 9.20823C141.205 9.5481 141.604 10.0322 141.84 10.599C142.076 11.1659 142.138 11.79 142.019 12.3923C141.9 12.9945 141.604 13.5478 141.17 13.982C140.736 14.4161 140.183 14.7116 139.58 14.8309C138.978 14.9502 138.354 14.8879 137.787 14.6521C137.22 14.4162 136.736 14.0173 136.396 13.506C136.057 12.9947 135.876 12.3939 135.878 11.78C135.878 11.3742 135.958 10.9724 136.113 10.5975C136.269 10.2226 136.496 9.88193 136.783 9.595C137.07 9.30807 137.411 9.08046 137.786 8.92517C138.161 8.76988 138.562 8.68996 138.968 8.68996Z" fill="#FFAC12"></path><path d="M145.44 10.0997C145.864 10.1325 146.261 10.3242 146.55 10.6366C146.839 10.949 147 11.359 147 11.7847C147 12.2105 146.839 12.6205 146.55 12.9329C146.261 13.2453 145.864 13.437 145.44 13.4697C145.208 13.4876 144.974 13.4573 144.754 13.3808C144.534 13.3042 144.333 13.183 144.162 13.0248C143.991 12.8666 143.855 12.6748 143.761 12.4614C143.668 12.248 143.62 12.0176 143.62 11.7847C143.62 11.5518 143.668 11.3215 143.761 11.1081C143.855 10.8947 143.991 10.7029 144.162 10.5446C144.333 10.3864 144.534 10.2652 144.754 10.1887C144.974 10.1121 145.208 10.0818 145.44 10.0997Z" fill="#FFAC12"></path></svg>