<svg xmlns="http://www.w3.org/2000/svg" width="88" height="24" viewBox="0 0 88 24" fill="none"><path d="M87.998 11.5C50.703 11.5 41.0797 11.5 41.0797 11.5V5.5H40.3297V11.5H38.2497V11.77H38.0797V4.25H37.3297V11.58C33.8097 10.78 25.0797 8 21.1297 0L12.1797 11.88L21.1797 23.75C25.1297 15.75 33.8597 12.97 37.3797 12.17V19.32H38.1297V12H38.2997V12.27H40.3797V18.46H41.1297V12.25C41.1297 12.25 50.6991 12.25 87.998 12.25" fill="#E75D6B"></path><path d="M8.03186 8.68996C7.41789 8.68798 6.81716 8.86836 6.30584 9.20823C5.79452 9.5481 5.39563 10.0322 5.15976 10.599C4.92389 11.1659 4.86166 11.79 4.98096 12.3923C5.10025 12.9945 5.3957 13.5478 5.82985 13.982C6.26399 14.4161 6.81727 14.7116 7.41954 14.8309C8.02182 14.9502 8.64595 14.8879 9.21281 14.6521C9.77966 14.4162 10.2637 14.0173 10.6036 13.506C10.9435 12.9947 11.1238 12.3939 11.1219 11.78C11.1219 11.3742 11.0419 10.9724 10.8866 10.5975C10.7314 10.2226 10.5038 9.88193 10.2168 9.595C9.92989 9.30807 9.58925 9.08046 9.21435 8.92517C8.83946 8.76988 8.43764 8.68996 8.03186 8.68996Z" fill="#E75D6B"></path><path d="M1.5601 10.1C1.13563 10.1327 0.739146 10.3244 0.449912 10.6368C0.160677 10.9492 0 11.3592 0 11.785C0 12.2107 0.160677 12.6207 0.449912 12.9331C0.739146 13.2455 1.13563 13.4372 1.5601 13.47C1.79229 13.4879 2.02567 13.4576 2.24561 13.381C2.46554 13.3045 2.66728 13.1833 2.83816 13.0251C3.00905 12.8668 3.14539 12.675 3.23863 12.4616C3.33187 12.2482 3.38 12.0179 3.38 11.785C3.38 11.5521 3.33187 11.3217 3.23863 11.1083C3.14539 10.8949 3.00905 10.7031 2.83816 10.5449C2.66728 10.3867 2.46554 10.2655 2.24561 10.1889C2.02567 10.1124 1.79229 10.0821 1.5601 10.1Z" fill="#E75D6B"></path></svg>