<svg xmlns="http://www.w3.org/2000/svg" width="50" height="53" viewBox="0 0 50 53" fill="none"><path opacity="0.1" d="M0.0751953 37.5729L25.0103 52.1027L49.9833 37.5729L25.0103 23.0054L0.0751953 37.5729Z" fill="url(#paint0_linear_2155_964)"></path><path d="M27.6973 41.0542L0 29.2109V32.2001L24.973 46.7677L27.6973 41.0542Z" fill="url(#paint1_linear_2155_964)"></path><path d="M49.9456 32.0488V29.1731L24.9727 43.0217V46.7677L49.9456 32.0488Z" fill="url(#paint2_linear_2155_964)"></path><path d="M0 29.2109L24.973 43.7406L49.9459 29.173L25.0486 14.6433L0 29.2109Z" fill="url(#paint3_linear_2155_964)"></path><path opacity="0.3" fill-rule="evenodd" clip-rule="evenodd" d="M16.0052 37.2704L20.8106 38.4434L23.3079 36.438C23.7998 36.438 24.3296 36.438 24.8971 36.4001L27.1295 38.4434L32.0863 37.3461L31.3674 35.0001C31.8214 34.7731 32.2377 34.5461 32.6539 34.2812L36.816 34.8488L39.0863 32.1623L35.6052 30.8758C35.6809 30.5731 35.6809 30.2326 35.6431 29.892L39.3133 28.6434L37.4593 25.919L33.2214 26.3731C32.8431 26.1082 32.4268 25.8812 32.0106 25.692L33.1079 23.3461L28.3025 22.1731L25.6917 24.3299C25.1241 24.292 24.5566 24.3299 23.989 24.3299L21.8323 22.2109L16.7998 23.3461L17.7079 25.7299C17.2917 25.919 16.8755 26.1461 16.4593 26.4109L12.2593 25.8434L10.0268 28.5299L13.6593 29.8542C13.5836 30.1569 13.5836 30.4974 13.6214 30.838L9.95117 32.0866L11.8052 34.8488L15.9674 34.319C16.3458 34.5839 16.7241 34.8109 17.1404 35.038L16.0052 37.2704Z" fill="white"></path><path fill-rule="evenodd" clip-rule="evenodd" d="M16.3082 31.6703L21.0758 32.8433L23.5731 30.8C24.065 30.8 24.5947 30.8 25.1623 30.7622L27.3947 32.8054L32.3514 31.7081C32.3514 31.7081 32.3893 29.8541 32.4271 28.5676L37.0812 29.2108L39.3136 26.4865L39.3515 23.0811L39.465 23.0433L39.5785 17.1027L33.2974 17.7081V11.8054L28.4542 16.4973L22.3623 16.5351L17.1028 11.7676L17.065 17.6703L10.292 17.027V20.5838V26.4487L12.0325 29.0973L16.3082 28.5676V31.6703Z" fill="url(#paint4_linear_2155_964)"></path><path fill-rule="evenodd" clip-rule="evenodd" d="M16.4596 25.7299L21.2271 26.9028L23.7244 24.8596C24.2163 24.8596 24.746 24.8596 25.3136 24.8218L27.5082 26.865L32.4271 25.7677L31.6704 23.4596C32.1244 23.2326 32.5406 23.0055 32.9569 22.7407L37.119 23.3082L39.3515 20.6218L35.9082 19.2974C35.9839 18.9947 35.9839 18.6542 35.946 18.3136L39.5785 17.065L37.7244 14.3407L33.4866 14.8326C33.1082 14.5677 32.692 14.3407 32.2758 14.1515L33.3731 11.8055L28.6433 10.5947L26.0325 12.7515C25.465 12.7136 24.8974 12.7515 24.3298 12.7515L22.1731 10.6326L17.1785 11.7299L18.0866 14.1136C17.6704 14.3028 17.2542 14.5299 16.8379 14.7947L12.5244 14.3407L10.292 17.0272L14.0758 18.238C14.0001 18.5407 14.0001 18.8812 14.0379 19.2218L10.4055 20.4704L12.2596 23.2326L16.4217 22.7028C16.8001 22.9677 17.1785 23.1947 17.5947 23.4218L16.4596 25.7299Z" fill="url(#paint5_linear_2155_964)"></path><path fill-rule="evenodd" clip-rule="evenodd" d="M16.3082 21.1515L21.1136 22.3244L23.6109 20.2812C24.1028 20.2812 24.6325 20.2812 25.2001 20.2434L27.4325 22.2866L32.3893 21.1893C32.3893 21.1893 32.4271 19.3353 32.465 18.0488L37.119 18.692L39.2758 16.0812V12.4866L39.692 12.4109V6.54606L33.2974 7.15147V1.13525L28.492 5.90282L22.2866 5.94066L17.065 1.21093V7.03796L10.292 6.31904V9.98931V15.892L12.0704 18.5785L16.3082 18.0488V21.1515Z" fill="url(#paint6_linear_2155_964)"></path><path fill-rule="evenodd" clip-rule="evenodd" d="M16.4596 15.2108L21.2271 16.3838L23.7244 14.3405C24.2163 14.3405 24.746 14.3405 25.3136 14.3027L27.5082 16.3459L32.4271 15.2486L31.7082 12.9027C32.1623 12.6757 32.5785 12.4486 32.9947 12.1838L37.1569 12.7514L39.3893 10.0649L35.946 8.77838C36.0217 8.47568 36.0217 8.13513 35.9839 7.79459L39.692 6.50811L37.7623 3.78378L33.5623 4.23784C33.1082 3.97297 32.6542 3.70811 32.1623 3.48108L33.2974 1.05946L28.6812 0L26.0325 2.23243C25.465 2.19459 24.8974 2.19459 24.3298 2.23243L22.0596 0.0756756L17.065 1.21081L18.0866 3.59459C17.6704 3.82162 17.2542 4.01081 16.8379 4.27568L12.5244 3.67027L10.292 6.35676L14.0758 7.75676C14.0001 8.05946 13.9623 8.36216 14.0001 8.7027L10.3677 9.95135L12.2217 12.7135L16.3839 12.1838C16.7623 12.4486 17.1406 12.6757 17.5569 12.9027L16.4596 15.2108Z" fill="url(#paint7_linear_2155_964)"></path><path opacity="0.6" fill-rule="evenodd" clip-rule="evenodd" d="M21.7946 6.39458C23.7243 5.41079 25.9946 5.41079 27.9243 6.39458C29.627 7.4162 29.627 9.00539 27.9243 10.027C25.9946 11.0486 23.7243 11.0486 21.7946 10.027C20.0919 9.04322 20.0919 7.4162 21.7946 6.39458Z" fill="#818696"></path><path fill-rule="evenodd" clip-rule="evenodd" d="M22.702 6.96223C24.0263 6.28115 25.6155 6.28115 26.9777 6.96223C28.1506 7.64331 28.1506 8.77844 26.9777 9.49736C25.6533 10.1784 24.0642 10.1784 22.702 9.49736C21.529 8.77844 21.529 7.64331 22.702 6.96223Z" fill="url(#paint8_linear_2155_964)"></path><path fill-rule="evenodd" clip-rule="evenodd" d="M36.8914 15.0217V15.2488C36.8914 15.1731 36.8914 15.0974 36.8914 15.0217C35.7184 17.2542 34.167 19.7136 30.0049 20.9623C30.5725 27.4704 32.54 30.0434 34.2049 30.9893L36.2481 32.2001L36.6643 31.5947L45.8589 14.1136C45.8589 14.1136 44.6103 13.3947 43.7779 12.865C39.6535 16.4974 38.1022 15.8542 36.8914 15.0217Z" fill="url(#paint9_linear_2155_964)"></path><path fill-rule="evenodd" clip-rule="evenodd" d="M36.8914 15.0217V15.2488C36.8914 15.1731 36.8914 15.0974 36.8914 15.0217C35.7184 17.2542 34.167 19.7136 30.0049 20.9623C31.8589 22.0217 32.086 22.1731 32.086 22.1731L37.9887 22.2866L45.8968 14.1136C45.8968 14.1136 44.6481 13.3947 43.8157 12.865C39.6535 16.4974 38.1022 15.8542 36.8914 15.0217Z" fill="url(#paint10_linear_2155_964)"></path><path fill-rule="evenodd" clip-rule="evenodd" d="M38.9724 16.2324V16.4595C38.9724 16.3838 38.9724 16.3081 38.9724 16.2324C37.7994 18.4649 36.2481 20.9243 32.0859 22.173C33.1076 33.9784 38.7832 32.7676 38.7832 32.7676C38.7832 32.7676 45.2913 26.5622 45.8967 14.0378C41.7724 17.7081 40.1832 17.0649 38.9724 16.2324Z" fill="url(#paint11_linear_2155_964)"></path><path d="M37.2324 25.1244L38.7459 26.3731L40.9027 21.946" stroke="url(#paint12_linear_2155_964)" stroke-width="1.71" stroke-linecap="round" stroke-linejoin="round"></path><defs><linearGradient id="paint0_linear_2155_964" x1="40.4102" y1="48.7035" x2="10.2723" y2="26.8939" gradientUnits="userSpaceOnUse"><stop></stop><stop offset="1"></stop></linearGradient><linearGradient id="paint1_linear_2155_964" x1="27.6973" y1="43.0484" x2="-1.1939" y2="35.5838" gradientUnits="userSpaceOnUse"><stop stop-color="#001DAC"></stop><stop offset="1" stop-color="#000F57"></stop></linearGradient><linearGradient id="paint2_linear_2155_964" x1="49.9456" y1="43.0403" x2="23.5818" y2="36.912" gradientUnits="userSpaceOnUse"><stop stop-color="#001DAC"></stop><stop offset="1" stop-color="#000F57"></stop></linearGradient><linearGradient id="paint3_linear_2155_964" x1="-3.48848e-07" y1="16.7724" x2="52.001" y2="25.2945" gradientUnits="userSpaceOnUse"><stop stop-color="#0082F8"></stop><stop offset="1" stop-color="#1C40F2"></stop></linearGradient><linearGradient id="paint4_linear_2155_964" x1="39.3431" y1="22.4408" x2="0.791556" y2="22.0715" gradientUnits="userSpaceOnUse"><stop offset="0.36" stop-color="#E7E9E9"></stop><stop offset="0.53" stop-color="#B1B4C3"></stop><stop offset="0.67" stop-color="#8F92AA"></stop><stop offset="0.74" stop-color="#8285A1"></stop></linearGradient><linearGradient id="paint5_linear_2155_964" x1="41.1402" y1="19.154" x2="11.7623" y2="18.4194" gradientUnits="userSpaceOnUse"><stop offset="0.02" stop-color="#CDD3DB"></stop><stop offset="0.92" stop-color="#ACB0C2"></stop></linearGradient><linearGradient id="paint6_linear_2155_964" x1="39.5092" y1="11.847" x2="0.738808" y2="11.4778" gradientUnits="userSpaceOnUse"><stop offset="0.36" stop-color="#E7E9E9"></stop><stop offset="0.53" stop-color="#B1B4C3"></stop><stop offset="0.67" stop-color="#8F92AA"></stop><stop offset="0.74" stop-color="#8285A1"></stop></linearGradient><linearGradient id="paint7_linear_2155_964" x1="28.4031" y1="8.27797" x2="-1.03514" y2="7.54331" gradientUnits="userSpaceOnUse"><stop offset="0.02" stop-color="#CDD3DB"></stop><stop offset="0.92" stop-color="#ACB0C2"></stop></linearGradient><linearGradient id="paint8_linear_2155_964" x1="21.8223" y1="6.71167" x2="28.1095" y2="7.73021" gradientUnits="userSpaceOnUse"><stop stop-color="#0082F8"></stop><stop offset="1" stop-color="#1C40F2"></stop></linearGradient><linearGradient id="paint9_linear_2155_964" x1="37.9602" y1="15.3518" x2="37.6599" y2="38.5779" gradientUnits="userSpaceOnUse"><stop stop-color="#989AAD"></stop><stop offset="1" stop-color="#98A0B7"></stop></linearGradient><linearGradient id="paint10_linear_2155_964" x1="42.9188" y1="16.8072" x2="27.8783" y2="21.8775" gradientUnits="userSpaceOnUse"><stop offset="0.08" stop-color="#CDD3DB"></stop><stop offset="1" stop-color="#ACB0C2"></stop></linearGradient><linearGradient id="paint11_linear_2155_964" x1="51.5899" y1="18.9116" x2="19.5909" y2="32.9788" gradientUnits="userSpaceOnUse"><stop offset="0.25" stop-color="#E7E9E9"></stop><stop offset="1" stop-color="#98AACD"></stop></linearGradient><linearGradient id="paint12_linear_2155_964" x1="37.2324" y1="22.27" x2="41.1319" y2="22.5786" gradientUnits="userSpaceOnUse"><stop stop-color="#0082F8"></stop><stop offset="1" stop-color="#1C40F2"></stop></linearGradient></defs></svg>