<svg xmlns="http://www.w3.org/2000/svg" width="46" height="56" viewBox="0 0 46 56" fill="none"><path opacity="0.1" d="M0 42.1413L22.8745 55.4233L45.7491 42.1413L22.8745 28.7773L0 42.1413Z" fill="url(#paint0_linear_2155_1155)"></path><path d="M24.1043 38.7798L0 29.6792V37.386L22.8745 50.668L24.1043 38.7798Z" fill="url(#paint1_linear_2155_1155)"></path><path d="M45.7486 37.386V29.6792L22.874 38.6978V50.668L45.7486 37.386Z" fill="url(#paint2_linear_2155_1155)"></path><path d="M0 29.6792L22.8745 43.0431L45.7491 29.6792L22.8745 16.3152L0 29.6792Z" fill="url(#paint3_linear_2155_1155)"></path><path d="M24.5144 10.9042L13.0361 5.73901V14.5937L22.8746 20.3328L24.5144 10.9042Z" fill="url(#paint4_linear_2155_1155)"></path><path d="M32.7125 15.0036V5.73901L22.874 10.8222V20.7427L32.7125 15.0036Z" fill="url(#paint5_linear_2155_1155)"></path><path d="M13.0361 5.73913L22.8746 11.3963L32.7131 5.73913L22.8746 0L13.0361 5.73913Z" fill="url(#paint6_linear_2155_1155)"></path><path d="M33.4513 24.842L22.6289 19.3489V27.4656L32.7134 33.2868L33.4513 24.842Z" fill="url(#paint7_linear_2155_1155)"></path><path d="M42.4684 27.5477V19.5129L32.7119 24.5962V33.2868L42.4684 27.5477Z" fill="url(#paint8_linear_2155_1155)"></path><path d="M22.874 19.5128L32.7125 25.2519L42.4691 19.5128L32.7125 13.7737L22.874 19.5128Z" fill="url(#paint9_linear_2155_1155)"></path><path d="M14.0206 24.5142L3.19824 19.5129V27.5477L13.0367 33.2868L14.0206 24.5142Z" fill="url(#paint10_linear_2155_1155)"></path><path d="M22.7927 27.5477V19.5129L13.0361 24.5962V33.2868L22.7927 27.5477Z" fill="url(#paint11_linear_2155_1155)"></path><path d="M3.19824 19.5128L13.0367 25.2519L22.8753 19.5128L13.0367 13.7737L3.19824 19.5128Z" fill="url(#paint12_linear_2155_1155)"></path><defs><linearGradient id="paint0_linear_2155_1155" x1="36.9872" y1="52.3206" x2="9.34101" y2="32.3156" gradientUnits="userSpaceOnUse"><stop></stop><stop offset="1"></stop></linearGradient><linearGradient id="paint1_linear_2155_1155" x1="24.1043" y1="46.2216" x2="-1.80102" y2="41.3492" gradientUnits="userSpaceOnUse"><stop stop-color="#001DAC"></stop><stop offset="1" stop-color="#000F57"></stop></linearGradient><linearGradient id="paint2_linear_2155_1155" x1="46" y1="32" x2="38.3241" y2="53.8768" gradientUnits="userSpaceOnUse"><stop stop-color="#18029D"></stop><stop offset="1" stop-color="#1C40F2"></stop></linearGradient><linearGradient id="paint3_linear_2155_1155" x1="-3.19535e-07" y1="18.2709" x2="47.6385" y2="26.0559" gradientUnits="userSpaceOnUse"><stop stop-color="#0082F8"></stop><stop offset="1" stop-color="#1C40F2"></stop></linearGradient><linearGradient id="paint4_linear_2155_1155" x1="10.8717" y1="13.0154" x2="22.3499" y2="13.0154" gradientUnits="userSpaceOnUse"><stop stop-color="#989AAD"></stop><stop offset="1" stop-color="#98A0B7"></stop></linearGradient><linearGradient id="paint5_linear_2155_1155" x1="35.2295" y1="13.2204" x2="35.4017" y2="13.2204" gradientUnits="userSpaceOnUse"><stop stop-color="#E7E9E9"></stop><stop offset="1" stop-color="#98AACD"></stop></linearGradient><linearGradient id="paint6_linear_2155_1155" x1="28.9101" y1="10.0829" x2="17.0465" y2="1.49882" gradientUnits="userSpaceOnUse"><stop stop-color="#CDD3DB"></stop><stop offset="1" stop-color="#ACB0C2"></stop></linearGradient><linearGradient id="paint7_linear_2155_1155" x1="20.5792" y1="26.3465" x2="31.3852" y2="26.3465" gradientUnits="userSpaceOnUse"><stop stop-color="#989AAD"></stop><stop offset="1" stop-color="#98A0B7"></stop></linearGradient><linearGradient id="paint8_linear_2155_1155" x1="45.0592" y1="26.4163" x2="45.2314" y2="26.4163" gradientUnits="userSpaceOnUse"><stop stop-color="#E7E9E9"></stop><stop offset="1" stop-color="#98AACD"></stop></linearGradient><linearGradient id="paint9_linear_2155_1155" x1="38.729" y1="23.8928" x2="26.8654" y2="15.3087" gradientUnits="userSpaceOnUse"><stop stop-color="#CDD3DB"></stop><stop offset="1" stop-color="#ACB0C2"></stop></linearGradient><linearGradient id="paint10_linear_2155_1155" x1="1.16495" y1="26.4122" x2="11.9791" y2="26.4122" gradientUnits="userSpaceOnUse"><stop stop-color="#989AAD"></stop><stop offset="1" stop-color="#98A0B7"></stop></linearGradient><linearGradient id="paint11_linear_2155_1155" x1="25.3343" y1="26.404" x2="25.5064" y2="26.404" gradientUnits="userSpaceOnUse"><stop stop-color="#E7E9E9"></stop><stop offset="1" stop-color="#98AACD"></stop></linearGradient><linearGradient id="paint12_linear_2155_1155" x1="19.0886" y1="23.8976" x2="7.22498" y2="15.3135" gradientUnits="userSpaceOnUse"><stop stop-color="#CDD3DB"></stop><stop offset="1" stop-color="#ACB0C2"></stop></linearGradient></defs></svg>