<svg xmlns="http://www.w3.org/2000/svg" width="46" height="56" viewBox="0 0 46 56" fill="none"><path opacity="0.1" fill-rule="evenodd" clip-rule="evenodd" d="M41.5004 34.7777C41.451 35.0988 39.4827 36.6388 39.4416 36.68C40.2651 37.4459 42.6121 36.6059 42.9251 37.5035C43.0786 37.9512 43.1539 38.4221 43.1474 38.8953C43.1474 40.8471 41.731 42.733 39.1698 44.2153L38.1074 44.833L18.3427 33.4024L18.5733 33.2871C17.5244 32.9347 16.5209 32.4592 15.5839 31.8706L4.31803 38.3353C-0.861975 41.4071 -1.38903 45.9941 3.17332 48.6294L11.7298 53.5706C16.2921 56.2059 24.2392 55.9012 29.5674 52.9035L40.8086 46.3812C44.1027 44.413 45.8486 41.7694 45.8486 38.8953C45.8498 38.1037 45.7132 37.3178 45.4451 36.573C42.3239 34.6953 42.5051 35.7906 41.5004 34.7777Z" fill="url(#paint0_linear_2155_1126)"></path><path fill-rule="evenodd" clip-rule="evenodd" d="M45.8482 32.3072C45.8482 31.1296 45.8482 26.9461 45.8482 25.3649C45.8482 24.5414 45.2058 24.7225 44.6046 24.0966C43.7811 23.2731 41.6893 20.1272 40.487 19.4437C33.8987 15.6472 23.1929 15.639 16.6623 19.4437C16.6623 19.4437 7.33992 25.4472 4.36698 27.2919C2.86006 28.1533 1.41535 29.1192 0.0434537 30.1825C-0.0224287 32.8755 -0.00595808 35.659 0.0434537 37.759C0.0434537 39.4061 1.15522 40.8966 3.14816 42.0496L11.7046 46.9908C16.267 49.6261 24.214 49.3214 29.5423 46.3237L29.6905 46.2414L40.7752 39.8014C44.0611 37.8249 45.8482 35.1731 45.8482 32.3072ZM34.7305 34.7778L18.3258 26.8143C24.1729 23.6108 33.4293 23.6602 39.1693 26.9708C40.2502 27.565 41.2109 28.3553 42.0023 29.3014C42.3976 29.7955 41.1787 30.059 41.4011 30.5861C41.6235 31.1131 34.7305 34.7778 34.7305 34.7778Z" fill="url(#paint1_linear_2155_1126)"></path><path fill-rule="evenodd" clip-rule="evenodd" d="M45.8478 24.9531C45.8478 21.9967 43.9536 19.2708 40.5113 17.2861C33.9231 13.4896 23.2172 13.4896 16.6866 17.2861L4.33365 24.3931C-0.84635 27.4649 -1.37341 32.052 3.18894 34.6955L11.7454 39.6367C16.3078 42.272 24.2548 41.9673 29.5831 38.9778L40.8242 32.4473C44.0607 30.4708 45.8478 27.819 45.8478 24.9531ZM39.1854 30.2649L38.1231 30.8825L18.3584 19.452C24.2054 16.2567 33.4619 16.3061 39.2019 19.6167C41.7466 21.099 43.1466 22.9931 43.1466 24.9531C43.1466 26.9131 41.7466 28.8237 39.1854 30.2649Z" fill="url(#paint2_linear_2155_1126)"></path><path fill-rule="evenodd" clip-rule="evenodd" d="M45.8482 18.5543C45.8482 17.3767 45.8482 13.1849 45.8482 11.6037C45.8482 10.8214 45.2058 10.9614 44.6046 10.3355C43.7811 9.51197 41.6893 6.37432 40.487 5.68256C33.8987 1.88609 23.1929 1.88609 16.6623 5.68256C16.6623 5.68256 7.33992 11.6943 4.36698 13.539C2.85709 14.3956 1.41204 15.3617 0.0434537 16.4296C-0.0224287 19.1143 -0.00595808 21.9061 0.0434537 24.0061C0.0434537 25.612 1.15522 27.1355 3.14816 28.2967L11.7046 33.2379C16.267 35.8731 24.214 35.5684 29.5423 32.579L29.6905 32.4967L40.8082 26.0814C44.0611 24.0637 45.8482 21.412 45.8482 18.5543ZM34.7305 21.0249L18.3258 13.0531C24.2058 9.88256 33.4293 9.88256 39.1693 13.2179C40.2502 13.8121 41.2109 14.6024 42.0023 15.5484C42.3976 16.0426 41.1787 16.3061 41.4011 16.8249C41.6235 17.3437 34.7305 21.0249 34.7305 21.0249Z" fill="url(#paint3_linear_2155_1126)"></path><path fill-rule="evenodd" clip-rule="evenodd" d="M45.8478 11.1919C45.8478 8.23541 43.9536 5.51777 40.5113 3.53306C33.9231 -0.263412 23.2172 -0.271647 16.6866 3.53306L4.33365 10.6319C-0.84635 13.7119 -1.37341 18.2989 3.18894 20.9342L11.7454 25.8754C16.3078 28.5107 24.2548 28.206 29.5831 25.2084L40.8242 18.686C44.0607 16.7095 45.8478 14.066 45.8478 11.1919ZM39.1854 16.5119L38.1231 17.1213L18.3584 5.69894C24.2054 2.47071 33.4289 2.54482 39.1689 5.86365C41.7466 7.346 43.1466 9.24012 43.1466 11.1919C43.1466 13.1436 41.7466 15.0295 39.1854 16.5119Z" fill="url(#paint4_linear_2155_1126)"></path><path fill-rule="evenodd" clip-rule="evenodd" d="M22.0395 16.866C21.0229 17.3796 19.8724 17.5666 18.7454 17.4012L15.4513 19.3036L12.8242 17.7801L16.1183 15.886C15.8466 15.2271 16.1595 14.5024 17.0489 13.9836C17.8231 13.5895 18.6796 13.384 19.5483 13.384C20.4171 13.384 21.2735 13.5895 22.0477 13.9836C23.3819 14.8236 23.3819 16.0754 22.0395 16.866Z" fill="url(#paint5_linear_2155_1126)"></path><defs><linearGradient id="paint0_linear_2155_1126" x1="0.0603777" y1="43.6224" x2="45.8486" y2="43.6224" gradientUnits="userSpaceOnUse"><stop></stop><stop offset="1"></stop></linearGradient><linearGradient id="paint1_linear_2155_1126" x1="-3.2006e-07" y1="18.9488" x2="48.1027" y2="25.4862" gradientUnits="userSpaceOnUse"><stop stop-color="#18029D"></stop><stop offset="1" stop-color="#1C40F2"></stop></linearGradient><linearGradient id="paint2_linear_2155_1126" x1="0.0810544" y1="16.4138" x2="47.7612" y2="24.1321" gradientUnits="userSpaceOnUse"><stop stop-color="#0082F8"></stop><stop offset="1" stop-color="#1C40F2"></stop></linearGradient><linearGradient id="paint3_linear_2155_1126" x1="44.4811" y1="18.9167" x2="-9.28713" y2="18.9414" gradientUnits="userSpaceOnUse"><stop offset="0.19" stop-color="#E7E9E9"></stop><stop offset="0.25" stop-color="#E0E2E4"></stop><stop offset="0.99" stop-color="#8285A1"></stop></linearGradient><linearGradient id="paint4_linear_2155_1126" x1="43.2784" y1="13.8684" x2="-2.50988" y2="14.5931" gradientUnits="userSpaceOnUse"><stop stop-color="#CDD3DB"></stop><stop offset="1" stop-color="#ACB0C2"></stop></linearGradient><linearGradient id="paint5_linear_2155_1126" x1="12.8242" y1="13.8172" x2="23.4645" y2="15.5716" gradientUnits="userSpaceOnUse"><stop stop-color="#0082F8"></stop><stop offset="1" stop-color="#1C40F2"></stop></linearGradient></defs></svg>