<svg xmlns="http://www.w3.org/2000/svg" width="54" height="55" viewBox="0 0 54 55" fill="none"><path opacity="0.15" d="M43.5179 42.3823C45.0268 41.5735 46.8532 41.4117 48.5209 42.0588L50.8238 40.6838L27.0003 26.4485L24.6179 27.8235C25.8091 28.7941 25.6503 30.0882 24.2209 30.9779C22.5532 31.8676 20.6473 31.9485 18.9003 31.2205L3.17676 40.6838L27.0003 54.9191L42.9621 45.375C42.0091 44.4852 42.2473 43.1911 43.5179 42.3823Z" fill="url(#paint0_linear_2155_1144)"></path><path d="M43.3591 37.0442C44.868 36.2353 46.6944 36.0736 48.3621 36.7206L50.7444 35.3456V28.228L44.1532 27.1765L26.9209 40.6839V49.5809L42.8033 40.0368C42.8033 40.0368 42.8033 38.6618 42.8033 37.4486C42.9621 37.3677 43.2003 37.2059 43.3591 37.0442Z" fill="url(#paint1_linear_2155_1144)"></path><path d="M26.9209 42.1398L26.365 40.8456L4.44735 27.9854L3.17676 28.228V35.4265L26.9209 49.5809V42.1398Z" fill="url(#paint2_linear_2155_1144)"></path><path d="M43.4385 29.9264C44.9473 29.1176 46.7738 28.9558 48.4415 29.6029L50.7444 28.2279L26.9209 14.0735L24.5385 15.3676C25.7297 16.3382 25.5709 17.6323 24.1415 18.522C22.4738 19.4117 20.5679 19.4926 18.9003 18.7647L3.17676 28.147L26.9209 42.3014L42.8032 32.8382C41.8503 31.9485 42.0885 30.7353 43.4385 29.9264Z" fill="url(#paint3_linear_2155_1144)"></path><path d="M43.3584 23.2134C44.8672 22.4045 46.6937 22.2428 48.3614 22.8898L50.7437 21.5148V14.3972L44.2319 13.3457L26.9202 27.1766L24.8555 32.1913L26.9202 35.9119L42.8819 26.206C42.8819 26.206 42.8819 24.831 42.8819 23.6986C43.0408 23.456 43.1996 23.2942 43.3584 23.2134Z" fill="url(#paint4_linear_2155_1144)"></path><path d="M26.9209 28.5516L26.8415 27.3383L4.44735 13.9119L3.17676 14.3163V21.5148L26.9209 35.831V28.5516Z" fill="url(#paint5_linear_2155_1144)"></path><path d="M43.4385 16.0956C44.9473 15.2868 46.7738 15.125 48.4415 15.7721L50.7444 14.3971L27.0003 0.242676L24.5385 1.61768C25.7297 2.58826 25.5709 3.88238 24.1415 4.77209C22.4738 5.66179 20.5679 5.74268 18.9003 5.01473L3.17676 14.3162L26.9209 28.5515L42.8032 19.0883C41.8503 18.1177 42.0885 16.9044 43.4385 16.0956Z" fill="url(#paint6_linear_2155_1144)"></path><path d="M26.2055 19.8972L24.2202 12.5369L15.0879 13.3457V15.9339L26.2055 22.4854V19.8972Z" fill="url(#paint7_linear_2155_1144)"></path><path d="M37.2443 15.8529V13.2646L29.5413 15.2867L26.2061 19.897V22.4852L37.2443 15.8529Z" fill="url(#paint8_linear_2155_1144)"></path><path d="M15.0879 13.3455L26.2055 19.897L37.3232 13.2646L26.2055 6.71313L15.0879 13.3455Z" fill="url(#paint9_linear_2155_1144)"></path><defs><linearGradient id="paint0_linear_2155_1144" x1="41.6759" y1="51.4944" x2="12.5689" y2="30.8256" gradientUnits="userSpaceOnUse"><stop></stop><stop offset="1"></stop></linearGradient><linearGradient id="paint1_linear_2155_1144" x1="47" y1="31" x2="43.7201" y2="51.3702" gradientUnits="userSpaceOnUse"><stop stop-color="#18029D"></stop><stop offset="1" stop-color="#1C40F2"></stop></linearGradient><linearGradient id="paint2_linear_2155_1144" x1="26.9209" y1="45.006" x2="1.32971" y2="40.3979" gradientUnits="userSpaceOnUse"><stop stop-color="#001DAC"></stop><stop offset="1" stop-color="#000F57"></stop></linearGradient><linearGradient id="paint3_linear_2155_1144" x1="3.17676" y1="16.1389" x2="52.7486" y2="24.1144" gradientUnits="userSpaceOnUse"><stop stop-color="#0082F8"></stop><stop offset="1" stop-color="#1C40F2"></stop></linearGradient><linearGradient id="paint4_linear_2155_1144" x1="35.7993" y1="22.9213" x2="23.6478" y2="14.2955" gradientUnits="userSpaceOnUse"><stop stop-color="#E7E9E9"></stop><stop offset="1" stop-color="#98AACD"></stop></linearGradient><linearGradient id="paint5_linear_2155_1144" x1="-1.28928" y1="24.8714" x2="22.4846" y2="24.8714" gradientUnits="userSpaceOnUse"><stop stop-color="#989AAD"></stop><stop offset="1" stop-color="#98A0B7"></stop></linearGradient><linearGradient id="paint6_linear_2155_1144" x1="41.5989" y1="25.1434" x2="12.5149" y2="4.48135" gradientUnits="userSpaceOnUse"><stop stop-color="#CDD3DB"></stop><stop offset="1" stop-color="#ACB0C2"></stop></linearGradient><linearGradient id="paint7_linear_2155_1144" x1="26.2055" y1="20.3778" x2="14.2355" y2="18.1871" gradientUnits="userSpaceOnUse"><stop stop-color="#001DAC"></stop><stop offset="1" stop-color="#000F57"></stop></linearGradient><linearGradient id="paint8_linear_2155_1144" x1="36" y1="14.5" x2="33.0798" y2="24.3099" gradientUnits="userSpaceOnUse"><stop stop-color="#18029D"></stop><stop offset="1" stop-color="#1C40F2"></stop></linearGradient><linearGradient id="paint9_linear_2155_1144" x1="15.0879" y1="7.67781" x2="38.259" y2="11.4089" gradientUnits="userSpaceOnUse"><stop stop-color="#0082F8"></stop><stop offset="1" stop-color="#1C40F2"></stop></linearGradient></defs></svg>