<svg xmlns="http://www.w3.org/2000/svg" width="50" height="52" viewBox="0 0 50 52" fill="none"><path opacity="0.15" d="M0.0761719 37.368L24.9503 51.8999L49.8623 37.368L24.9503 22.8738L0.0761719 37.368Z" fill="url(#paint0_linear_2155_1004)"></path><path d="M27.1011 41.8218L0 29.0261V32.008L24.8742 46.54L27.1011 41.8218Z" fill="url(#paint1_linear_2155_1004)"></path><path d="M49.824 31.8949V28.9885L24.9121 42.8033V46.5778L49.824 31.8949Z" fill="url(#paint2_linear_2155_1004)"></path><path d="M0 29.0262L24.9119 43.5582L49.8238 29.0262L24.9119 14.4565L0 29.0262Z" fill="url(#paint3_linear_2155_1004)"></path><path opacity="0.1" d="M10.6064 31.2155L25.1007 39.595L39.2929 31.2155L25.0252 22.8738L10.6064 31.2155Z" fill="white"></path><path d="M26.0443 21.1373L10.6064 13.324V26.6858L24.9119 34.9143L25.931 34.1971L26.0443 21.1373Z" fill="url(#paint4_linear_2155_1004)"></path><path d="M39.2553 26.4973V13.2109L24.9121 20.9865V34.9145L39.2553 26.4973Z" fill="url(#paint5_linear_2155_1004)"></path><path d="M10.6064 13.4374L25.1007 21.7791L39.2929 13.4374L25.0252 5.0957L10.6064 13.4374Z" fill="#818696"></path><path d="M32.1593 0.943604L25.0254 5.09559L39.2931 13.4373L46.4647 9.28532L32.1593 0.943604Z" fill="url(#paint6_linear_2155_1004)"></path><path d="M17.8533 0.906006L25.0249 5.09574L10.6062 13.4375L3.54785 9.24772L17.8533 0.906006Z" fill="url(#paint7_linear_2155_1004)"></path><path d="M10.6059 13.4375L3.50977 17.665L17.8152 26.0067L25.0623 21.7792L10.6059 13.4375Z" fill="url(#paint8_linear_2155_1004)"></path><path d="M39.2928 13.4375L46.4644 17.6272L32.1967 25.9689L25.1006 21.7792L39.2928 13.4375Z" fill="url(#paint9_linear_2155_1004)"></path><path d="M31.593 9.28518C32.2724 8.94548 33.0274 8.90773 33.7445 9.1342L34.7259 8.56802V5.73712L32.046 5.28418L24.9121 10.8327V14.3053L31.3288 10.493V9.43617C31.4043 9.39842 31.4798 9.36068 31.593 9.28518Z" fill="url(#paint10_linear_2155_1004)"></path><path d="M24.9124 11.437L15.0986 5.69971V8.6061L24.9124 14.3811V11.437Z" fill="url(#paint11_linear_2155_1004)"></path><path d="M31.7066 6.45445C32.3482 6.11474 33.1032 6.077 33.7448 6.30347L34.6885 5.73729L24.9124 0L23.931 0.56618C24.4217 0.943633 24.384 1.50981 23.7801 1.84952C23.1006 2.18923 22.308 2.22697 21.5908 1.92501L15.0986 5.69954L24.9124 11.4746L31.4801 7.6623C31.1027 7.28485 31.1781 6.75641 31.7066 6.45445Z" fill="url(#paint12_linear_2155_1004)"></path><path d="M24.686 7.9641L20.0811 5.28418V6.3033L24.686 8.98322V7.9641Z" fill="url(#paint13_linear_2155_1004)"></path><path d="M29.2527 6.3033V5.28418L24.6855 7.9641V8.98322L29.2527 6.3033Z" fill="url(#paint14_linear_2155_1004)"></path><path d="M20.0811 5.28441L24.686 7.96433L29.2532 5.28441L24.686 2.60449L20.0811 5.28441Z" fill="url(#paint15_linear_2155_1004)"></path><defs><linearGradient id="paint0_linear_2155_1004" x1="40.3082" y1="48.4926" x2="10.244" y2="26.7362" gradientUnits="userSpaceOnUse"><stop></stop><stop offset="1"></stop></linearGradient><linearGradient id="paint1_linear_2155_1004" x1="27.1011" y1="42.8297" x2="-1.23538" y2="35.6485" gradientUnits="userSpaceOnUse"><stop stop-color="#001DAC"></stop><stop offset="1" stop-color="#000F57"></stop></linearGradient><linearGradient id="paint2_linear_2155_1004" x1="45.5" y1="31" x2="36.0847" y2="49.5989" gradientUnits="userSpaceOnUse"><stop stop-color="#18029D"></stop><stop offset="1" stop-color="#1C40F2"></stop></linearGradient><linearGradient id="paint3_linear_2155_1004" x1="-3.47995e-07" y1="16.5859" x2="51.8809" y2="25.0663" gradientUnits="userSpaceOnUse"><stop stop-color="#0082F8"></stop><stop offset="1" stop-color="#1C40F2"></stop></linearGradient><linearGradient id="paint4_linear_2155_1004" x1="7.68873" y1="24.1249" x2="23.1454" y2="24.1249" gradientUnits="userSpaceOnUse"><stop stop-color="#989AAD"></stop><stop offset="1" stop-color="#98A0B7"></stop></linearGradient><linearGradient id="paint5_linear_2155_1004" x1="26.1499" y1="31.0495" x2="16.8322" y2="42.5297" gradientUnits="userSpaceOnUse"><stop stop-color="#E7E9E9"></stop><stop offset="1" stop-color="#98AACD"></stop></linearGradient><linearGradient id="paint6_linear_2155_1004" x1="46.2651" y1="2.38646" x2="26.1733" y2="11.5548" gradientUnits="userSpaceOnUse"><stop offset="0.29" stop-color="#CDD3DB"></stop><stop offset="0.53" stop-color="#C7CCD6"></stop><stop offset="0.86" stop-color="#B5BAC9"></stop><stop offset="1" stop-color="#ACB0C2"></stop></linearGradient><linearGradient id="paint7_linear_2155_1004" x1="15.4069" y1="7.61852" x2="2.46407" y2="2.89658" gradientUnits="userSpaceOnUse"><stop offset="0.05" stop-color="#CDD3DB"></stop><stop offset="0.34" stop-color="#C7CCD6"></stop><stop offset="0.75" stop-color="#B5BAC9"></stop><stop offset="0.92" stop-color="#ACB0C2"></stop></linearGradient><linearGradient id="paint8_linear_2155_1004" x1="8.43153" y1="23.198" x2="20.344" y2="16.1359" gradientUnits="userSpaceOnUse"><stop stop-color="#CDD3DB"></stop><stop offset="0.33" stop-color="#C7CCD6"></stop><stop offset="0.8" stop-color="#B5BAC9"></stop><stop offset="1" stop-color="#ACB0C2"></stop></linearGradient><linearGradient id="paint9_linear_2155_1004" x1="41.8217" y1="22.2058" x2="29.1506" y2="16.9932" gradientUnits="userSpaceOnUse"><stop stop-color="#CDD3DB"></stop><stop offset="0.33" stop-color="#C7CCD6"></stop><stop offset="0.8" stop-color="#B5BAC9"></stop><stop offset="1" stop-color="#ACB0C2"></stop></linearGradient><linearGradient id="paint10_linear_2155_1004" x1="28.6396" y1="10.0923" x2="18.76" y2="16.6963" gradientUnits="userSpaceOnUse"><stop offset="0.25" stop-color="#E7E9E9"></stop><stop offset="1" stop-color="#98AACD"></stop></linearGradient><linearGradient id="paint11_linear_2155_1004" x1="10.0899" y1="10.0329" x2="19.9037" y2="10.0329" gradientUnits="userSpaceOnUse"><stop offset="0.01" stop-color="#989AAD"></stop><stop offset="1" stop-color="#98A0B7"></stop></linearGradient><linearGradient id="paint12_linear_2155_1004" x1="32.1517" y1="5.23399" x2="12.5543" y2="6.5966" gradientUnits="userSpaceOnUse"><stop stop-color="#CDD3DB"></stop><stop offset="1" stop-color="#ACB0C2"></stop></linearGradient><linearGradient id="paint13_linear_2155_1004" x1="24.686" y1="8.19959" x2="19.7664" y2="7.19658" gradientUnits="userSpaceOnUse"><stop stop-color="#001DAC"></stop><stop offset="1" stop-color="#000F57"></stop></linearGradient><linearGradient id="paint14_linear_2155_1004" x1="29.5" y1="6" x2="27.4926" y2="10.1933" gradientUnits="userSpaceOnUse"><stop stop-color="#18029D"></stop><stop offset="1" stop-color="#1C40F2"></stop></linearGradient><linearGradient id="paint15_linear_2155_1004" x1="20.0811" y1="2.99668" x2="29.6321" y2="4.55715" gradientUnits="userSpaceOnUse"><stop stop-color="#0082F8"></stop><stop offset="1" stop-color="#1C40F2"></stop></linearGradient></defs></svg>