<svg xmlns="http://www.w3.org/2000/svg" width="45" height="55" viewBox="0 0 45 55" fill="none"><path opacity="0.1" d="M0 42.1829L22.4157 55L44.8315 42.1829L22.4157 29.447L0 42.1829Z" fill="url(#paint0_linear_2155_1135)"></path><path d="M22.5818 39.5058L0 27.2566V37.4778L22.5818 50.2948V39.5058Z" fill="url(#paint1_linear_2155_1135)"></path><path d="M44.8317 37.4778V27.2566L22.582 39.5869V50.2948L44.8317 37.4778Z" fill="url(#paint2_linear_2155_1135)"></path><path d="M0 27.2565L22.4988 40.0736L44.8315 27.2565L40.7635 24.9041L22.4988 35.6931L3.902 25.0663L0 27.2565Z" fill="url(#paint3_linear_2155_1135)"></path><path d="M22.4988 24.4984L0 12.8982V23.0383L22.4988 35.8553V24.4984Z" fill="url(#paint4_linear_2155_1135)"></path><path d="M44.7487 23.0383V12.8982L22.499 24.5796V35.8553L44.7487 23.0383Z" fill="url(#paint5_linear_2155_1135)"></path><path d="M0 12.7359L22.4988 25.553L44.7485 12.7359L22.4158 0L0 12.7359Z" fill="url(#paint6_linear_2155_1135)"></path><path fill-rule="evenodd" clip-rule="evenodd" d="M25.4925 7.74458L20.9596 5.76524C20.8437 5.70819 20.7157 5.67847 20.586 5.67847C20.4562 5.67847 20.3283 5.70819 20.2124 5.76524L16.6425 7.87438C16.5955 7.89204 16.5551 7.92319 16.5266 7.96374C16.4981 8.00429 16.4828 8.05232 16.4828 8.10151C16.4828 8.1507 16.4981 8.19874 16.5266 8.23929C16.5551 8.27983 16.5955 8.31099 16.6425 8.32865L20.6441 10.6081C20.7728 10.6716 20.915 10.7047 21.0592 10.7047C21.2034 10.7047 21.3456 10.6716 21.4743 10.6081L25.5755 8.26375C25.6359 8.23856 25.6842 8.19177 25.7104 8.13296C25.7367 8.07415 25.7389 8.00776 25.7167 7.94739C25.6871 7.88421 25.6335 7.83476 25.5672 7.80948H25.5174L25.4925 7.74458ZM34.8241 11.9304C34.8098 11.8743 34.7797 11.8232 34.7371 11.7831C34.6945 11.7429 34.6413 11.7153 34.5834 11.7033L27.9417 8.80726C27.8301 8.75537 27.7082 8.72844 27.5847 8.72844C27.4611 8.72844 27.3392 8.75537 27.2277 8.80726L22.786 11.3301C22.7554 11.3418 22.7275 11.3592 22.7039 11.3814C22.6802 11.4036 22.6613 11.4302 22.6481 11.4596C22.635 11.489 22.628 11.5207 22.6274 11.5527C22.6269 11.5848 22.6328 11.6167 22.6449 11.6465C22.6564 11.6792 22.675 11.7092 22.6993 11.7344C22.7237 11.7596 22.7532 11.7794 22.786 11.7925L28.6556 15.1752C28.7842 15.2393 28.9264 15.2727 29.0707 15.2727C29.2151 15.2727 29.3573 15.2393 29.4858 15.1752L34.6913 12.1981C34.7386 12.1764 34.7786 12.142 34.8065 12.0989C34.8345 12.0558 34.8492 12.0058 34.849 11.9547L34.8241 11.9304ZM27.3522 15.8972L21.4826 12.5469C21.3545 12.4815 21.2121 12.4474 21.0675 12.4474C20.9229 12.4474 20.7805 12.4815 20.6524 12.5469L16.2357 15.0698C16.0198 15.1915 16.0198 15.3699 16.1858 15.4916L21.2584 19.2961H21.3166C21.4447 19.3615 21.5871 19.3957 21.7317 19.3957C21.8762 19.3957 22.0186 19.3615 22.1468 19.2961L27.3605 16.3271C27.4209 16.3019 27.4691 16.2552 27.4954 16.1963C27.5216 16.1375 27.5239 16.0711 27.5016 16.0108C27.4883 15.9777 27.4681 15.9477 27.4424 15.9226C27.4167 15.8975 27.386 15.8778 27.3522 15.8647V15.8972ZM19.349 11.3301L15.3141 9.04251C15.1854 8.97905 15.0432 8.94599 14.899 8.94599C14.7548 8.94599 14.6126 8.97905 14.4839 9.04251L10.9555 11.1192C10.7479 11.2409 10.7479 11.4193 10.9057 11.541L14.3843 14.1288H14.4341C14.5622 14.1942 14.7046 14.2283 14.8492 14.2283C14.9938 14.2283 15.1362 14.1942 15.2643 14.1288L19.3656 11.7844C19.3961 11.7727 19.4241 11.7553 19.4477 11.7331C19.4714 11.7109 19.4903 11.6843 19.5034 11.6549C19.5166 11.6255 19.5236 11.5938 19.5242 11.5618C19.5247 11.5297 19.5188 11.4978 19.5067 11.468C19.4778 11.4072 19.4278 11.3584 19.3656 11.3301H19.349Z" fill="url(#paint7_linear_2155_1135)"></path><defs><linearGradient id="paint0_linear_2155_1135" x1="36.2388" y1="51.958" x2="9.64042" y2="32.2608" gradientUnits="userSpaceOnUse"><stop></stop><stop offset="1"></stop></linearGradient><linearGradient id="paint1_linear_2155_1135" x1="22.5818" y1="45.4143" x2="-1.91453" y2="41.4819" gradientUnits="userSpaceOnUse"><stop stop-color="#001DAC"></stop><stop offset="1" stop-color="#000F57"></stop></linearGradient><linearGradient id="paint2_linear_2155_1135" x1="26.5677" y1="43.3995" x2="20.5151" y2="25.7512" gradientUnits="userSpaceOnUse"><stop stop-color="#0082F8"></stop><stop offset="1" stop-color="#1C40F2"></stop></linearGradient><linearGradient id="paint3_linear_2155_1135" x1="-3.13126e-07" y1="26.014" x2="44.3952" y2="38.5406" gradientUnits="userSpaceOnUse"><stop stop-color="#0082F8"></stop><stop offset="1" stop-color="#1C40F2"></stop></linearGradient><linearGradient id="paint4_linear_2155_1135" x1="-4.17597" y1="24.3768" x2="18.3145" y2="24.3768" gradientUnits="userSpaceOnUse"><stop stop-color="#989AAD"></stop><stop offset="1" stop-color="#98A0B7"></stop></linearGradient><linearGradient id="paint5_linear_2155_1135" x1="50.527" y1="24.3768" x2="50.9172" y2="24.3768" gradientUnits="userSpaceOnUse"><stop stop-color="#E7E9E9"></stop><stop offset="1" stop-color="#98AACD"></stop></linearGradient><linearGradient id="paint6_linear_2155_1135" x1="36.1807" y1="22.4947" x2="9.62307" y2="2.8309" gradientUnits="userSpaceOnUse"><stop stop-color="#CDD3DB"></stop><stop offset="1" stop-color="#ACB0C2"></stop></linearGradient><linearGradient id="paint7_linear_2155_1135" x1="10.793" y1="6.68217" x2="35.8102" y2="10.8709" gradientUnits="userSpaceOnUse"><stop stop-color="#0082F8"></stop><stop offset="1" stop-color="#1C40F2"></stop></linearGradient></defs></svg>