<svg xmlns="http://www.w3.org/2000/svg" width="55" height="57" viewBox="0 0 55 57" fill="none"><path opacity="0.1" d="M5.42871 43.1248L27.7388 56.1803L50.0489 43.1248L27.7388 30.1519L5.42871 43.1248Z" fill="url(#paint0_linear_2155_1088)"></path><path d="M27.9041 42.4637L5.42871 29.9866V38.3322L27.9041 51.3878V42.4637Z" fill="url(#paint1_linear_2155_1088)"></path><path d="M50.0501 38.3322V29.9866L27.9053 42.5463V51.3878L50.0501 38.3322Z" fill="url(#paint2_linear_2155_1088)"></path><path d="M5.42871 29.9865L27.8215 43.0421L50.0489 29.9865L43.9261 26.3508L27.8215 36.1011L11.7499 26.3425L5.42871 29.9865Z" fill="url(#paint3_linear_2155_1088)"></path><path d="M29.4741 26.3506L5.42871 15.7739V24.4501L27.8215 37.5056L29.4741 26.3506Z" fill="url(#paint4_linear_2155_1088)"></path><path d="M49.9661 24.4501V15.7739L27.8213 27.6727V37.5056L49.9661 24.4501Z" fill="url(#paint5_linear_2155_1088)"></path><path d="M5.42871 15.7742L27.8215 28.8297L49.9663 15.7742L27.7388 2.80127L5.42871 15.7742Z" fill="url(#paint6_linear_2155_1088)"></path><path d="M23.0215 29.3669L27.6075 32.0441L32.2347 29.3503" stroke="url(#paint7_linear_2155_1088)" stroke-width="1.5" stroke-linecap="round" stroke-linejoin="round"></path><path d="M49.8938 19.0546L54.2153 16.5344L49.6211 13.8489" stroke="url(#paint8_linear_2155_1088)" stroke-width="1.5" stroke-linecap="round" stroke-linejoin="round"></path><path d="M31.9628 3.54501L27.6082 1L23.2949 3.52022" stroke="url(#paint9_linear_2155_1088)" stroke-width="1.5" stroke-linecap="round" stroke-linejoin="round"></path><path d="M5.63555 13.8323L1 16.5343L5.36287 19.071" stroke="url(#paint10_linear_2155_1088)" stroke-width="1.5" stroke-linecap="round" stroke-linejoin="round"></path><path d="M40.6532 23.6489L14.2529 8.21362" stroke="url(#paint11_linear_2155_1088)" stroke-width="1.5" stroke-linecap="round" stroke-linejoin="round"></path><defs><linearGradient id="paint0_linear_2155_1088" x1="41.4967" y1="53.0817" x2="14.5924" y2="33.6141" gradientUnits="userSpaceOnUse"><stop></stop><stop offset="1"></stop></linearGradient><linearGradient id="paint1_linear_2155_1088" x1="27.9041" y1="46.854" x2="3.61348" y2="42.6762" gradientUnits="userSpaceOnUse"><stop stop-color="#001DAC"></stop><stop offset="1" stop-color="#000F57"></stop></linearGradient><linearGradient id="paint2_linear_2155_1088" x1="48.5" y1="32.6802" x2="44.2229" y2="54.378" gradientUnits="userSpaceOnUse"><stop stop-color="#18029D"></stop><stop offset="1" stop-color="#1C40F2"></stop></linearGradient><linearGradient id="paint3_linear_2155_1088" x1="5.42871" y1="27.5644" x2="50.2178" y2="38.9903" gradientUnits="userSpaceOnUse"><stop stop-color="#0082F8"></stop><stop offset="1" stop-color="#1C40F2"></stop></linearGradient><linearGradient id="paint4_linear_2155_1088" x1="0.966688" y1="26.6398" x2="25.012" y2="26.6398" gradientUnits="userSpaceOnUse"><stop stop-color="#989AAD"></stop><stop offset="1" stop-color="#98A0B7"></stop></linearGradient><linearGradient id="paint5_linear_2155_1088" x1="55.7172" y1="26.6398" x2="56.1056" y2="26.6398" gradientUnits="userSpaceOnUse"><stop stop-color="#E7E9E9"></stop><stop offset="1" stop-color="#98AACD"></stop></linearGradient><linearGradient id="paint6_linear_2155_1088" x1="41.4389" y1="25.7146" x2="14.5759" y2="6.27999" gradientUnits="userSpaceOnUse"><stop stop-color="#CDD3DB"></stop><stop offset="1" stop-color="#ACB0C2"></stop></linearGradient><linearGradient id="paint7_linear_2155_1088" x1="23.0215" y1="29.5474" x2="31.9223" y2="32.454" gradientUnits="userSpaceOnUse"><stop stop-color="#0082F8"></stop><stop offset="1" stop-color="#1C40F2"></stop></linearGradient><linearGradient id="paint8_linear_2155_1088" x1="49.6211" y1="14.2298" x2="54.4982" y2="14.6407" gradientUnits="userSpaceOnUse"><stop stop-color="#0082F8"></stop><stop offset="1" stop-color="#00C0FD"></stop></linearGradient><linearGradient id="paint9_linear_2155_1088" x1="23.2949" y1="1.18622" x2="31.6757" y2="3.9114" gradientUnits="userSpaceOnUse"><stop stop-color="#0082F8"></stop><stop offset="1" stop-color="#1C40F2"></stop></linearGradient><linearGradient id="paint10_linear_2155_1088" x1="1" y1="14.2156" x2="5.92078" y2="14.6313" gradientUnits="userSpaceOnUse"><stop stop-color="#0082F8"></stop><stop offset="1" stop-color="#1C40F2"></stop></linearGradient><linearGradient id="paint11_linear_2155_1088" x1="14.2529" y1="9.34304" x2="41.7446" y2="13.8324" gradientUnits="userSpaceOnUse"><stop stop-color="#0082F8"></stop><stop offset="1" stop-color="#1C40F2"></stop></linearGradient></defs></svg>