<svg xmlns="http://www.w3.org/2000/svg" width="53" height="56" viewBox="0 0 53 56" fill="none"><path opacity="0.95" d="M26.7588 2.20825V3.47867" stroke="#818696" stroke-width="1.44" stroke-linecap="round" stroke-linejoin="round"></path><path opacity="0.1" d="M0 40.6781L26.2023 55.9628L52.3649 40.6781L26.2023 25.4331L0 40.6781Z" fill="url(#paint0_linear_2155_931)"></path><path d="M28.2667 45.9187L0 31.8647V35.0408L26.2023 50.3255L28.2667 45.9187Z" fill="url(#paint1_linear_2155_931)"></path><path d="M52.3648 34.882V31.8647L26.2021 46.3951V50.3255L52.3648 34.882Z" fill="url(#paint2_linear_2155_931)"></path><path d="M0 31.8646L26.2023 47.1493L52.4046 31.8646L26.2817 16.6196L0 31.8646Z" fill="url(#paint3_linear_2155_931)"></path><path opacity="0.1" fill-rule="evenodd" clip-rule="evenodd" d="M15.8008 24.5199C22.4308 21.066 30.3312 21.066 36.9612 24.5199C42.7971 27.9738 42.7971 33.5319 36.9612 36.9859C30.3312 40.4398 22.4308 40.4398 15.8008 36.9859C9.96484 33.5716 9.96484 27.9738 15.8008 24.5199Z" fill="white"></path><path fill-rule="evenodd" clip-rule="evenodd" d="M11.5527 18.2079C18.1033 14.7936 34.579 14.873 41.1693 18.2873C41.209 21.0266 41.209 21.9397 41.1693 24.2026C41.1296 26.4656 39.7004 28.6094 36.8419 30.2768C30.2914 33.691 22.4704 33.691 15.8801 30.2768C13.0217 28.6094 11.5527 26.3862 11.5527 24.1629C11.5527 21.9397 11.5527 21.5427 11.5527 18.2079Z" fill="url(#paint4_linear_2155_931)"></path><path fill-rule="evenodd" clip-rule="evenodd" d="M15.8799 11.8952C22.4702 8.48091 30.2515 8.48091 36.8418 11.8952C42.6381 15.3094 42.6381 20.8278 36.8418 24.242C30.2912 27.6562 22.4702 27.6562 15.8799 24.242C10.1234 20.8675 10.1234 15.3094 15.8799 11.8952Z" fill="url(#paint5_linear_2155_931)"></path><path fill-rule="evenodd" clip-rule="evenodd" d="M11.5527 8.4808C18.1033 5.06656 34.579 5.14596 41.1693 8.5602C41.209 11.2995 41.209 12.6097 41.1693 14.8726C41.1693 17.0561 39.6607 19.2793 36.8419 20.9468C30.2914 24.361 22.4704 24.361 15.8801 20.9468C13.0217 19.2396 11.5527 17.0561 11.5527 14.8329C11.5527 12.6097 11.5527 11.8156 11.5527 8.4808Z" fill="url(#paint6_linear_2155_931)"></path><path fill-rule="evenodd" clip-rule="evenodd" d="M15.8799 2.56567C22.4305 -0.848576 30.2515 -0.848576 36.8418 2.52597C42.6381 5.94021 42.6381 11.4586 36.8418 14.9125C30.2912 18.3268 22.4702 18.3268 15.8799 14.9125C10.1234 11.4983 10.1234 5.97991 15.8799 2.56567Z" fill="url(#paint7_linear_2155_931)"></path><path fill-rule="evenodd" clip-rule="evenodd" d="M20.4834 4.68227C20.8713 4.02296 21.7201 3.80288 22.3794 4.19071L26.4133 6.56356L29.277 4.72785C29.9465 4.29866 30.8372 4.49349 31.2664 5.16303C31.6956 5.83257 31.5008 6.72327 30.8312 7.15246L28.4571 8.67434C28.4406 8.87582 28.3796 9.07682 28.2703 9.26275C27.8824 9.92206 27.0336 10.1421 26.3743 9.75431L20.975 6.57827C20.3157 6.19044 20.0956 5.34157 20.4834 4.68227Z" fill="url(#paint8_linear_2155_931)"></path><path opacity="0.95" d="M19.7708 4.23311L18.6592 3.5979" stroke="#818696" stroke-width="2.77" stroke-linecap="round" stroke-linejoin="round"></path><path opacity="0.95" d="M15.443 8.79864L14.252 8.71924" stroke="#818696" stroke-width="1.39" stroke-linecap="round" stroke-linejoin="round"></path><path opacity="0.95" d="M38.3909 8.36197L37.1602 8.32227" stroke="#818696" stroke-width="1.44" stroke-linecap="round" stroke-linejoin="round"></path><path opacity="0.95" d="M35.6115 13.0069L34.0234 12.0938" stroke="#818696" stroke-width="2.88" stroke-linecap="round" stroke-linejoin="round"></path><path d="M32.832 4.27296L34.023 3.55835" stroke="#818696" stroke-width="2.88" stroke-linecap="round" stroke-linejoin="round"></path><path d="M17.9053 13.4831L19.3345 12.6494" stroke="#818696" stroke-width="2.77" stroke-linecap="round" stroke-linejoin="round"></path><path opacity="0.5" d="M17.0715 3.28026C22.9075 0.263025 29.8153 0.263025 35.6513 3.28026C40.7727 6.2975 40.7727 11.2204 35.6513 14.2376C29.855 17.2548 22.9075 17.2548 17.0715 14.2376C11.9501 11.2204 11.9501 6.2975 17.0715 3.28026Z" stroke="#818696" stroke-width="1.39" stroke-linecap="round" stroke-linejoin="round"></path><path opacity="0.95" d="M26.6787 14.2773V15.5081" stroke="#818696" stroke-width="1.44" stroke-linecap="round" stroke-linejoin="round"></path><path opacity="0.95" d="M26.6787 1.69214V2.92285" stroke="#818696" stroke-width="1.44" stroke-linecap="round" stroke-linejoin="round"></path><path fill-rule="evenodd" clip-rule="evenodd" d="M44.0672 29.1648L43.6702 29.403L43.7099 32.579L40.0574 31.5468L32.9907 37.7798C32.9907 37.7798 30.966 36.5888 30.6881 36.43C30.3308 36.1918 30.1323 35.7948 30.172 35.3581L30.2117 25.2741C30.2514 24.0831 30.8866 23.0112 31.8791 22.376L43.9878 15.3093C44.3451 15.0314 44.7818 14.9917 45.1788 15.1902C45.4964 15.349 47.6402 16.5797 47.6402 16.5797L45.7743 26.3064C45.6552 27.4577 45.0597 28.5296 44.0672 29.1648Z" fill="url(#paint9_linear_2155_931)"></path><path fill-rule="evenodd" clip-rule="evenodd" d="M46.4502 30.5545L46.0135 30.8324V34.0084L42.4801 32.8968L34.3018 37.7006C33.3887 38.2564 32.5947 37.8594 32.5947 36.7875V26.7036C32.6344 25.5125 33.1902 24.4009 34.1827 23.7657L46.3311 16.6196C47.2442 16.0638 47.9985 16.5005 47.9985 17.5724V27.7358C47.9588 28.8871 47.403 29.9193 46.4502 30.5545Z" fill="url(#paint10_linear_2155_931)"></path><path d="M39.1836 25.5523C39.263 25.3934 39.3821 25.2743 39.5012 25.1155C39.6203 24.9567 39.7394 24.8376 39.8585 24.6788C39.9776 24.52 40.0967 24.4009 40.2555 24.2818C40.4143 24.1627 40.5731 24.0436 40.7319 23.9642C40.9304 23.8451 41.1289 23.7657 41.3671 23.726C41.5259 23.6863 41.7244 23.6863 41.8832 23.7657C42.042 23.8054 42.1214 23.9245 42.2008 24.0833C42.2802 24.2818 42.3199 24.4803 42.3199 24.6788C42.3199 24.917 42.2802 25.1552 42.2405 25.3537C42.2008 25.5523 42.1214 25.7508 42.0023 25.9493C41.9229 26.1478 41.8038 26.3066 41.6847 26.4654C41.5656 26.6242 41.4862 26.783 41.3671 26.9021C41.2877 27.0212 41.2083 27.18 41.1289 27.2991C41.0495 27.4182 41.0098 27.5373 41.0098 27.6564L40.9304 28.4107L40.3349 28.768L40.2555 28.0137C40.2555 27.8549 40.2555 27.7358 40.3349 27.577C40.4143 27.4182 40.454 27.2991 40.5731 27.1403C40.6525 26.9815 40.7716 26.8227 40.8907 26.7036C41.0098 26.5448 41.0892 26.386 41.2083 26.2272C41.2877 26.0684 41.3671 25.9096 41.4465 25.7111C41.5259 25.5523 41.5656 25.3537 41.5656 25.1949C41.5656 25.0758 41.5656 24.9964 41.4862 24.8773C41.4465 24.7979 41.4068 24.7582 41.3274 24.7185C41.248 24.6788 41.1686 24.6788 41.0495 24.7185C40.9304 24.7582 40.8113 24.7979 40.7319 24.8376C40.5731 24.917 40.454 25.0361 40.3349 25.1552C40.2158 25.2346 40.1364 25.3537 40.057 25.4728C39.9776 25.592 39.8982 25.6714 39.8585 25.7508C39.8188 25.7905 39.7791 25.8699 39.7394 25.9096C39.66 25.9493 39.5806 25.9493 39.5409 25.8699L39.1836 25.5523ZM39.9776 30.753C39.9776 30.6736 39.9776 30.5545 40.0173 30.4751C40.057 30.3957 40.0967 30.2766 40.1364 30.1972C40.1761 30.1178 40.2555 30.0384 40.3349 29.959C40.4143 29.8796 40.4937 29.8399 40.5731 29.7605C40.6525 29.7208 40.7319 29.6811 40.8113 29.6811C40.8907 29.6811 40.9304 29.6811 41.0098 29.7208C41.0495 29.7605 41.0892 29.8002 41.1289 29.8796C41.1686 29.959 41.1686 30.0384 41.1686 30.1178C41.1686 30.1972 41.1686 30.3163 41.1289 30.3957C41.0892 30.4751 41.0495 30.5942 41.0098 30.6736C40.9701 30.753 40.8907 30.8324 40.8113 30.9118C40.7319 30.9912 40.6525 31.0309 40.5731 31.0706C40.4937 31.1103 40.4143 31.15 40.3349 31.15C40.2555 31.15 40.2158 31.15 40.1364 31.1103C40.0967 31.0706 40.057 31.0309 40.0173 30.9912C39.9776 30.9118 39.9776 30.8324 39.9776 30.753Z" fill="url(#paint11_linear_2155_931)"></path><defs><linearGradient id="paint0_linear_2155_931" x1="42.3359" y1="52.3678" x2="10.7145" y2="29.4845" gradientUnits="userSpaceOnUse"><stop></stop><stop offset="1"></stop></linearGradient><linearGradient id="paint1_linear_2155_931" x1="28.2667" y1="46.4146" x2="-1.32578" y2="38.9938" gradientUnits="userSpaceOnUse"><stop stop-color="#001DAC"></stop><stop offset="1" stop-color="#000F57"></stop></linearGradient><linearGradient id="paint2_linear_2155_931" x1="52.3648" y1="46.4146" x2="24.7408" y2="40.0031" gradientUnits="userSpaceOnUse"><stop stop-color="#001DAC"></stop><stop offset="1" stop-color="#000F57"></stop></linearGradient><linearGradient id="paint3_linear_2155_931" x1="-3.6602e-07" y1="18.8535" x2="54.5609" y2="27.7951" gradientUnits="userSpaceOnUse"><stop stop-color="#0082F8"></stop><stop offset="1" stop-color="#1C40F2"></stop></linearGradient><linearGradient id="paint4_linear_2155_931" x1="42.0784" y1="24.1616" x2="5.03785" y2="24.3959" gradientUnits="userSpaceOnUse"><stop offset="0.42" stop-color="#E7E9E9"></stop><stop offset="0.68" stop-color="#B1B4C3"></stop><stop offset="0.88" stop-color="#8F92AA"></stop><stop offset="0.99" stop-color="#8285A1"></stop></linearGradient><linearGradient id="paint5_linear_2155_931" x1="42.9498" y1="15.9893" x2="13.5397" y2="19.6775" gradientUnits="userSpaceOnUse"><stop stop-color="#CDD3DB"></stop><stop offset="1" stop-color="#ACB0C2"></stop></linearGradient><linearGradient id="paint6_linear_2155_931" x1="42.0824" y1="14.6331" x2="5.03788" y2="14.8673" gradientUnits="userSpaceOnUse"><stop offset="0.42" stop-color="#E7E9E9"></stop><stop offset="0.68" stop-color="#B1B4C3"></stop><stop offset="0.88" stop-color="#8F92AA"></stop><stop offset="0.99" stop-color="#8285A1"></stop></linearGradient><linearGradient id="paint7_linear_2155_931" x1="42.9518" y1="6.65974" x2="13.5417" y2="10.3439" gradientUnits="userSpaceOnUse"><stop stop-color="#CDD3DB"></stop><stop offset="1" stop-color="#ACB0C2"></stop></linearGradient><linearGradient id="paint8_linear_2155_931" x1="20.292" y1="4.43438" x2="31.8932" y2="6.52097" gradientUnits="userSpaceOnUse"><stop stop-color="#0082F8"></stop><stop offset="1" stop-color="#1C40F2"></stop></linearGradient><linearGradient id="paint9_linear_2155_931" x1="50.2904" y1="19.8871" x2="16.2866" y2="40.5421" gradientUnits="userSpaceOnUse"><stop stop-color="#E7E9E9"></stop><stop offset="0.46" stop-color="#B1B4C3"></stop><stop offset="0.81" stop-color="#8F92AA"></stop><stop offset="0.99" stop-color="#8285A1"></stop></linearGradient><linearGradient id="paint10_linear_2155_931" x1="50.3347" y1="22.6677" x2="28.3837" y2="36.0043" gradientUnits="userSpaceOnUse"><stop stop-color="#E7E9E9"></stop><stop offset="0.45" stop-color="#E5E7E8"></stop><stop offset="0.63" stop-color="#DEE2E6"></stop><stop offset="0.75" stop-color="#D2D8E2"></stop><stop offset="0.86" stop-color="#C1CBDB"></stop><stop offset="0.94" stop-color="#ABB9D4"></stop><stop offset="1" stop-color="#98AACD"></stop></linearGradient><linearGradient id="paint11_linear_2155_931" x1="39.1836" y1="24.2451" x2="42.5313" y2="24.3796" gradientUnits="userSpaceOnUse"><stop stop-color="#0082F8"></stop><stop offset="1" stop-color="#1C40F2"></stop></linearGradient></defs></svg>