<svg xmlns="http://www.w3.org/2000/svg" width="54" height="68" viewBox="0 0 54 68" fill="none"><path opacity="0.1" d="M0 52.0003L27 67.8003L54 52.0003L27 36.3003L0 52.0003Z" fill="url(#paint0_linear_1850_95)"></path><path d="M27.2 48.7001L0 33.6001V46.2001L27.2 62.0001V48.7001Z" fill="url(#paint1_linear_1850_95)"></path><path d="M53.9992 46.2001V33.6001L27.1992 48.8001V62.0001L53.9992 46.2001Z" fill="url(#paint2_linear_1850_95)"></path><path d="M0 33.6002L27.1 49.4002L54 33.6002L49.1 30.7002L27.1 44.0002L4.7 30.9002L0 33.6002Z" fill="url(#paint3_linear_1850_95)"></path><path d="M27.1 30.2004L0 15.9004V28.4004L27.1 44.2004V30.2004Z" fill="url(#paint4_linear_1850_95)"></path><path d="M53.9016 28.4004V15.9004L27.1016 30.3004V44.2004L53.9016 28.4004Z" fill="url(#paint5_linear_1850_95)"></path><path d="M0 15.7L27.1 31.5L53.9 15.7L27 0L0 15.7Z" fill="url(#paint6_linear_1850_95)"></path><path fill-rule="evenodd" clip-rule="evenodd" d="M30.7058 9.54697L25.2458 7.10697C25.1062 7.03664 24.9521 7 24.7958 7C24.6395 7 24.4853 7.03664 24.3458 7.10697L20.0458 9.70697C19.9892 9.72874 19.9405 9.76715 19.9062 9.81713C19.8718 9.86712 19.8535 9.92633 19.8535 9.98697C19.8535 10.0476 19.8718 10.1068 19.9062 10.1568C19.9405 10.2068 19.9892 10.2452 20.0458 10.267L24.8658 13.077C25.0208 13.1552 25.1921 13.196 25.3658 13.196C25.5394 13.196 25.7107 13.1552 25.8658 13.077L30.8058 10.187C30.8785 10.1559 30.9366 10.0982 30.9682 10.0257C30.9998 9.95324 31.0025 9.8714 30.9758 9.79697C30.9401 9.71909 30.8756 9.65813 30.7958 9.62697H30.7358L30.7058 9.54697ZM41.9458 14.707C41.9286 14.6378 41.8922 14.5749 41.841 14.5253C41.7897 14.4758 41.7255 14.4417 41.6558 14.427L33.6558 10.857C33.5214 10.793 33.3745 10.7598 33.2258 10.7598C33.077 10.7598 32.9301 10.793 32.7958 10.857L27.4458 13.967C27.4089 13.9813 27.3753 14.0028 27.3468 14.0302C27.3183 14.0576 27.2955 14.0904 27.2797 14.1266C27.2639 14.1629 27.2554 14.2019 27.2547 14.2414C27.2541 14.2809 27.2612 14.3202 27.2758 14.357C27.2897 14.3973 27.312 14.4343 27.3413 14.4653C27.3707 14.4964 27.4063 14.5208 27.4458 14.537L34.5158 18.707C34.6706 18.786 34.8419 18.8272 35.0158 18.8272C35.1896 18.8272 35.3609 18.786 35.5158 18.707L41.7858 15.037C41.8427 15.0103 41.8909 14.9679 41.9246 14.9147C41.9582 14.8616 41.976 14.7999 41.9758 14.737L41.9458 14.707ZM32.9458 19.597L25.8758 15.467C25.7214 15.3864 25.5499 15.3443 25.3758 15.3443C25.2016 15.3443 25.0301 15.3864 24.8758 15.467L19.5558 18.577C19.2958 18.727 19.2958 18.947 19.4958 19.097L25.6058 23.787H25.6758C25.8301 23.8676 26.0016 23.9097 26.1758 23.9097C26.3499 23.9097 26.5214 23.8676 26.6758 23.787L32.9558 20.127C33.0285 20.0959 33.0866 20.0382 33.1182 19.9657C33.1498 19.8932 33.1525 19.8114 33.1258 19.737C33.1097 19.6962 33.0854 19.6593 33.0544 19.6283C33.0235 19.5973 32.9865 19.5731 32.9458 19.557V19.597ZM23.3058 13.967L18.4458 11.147C18.2907 11.0687 18.1195 11.028 17.9458 11.028C17.7721 11.028 17.6008 11.0687 17.4458 11.147L13.1958 13.707C12.9458 13.857 12.9458 14.077 13.1358 14.227L17.3258 17.417H17.3858C17.5401 17.4976 17.7116 17.5397 17.8858 17.5397C18.0599 17.5397 18.2314 17.4976 18.3858 17.417L23.3258 14.527C23.3626 14.5126 23.3962 14.4911 23.4248 14.4637C23.4533 14.4363 23.4761 14.4036 23.4919 14.3673C23.5077 14.3311 23.5161 14.2921 23.5168 14.2525C23.5175 14.213 23.5103 14.1737 23.4958 14.137C23.461 14.062 23.4007 14.0018 23.3258 13.967H23.3058Z" fill="url(#paint7_linear_1850_95)"></path><defs><linearGradient id="paint0_linear_1850_95" x1="43.65" y1="64.0503" x2="11.09" y2="40.4903" gradientUnits="userSpaceOnUse"><stop></stop><stop offset="1"></stop></linearGradient><linearGradient id="paint1_linear_1850_95" x1="27.2" y1="55.9837" x2="-2.33967" y2="51.3503" gradientUnits="userSpaceOnUse"><stop stop-color="#001DAC"></stop><stop offset="1" stop-color="#000F57"></stop></linearGradient><linearGradient id="paint2_linear_1850_95" x1="32" y1="53.5" x2="24.4018" y2="31.8524" gradientUnits="userSpaceOnUse"><stop stop-color="#0082F8"></stop><stop offset="1" stop-color="#1C40F2"></stop></linearGradient><linearGradient id="paint3_linear_1850_95" x1="-3.77163e-07" y1="32.0685" x2="53.6536" y2="46.8609" gradientUnits="userSpaceOnUse"><stop stop-color="#0082F8"></stop><stop offset="1" stop-color="#1C40F2"></stop></linearGradient><linearGradient id="paint4_linear_1850_95" x1="-5.03" y1="30.0504" x2="22.06" y2="30.0504" gradientUnits="userSpaceOnUse"><stop stop-color="#989AAD"></stop><stop offset="1" stop-color="#98A0B7"></stop></linearGradient><linearGradient id="paint5_linear_1850_95" x1="60.8616" y1="30.0504" x2="61.3316" y2="30.0504" gradientUnits="userSpaceOnUse"><stop stop-color="#E7E9E9"></stop><stop offset="1" stop-color="#98AACD"></stop></linearGradient><linearGradient id="paint6_linear_1850_95" x1="43.58" y1="27.73" x2="11.07" y2="4.21" gradientUnits="userSpaceOnUse"><stop stop-color="#CDD3DB"></stop><stop offset="1" stop-color="#ACB0C2"></stop></linearGradient><linearGradient id="paint7_linear_1850_95" x1="13" y1="8.2373" x2="43.1707" y2="13.1733" gradientUnits="userSpaceOnUse"><stop stop-color="#0082F8"></stop><stop offset="1" stop-color="#1C40F2"></stop></linearGradient></defs></svg>