<svg xmlns="http://www.w3.org/2000/svg" width="75" height="20" viewBox="0 0 75 20" fill="none"><path d="M9.22179 13.7055C9.35611 13.7067 9.48462 13.7619 9.57974 13.8593C9.67486 13.9566 9.729 14.0883 9.73055 14.2262V16.2736C9.729 16.4114 9.67486 16.5431 9.57974 16.6405C9.48462 16.7378 9.35611 16.793 9.22179 16.7942H0.505818C0.43931 16.7951 0.373331 16.782 0.311934 16.7557C0.250537 16.7295 0.195019 16.6906 0.148789 16.6415C0.101178 16.5939 0.063452 16.5369 0.0378853 16.4739C0.0123186 16.411 -0.00055945 16.3433 2.73725e-05 16.2751V3.8029C-0.000674947 3.73443 0.0121444 3.66653 0.037712 3.60329C0.0632796 3.54005 0.101065 3.48279 0.148789 3.43494C0.195019 3.38586 0.250537 3.347 0.311934 3.32075C0.373331 3.29449 0.43931 3.2814 0.505818 3.28227H2.97378C3.1081 3.28386 3.23645 3.33943 3.33129 3.43706C3.42613 3.53468 3.4799 3.66657 3.48106 3.80442V13.7055H9.22179Z" fill="#FF1F27"></path><path d="M11.8486 16.7948C11.7143 16.7936 11.5858 16.7384 11.4907 16.641C11.3955 16.5437 11.3414 16.412 11.3398 16.2741V3.80345C11.341 3.66533 11.395 3.53321 11.4901 3.43555C11.5853 3.33788 11.714 3.28249 11.8486 3.28129H14.3121C14.3786 3.28042 14.4446 3.29352 14.506 3.31977C14.5674 3.34603 14.6229 3.38489 14.6691 3.43397C14.7169 3.48181 14.7546 3.53908 14.7802 3.60232C14.8058 3.66556 14.8186 3.73346 14.8179 3.80192V16.2726C14.8164 16.4102 14.7624 16.5417 14.6676 16.639C14.5728 16.7363 14.4447 16.7916 14.3106 16.7932L11.8486 16.7948Z" fill="#FF1F27"></path><path d="M21.4421 16.7944C20.9522 16.7944 20.6199 16.5369 20.4454 16.0219L16.6073 3.96037C16.582 3.87029 16.5672 3.80769 16.5612 3.78632C16.5541 3.76153 16.5506 3.73581 16.5508 3.70998C16.5519 3.59737 16.596 3.48972 16.6736 3.41009C16.7512 3.33046 16.8561 3.2852 16.9658 3.28401H19.3386C19.5312 3.2654 19.7233 3.32455 19.8741 3.4489C19.9665 3.53472 20.0349 3.64438 20.072 3.76647L22.6857 12.2614L25.301 3.76647C25.3381 3.64438 25.4064 3.53472 25.4988 3.4489C25.6491 3.32351 25.8416 3.26424 26.0344 3.28401H28.4042C28.5138 3.28481 28.6188 3.33 28.6962 3.40975C28.7737 3.48951 28.8173 3.59739 28.8177 3.70998C28.8177 3.7357 28.8147 3.76132 28.8088 3.78632C28.8088 3.81227 28.7865 3.87029 28.7612 3.96037L24.9246 16.0219C24.7491 16.5369 24.4168 16.7944 23.9279 16.7944H21.4421Z" fill="#FF1F27"></path><path d="M39.971 13.7061C40.105 13.7076 40.2331 13.763 40.3279 13.8603C40.4227 13.9576 40.4767 14.0891 40.4782 14.2267V16.2741C40.4767 16.4117 40.4227 16.5432 40.3279 16.6405C40.2331 16.7378 40.105 16.7931 39.971 16.7947H31.0556C30.9216 16.7927 30.7935 16.7373 30.6985 16.6401C30.6036 16.543 30.5492 16.4117 30.5469 16.2741V3.80341C30.5488 3.66554 30.603 3.53387 30.698 3.43637C30.793 3.33887 30.9213 3.28322 31.0556 3.28125H39.8207C39.955 3.28284 40.0834 3.33842 40.1782 3.43604C40.2731 3.53366 40.3268 3.66555 40.328 3.80341V5.84928C40.3264 5.98687 40.2725 6.11837 40.1777 6.21567C40.0829 6.31296 39.9548 6.36832 39.8207 6.36991H34.0279V8.45548H39.4071C39.5425 8.45709 39.6717 8.51351 39.7667 8.61244C39.8617 8.71138 39.9148 8.84483 39.9144 8.98374V11.0235C39.9129 11.1611 39.8589 11.2926 39.7641 11.3899C39.6693 11.4872 39.5412 11.5426 39.4071 11.5441H34.0279V13.7061H39.971Z" fill="#FF1F27"></path><path d="M67.2938 16.6666C67.074 16.6666 66.8581 16.6059 66.669 16.4908C66.4798 16.3757 66.3243 16.2105 66.2188 16.0126C66.1132 15.8146 66.0615 15.5912 66.069 15.3656C66.0765 15.1401 66.1429 14.9208 66.2614 14.7307C67.1408 13.3117 67.6078 11.6649 67.6078 9.98319C67.6078 8.30152 67.1408 6.65468 66.2614 5.2357C66.1696 5.09638 66.1059 4.93961 66.0741 4.77463C66.0423 4.60965 66.043 4.43981 66.0762 4.27511C66.1094 4.11041 66.1743 3.9542 66.2673 3.81569C66.3602 3.67718 66.4792 3.55917 66.6173 3.46863C66.7554 3.37808 66.9098 3.31684 67.0713 3.28851C67.2328 3.26018 67.3983 3.26533 67.5578 3.30367C67.7174 3.342 67.8678 3.41274 68.0003 3.51171C68.1328 3.61068 68.2446 3.73588 68.3292 3.87992C69.46 5.70373 70.0607 7.82067 70.0607 9.98243C70.0607 12.1442 69.46 14.2611 68.3292 16.0849C68.2186 16.2638 68.0656 16.411 67.8845 16.5127C67.7035 16.6144 67.5002 16.6674 67.2938 16.6666Z" fill="#FF1F27"></path><path d="M71.2483 19.0108C71.0299 19.0104 70.8156 18.9501 70.6275 18.8363C70.4393 18.7225 70.2842 18.5592 70.1781 18.3633C70.072 18.1674 70.0187 17.946 70.0238 17.7219C70.0288 17.4979 70.0921 17.2792 70.207 17.0886C71.4907 14.953 72.1706 12.4931 72.1706 9.98379C72.1706 7.47447 71.4907 5.01457 70.207 2.87895C70.0576 2.59641 70.0191 2.26592 70.0994 1.9552C70.1797 1.64447 70.3727 1.37702 70.639 1.20762C70.9052 1.03822 71.2244 0.979703 71.5313 1.04405C71.8382 1.10839 72.1095 1.29073 72.2897 1.55372C73.8127 4.08773 74.6193 7.00644 74.6193 9.98379C74.6193 12.9611 73.8127 15.8798 72.2897 18.4139C72.1799 18.596 72.0266 18.7465 71.8444 18.8509C71.6622 18.9554 71.457 19.0104 71.2483 19.0108Z" fill="#FF1F27"></path><path d="M53.8908 16.6672C53.6835 16.6685 53.4792 16.6159 53.2971 16.5141C53.115 16.4124 52.9609 16.2649 52.8495 16.0855C51.7181 14.2619 51.1172 12.1449 51.1172 9.98298C51.1172 7.8211 51.7181 5.70408 52.8495 3.88048C53.0241 3.59804 53.3008 3.39835 53.6189 3.32534C53.9369 3.25233 54.2702 3.31197 54.5454 3.49115C54.8206 3.67033 55.0151 3.95437 55.0863 4.28078C55.1574 4.60719 55.0993 4.94924 54.9247 5.23167C54.0453 6.65065 53.5783 8.29749 53.5783 9.97917C53.5783 11.6608 54.0453 13.3077 54.9247 14.7267C55.0433 14.9169 55.1097 15.1363 55.1172 15.362C55.1246 15.5877 55.0728 15.8112 54.967 16.0092C54.8613 16.2072 54.7055 16.3724 54.5162 16.4873C54.3268 16.6023 54.1108 16.6628 53.8908 16.6626V16.6672Z" fill="#FF1F27"></path><path d="M49.935 19.0105C49.7263 19.0101 49.5211 18.955 49.3389 18.8506C49.1567 18.7461 49.0035 18.5957 48.8937 18.4135C47.3697 15.8799 46.5625 12.961 46.5625 9.98344C46.5625 7.00587 47.3697 4.08702 48.8937 1.55337C49.0697 1.28072 49.3423 1.08916 49.6536 1.01928C49.965 0.949408 50.2906 1.00672 50.5614 1.17907C50.8323 1.35142 51.0271 1.62525 51.1045 1.94252C51.182 2.25979 51.136 2.59554 50.9764 2.87861C49.6934 5.01452 49.0141 7.47431 49.0141 9.98344C49.0141 12.4926 49.6934 14.9524 50.9764 17.0883C51.0912 17.2789 51.1545 17.4975 51.1596 17.7216C51.1647 17.9457 51.1114 18.1671 51.0053 18.363C50.8991 18.5589 50.744 18.7222 50.5559 18.836C50.3677 18.9498 50.1534 19.01 49.935 19.0105Z" fill="#FF1F27"></path><path d="M60.5455 14.8495C63.1746 14.8495 65.3059 12.6621 65.3059 9.9638C65.3059 7.26551 63.1746 5.07812 60.5455 5.07812C57.9165 5.07812 55.7852 7.26551 55.7852 9.9638C55.7852 12.6621 57.9165 14.8495 60.5455 14.8495Z" fill="#FF1F27"></path></svg>