<svg xmlns="http://www.w3.org/2000/svg" width="92" height="22" viewBox="0 0 92 22" fill="none"><path d="M30.5409 11.7042C29.5808 15.7275 26.0147 19.065 21.2141 19.065C15.8192 19.065 11.7045 14.8131 11.7045 9.55536C11.6588 4.29763 15.7278 0.0457194 21.077 0.0457194C25.7861 0.0457194 29.6265 3.15464 30.4952 7.5437H25.1003C24.5059 6.30928 23.4544 5.02914 21.2598 5.02914C20.0254 4.98342 18.9282 5.44061 18.1966 6.26356C17.4651 7.08651 17.0537 8.27522 17.0537 9.55536C17.0537 12.1614 18.7453 14.0816 21.3056 14.0816C23.5001 14.0816 24.5974 12.8014 25.146 11.7042H30.5409ZM31.5924 9.50964C31.5924 5.1663 34.7014 0.0914389 41.1935 0.0914389C47.6857 0.0914389 50.7946 5.21201 50.7946 9.55536C50.7946 13.8987 47.6857 19.0193 41.1935 19.0193C34.7014 19.0193 31.5924 13.8987 31.5924 9.50964ZM36.9416 9.55536C36.9416 12.1156 38.9075 14.0359 41.1935 14.0359C43.5252 14.0359 45.4454 12.1614 45.4454 9.55536C45.4454 6.94935 43.4795 5.07486 41.1935 5.07486C38.9075 5.07486 36.9416 6.94935 36.9416 9.55536ZM52.2119 0.640072H57.1953V2.51457C57.1953 2.51457 57.5153 1.8745 58.2926 1.28014C59.0698 0.640072 60.3042 0.0457194 62.1787 0.0457194C63.4132 0.0457194 64.9219 0.365755 66.2478 1.73734C66.6135 2.10309 66.9793 2.60601 67.2993 3.20036C67.6651 2.65173 68.0765 2.10309 68.5794 1.6459C69.631 0.685791 71.094 0 72.9228 0C74.1572 0 76.1689 0.274316 77.5862 1.78306C79.2321 3.56612 79.5064 4.75482 79.5064 8.68669V18.4249H74.1572V9.00673C74.1572 8.27522 74.1572 7.31511 73.7915 6.49216C73.4714 5.66921 72.7856 5.02914 71.414 5.02914C69.951 5.02914 69.2195 5.71493 68.8538 6.49216C68.488 7.31511 68.488 8.18378 68.488 8.68669V18.4249H63.1846V8.77813C63.1846 8.27522 63.1846 7.36083 62.8645 6.5836C62.4988 5.76065 61.8587 5.07486 60.5328 5.07486C59.0241 5.07486 58.2926 5.76065 57.8811 6.62932C57.5153 7.49799 57.5153 8.45809 57.5153 9.00673V18.4706H52.1662V0.640072H52.2119Z" fill="#0061A3"></path><path d="M4.06903 13.7158C6.31629 13.7158 8.13806 11.8941 8.13806 9.64679C8.13806 7.39952 6.31629 5.57776 4.06903 5.57776C1.82177 5.57776 0 7.39952 0 9.64679C0 11.8941 1.82177 13.7158 4.06903 13.7158Z" fill="url(#paint0_linear_1531_4013)"></path><path d="M91.0274 21.5339V21.9454H90.936V21.5339H90.7988V21.4424H91.1646V21.5339H91.0274ZM91.6218 21.9454V21.5339L91.5303 21.9454H91.4389L91.3475 21.5339V21.9454H91.256V21.4424H91.4389L91.5303 21.8082L91.6218 21.4424H91.7589V21.9454H91.6218Z" fill="#707070"></path><defs><linearGradient id="paint0_linear_1531_4013" x1="4.07863" y1="5.58416" x2="4.07863" y2="13.7423" gradientUnits="userSpaceOnUse"><stop stop-color="#99D4F5"></stop><stop offset="1" stop-color="#00A1DE"></stop></linearGradient></defs></svg>