<svg xmlns="http://www.w3.org/2000/svg" width="156" height="44" viewBox="0 0 156 44" fill="none"><path d="M17.8323 2.28788C20.2844 0.872135 23.3056 0.872137 25.7578 2.28788L36.7074 8.60963C39.1595 10.0254 40.6701 12.6418 40.6701 15.4733V28.1168C40.6701 30.9483 39.1595 33.5647 36.7073 34.9804L25.7578 41.3022C23.3056 42.7179 20.2844 42.7179 17.8323 41.3022L6.88271 34.9804C4.43056 33.5647 2.91998 30.9483 2.91998 28.1168V15.4733C2.91998 12.6418 4.43057 10.0254 6.88271 8.60963L17.8323 2.28788Z" fill="url(#paint0_linear_1531_2931)"></path><path d="M24.8769 9.84454H24.1275V19.4445H20.7209V13.7171H13.9121V28.272C13.9121 31.7012 16.6303 34.491 19.9715 34.491H20.7209V25.463H24.1275V31.421H30.9363V16.0636C30.9363 12.6343 28.2181 9.84454 24.8769 9.84454ZM19.2221 32.8895C17.0623 32.522 15.4109 30.5909 15.4109 28.272V25.463H19.2221V32.8895ZM29.4375 29.8828H25.6263V23.9247H15.4109V15.2554H19.2221V20.9827H29.4375V29.8828ZM29.4375 19.4445H25.6263V11.446C27.7861 11.8135 29.4375 13.7441 29.4375 16.0636V19.4445Z" fill="white"></path><path d="M52.0292 13.994H56.5364V29.7693H52.0292V13.994ZM64.4241 24.1353H59.9168L57.6632 20.7549H64.4241V13.994H68.9313V29.7693H64.4241V24.1353ZM83.5799 18.5012C83.5799 17.75 83.2043 17.3744 82.4531 17.3744V13.994C86.2091 13.994 88.0871 15.4964 88.0871 18.5012V25.2621C88.0871 28.2669 86.2091 29.7693 82.4531 29.7693H77.9458V26.3889H82.4531C83.2043 26.3889 83.5799 26.0133 83.5799 25.2621V18.5012ZM75.6922 25.2621C75.6922 26.0133 76.0678 26.3889 76.819 26.3889V29.7693C73.063 29.7693 71.1849 28.2669 71.1849 25.2621V18.5012C71.1849 15.4964 73.063 13.994 76.819 13.994H81.3262V17.3744H76.819C76.0678 17.3744 75.6922 17.75 75.6922 18.5012V25.2621ZM95.9748 13.994H107.243V17.3744H95.9748C95.2236 17.3744 94.848 17.75 94.848 18.5012V19.628C94.848 20.3793 95.2236 20.7549 95.9748 20.7549H98.2284V24.1353H95.9748C92.2187 24.1353 90.3407 22.6329 90.3407 19.628V18.5012C90.3407 15.4964 92.2187 13.994 95.9748 13.994ZM101.609 29.7693H90.3407V26.3889H101.609C102.36 26.3889 102.736 26.0133 102.736 25.2621C102.736 24.5109 102.36 24.1353 101.609 24.1353H99.3552V20.7549H101.609C105.365 20.7549 107.243 22.2573 107.243 25.2621C107.243 28.2669 105.365 29.7693 101.609 29.7693ZM125.272 17.3744H109.497V13.994H125.272V17.3744ZM115.131 18.5012H119.638V29.7693H115.131V18.5012ZM127.255 13.994H131.762V29.7693H127.255V13.994ZM138.523 20.7323V29.7693H134.016V13.994H139.875L146.49 27.1101L144.157 31.6061L138.523 20.7323ZM154.299 13.994V29.7693H149.791V20.7323L147.177 25.7804L144.822 21.1154L148.439 13.994H154.299Z" fill="white"></path><defs><linearGradient id="paint0_linear_1531_2931" x1="-3.04455e-07" y1="3.18952" x2="46.1816" y2="7.59868" gradientUnits="userSpaceOnUse"><stop stop-color="#0082F8"></stop><stop offset="1" stop-color="#1C40F2"></stop></linearGradient></defs></svg>