<svg xmlns="http://www.w3.org/2000/svg" width="56" height="22" viewBox="0 0 56 22" fill="none"><path fill-rule="evenodd" clip-rule="evenodd" d="M2.79993 12.4103C1.25598 12.4103 0 13.6754 0 15.2308C0 16.786 1.25598 18.0513 2.79993 18.0513C4.34388 18.0513 5.6 16.786 5.6 15.2308C5.6 13.6754 4.34388 12.4103 2.79993 12.4103V12.4103Z" fill="white"></path><path fill-rule="evenodd" clip-rule="evenodd" d="M12.9547 10.3084C12.5398 10.223 12.1321 10.1854 11.7374 10.1538C10.4967 10.0539 10.2058 9.88985 10.0798 9.52839C10.0528 9.45088 10.0265 9.25397 10.1566 9.05025C10.3745 8.70889 10.9183 8.51632 11.6483 8.52196C12.3251 8.52732 12.9439 8.79843 13.5485 9.07643C14.3688 9.49898 15.3385 9.18775 15.7375 8.33166C16.0475 7.66704 15.958 6.68188 14.9655 6.06156C13.939 5.42004 12.8528 5.08622 11.6725 5.07713C9.13967 5.05733 7.931 6.35489 7.43612 7.12995C6.72866 8.23787 6.58313 9.66567 7.05611 10.8564C8.02297 13.2897 10.1802 13.4758 11.4692 13.5873C11.7883 13.6147 12.0896 13.6408 12.325 13.6892C12.9854 13.8251 12.97 14.3413 12.9602 14.4433C12.9167 14.8979 12.3961 15.1764 11.6016 15.1702C10.7407 15.1635 9.93207 14.7924 9.34149 14.1422C9.22618 14.0154 9.03823 14.0016 8.90749 14.1108L6.84295 15.8359C6.69915 15.9561 6.6779 16.1794 6.79945 16.3243C8.01256 17.7704 9.73535 18.6007 11.5773 18.6152C12.8533 18.6249 13.9694 18.252 14.805 17.5367C15.6145 16.8438 16.1171 15.8678 16.2206 14.7885C16.3164 13.7874 16.0593 12.7877 15.4965 11.9736C14.9028 11.115 14 10.5237 12.9547 10.3084V10.3084Z" fill="white"></path><path fill-rule="evenodd" clip-rule="evenodd" d="M26.2669 6.03431C24.8424 5.19251 23.1654 4.95719 21.5993 5.32715V1.89464C21.5993 0.84832 20.8293 0 19.8212 0C18.813 0 18.043 0.84832 18.043 1.89464V7.61911C17.5042 8.3052 17.1051 9.09438 16.8692 9.94026C16.5969 10.9156 17.1612 11.884 18.043 12.1705V17.7182C18.043 17.9022 18.1876 18.0513 18.3663 18.0513H21.2761C21.4547 18.0513 21.5993 17.9022 21.5993 17.7182V9.21874C22.3018 8.78886 23.1503 8.67086 23.9001 8.94505C25.0039 9.34883 25.0039 10.6296 25.0039 12.2578V17.7182C25.0039 17.9022 25.1486 18.0513 25.3272 18.0513H28.2371C28.4156 18.0513 28.5603 17.9022 28.5603 17.7182V11.3392C28.5603 7.19466 26.2669 6.03423 26.2669 6.03423V6.03431Z" fill="white"></path><path fill-rule="evenodd" clip-rule="evenodd" d="M36.3997 14.8784C34.7399 14.8784 33.3895 13.5181 33.3895 11.8461C33.3895 10.174 34.7399 8.81382 36.3997 8.81382C38.0596 8.81382 39.41 10.174 39.41 11.8461C39.41 13.5181 38.0596 14.8784 36.3997 14.8784V14.8784ZM36.3996 5.0769C32.6942 5.0769 29.6797 8.11342 29.6797 11.8461C29.6797 15.5785 32.6942 18.6153 36.3996 18.6153C40.1049 18.6153 43.1197 15.5785 43.1197 11.8461C43.1197 8.11342 40.1049 5.0769 36.3996 5.0769V5.0769Z" fill="white"></path><path fill-rule="evenodd" clip-rule="evenodd" d="M52.3835 12.3353C52.2901 13.7953 51.0961 14.9729 49.6276 15.055C49.0717 15.086 48.5473 14.9612 48.093 14.7216V10.8965C48.093 9.7659 48.7012 9.23577 49.4453 9.23211H49.4601C51.1386 9.23211 52.4919 10.643 52.3835 12.3353ZM55.9946 11.8896C55.8656 8.56492 53.1746 5.83831 49.8352 5.65161C48.8499 5.59653 47.9083 5.76014 47.0546 6.09762C45.4851 6.71824 44.483 8.10937 44.483 10.2664V11.8507C44.0755 11.9277 43.7122 12.1519 43.4574 12.4915C43.1346 12.9214 43.0374 13.4639 43.1907 13.9802C43.4486 14.8477 43.8943 15.6664 44.483 16.3555V21.6738C44.483 21.854 44.6299 22.0001 44.811 22.0001H47.7649C47.9461 22.0001 48.093 21.854 48.093 21.6738V18.5055C48.5426 18.6017 49.0008 18.6503 49.4601 18.6506C53.1514 18.6506 56.1383 15.5924 55.9946 11.8896V11.8896Z" fill="white"></path></svg>