<svg width="324" height="90" viewBox="0 0 324 90" fill="none" xmlns="http://www.w3.org/2000/svg">
<path d="M32.1602 2.29928C37.3857 -0.766425 43.8606 -0.766429 49.0861 2.29928L72.9848 16.3203C78.1025 19.3227 81.2463 24.8119 81.2463 30.7453V59.2547C81.2463 65.1881 78.1025 70.6773 72.9848 73.6797L49.0861 87.7007C43.8606 90.7664 37.3857 90.7664 32.1602 87.7007L8.26141 73.6797C3.14374 70.6773 0 65.1881 0 59.2547V30.7453C0 24.8119 3.14374 19.3227 8.26141 16.3203L32.1602 2.29928Z" fill="url(#paint0_linear_2788_133)"/>
<path d="M46.8114 18.9918H45.1985V39.9869H37.8669V27.4612H23.2129V59.2926C23.2129 66.7924 29.063 72.8936 36.254 72.8936H37.8669V53.1493H45.1985V66.1796H59.8525V32.5928C59.8525 25.0931 54.0024 18.9918 46.8114 18.9918ZM34.6412 69.3912C29.9927 68.5874 26.4386 64.3642 26.4386 59.2926V53.1493H34.6412V69.3912ZM56.6268 62.8154H48.4242V49.7851H26.4386V30.8254H34.6412V43.3511H56.6268V62.8154ZM56.6268 39.9869H48.4242V22.4942C53.0727 23.298 56.6268 27.5201 56.6268 32.5928V39.9869Z" fill="white"/>
<path d="M107.699 27.4326H117.21V60.7218H107.699V27.4326ZM133.855 48.8328H124.344L119.588 41.6994H133.855V27.4326H143.366V60.7218H133.855V48.8328Z" fill="#001042"/>
<path d="M174.278 36.9438C174.278 35.3586 173.485 34.566 171.9 34.566V27.4326C179.826 27.4326 183.789 30.603 183.789 36.9438V51.2106C183.789 57.5514 179.826 60.7218 171.9 60.7218H162.389V53.5884H171.9C173.485 53.5884 174.278 52.7958 174.278 51.2106V36.9438ZM157.633 51.2106C157.633 52.7958 158.426 53.5884 160.011 53.5884V60.7218C152.085 60.7218 148.122 57.5514 148.122 51.2106V36.9438C148.122 30.603 152.085 27.4326 160.011 27.4326H169.522V34.566H160.011C158.426 34.566 157.633 35.3586 157.633 36.9438V51.2106Z" fill="#001042"/>
<path d="M200.433 27.4326H224.211V34.566H200.433C198.848 34.566 198.056 35.3586 198.056 36.9438V39.3216C198.056 40.9068 198.848 41.6994 200.433 41.6994H205.189V48.8328H200.433C192.507 48.8328 188.544 45.6624 188.544 39.3216V36.9438C188.544 30.603 192.507 27.4326 200.433 27.4326ZM212.322 60.7218H188.544V53.5884H212.322C213.908 53.5884 214.7 52.7958 214.7 51.2106C214.7 49.6254 213.908 48.8328 212.322 48.8328H207.567V41.6994H212.322C220.248 41.6994 224.211 44.8698 224.211 51.2106C224.211 57.5514 220.248 60.7218 212.322 60.7218Z" fill="#001042"/>
<path d="M262.256 34.566H228.967V27.4326H262.256V34.566ZM240.856 36.9438H250.367V60.7218H240.856V36.9438Z" fill="#001042"/>
<path d="M266.441 27.4326H275.952V60.7218H266.441V27.4326Z" fill="#001042"/>
<path d="M290.219 41.6519V60.7218H280.708V27.4326H293.073L307.03 55.1102L302.108 64.5976L290.219 41.6519ZM323.508 27.4326V60.7218H313.997V41.6519L308.481 52.3044L303.511 42.4603L311.144 27.4326H323.508Z" fill="#001042"/>
<defs>
<linearGradient id="paint0_linear_2788_133" x1="-5.67465e-07" y1="6.58537" x2="86.2206" y2="14.0166" gradientUnits="userSpaceOnUse">
<stop stop-color="#0082F8"/>
<stop offset="1" stop-color="#1C40F2"/>
</linearGradient>
</defs>
</svg>
