<svg xmlns="http://www.w3.org/2000/svg" width="59" height="21" viewBox="0 0 59 21" fill="none"><path d="M2.41593 10.9005C2.41593 11.3073 2.52212 11.714 2.71682 12.0854L0.876107 10.2461C-0.292036 9.07883 -0.292036 7.18643 0.876107 6.01915L2.71682 4.17981C2.52212 4.53353 2.41593 4.94031 2.41593 5.36477V10.9005Z" fill="#F58420"></path><path d="M11.6543 3.13631C11.2826 2.94176 10.8755 2.83564 10.4685 2.83564H4.91094C4.50386 2.83564 4.09678 2.94176 3.7251 3.13631L5.58351 1.29696C6.75165 0.12969 8.64545 0.12969 9.8136 1.29696L11.6543 3.13631Z" fill="#F58420"></path><path d="M14.522 10.2284L12.6636 12.0854C12.8583 11.714 12.9645 11.3072 12.9645 10.9005V5.34707C12.9645 4.94029 12.8583 4.53352 12.6636 4.16211L14.522 6.01914C15.6901 7.16873 15.6901 9.06113 14.522 10.2284Z" fill="#F58420"></path><path d="M11.6547 13.0936L9.81396 14.9329C8.64582 16.1002 6.75202 16.1002 5.58387 14.9329L3.74316 13.0936C4.11485 13.2881 4.52193 13.3942 4.92901 13.3942H10.4865C10.8936 13.3942 11.3007 13.2881 11.6547 13.0936Z" fill="#F58420"></path><path d="M3.63635 6.86804L6.43281 4.07365C7.12308 3.3839 8.25582 3.3839 8.94609 4.07365L11.7426 6.86804C12.4328 7.55779 12.4328 8.68969 11.7426 9.37944L8.94609 12.1738C8.25582 12.8636 7.12308 12.8636 6.43281 12.1738L3.63635 9.37944C2.94609 8.672 2.94609 7.55779 3.63635 6.86804Z" fill="#F58420"></path><path d="M58.8578 13.2704V13.1819C58.8578 13.1996 58.8578 13.235 58.8578 13.2704ZM54.5923 13.2704C54.5923 13.235 54.5923 13.2173 54.5923 13.1819V13.2704Z" fill="#163B4F"></path><path d="M54.5925 0.571808V2.25198C53.4598 1.17313 51.973 0.571808 50.4155 0.571808C46.858 0.571808 43.9907 3.71991 43.9907 7.59314C43.9907 11.4664 46.858 14.6145 50.4155 14.6145C51.973 14.6145 53.4598 14.0132 54.5925 12.9343V13.1819C54.5925 13.2173 54.5925 13.235 54.5925 13.2703C54.6102 15.711 53.1943 16.7014 49.8491 16.6484C47.8668 16.33 47.2651 15.9232 45.9553 15.2512L44.2385 18.3462C47.0704 20.1679 50.3801 20.7161 54.2385 19.7434C57.1766 18.7884 58.7695 16.6837 58.858 13.2527C58.858 13.2173 58.858 13.1996 58.858 13.1642V0.571808H54.5925ZM51.5305 11.0773C49.7606 11.0773 48.3093 9.50323 48.3093 7.55777C48.3093 5.61231 49.7429 4.03826 51.5305 4.03826C52.9642 4.03826 54.1854 5.08173 54.5925 6.5143C54.7872 7.20405 54.7872 7.92917 54.5925 8.61893C54.1854 10.0515 52.9642 11.0773 51.5305 11.0773Z" fill="#163B4F"></path><path d="M33.4422 8.19448C33.4422 12.4214 30.0086 15.8525 25.7785 15.8525C21.5484 15.8525 18.1147 12.4214 18.1147 8.19448C18.1147 3.8791 21.5484 0.394958 25.7785 0.394958C30.0086 0.394958 33.4422 3.8791 33.4422 8.19448ZM25.7254 4.09133C24.0263 4.09133 22.6634 5.8953 22.6634 8.10605C22.6634 10.3168 24.044 12.1208 25.7254 12.1208C27.4068 12.1208 28.7873 10.3168 28.7873 8.10605C28.7873 5.8953 27.4245 4.09133 25.7254 4.09133Z" fill="#163B4F"></path><path d="M43.7072 0.801755L42.9993 5.08177C42.6807 4.94028 42.3798 4.81648 41.3532 4.90491C39.8134 5.20557 39.0877 6.24904 38.8577 7.71698V15.3396H34.6099V0.837128H38.8754V2.32275C39.8842 0.890186 41.4594 0.25349 43.7072 0.801755Z" fill="#163B4F"></path></svg>