<svg width="161" height="46" viewBox="0 0 161 46" fill="none" xmlns="http://www.w3.org/2000/svg">
<path d="M18.3759 2.32745C20.8428 0.889125 23.8928 0.889124 26.3597 2.32745L37.8053 9.0007C40.241 10.4208 41.7389 13.028 41.7389 15.8474V29.3291C41.7389 32.1485 40.241 34.7557 37.8053 36.1758L26.3597 42.849C23.8928 44.2873 20.8428 44.2873 18.3759 42.849L6.93027 36.1758C4.49458 34.7557 2.99672 32.1485 2.99672 29.3291V15.8474C2.99672 13.028 4.49458 10.4208 6.93027 9.0007L18.3759 2.32745Z" fill="url(#paint0_linear_2788_123)"/>
<path d="M25.5302 10.2029H24.7611V20.1522H21.2651V14.2164H14.2773V29.3009C14.2773 32.855 17.0669 35.7463 20.496 35.7463H21.2651V26.3897H24.7611V32.5646H31.7489V16.6482C31.7489 13.0942 28.9593 10.2029 25.5302 10.2029ZM19.7269 34.0866C17.5103 33.7056 15.8155 31.7043 15.8155 29.3009V26.3897H19.7269V34.0866ZM30.2107 30.9704H26.2993V24.7955H15.8155V15.8107H19.7269V21.7464H30.2107V30.9704ZM30.2107 20.1522H26.2993V11.8626C28.516 12.2435 30.2107 14.2443 30.2107 16.6482V20.1522Z" fill="white"/>
<path d="M54.367 14.204H58.8743V29.9794H54.367V14.204ZM66.762 24.3453H62.2547L60.0011 20.9649H66.762V14.204H71.2692V29.9794H66.762V24.3453ZM85.9178 18.7113C85.9178 17.9601 85.5421 17.5844 84.7909 17.5844V14.204C88.547 14.204 90.425 15.7064 90.425 18.7113V25.4721C90.425 28.477 88.547 29.9794 84.7909 29.9794H80.2837V26.5989H84.7909C85.5421 26.5989 85.9178 26.2233 85.9178 25.4721V18.7113ZM78.0301 25.4721C78.0301 26.2233 78.4057 26.5989 79.1569 26.5989V29.9794C75.4009 29.9794 73.5228 28.477 73.5228 25.4721V18.7113C73.5228 15.7064 75.4009 14.204 79.1569 14.204H83.6641V17.5844H79.1569C78.4057 17.5844 78.0301 17.9601 78.0301 18.7113V25.4721ZM98.3127 14.204H109.581V17.5844H98.3127C97.5615 17.5844 97.1859 17.9601 97.1859 18.7113V19.8381C97.1859 20.5893 97.5615 20.9649 98.3127 20.9649H100.566V24.3453H98.3127C94.5566 24.3453 92.6786 22.8429 92.6786 19.8381V18.7113C92.6786 15.7064 94.5566 14.204 98.3127 14.204ZM103.947 29.9794H92.6786V26.5989H103.947C104.698 26.5989 105.074 26.2233 105.074 25.4721C105.074 24.7209 104.698 24.3453 103.947 24.3453H101.693V20.9649H103.947C107.703 20.9649 109.581 22.4673 109.581 25.4721C109.581 28.477 107.703 29.9794 103.947 29.9794ZM127.61 17.5844H111.834V14.204H127.61V17.5844ZM117.468 18.7113H121.976V29.9794H117.468V18.7113ZM129.593 14.204H134.1V29.9794H129.593V14.204ZM140.861 20.9423V29.9794H136.354V14.204H142.213L148.828 27.3201L146.495 31.8161L140.861 20.9423ZM156.636 14.204V29.9794H152.129V20.9423L149.515 25.9905L147.16 21.3255L150.777 14.204H156.636Z" fill="white"/>
<defs>
<linearGradient id="paint0_linear_2788_123" x1="-3.12456e-07" y1="3.3056" x2="47.4035" y2="7.78725" gradientUnits="userSpaceOnUse">
<stop stop-color="#0082F8"/>
<stop offset="1" stop-color="#1C40F2"/>
</linearGradient>
</defs>
</svg>
