<svg xmlns="http://www.w3.org/2000/svg" width="44" height="24" viewBox="0 0 44 24" fill="none"><path fill-rule="evenodd" clip-rule="evenodd" d="M7.99189 19.4353C7.62157 19.643 7.20247 19.7482 6.77793 19.7397C6.42141 19.7437 6.06824 19.6707 5.74253 19.5256C5.4306 19.3857 5.15053 19.1836 4.91947 18.9316C4.68303 18.6736 4.49702 18.3736 4.37106 18.0471C4.23642 17.7014 4.16882 17.3332 4.17188 16.9622V16.9345C4.16871 16.5641 4.23385 16.1963 4.36404 15.8495C4.48428 15.5253 4.66602 15.2274 4.89929 14.9721C5.12658 14.724 5.4016 14.5243 5.70787 14.3851C6.02215 14.241 6.36421 14.1676 6.70992 14.1701C7.14147 14.1558 7.56797 14.2663 7.93837 14.4882C8.27623 14.7035 8.58703 14.9586 8.86409 15.248L9.56386 14.5022C9.39675 14.3246 9.21794 14.1584 9.02861 14.0047C8.62544 13.6747 8.15115 13.4428 7.6431 13.3273C7.34077 13.2595 7.03158 13.2271 6.72177 13.2308C6.22357 13.2255 5.72997 13.3266 5.27396 13.5273C4.84121 13.7187 4.45034 13.9932 4.12362 14.3355C3.79672 14.6799 3.53839 15.0834 3.36242 15.5244C3.17853 15.9812 3.08539 16.4694 3.08821 16.9617V16.9894C3.08622 17.4771 3.17936 17.9605 3.36242 18.4126C3.71335 19.3004 4.40135 20.0134 5.27616 20.3956C5.7321 20.5967 6.2257 20.6981 6.72396 20.6931C7.30821 20.7126 7.88744 20.5792 8.4043 20.3061C8.86157 20.0444 9.27188 19.7081 9.61826 19.3111L8.94613 18.675C8.66846 18.975 8.34705 19.2313 7.99277 19.4353H7.99189ZM16.3931 16.9898C16.3957 17.3533 16.3305 17.7141 16.201 18.0537C16.0795 18.3755 15.8978 18.6712 15.6657 18.925C15.4343 19.1764 15.1545 19.3784 14.8431 19.5191C14.5115 19.6684 14.1512 19.7432 13.7875 19.7384C13.428 19.7423 13.0721 19.6674 12.7446 19.5191C12.4319 19.3774 12.1502 19.1755 11.9154 18.925C11.678 18.6703 11.4915 18.3725 11.3662 18.0476C11.2319 17.7017 11.1644 17.3336 11.1674 16.9626V16.935C11.1651 16.5693 11.2302 16.2064 11.3596 15.8645C11.4785 15.5415 11.6571 15.2439 11.8861 14.987C12.1142 14.7346 12.392 14.532 12.7021 14.3921C13.0341 14.243 13.3946 14.1681 13.7585 14.1727C14.118 14.1693 14.4738 14.2441 14.8014 14.3921C15.1166 14.5363 15.4008 14.7404 15.6381 14.9931C15.8779 15.2499 16.0664 15.5501 16.1935 15.8776C16.3279 16.2234 16.3955 16.5916 16.3927 16.9626V16.9902L16.3931 16.9898ZM16.4339 14.3298C16.0988 13.9892 15.7006 13.717 15.2616 13.5282C14.5717 13.2277 13.8067 13.144 13.0682 13.2883C12.3296 13.4325 11.6523 13.7979 11.1262 14.3359C10.7957 14.6788 10.5349 15.0826 10.3584 15.5249C10.1741 15.9814 10.0808 16.4694 10.0838 16.9617V16.9894C10.0805 17.4795 10.1736 17.9655 10.358 18.4196C10.5348 18.8574 10.7957 19.2564 11.1257 19.5941C11.4594 19.9336 11.8553 20.2058 12.2919 20.3956C12.7548 20.597 13.2551 20.6983 13.7599 20.6931C14.269 20.6975 14.7735 20.5962 15.2415 20.3956C15.6848 20.2077 16.0861 19.9329 16.4216 19.5875C16.7526 19.2436 17.0155 18.8402 17.1964 18.3986C17.3846 17.943 17.48 17.4546 17.4772 16.9617V16.9341C17.4804 16.444 17.3873 15.958 17.203 15.5038C17.0259 15.0661 16.7651 14.6672 16.4352 14.3293L16.4339 14.3298ZM1.18194 18.1805C0.949378 18.1789 0.721573 18.2463 0.527434 18.3744C0.333295 18.5024 0.181576 18.6853 0.0915333 18.8997C0.00149097 19.1141 -0.0228147 19.3505 0.0217012 19.5787C0.0662172 19.807 0.177547 20.0169 0.341562 20.1818C0.505576 20.3466 0.714879 20.4591 0.942905 20.5048C1.17093 20.5505 1.4074 20.5274 1.62229 20.4385C1.83719 20.3496 2.02082 20.1988 2.14989 20.0054C2.27895 19.8119 2.34763 19.5845 2.3472 19.3519C2.34778 19.0421 2.2254 18.7448 2.00692 18.5251C1.78844 18.3055 1.49173 18.1815 1.18194 18.1805V18.1805ZM20.0754 18.1805C19.8429 18.1791 19.6152 18.2468 19.4212 18.375C19.2273 18.5032 19.0757 18.6862 18.9859 18.9006C18.8961 19.1151 18.8719 19.3514 18.9166 19.5795C18.9613 19.8077 19.0727 20.0175 19.2368 20.1822C19.4009 20.347 19.6102 20.4593 19.8382 20.5049C20.0661 20.5505 20.3025 20.5274 20.5174 20.4384C20.7322 20.3494 20.9157 20.1987 21.0447 20.0053C21.1737 19.8118 21.2424 19.5844 21.242 19.3519C21.2425 19.042 21.12 18.7445 20.9014 18.5248C20.6827 18.3052 20.3858 18.1813 20.0758 18.1805H20.0754ZM35.1198 20.5277L33.1995 17.5005L32.4725 18.2748V20.5277H30.3873V10.4391H32.4725V15.8149L34.9141 13.122H37.4113L34.6131 16.0378L37.5065 20.5277H35.1198ZM31.961 0.00394857C29.7921 0.0236031 27.6717 0.647762 25.8381 1.80628C24.0045 2.96479 22.5303 4.61175 21.5812 6.56204C20.6322 8.51233 20.2459 10.6887 20.4657 12.8464C20.6856 15.0042 21.5029 17.0579 22.8258 18.7767C22.6514 18.3034 22.5666 17.8017 22.5757 17.2973V13.1439H24.6496V16.8358C24.6496 18.0204 24.8514 18.5885 25.8122 18.5885C26.7335 18.5885 27.0086 17.9962 27.0086 16.8437V13.1439H29.05V17.3C29.05 19.5015 27.7865 20.5273 25.7916 20.5273C25.208 20.5413 24.6289 20.4212 24.099 20.1763C26.2277 22.1769 29.0397 23.2895 31.961 23.2869C35.0315 23.2602 37.9672 22.0218 40.129 19.8411C42.2909 17.6604 43.5038 14.7141 43.5038 11.6434C43.5038 8.5728 42.2909 5.62646 40.129 3.44579C37.9672 1.26511 35.0315 0.0266556 31.961 0V0.00394857Z" fill="white"></path></svg>