<svg xmlns="http://www.w3.org/2000/svg" width="80" height="21" viewBox="0 0 80 21" fill="none"><path d="M21.6061 10.9862C21.6061 9.21027 21.5708 7.71295 21.4824 6.42455H25.3868L25.5988 8.37456H25.6871C26.6941 6.92947 28.3724 6.09375 30.1391 6.09375C33.0894 6.09375 35.3154 7.99152 35.3154 12.2223V20.6665H30.8104V12.7969C30.8104 10.9688 30.1744 9.73259 28.5491 9.73259C27.5068 9.73259 26.5704 10.3942 26.2878 11.3866C26.1641 11.7174 26.1111 12.083 26.1111 12.4661V20.6665H21.6061V10.9862V10.9862Z" fill="white"></path><path d="M37.4531 0H41.9581V20.6317H37.4531V0Z" fill="white"></path><path d="M48.7245 2.48971C48.7245 3.69105 47.8058 4.68346 46.2865 4.68346C45.0675 4.77051 44.0251 3.84774 43.9721 2.6464C43.9721 2.55935 43.9721 2.52453 43.9721 2.43747C43.9368 1.14908 44.8908 0.2089 46.3218 0.2089C47.5408 0.121846 48.6361 1.07944 48.7245 2.28078C48.7245 2.36783 48.7245 2.43747 48.7245 2.48971ZM44.0958 20.6665V6.40712H48.6008V20.6143L44.0958 20.6665Z" fill="white"></path><path d="M50.6857 10.9862C50.6857 9.21027 50.6503 7.71295 50.562 6.42455H54.4663L54.6783 8.37456H54.7667C55.7737 6.92947 57.452 6.09375 59.2187 6.09375C62.169 6.09375 64.395 7.99152 64.395 12.2223V20.6665H59.89V12.7969C59.89 10.9688 59.254 9.73259 57.6287 9.73259C56.5863 9.73259 55.65 10.3942 55.3673 11.3866C55.2437 11.7522 55.1907 12.1353 55.1907 12.5009V20.7188H50.6857V10.9862Z" fill="white"></path><path d="M69.9421 14.9558C70.1188 16.7839 71.9208 17.6545 74.0232 17.6545C75.3658 17.6545 76.7085 17.4803 78.0158 17.0799L78.5988 20.0571C76.9205 20.6839 75.1538 20.9625 73.3872 20.9277C68.4758 20.9277 65.7021 18.1594 65.7021 13.6848C65.7021 10.0808 67.9635 6.11115 72.9808 6.11115C77.6448 6.11115 79.4115 9.68034 79.4115 13.1973C79.4115 13.7719 79.3762 14.3638 79.2348 14.9384L69.9421 14.9558ZM75.2422 11.9263C75.2422 10.8469 74.7828 9.01874 72.7158 9.01874C70.8255 9.01874 70.0658 10.725 69.9421 11.9263H75.2422Z" fill="white"></path><path d="M12.9496 6.09375C8.32098 6.09375 5.26465 9.03616 5.26465 13.6326C5.26465 13.7545 5.26465 13.8763 5.26465 13.9982C6.66031 14.8339 7.49065 16.3138 7.49065 17.933C7.49065 18.2987 7.45531 18.6817 7.36698 19.0125C8.83331 20.3357 10.7236 21.0496 12.7023 20.9973C16.5713 20.9973 20.3166 18.5946 20.3166 13.4237C20.299 9.1058 17.3663 6.09375 12.9496 6.09375ZM12.826 17.8112C10.9003 17.8112 9.87565 15.983 9.87565 13.5455C9.87565 11.4737 10.6706 9.27991 12.826 9.27991C14.84 9.27991 15.688 11.4388 15.688 13.5455C15.6703 16.0701 14.575 17.8112 12.826 17.8112Z" fill="white"></path><path d="M3.10934 20.8754C4.82658 20.8754 6.21867 19.5035 6.21867 17.8111C6.21867 16.1188 4.82658 14.7469 3.10934 14.7469C1.3921 14.7469 0 16.1188 0 17.8111C0 19.5035 1.3921 20.8754 3.10934 20.8754Z" fill="white"></path></svg>