<svg xmlns="http://www.w3.org/2000/svg" width="852" height="239" viewBox="0 0 852 239" fill="none"><path d="M97.7399 12.54C111.18 4.78023 127.74 4.78023 141.18 12.54L201.195 47.1899C214.636 54.9497 222.915 69.2904 222.915 84.81V154.11C222.915 169.629 214.636 183.97 201.195 191.73L141.18 226.38C127.74 234.14 111.18 234.14 97.7399 226.38L37.7246 191.73C24.2842 183.97 16.0046 169.629 16.0046 154.11V84.81C16.0046 69.2904 24.2842 54.9497 37.7246 47.1899L97.7399 12.54Z" fill="url(#paint0_linear_236_5408)"></path><path d="M133.381 53.9584H129.279V106.576H110.637V75.1844H73.3761V154.96C73.3761 173.756 88.2512 189.047 106.536 189.047H110.637V139.564H129.279V172.22H166.541V88.0452C166.541 69.2493 151.665 53.9584 133.381 53.9584ZM102.435 180.269C90.6152 178.255 81.5782 167.67 81.5782 154.96V139.564H102.435V180.269ZM158.339 163.789H137.482V131.133H81.5782V83.6157H102.435V115.008H158.339V163.789ZM158.339 106.576H137.482V62.7361C149.301 64.7506 158.339 75.3319 158.339 88.0452V106.576Z" fill="white"></path><path d="M285.176 74.5343H309.881V161H285.176V74.5343ZM353.113 130.119H328.409L316.057 111.591H353.113V74.5343H377.818V161H353.113V130.119ZM458.108 99.2388C458.108 95.1214 456.049 93.0627 451.931 93.0627V74.5343C472.518 74.5343 482.812 82.7691 482.812 99.2388V136.296C482.812 152.765 472.518 161 451.931 161H427.227V142.472H451.931C456.049 142.472 458.108 140.413 458.108 136.296V99.2388ZM414.875 136.296C414.875 140.413 416.933 142.472 421.051 142.472V161C400.464 161 390.17 152.765 390.17 136.296V99.2388C390.17 82.7691 400.464 74.5343 421.051 74.5343H445.755V93.0627H421.051C416.933 93.0627 414.875 95.1214 414.875 99.2388V136.296ZM526.045 74.5343H587.806V93.0627H526.045C521.927 93.0627 519.869 95.1214 519.869 99.2388V105.415C519.869 109.532 521.927 111.591 526.045 111.591H538.397V130.119H526.045C505.458 130.119 495.164 121.885 495.164 105.415V99.2388C495.164 82.7691 505.458 74.5343 526.045 74.5343ZM556.925 161H495.164V142.472H556.925C561.043 142.472 563.102 140.413 563.102 136.296C563.102 132.178 561.043 130.119 556.925 130.119H544.573V111.591H556.925C577.513 111.591 587.806 119.826 587.806 136.296C587.806 152.765 577.513 161 556.925 161ZM686.624 93.0627H600.158V74.5343H686.624V93.0627ZM631.039 99.2388H655.743V161H631.039V99.2388ZM697.494 74.5343H722.198V161H697.494V74.5343ZM759.255 111.468V161H734.551V74.5343H766.667L802.92 146.424L790.136 171.067L759.255 111.468ZM845.721 74.5343V161H821.016V111.468L806.688 139.137L793.78 113.567L813.605 74.5343H845.721Z" fill="#001042"></path><defs><linearGradient id="paint0_linear_236_5408" x1="-1.66874e-06" y1="17.482" x2="253.124" y2="41.6488" gradientUnits="userSpaceOnUse"><stop stop-color="#0082F8"></stop><stop offset="1" stop-color="#00C0FD"></stop></linearGradient></defs></svg>