<svg xmlns="http://www.w3.org/2000/svg" width="46" height="56" viewBox="0 0 46 56" fill="none"><path opacity="0.1" fill-rule="evenodd" clip-rule="evenodd" d="M33.3025 36.6064L32.8931 36.8452L33.294 36.6064C27.7157 36.7684 21.3016 36.504 14.3672 29.8511C-7.29751 44.1037 2.22984 54.5267 2.22984 54.5267L2.69043 54.2623L2.23837 54.5267C2.23837 54.5267 20.3207 60.0452 45.0304 47.524C33.5157 43.5408 33.0295 39.822 33.3025 36.6064Z" fill="url(#paint0_linear_2155_895)"></path><path fill-rule="evenodd" clip-rule="evenodd" d="M2.44318 39.0031C1.51348 38.7558 0.0634766 32.6572 0.0634766 32.6572C0.0634766 32.6572 0.0634766 39.3869 0.0634766 41.1866C0.0634766 45.0505 1.69259 47.0208 1.69259 47.0208C2.29936 44.6756 2.71581 42.2853 2.93789 39.8731L2.44318 39.0031Z" fill="url(#paint1_linear_2155_895)"></path><path fill-rule="evenodd" clip-rule="evenodd" d="M33.2687 26.3625C27.6734 26.5245 21.2764 26.2942 14.3334 19.6072C7.56108 24.051 3.44137 34.1072 3.44137 34.1072C3.44137 34.1072 1.67578 37.3825 1.67578 39.1736C1.67578 43.0716 1.67578 47.0292 1.67578 47.0292C1.67578 47.0292 20.3381 52.6075 45.0478 40.0863C45.0478 37.9198 44.9967 32.2392 44.9967 32.2392C44.9967 32.2392 33.047 28.9042 33.2687 26.3625Z" fill="url(#paint2_linear_2155_895)"></path><path fill-rule="evenodd" clip-rule="evenodd" d="M32.8675 21.4666L32.458 21.6969L32.8504 21.4666C27.3319 21.6201 20.986 21.3557 14.0857 14.771C-6.73461 28.7507 1.68392 39.0884 1.68392 39.0884C1.68392 39.0884 20.4998 44.7689 44.9622 32.3757C33.5583 28.4607 32.586 24.6481 32.8675 21.4666Z" fill="url(#paint3_linear_2155_895)"></path><path fill-rule="evenodd" clip-rule="evenodd" d="M2.46896 24.3751C1.53926 24.1363 0.0892575 19.0784 0.0892575 19.0784C0.0892575 19.0784 0.0892575 24.759 0.0892575 26.5672C0.00550048 28.674 0.56478 30.7564 1.69279 32.5378C2.29996 30.1465 2.71637 27.7108 2.93808 25.2537L2.46896 24.3751Z" fill="url(#paint4_linear_2155_895)"></path><path fill-rule="evenodd" clip-rule="evenodd" d="M33.2687 11.726C27.6734 11.8795 21.2764 11.6236 14.3334 4.9707C7.56108 9.42306 3.44137 19.4707 3.44137 19.4707C3.44137 19.4707 1.67578 22.7972 1.67578 24.5884C1.67578 28.4948 1.67578 32.4525 1.67578 32.4525C1.67578 32.4525 20.3296 37.9625 45.0393 25.4413C45.0393 23.2748 44.9881 17.5942 44.9881 17.5942C44.9881 17.5942 33.047 14.2592 33.2687 11.726Z" fill="url(#paint5_linear_2155_895)"></path><path fill-rule="evenodd" clip-rule="evenodd" d="M33.4044 7.09451L33.0035 7.32481L33.3959 7.09451C27.8688 7.24804 21.5315 6.99216 14.6312 0.398926C-6.68382 15.1377 1.70912 24.648 1.70912 24.648C1.70912 24.648 20.5847 30.2945 45.0385 17.9013C33.6432 13.9522 33.1315 10.276 33.4044 7.09451Z" fill="url(#paint6_linear_2155_895)"></path><path d="M14.137 11.8369L13.3779 16.1016L24.1079 15.4193" stroke="url(#paint7_linear_2155_895)" stroke-width="2" stroke-linecap="round" stroke-linejoin="round"></path><defs><linearGradient id="paint0_linear_2155_895" x1="25.3104" y1="42.2273" x2="-2.74281" y2="69.112" gradientUnits="userSpaceOnUse"><stop></stop><stop offset="1"></stop></linearGradient><linearGradient id="paint1_linear_2155_895" x1="0.048998" y1="39.8399" x2="2.91254" y2="39.8399" gradientUnits="userSpaceOnUse"><stop stop-color="#1C40F2"></stop><stop offset="0.9833" stop-color="#03F8FB"></stop></linearGradient><linearGradient id="paint2_linear_2155_895" x1="45.0478" y1="42.196" x2="-0.420936" y2="30.9271" gradientUnits="userSpaceOnUse"><stop stop-color="#001DAC"></stop><stop offset="1" stop-color="#000F57"></stop></linearGradient><linearGradient id="paint3_linear_2155_895" x1="-0.225496" y1="27.581" x2="44.5657" y2="27.581" gradientUnits="userSpaceOnUse"><stop stop-color="#1C40F2"></stop><stop offset="0.9833" stop-color="#03F8FB"></stop></linearGradient><linearGradient id="paint4_linear_2155_895" x1="1.65014" y1="25.9701" x2="-2.83633" y2="25.0404" gradientUnits="userSpaceOnUse"><stop stop-color="#989AAD"></stop><stop offset="1" stop-color="#98A0B7"></stop></linearGradient><linearGradient id="paint5_linear_2155_895" x1="38.3096" y1="16.2466" x2="-45.108" y2="27.5054" gradientUnits="userSpaceOnUse"><stop offset="0.13" stop-color="#E7E9E9"></stop><stop offset="0.49" stop-color="#BBBECA"></stop><stop offset="0.99" stop-color="#8285A1"></stop></linearGradient><linearGradient id="paint6_linear_2155_895" x1="44.45" y1="7.40157" x2="-4.38088" y2="17.7307" gradientUnits="userSpaceOnUse"><stop offset="0.29" stop-color="#CDD3DB"></stop><stop offset="0.57" stop-color="#C3C8D3"></stop><stop offset="1" stop-color="#ACB0C2"></stop></linearGradient><linearGradient id="paint7_linear_2155_895" x1="13.3779" y1="12.149" x2="24.2236" y2="14.7543" gradientUnits="userSpaceOnUse"><stop stop-color="#0082F8"></stop><stop offset="1" stop-color="#1C40F2"></stop></linearGradient></defs></svg>