<svg xmlns="http://www.w3.org/2000/svg" width="92" height="92" viewBox="0 0 92 92" fill="none"><path d="M50.4167 81.4493L0 59.4493V64.9493L45.8333 91.6993L50.4167 81.4493Z" fill="url(#paint0_linear_2388_515)"></path><path d="M91.5825 64.9493V59.366L45.8325 77.1993V91.6993L91.5825 64.9493Z" fill="url(#paint1_linear_2388_515)"></path><path d="M0 59.4493L45.8333 86.116L91.5833 59.366L45.8333 32.616L0 59.4493Z" fill="url(#paint2_linear_2388_515)"></path><path opacity="0.3" fill-rule="evenodd" clip-rule="evenodd" d="M65.7483 58.7327L65.4233 58.916L43.4317 71.5827C37.7983 74.8327 28.665 74.841 23.04 71.5827C18.5067 68.9743 17.6233 65.0577 20.3817 61.9243C14.8067 58.2577 15.0567 52.666 21.1317 49.1577C25.39 46.6577 31.4233 45.891 36.8567 46.7327C37.8238 45.6322 38.9741 44.7074 40.2567 43.9993C47.2983 39.9327 58.7067 39.9327 65.7567 43.9993C72.8067 48.066 72.79 54.641 65.7483 58.7327Z" fill="url(#paint3_linear_2388_515)"></path><path fill-rule="evenodd" clip-rule="evenodd" d="M66.274 48.5409L65.9407 48.7242L43.9074 61.4242C38.274 64.6909 29.1407 64.6909 23.5073 61.4242C20.8323 59.8825 19.424 57.8826 19.299 55.8326C19.2573 54.4076 19.299 51.5659 19.299 50.5159C18.6051 49.9345 18.0334 49.2212 17.6171 48.4173C17.2008 47.6133 16.9483 46.7348 16.874 45.8326C16.7657 43.3326 16.824 37.1575 16.874 33.9825C21.1323 31.4825 31.874 35.6992 37.3323 36.5492C38.3087 35.4551 39.4606 34.5313 40.7407 33.8159C47.7824 29.7492 64.474 25.4826 71.5074 29.5576C71.6074 35.8659 71.5907 38.7242 71.5074 41.4742C71.3574 44.0742 69.599 46.5992 66.274 48.5409Z" fill="url(#paint4_linear_2388_515)"></path><path fill-rule="evenodd" clip-rule="evenodd" d="M66.2159 37.166L65.8909 37.3493L43.8992 50.0493C38.2659 53.3326 29.1659 53.3326 23.5075 50.0493C18.9742 47.441 18.0909 43.5243 20.8492 40.391C15.2742 36.716 15.5242 31.1326 21.5992 27.616C25.8575 25.166 31.8992 24.3576 37.3159 25.1993C38.291 24.1129 39.4435 23.2 40.7242 22.4993C47.7659 18.4326 59.1742 18.4243 66.2242 22.4993C73.2742 26.5743 73.2575 33.0993 66.2159 37.166Z" fill="url(#paint5_linear_2388_515)"></path><path fill-rule="evenodd" clip-rule="evenodd" d="M66.274 28.9159L65.9407 29.0992L43.9074 41.7992C38.274 45.0492 29.1407 45.0576 23.5073 41.7992C20.824 40.2492 19.424 38.2576 19.299 36.2242C19.2573 34.8076 19.299 31.9576 19.299 30.9159C17.9068 29.734 17.0356 28.0517 16.874 26.2326C16.7657 23.7326 16.824 17.5576 16.874 14.3742C21.1323 11.8742 31.874 16.0992 37.3323 16.9492C38.3042 15.8504 39.457 14.9259 40.7407 14.2159C47.7824 10.1409 64.474 5.88257 71.5074 9.95757C71.6074 16.2659 71.5907 19.1242 71.5074 21.8742C71.3574 24.4409 69.599 26.9742 66.274 28.9159Z" fill="url(#paint6_linear_2388_515)"></path><path fill-rule="evenodd" clip-rule="evenodd" d="M66.2742 17.9826L65.9409 18.1659L43.9075 30.8326C38.2742 34.1159 29.1659 34.1159 23.5075 30.8326C18.9825 28.2159 18.0992 24.2993 20.8492 21.1743C15.2742 17.4993 15.5242 11.9076 21.5992 8.39925C25.8325 5.92425 31.8992 5.15758 37.3242 5.99925C38.3006 4.90514 39.4525 3.98138 40.7325 3.26592C47.7742 -0.834082 59.1659 -0.834082 66.2325 3.26592C73.2992 7.36592 73.2742 13.9076 66.2742 17.9826Z" fill="url(#paint7_linear_2388_515)"></path><path fill-rule="evenodd" clip-rule="evenodd" d="M78.1816 51.6659C79.8247 47.9573 80.725 43.9625 80.8316 39.9076C80.8316 37.5826 83.8899 33.6326 82.3316 32.7576C80.4732 31.7076 76.2732 29.4243 75.1482 29.0076C72.4732 27.9909 69.0482 28.4576 65.3232 30.6743C56.7649 35.7743 49.8232 48.1743 49.8232 58.3743C49.8232 62.0909 50.7399 64.9909 52.3232 66.9409L58.0149 70.0409L78.1816 51.6659Z" fill="url(#paint8_linear_2388_515)"></path><path fill-rule="evenodd" clip-rule="evenodd" d="M83.9252 54.7825C85.5564 51.0542 86.4425 47.0428 86.5335 42.9742C86.5335 32.7492 79.5752 28.6075 70.9919 33.7242C62.4085 38.8409 55.4502 51.2659 55.4502 61.4825C55.4502 65.2075 56.3752 68.1492 57.9502 70.0742L83.9252 54.7825Z" fill="url(#paint9_linear_2388_515)"></path><path d="M82.0248 47.7743C82.0839 47.243 82.1145 46.7089 82.1165 46.1743C82.1165 39.3076 77.4415 36.5243 71.6748 39.9576C65.9082 43.391 61.2332 51.741 61.2332 58.6076C61.2335 59.0224 61.2557 59.4369 61.2998 59.8493" stroke="white" stroke-width="2.34" stroke-linecap="round" stroke-linejoin="round"></path><path d="M72.2245 52.3159L64.9995 56.1909" stroke="white" stroke-width="1.46" stroke-linecap="round" stroke-linejoin="round"></path><path fill-rule="evenodd" clip-rule="evenodd" d="M72.2917 50.2409C73.25 49.6743 74.025 50.1326 74.025 51.2826C73.9963 51.8983 73.8247 52.4989 73.5239 53.037C73.223 53.575 72.8012 54.0357 72.2917 54.3826C71.3334 54.9576 70.55 54.4909 70.55 53.3493C70.581 52.7319 70.7544 52.1302 71.0565 51.5909C71.3587 51.0517 71.7814 50.5897 72.2917 50.2409Z" fill="white"></path><path d="M36.1232 10.3114L35.568 10.5973L41.8721 15.5225L39.3483 16.8223L35.5873 13.8839L30.5431 16.4819L40.1009 23.9493C42.3528 25.7086 46.1985 26.1028 48.6739 24.8279L49.2291 24.5419L43.3005 19.9101L45.8243 18.6103L49.7368 21.6671L54.7811 19.0691L44.6962 11.1899C42.4443 9.43057 38.5985 9.03645 36.1232 10.3114ZM47.067 24.2922C45.2256 24.9277 42.7341 24.5671 41.2113 23.3774L39.3666 21.9362L42.1902 20.482L47.067 24.2922ZM52.6605 18.8517L49.837 20.306L45.9245 17.2492L38.3565 21.147L32.6636 16.6993L35.4871 15.245L39.2481 18.1834L46.8161 14.2856L52.6605 18.8517ZM45.806 13.4964L42.9824 14.9506L37.73 10.847C39.5715 10.2115 42.0626 10.5718 43.5858 11.7618L45.806 13.4964Z" fill="#7A8299"></path><defs><linearGradient id="paint0_linear_2388_515" x1="50.4167" y1="84.8673" x2="-2.2326" y2="71.3876" gradientUnits="userSpaceOnUse"><stop stop-color="#001DAC"></stop><stop offset="1" stop-color="#000F57"></stop></linearGradient><linearGradient id="paint1_linear_2388_515" x1="91.5825" y1="84.8496" x2="43.2692" y2="73.6539" gradientUnits="userSpaceOnUse"><stop stop-color="#001DAC"></stop><stop offset="1" stop-color="#000F57"></stop></linearGradient><linearGradient id="paint2_linear_2388_515" x1="-8.07483e-07" y1="44.9993" x2="49.2335" y2="41.4468" gradientUnits="userSpaceOnUse"><stop stop-color="#0082F8"></stop><stop offset="1" stop-color="#1C40F2"></stop></linearGradient><linearGradient id="paint3_linear_2388_515" x1="79.8733" y1="43.4743" x2="46.19" y2="55.416" gradientUnits="userSpaceOnUse"><stop></stop><stop offset="1"></stop></linearGradient><linearGradient id="paint4_linear_2388_515" x1="69.0657" y1="34.0992" x2="13.299" y2="53.8492" gradientUnits="userSpaceOnUse"><stop offset="0.42" stop-color="#E7E9E9"></stop><stop offset="0.68" stop-color="#B1B4C3"></stop><stop offset="0.88" stop-color="#8F92AA"></stop><stop offset="0.99" stop-color="#8285A1"></stop></linearGradient><linearGradient id="paint5_linear_2388_515" x1="69.2075" y1="25.9076" x2="11.0909" y2="46.491" gradientUnits="userSpaceOnUse"><stop stop-color="#CDD3DB"></stop><stop offset="0.59" stop-color="#B7BBCA"></stop><stop offset="1" stop-color="#ACB0C2"></stop></linearGradient><linearGradient id="paint6_linear_2388_515" x1="69.0657" y1="14.4826" x2="13.3073" y2="34.2326" gradientUnits="userSpaceOnUse"><stop offset="0.42" stop-color="#E7E9E9"></stop><stop offset="0.68" stop-color="#B1B4C3"></stop><stop offset="0.88" stop-color="#8F92AA"></stop><stop offset="0.99" stop-color="#8285A1"></stop></linearGradient><linearGradient id="paint7_linear_2388_515" x1="69.2075" y1="6.68259" x2="11.0825" y2="27.2742" gradientUnits="userSpaceOnUse"><stop stop-color="#CDD3DB"></stop><stop offset="0.59" stop-color="#B7BBCA"></stop><stop offset="1" stop-color="#ACB0C2"></stop></linearGradient><linearGradient id="paint8_linear_2388_515" x1="82.7741" y1="61.2396" x2="46.7168" y2="56.556" gradientUnits="userSpaceOnUse"><stop stop-color="#001DAC"></stop><stop offset="1" stop-color="#000F57"></stop></linearGradient><linearGradient id="paint9_linear_2388_515" x1="55.4502" y1="34.3514" x2="88.4858" y2="36.895" gradientUnits="userSpaceOnUse"><stop stop-color="#0082F8"></stop><stop offset="1" stop-color="#1C40F2"></stop></linearGradient></defs></svg>