<svg xmlns="http://www.w3.org/2000/svg" width="93" height="91" viewBox="0 0 93 91" fill="none"><path d="M46.5 76.719L0 59.1168V64.5967L46.5 91V76.719Z" fill="url(#paint0_linear_2388_790)"></path><path d="M93 64.5967V59.1168L46.5 76.719V91L93 64.5967Z" fill="url(#paint1_linear_2388_790)"></path><path d="M0 59.1168L46.5 85.5201L93 59.1168L46.5 32.7135L0 59.1168Z" fill="url(#paint2_linear_2388_790)"></path><path opacity="0.3" d="M8.10547 59.1168L45.9881 80.3722L84.8945 59.1168L45.9881 40.4352L8.10547 59.1168Z" fill="url(#paint3_linear_2388_790)"></path><path d="M35.664 29.7244L67.3182 11.79V46.7453L35.664 64.8457L35.5787 64.7627L35.3228 30.3886L35.664 29.7244Z" fill="url(#paint4_linear_2388_790)"></path><path d="M14.5901 52.9727V17.9343L14.7607 17.8513L35.7497 29.7245L35.6644 29.8075V64.8459L14.5901 52.9727Z" fill="url(#paint5_linear_2388_790)"></path><path d="M67.3184 11.7902L35.6643 29.8075L14.59 17.9343L46.2441 0L67.3184 11.7902Z" fill="url(#paint6_linear_2388_790)"></path><path d="M51.7875 10.7619L51.2237 10.4365L44.0025 14.6057L41.44 13.1262L45.7482 10.6389L40.6265 7.68185L29.6781 14.0029C27.0985 15.4922 27.0447 17.8843 29.558 19.3354L30.1217 19.6608L36.9128 15.74L39.4753 17.2195L34.9935 19.807L40.1152 22.764L51.6674 16.0944C54.2469 14.6051 54.3008 12.213 51.7875 10.7619ZM30.1989 18.3144C28.8507 17.2168 29.0611 15.661 30.8055 14.6538L32.9185 13.4339L35.7854 15.0891L30.1989 18.3144ZM40.1449 21.4451L37.278 19.7899L41.7598 17.2023L34.0756 12.7658L40.5968 9.00083L43.4637 10.656L39.1555 13.1434L46.8397 17.5798L40.1449 21.4451ZM47.9968 16.9118L45.1299 15.2566L51.1465 11.7829C52.4947 12.8805 52.2847 14.4361 50.54 15.4435L47.9968 16.9118Z" fill="#7A8299"></path><path fill-rule="evenodd" clip-rule="evenodd" d="M69.1102 55.5465C70.7313 51.9763 71.5845 48.1569 71.6698 44.2546C71.6698 42.0128 74.6561 38.1934 73.2056 37.3631C71.3285 36.3668 67.2331 34.208 66.124 33.7929C63.479 32.7965 60.0662 33.2947 56.3973 35.3704C47.9506 40.2692 41.0396 52.1423 41.0396 62.0228C41.0396 65.5931 41.9781 68.4161 43.5139 70.2427L49.1451 73.2318L69.1102 55.5465Z" fill="url(#paint7_linear_2388_790)"></path><path fill-rule="evenodd" clip-rule="evenodd" d="M74.7414 58.5355C76.3625 54.9653 77.2157 51.0629 77.301 47.1605C77.301 37.3631 70.4754 33.3777 61.9432 38.2764C53.4111 43.1751 46.5854 55.1313 46.5854 64.9288C46.5854 68.499 47.524 71.322 49.0598 73.1487L74.7414 58.5355Z" fill="url(#paint8_linear_2388_790)"></path><path d="M72.8641 51.8101C72.9495 51.312 72.9495 50.7308 72.9495 50.2326C72.9495 43.6733 68.3421 40.9333 62.6256 44.2545C56.9091 47.5756 52.3018 55.6295 52.3018 62.1888C52.3018 62.6039 52.3018 63.0191 52.3871 63.3512" stroke="url(#paint9_linear_2388_790)" stroke-miterlimit="10"></path><path d="M63.2229 56.1278L70.0486 51.5612" stroke="#001042" stroke-width="1.41" stroke-linecap="round" stroke-linejoin="round"></path><path fill-rule="evenodd" clip-rule="evenodd" d="M63.223 54.218C64.1616 53.6368 64.9294 54.135 64.9294 55.2144C64.8441 56.3768 64.2469 57.5392 63.223 58.2034C62.2845 58.7846 61.5166 58.2864 61.5166 57.2071C61.6019 55.9616 62.1992 54.8822 63.223 54.218Z" fill="url(#paint10_linear_2388_790)"></path><path d="M23.378 32.7134L19.0266 30.2225" stroke="url(#paint11_linear_2388_790)" stroke-miterlimit="10" stroke-linecap="round"></path><path d="M23.378 41.8467L19.0266 39.3558" stroke="url(#paint12_linear_2388_790)" stroke-miterlimit="10" stroke-linecap="round"></path><path d="M23.378 50.7309L19.0266 48.24" stroke="url(#paint13_linear_2388_790)" stroke-miterlimit="10" stroke-linecap="round"></path><path fill-rule="evenodd" clip-rule="evenodd" d="M27.9854 33.9589C27.3881 33.6268 26.8762 33.8759 26.8762 34.6231C26.9615 35.3704 27.3028 36.1177 27.9854 36.5328C28.5826 36.8649 29.0946 36.6158 29.0946 35.8686C29.0092 35.0383 28.5826 34.3741 27.9854 33.9589Z" fill="url(#paint14_linear_2388_790)"></path><path fill-rule="evenodd" clip-rule="evenodd" d="M27.9854 42.7601C27.3881 42.4279 26.8762 42.677 26.8762 43.4243C26.9615 44.1716 27.3028 44.9188 27.9854 45.334C28.5826 45.6661 29.0946 45.417 29.0946 44.6697C29.0092 43.9225 28.5826 43.2582 27.9854 42.7601Z" fill="url(#paint15_linear_2388_790)"></path><path fill-rule="evenodd" clip-rule="evenodd" d="M27.9854 51.5611C27.3881 51.229 26.8762 51.4781 26.8762 52.2253C26.9615 52.9726 27.3028 53.7198 27.9854 54.135C28.5826 54.4671 29.0946 54.218 29.0946 53.4708C29.0092 52.7235 28.5826 51.9762 27.9854 51.5611Z" fill="url(#paint16_linear_2388_790)"></path><defs><linearGradient id="paint0_linear_2388_790" x1="46.5" y1="84.2457" x2="-2.44958" y2="72.5538" gradientUnits="userSpaceOnUse"><stop stop-color="#001DAC"></stop><stop offset="1" stop-color="#000F57"></stop></linearGradient><linearGradient id="paint1_linear_2388_790" x1="93" y1="84.2457" x2="44.0504" y2="72.5538" gradientUnits="userSpaceOnUse"><stop stop-color="#001DAC"></stop><stop offset="1" stop-color="#000F57"></stop></linearGradient><linearGradient id="paint2_linear_2388_790" x1="-6.49559e-07" y1="36.5774" x2="96.6933" y2="52.8358" gradientUnits="userSpaceOnUse"><stop stop-color="#0082F8"></stop><stop offset="1" stop-color="#1C40F2"></stop></linearGradient><linearGradient id="paint3_linear_2388_790" x1="65.3117" y1="76.2111" x2="28.0992" y2="48.5404" gradientUnits="userSpaceOnUse"><stop></stop><stop offset="1"></stop></linearGradient><linearGradient id="paint4_linear_2388_790" x1="75.6716" y1="35.6147" x2="-5.6181" y2="45.2109" gradientUnits="userSpaceOnUse"><stop offset="0.49" stop-color="#E7E9E9"></stop><stop offset="0.72" stop-color="#B1B4C3"></stop><stop offset="0.9" stop-color="#8F92AA"></stop><stop offset="0.99" stop-color="#8285A1"></stop></linearGradient><linearGradient id="paint5_linear_2388_790" x1="9.04686" y1="41.3486" x2="8.67537" y2="41.3486" gradientUnits="userSpaceOnUse"><stop stop-color="#989AAD"></stop><stop offset="1" stop-color="#98A0B7"></stop></linearGradient><linearGradient id="paint6_linear_2388_790" x1="56.422" y1="5.53963" x2="20.667" y2="28.2956" gradientUnits="userSpaceOnUse"><stop stop-color="#CDD3DB"></stop><stop offset="1" stop-color="#ACB0C2"></stop></linearGradient><linearGradient id="paint7_linear_2388_790" x1="82.0791" y1="42.8019" x2="22.2095" y2="67.3725" gradientUnits="userSpaceOnUse"><stop stop-color="#CDD3DB"></stop><stop offset="1" stop-color="#ACB0C2"></stop></linearGradient><linearGradient id="paint8_linear_2388_790" x1="48.2137" y1="57.9602" x2="106.73" y2="37.2685" gradientUnits="userSpaceOnUse"><stop offset="0.64" stop-color="#E7E9E9"></stop><stop offset="0.8" stop-color="#B1B4C3"></stop><stop offset="0.93" stop-color="#8F92AA"></stop><stop offset="0.99" stop-color="#8285A1"></stop></linearGradient><linearGradient id="paint9_linear_2388_790" x1="52.3018" y1="42.2421" x2="75.7541" y2="47.0353" gradientUnits="userSpaceOnUse"><stop stop-color="#102062"></stop><stop offset="1" stop-color="#060B43"></stop></linearGradient><linearGradient id="paint10_linear_2388_790" x1="61.5166" y1="53.8421" x2="65.4605" y2="54.4526" gradientUnits="userSpaceOnUse"><stop stop-color="#102062"></stop><stop offset="1" stop-color="#060B43"></stop></linearGradient><linearGradient id="paint11_linear_2388_790" x1="23.378" y1="32.1857" x2="18.9024" y2="30.9053" gradientUnits="userSpaceOnUse"><stop stop-color="#001DAC"></stop><stop offset="1" stop-color="#000F57"></stop></linearGradient><linearGradient id="paint12_linear_2388_790" x1="23.378" y1="41.319" x2="18.9024" y2="40.0386" gradientUnits="userSpaceOnUse"><stop stop-color="#001DAC"></stop><stop offset="1" stop-color="#000F57"></stop></linearGradient><linearGradient id="paint13_linear_2388_790" x1="23.378" y1="50.2032" x2="18.9024" y2="48.9227" gradientUnits="userSpaceOnUse"><stop stop-color="#001DAC"></stop><stop offset="1" stop-color="#000F57"></stop></linearGradient><linearGradient id="paint14_linear_2388_790" x1="29.0946" y1="36.0707" x2="26.6653" y2="35.7624" gradientUnits="userSpaceOnUse"><stop stop-color="#001DAC"></stop><stop offset="1" stop-color="#000F57"></stop></linearGradient><linearGradient id="paint15_linear_2388_790" x1="29.0946" y1="44.8719" x2="26.6653" y2="44.5636" gradientUnits="userSpaceOnUse"><stop stop-color="#001DAC"></stop><stop offset="1" stop-color="#000F57"></stop></linearGradient><linearGradient id="paint16_linear_2388_790" x1="29.0946" y1="53.6729" x2="26.6653" y2="53.3646" gradientUnits="userSpaceOnUse"><stop stop-color="#001DAC"></stop><stop offset="1" stop-color="#000F57"></stop></linearGradient></defs></svg>