<svg xmlns="http://www.w3.org/2000/svg" width="1919" height="481" viewBox="0 0 1919 481" fill="none"><mask id="mask0_1763_1132" style="mask-type:alpha" maskUnits="userSpaceOnUse" x="0" y="0" width="1920" height="481"><rect width="1920" height="481" fill="#C4C4C4"></rect></mask><g mask="url(#mask0_1763_1132)"><path fill-rule="evenodd" clip-rule="evenodd" d="M960 288C1187.54 288 1372 103.541 1372 -124C1372 -351.541 1187.54 -536 960 -536C732.459 -536 548 -351.541 548 -124C548 103.541 732.459 288 960 288ZM960 160.605C1117.18 160.605 1244.61 33.1832 1244.61 -124C1244.61 -281.183 1117.18 -408.605 960 -408.605C802.817 -408.605 675.395 -281.183 675.395 -124C675.395 33.1832 802.817 160.605 960 160.605Z" fill="white" fill-opacity="0.03"></path><g opacity="0.2" filter="url(#filter0_f_1763_1132)"><circle cx="953.5" cy="43.5" r="290.5" fill="url(#paint0_linear_1763_1132)"></circle></g></g><defs><filter id="filter0_f_1763_1132" x="363" y="-547" width="1181" height="1181" filterUnits="userSpaceOnUse" color-interpolation-filters="sRGB"><feGaussianBlur stdDeviation="150"></feGaussianBlur></filter><linearGradient id="paint0_linear_1763_1132" x1="1106.34" y1="-70.6252" x2="802.975" y2="-56.1903" gradientUnits="userSpaceOnUse"><stop stop-color="#7B61FF"></stop><stop offset="1" stop-color="#AA82FF"></stop></linearGradient></defs></svg>