<svg xmlns="http://www.w3.org/2000/svg" width="1181" height="1181" viewBox="0 0 1181 1181" fill="none"><g opacity="0.2" filter="url(#filter0_f_2794_48)"><circle cx="590.5" cy="590.5" r="290.5" fill="url(#paint0_linear_2794_48)"></circle></g><mask id="mask0_2794_48" style="mask-type:alpha" maskUnits="userSpaceOnUse" x="201" y="547" width="789" height="301"><rect x="201" y="547" width="789" height="301" fill="#C4C4C4"></rect></mask><g mask="url(#mask0_2794_48)"><path fill-rule="evenodd" clip-rule="evenodd" d="M597 835C824.541 835 1009 650.541 1009 423C1009 195.459 824.541 11 597 11C369.459 11 185 195.459 185 423C185 650.541 369.459 835 597 835ZM597 707.605C754.183 707.605 881.605 580.183 881.605 423C881.605 265.817 754.183 138.395 597 138.395C439.817 138.395 312.395 265.817 312.395 423C312.395 580.183 439.817 707.605 597 707.605Z" fill="white" fill-opacity="0.03"></path></g><defs><filter id="filter0_f_2794_48" x="0" y="0" width="1181" height="1181" filterUnits="userSpaceOnUse" color-interpolation-filters="sRGB"><feGaussianBlur stdDeviation="150"></feGaussianBlur></filter><linearGradient id="paint0_linear_2794_48" x1="743.345" y1="476.375" x2="439.975" y2="490.81" gradientUnits="userSpaceOnUse"><stop stop-color="#7B61FF"></stop><stop offset="1" stop-color="#AA82FF"></stop></linearGradient></defs></svg>