<svg xmlns="http://www.w3.org/2000/svg" width="61" height="61" viewBox="0 0 61 61" fill="none"><path d="M30.3149 45.412C38.5153 45.412 45.1631 38.705 45.1631 30.4316C45.1631 22.1581 38.5153 15.4512 30.3149 15.4512C22.1145 15.4512 15.4668 22.1581 15.4668 30.4316C15.4668 38.705 22.1145 45.412 30.3149 45.412Z" fill="url(#paint0_linear_1749_24417)"></path><path d="M0.0273438 29.8922C0.0689296 29.7853 0.124377 29.6804 0.151111 29.5695C0.584792 27.7204 1.99178 26.5227 3.93245 26.3549C5.62559 26.208 7.23457 27.184 7.93262 28.8373C8.09302 29.2169 8.28214 29.3208 8.67027 29.3168C10.7397 29.2978 12.81 29.3078 14.8794 29.3078C15.0933 29.3078 15.3062 29.3078 15.5448 29.3078C15.5448 30.098 15.5448 30.8422 15.5448 31.6683C15.3022 31.6683 15.0923 31.6683 14.8834 31.6683C12.7942 31.6683 10.704 31.6713 8.61482 31.6643C8.32075 31.6633 8.1257 31.6963 7.98014 32.026C7.18605 33.8271 5.62163 34.7951 3.87602 34.6123C1.89475 34.4045 0.607566 33.2607 0.132299 31.2887C0.114476 31.2158 0.0639789 31.1519 0.0283339 31.0839C0.0273438 30.6864 0.0273438 30.2888 0.0273438 29.8922ZM4.19682 32.2857C5.16122 32.2707 5.95729 31.4576 5.95333 30.4886C5.94937 29.4686 5.1533 28.6814 4.14038 28.6974C3.12846 28.7134 2.35714 29.5236 2.38388 30.5445C2.40962 31.5085 3.23342 32.2997 4.19682 32.2857Z" fill="#B1B1B1"></path><path d="M60.6256 31.0841C60.583 31.191 60.5275 31.2949 60.5008 31.4058C60.0602 33.2609 58.6611 34.4506 56.7175 34.6185C55.0214 34.7653 53.4144 33.7913 52.7183 32.1361C52.5569 31.7535 52.3648 31.6565 51.9787 31.6595C49.9291 31.6785 47.8785 31.6685 45.8279 31.6685C45.6141 31.6685 45.4002 31.6685 45.1289 31.6685C45.1289 30.8834 45.1289 30.1391 45.1289 29.308C45.2933 29.308 45.5012 29.308 45.7091 29.308C47.8181 29.308 49.9281 29.305 52.0371 29.312C52.3312 29.313 52.5233 29.279 52.6678 28.9474C53.4411 27.1712 55.0689 26.1723 56.8373 26.3431C58.676 26.5199 60.0434 27.7606 60.5236 29.6846C60.5414 29.7575 60.5909 29.8235 60.6256 29.8924C60.6256 30.289 60.6256 30.6866 60.6256 31.0841ZM58.2681 30.5018C58.272 29.4798 57.4829 28.6886 56.469 28.6976C55.4778 28.7056 54.7115 29.4738 54.6986 30.4718C54.6867 31.4648 55.5085 32.2939 56.4977 32.2859C57.4621 32.2789 58.2641 31.4697 58.2681 30.5018Z" fill="#B1B1B1"></path><path d="M29.7323 60.9999C29.6263 60.9579 29.5234 60.901 29.4135 60.875C27.5738 60.4335 26.3866 59.0189 26.2213 57.065C26.0767 55.3597 27.0431 53.7444 28.6887 53.0372C29.0679 52.8743 29.1649 52.6805 29.161 52.2919C29.1422 50.2271 29.1521 48.1612 29.1521 46.0964C29.1521 45.8816 29.1521 45.6658 29.1521 45.4131C29.9343 45.4131 30.6729 45.4131 31.4957 45.4131C31.4957 45.6139 31.4957 45.8247 31.4957 46.0354C31.4957 48.1402 31.4987 50.2451 31.4918 52.3499C31.4908 52.6446 31.5185 52.8444 31.8492 52.9892C33.6037 53.7554 34.5721 55.3158 34.4246 57.064C34.2562 59.0649 33.0918 60.4105 31.1175 60.894C31.0462 60.912 30.9828 60.9639 30.9155 60.9999C30.5214 60.9999 30.1274 60.9999 29.7323 60.9999ZM30.3234 58.6263C31.2888 58.6263 32.0977 57.8252 32.1086 56.8572C32.1205 55.8342 31.3403 55.0391 30.3244 55.0381C29.3095 55.0371 28.5283 55.8332 28.5392 56.8562C28.5501 57.8232 29.359 58.6263 30.3234 58.6263Z" fill="#B1B1B1"></path><path d="M30.3748 21.9056C31.4778 21.9056 32.5818 21.9016 33.6848 21.9066C34.572 21.9116 34.9839 22.2992 35.0601 23.1803C35.173 24.4899 36.0344 25.354 37.3473 25.4759C38.1256 25.5478 38.581 25.9304 38.5979 26.6307C38.6652 29.3898 38.4107 32.105 37.2889 34.6644C36.0116 37.5793 33.8244 39.4224 30.7401 40.1616C30.5025 40.2186 30.2302 40.2286 29.9945 40.1736C25.9528 39.2276 23.6864 36.5164 22.6537 32.6115C22.1437 30.6815 21.9952 28.7046 22.0497 26.7136C22.0695 25.9794 22.4923 25.5528 23.225 25.4809C24.6765 25.3381 25.4538 24.5539 25.5973 23.0854C25.6716 22.3292 26.1122 21.9156 26.8865 21.9086C28.0499 21.8976 29.2123 21.9056 30.3748 21.9056ZM30.3203 24.2832C29.65 24.2832 28.9797 24.2951 28.3103 24.2782C27.9806 24.2702 27.7905 24.3381 27.6608 24.7007C27.1667 26.0853 26.2152 27.0503 24.8379 27.5488C24.4844 27.6766 24.3824 27.8594 24.427 28.2021C24.5904 29.4598 24.6537 30.7374 24.9231 31.9712C25.533 34.7633 27.1212 36.7622 29.8817 37.6882C30.1104 37.7651 30.3985 37.8101 30.6173 37.7402C32.3432 37.1837 33.763 36.2038 34.7046 34.6044C35.9027 32.5685 36.1156 30.2999 36.2166 28.0103C36.2225 27.8784 36.0453 27.6656 35.9067 27.6127C34.4779 27.0633 33.4977 26.0813 32.9402 24.6448C32.8778 24.485 32.6234 24.3101 32.4491 24.3001C31.7412 24.2612 31.0302 24.2832 30.3203 24.2832Z" fill="white"></path><path d="M39.9961 41.8658C40.5555 41.3204 41.0882 40.8009 41.6516 40.2515C41.7407 40.3354 41.8853 40.4622 42.0199 40.5981C43.4992 42.0866 44.9834 43.569 46.4488 45.0714C46.7181 45.3482 46.929 45.4171 47.3102 45.2672C49.6064 44.3632 52.0114 45.543 52.7431 47.9005C53.459 50.2041 52.1372 52.5736 49.7737 53.148C48.1984 53.5306 46.836 53.0581 45.7567 51.8674C44.6666 50.6636 44.3903 49.2421 44.9636 47.7177C45.1418 47.2432 45.0715 46.9815 44.7309 46.6468C43.2635 45.2033 41.8229 43.7328 40.3733 42.2704C40.2377 42.1335 40.11 41.9887 39.9961 41.8658ZM50.5906 49.2241C50.6292 48.1912 49.8945 47.3591 48.8984 47.3071C47.9301 47.2562 47.0815 48.0533 47.0281 49.0653C46.9776 50.0203 47.7667 50.8634 48.739 50.8954C49.7509 50.9273 50.5539 50.2021 50.5906 49.2241Z" fill="#B1B1B1"></path><path d="M18.9912 40.1445C19.5982 40.7729 20.1041 41.2973 20.6517 41.8647C20.5636 41.9626 20.4428 42.1085 20.3101 42.2424C18.8189 43.7458 17.3327 45.2542 15.8287 46.7447C15.5713 47.0004 15.498 47.1972 15.6455 47.5608C16.3307 49.2511 15.8168 51.1801 14.4108 52.3448C13.0543 53.4677 11.1048 53.5766 9.60668 52.6116C8.11256 51.6496 7.38976 49.8055 7.83928 48.1053C8.30861 46.3361 9.85521 45.0135 11.6365 44.9635C12.2098 44.9475 12.8068 45.1064 13.3613 45.2852C13.7207 45.4021 13.9207 45.3581 14.1772 45.0964C15.6436 43.5959 17.1298 42.1155 18.6041 40.624C18.7437 40.4852 18.8536 40.3174 18.9912 40.1445ZM11.8335 50.8984C12.8187 50.8964 13.6049 50.1252 13.6247 49.1402C13.6445 48.1722 12.79 47.2951 11.8335 47.3001C10.8642 47.3051 10.0414 48.1562 10.0513 49.1442C10.0621 50.1252 10.8503 50.9003 11.8335 50.8984Z" fill="#B1B1B1"></path><path d="M41.6746 20.7369C41.1142 20.1525 40.6082 19.6261 40.0527 19.0467C40.1498 18.9438 40.2894 18.7909 40.4349 18.6441C41.8835 17.1836 43.3261 15.7161 44.7896 14.2697C45.0787 13.983 45.152 13.7582 44.9965 13.3506C44.1123 11.025 45.3391 8.55959 47.6907 7.86631C49.9462 7.20101 52.3324 8.61454 52.8473 10.9771C53.1889 12.5405 52.7037 13.895 51.5344 14.9579C50.3353 16.0478 48.9254 16.3325 47.4154 15.7381C46.9293 15.5463 46.6807 15.6652 46.3589 15.9959C44.8153 17.5822 43.2499 19.1476 41.6746 20.7369ZM48.8224 10.079C47.8303 10.078 47.053 10.8382 47.0312 11.8292C47.0095 12.8062 47.8511 13.6763 48.8155 13.6743C49.7868 13.6723 50.6116 12.8222 50.6017 11.8332C50.5918 10.8452 49.8165 10.08 48.8224 10.079Z" fill="#B1B1B1"></path><path d="M31.4972 15.677C30.6991 15.677 29.9615 15.677 29.1535 15.677C29.1535 15.4473 29.1535 15.2355 29.1535 15.0237C29.1535 12.9199 29.1436 10.8161 29.1624 8.71229C29.1664 8.30471 29.0644 8.09893 28.6624 7.92611C26.9901 7.20686 26.0158 5.48964 26.2385 3.76444C26.497 1.75353 27.7158 0.420918 29.6149 0.0702832C31.6744 -0.309322 33.6101 0.868452 34.228 2.87636C34.8627 4.93922 33.9745 7.06001 32.0556 7.89514C31.5764 8.10392 31.4843 8.35566 31.4893 8.81718C31.5091 10.881 31.4982 12.9459 31.4982 15.0097C31.4972 15.2225 31.4972 15.4363 31.4972 15.677ZM32.1101 4.16702C32.117 3.14508 31.3318 2.35191 30.3169 2.3559C29.3248 2.3609 28.5565 3.1261 28.5406 4.12406C28.5258 5.11703 29.3446 5.94916 30.3338 5.94417C31.2991 5.94017 32.1041 5.13501 32.1101 4.16702Z" fill="#B1B1B1"></path><path d="M20.6967 18.9804C20.07 19.6227 19.5472 20.1581 18.8798 20.8424C18.768 20.6576 18.6838 20.4399 18.5343 20.288C17.0926 18.8205 15.6312 17.372 14.1965 15.8976C13.9212 15.6149 13.7044 15.5659 13.3321 15.7098C11.0567 16.5939 8.58041 15.3851 7.88434 13.0795C7.18728 10.7709 8.56457 8.34344 10.928 7.808C12.4796 7.45636 13.8252 7.94186 14.8846 9.11564C15.9698 10.3174 16.2669 11.7329 15.6856 13.2583C15.5045 13.7348 15.5807 13.9936 15.9193 14.3262C17.357 15.7407 18.768 17.1842 20.1947 18.6108C20.3472 18.7636 20.5443 18.8695 20.6967 18.9804ZM11.8112 10.0696C10.834 10.0746 10.0607 10.8588 10.0567 11.8498C10.0527 12.8677 10.8538 13.6799 11.8479 13.6669C12.7944 13.6539 13.6252 12.8188 13.6301 11.8768C13.6341 10.9038 12.7905 10.0646 11.8112 10.0696Z" fill="#B1B1B1"></path><defs><linearGradient id="paint0_linear_1749_24417" x1="15.4668" y1="17.6434" x2="46.9335" y2="20.6212" gradientUnits="userSpaceOnUse"><stop stop-color="#0082F8"></stop><stop offset="1" stop-color="#1C40F2"></stop></linearGradient></defs></svg>