<svg xmlns="http://www.w3.org/2000/svg" width="65" height="56" viewBox="0 0 65 56" fill="none"><path opacity="0.05" d="M64.043 37.2609L32.043 55.9999L0.0429688 37.2609L32.043 18.522L64.043 37.2609Z" fill="url(#paint0_linear_2144_607)"></path><path d="M32.0859 45.0684L63.9995 26.5029V30.4069L32.4319 49.276L32.0859 45.0684Z" fill="url(#paint1_linear_2144_607)"></path><path d="M0.0429688 30.3644V26.4604L32.4322 43.2908V49.2769L0.0429688 30.3644Z" fill="url(#paint2_linear_2144_607)"></path><path d="M63.9997 26.503L32.4322 45.1986L0.0429688 26.4597L32.043 7.7207L63.9997 26.503Z" fill="url(#paint3_linear_2144_607)"></path><path opacity="0.3" fill-rule="evenodd" clip-rule="evenodd" d="M32.1724 37.0442L31.4805 36.6538L26.9399 39.2998L25.5561 33.227L11.848 25.2889C10.3345 24.4214 10.3345 22.9899 11.848 22.079L26.3345 13.6638C28.0642 12.7963 30.1399 12.7963 31.8696 13.6638L52.194 25.4191C53.7075 26.2866 53.7075 27.7181 52.194 28.629L37.7075 37.0442C35.9778 37.9551 33.9021 37.9551 32.1724 37.0442Z" fill="white"></path><path fill-rule="evenodd" clip-rule="evenodd" d="M32.1728 31.6218L31.4809 31.2314L26.8107 34.0075L26.6377 24.8983C26.6377 24.8983 30.3566 7.37389 31.9134 8.28481L53.6215 13.9672C53.6215 13.9672 53.6215 20.951 53.6215 21.5149C53.6215 22.0788 52.9296 22.7294 52.1945 23.2066L37.708 31.6218C35.9782 32.4893 33.9026 32.4893 32.1728 31.6218Z" fill="url(#paint4_linear_2144_607)"></path><path fill-rule="evenodd" clip-rule="evenodd" d="M26.8107 34.0512L25.5566 27.7615L11.8485 19.8669C11.0701 19.4331 10.7674 18.8258 10.8107 18.2185C10.8539 17.6113 10.8107 10.4106 10.8107 10.4106L26.8107 20.344V34.0512Z" fill="url(#paint5_linear_2144_607)"></path><path fill-rule="evenodd" clip-rule="evenodd" d="M32.1725 23.9876L31.4806 23.5972L26.8103 26.1998L25.5563 20.127L11.9779 12.2758C10.4644 11.4082 10.4644 9.97676 11.9779 9.06584L26.3347 0.650658C28.0644 -0.216886 30.1401 -0.216886 31.8698 0.650658L52.4536 12.4493C53.9671 13.3168 53.9671 14.7483 52.4536 15.6592L37.7076 23.9876C35.9779 24.8551 33.9022 24.8551 32.1725 23.9876Z" fill="url(#paint6_linear_2144_607)"></path><path fill-rule="evenodd" clip-rule="evenodd" d="M28.7136 13.6206L33.4704 14.0544L40.9947 14.7484L35.5461 11.5819L39.0488 7.59119L32.1731 9.62992L26.7244 6.46338L27.9352 10.8879L21.0596 12.9266L28.7136 13.6206L29.9244 18.0017L32.6488 14.9219L28.7136 13.6206Z" fill="url(#paint7_linear_2144_607)"></path><defs><linearGradient id="paint0_linear_2144_607" x1="12.2915" y1="51.5977" x2="51.0331" y2="23.6552" gradientUnits="userSpaceOnUse"><stop></stop><stop offset="1"></stop></linearGradient><linearGradient id="paint1_linear_2144_607" x1="32.0859" y1="28.1693" x2="65.6049" y2="32.6539" gradientUnits="userSpaceOnUse"><stop stop-color="#0082F8"></stop><stop offset="1" stop-color="#1C40F2"></stop></linearGradient><linearGradient id="paint2_linear_2144_607" x1="0.0429685" y1="28.1299" x2="34.0459" y2="32.7384" gradientUnits="userSpaceOnUse"><stop stop-color="#0082F8"></stop><stop offset="1" stop-color="#1C40F2"></stop></linearGradient><linearGradient id="paint3_linear_2144_607" x1="-0.279186" y1="26.462" x2="63.4358" y2="26.462" gradientUnits="userSpaceOnUse"><stop stop-color="#1C40F2"></stop><stop offset="0.9833" stop-color="#03F8FB"></stop></linearGradient><linearGradient id="paint4_linear_2144_607" x1="55.5704" y1="21.1232" x2="64.1888" y2="21.1232" gradientUnits="userSpaceOnUse"><stop stop-color="#E7E9E9"></stop><stop offset="1" stop-color="#98AACD"></stop></linearGradient><linearGradient id="paint5_linear_2144_607" x1="-10.4894" y1="22.2262" x2="13.0616" y2="22.2262" gradientUnits="userSpaceOnUse"><stop stop-color="#989AAD"></stop><stop offset="1" stop-color="#98A0B7"></stop></linearGradient><linearGradient id="paint6_linear_2144_607" x1="47.9868" y1="13.0953" x2="5.22829" y2="13.091" gradientUnits="userSpaceOnUse"><stop stop-color="#CDD3DB"></stop><stop offset="1" stop-color="#ACB0C2"></stop></linearGradient><linearGradient id="paint7_linear_2144_607" x1="21.0596" y1="7.30765" x2="41.8078" y2="10.7302" gradientUnits="userSpaceOnUse"><stop stop-color="#0082F8"></stop><stop offset="1" stop-color="#1C40F2"></stop></linearGradient></defs></svg>