<svg xmlns="http://www.w3.org/2000/svg" width="51" height="55" viewBox="0 0 51 55" fill="none"><path opacity="0.15" d="M4.14453 41.2386L26.4082 54.2185L48.6719 41.2386L26.4082 28.2349L4.14453 41.2386Z" fill="url(#paint0_linear_2283_3775)"></path><path d="M26.512 38.8675L4.14453 27.125V34.956L26.512 47.9598V38.8675Z" fill="#62001E"></path><path d="M48.6084 34.956V27.125L26.4805 38.9473L26.5124 47.9598L48.6084 34.956Z" fill="url(#paint1_linear_2283_3775)"></path><path d="M4.14453 27.1332L26.4481 40.121L48.608 27.1332L26.3763 14.1614L4.14453 27.1332Z" fill="url(#paint2_linear_2283_3775)"></path><path d="M28.5076 26.3348L4.14453 14.5923V22.4153L26.512 35.4271L28.5076 26.3348Z" fill="url(#paint3_linear_2283_3775)"></path><path d="M48.6084 22.4153V14.5923L26.4805 26.4146L26.5124 35.4271L48.6084 22.4153Z" fill="url(#paint4_linear_2283_3775)"></path><path d="M4.14453 14.6003L26.4481 27.5801L48.608 14.6003L26.3763 1.62842L4.14453 14.6003Z" fill="url(#paint5_linear_2283_3775)"></path><path d="M8.91817 15.702L4.14453 12.9719V14.6004L8.91817 17.3863V15.702Z" fill="url(#paint6_linear_2283_3775)"></path><path d="M31.0544 4.35845V2.72998L8.89453 14.5842L8.91848 17.3941L31.0544 4.35845Z" fill="url(#paint7_linear_2283_3775)"></path><path d="M4.14453 12.9798L8.89422 15.7099L31.0381 2.72209L26.3763 0L4.14453 12.9798Z" fill="url(#paint8_linear_2283_3775)"></path><path opacity="0.3" d="M49.83 19.294L26.5046 33.4153L1 18.4558" stroke="url(#paint9_linear_2283_3775)" stroke-width="0.78" stroke-miterlimit="10"></path><path opacity="0.3" d="M49.8307 16.4922L26.5053 30.6135L1.51953 15.7258" stroke="url(#paint10_linear_2283_3775)" stroke-width="0.78" stroke-miterlimit="10"></path><g opacity="0.8"><path d="M15.0195 17.5858L19.3461 20.1004L23.6328 17.5858L19.3302 15.0713L15.0195 17.5858Z" fill="#818696"></path><path d="M21.2363 13.9298L25.5629 16.4444L29.8576 13.9298L25.547 11.4153L21.2363 13.9298Z" fill="#818696"></path><path d="M27.2734 10.4015L31.5921 12.916L35.8867 10.4015L31.5761 7.88696L27.2734 10.4015Z" fill="#818696"></path><path d="M21.2148 21.202L25.5335 23.7166L29.8281 21.202L25.5255 18.6875L21.2148 21.202Z" fill="#818696"></path><path d="M27.4336 17.5459L31.7602 20.0684L36.0549 17.5459L31.7442 15.0393L27.4336 17.5459Z" fill="#818696"></path><path d="M33.459 14.0258L37.7856 16.5403L42.0803 14.0258L37.7696 11.5112L33.459 14.0258Z" fill="#818696"></path></g><path d="M36.0128 17.5458L27.5352 17.5139" stroke="url(#paint11_linear_2283_3775)" stroke-width="1.5" stroke-linecap="round" stroke-linejoin="round"></path><path d="M31.7324 20.0686V15.0315" stroke="url(#paint12_linear_2283_3775)" stroke-width="1.5" stroke-linecap="round" stroke-linejoin="round"></path><defs><linearGradient id="paint0_linear_2283_3775" x1="40.1384" y1="51.1691" x2="13.2448" y2="31.7073" gradientUnits="userSpaceOnUse"><stop></stop><stop offset="1"></stop></linearGradient><linearGradient id="paint1_linear_2283_3775" x1="54.3879" y1="37.5424" x2="54.7711" y2="37.5424" gradientUnits="userSpaceOnUse"><stop stop-color="#AA093B"></stop><stop offset="1" stop-color="#F70E28"></stop></linearGradient><linearGradient id="paint2_linear_2283_3775" x1="40.0905" y1="37.0557" x2="13.2288" y2="17.6259" gradientUnits="userSpaceOnUse"><stop stop-color="#FF0766"></stop><stop offset="1" stop-color="#670A18"></stop></linearGradient><linearGradient id="paint3_linear_2283_3775" x1="-0.429539" y1="25.0097" x2="23.9256" y2="25.0097" gradientUnits="userSpaceOnUse"><stop stop-color="#989AAD"></stop><stop offset="1" stop-color="#98A0B7"></stop></linearGradient><linearGradient id="paint4_linear_2283_3775" x1="54.3879" y1="25.0097" x2="54.7711" y2="25.0097" gradientUnits="userSpaceOnUse"><stop stop-color="#E7E9E9"></stop><stop offset="1" stop-color="#98AACD"></stop></linearGradient><linearGradient id="paint5_linear_2283_3775" x1="40.0905" y1="24.5227" x2="13.2288" y2="5.0929" gradientUnits="userSpaceOnUse"><stop stop-color="#CDD3DB"></stop><stop offset="1" stop-color="#ACB0C2"></stop></linearGradient><linearGradient id="paint6_linear_2283_3775" x1="3.25047" y1="15.1831" x2="8.02411" y2="15.1831" gradientUnits="userSpaceOnUse"><stop stop-color="#989AAD"></stop><stop offset="1" stop-color="#98A0B7"></stop></linearGradient><linearGradient id="paint7_linear_2283_3775" x1="36.8339" y1="10.0661" x2="37.225" y2="10.0661" gradientUnits="userSpaceOnUse"><stop stop-color="#E7E9E9"></stop><stop offset="1" stop-color="#98AACD"></stop></linearGradient><linearGradient id="paint8_linear_2283_3775" x1="23.5983" y1="12.1975" x2="11.8318" y2="3.68799" gradientUnits="userSpaceOnUse"><stop stop-color="#CDD3DB"></stop><stop offset="1" stop-color="#ACB0C2"></stop></linearGradient><linearGradient id="paint9_linear_2283_3775" x1="0.840347" y1="25.9835" x2="49.9896" y2="25.9835" gradientUnits="userSpaceOnUse"><stop stop-color="#050505"></stop><stop offset="1" stop-color="#ACB0C2"></stop></linearGradient><linearGradient id="paint10_linear_2283_3775" x1="1.35988" y1="23.2216" x2="49.9903" y2="23.2216" gradientUnits="userSpaceOnUse"><stop stop-color="#050505"></stop><stop offset="1" stop-color="#ACB0C2"></stop></linearGradient><linearGradient id="paint11_linear_2283_3775" x1="26.9285" y1="17.5299" x2="36.6115" y2="17.5299" gradientUnits="userSpaceOnUse"><stop stop-color="#FC2632"></stop><stop offset="1" stop-color="#F70E28"></stop></linearGradient><linearGradient id="paint12_linear_2283_3775" x1="-nan" y1="-nan" x2="-nan" y2="-nan" gradientUnits="userSpaceOnUse"><stop stop-color="#FC2632"></stop><stop offset="1" stop-color="#F70E28"></stop></linearGradient></defs></svg>