<svg xmlns="http://www.w3.org/2000/svg" width="61" height="61" viewBox="0 0 61 61" fill="none"><path d="M29.9232 12.5433C29.5604 13.1671 29.254 13.7195 28.9132 14.2499C28.8473 14.353 28.637 14.4258 28.5051 14.4121C25.2594 14.0768 22.0054 13.9806 18.7474 14.085C14.39 14.2252 10.0532 14.5866 5.8717 15.9319C4.83835 16.2644 3.82561 16.7261 2.89119 17.2785C1.76852 17.9422 1.79463 18.529 2.87333 19.2683C4.2667 20.2219 5.86757 20.6891 7.48356 21.0821C12.6008 22.3299 17.8129 22.5841 23.0525 22.4659C24.4734 22.4343 25.8915 22.3092 27.3123 22.2282C27.4127 22.2227 27.513 22.2268 27.6215 22.2268C27.7809 22.8658 27.9321 23.4773 28.1066 24.1753C27.5405 24.233 26.9908 24.3045 26.4398 24.343C22.0522 24.6494 17.6673 24.6123 13.2962 24.1341C10.0243 23.7754 6.77863 23.2519 3.70331 21.9973C3.16877 21.7788 2.65484 21.5081 2.08183 21.2374C2.07083 21.4271 2.05434 21.5892 2.05434 21.75C2.05297 23.4305 2.07496 25.1111 2.0406 26.7903C2.02961 27.3386 2.21237 27.7646 2.64797 28.005C3.57277 28.5148 4.50031 29.0508 5.48831 29.4053C8.4592 30.4702 11.5647 30.9498 14.6978 31.1381C17.5354 31.3085 20.3826 31.3703 23.2257 31.3552C26.2941 31.3387 29.3488 31.0433 32.3733 30.4867C32.5588 30.4524 32.7952 30.4675 32.9559 30.5541C33.7213 30.9691 34.4689 31.417 35.2988 31.898C34.3575 32.0986 33.4575 32.3185 32.5464 32.4792C27.4278 33.3834 22.2651 33.65 17.0805 33.3917C12.8963 33.1828 8.75326 32.6716 4.77239 31.2686C3.8737 30.9526 3.00387 30.5513 2.08183 30.1734C2.07221 30.3383 2.05572 30.5005 2.05572 30.6612C2.05434 32.2731 2.08458 33.885 2.03923 35.4955C2.02137 36.1152 2.2481 36.5426 2.68645 36.9191C3.57826 37.6817 4.64047 38.1146 5.73566 38.4636C8.47569 39.3375 11.3078 39.7237 14.1564 40.0109C17.8995 40.3888 21.6509 40.4588 25.4037 40.2046C29.1496 39.9504 32.89 39.589 36.4668 38.3564C37.4521 38.017 38.3645 37.4371 39.2687 36.8957C39.7552 36.6044 39.9613 36.1042 39.9255 35.4858C39.8747 34.5995 39.9132 33.7091 39.9132 32.7884C40.5879 32.7431 41.2159 32.7018 41.9153 32.6551C41.9249 32.842 41.9414 33.0193 41.9414 33.1965C41.9428 39.9848 41.9332 46.7744 41.9524 53.5626C41.9551 54.7224 41.5182 55.6197 40.6374 56.326C39.3278 57.3772 37.7819 57.9324 36.2016 58.4064C32.8501 59.4123 29.4024 59.83 25.9258 60.0472C22.2088 60.2794 18.4904 60.2643 14.7775 59.9551C11.0989 59.6473 7.45058 59.1526 3.99325 57.7826C3.04922 57.4088 2.15053 56.8743 1.31231 56.2958C0.404007 55.6678 0.0055074 54.7375 0.00825567 53.5928C0.0206229 41.969 0.0233712 30.3452 1.08493e-05 18.7227C-0.00273742 17.4269 0.516686 16.487 1.51294 15.7477C2.82936 14.7721 4.34366 14.2334 5.89506 13.7841C9.41972 12.7604 13.0406 12.3523 16.6903 12.1406C20.1517 11.94 23.6132 11.9826 27.0691 12.2492C28.0063 12.322 28.9407 12.4416 29.9232 12.5433ZM39.9077 39.0778C38.9458 39.4736 38.0787 39.879 37.18 40.1936C32.7498 41.7395 28.1423 42.2219 23.4895 42.3565C18.8394 42.4926 14.2086 42.2397 9.61897 41.4359C7.06719 40.9879 4.55115 40.4149 2.25634 39.141C2.20687 39.1136 2.13817 39.1177 2.05022 39.1026C2.05022 40.8491 2.09832 42.564 2.02961 44.2734C1.99663 45.0897 2.33604 45.6009 2.92967 46.042C3.90805 46.7689 5.02798 47.1962 6.18363 47.5219C10.7196 48.7985 15.3739 49.1571 20.0569 49.2629C23.2477 49.3344 26.4274 49.1296 29.592 48.7366C32.005 48.4371 34.4166 48.0771 36.6977 47.1976C37.6252 46.8403 38.4855 46.2866 39.3305 45.7493C39.5985 45.5789 39.8747 45.1804 39.8816 44.8781C39.9324 42.9639 39.9077 41.047 39.9077 39.0778ZM2.05022 47.9424C2.05022 49.8731 2.06946 51.7061 2.03786 53.5379C2.02824 54.1013 2.20825 54.5424 2.66584 54.7938C3.56177 55.2858 4.45771 55.8121 5.41686 56.146C9.42246 57.5407 13.6012 57.9887 17.8033 58.0849C21.0023 58.1577 24.2123 58.0588 27.4085 57.8843C30.4042 57.7207 33.3737 57.2398 36.2223 56.2518C37.2776 55.8849 38.2738 55.3297 39.266 54.8021C39.7442 54.5479 39.9324 54.0848 39.9214 53.5035C39.8884 51.8587 39.9104 50.2125 39.9091 48.5662C39.9091 48.389 39.8939 48.2131 39.8843 47.996C39.1918 48.3024 38.5789 48.6033 37.944 48.8479C34.3273 50.2413 30.5333 50.78 26.7022 51.0988C23.4868 51.3667 20.2658 51.3983 17.0434 51.217C13.9434 51.0424 10.8667 50.6989 7.83534 50.0036C5.86208 49.5515 3.93966 48.9551 2.05022 47.9424Z" fill="#B1B1B1"></path><path d="M43.0944 34.2435C52.5505 34.2435 60.2161 26.5778 60.2161 17.1217C60.2161 7.66566 52.5505 0 43.0944 0C33.6383 0 25.9727 7.66566 25.9727 17.1217C25.9727 26.5778 33.6383 34.2435 43.0944 34.2435Z" fill="url(#paint0_linear_1749_24484)"></path><path d="M43.0648 9.07142C44.0583 9.07142 45.0532 9.06592 46.0467 9.07279C46.8313 9.07829 47.1542 9.3861 47.2326 10.1748C47.3466 11.3374 48.0763 12.0684 49.2525 12.1962C49.9918 12.2773 50.3738 12.6071 50.3848 13.2749C50.4233 15.6206 50.2103 17.9332 49.2814 20.1236C48.1862 22.707 46.2899 24.3807 43.5581 25.0664C43.2434 25.1461 42.8724 25.1461 42.5577 25.0636C39.0097 24.1443 37.0804 21.697 36.2244 18.2671C35.8272 16.6786 35.7091 15.0558 35.731 13.4219C35.742 12.6208 36.0705 12.2828 36.8771 12.1962C38.0465 12.0698 38.7844 11.325 38.8861 10.168C38.9534 9.39709 39.2955 9.07829 40.0816 9.07279C41.0764 9.06592 42.0699 9.07142 43.0648 9.07142ZM43.0978 10.8784C42.4382 10.8784 41.7772 10.8564 41.1204 10.8935C40.9473 10.9031 40.693 11.0639 40.6326 11.2164C40.1173 12.5178 39.2351 13.4247 37.9173 13.9221C37.7771 13.9757 37.6081 14.2244 37.6205 14.3687C37.7208 15.5024 37.7799 16.6484 38.0066 17.7601C38.5508 20.4328 40.028 22.3579 42.6993 23.2264C42.8903 23.2882 43.1294 23.3226 43.3135 23.2635C45.1631 22.6767 46.5895 21.5761 47.4387 19.7911C48.27 18.0445 48.4487 16.1688 48.5188 14.2753C48.5229 14.1543 48.3209 13.9647 48.1752 13.9084C46.8849 13.4096 46.0068 12.5191 45.4998 11.2329C45.4379 11.0763 45.1933 10.9059 45.023 10.8949C44.3826 10.855 43.7395 10.8784 43.0978 10.8784Z" fill="white"></path><defs><linearGradient id="paint0_linear_1749_24484" x1="25.9727" y1="2.50562" x2="62.252" y2="5.96937" gradientUnits="userSpaceOnUse"><stop stop-color="#0082F8"></stop><stop offset="1" stop-color="#1C40F2"></stop></linearGradient></defs></svg>