<svg xmlns="http://www.w3.org/2000/svg" width="41" height="40" viewBox="0 0 41 40" fill="none"><path d="M16.7254 22.3457C16.7254 21.9142 16.3755 21.5643 15.944 21.5643H8.82313C8.39156 21.5643 8.04172 21.9142 8.04172 22.3457V23.9934L2.17076 20.0001L8.04172 16.0068V17.6545C8.04172 18.086 8.39156 18.4359 8.82313 18.4359H15.944C16.9775 18.3985 16.9809 16.9119 15.944 16.8731H9.60454V14.5302C9.61861 13.9193 8.88244 13.5266 8.38367 13.8842L0.341945 19.354C0.127995 19.4995 0 19.7414 0 20.0001C0 20.2588 0.127995 20.5008 0.341945 20.6463L8.38367 26.1161C8.88205 26.4715 9.61908 26.0834 9.60454 25.47V23.1272H15.944C16.3755 23.1272 16.7254 22.7773 16.7254 22.3457Z" fill="#001042"></path><path d="M14.5343 9.60037H16.877V15.9397C16.9144 16.9731 18.401 16.9766 18.4398 15.9397V8.81896C18.4398 8.38739 18.09 8.03755 17.6584 8.03755H16.0108L20.0041 2.16666L23.9974 8.03755H22.3498C21.9183 8.03755 21.5684 8.38739 21.5684 8.81896V15.9397C21.6058 16.9732 23.0923 16.9766 23.1312 15.9397V9.60037H25.4739C25.7634 9.60037 26.0291 9.44034 26.1646 9.18451C26.2999 8.92867 26.2829 8.61884 26.1201 8.3795L20.6503 0.337774C20.3623 -0.111849 19.6459 -0.113333 19.358 0.337774L13.8881 8.3795C13.5331 8.8771 13.9205 9.61522 14.5343 9.60037Z" fill="#001042"></path><path d="M39.6664 19.3539L31.6247 13.8841C31.3854 13.7213 31.0756 13.7041 30.8196 13.8395C30.5638 13.9749 30.4038 14.2407 30.4038 14.5301V16.873H24.0644C23.031 16.9103 23.0275 18.3969 24.0644 18.4358H31.1852C31.6167 18.4358 31.9666 18.0859 31.9666 17.6544V16.0067L37.8376 20L31.9666 23.9933V22.3456C31.9666 21.9141 31.6167 21.5642 31.1852 21.5642H24.0644C23.0309 21.6017 23.0275 23.0882 24.0644 23.1271H30.4038V25.4699C30.3953 25.8905 30.7665 26.2596 31.1851 26.2513C31.3392 26.2513 31.4926 26.2058 31.6247 26.116L39.6664 20.6462C40.1161 20.3588 40.1175 19.6416 39.6664 19.3539Z" fill="#001042"></path><path d="M25.4739 30.3994H23.1312V24.0601C23.0938 23.0267 21.6072 23.0232 21.5684 24.0601V31.1809C21.5684 31.6124 21.9183 31.9623 22.3498 31.9623H23.9975L20.0041 37.8332L16.0108 31.9623H17.6584C18.09 31.9623 18.4398 31.6124 18.4398 31.1809V24.0601C18.4025 23.0266 16.9159 23.0232 16.877 24.0601V30.3994H14.5343C14.2448 30.3994 13.979 30.5595 13.8436 30.8153C13.7082 31.0711 13.7254 31.381 13.8881 31.6203L19.358 39.6621C19.6459 40.1118 20.3623 40.1131 20.6503 39.6621L26.1201 31.6204C26.4752 31.1228 26.0877 30.3847 25.4739 30.3994Z" fill="#001042"></path><path fill-rule="evenodd" clip-rule="evenodd" d="M20.0042 26.6422C23.6625 26.6422 26.6462 23.6584 26.6462 20.0002C26.3064 11.2019 13.7006 11.2042 13.3622 20.0002C13.3622 23.6584 16.3459 26.6422 20.0042 26.6422Z" fill="url(#paint0_linear_2470_59)"></path><path d="M20.0042 23.9072C17.8498 23.9072 16.0971 22.1545 16.0971 20.0002C16.2935 14.8241 23.7156 14.8255 23.9112 20.0003C23.9112 22.1545 22.1586 23.9072 20.0042 23.9072ZM20.0042 17.656C18.7115 17.656 17.6599 18.7076 17.6599 20.0002C17.7778 23.1059 22.231 23.105 22.3484 20.0002C22.3484 18.7076 21.2968 17.656 20.0042 17.656Z" fill="white"></path><defs><linearGradient id="paint0_linear_2470_59" x1="13.3622" y1="14.3711" x2="27.4351" y2="15.7192" gradientUnits="userSpaceOnUse"><stop stop-color="#0082F8"></stop><stop offset="1" stop-color="#1C40F2"></stop></linearGradient></defs></svg>