<svg xmlns="http://www.w3.org/2000/svg" width="49" height="59" viewBox="0 0 49 59" fill="none"><path opacity="0.1" d="M0.0869141 44.1068L24.0282 58.0941L47.9695 44.1068L24.0282 30.1196L0.0869141 44.1068Z" fill="url(#paint0_linear_2155_893)"></path><path d="M25.3154 38.8722L0.0869141 27.5452V37.4134L24.0282 51.3148L25.3154 38.8722Z" fill="url(#paint1_linear_2155_893)"></path><path d="M48.0545 37.3276V27.5452L24.0273 38.7006V51.4007L48.0545 37.3276Z" fill="url(#paint2_linear_2155_893)"></path><path d="M0.0869141 27.631L24.0282 41.5324L48.0553 27.631L24.0282 13.6438L0.0869141 27.631Z" fill="url(#paint3_linear_2155_893)"></path><path d="M25.4005 12.3566L12.8721 6.52148V15.6175L24.3708 22.3107L25.4005 12.3566Z" fill="url(#paint4_linear_2155_893)"></path><path d="M35.097 15.5315V6.43555L24.0273 12.0991V21.9674L35.097 15.5315Z" fill="url(#paint5_linear_2155_893)"></path><path d="M12.8721 6.52165L24.0275 12.8717L35.183 6.43583L24.0275 0L12.8721 6.52165Z" fill="url(#paint6_linear_2155_893)"></path><path d="M12.5294 19.8221L0.000976562 14.0728V22.9113L11.1564 29.3471L12.5294 19.8221Z" fill="url(#paint7_linear_2155_893)"></path><path d="M21.4536 23.3405V14.1587L11.1562 19.7364V29.3473L21.4536 23.3405Z" fill="url(#paint8_linear_2155_893)"></path><path d="M0.000976562 14.1587L11.0706 20.3371L21.4538 14.1587L11.0706 7.89453L0.000976562 14.1587Z" fill="url(#paint9_linear_2155_893)"></path><path d="M38.1003 19.8221L26.6016 14.0728V22.8255L37.757 29.0897L38.1003 19.8221Z" fill="url(#paint10_linear_2155_893)"></path><path d="M48.0542 23.0829V14.0728L37.7568 19.6505V29.0897L48.0542 23.0829Z" fill="url(#paint11_linear_2155_893)"></path><path d="M26.6016 14.0731L37.757 20.3373L48.0543 14.0731L37.757 7.80884L26.6016 14.0731Z" fill="url(#paint12_linear_2155_893)"></path><path d="M24.6282 27.2878L12.8721 21.7959V30.6344L24.0275 36.9845L24.6282 27.2878Z" fill="url(#paint13_linear_2155_893)"></path><path d="M34.3247 30.9777V21.7959L24.0273 27.4594V36.9845L34.3247 30.9777Z" fill="url(#paint14_linear_2155_893)"></path><path d="M12.8721 21.7959L23.9417 27.9744L34.3249 21.7959L23.9417 15.5317L12.8721 21.7959Z" fill="url(#paint15_linear_2155_893)"></path><defs><linearGradient id="paint0_linear_2155_893" x1="38.7755" y1="54.771" x2="9.8493" y2="33.8469" gradientUnits="userSpaceOnUse"><stop></stop><stop offset="1"></stop></linearGradient><linearGradient id="paint1_linear_2155_893" x1="25.3154" y1="46.2793" x2="-1.93392" y2="41.5427" gradientUnits="userSpaceOnUse"><stop stop-color="#001DAC"></stop><stop offset="1" stop-color="#000F57"></stop></linearGradient><linearGradient id="paint2_linear_2155_893" x1="24.0273" y1="29.2907" x2="49.4796" y2="31.7382" gradientUnits="userSpaceOnUse"><stop stop-color="#0082F8"></stop><stop offset="1" stop-color="#1C40F2"></stop></linearGradient><linearGradient id="paint3_linear_2155_893" x1="-0.154706" y1="27.5898" x2="47.6324" y2="27.5898" gradientUnits="userSpaceOnUse"><stop stop-color="#1C40F2"></stop><stop offset="0.9833" stop-color="#03F8FB"></stop></linearGradient><linearGradient id="paint4_linear_2155_893" x1="10.5556" y1="14.378" x2="23.0302" y2="14.378" gradientUnits="userSpaceOnUse"><stop stop-color="#989AAD"></stop><stop offset="1" stop-color="#98A0B7"></stop></linearGradient><linearGradient id="paint5_linear_2155_893" x1="38.0422" y1="14.1946" x2="38.2321" y2="14.1946" gradientUnits="userSpaceOnUse"><stop stop-color="#E7E9E9"></stop><stop offset="1" stop-color="#98AACD"></stop></linearGradient><linearGradient id="paint6_linear_2155_893" x1="30.8777" y1="11.4102" x2="17.4571" y2="1.70404" gradientUnits="userSpaceOnUse"><stop stop-color="#CDD3DB"></stop><stop offset="1" stop-color="#ACB0C2"></stop></linearGradient><linearGradient id="paint7_linear_2155_893" x1="-2.35008" y1="21.7245" x2="10.1626" y2="21.7245" gradientUnits="userSpaceOnUse"><stop stop-color="#989AAD"></stop><stop offset="1" stop-color="#98A0B7"></stop></linearGradient><linearGradient id="paint8_linear_2155_893" x1="24.1432" y1="21.7323" x2="24.3191" y2="21.7323" gradientUnits="userSpaceOnUse"><stop stop-color="#E7E9E9"></stop><stop offset="1" stop-color="#98AACD"></stop></linearGradient><linearGradient id="paint9_linear_2155_893" x1="17.3474" y1="18.9084" x2="4.40086" y2="9.54493" gradientUnits="userSpaceOnUse"><stop stop-color="#CDD3DB"></stop><stop offset="1" stop-color="#ACB0C2"></stop></linearGradient><linearGradient id="paint10_linear_2155_893" x1="24.4421" y1="21.5931" x2="35.9534" y2="21.5931" gradientUnits="userSpaceOnUse"><stop stop-color="#989AAD"></stop><stop offset="1" stop-color="#98A0B7"></stop></linearGradient><linearGradient id="paint11_linear_2155_893" x1="50.7437" y1="21.5813" x2="50.9197" y2="21.5813" gradientUnits="userSpaceOnUse"><stop stop-color="#E7E9E9"></stop><stop offset="1" stop-color="#98AACD"></stop></linearGradient><linearGradient id="paint12_linear_2155_893" x1="43.9414" y1="18.8614" x2="30.9833" y2="9.4897" gradientUnits="userSpaceOnUse"><stop stop-color="#CDD3DB"></stop><stop offset="1" stop-color="#ACB0C2"></stop></linearGradient><linearGradient id="paint13_linear_2155_893" x1="10.6604" y1="29.421" x2="22.4416" y2="29.421" gradientUnits="userSpaceOnUse"><stop stop-color="#989AAD"></stop><stop offset="1" stop-color="#98A0B7"></stop></linearGradient><linearGradient id="paint14_linear_2155_893" x1="37.0143" y1="29.3869" x2="37.1986" y2="29.3869" gradientUnits="userSpaceOnUse"><stop stop-color="#E7E9E9"></stop><stop offset="1" stop-color="#98AACD"></stop></linearGradient><linearGradient id="paint15_linear_2155_893" x1="30.2045" y1="26.5709" x2="17.2809" y2="17.2178" gradientUnits="userSpaceOnUse"><stop stop-color="#CDD3DB"></stop><stop offset="1" stop-color="#ACB0C2"></stop></linearGradient></defs></svg>