<svg xmlns="http://www.w3.org/2000/svg" width="46" height="60" viewBox="0 0 46 60" fill="none"><path opacity="0.05" fill-rule="evenodd" clip-rule="evenodd" d="M9.6173 57.2648L17.1173 59.1178L20.9997 56.0295C21.7938 56.0295 22.5879 56.0295 23.4702 56.0295L26.9114 59.206L34.5879 57.5295L33.4408 53.9119C34.1467 53.5589 34.8526 53.206 35.4702 52.7648L41.9997 53.6472L45.5291 49.5001L40.1467 47.4707C40.2349 46.9413 40.2349 46.5001 40.2349 45.9707L45.9702 44.0295L43.0585 39.7942L36.4408 40.5001C35.8232 40.1472 35.2055 39.7942 34.5879 39.5295L36.2644 35.9119L28.6761 33.9707L24.6173 37.3236C23.7349 37.2354 22.8526 37.2354 21.9702 37.3236L18.5291 34.0589L10.7644 35.7354L12.1761 39.3531C11.5585 39.706 10.8526 40.0589 10.2349 40.4119L3.70554 39.5295L0.264361 43.6766L5.91142 45.706C5.82318 46.2354 5.73495 46.6766 5.82318 47.206L0.0878906 49.1472L2.99965 53.3825L9.52907 52.6766C10.1467 53.1178 10.7644 53.4707 11.382 53.7354L9.6173 57.2648Z" fill="url(#paint0_linear_2283_182)"></path><path fill-rule="evenodd" clip-rule="evenodd" d="M9.6173 49.9411L17.1173 51.7941L20.9997 48.7058C21.7938 48.7058 22.5879 48.7058 23.4702 48.7058L26.9114 51.7941L34.5879 50.0294C34.5879 50.0294 34.6761 47.2058 34.7644 45.1764L41.9997 46.147L45.5291 42.0882V36.7941L45.7055 36.7058L45.882 27.5294L36.1761 28.4117V19.4117L28.6761 26.647L18.5291 26.7353L10.7644 19.3235V28.4117L0.176125 27.2647L0.0878906 32.7353V41.8235L2.91142 46.0588L9.52907 45.2647L9.6173 49.9411Z" fill="#74002C"></path><path fill-rule="evenodd" clip-rule="evenodd" d="M9.61765 40.853L17.1176 42.7059L21 39.6177C21.7941 39.6177 22.5882 39.6177 23.4706 39.6177L26.9118 42.7941L34.5882 41.1177L33.4412 37.5C34.1471 37.1471 34.8529 36.7941 35.4706 36.4412L42 37.3235L45.5294 33.1765L40.1471 31.1471C40.2353 30.6177 40.2353 30.1765 40.2353 29.6471L45.9706 27.7059L43.0588 23.4706L36.4412 24.1765C35.8235 23.8235 35.2059 23.4706 34.5882 23.1177L36.2647 19.5L28.7647 17.6471L24.7059 21C23.8235 20.9118 22.9412 20.9118 22.0588 21L18.5294 17.5588L10.6765 19.2353L12.0882 22.853C11.4706 23.2059 10.7647 23.5588 10.1471 23.9118L3.61765 23.0294L0.17647 27.2647L5.82353 29.2941C5.73529 29.8235 5.73529 30.2647 5.73529 30.7941L0 32.7353L2.91176 36.9706L9.44118 36.1765C10.0588 36.6177 10.6765 36.9706 11.2941 37.2353L9.61765 40.853Z" fill="#FF0766"></path><path fill-rule="evenodd" clip-rule="evenodd" d="M9.6173 32.4705L17.1173 34.3235L20.9997 31.2352C21.7938 31.2352 22.5879 31.2352 23.4702 31.2352L26.9114 34.3235L34.5879 32.647C34.5879 32.647 34.6761 29.8235 34.7644 27.8823L41.9997 28.8529L45.5291 24.7058V19.4117L45.7055 19.3235L45.882 10.147L36.1761 11.0294V1.85288L28.7644 9.08818L18.5291 9.17641L10.7644 1.76465V10.8529L0.176125 9.79406L0.0878906 15.2646V24.3529L2.91142 28.5882L9.52907 27.7941L9.6173 32.4705Z" fill="url(#paint1_linear_2283_182)"></path><path fill-rule="evenodd" clip-rule="evenodd" d="M9.6173 23.3824L17.1173 25.2353L20.9997 22.1471C21.7938 22.1471 22.5879 22.1471 23.4702 22.1471L26.9114 25.3235L34.5879 23.6471L33.4408 19.8529C34.1467 19.5 34.8526 19.1471 35.4702 18.7941L41.9997 19.6765L45.5291 15.5294L40.1467 13.5C40.2349 12.9706 40.2349 12.5294 40.2349 12L45.9702 10.0588L43.0585 5.82353L36.4408 6.52941C35.7349 6.08824 35.0291 5.73529 34.4114 5.47059L36.1761 1.85294L28.6761 0L24.6173 3.26471C23.7349 3.26471 22.8526 3.26471 21.9702 3.26471L18.5291 0.0882353L10.6761 1.76471L12.0879 5.38235C11.4702 5.73529 10.8526 6.08824 10.2349 6.44118L3.70554 5.55882L0.264361 9.79412L5.91142 11.8235C5.82318 12.3529 5.73495 12.7941 5.82318 13.3235L0.0878906 15.2647L2.99965 19.5L9.52907 18.7059C10.1467 19.1471 10.7644 19.5 11.382 19.7647L9.6173 23.3824Z" fill="url(#paint2_linear_2283_182)"></path><path opacity="0.6" fill-rule="evenodd" clip-rule="evenodd" d="M18.1767 9.70582C21.1767 8.11759 24.7943 8.11759 27.7943 9.70582C30.4414 11.2941 30.4414 13.7646 27.7943 15.2646C24.7943 16.8529 21.1767 16.8529 18.1767 15.2646C15.5296 13.7646 15.5296 11.2941 18.1767 9.70582Z" fill="#818696"></path><path fill-rule="evenodd" clip-rule="evenodd" d="M19.5889 10.5883C21.7066 9.52948 24.1772 9.52948 26.2948 10.5883C28.1477 11.6471 28.1477 13.4118 26.2948 14.4707C24.1772 15.5295 21.7066 15.5295 19.5889 14.4707C17.736 13.4118 17.736 11.6471 19.5889 10.5883Z" fill="#FF0766"></path><defs><linearGradient id="paint0_linear_2283_182" x1="28.3115" y1="46.6933" x2="-17.4148" y2="45.5525" gradientUnits="userSpaceOnUse"><stop></stop><stop offset="1"></stop></linearGradient><linearGradient id="paint1_linear_2283_182" x1="45.4704" y1="18.2306" x2="-14.6966" y2="17.6512" gradientUnits="userSpaceOnUse"><stop offset="0.36" stop-color="#E7E9E9"></stop><stop offset="0.53" stop-color="#B1B4C3"></stop><stop offset="0.67" stop-color="#8F92AA"></stop><stop offset="0.74" stop-color="#8285A1"></stop></linearGradient><linearGradient id="paint2_linear_2283_182" x1="28.3118" y1="12.7128" x2="-17.4146" y2="11.5808" gradientUnits="userSpaceOnUse"><stop offset="0.02" stop-color="#CDD3DB"></stop><stop offset="0.92" stop-color="#ACB0C2"></stop></linearGradient></defs></svg>