<svg xmlns="http://www.w3.org/2000/svg" width="56" height="56" viewBox="0 0 56 56" fill="none"><path d="M27.6181 44.349C36.5091 44.349 43.7166 37.1414 43.7166 28.2504C43.7166 19.3594 36.5091 12.1519 27.6181 12.1519C18.7271 12.1519 11.5195 19.3594 11.5195 28.2504C11.5195 37.1414 18.7271 44.349 27.6181 44.349Z" fill="url(#paint0_linear_1749_24452)"></path><path d="M55.2494 30.7513C54.8285 31.8915 53.9578 32.4061 52.796 32.5402C52.2439 32.6036 51.6889 32.6843 51.1498 32.8141C50.9725 32.8559 50.7419 33.0505 50.7001 33.2177C50.0889 35.6207 49.1562 37.8838 47.8762 40.0085C47.7955 40.1412 47.8257 40.4223 47.9151 40.5621C48.2957 41.1502 48.7267 41.7052 49.1245 42.2818C49.913 43.422 49.8251 44.4599 48.8564 45.4329C47.7018 46.5933 46.5457 47.7508 45.3839 48.904C44.4945 49.7862 43.4494 49.8972 42.4043 49.2024C41.7902 48.7944 41.2122 48.3331 40.5938 47.9353C40.441 47.8373 40.1397 47.7998 39.9956 47.8863C37.8665 49.1591 35.6034 50.0932 33.2004 50.7058C33.0375 50.7476 32.8487 50.9869 32.8083 51.1642C32.6613 51.8302 32.5748 52.5077 32.4609 53.1809C32.2375 54.5143 31.3928 55.235 30.0536 55.2364C28.4348 55.2379 26.816 55.2379 25.1972 55.2364C23.8523 55.235 22.999 54.5157 22.7755 53.1953C22.6617 52.5221 22.5781 51.8432 22.4267 51.1786C22.3835 50.9884 22.1759 50.7361 21.9986 50.6914C19.6143 50.0817 17.3671 49.1577 15.2553 47.8921C15.1097 47.8056 14.807 47.8315 14.6571 47.9281C14.0675 48.3043 13.514 48.7397 12.9374 49.1361C11.8058 49.9145 10.7636 49.8136 9.78771 48.8406C8.64173 47.6975 7.49719 46.5529 6.35409 45.4069C5.43297 44.4829 5.33207 43.4249 6.073 42.3409C6.47805 41.747 6.92492 41.1805 7.31124 40.5765C7.40782 40.4266 7.43088 40.1239 7.34295 39.9783C6.07732 37.8665 5.15044 35.6192 4.54213 33.235C4.49889 33.0649 4.2769 32.8559 4.10536 32.817C3.44084 32.667 2.76189 32.5762 2.08872 32.4696C0.729394 32.2533 0.00144149 31.4086 0 30.0378C0 28.419 0 26.8002 0.00144149 25.1814C0.00288298 23.8466 0.738043 22.9932 2.06133 22.7784C2.73451 22.6689 3.40624 22.542 4.0823 22.4526C4.38213 22.4123 4.50177 22.2797 4.57096 21.9899C5.14468 19.6158 6.06291 17.38 7.34871 15.3029C7.50728 15.0463 7.49719 14.8704 7.31844 14.6354C6.89464 14.0776 6.48814 13.5053 6.09173 12.9273C5.32775 11.813 5.42577 10.7694 6.37427 9.82087C7.53034 8.66191 8.68642 7.5044 9.84682 6.34976C10.7535 5.44883 11.8044 5.3436 12.8696 6.06146C13.465 6.46364 14.0488 6.886 14.6239 7.317C14.8517 7.4871 15.0261 7.52602 15.2913 7.36169C17.3685 6.07588 19.6028 5.15333 21.9798 4.58682C22.2984 4.51042 22.4195 4.36195 22.457 4.04914C22.5233 3.49705 22.666 2.95361 22.7208 2.40152C22.8361 1.23968 23.3838 0.419473 24.4923 0C26.5796 0 28.6655 0 30.7527 0C31.8656 0.415149 32.4047 1.24256 32.5229 2.40008C32.5791 2.95217 32.7218 3.49561 32.7881 4.0477C32.8256 4.36195 32.9438 4.50321 33.2653 4.58105C35.6394 5.15188 37.8723 6.07588 39.9509 7.3588C40.2118 7.52025 40.3862 7.49575 40.6183 7.32133C41.192 6.88888 41.7758 6.46796 42.3711 6.06579C43.4364 5.34648 44.4873 5.44739 45.394 6.34688C46.5543 7.50007 47.7119 8.65615 48.8651 9.81655C49.8136 10.7694 49.913 11.813 49.1562 12.923C48.7815 13.4722 48.4023 14.0199 47.993 14.5432C47.7638 14.8373 47.7364 15.0592 47.9425 15.3922C49.1851 17.4089 50.0903 19.5725 50.6338 21.8804C50.7275 22.2782 50.9019 22.4454 51.3127 22.4743C51.8115 22.5103 52.303 22.6487 52.8018 22.7049C53.965 22.8346 54.8328 23.3536 55.2537 24.4938C55.2494 26.5782 55.2494 28.6655 55.2494 30.7513ZM30.3116 53.0728C30.4933 52.0176 30.6677 50.9913 30.845 49.9664C30.9863 49.149 31.1809 48.9429 31.9967 48.7714C34.6275 48.2193 37.0737 47.2232 39.3325 45.763C40.2449 45.1734 40.4309 45.1821 41.3102 45.8091C42.1117 46.3814 42.9117 46.9536 43.6771 47.4985C44.9687 46.2084 46.2113 44.9644 47.5 43.6771C46.9335 42.88 46.3424 42.0483 45.75 41.2165C45.2051 40.4496 45.1907 40.2118 45.7067 39.4204C47.2045 37.1212 48.2265 34.6275 48.7815 31.9405C48.9342 31.2039 49.1822 30.9776 49.9173 30.8536C50.9725 30.6735 52.0262 30.4904 53.0742 30.3088C53.0742 28.4795 53.0742 26.7223 53.0742 24.9277C52.0133 24.7446 50.9725 24.5644 49.9303 24.3871C49.188 24.2603 48.9342 24.0354 48.7843 23.3089C48.2279 20.6032 47.1987 18.095 45.6851 15.7829C45.1921 15.029 45.2109 14.781 45.7442 14.0315C46.3367 13.1997 46.9291 12.3665 47.5504 11.4944C46.3237 10.2749 45.133 9.07994 43.9207 7.90657C43.8371 7.82585 43.5532 7.84891 43.4335 7.92963C42.6594 8.4529 41.907 9.00931 41.1444 9.54843C40.4828 10.0155 40.1887 10.0299 39.5271 9.59744C37.1847 8.06514 34.6505 7.0042 31.9045 6.45355C31.2169 6.31517 30.9776 6.04417 30.8565 5.33928C30.6749 4.28267 30.4933 3.2275 30.3116 2.16512C28.4939 2.16512 26.7367 2.16512 24.9306 2.16512C24.7489 3.21885 24.5702 4.25816 24.3914 5.29747C24.2574 6.07444 24.044 6.30219 23.2714 6.46364C20.8396 6.97104 18.5448 7.8345 16.4387 9.15202C14.7911 10.1827 14.9353 10.1466 13.3857 9.03526C12.7644 8.58984 12.1373 8.15162 11.5939 7.76819C10.2836 9.0785 9.04102 10.3196 7.76098 11.5997C8.32893 12.3968 8.93435 13.243 9.53545 14.0906C10.0169 14.7695 10.0328 15.0549 9.57437 15.754C8.04928 18.0792 7.00564 20.6018 6.45211 23.3276C6.31084 24.0224 6.05137 24.2646 5.34649 24.3886C4.28987 24.5731 3.23182 24.7504 2.17232 24.9291C2.17232 26.7526 2.17232 28.5242 2.17232 30.3174C3.24768 30.499 4.29276 30.6735 5.33495 30.8551C6.04705 30.9791 6.3094 31.2183 6.44778 31.9059C7.00132 34.6318 8.04207 37.1544 9.56717 39.481C10.0385 40.1988 10.0198 40.4669 9.50662 41.1877C8.97616 41.9358 8.43271 42.6739 7.91954 43.4335C7.84026 43.5517 7.82152 43.8371 7.90369 43.9207C9.07994 45.1316 10.2764 46.3194 11.4988 47.5432C12.3954 46.9046 13.2675 46.305 14.1136 45.6736C14.6455 45.2772 15.1342 45.2498 15.6935 45.6217C18.0388 47.1814 20.5974 48.2351 23.3608 48.793C24.0152 48.9256 24.2632 49.2096 24.377 49.877C24.5587 50.9365 24.7388 51.9945 24.9219 53.0728C26.7252 53.0728 28.4824 53.0728 30.3116 53.0728Z" fill="#B1B1B1"></path><path d="M18.9912 27.6146C19.9008 28.5256 20.7614 29.3861 21.6205 30.2482C21.7848 30.4139 21.9578 30.5739 22.0991 30.7584C22.4407 31.2082 22.3888 31.7819 21.9909 32.1769C21.619 32.5459 21.0511 32.5963 20.6172 32.2547C20.3087 32.0111 20.0406 31.717 19.761 31.4388C18.7952 30.4759 17.8279 29.513 16.8679 28.5443C16.2178 27.887 16.2207 27.3522 16.8794 26.6877C18.0312 25.5287 19.1858 24.3726 20.3462 23.2223C20.9069 22.6659 21.5426 22.6198 22.0068 23.0796C22.4753 23.5438 22.4349 24.1737 21.8742 24.7402C20.9387 25.6844 19.9945 26.6156 18.9912 27.6146Z" fill="white"></path><path d="M36.2429 27.6003C35.2482 26.6114 34.2824 25.6989 33.3815 24.7245C33.1321 24.4549 32.9361 23.9922 32.9707 23.6434C33.001 23.3507 33.3556 23.0149 33.6511 22.8448C34.0432 22.6185 34.4583 22.7958 34.7754 23.1086C35.5308 23.8509 36.2775 24.602 37.027 25.3501C37.5099 25.8315 38.0015 26.3058 38.47 26.8017C38.9759 27.3365 38.9918 27.9044 38.4815 28.4248C37.262 29.6688 36.031 30.8998 34.7855 32.1179C34.2897 32.6022 33.6929 32.5979 33.2489 32.1683C32.7862 31.7215 32.7819 31.1117 33.282 30.5942C34.1066 29.7437 34.9542 28.9149 35.7902 28.0759C35.9286 27.9404 36.0584 27.7963 36.2429 27.6003Z" fill="white"></path><path d="M24.3751 31.2499C24.4198 31.1417 24.4904 30.901 24.613 30.6877C25.9896 28.289 27.3734 25.8933 28.7601 23.499C29.1652 22.7998 29.7476 22.5822 30.3198 22.8964C30.9123 23.2222 31.0334 23.8608 30.6197 24.5801C29.2301 26.9931 27.8376 29.4033 26.4393 31.812C26.1164 32.3685 25.6451 32.5832 25.1449 32.4391C24.675 32.3021 24.3679 31.8841 24.3751 31.2499Z" fill="white"></path><defs><linearGradient id="paint0_linear_1749_24452" x1="11.5195" y1="14.5077" x2="45.6308" y2="17.7645" gradientUnits="userSpaceOnUse"><stop stop-color="#0082F8"></stop><stop offset="1" stop-color="#1C40F2"></stop></linearGradient></defs></svg>