<svg xmlns="http://www.w3.org/2000/svg" width="102" height="102" viewBox="0 0 102 102" fill="none"><circle cx="51" cy="51" r="51" fill="#FFC02D"></circle><path d="M43.0825 42.3718C42.8855 42.3718 42.688 42.3267 42.5061 42.2358L31.7126 36.839C31.2759 36.6206 31 36.1743 31 35.686C31 35.1977 31.2759 34.7514 31.7126 34.533L42.506 29.1363C42.9057 28.9365 43.3801 28.9579 43.7602 29.1928C44.1403 29.4277 44.3716 29.8426 44.3716 30.2893V41.0829C44.3716 41.5297 44.1403 41.9446 43.7602 42.1794C43.5533 42.3073 43.3182 42.3718 43.0825 42.3718ZM35.1715 35.6861L41.7935 38.9971V32.3751L35.1715 35.6861Z" fill="white"></path><path d="M59.3397 42.3717C59.1039 42.3717 58.8689 42.3071 58.6619 42.1792C58.2818 41.9443 58.0505 41.5294 58.0505 41.0826V30.2891C58.0505 29.8423 58.2818 29.4274 58.6619 29.1925C59.0417 28.9577 59.5162 28.9363 59.916 29.1361L70.7096 34.5329C71.1463 34.7512 71.4222 35.1976 71.4222 35.6859C71.4222 36.1742 71.1463 36.6205 70.7096 36.8389L59.916 42.2356C59.7341 42.3266 59.5366 42.3717 59.3397 42.3717ZM60.6286 32.3749V38.9969L67.2506 35.6859L60.6286 32.3749Z" fill="white"></path><path d="M48.4314 73C48.0895 73 47.7616 72.8642 47.5199 72.6224C47.2782 72.3807 47.1423 72.0528 47.1423 71.7109V68.8144C44.3595 65.89 42.774 61.9429 42.7743 57.8978L42.7745 55.2137C42.7745 53.0381 44.544 51.2682 46.7187 51.2682H47.2668L47.2664 38.8924C47.2666 36.7172 49.0361 34.9478 51.211 34.9478C53.3857 34.9478 55.155 36.7167 55.1552 38.891C55.1553 40.6753 55.1553 42.9943 55.1554 45.165C55.5815 45.0071 56.0419 44.9208 56.5222 44.9208C58.0214 44.9208 59.3279 45.7618 59.9953 46.9971C60.5441 46.7069 61.1693 46.5425 61.8323 46.5425C63.332 46.5425 64.6392 47.3835 65.3067 48.6187C65.8556 48.3285 66.4809 48.164 67.1438 48.164C69.3197 48.164 71.09 49.9343 71.09 52.1102V58.3989C71.09 62.1092 69.8723 65.7574 67.6523 68.7243V71.7107C67.6523 72.4226 67.0751 72.9997 66.3632 72.9997L48.4314 73ZM46.7187 53.8463C45.9654 53.8463 45.3526 54.4597 45.3526 55.2138L45.3524 57.8979C45.3522 61.4381 46.8031 64.8887 49.3331 67.3649C49.5808 67.6073 49.7205 67.9395 49.7205 68.2862V70.422H65.0742V68.2862C65.0742 67.9959 65.1721 67.7142 65.3522 67.4865C67.3897 64.9107 68.5118 61.6835 68.5118 58.3992V52.1105C68.5118 51.3561 67.8981 50.7424 67.1438 50.7424C66.391 50.7424 65.7785 51.3548 65.7785 52.1077V55.7011C65.7785 56.413 65.2014 56.9902 64.4894 56.9902C63.7775 56.9902 63.2004 56.413 63.2004 55.7011V50.4887C63.2004 49.7344 62.5866 49.1207 61.8323 49.1207C61.0794 49.1207 60.467 49.7332 60.467 50.486V53.2685C60.467 53.9805 59.8898 54.5576 59.1779 54.5576C58.466 54.5576 57.8888 53.9805 57.8888 53.2685L57.8888 48.8672C57.8888 48.1128 57.2757 47.4991 56.5222 47.4991C55.7687 47.4991 55.1557 48.1122 55.1556 48.8657L55.1555 51.647C55.1555 52.3589 54.5783 52.9361 53.8664 52.9361C53.8664 52.9361 53.8664 52.9361 53.8664 52.9361C53.1545 52.9361 52.5774 52.3589 52.5774 51.647C52.5774 51.647 52.5774 43.4915 52.577 38.8913C52.5769 38.1385 51.9642 37.5261 51.211 37.5261C50.4575 37.5261 49.8446 38.139 49.8446 38.8926L49.8449 52.5573C49.8449 52.8993 49.7091 53.2271 49.4673 53.4689C49.2256 53.7106 48.8977 53.8465 48.5558 53.8465H46.7187V53.8463Z" fill="white"></path></svg>