<svg xmlns="http://www.w3.org/2000/svg" width="103" height="23" viewBox="0 0 103 23" fill="none"><path d="M24.1758 14.1088L26.8906 13.3797C26.9357 13.9674 27.2146 14.5148 27.668 14.9019C28.1991 15.3351 28.8764 15.5554 29.5653 15.5176C30.0789 15.5464 30.5883 15.4099 31.015 15.128C31.1753 15.0236 31.3073 14.8806 31.3983 14.7137C31.4902 14.5469 31.5377 14.3595 31.5394 14.1696C31.5403 14.0126 31.5052 13.8572 31.4384 13.7142C31.3707 13.572 31.2722 13.4454 31.1494 13.3443C30.8146 13.0846 30.4154 12.9169 29.9929 12.861L28.0438 12.4311C27.0417 12.2487 26.1248 11.7571 25.4275 11.0256C24.8246 10.3623 24.4973 9.50002 24.5123 8.60984C24.5115 8.05419 24.6376 7.50595 24.8797 7.00373C25.1227 6.50233 25.4768 6.06094 25.9152 5.71078C26.8647 4.89869 28.0897 4.46716 29.3482 4.50086C29.9879 4.49346 30.6242 4.58059 31.238 4.75813C31.7306 4.8954 32.1975 5.10911 32.62 5.39269C32.9682 5.63927 33.2772 5.93518 33.5352 6.27218C33.7632 6.55987 33.9528 6.87386 34.1006 7.2084C34.2175 7.48457 34.3002 7.77308 34.3469 8.06817L31.7674 8.79807C31.7382 8.58847 31.6764 8.38462 31.5828 8.19475C31.476 7.97611 31.339 7.77226 31.1753 7.59061C30.9732 7.37114 30.7211 7.20346 30.4396 7.10072C30.0914 6.9692 29.7215 6.90509 29.3482 6.91249C28.8572 6.89523 28.3762 7.04894 27.9904 7.34813C27.825 7.46814 27.6898 7.62431 27.5962 7.80432C27.5027 7.98433 27.4526 8.18324 27.4501 8.38544C27.4484 8.54491 27.4802 8.70354 27.5419 8.8515C27.6046 8.99945 27.6973 9.13261 27.8142 9.24357C28.0822 9.49509 28.4229 9.66031 28.7887 9.71702L30.7745 10.1181C31.8108 10.285 32.7695 10.7634 33.5194 11.4859C34.1457 12.1245 34.4889 12.981 34.4739 13.8679C34.4739 14.4022 34.3686 14.9315 34.1624 15.4264C33.9494 15.9376 33.6463 16.4078 33.2672 16.8147C32.8371 17.2643 32.3102 17.6128 31.724 17.8355C31.0434 18.101 30.316 18.2334 29.5837 18.2235C28.7603 18.2366 27.9419 18.0944 27.1728 17.8068C26.5374 17.5774 25.9628 17.21 25.4919 16.7325C25.1152 16.3404 24.7996 15.8957 24.5557 15.4132C24.3545 15.0031 24.2251 14.5625 24.1758 14.1088Z" fill="#C0C6D9"></path><path d="M34.4844 7.615V4.90664H35.1591C35.438 4.92636 35.7178 4.88691 35.9791 4.78992C36.2405 4.69293 36.4785 4.54251 36.6748 4.34606C37.0305 3.93672 37.2142 3.40985 37.1883 2.87228V0.916016H40.0226V4.90581H42.7499V7.61417H40.0226V13.64C40.0017 13.8635 40.0259 14.0896 40.0952 14.3033C40.1645 14.5186 40.2764 14.7159 40.4242 14.8869C40.7816 15.1737 41.2393 15.3118 41.6985 15.2716C42.0618 15.2732 42.4234 15.2379 42.7791 15.1672V17.6972C42.1612 17.9125 41.5065 18.0087 40.8509 17.9799C40.3232 18.0087 39.7954 17.9322 39.2986 17.7572C38.8017 17.5804 38.3457 17.3076 37.9591 16.9541C37.595 16.5785 37.3144 16.1322 37.1324 15.6456C36.9512 15.1581 36.8718 14.6403 36.9027 14.1216V7.61417H34.4844V7.615Z" fill="#C0C6D9"></path><path d="M43.5309 14.3585C43.5083 13.8629 43.5943 13.3689 43.7831 12.9086C43.9718 12.4475 44.259 12.0332 44.6248 11.6913C45.429 10.9926 46.4319 10.5529 47.4983 10.432L50.872 9.92652C51.5216 9.84596 51.8465 9.55499 51.8465 9.05442C51.8532 8.80125 51.8006 8.55055 51.6928 8.31958C51.5851 8.08943 51.4256 7.88723 51.2252 7.72695C50.6857 7.34556 50.0252 7.16226 49.363 7.21158C48.669 7.17624 47.9885 7.40803 47.4665 7.85764C46.9956 8.28753 46.7058 8.87523 46.654 9.50485L43.8048 8.88345C43.8641 8.2826 44.0436 7.699 44.3325 7.16637C44.6215 6.63374 45.0148 6.16194 45.4899 5.7789C46.563 4.90269 47.9283 4.44815 49.3212 4.5024C50.2056 4.48678 51.0832 4.6224 51.9191 4.90269C52.5914 5.12298 53.1985 5.50108 53.6895 6.0033C54.1179 6.45784 54.4452 6.99376 54.6548 7.57735C54.8694 8.18889 54.9755 8.83167 54.9688 9.47855V15.7501C54.9571 16.4447 55.0147 17.1384 55.1392 17.8223H52.1805C52.0536 17.2831 52.0026 16.7291 52.0302 16.1767C51.6352 16.7784 51.0974 17.2765 50.4636 17.6283C49.7045 18.045 48.8436 18.2513 47.9743 18.225C46.7918 18.2768 45.6369 17.8675 44.7592 17.0874C44.3684 16.7447 44.057 16.3238 43.8448 15.8537C43.6327 15.3827 43.5259 14.8739 43.5309 14.3585ZM46.654 14.1382C46.6507 14.3594 46.6933 14.5788 46.781 14.7827C46.8686 14.9865 46.9989 15.1698 47.1626 15.321C47.353 15.4887 47.5759 15.6186 47.8173 15.7024C48.0586 15.7855 48.315 15.8208 48.5705 15.806C48.9947 15.8109 49.4181 15.7526 49.8248 15.6301C50.2014 15.5142 50.5538 15.3301 50.8619 15.0868C51.1943 14.8123 51.4456 14.4531 51.5884 14.0503C51.7713 13.5407 51.8582 13.0031 51.8465 12.4623V11.8787L48.4202 12.3949C47.9475 12.4557 47.5008 12.6513 47.1384 12.9579C46.9755 13.1083 46.8478 13.2908 46.7643 13.4946C46.6807 13.6977 46.6423 13.9171 46.6532 14.135V14.1382H46.654Z" fill="#C0C6D9"></path><path d="M57.0781 17.8234V4.90547H60.0969V6.51487C60.4693 5.87374 61.0372 5.36248 61.7186 5.05178C62.4201 4.70903 63.1917 4.53066 63.9741 4.52984C64.8109 4.51422 65.6359 4.71149 66.3733 5.10192C67.0681 5.47427 67.6209 6.05951 67.9474 6.76804C68.3791 6.04636 69.0054 5.45619 69.7561 5.06082C70.506 4.66628 71.3528 4.48216 72.2037 4.52984C72.7816 4.52573 73.3578 4.62436 73.9006 4.82081C74.4342 5.01726 74.9244 5.31234 75.3453 5.6888C75.8104 6.11704 76.1636 6.64803 76.3774 7.23655C76.6413 7.9418 76.7707 8.68896 76.7582 9.43941V17.8218H73.8196V9.90628C73.8555 9.20597 73.6309 8.51635 73.1883 7.96646C72.9486 7.71329 72.6538 7.51602 72.3273 7.38944C71.9983 7.26368 71.6467 7.21107 71.296 7.23655C70.9269 7.22423 70.5595 7.29163 70.2196 7.43465C69.8797 7.57767 69.5758 7.7922 69.3319 8.06345C68.8225 8.62649 68.5503 9.3605 68.5754 10.1142V17.8218H65.4522V9.90628C65.4856 9.20926 65.2643 8.52292 64.8276 7.97303C64.5887 7.71658 64.2923 7.51684 63.9641 7.38944C63.6351 7.26204 63.2818 7.20943 62.9294 7.23573C62.5578 7.22094 62.1896 7.28587 61.848 7.42561C61.5057 7.56534 61.1992 7.77741 60.9495 8.04619C60.4426 8.61663 60.1762 9.35804 60.2063 10.1159V17.8242L57.0781 17.8234Z" fill="#C0C6D9"></path><path d="M79.0078 22.8668V4.90615H82.0525V6.63638C82.4366 6.00675 82.9986 5.50043 83.67 5.17904C84.46 4.78614 85.3351 4.59052 86.2203 4.60778C87.0587 4.56832 87.8954 4.7171 88.667 5.04342C89.4378 5.36974 90.1234 5.86455 90.6704 6.49007C91.791 7.86192 92.3664 9.58722 92.2896 11.3446C92.3614 13.1241 91.7576 14.8658 90.5969 16.2328C90.0441 16.8624 89.3543 17.3605 88.5777 17.6926C87.8011 18.0238 86.9593 18.1808 86.1134 18.1488C85.2867 18.1652 84.4658 17.9942 83.7151 17.6498C83.0829 17.3687 82.5376 16.9306 82.1301 16.3783V22.8643L79.0078 22.8668ZM82.1051 11.347C82.0525 12.4222 82.4032 13.4784 83.0913 14.3143C83.4011 14.6784 83.7894 14.9694 84.2287 15.1642C84.6679 15.359 85.1481 15.4544 85.6299 15.4412C86.1126 15.456 86.5936 15.3607 87.0353 15.1667C87.4762 14.9735 87.8671 14.6834 88.1794 14.3209C88.8691 13.4825 89.2199 12.4238 89.1664 11.347C89.2182 10.2892 88.8691 9.24857 88.1861 8.42743C87.8712 8.06659 87.4771 7.77972 87.0345 7.58821C86.5927 7.39669 86.1117 7.30545 85.6274 7.32107C85.1464 7.30792 84.6679 7.40162 84.2287 7.59478C83.7894 7.78794 83.3986 8.07563 83.0888 8.43647C82.4065 9.2535 82.0558 10.2883 82.1051 11.3454V11.347Z" fill="#C0C6D9"></path><path d="M92.5195 14.1088L95.2343 13.3797C95.2794 13.9674 95.5592 14.5148 96.0118 14.9019C96.5437 15.3351 97.221 15.5554 97.9099 15.5176C98.4235 15.5464 98.9329 15.4091 99.3596 15.128C99.5199 15.0236 99.6518 14.8806 99.7429 14.7137C99.8347 14.5469 99.8832 14.3595 99.8848 14.1696C99.8848 14.0126 99.8506 13.8572 99.7838 13.7142C99.7153 13.572 99.6176 13.4454 99.4949 13.3443C99.1608 13.0846 98.76 12.9169 98.3375 12.861L96.3884 12.4311C95.3863 12.2487 94.4694 11.7571 93.773 11.0256C93.1692 10.3623 92.8419 9.50002 92.8561 8.60984C92.8561 8.05419 92.9813 7.50595 93.2235 7.00373C93.4665 6.50233 93.8206 6.06094 94.259 5.71078C95.2093 4.89869 96.4335 4.46716 97.6911 4.50086C98.3316 4.49346 98.9671 4.58059 99.5817 4.75813C100.074 4.89458 100.54 5.10911 100.963 5.39269C101.312 5.63927 101.62 5.936 101.88 6.27218C102.106 6.55987 102.297 6.87386 102.444 7.2084C102.56 7.48457 102.643 7.77308 102.691 8.06817L100.111 8.79807C100.083 8.58847 100.021 8.38462 99.9274 8.19475C99.8197 7.97611 99.6811 7.77308 99.5191 7.59061C99.317 7.37114 99.0648 7.20346 98.7834 7.10072C98.4352 6.9692 98.0644 6.90509 97.6911 6.91249C97.2018 6.89523 96.7208 7.04894 96.3341 7.34813C96.1696 7.46814 96.0343 7.62349 95.94 7.80432C95.8464 7.98433 95.7955 8.18324 95.7938 8.38544C95.7922 8.54491 95.8231 8.70354 95.8849 8.8515C95.9483 8.99945 96.041 9.13261 96.1571 9.24357C96.426 9.49509 96.7659 9.66031 97.1325 9.71702L99.1174 10.1181C100.155 10.285 101.114 10.7634 101.864 11.4859C102.489 12.1245 102.833 12.981 102.818 13.8679C102.818 14.4022 102.712 14.9315 102.506 15.4264C102.293 15.9384 101.99 16.4078 101.611 16.8147C101.181 17.2643 100.654 17.6128 100.068 17.8355C99.3888 18.101 98.6606 18.2334 97.9283 18.2235C97.1049 18.2366 96.2849 18.0953 95.5158 17.8068C94.8794 17.5774 94.3057 17.21 93.8356 16.7325C93.459 16.3404 93.1433 15.8957 92.8995 15.4132C92.6999 15.0031 92.5705 14.5617 92.5195 14.1088Z" fill="#C0C6D9"></path><path d="M1.49944 4.66998C1.5128 4.63463 1.52282 4.59847 1.52867 4.56148C1.62387 3.89816 1.97042 3.29566 2.49986 2.87399C2.8748 2.58055 3.32323 2.3915 3.79755 2.32574C3.82928 2.32163 3.86018 2.31342 3.88941 2.30273C3.98294 2.29369 4.07647 2.28876 4.16999 2.28876C4.81634 2.28465 5.4418 2.51397 5.92865 2.93235C6.41549 3.35073 6.72864 3.93021 6.81132 4.56066C6.81967 4.66094 6.86727 4.75382 6.94242 4.8204C7.01841 4.8878 7.11695 4.92396 7.21883 4.92314H7.3157C7.41758 4.92479 7.51695 4.88862 7.59211 4.82122C7.6681 4.75382 7.71486 4.66094 7.72321 4.56066C7.80171 3.93186 8.11235 3.3532 8.59586 2.934C9.0802 2.5148 9.70316 2.28547 10.347 2.28876C10.9933 2.28465 11.6188 2.51397 12.1057 2.93235C12.5925 3.35073 12.9065 3.93021 12.9883 4.56066C12.9967 4.66094 13.0434 4.75382 13.1194 4.8204C13.1954 4.8878 13.294 4.92396 13.3958 4.92314H13.471C13.5737 4.92479 13.6722 4.88862 13.7482 4.82122C13.8242 4.75382 13.871 4.66094 13.8793 4.56066C13.9612 3.93268 14.2727 3.35648 14.7553 2.93811C15.2388 2.51973 15.8601 2.28876 16.5031 2.28876C17.1987 2.28876 17.866 2.55589 18.3637 3.03428C18.8505 3.52416 19.1236 4.18173 19.1227 4.86643C19.1227 5.49934 18.8881 6.11005 18.4622 6.58515C18.0371 7.06024 17.4501 7.36601 16.8113 7.44574C16.7094 7.45396 16.6142 7.49999 16.5466 7.57479C16.4772 7.64959 16.4405 7.74658 16.4422 7.84768V7.92083C16.4405 8.02111 16.4781 8.1181 16.5466 8.1929C16.615 8.26688 16.7094 8.31291 16.8113 8.32195C17.4526 8.4025 18.0422 8.71074 18.4672 9.18912C18.8931 9.6675 19.1261 10.2831 19.1219 10.9177C19.1252 11.5514 18.8914 12.1646 18.4655 12.6405C18.0397 13.1156 17.4509 13.4206 16.8113 13.4978C16.7094 13.5061 16.6142 13.5521 16.5466 13.6261C16.4772 13.7009 16.4405 13.7979 16.4422 13.899V13.9943C16.4413 14.0946 16.4781 14.1916 16.5466 14.2664C16.615 14.3403 16.7094 14.3864 16.8113 14.3946C17.4526 14.476 18.0422 14.7842 18.4672 15.2626C18.8931 15.7401 19.1261 16.3558 19.1219 16.9912C19.1219 17.0767 19.1177 17.1613 19.1094 17.2452C19.0952 17.2805 19.086 17.3167 19.0793 17.3545C18.985 18.0178 18.6384 18.6203 18.109 19.042C17.734 19.3354 17.2856 19.5245 16.8104 19.5894C16.7795 19.5943 16.7486 19.6017 16.7194 19.6108C16.6259 19.6214 16.5315 19.6264 16.438 19.6264C15.7916 19.6297 15.1662 19.4012 14.6802 18.9828C14.1933 18.5636 13.8802 17.9849 13.7975 17.3553C13.7883 17.255 13.7416 17.1621 13.6664 17.0947C13.5904 17.0282 13.4919 16.9912 13.39 16.9928H13.2923C13.1896 16.9912 13.091 17.0273 13.015 17.0947C12.9399 17.1621 12.8931 17.255 12.8839 17.3553C12.8054 17.9841 12.4948 18.5628 12.0113 18.982C11.5278 19.4012 10.904 19.6305 10.2602 19.6272C9.61381 19.6305 8.98834 19.402 8.5015 18.9836C8.01465 18.5644 7.7015 17.9857 7.61883 17.3561C7.61048 17.2558 7.56288 17.163 7.48772 17.0956C7.41173 17.029 7.31319 16.992 7.21131 16.9936H7.13616C7.03344 16.992 6.93491 17.0282 6.85891 17.0956C6.78292 17.163 6.73616 17.2558 6.72781 17.3561C6.64681 17.9841 6.33533 18.5603 5.85266 18.9787C5.36915 19.397 4.74786 19.628 4.10402 19.628C3.40757 19.6288 2.73785 19.3609 2.23931 18.8817C1.75247 18.3918 1.4794 17.7342 1.48024 17.0495C1.48024 16.4158 1.71489 15.8051 2.14078 15.33C2.56583 14.8549 3.15288 14.5491 3.79171 14.4694C3.89358 14.4612 3.98878 14.4151 4.05726 14.3412C4.12573 14.2655 4.16248 14.1694 4.16164 14.0683V13.9943C4.16248 13.894 4.12573 13.797 4.05726 13.7231C3.98878 13.6483 3.89442 13.603 3.79254 13.594C3.15121 13.5126 2.56249 13.2044 2.1366 12.726C1.71072 12.2485 1.47773 11.6328 1.48191 10.9974C1.4794 10.3637 1.71238 9.75052 2.13827 9.27542C2.56416 8.80033 3.15288 8.49456 3.79254 8.4173C3.89442 8.40908 3.98962 8.36387 4.05809 8.28907C4.12657 8.2151 4.16331 8.11728 4.16248 8.01618V7.92083C4.16331 7.82055 4.12657 7.72356 4.05809 7.64876C3.98962 7.57479 3.89526 7.52876 3.79338 7.51972C3.15204 7.43916 2.56332 7.13011 2.13744 6.65172C1.71155 6.17334 1.47857 5.55852 1.48274 4.92314C1.48274 4.83766 1.48692 4.75382 1.4961 4.66998H1.49944ZM3.79922 1.48406C3.76665 1.47584 3.73325 1.47008 3.69985 1.4668C2.81551 1.58763 2.01134 2.03231 1.446 2.71207C1.01928 3.21182 0.744539 3.82007 0.654352 4.46613C0.656857 4.49408 0.661033 4.52203 0.667714 4.54915C0.656023 4.66094 0.650177 4.77272 0.650177 4.88451C0.655188 5.50591 0.829718 6.11498 1.15372 6.64844C1.47773 7.18189 1.94119 7.62082 2.49484 7.92001C1.94036 8.21921 1.47773 8.65813 1.15289 9.19158C0.828882 9.72504 0.655188 10.3341 0.649343 10.9555C0.654353 11.5777 0.828882 12.186 1.15289 12.7194C1.4769 13.2521 1.94036 13.6918 2.49401 13.991C1.93702 14.2861 1.47022 14.7242 1.14537 15.2585C0.820532 15.7928 0.649342 16.4043 0.648507 17.0265C0.648507 17.1227 0.652682 17.2172 0.660197 17.3134C0.649342 17.3578 0.646002 17.4022 0.650177 17.4474C0.752891 18.2069 1.10863 18.9096 1.66061 19.4505C2.21009 19.9938 2.92574 20.3423 3.69734 20.4442C3.74327 20.4483 3.7892 20.4442 3.83513 20.4335C3.93116 20.4418 4.02803 20.4451 4.12657 20.4451C4.75955 20.4451 5.38084 20.2766 5.92447 19.9568C6.4681 19.6371 6.91403 19.1801 7.21382 18.6318C7.51779 19.1768 7.96371 19.6321 8.50651 19.9502C9.0493 20.27 9.66892 20.4401 10.3011 20.4451C10.9332 20.4401 11.5528 20.27 12.0956 19.9502C12.6384 19.6313 13.0852 19.1768 13.3892 18.6318C13.6931 19.1768 14.1399 19.6321 14.6827 19.9502C15.2255 20.27 15.8451 20.4401 16.4764 20.4451C16.5883 20.4451 16.7019 20.4401 16.8079 20.4303C16.8405 20.4385 16.8739 20.4434 16.9073 20.4467C17.79 20.325 18.5933 19.8812 19.157 19.2022C19.5837 18.7025 19.8584 18.0942 19.9495 17.4474C19.9478 17.4194 19.9428 17.3915 19.9361 17.3635C19.9478 17.2526 19.9528 17.1424 19.9528 17.0282C19.9478 16.4068 19.7741 15.7985 19.4501 15.2642C19.1261 14.73 18.6626 14.2919 18.109 13.9927C18.6635 13.6935 19.1261 13.2554 19.4501 12.7211C19.7741 12.1868 19.9478 11.5777 19.9528 10.9572C19.9478 10.3358 19.7741 9.72668 19.4501 9.19323C19.1261 8.65978 18.6626 8.22085 18.109 7.92165C18.666 7.62657 19.1328 7.18764 19.4568 6.65419C19.7816 6.11992 19.9528 5.50838 19.9528 4.88615C19.9528 4.78998 19.9495 4.69381 19.9419 4.59929C19.952 4.5549 19.9553 4.51052 19.9528 4.46531C19.8501 3.70582 19.4943 3.00222 18.9415 2.46219C18.3929 1.91887 17.6772 1.56954 16.9056 1.46844C16.8597 1.46515 16.8138 1.46844 16.7687 1.47913C16.6726 1.47091 16.5749 1.46762 16.4764 1.46762C15.8434 1.46762 15.2221 1.63694 14.6785 1.95586C14.1349 2.27478 13.6898 2.73262 13.39 3.28086C13.0869 2.73755 12.6401 2.28218 12.0973 1.96326C11.5545 1.64434 10.9349 1.47337 10.3027 1.46844C9.67059 1.47337 9.05097 1.64434 8.50818 1.96326C7.96622 2.28218 7.51945 2.73672 7.21549 3.28168C6.91152 2.73672 6.46476 2.28136 5.92197 1.96244C5.37917 1.64352 4.75955 1.47255 4.1274 1.46762C4.0155 1.46762 3.90277 1.47255 3.79672 1.48323H3.79922V1.48406Z" fill="#C0C6D9"></path><path d="M16.9285 21.0947L16.8592 21.0898C16.8308 21.0898 16.8016 21.0832 16.7724 21.08C16.6747 21.0865 16.5761 21.0898 16.4776 21.0898C15.7168 21.089 14.9711 20.881 14.3231 20.4898C13.9782 20.2827 13.6651 20.027 13.3928 19.7336C13.0012 20.1577 12.5235 20.4972 11.9924 20.7306C11.4605 20.9641 10.8843 21.0874 10.3022 21.0906C9.5415 21.0898 8.79578 20.8819 8.14777 20.4906C7.80372 20.2835 7.4914 20.0295 7.22001 19.736C6.95028 20.0295 6.63963 20.2835 6.29642 20.4906C5.6434 20.8843 4.89267 21.0906 4.12691 21.0906C4.04006 21.0906 3.95238 21.0906 3.86554 21.0824C3.79372 21.0915 3.72023 21.0931 3.64758 21.0874H3.62921H3.61084C3.15072 21.0265 2.70395 20.8917 2.28892 20.6871C1.88559 20.4881 1.51732 20.2251 1.19916 19.9111C0.879328 19.5988 0.612106 19.2371 0.410854 18.8401C0.202087 18.4324 0.0643017 17.9935 0.00334163 17.5406V17.5225V17.5044C-0.00166879 17.4329 -0.000834419 17.3622 0.00751627 17.2907C0.00250586 17.2052 0 17.1189 0 17.0343C0 16.2813 0.210438 15.5432 0.610436 14.9013C0.820038 14.5634 1.07891 14.2569 1.37787 13.9922C1.07891 13.7259 0.820873 13.4193 0.610436 13.0806C0.212108 12.4436 0.000835069 11.7104 0 10.9624C0.00334028 10.3904 0.128602 9.82402 0.365762 9.30125C0.603756 8.77849 0.948639 8.30915 1.37953 7.92447C1.08058 7.65651 0.821709 7.3491 0.610436 7.00963C0.212108 6.37261 0.000835069 5.63942 0 4.89226C0 4.78951 0.00334136 4.68677 0.0125271 4.58402C0.00918684 4.56347 0.0075156 4.54292 0.00584546 4.52237L0.000836203 4.45415L0.0100217 4.38593C0.116911 3.62068 0.441752 2.90065 0.946969 2.30883C1.61502 1.50331 2.56784 0.976435 3.61501 0.835058L3.68432 0.825195L3.75364 0.830126C3.78203 0.830126 3.81042 0.835881 3.83965 0.83999C3.93735 0.833415 4.03672 0.829304 4.13443 0.829304C4.89517 0.830126 5.64089 1.03808 6.28974 1.43016C6.63462 1.63729 6.94777 1.89292 7.21917 2.18636C7.61082 1.76223 8.08764 1.42276 8.61958 1.18932C9.15152 0.955886 9.72772 0.832592 10.3098 0.829304C11.0705 0.830126 11.8162 1.03808 12.4642 1.43016C12.8083 1.63729 13.1206 1.89128 13.3928 2.1839C13.6626 1.89046 13.9732 1.63647 14.3164 1.43016C14.9694 1.03726 15.7202 0.829304 16.4851 0.829304C16.5719 0.829304 16.6596 0.829305 16.7465 0.837524C16.8191 0.828483 16.8918 0.82766 16.9644 0.833414H16.982H17.0003C17.4605 0.894239 17.9072 1.02904 18.3222 1.23371C18.7256 1.43262 19.0939 1.69483 19.4128 2.00964C19.7335 2.32199 19.9999 2.68365 20.2012 3.08066C20.4091 3.48835 20.5469 3.92727 20.6078 4.38018V4.39826V4.41634C20.6128 4.48785 20.6112 4.55936 20.6028 4.63005C20.6078 4.71554 20.6112 4.80102 20.6112 4.8865C20.6112 5.63942 20.3999 6.37672 19.9999 7.01867C19.7903 7.3565 19.5314 7.66227 19.2333 7.92694C19.5314 8.19407 19.7903 8.50149 19.9999 8.83931C20.3982 9.47633 20.6095 10.2095 20.6112 10.9567C20.6078 11.5296 20.4826 12.0959 20.2454 12.6179C20.0083 13.1415 19.6625 13.61 19.2316 13.9955C19.5306 14.2626 19.7895 14.57 20.0007 14.9095C20.3991 15.5457 20.6103 16.2797 20.612 17.0277C20.612 17.1304 20.6087 17.2332 20.5995 17.3351C20.5995 17.3548 20.6045 17.377 20.6062 17.3976L20.6112 17.4658L20.6012 17.5332C20.4943 18.2984 20.1703 19.0185 19.665 19.6103C18.997 20.415 18.0433 20.9419 16.9962 21.0841L16.9285 21.0947ZM14.4484 17.2792C14.511 17.7535 14.7482 18.1883 15.1147 18.5031C15.4813 18.8163 15.9532 18.9881 16.4392 18.9831C16.4926 18.9831 16.5444 18.9831 16.597 18.9766C16.6321 18.9683 16.6671 18.9601 16.703 18.9552H16.7223C17.0788 18.9059 17.4154 18.7637 17.6968 18.5434C18.0968 18.2253 18.3582 17.7707 18.4291 17.2702V17.2521C18.4367 17.2077 18.4467 17.165 18.4584 17.123C18.4584 17.0803 18.4634 17.0376 18.4634 16.9965C18.4676 16.5181 18.2939 16.0545 17.974 15.6928C17.6542 15.3328 17.2116 15.0985 16.7289 15.0377C16.4684 15.0106 16.2271 14.8898 16.0517 14.6974C15.8772 14.5059 15.7811 14.2569 15.7828 13.9988V13.9026C15.7811 13.6503 15.8722 13.4061 16.0417 13.2163C16.2112 13.0264 16.4442 12.9031 16.6989 12.871H16.7172H16.7365C17.2149 12.8094 17.6534 12.5792 17.9715 12.2217C18.2888 11.865 18.4634 11.4071 18.4609 10.9328C18.465 10.4545 18.2914 9.99088 17.9715 9.63004C17.6525 9.2692 17.2091 9.03576 16.7264 8.97412C16.4659 8.94781 16.2246 8.82616 16.0492 8.63464C15.8747 8.44231 15.7786 8.19325 15.7803 7.93516V7.862C15.7778 7.60966 15.8697 7.36554 16.0392 7.17566C16.2079 6.98579 16.4408 6.8625 16.6964 6.83044H16.7147H16.7339C17.2099 6.76386 17.6467 6.53207 17.9632 6.17616C18.2797 5.82025 18.4559 5.36488 18.4584 4.89143C18.4592 4.37689 18.2563 3.88207 17.8905 3.51301C17.5156 3.15381 17.012 2.95407 16.4884 2.9549C16.0058 2.95325 15.5398 3.12422 15.1765 3.43656C14.8133 3.74809 14.5786 4.18044 14.516 4.6506V4.66951V4.68759C14.4834 4.93747 14.3582 5.16761 14.1653 5.33365C13.9724 5.49969 13.7235 5.5901 13.4672 5.58764H13.392C13.1298 5.58928 12.8759 5.49476 12.6805 5.32297C12.4851 5.15118 12.3624 4.91363 12.3348 4.65718C12.2722 4.18208 12.035 3.74726 11.6676 3.43328C11.3002 3.11929 10.8292 2.94832 10.3423 2.95243C9.85966 2.95079 9.39369 3.12175 9.03044 3.43328C8.66718 3.74562 8.43253 4.17715 8.3699 4.64731V4.66622V4.6843C8.33733 4.935 8.21207 5.16433 8.01917 5.33036C7.82627 5.4964 7.57742 5.58681 7.32105 5.58517H7.22418C6.96197 5.58681 6.70811 5.49229 6.5127 5.3205C6.3173 5.14871 6.19371 4.91116 6.16615 4.65471C6.10352 4.18044 5.86636 3.7448 5.49893 3.43081C5.13233 3.11682 4.66052 2.94585 4.17451 2.94996C4.1219 2.94996 4.06846 2.94996 4.01668 2.95654C3.98161 2.96558 3.94654 2.97298 3.91063 2.97873H3.89142C3.53485 3.02805 3.19831 3.16943 2.9169 3.39053C2.5169 3.70781 2.25469 4.16318 2.18454 4.66375V4.68184C2.17703 4.7254 2.16701 4.76896 2.15531 4.8117C2.15531 4.85362 2.15197 4.89637 2.15197 4.93829C2.1478 5.41667 2.32149 5.88025 2.64049 6.24027C2.95948 6.60029 3.40291 6.83455 3.88474 6.8962C4.14612 6.9225 4.38662 7.04415 4.56198 7.23567C4.73651 7.42801 4.83338 7.67706 4.83171 7.93433V8.0305C4.83338 8.28285 4.74236 8.52697 4.57284 8.71684C4.40415 8.90671 4.17117 9.03001 3.91647 9.06207H3.89727H3.87806C3.39957 9.12371 2.96032 9.35386 2.64299 9.71141C2.32567 10.0681 2.15197 10.5276 2.15364 11.0011C2.14947 11.4795 2.32316 11.943 2.64216 12.3031C2.96199 12.6639 3.40458 12.8982 3.88725 12.959C4.14779 12.9861 4.38912 13.1078 4.56449 13.2993C4.73902 13.4916 4.83505 13.7407 4.83338 13.9979V14.0719C4.83588 14.3243 4.74403 14.5684 4.57534 14.7591C4.40666 14.9481 4.17368 15.0722 3.91898 15.1043H3.89977H3.88057C3.40458 15.1701 2.96784 15.4027 2.65134 15.7586C2.33485 16.1145 2.15865 16.5699 2.15615 17.0433C2.15448 17.5579 2.35824 18.0527 2.72316 18.4217C3.09811 18.7809 3.60165 18.9807 4.12524 18.979C4.60624 18.9757 5.06971 18.8031 5.43129 18.4916C5.79287 18.1809 6.0292 17.7527 6.09684 17.2833V17.2644L6.10018 17.2455C6.13358 16.9956 6.25801 16.7663 6.45091 16.6011C6.64464 16.4351 6.89266 16.3446 7.14903 16.3463H7.22418C7.48639 16.3446 7.74025 16.4392 7.93566 16.611C8.13107 16.7827 8.25466 17.0203 8.28138 17.2767C8.34401 17.751 8.58117 18.1858 8.9486 18.5006C9.31603 18.8146 9.78701 18.9856 10.2739 18.9807C10.7565 18.9831 11.2225 18.8122 11.5857 18.499C11.949 18.1875 12.1837 17.7559 12.2463 17.285V17.2661L12.2496 17.2488C12.2822 16.9981 12.4075 16.7688 12.6004 16.6027C12.7933 16.4367 13.0421 16.3463 13.2985 16.3479H13.3962C13.6576 16.3479 13.9097 16.4433 14.1035 16.6159C14.2997 16.7869 14.4216 17.0228 14.4484 17.2792Z" fill="#C0C6D9"></path><path d="M10.3151 13.4714C9.84163 13.473 9.37232 13.3818 8.93475 13.2034C8.49717 13.0259 8.09968 12.7645 7.76649 12.4341C7.43079 12.1061 7.1644 11.7149 6.98319 11.285C6.80198 10.8551 6.70929 10.3931 6.71096 9.92791C6.71096 9.71913 6.7953 9.51857 6.94478 9.37144C7.09509 9.22431 7.29801 9.14129 7.51096 9.14129C7.72306 9.14129 7.92682 9.22431 8.0763 9.37144C8.22661 9.51939 8.31012 9.71913 8.31012 9.92791C8.31095 10.4499 8.52222 10.9513 8.89884 11.3211C9.27462 11.6902 9.78401 11.8973 10.3151 11.8981C10.8462 11.8973 11.3564 11.6902 11.7322 11.3211C12.108 10.9513 12.3193 10.4499 12.3201 9.92791C12.3201 9.82434 12.3402 9.72242 12.3811 9.62625C12.4212 9.5309 12.4805 9.44377 12.5548 9.37062C12.6291 9.29747 12.7176 9.23911 12.8145 9.19965C12.9113 9.1602 13.0157 9.13965 13.1209 9.13965C13.3331 9.13965 13.5368 9.22267 13.6863 9.3698C13.8366 9.51775 13.9209 9.71749 13.9209 9.92627C13.9218 10.3915 13.8299 10.8526 13.6479 11.2833C13.4667 11.7132 13.2003 12.1045 12.8646 12.4324C12.5306 12.762 12.1331 13.0234 11.6955 13.2018C11.2579 13.3801 10.7886 13.473 10.3151 13.4714Z" fill="#C0C6D9"></path></svg>