<svg xmlns="http://www.w3.org/2000/svg" width="109" height="26" viewBox="0 0 109 26" fill="none"><path d="M9.5434 0C11.0718 0.342536 11.9775 1.31305 12.6567 2.6832C13.1662 3.7679 13.8455 4.7955 14.4115 5.8802C14.8078 6.62236 14.6379 6.90781 13.8455 7.02199C11.751 7.30744 10.2227 8.33504 9.09056 10.1048C8.29808 11.3608 7.44899 12.6167 6.5999 13.8156C5.75081 15.0145 4.50548 15.5854 3.03373 15.357C1.56197 15.1287 0.543066 14.2152 0.146824 12.7309C-0.136205 11.7033 -0.0229937 10.7328 0.599671 9.81937C2.46767 7.02199 4.33566 4.2817 6.14705 1.48432C6.71311 0.627982 7.61881 0.285447 8.58111 0H9.5434ZM18.0909 13.3589C17.8645 13.9869 17.6947 14.729 17.2984 15.2429C15.5436 17.9831 13.7322 20.6663 11.8642 23.3495C10.2227 25.6902 7.05275 25.576 5.6376 23.0641L3.42997 19.1249C3.03373 18.4399 3.20354 18.0973 3.99603 17.9831C6.09044 17.6977 7.73202 16.6701 8.86414 14.8432C9.65662 13.5873 10.4491 12.3884 11.3548 11.1895C12.2039 9.99063 13.3926 9.41974 14.8644 9.6481C16.2795 9.87646 17.2418 10.7328 17.6947 12.1029C17.8079 12.4455 17.8079 12.8451 17.8645 13.2447C18.0343 13.3018 18.0909 13.3589 18.0909 13.3589ZM67.3946 9.47683C70.7344 7.82124 71.7533 7.87833 73.2817 9.87646C73.4515 9.70519 73.6213 9.59101 73.7911 9.41974C74.7534 8.50631 75.8855 8.22086 77.1309 8.39213C78.3762 8.5634 79.2819 9.47683 79.3385 10.7899C79.3951 13.1305 79.3385 15.4712 79.3951 17.869C79.3951 18.2686 79.2253 18.3828 78.829 18.4399C76.7346 18.6111 76.7346 18.6111 76.7346 16.5559V12.3884C76.7346 11.1895 76.2818 10.6757 75.3195 10.6757C74.244 10.7328 73.4515 11.475 73.4515 12.4455C73.4515 14.1582 73.3949 15.8708 73.4515 17.5264C73.4515 18.1544 73.3383 18.3828 72.659 18.3828C70.8476 18.3828 70.8476 18.3828 70.8476 16.5559V12.3884C70.8476 11.1895 70.3948 10.6186 69.3759 10.6186C68.2437 10.6186 67.3946 11.4179 67.3946 12.4455C67.3946 14.1582 67.338 15.8708 67.3946 17.5264C67.3946 18.1544 67.1682 18.3828 66.5456 18.3257C64.7908 18.3257 64.7908 18.3257 64.7908 16.4988C64.7908 14.1011 64.8474 11.7033 64.7908 9.36265C64.7908 8.67758 65.0172 8.44922 65.6399 8.50631C65.8663 8.5634 66.0927 8.5634 66.3757 8.50631C66.9418 8.50631 67.5079 8.5634 67.3946 9.47683ZM30.2046 14.3294C30.3744 14.5007 30.6008 14.6149 30.7706 14.7861C32.0726 15.8708 33.6009 16.2134 35.2425 16.0421C35.5821 15.985 35.8652 15.8708 36.2048 15.6996C37.1105 15.1287 37.1105 14.1011 36.1482 13.5873C35.4689 13.2447 34.6764 13.0735 33.9406 12.8451C33.0915 12.5597 32.1858 12.3884 31.3367 12.0459C30.0347 11.475 29.1857 10.5615 29.0724 9.02012C28.9592 7.36453 29.6385 6.10856 31.0537 5.25222C33.3179 3.93916 37.1671 4.33879 39.1483 6.05147C39.4313 6.33692 39.5445 6.50819 39.2615 6.85072C39.2049 6.90781 39.1483 6.9649 39.1483 7.02199C38.8087 7.4787 38.5256 8.16378 38.0728 8.33504C37.6765 8.44922 37.1105 7.93542 36.601 7.70706C35.6387 7.19326 34.5632 7.07908 33.4877 7.19326C32.6952 7.25035 32.1292 7.70706 32.0726 8.33504C31.9593 9.13429 32.5254 9.41974 33.1481 9.59101C33.9406 9.81937 34.733 9.99063 35.5255 10.219C36.2048 10.4473 36.9407 10.6186 37.5633 10.9041C39.0917 11.5891 39.8842 12.6738 39.8276 14.4436C39.771 16.1563 39.0351 17.5264 37.4501 18.0973C34.5632 19.2391 31.7895 18.8966 29.2423 17.0697C28.7894 16.7272 28.6196 16.4417 29.0158 15.9279C29.4121 15.4712 29.6951 14.9574 30.0347 14.5007C30.0347 14.4436 30.0914 14.4436 30.2046 14.3294ZM87.6596 13.1876C87.9426 11.3037 87.2633 10.3903 85.5085 10.5615C84.5462 10.6186 83.6406 11.0753 82.565 11.4179C82.3952 11.1324 82.1122 10.6757 81.8858 10.1619C81.8292 10.0477 81.999 9.70519 82.1688 9.59101C84.2066 8.22087 86.3576 7.93542 88.6219 8.90594C89.754 9.36265 90.32 10.3903 90.32 11.5891C90.3766 13.7014 90.32 15.7567 90.3766 17.869C90.3766 18.3828 90.1502 18.4969 89.754 18.4969C89.3577 18.4969 88.9049 18.4399 88.5087 18.4969C87.9992 18.554 87.7162 18.3828 87.7728 17.6977C86.6973 18.554 85.5651 18.8966 84.3198 18.7824C82.7915 18.6682 81.6027 17.6406 81.2631 16.2134C80.9801 14.7291 81.5461 13.3589 82.7915 12.7309C84.2066 12.1029 85.6218 12.16 87.0369 12.9022C87.2633 12.9022 87.4331 13.0164 87.6596 13.1876ZM85.9614 13.9869C85.5652 14.044 85.3953 14.044 85.2255 14.044C84.433 14.1582 83.867 14.7291 83.8104 15.4141C83.7538 16.0992 84.2632 16.7272 85.1123 16.7843C85.7916 16.8414 86.4708 16.6701 87.0935 16.4988C87.603 16.3846 87.6596 15.8708 87.6596 15.4141C87.6596 14.9003 87.4898 14.5578 87.0369 14.3865C86.6973 14.1582 86.2444 14.044 85.9614 13.9869ZM55.7338 14.3294C55.7338 16.4988 57.9415 17.0697 60.9982 15.6425C61.168 15.8708 61.3378 16.0992 61.451 16.3276C62.1303 17.3552 62.1303 17.4693 61.0548 17.9831C59.3 18.7824 57.5452 18.9537 55.7338 18.2115C53.7526 17.3552 52.7903 15.5854 52.8469 13.0735C52.9035 11.0753 54.1489 9.24847 56.0735 8.5634C58.0547 7.82124 60.2057 8.33504 61.5076 9.87646C62.4699 10.9612 62.8096 12.2742 62.753 13.7014C62.753 14.2152 62.4133 14.2723 62.0171 14.2723H56.5263C56.2999 14.3294 56.0169 14.3294 55.7338 14.3294ZM55.6772 12.4455H60.2057C60.0359 11.1324 59.1302 10.3332 57.8849 10.3903C56.5829 10.4473 55.7338 11.2466 55.6772 12.4455ZM107.302 15.7567C107.415 15.9279 107.528 16.0992 107.698 16.3276C108.434 17.4123 108.434 17.5264 107.245 18.0402C105.547 18.8395 103.736 18.9537 101.981 18.2115C99.9996 17.3552 99.0374 15.5854 99.094 13.0735C99.1506 11.0753 100.452 9.30556 102.32 8.62049C104.302 7.87833 106.453 8.39213 107.755 9.93355C108.717 11.0182 109 12.3313 109 13.7585C109 14.2723 108.66 14.2723 108.264 14.2723H102.66C101.868 14.2723 101.754 14.4436 102.151 15.1858C102.66 16.1563 103.849 16.7843 105.038 16.4988C105.773 16.3846 106.453 16.0421 107.302 15.7567ZM101.924 12.5026H106.396C106.396 11.3037 105.49 10.4473 104.245 10.3903C102.943 10.3332 101.981 11.1895 101.924 12.5026ZM47.1297 13.9298C47.1297 13.1876 47.0731 12.4455 47.1297 11.6462C47.1863 11.0753 46.9599 10.7899 46.3938 10.9041C45.658 11.0182 45.4316 10.6757 45.4882 9.99064C45.5448 9.81937 45.5448 9.59101 45.4882 9.41974C45.4316 8.79176 45.658 8.50631 46.2806 8.62049C46.9033 8.73467 47.1863 8.44922 47.0731 7.82124V7.76415C47.0731 5.76602 47.1863 5.65184 49.1675 5.93729C49.3374 5.99438 49.6204 6.27983 49.6204 6.4511C49.677 6.9649 49.677 7.4787 49.677 7.99251C49.677 8.44922 49.7902 8.62049 50.2997 8.62049C51.7714 8.67758 51.7148 8.67758 51.7148 10.1619C51.7148 10.7899 51.4884 11.0182 50.8657 10.9612H50.2431C49.8468 10.9612 49.677 11.1324 49.677 11.532V15.2429C49.7336 16.1563 50.0732 16.4417 50.9789 16.2705C51.3752 16.2134 51.4884 16.3276 51.6016 16.6701C52.1677 18.1544 51.828 18.6682 50.2997 18.7253C49.7336 18.7253 49.1675 18.7253 48.6581 18.554C47.6392 18.2686 47.1297 17.4693 47.0731 16.3846V16.2134C47.1297 15.4141 47.1297 14.672 47.1297 13.9298ZM93.3768 13.9298V11.6462C93.3768 11.1324 93.2635 10.847 92.6975 10.9041C91.905 11.0182 91.6786 10.6186 91.7352 9.87646C91.7918 9.70519 91.7352 9.53392 91.7352 9.36265C91.6786 8.79176 91.905 8.44922 92.5277 8.5634C93.2635 8.67758 93.3768 8.33504 93.3768 7.64997C93.3768 5.53767 92.9239 5.8802 95.3014 5.82311C95.8108 5.82311 96.0938 5.99438 96.0372 6.56527V6.90781C96.0938 7.42161 95.924 8.0496 96.1505 8.39213C96.3769 8.67758 97.0561 8.50631 97.509 8.62049C97.7354 8.67758 97.8486 8.96303 98.0184 9.1343C98.075 9.19139 98.0184 9.36265 98.0184 9.47683C98.0184 10.9612 98.1883 10.9041 96.7165 10.9041C96.2637 10.9041 96.0372 11.0753 96.0372 11.5891C96.0938 12.788 96.0372 13.9869 96.0372 15.1858C96.0372 16.1563 96.4335 16.3846 97.3392 16.3276C97.509 16.3276 97.8486 16.4988 97.9052 16.613C98.5279 18.0402 98.1883 18.6111 96.6033 18.7253H95.641C94.2259 18.6111 93.3768 17.6977 93.3768 16.3276V13.9298ZM44.2428 13.4731V17.6406C44.2428 18.2115 44.073 18.4399 43.507 18.4399C41.639 18.4399 41.639 18.4969 41.639 16.5559V9.41974C41.639 8.84885 41.8088 8.62049 42.4314 8.62049C44.2994 8.62049 44.2994 8.5634 44.2994 10.4473C44.2428 11.4179 44.2428 12.4455 44.2428 13.4731ZM44.4126 5.48058C44.4126 6.39401 43.8466 7.02199 42.8843 7.02199C41.9786 7.02199 41.3559 6.39401 41.3559 5.48058C41.3559 4.62424 42.0352 3.93916 42.8843 3.93916C43.79 3.93916 44.4126 4.56715 44.4126 5.48058Z" fill="#C0C6D9"></path></svg>