<svg xmlns="http://www.w3.org/2000/svg" width="124" height="18" viewBox="0 0 124 18" fill="none"><path d="M9.50943 13.7264L13.6415 12.6792L15.3679 18L9.50943 13.7264ZM19.0189 6.84906H11.7453L9.50943 0L7.27358 6.84906H0L5.88679 11.0943L3.65094 17.9434L9.53774 13.6981L13.1604 11.0943L19.0189 6.84906Z" fill="#F8B800"></path><path d="M35.693 13.7264L39.8251 12.6792L41.5515 18L35.693 13.7264ZM45.2025 6.84906H37.9289L35.693 0L33.4572 6.84906H26.1836L32.0704 11.0943L29.8345 17.9434L35.7213 13.6981L39.344 11.0943L45.2025 6.84906Z" fill="#F8B800"></path><path d="M61.8766 13.7264L66.0087 12.6792L67.7351 18L61.8766 13.7264ZM71.3861 6.84906H64.1125L61.8766 0L59.6408 6.84906H52.3672L58.254 11.0943L56.0181 17.9434L61.9049 13.6981L65.5276 11.0943L71.3861 6.84906Z" fill="#F8B800"></path><path d="M88.0602 13.7264L92.1923 12.6792L93.9187 18L88.0602 13.7264ZM97.5697 6.84906H90.2961L88.0602 0L85.8244 6.84906H78.5508L84.4376 11.0943L82.2017 17.9434L88.0885 13.6981L91.7112 11.0943L97.5697 6.84906Z" fill="#F8B800"></path><path d="M114.244 13.7264L118.376 12.6792L120.102 18L114.244 13.7264ZM123.753 6.84906H116.48L114.244 0L112.008 6.84906H104.734L110.621 11.0943L108.385 17.9434L114.272 13.6981L117.895 11.0943L123.753 6.84906Z" fill="#F8B800"></path></svg>