<svg xmlns="http://www.w3.org/2000/svg" width="58" height="58" viewBox="0 0 58 58" fill="none"><path opacity="0.95" d="M29.5488 3.56616V4.82022" stroke="#818696" stroke-width="0.505946" stroke-linecap="round" stroke-linejoin="round"></path><path opacity="0.15" d="M3.13477 41.5406L28.9996 56.6284L54.8253 41.5406L28.9996 26.4919L3.13477 41.5406Z" fill="url(#paint0_linear_2283_3876)"></path><path d="M31.0375 46.7135L3.13477 32.8406V35.9757L28.9996 51.0635L31.0375 46.7135Z" fill="#5B0023"></path><path d="M54.8257 35.819V32.8406L29 47.1838V51.0635L54.8257 35.819Z" fill="#920038"></path><path d="M3.13477 32.8404L28.9996 47.9282L54.8645 32.8404L29.078 17.7917L3.13477 32.8404Z" fill="#FF0766"></path><path opacity="0.3" fill-rule="evenodd" clip-rule="evenodd" d="M18.7327 25.5905C25.2773 22.1811 33.076 22.1811 39.6206 25.5905C45.3814 29 45.3814 34.4865 39.6206 37.8959C33.076 41.3054 25.2773 41.3054 18.7327 37.8959C12.9719 34.5257 12.9719 29 18.7327 25.5905Z" fill="url(#paint1_linear_2283_3876)"></path><path fill-rule="evenodd" clip-rule="evenodd" d="M14.5391 19.3595C21.0053 15.9892 37.2688 16.0676 43.7742 19.4378C43.8134 22.1419 43.8134 23.0432 43.7742 25.277C43.735 27.5108 42.3242 29.627 39.5026 31.273C33.0364 34.6432 25.3161 34.6432 18.8107 31.273C15.9891 29.627 14.5391 27.4324 14.5391 25.2378C14.5391 23.0432 14.5391 22.6514 14.5391 19.3595Z" fill="url(#paint2_linear_2283_3876)"></path><path fill-rule="evenodd" clip-rule="evenodd" d="M18.8107 13.1283C25.3161 9.75802 32.9971 9.75802 39.5025 13.1283C45.2242 16.4986 45.2242 21.9459 39.5025 25.3161C33.0363 28.6864 25.3161 28.6864 18.8107 25.3161C13.1282 21.985 13.1282 16.4986 18.8107 13.1283Z" fill="url(#paint3_linear_2283_3876)"></path><path fill-rule="evenodd" clip-rule="evenodd" d="M14.5391 9.75814C21.0053 6.38787 37.2688 6.46625 43.7742 9.83652C43.8134 12.5406 43.8134 13.8338 43.7742 16.0676C43.7742 18.223 42.285 20.4176 39.5026 22.0635C33.0364 25.4338 25.3161 25.4338 18.8107 22.0635C15.9891 20.3784 14.5391 18.223 14.5391 16.0284C14.5391 13.8338 14.5391 13.05 14.5391 9.75814Z" fill="url(#paint4_linear_2283_3876)"></path><path fill-rule="evenodd" clip-rule="evenodd" d="M18.8107 3.91885C25.2769 0.548583 32.9971 0.548583 39.5025 3.87966C45.2242 7.24993 45.2242 12.6972 39.5025 16.1067C33.0363 19.477 25.3161 19.477 18.8107 16.1067C13.1282 12.7364 13.1282 7.28912 18.8107 3.91885Z" fill="url(#paint5_linear_2283_3876)"></path><path d="M29.8629 9.83655L24.5332 6.70142" stroke="#FF0766" stroke-width="0.973243" stroke-linecap="round" stroke-linejoin="round"></path><path d="M32.8009 7.25L29.7441 9.20946" stroke="#FF0766" stroke-width="1.01189" stroke-linecap="round" stroke-linejoin="round"></path><path fill-rule="evenodd" clip-rule="evenodd" d="M28.2946 8.85691C29.0392 8.46502 29.9013 8.46502 30.6459 8.85691C31.3122 9.2488 31.3122 9.87583 30.6459 10.2285C29.9013 10.6204 29.0392 10.6204 28.2946 10.2285C27.6284 9.87583 27.6284 9.2488 28.2946 8.85691Z" fill="#FF0766"></path><path opacity="0.95" d="M22.652 5.56502L21.5547 4.93799" stroke="#818696" stroke-width="0.973243" stroke-linecap="round" stroke-linejoin="round"></path><path opacity="0.95" d="M18.3808 10.0715L17.2051 9.99316" stroke="#818696" stroke-width="0.488378" stroke-linecap="round" stroke-linejoin="round"></path><path opacity="0.95" d="M41.0313 9.64051L39.8164 9.60132" stroke="#818696" stroke-width="0.505946" stroke-linecap="round" stroke-linejoin="round"></path><path opacity="0.95" d="M38.2883 14.2256L36.7207 13.3242" stroke="#818696" stroke-width="1.01189" stroke-linecap="round" stroke-linejoin="round"></path><path d="M35.5449 5.60409L36.7206 4.89868" stroke="#818696" stroke-width="1.01189" stroke-linecap="round" stroke-linejoin="round"></path><path d="M20.8086 14.696L22.2194 13.873" stroke="#818696" stroke-width="0.973243" stroke-linecap="round" stroke-linejoin="round"></path><path opacity="0.5" d="M19.9869 4.62441C25.7477 1.64603 32.5666 1.64603 38.3274 4.62441C43.3828 7.60279 43.3828 12.4622 38.3274 15.4406C32.6058 18.419 25.7477 18.419 19.9869 15.4406C14.9315 12.4622 14.9315 7.60279 19.9869 4.62441Z" stroke="#818696" stroke-width="0.488378" stroke-linecap="round" stroke-linejoin="round"></path><path opacity="0.95" d="M29.4707 15.4797V16.6946" stroke="#818696" stroke-width="0.505946" stroke-linecap="round" stroke-linejoin="round"></path><path opacity="0.95" d="M29.4707 3.05688V4.27175" stroke="#818696" stroke-width="0.505946" stroke-linecap="round" stroke-linejoin="round"></path><path fill-rule="evenodd" clip-rule="evenodd" d="M46.6352 30.1756L46.2433 30.4107L46.2825 33.5459L42.6771 32.527L35.7014 38.6797C35.7014 38.6797 33.7028 37.504 33.4285 37.3472C33.0758 37.1121 32.8798 36.7202 32.919 36.2891L32.9582 26.3351C32.9974 25.1594 33.6244 24.1013 34.6041 23.4743L46.5568 16.4986C46.9095 16.2243 47.3406 16.1851 47.7325 16.381C48.046 16.5378 50.1623 17.7526 50.1623 17.7526L48.3204 27.354C48.2028 28.4905 47.615 29.5486 46.6352 30.1756Z" fill="url(#paint6_linear_2283_3876)"></path><path fill-rule="evenodd" clip-rule="evenodd" d="M48.9856 31.5472L48.5545 31.8215V34.9567L45.0667 33.8594L36.9937 38.6013C36.0924 39.1499 35.3086 38.758 35.3086 37.6999V27.7459C35.3478 26.5702 35.8964 25.4729 36.8762 24.8459L48.8681 17.7918C49.7694 17.2432 50.514 17.6742 50.514 18.7323V28.7648C50.4748 29.9013 49.9262 30.9202 48.9856 31.5472Z" fill="url(#paint7_linear_2283_3876)"></path><path d="M41.8145 26.6095C41.8928 26.4527 42.0104 26.3351 42.128 26.1784C42.2455 26.0216 42.3631 25.904 42.4807 25.7473C42.5982 25.5905 42.7158 25.473 42.8726 25.3554C43.0293 25.2378 43.1861 25.1203 43.3428 25.0419C43.5388 24.9243 43.7347 24.8459 43.9699 24.8067C44.1266 24.7676 44.3226 24.7676 44.4793 24.8459C44.6361 24.8851 44.7145 25.0027 44.7928 25.1594C44.8712 25.3554 44.9104 25.5513 44.9104 25.7473C44.9104 25.9824 44.8712 26.2176 44.832 26.4135C44.7928 26.6095 44.7145 26.8054 44.5969 27.0013C44.5185 27.1973 44.4009 27.354 44.2834 27.5108C44.1658 27.6676 44.0874 27.8243 43.9699 27.9419C43.8915 28.0595 43.8131 28.2162 43.7347 28.3338C43.6563 28.4513 43.6172 28.5689 43.6172 28.6865L43.5388 29.4311L42.9509 29.7838L42.8726 29.0392C42.8726 28.8824 42.8726 28.7649 42.9509 28.6081C43.0293 28.4513 43.0685 28.3338 43.1861 28.177C43.2645 28.0203 43.382 27.8635 43.4996 27.7459C43.6172 27.5892 43.6955 27.4324 43.8131 27.2757C43.8915 27.1189 43.9699 26.9622 44.0482 26.7662C44.1266 26.6095 44.1658 26.4135 44.1658 26.2567C44.1658 26.1392 44.1658 26.0608 44.0874 25.9432C44.0482 25.8649 44.009 25.8257 43.9307 25.7865C43.8523 25.7473 43.7739 25.7473 43.6563 25.7865C43.5388 25.8257 43.4212 25.8649 43.3428 25.904C43.1861 25.9824 43.0685 26.1 42.9509 26.2176C42.8334 26.2959 42.755 26.4135 42.6766 26.5311C42.5982 26.6486 42.5199 26.727 42.4807 26.8054C42.4415 26.8446 42.4023 26.923 42.3631 26.9622C42.2847 27.0013 42.2063 27.0013 42.1672 26.923L41.8145 26.6095ZM42.5982 31.7432C42.5982 31.6649 42.5982 31.5473 42.6374 31.4689C42.6766 31.3905 42.7158 31.273 42.755 31.1946C42.7942 31.1162 42.8726 31.0378 42.9509 30.9595C43.0293 30.8811 43.1077 30.8419 43.1861 30.7635C43.2645 30.7243 43.3428 30.6851 43.4212 30.6851C43.4996 30.6851 43.5388 30.6851 43.6172 30.7243C43.6563 30.7635 43.6955 30.8027 43.7347 30.8811C43.7739 30.9595 43.7739 31.0378 43.7739 31.1162C43.7739 31.1946 43.7739 31.3122 43.7347 31.3905C43.6955 31.4689 43.6563 31.5865 43.6172 31.6649C43.578 31.7432 43.4996 31.8216 43.4212 31.9C43.3428 31.9784 43.2645 32.0176 43.1861 32.0567C43.1077 32.0959 43.0293 32.1351 42.9509 32.1351C42.8726 32.1351 42.8334 32.1351 42.755 32.0959C42.7158 32.0567 42.6766 32.0176 42.6374 31.9784C42.5982 31.9 42.5982 31.8216 42.5982 31.7432Z" fill="#FF0766"></path><defs><linearGradient id="paint0_linear_2283_3876" x1="44.9255" y1="53.0797" x2="13.7113" y2="30.4911" gradientUnits="userSpaceOnUse"><stop></stop><stop offset="1"></stop></linearGradient><linearGradient id="paint1_linear_2283_3876" x1="45.7217" y1="29.6693" x2="16.3965" y2="33.3453" gradientUnits="userSpaceOnUse"><stop></stop><stop offset="1"></stop></linearGradient><linearGradient id="paint2_linear_2283_3876" x1="44.6716" y1="25.2365" x2="8.10808" y2="25.4678" gradientUnits="userSpaceOnUse"><stop offset="0.42" stop-color="#E7E9E9"></stop><stop offset="0.68" stop-color="#B1B4C3"></stop><stop offset="0.88" stop-color="#8F92AA"></stop><stop offset="0.99" stop-color="#8285A1"></stop></linearGradient><linearGradient id="paint3_linear_2283_3876" x1="45.5319" y1="17.1698" x2="16.5006" y2="20.8104" gradientUnits="userSpaceOnUse"><stop stop-color="#CDD3DB"></stop><stop offset="1" stop-color="#ACB0C2"></stop></linearGradient><linearGradient id="paint4_linear_2283_3876" x1="44.6755" y1="15.8312" x2="8.10812" y2="16.0624" gradientUnits="userSpaceOnUse"><stop offset="0.42" stop-color="#E7E9E9"></stop><stop offset="0.68" stop-color="#B1B4C3"></stop><stop offset="0.88" stop-color="#8F92AA"></stop><stop offset="0.99" stop-color="#8285A1"></stop></linearGradient><linearGradient id="paint5_linear_2283_3876" x1="45.5339" y1="7.9602" x2="16.5025" y2="11.597" gradientUnits="userSpaceOnUse"><stop stop-color="#CDD3DB"></stop><stop offset="1" stop-color="#ACB0C2"></stop></linearGradient><linearGradient id="paint6_linear_2283_3876" x1="52.7783" y1="21.0174" x2="19.2125" y2="41.4064" gradientUnits="userSpaceOnUse"><stop stop-color="#E7E9E9"></stop><stop offset="0.46" stop-color="#B1B4C3"></stop><stop offset="0.81" stop-color="#8F92AA"></stop><stop offset="0.99" stop-color="#8285A1"></stop></linearGradient><linearGradient id="paint7_linear_2283_3876" x1="52.8201" y1="23.762" x2="31.1518" y2="36.9268" gradientUnits="userSpaceOnUse"><stop stop-color="#E7E9E9"></stop><stop offset="0.45" stop-color="#E5E7E8"></stop><stop offset="0.63" stop-color="#DEE2E6"></stop><stop offset="0.75" stop-color="#D2D8E2"></stop><stop offset="0.86" stop-color="#C1CBDB"></stop><stop offset="0.94" stop-color="#ABB9D4"></stop><stop offset="1" stop-color="#98AACD"></stop></linearGradient></defs></svg>