<svg xmlns="http://www.w3.org/2000/svg" width="48" height="48" viewBox="0 0 48 48" fill="none"><circle cx="24" cy="24" r="24" fill="white"></circle><path d="M24.8 20.8C25.4365 20.8 26.047 21.0528 26.4971 21.5029C26.9471 21.953 27.2 22.5634 27.2 23.2C27.2 23.4121 27.2843 23.6156 27.4343 23.7656C27.5843 23.9157 27.7878 24 28 24C28.2122 24 28.4157 23.9157 28.5657 23.7656C28.7157 23.6156 28.8 23.4121 28.8 23.2C28.8 22.1391 28.3786 21.1217 27.6284 20.3715C26.8783 19.6214 25.8609 19.2 24.8 19.2C24.5878 19.2 24.3843 19.2842 24.2343 19.4343C24.0843 19.5843 24 19.7878 24 20C24 20.2121 24.0843 20.4156 24.2343 20.5656C24.3843 20.7157 24.5878 20.8 24.8 20.8Z" fill="url(#paint0_linear_2153_42)"></path><path d="M24.8 17.6C26.2852 17.6 27.7096 18.19 28.7598 19.2402C29.81 20.2904 30.4 21.7148 30.4 23.2C30.4 23.4122 30.4843 23.6157 30.6343 23.7657C30.7843 23.9157 30.9878 24 31.2 24C31.4122 24 31.6157 23.9157 31.7657 23.7657C31.9157 23.6157 32 23.4122 32 23.2C32 21.2904 31.2414 19.4591 29.8912 18.1088C28.5409 16.7586 26.7096 16 24.8 16C24.5878 16 24.3843 16.0843 24.2343 16.2343C24.0843 16.3843 24 16.5878 24 16.8C24 17.0122 24.0843 17.2157 24.2343 17.3657C24.3843 17.5157 24.5878 17.6 24.8 17.6ZM31.8 27.128C31.756 26.9996 31.68 26.8845 31.5793 26.7935C31.4785 26.7025 31.3562 26.6387 31.224 26.608L26.424 25.512C26.2937 25.4825 26.1581 25.486 26.0295 25.5223C25.901 25.5587 25.7836 25.6266 25.688 25.72C25.576 25.824 25.568 25.832 25.048 26.824C23.3226 26.0289 21.94 24.6407 21.152 22.912C22.168 22.4 22.176 22.4 22.28 22.28C22.3734 22.1844 22.4413 22.067 22.4777 21.9385C22.514 21.8099 22.5175 21.6743 22.488 21.544L21.392 16.8C21.3613 16.6678 21.2975 16.5455 21.2065 16.4447C21.1155 16.344 21.0004 16.268 20.872 16.224C20.6852 16.1573 20.4922 16.109 20.296 16.08C20.0938 16.0331 19.8875 16.0063 19.68 16C18.704 16 17.768 16.3877 17.0778 17.0778C16.3877 17.768 16 18.704 16 19.68C16.0042 22.9462 17.3036 26.0773 19.6131 28.3869C21.9227 30.6964 25.0538 31.9958 28.32 32C28.8033 32 29.2818 31.9048 29.7283 31.7199C30.1748 31.5349 30.5804 31.2639 30.9222 30.9222C31.2639 30.5804 31.5349 30.1748 31.7199 29.7283C31.9048 29.2818 32 28.8033 32 28.32C32.0002 28.1164 31.9842 27.9131 31.952 27.712C31.9184 27.5133 31.8675 27.3179 31.8 27.128ZM28.32 30.4C25.4775 30.3979 22.7521 29.2678 20.7422 27.2578C18.7322 25.2479 17.6021 22.5225 17.6 19.68C17.6021 19.129 17.8219 18.6012 18.2115 18.2115C18.6012 17.8219 19.129 17.6021 19.68 17.6H19.944L20.8 21.312L20.368 21.536C19.68 21.896 19.136 22.184 19.424 22.808C19.893 24.1357 20.6518 25.3422 21.6454 26.3399C22.639 27.3376 23.8423 28.1015 25.168 28.576C25.84 28.848 26.104 28.344 26.464 27.648L26.696 27.208L30.4 28.056V28.32C30.3979 28.871 30.1781 29.3988 29.7885 29.7885C29.3988 30.1781 28.871 30.3979 28.32 30.4Z" fill="url(#paint1_linear_2153_42)"></path><defs><linearGradient id="paint0_linear_2153_42" x1="28.8" y1="22.9831" x2="23.5984" y2="22.1312" gradientUnits="userSpaceOnUse"><stop stop-color="#001DAC"></stop><stop offset="1" stop-color="#000F57"></stop></linearGradient><linearGradient id="paint1_linear_2153_42" x1="32" y1="28.6105" x2="14.6613" y2="25.7708" gradientUnits="userSpaceOnUse"><stop stop-color="#001DAC"></stop><stop offset="1" stop-color="#000F57"></stop></linearGradient></defs></svg>