<svg xmlns="http://www.w3.org/2000/svg" width="51" height="51" viewBox="0 0 51 51" fill="none"><circle cx="25.2567" cy="25.1502" r="25.0926" fill="url(#paint0_linear_2780_42)"></circle><path d="M32.5495 27.0798H28.4718V24.7727C28.4718 24.301 28.4718 23.5118 28.0616 22.811C27.5523 21.9409 26.6072 21.4998 25.2525 21.4998C25.0817 21.4998 24.918 21.5676 24.7972 21.6883C24.6765 21.8091 24.6086 21.9729 24.6086 22.1436V25.4487L23.456 27.3218L22.0332 28.2512V27.7237C22.0332 27.5529 21.9654 27.3892 21.8446 27.2684C21.7239 27.1477 21.5601 27.0798 21.3894 27.0798H17.097C16.9262 27.0798 16.7625 27.1477 16.6417 27.2684C16.521 27.3892 16.4531 27.5529 16.4531 27.7237V38.0254C16.4531 38.1962 16.521 38.3599 16.6417 38.4807C16.7625 38.6014 16.9262 38.6693 17.097 38.6693H21.3894C21.4999 38.6692 21.6086 38.6407 21.7049 38.5864C21.8012 38.5321 21.8819 38.4538 21.9391 38.3592C22.2944 38.5627 22.6968 38.6696 23.1063 38.6693H31.6911C32.0389 38.6695 32.3804 38.5758 32.6794 38.3979C32.9784 38.22 33.2237 37.9646 33.3894 37.6588C33.5552 37.3529 33.6352 37.008 33.621 36.6604C33.6068 36.3128 33.4989 35.9755 33.3088 35.6842C33.3711 35.6355 33.4305 35.5832 33.4866 35.5275C33.7998 35.2145 33.9957 34.8032 34.0415 34.3627C34.0873 33.9223 33.9802 33.4795 33.738 33.1088C33.8004 33.0601 33.8597 33.0078 33.9158 32.9521C34.2649 32.6031 34.4669 32.1337 34.4804 31.6404C34.4938 31.147 34.3177 30.6673 33.9883 30.2998C34.237 30.022 34.4 29.6781 34.4576 29.3096C34.5152 28.9412 34.4649 28.5639 34.3127 28.2234C34.1606 27.8829 33.9132 27.5938 33.6003 27.3909C33.2874 27.1879 32.9225 27.0799 32.5495 27.0798ZM20.7455 37.3815H17.7408V28.3676H20.7455V37.3815ZM32.1471 37.1924C32.0874 37.2525 32.0163 37.3001 31.938 37.3326C31.8597 37.3651 31.7758 37.3817 31.6911 37.3815H23.1063C22.8218 37.3812 22.549 37.2681 22.3479 37.0669C22.1467 36.8657 22.0335 36.593 22.0332 36.3084V29.7894L24.3705 28.263C24.4441 28.2144 24.5071 28.1513 24.5557 28.0776C24.6042 28.004 24.6373 27.9212 24.6528 27.8343L25.8011 25.9689C25.8635 25.8673 25.8965 25.7504 25.8963 25.6312V22.8358C27.0756 23.0364 27.1841 23.8346 27.1841 24.7727V27.7237C27.1841 27.8945 27.2519 28.0582 27.3726 28.179C27.4934 28.2997 27.6572 28.3676 27.8279 28.3676H32.5495C32.7203 28.3676 32.8841 28.4354 33.0048 28.5561C33.1256 28.6769 33.1934 28.8407 33.1934 29.0114C33.1934 29.1822 33.1256 29.3459 33.0048 29.4667C32.8841 29.5874 32.7203 29.6553 32.5495 29.6553H31.2618C31.0911 29.6553 30.9273 29.7231 30.8065 29.8438C30.6858 29.9646 30.618 30.1284 30.618 30.2991C30.618 30.4699 30.6858 30.6337 30.8065 30.7544C30.9273 30.8751 31.0911 30.943 31.2618 30.943H32.5495C32.7203 30.943 32.8841 31.0108 33.0048 31.1316C33.1256 31.2523 33.1934 31.4161 33.1934 31.5868C33.1934 31.7576 33.1256 31.9214 33.0048 32.0421C32.8841 32.1629 32.7203 32.2307 32.5495 32.2307H31.2618C31.0911 32.2307 30.9273 32.2985 30.8065 32.4193C30.6858 32.54 30.618 32.7038 30.618 32.8745C30.618 33.0453 30.6858 33.2091 30.8065 33.3298C30.9273 33.4506 31.0911 33.5184 31.2618 33.5184H32.1203C32.2911 33.5184 32.4548 33.5862 32.5756 33.707C32.6963 33.8277 32.7642 33.9915 32.7642 34.1623C32.7642 34.333 32.6963 34.4968 32.5756 34.6175C32.4548 34.7383 32.2911 34.8061 32.1203 34.8061H31.2618C31.0911 34.8061 30.9273 34.874 30.8065 34.9947C30.6858 35.1154 30.618 35.2792 30.618 35.45C30.618 35.6207 30.6858 35.7845 30.8065 35.9053C30.9273 36.026 31.0911 36.0938 31.2618 36.0938H31.6911C31.8184 36.0938 31.9428 36.1315 32.0487 36.2021C32.1546 36.2728 32.2371 36.3733 32.2859 36.4908C32.3348 36.6084 32.3476 36.7378 32.3229 36.8627C32.2982 36.9875 32.237 37.1023 32.1471 37.1924Z" fill="white"></path><path d="M19.2454 37.006C19.601 37.006 19.8893 36.7177 19.8893 36.3621C19.8893 36.0065 19.601 35.7183 19.2454 35.7183C18.8898 35.7183 18.6016 36.0065 18.6016 36.3621C18.6016 36.7177 18.8898 37.006 19.2454 37.006Z" fill="white"></path><path d="M22.6617 17.1227L22.27 19.4058C22.2497 19.5242 22.263 19.6459 22.3082 19.7572C22.3535 19.8685 22.429 19.9649 22.5262 20.0355C22.6234 20.1061 22.7384 20.1481 22.8582 20.1568C22.9781 20.1654 23.0979 20.1404 23.2043 20.0845L25.2546 19.0066L27.3049 20.0845C27.7541 20.3403 28.3435 19.9128 28.2391 19.4058L27.8474 17.1227L29.5062 15.5059C29.5922 15.4221 29.6531 15.3158 29.6819 15.1992C29.7107 15.0825 29.7063 14.9602 29.6691 14.8459C29.632 14.7317 29.5637 14.6301 29.4718 14.5526C29.38 14.4752 29.2683 14.425 29.1494 14.4077L26.8571 14.0746L25.832 11.9976C25.7788 11.8899 25.6966 11.7991 25.5945 11.7357C25.4925 11.6723 25.3748 11.6387 25.2546 11.6387C25.1345 11.6387 25.0167 11.6723 24.9147 11.7357C24.8127 11.7991 24.7304 11.8899 24.6772 11.9976L23.6521 14.0746L21.3598 14.4077C21.2409 14.425 21.1293 14.4752 21.0374 14.5526C20.9456 14.6301 20.8772 14.7317 20.8401 14.8459C20.803 14.9602 20.7986 15.0825 20.8274 15.1992C20.8561 15.3158 20.917 15.4221 21.003 15.5059L22.6617 17.1227ZM24.1722 15.3003C24.2755 15.2852 24.3736 15.2453 24.4581 15.184C24.5425 15.1226 24.6108 15.0417 24.657 14.9481L25.2546 13.7372L25.8522 14.9481C25.8984 15.0417 25.9667 15.1226 26.0511 15.184C26.1356 15.2453 26.2337 15.2852 26.337 15.3003L27.673 15.4944L26.7063 16.4369C26.6316 16.5098 26.5756 16.5997 26.5434 16.699C26.5111 16.7983 26.5035 16.9039 26.5211 17.0068L26.7494 18.3374L25.5542 17.7092C25.4618 17.6606 25.359 17.6352 25.2546 17.6352C25.1502 17.6352 25.0474 17.6606 24.955 17.7092L23.7599 18.3374L23.9881 17.0068C24.0057 16.9039 23.9981 16.7983 23.9659 16.699C23.9336 16.5997 23.8777 16.5098 23.8029 16.4369L22.836 15.4944L24.1722 15.3003Z" fill="white"></path><path d="M38.5086 21.199L36.6555 19.8093L36.7496 17.4948C36.7545 17.3747 36.7257 17.2557 36.6665 17.1511C36.6073 17.0466 36.5199 16.9607 36.4144 16.9032C36.3089 16.8457 36.1894 16.8189 36.0694 16.8258C35.9495 16.8326 35.8338 16.873 35.7356 16.9422L33.8414 18.2752L31.6693 17.4704C31.5567 17.4287 31.4346 17.4193 31.3169 17.4433C31.1992 17.4673 31.0906 17.5238 31.0033 17.6064C30.916 17.6889 30.8536 17.7942 30.823 17.9104C30.7925 18.0266 30.795 18.149 30.8304 18.2638L31.5128 20.4774L30.0763 22.2945C30.0018 22.3887 29.9551 22.5019 29.9416 22.6213C29.9281 22.7407 29.9482 22.8615 29.9997 22.97C30.0513 23.0785 30.1322 23.1705 30.2332 23.2354C30.3343 23.3004 30.4515 23.3358 30.5716 23.3376L32.8877 23.3725L34.172 25.3003C34.4463 25.741 35.1654 25.6459 35.3171 25.1515L36.066 22.9596L38.2963 22.3339C38.412 22.3015 38.5162 22.2373 38.5973 22.1487C38.6784 22.0601 38.7331 21.9505 38.7552 21.8324C38.7773 21.7143 38.7659 21.5924 38.7224 21.4805C38.6788 21.3685 38.6048 21.271 38.5086 21.1989V21.199ZM35.3923 21.8111C35.2918 21.8393 35.1996 21.8915 35.1238 21.9632C35.0479 22.0349 34.9907 22.124 34.9569 22.2228L34.5203 23.5007L33.7717 22.377C33.7138 22.2901 33.6357 22.2186 33.5441 22.1686C33.4524 22.1186 33.35 22.0917 33.2456 22.0901L31.8955 22.0697L32.7329 21.0105C32.7977 20.9286 32.8415 20.8322 32.8607 20.7296C32.8799 20.627 32.8739 20.5212 32.8431 20.4215L32.4453 19.1312L33.7115 19.6003C33.8094 19.6366 33.9147 19.6485 34.0182 19.6351C34.1218 19.6216 34.2205 19.5832 34.3058 19.5231L35.41 18.746L35.3552 20.0951C35.3509 20.1994 35.3721 20.3032 35.4169 20.3975C35.4617 20.4918 35.5287 20.5738 35.6122 20.6364L36.6925 21.4466L35.3923 21.8111Z" fill="white"></path><path d="M19.9367 23.3376C20.4542 23.3467 20.7661 22.6899 20.432 22.2945L18.9955 20.4774L19.6779 18.2638C19.7133 18.149 19.7158 18.0266 19.6853 17.9104C19.6548 17.7942 19.5923 17.6889 19.505 17.6064C19.4177 17.5238 19.3091 17.4673 19.1914 17.4433C19.0737 17.4193 18.9516 17.4287 18.8389 17.4704L16.6668 18.2752L14.7728 16.9422C14.6746 16.873 14.5589 16.8326 14.439 16.8258C14.319 16.8189 14.1995 16.8457 14.094 16.9032C13.9885 16.9607 13.9011 17.0466 13.8419 17.1511C13.7827 17.2557 13.7539 17.3747 13.7588 17.4948L13.8529 19.8093L11.9997 21.199C11.9036 21.271 11.8296 21.3686 11.786 21.4805C11.7425 21.5925 11.7311 21.7144 11.7532 21.8325C11.7753 21.9506 11.83 22.0601 11.9111 22.1487C11.9922 22.2374 12.0964 22.3015 12.2121 22.334L14.4424 22.9597L15.1912 25.1516C15.3429 25.6461 16.062 25.741 16.3363 25.3004L17.6206 23.3726L19.9367 23.3376ZM16.7365 22.3772L15.988 23.5007L15.5514 22.223C15.5177 22.1242 15.4604 22.0351 15.3846 21.9634C15.3087 21.8917 15.2166 21.8395 15.1161 21.8113L13.816 21.4464L14.8962 20.6362C14.9798 20.5736 15.0468 20.4916 15.0916 20.3973C15.1364 20.303 15.1575 20.1993 15.1533 20.095L15.0984 18.7458L16.2026 19.5231C16.288 19.5832 16.3867 19.6216 16.4902 19.6351C16.5938 19.6486 16.699 19.6367 16.7969 19.6004L18.0632 19.1312L17.6652 20.4214C17.6344 20.5212 17.6284 20.6269 17.6476 20.7295C17.6668 20.8321 17.7106 20.9285 17.7753 21.0104L18.6128 22.0696L17.2627 22.09C17.1583 22.0916 17.0558 22.1186 16.9642 22.1685C16.8725 22.2185 16.7944 22.2901 16.7365 22.377V22.3772Z" fill="white"></path><defs><linearGradient id="paint0_linear_2780_42" x1="0.164062" y1="0.0576172" x2="56.8392" y2="6.50284" gradientUnits="userSpaceOnUse"><stop stop-color="#F16262"></stop><stop offset="1" stop-color="#3200FF"></stop></linearGradient></defs></svg>