<svg xmlns="http://www.w3.org/2000/svg" width="47" height="22" viewBox="0 0 47 22" fill="none"><path d="M14.4429 0V4.66975H17.0286V8.12131H14.4429V12.4764C14.4429 13.0042 14.4944 13.3494 14.5974 13.5118C14.752 13.7758 15.0198 13.9077 15.401 13.9077C15.7512 13.9077 16.2354 13.8062 16.8535 13.6032L17.2037 16.8517C16.0397 17.1055 14.958 17.2375 13.9484 17.2375C12.7843 17.2375 11.919 17.0852 11.3627 16.7908C10.8064 16.4863 10.4047 16.0294 10.1368 15.4203C9.86899 14.8112 9.73507 13.8164 9.73507 12.4459V8.12131H8.00439V4.66975H9.73507V2.41609L14.4429 0ZM17.3274 10.8521C17.3274 8.97405 17.9764 7.431 19.2641 6.22295C20.5518 5.00476 22.2928 4.39566 24.4973 4.39566C27.0109 4.39566 28.9064 5.10627 30.1838 6.53765C31.214 7.68479 31.729 9.10602 31.729 10.781C31.729 12.6692 31.0903 14.2224 29.8129 15.4305C28.5355 16.6385 26.7637 17.2375 24.5076 17.2375C22.4885 17.2375 20.8608 16.7401 19.6246 15.735C18.0897 14.4864 17.3274 12.8621 17.3274 10.8521ZM22.1382 10.842C22.1382 11.9383 22.3649 12.7505 22.8181 13.2682C23.2714 13.7961 23.838 14.06 24.5282 14.06C25.2184 14.06 25.785 13.8062 26.2383 13.2885C26.6812 12.7708 26.9079 11.9383 26.9079 10.8013C26.9079 9.73542 26.6812 8.94359 26.2383 8.42586C25.785 7.90813 25.239 7.64418 24.5694 7.64418C23.8689 7.64418 23.292 7.90813 22.8387 8.43601C22.3649 8.95375 22.1382 9.75572 22.1382 10.842ZM32.615 21.6331V4.66975H37.0653V6.4869C37.6834 5.72552 38.25 5.20779 38.7548 4.9337C39.445 4.56824 40.2176 4.38551 41.052 4.38551C42.7106 4.38551 43.9983 5.01491 44.9048 6.27371C45.8114 7.53252 46.2646 9.08572 46.2646 10.9333C46.2646 12.9738 45.7702 14.5371 44.7812 15.6132C43.7922 16.6893 42.5457 17.2273 41.0314 17.2273C40.3 17.2273 39.6304 17.1055 39.0329 16.8619C38.4251 16.6182 37.8894 16.2528 37.4155 15.7655V21.6331H32.615ZM37.3846 10.8521C37.3846 11.8267 37.5907 12.5474 38.0027 13.0144C38.4148 13.4814 38.9402 13.725 39.5686 13.725C40.1249 13.725 40.5884 13.5017 40.9593 13.0449C41.3302 12.5982 41.5156 11.8267 41.5156 10.7506C41.5156 9.75572 41.3199 9.02481 40.9284 8.55783C40.5369 8.09086 40.0631 7.85737 39.5068 7.85737C38.899 7.85737 38.3942 8.09086 37.9924 8.56798C37.5907 9.02481 37.3846 9.79633 37.3846 10.8521Z" fill="#E7380D"></path><path d="M3.09049 17.5419C4.79732 17.5419 6.18098 16.1784 6.18098 14.4964C6.18098 12.8145 4.79732 11.451 3.09049 11.451C1.38366 11.451 0 12.8145 0 14.4964C0 16.1784 1.38366 17.5419 3.09049 17.5419Z" fill="#E7380D"></path></svg>