<svg xmlns="http://www.w3.org/2000/svg" width="84" height="18" viewBox="0 0 84 18" fill="none"><path d="M0.0188723 1.64987e-09L11.4754 1.00321e-06L11.4754 2.135L6.9645 2.135L6.9645 14.1704L4.49201 14.1704L4.49201 2.135L-1.86648e-07 2.135L0.0188723 1.64987e-09ZM10.9847 3.91102L13.0985 3.91102L13.0985 5.89487L13.1363 5.89487C13.2118 5.61147 13.3439 5.34696 13.5326 5.08244C13.7214 4.81793 13.9479 4.5723 14.231 4.36447C14.4952 4.13775 14.7972 3.9677 15.1369 3.83545C15.4578 3.70319 15.7975 3.62761 16.1373 3.62761C16.4015 3.62761 16.5902 3.64651 16.6846 3.64651C16.779 3.6654 16.8922 3.6843 16.9866 3.6843L16.9866 5.85709C16.8356 5.8193 16.6657 5.8004 16.4959 5.78151C16.326 5.76262 16.175 5.74373 16.0051 5.74373C15.6277 5.74373 15.2691 5.8193 14.9293 5.97045C14.5896 6.1216 14.3065 6.34832 14.0422 6.63173C13.7969 6.93403 13.5893 7.29302 13.4383 7.72758C13.2873 8.16214 13.2118 8.67227 13.2118 9.23908L13.2118 14.1137L10.9469 14.1137L10.9847 3.91102ZM27.3673 14.1704L25.1401 14.1704L25.1401 12.7344L25.1024 12.7344C24.8193 13.2635 24.4041 13.6602 23.8567 13.9814C23.3094 14.3026 22.7432 14.4538 22.1769 14.4538C20.8369 14.4538 19.8554 14.1326 19.2515 13.4524C18.6475 12.7911 18.3455 11.7709 18.3455 10.4294L18.3455 3.91102L20.6104 3.91102L20.6104 10.2027C20.6104 11.1096 20.7803 11.752 21.1389 12.1109C21.4786 12.4888 21.9693 12.6778 22.5922 12.6778C23.064 12.6778 23.4604 12.6022 23.7812 12.451C24.1021 12.2999 24.3663 12.1109 24.5551 11.8653C24.7627 11.6197 24.8948 11.3174 24.9892 10.9773C25.0835 10.6372 25.1213 10.2594 25.1213 9.86258L25.1213 3.91102L27.3862 3.91102L27.3862 14.1704L27.3673 14.1704ZM31.2176 10.8828C31.2931 11.5441 31.5384 11.9976 31.9725 12.281C32.4066 12.5455 32.9351 12.6778 33.5391 12.6778C33.7467 12.6778 33.9921 12.6589 34.2563 12.6211C34.5205 12.5833 34.7848 12.5266 35.0112 12.4321C35.2566 12.3377 35.4454 12.2054 35.5963 12.0165C35.7473 11.8275 35.8228 11.6008 35.804 11.3174C35.7851 11.034 35.6907 10.7884 35.4831 10.5994C35.2755 10.4105 35.0301 10.2782 34.7281 10.146C34.4262 10.0326 34.0675 9.93816 33.6712 9.86258C33.2748 9.78701 32.8785 9.69254 32.4633 9.59807C32.048 9.5036 31.6328 9.39024 31.2365 9.25798C30.8401 9.12572 30.5004 8.95567 30.1795 8.71006C29.8775 8.48333 29.6133 8.19993 29.4434 7.84094C29.2547 7.48196 29.1603 7.06629 29.1603 6.53726C29.1603 5.97045 29.2924 5.517 29.5755 5.13912C29.8398 4.76124 30.1984 4.45895 30.6136 4.23222C31.0288 4.00549 31.5007 3.83545 32.0103 3.74098C32.5199 3.64651 33.0106 3.60872 33.4636 3.60872C33.9921 3.60872 34.5017 3.66541 34.9735 3.77877C35.4454 3.89213 35.8983 4.06218 36.2758 4.32669C36.6722 4.57231 36.993 4.9124 37.2384 5.30917C37.5026 5.70594 37.6536 6.19718 37.7291 6.76399L35.3699 6.76399C35.2566 6.21607 35.0112 5.85709 34.6338 5.66815C34.2374 5.47921 33.8033 5.38475 33.2937 5.38475C33.1427 5.38475 32.9351 5.40364 32.7275 5.42253C32.501 5.46032 32.3123 5.49811 32.1047 5.57368C31.9159 5.64926 31.746 5.76262 31.6139 5.89488C31.4818 6.02713 31.4063 6.21607 31.4063 6.4428C31.4063 6.7262 31.5007 6.93404 31.6894 7.10408C31.8782 7.27412 32.1235 7.40638 32.4444 7.53864C32.7464 7.652 33.105 7.74647 33.5013 7.82205C33.8977 7.89762 34.3129 7.99209 34.7281 8.08656C35.1434 8.18103 35.5397 8.29439 35.9361 8.42665C36.3324 8.5589 36.691 8.72895 36.993 8.97457C37.295 9.2013 37.5592 9.48471 37.748 9.8248C37.9367 10.1649 38.0311 10.5994 38.0311 11.0907C38.0311 11.6953 37.899 12.2054 37.6159 12.64C37.3327 13.0556 36.9741 13.4146 36.54 13.6791C36.1059 13.9437 35.5963 14.1326 35.0679 14.2648C34.5205 14.3782 33.9921 14.4538 33.4636 14.4538C32.8219 14.4538 32.2179 14.3782 31.6706 14.2271C31.1232 14.0759 30.6325 13.8492 30.2361 13.5658C29.8398 13.2635 29.5189 12.9045 29.2924 12.451C29.0659 12.0165 28.9338 11.4875 28.9149 10.864L31.1987 10.864L31.1987 10.8828L31.2176 10.8828ZM38.6728 3.91102L40.3903 3.91102L40.3903 0.812436L42.6552 0.812436L42.6552 3.89213L44.6936 3.89213L44.6936 5.57368L42.6552 5.57368L42.6552 11.0529C42.6552 11.2985 42.6741 11.4875 42.693 11.6764C42.7118 11.8464 42.7685 11.9976 42.8251 12.1109C42.9006 12.2243 43.0138 12.3188 43.1459 12.3755C43.2969 12.4321 43.4857 12.4699 43.7499 12.4699C43.9009 12.4699 44.0708 12.4699 44.2218 12.451C44.3727 12.4321 44.5426 12.4133 44.6936 12.3755L44.6936 14.1326C44.4482 14.1704 44.2029 14.1893 43.9575 14.2082C43.7122 14.246 43.4857 14.246 43.2214 14.246C42.6175 14.246 42.1456 14.1893 41.787 14.0759C41.4284 13.9625 41.1453 13.7925 40.9377 13.5847C40.7301 13.3579 40.5979 13.0934 40.5225 12.7722C40.447 12.451 40.4092 12.0543 40.3903 11.6386L40.3903 5.59257L38.6728 5.59257L38.6728 3.87324L38.6728 3.91102ZM46.279 3.91102L48.4118 3.91102L48.4118 5.30917L48.4495 5.30917C48.7704 4.70456 49.2045 4.2889 49.7707 4.02439C50.3369 3.75987 50.9409 3.62762 51.6204 3.62762C52.4319 3.62762 53.1303 3.75988 53.7342 4.06218C54.3382 4.34559 54.8289 4.72346 55.2253 5.23359C55.6216 5.72483 55.9236 6.31054 56.1124 6.97183C56.3011 7.63311 56.4144 8.35107 56.4144 9.08793C56.4144 9.78701 56.32 10.4483 56.1501 11.0907C55.9614 11.7331 55.6971 12.3188 55.3385 12.81C54.9799 13.3013 54.527 13.698 53.9607 14.0003C53.3945 14.3026 52.7528 14.4538 51.9978 14.4538C51.677 14.4538 51.3372 14.416 51.0164 14.3593C50.6955 14.3026 50.3747 14.2082 50.0727 14.0759C49.7707 13.9437 49.4876 13.7736 49.2422 13.5658C48.978 13.3579 48.7704 13.1123 48.6005 12.8478L48.5628 12.8478L48.5628 17.968L46.2979 17.968L46.2979 3.91102L46.279 3.91102ZM54.1872 9.05015C54.1872 8.5967 54.1306 8.14324 53.9985 7.70869C53.8852 7.27413 53.6965 6.89625 53.4511 6.55616C53.2058 6.21607 52.9038 5.95156 52.5641 5.74373C52.2055 5.5359 51.7902 5.44143 51.3372 5.44143C50.3936 5.44143 49.6763 5.76262 49.1856 6.42391C48.7138 7.08519 48.4684 7.9732 48.4684 9.06904C48.4684 9.59807 48.525 10.0704 48.6571 10.505C48.7893 10.9395 48.9591 11.3174 49.2234 11.6386C49.4687 11.9598 49.7707 12.2054 50.1293 12.3944C50.4879 12.5833 50.8843 12.6778 51.3561 12.6778C51.8846 12.6778 52.2998 12.5644 52.6584 12.3566C53.017 12.1487 53.3001 11.8653 53.5455 11.5441C53.772 11.204 53.9419 10.8262 54.0362 10.3916C54.1306 9.93816 54.1872 9.5036 54.1872 9.05015ZM58.1696 5.08535e-06L60.4345 5.28335e-06L60.4345 2.13501L58.1696 2.13501L58.1696 5.08535e-06ZM58.1696 3.91103L60.4345 3.91103L60.4345 14.1704L58.1696 14.1704L58.1696 3.91103ZM62.454 5.4599e-06L64.7189 5.65791e-06L64.7189 14.1704L62.454 14.1704L62.454 5.4599e-06ZM71.6268 14.4538C70.8152 14.4538 70.0791 14.3215 69.4374 14.0381C68.7957 13.7547 68.2672 13.3957 67.8142 12.9234C67.3801 12.451 67.0404 11.8653 66.8139 11.204C66.5874 10.5428 66.4553 9.8059 66.4553 9.03126C66.4553 8.25661 66.5686 7.53864 66.8139 6.87736C67.0404 6.21608 67.3801 5.64926 67.8142 5.15802C68.2484 4.68567 68.7957 4.3078 69.4374 4.04329C70.0791 3.77877 70.8152 3.62762 71.6268 3.62762C72.4384 3.62762 73.1745 3.75988 73.8162 4.04329C74.4579 4.3078 74.9864 4.68568 75.4393 5.15802C75.8734 5.63037 76.2132 6.21608 76.4397 6.87736C76.6661 7.53865 76.7983 8.25661 76.7983 9.03126C76.7983 9.8248 76.685 10.5428 76.4397 11.204C76.1943 11.8653 75.8734 12.4321 75.4393 12.9234C75.0052 13.3957 74.4579 13.7736 73.8162 14.0381C73.1745 14.3026 72.4572 14.4538 71.6268 14.4538ZM71.6268 12.6589C72.1175 12.6589 72.5705 12.5455 72.9291 12.3377C73.3066 12.1298 73.5897 11.8464 73.835 11.5064C74.0804 11.1663 74.2503 10.7695 74.3635 10.3538C74.4768 9.91927 74.5334 9.48471 74.5334 9.03126C74.5334 8.5967 74.4768 8.16214 74.3635 7.72758C74.2503 7.29302 74.0804 6.91515 73.835 6.57506C73.5897 6.23497 73.2877 5.97046 72.9291 5.76263C72.5516 5.55479 72.1175 5.44143 71.6268 5.44143C71.1361 5.44143 70.6831 5.55479 70.3245 5.76263C69.947 5.97046 69.6639 6.25386 69.4185 6.57506C69.1732 6.91515 69.0033 7.29302 68.8901 7.72758C68.7768 8.16214 68.7202 8.5967 68.7202 9.03126C68.7202 9.48471 68.7768 9.91927 68.8901 10.3538C69.0033 10.7884 69.1732 11.1663 69.4185 11.5063C69.6639 11.8464 69.9659 12.1298 70.3245 12.3377C70.702 12.5644 71.1361 12.6589 71.6268 12.6589ZM77.4777 3.91103L79.1953 3.91103L79.1953 0.812439L81.4601 0.81244L81.4601 3.89213L83.4985 3.89213L83.4985 5.57369L81.4601 5.57369L81.4601 11.0529C81.4601 11.2985 81.479 11.4875 81.4979 11.6764C81.5168 11.8464 81.5734 11.9976 81.63 12.1109C81.7055 12.2243 81.8187 12.3188 81.9509 12.3755C82.1019 12.4321 82.2906 12.4699 82.5548 12.4699C82.7058 12.4699 82.8757 12.4699 83.0267 12.451C83.1777 12.4321 83.3475 12.4133 83.4985 12.3755L83.4985 14.1326C83.2532 14.1704 83.0078 14.1893 82.7624 14.2082C82.5171 14.246 82.2906 14.246 82.0264 14.246C81.4224 14.246 80.9505 14.1893 80.5919 14.0759C80.2333 13.9625 79.9502 13.7925 79.7426 13.5847C79.535 13.3579 79.4029 13.0934 79.3274 12.7722C79.2519 12.451 79.2141 12.0543 79.1953 11.6386L79.1953 5.59258L77.4777 5.59258L77.4777 3.87324L77.4777 3.91103Z" fill="#001042"></path></svg>