<svg xmlns="http://www.w3.org/2000/svg" width="24" height="24" viewBox="0 0 24 24" fill="none"><path d="M11.4852 0C8.13534 0 4.95439 1.47826 2.73055 4.08696C2.4772 4.37681 2.50535 4.84058 2.78685 5.13043C2.9276 5.24638 3.09649 5.30435 3.26539 5.30435C3.46244 5.30435 3.65949 5.21739 3.80024 5.04348C5.74259 2.78261 8.55759 1.47826 11.4852 1.47826C17.1152 1.47826 21.7036 6.2029 21.7036 12C21.7036 17.7971 17.1152 22.5217 11.4852 22.5217C7.96644 22.5217 4.75734 20.6957 2.8713 17.6522C2.67425 17.3043 2.22385 17.2174 1.88605 17.4203C1.54825 17.6232 1.4638 18.087 1.66085 18.4348C3.80024 21.913 7.48789 24 11.4852 24C17.9034 24 23.1111 18.6377 23.1111 12.029C23.1111 5.42029 17.9034 0 11.4852 0ZM12.3297 15.5652V6.34783C12.3297 5.85507 11.9356 5.47826 11.4852 5.47826C11.0066 5.47826 10.6407 5.88406 10.6407 6.34783V15.5942C10.6407 16.087 11.0348 16.4638 11.4852 16.4638C11.9637 16.4638 12.3297 16.058 12.3297 15.5652ZM2.11125 15.3623C2.11125 14.7536 1.6327 14.2899 1.0697 14.2899C0.478549 14.2899 0 14.7826 0 15.3623C0 15.971 0.478549 16.4348 1.04155 16.4348C1.6327 16.4638 2.11125 15.971 2.11125 15.3623ZM6.05224 16.4638C8.02274 16.4638 9.62728 14.8116 9.62728 12.7826V9.65217C9.62728 9.15942 9.23318 8.78261 8.78279 8.78261C8.30424 8.78261 7.93829 9.18841 7.93829 9.65217V12.7536C7.93829 13.8261 7.09379 14.6667 6.08039 14.6667C5.03884 14.6667 4.22249 13.7971 4.22249 12.7536V9.65217C4.22249 9.15942 3.82839 8.78261 3.37799 8.78261C2.89945 8.78261 2.5335 9.18841 2.5335 9.65217V12.7536C2.4772 14.8116 4.08174 16.4638 6.05224 16.4638ZM17.1996 10.6377C17.6219 10.2029 17.6219 9.53623 17.1996 9.10145C16.7774 8.66667 16.1299 8.69565 15.7077 9.10145C15.1728 9.62319 15.5106 10.2899 14.835 11.0145C14.1876 11.7101 13.512 11.3043 13.0053 11.8551C12.8082 12.058 12.6956 12.3478 12.6956 12.6087C12.6956 12.8696 12.7801 13.1594 13.0053 13.3623C13.5401 13.913 14.1876 13.5072 14.835 14.2029C15.5106 14.9275 15.1728 15.5942 15.7077 16.1159C16.1299 16.5217 16.7774 16.5507 17.1996 16.1159C17.6219 15.6812 17.6219 15.0145 17.1996 14.5797C16.6929 14.058 15.9892 14.4058 15.2854 13.7101C14.8913 13.3333 14.835 12.9565 14.835 12.6087C14.835 12.2609 14.9195 11.8841 15.2854 11.5072C15.9892 10.8116 16.6929 11.1594 17.1996 10.6377Z" fill="#20B8D5"></path></svg>