<svg xmlns="http://www.w3.org/2000/svg" width="15" height="15" viewBox="0 0 15 15" fill="none"><path d="M1.531 6.81608C1.2411 6.81689 0.957356 6.89962 0.712593 7.0547C0.467829 7.20978 0.27205 7.43087 0.147903 7.69239C0.0237574 7.95391 -0.0236815 8.24517 0.0110752 8.53249C0.0458319 8.8198 0.161364 9.09142 0.344305 9.31592L4.24417 14.085C4.38322 14.2574 4.56146 14.3941 4.76409 14.4839C4.96671 14.5737 5.18787 14.6139 5.40919 14.6013C5.88255 14.5759 6.30991 14.3231 6.58238 13.9075L14.6834 0.88325C14.6847 0.88109 14.6861 0.878929 14.6875 0.876801C14.7635 0.760293 14.7389 0.529406 14.582 0.38436C14.5389 0.344528 14.4881 0.313927 14.4327 0.29444C14.3773 0.274952 14.3185 0.266992 14.2599 0.271049C14.2013 0.275106 14.1442 0.291095 14.092 0.31803C14.0398 0.344965 13.9937 0.382277 13.9566 0.427667C13.9537 0.431236 13.9507 0.434751 13.9476 0.438212L5.7776 9.65319C5.74651 9.68825 5.70876 9.7168 5.66652 9.73718C5.62429 9.75756 5.57842 9.76935 5.53158 9.77188C5.48474 9.77441 5.43786 9.76762 5.39368 9.75191C5.34949 9.7362 5.30886 9.71189 5.27417 9.68037L2.5627 7.21717C2.28109 6.95946 1.91302 6.81637 1.531 6.81608Z" fill="url(#paint0_linear_4957_8191)"></path><defs><linearGradient id="paint0_linear_4957_8191" x1="-1.02875e-07" y1="1.31882" x2="15.5968" y2="2.849" gradientUnits="userSpaceOnUse"><stop stop-color="#0082F8"></stop><stop offset="1" stop-color="#1C40F2"></stop></linearGradient></defs></svg>