<svg xmlns="http://www.w3.org/2000/svg" width="107" height="100" viewBox="0 0 107 100" fill="none"><path d="M32.5966 65.7825H18.2158V99.3111H32.5966V65.7825Z" fill="white"></path><path d="M32.5965 100H18.2158C17.8357 100 17.5269 99.6912 17.5269 99.3111V65.7825C17.5269 65.4023 17.8357 65.0935 18.2158 65.0935H32.5965C32.9766 65.0935 33.2855 65.4023 33.2855 65.7825V99.3111C33.2855 99.6912 32.9766 100 32.5965 100ZM18.9047 98.6222H31.9076V66.4714H18.9047V98.6222Z" fill="black"></path><path d="M56.4559 40.9805H42.0752V99.3112H56.4559V40.9805Z" fill="white"></path><path d="M56.4559 100H42.0752C41.6951 100 41.3862 99.6912 41.3862 99.3111V40.9804C41.3862 40.6003 41.6951 40.2915 42.0752 40.2915H56.4559C56.836 40.2915 57.1449 40.6003 57.1449 40.9804V99.3111C57.1449 99.6912 56.836 100 56.4559 100ZM42.7641 98.6222H55.767V41.6694H42.7641V98.6222Z" fill="black"></path><path d="M81.0287 55.385H66.6479V99.3112H81.0287V55.385Z" fill="#FFB217"></path><path d="M81.0287 100H66.6479C66.2678 100 65.959 99.6913 65.959 99.3112V55.385C65.959 55.0049 66.2678 54.696 66.6479 54.696H81.0287C81.4088 54.696 81.7176 55.0049 81.7176 55.385V99.3112C81.7176 99.6913 81.4088 100 81.0287 100ZM67.3369 98.6222H80.3397V56.0739H67.3369V98.6222Z" fill="black"></path><path d="M105.83 31.3352H91.4497V99.3111H105.83V31.3352Z" fill="white"></path><path d="M105.83 100H91.4497C91.0696 100 90.7607 99.6912 90.7607 99.3111V31.3352C90.7607 30.9551 91.0696 30.6462 91.4497 30.6462H105.83C106.211 30.6462 106.519 30.9551 106.519 31.3352V99.3111C106.519 99.6912 106.211 100 105.83 100ZM92.1386 98.6222H105.141V32.0241H92.1386V98.6222Z" fill="black"></path><path d="M1.6889 63.4385C1.53844 63.4385 1.38798 63.391 1.26128 63.288C0.960358 63.0505 0.912844 62.6229 1.14249 62.3219L13.0209 47.1968C13.2505 46.9038 13.6702 46.8484 13.9711 47.0701L21.6446 52.7638L46.8188 22.5848C47.0405 22.3156 47.4285 22.2602 47.7215 22.4502L69.847 36.831L102.536 0.229763C102.79 -0.055318 103.225 -0.0790747 103.51 0.17433C103.795 0.427736 103.819 0.863276 103.566 1.14836L70.4884 38.1851C70.2587 38.4385 69.8866 38.486 69.6015 38.3039L47.4919 23.939L22.2939 54.1417C22.0563 54.4268 21.6446 54.4743 21.3516 54.2526L13.694 48.5747L2.22738 63.1772C2.09276 63.3514 1.89479 63.4385 1.6889 63.4385Z" fill="black"></path><path d="M23.2364 97.8462C23.1809 97.8462 23.1334 97.8304 23.0859 97.7908C21.9139 96.7771 20.7498 95.7081 19.6333 94.6074C19.5462 94.5203 19.5382 94.3698 19.6333 94.2827C19.7204 94.1956 19.8708 94.1877 19.9579 94.2827C21.0745 95.3755 22.2228 96.4366 23.3948 97.4423C23.4898 97.5215 23.4977 97.672 23.4185 97.767C23.3631 97.8224 23.2997 97.8462 23.2364 97.8462Z" fill="black"></path><path d="M28.1777 97.8779C28.1223 97.8779 28.0668 97.862 28.0273 97.8224L19.847 90.4737C19.752 90.3866 19.7441 90.244 19.8312 90.149C19.9183 90.054 20.0608 90.0461 20.1559 90.1332L28.3361 97.4819C28.4311 97.569 28.439 97.7116 28.3519 97.8066C28.3044 97.8541 28.2411 97.8779 28.1777 97.8779Z" fill="black"></path><path d="M30.9177 95.6526C30.8623 95.6526 30.8069 95.6367 30.7673 95.5971C27.1642 92.4137 23.4581 89.2382 19.7679 86.1578C19.6729 86.0786 19.6571 85.9281 19.7362 85.8331C19.8154 85.7381 19.9659 85.7222 20.0609 85.8014C23.7591 88.8819 27.4651 92.0574 31.0761 95.2487C31.1712 95.3358 31.1791 95.4783 31.0999 95.5734C31.0445 95.6288 30.9811 95.6526 30.9177 95.6526Z" fill="black"></path><path d="M31.0683 91.1388C31.0207 91.1388 30.9732 91.123 30.9257 91.0913C27.1405 88.193 23.3869 85.1442 19.7838 82.0321C19.6888 81.9529 19.6809 81.8024 19.76 81.7074C19.8392 81.6124 19.9897 81.6044 20.0847 81.6836C23.6799 84.7878 27.4256 87.8366 31.2029 90.727C31.3058 90.8062 31.3217 90.9488 31.2425 91.0517C31.2029 91.1071 31.1395 91.1388 31.0683 91.1388Z" fill="black"></path><path d="M31.0679 86.5775C31.0125 86.5775 30.965 86.5616 30.9175 86.522C27.1797 83.3545 23.4262 80.0919 19.7518 76.8372C19.6568 76.7501 19.6489 76.6076 19.736 76.5125C19.8231 76.4175 19.9656 76.4096 20.0606 76.4967C23.735 79.7514 27.4886 83.0061 31.2184 86.1736C31.3134 86.2528 31.3292 86.4033 31.2421 86.4983C31.1946 86.5537 31.1313 86.5775 31.0679 86.5775Z" fill="black"></path><path d="M30.8305 81.747C30.783 81.747 30.7355 81.7312 30.688 81.6995C26.9899 78.8329 23.3393 75.8079 19.847 72.6878C19.752 72.6007 19.7441 72.4582 19.8312 72.3631C19.9183 72.2681 20.0608 72.2602 20.1559 72.3473C23.6402 75.4515 27.275 78.4765 30.9731 81.3353C31.076 81.4144 31.0919 81.557 31.0127 81.6599C30.9652 81.7233 30.8939 81.747 30.8305 81.747Z" fill="black"></path><path d="M30.6323 77.1936C30.5848 77.1936 30.5373 77.1777 30.4898 77.1461C26.855 74.3744 23.2044 71.5078 19.6488 68.6253C19.5538 68.5461 19.5379 68.4036 19.6171 68.3006C19.6963 68.2056 19.8388 68.1898 19.9418 68.269C23.4974 71.1435 27.1401 74.0102 30.7749 76.7818C30.8778 76.861 30.8936 77.0035 30.8144 77.1065C30.7669 77.1619 30.6957 77.1936 30.6323 77.1936Z" fill="black"></path><path d="M30.6324 73.2264C30.5849 73.2264 30.5294 73.2105 30.4898 73.1788L23.7113 67.8494C23.6083 67.7702 23.5925 67.6277 23.6717 67.5247C23.7509 67.4218 23.8934 67.406 23.9963 67.4851L30.7749 72.8146C30.8779 72.8938 30.8937 73.0363 30.8145 73.1392C30.7749 73.1947 30.7037 73.2264 30.6324 73.2264Z" fill="black"></path><path d="M30.8225 69.8369C30.7671 69.8369 30.7196 69.8211 30.6721 69.7815C30.3712 69.5281 29.991 69.2272 29.5951 68.9183C29.1437 68.562 28.6686 68.1898 28.2489 67.8414C28.1539 67.7622 28.138 67.6117 28.2172 67.5167C28.2964 67.4217 28.4469 67.4058 28.5419 67.485C28.9537 67.8335 29.4288 68.2056 29.8723 68.5541C30.2761 68.8708 30.6642 69.1797 30.9651 69.4331C31.0601 69.5123 31.0759 69.6627 30.9967 69.7578C30.9572 69.8132 30.8938 69.8369 30.8225 69.8369Z" fill="black"></path></svg>