<svg xmlns="http://www.w3.org/2000/svg" width="130" height="101" viewBox="0 0 130 101" fill="none"><path d="M76.3079 63.1478C75.3232 58.6765 77.2572 53.7173 81.0276 51.047C77.8338 46.5846 74.2409 42.4593 70.3729 38.6091C68.5542 40.8004 62.8942 45.8305 54.4218 41.5544C50.7047 39.6825 47.9545 35.0693 48.336 33.7031C42.5429 35.4242 36.6699 36.9324 33.5471 38.405C34.8424 41.3593 35.9069 46.7532 31.9325 51.4285C29.1202 54.7287 22.4754 54.5867 19.8228 53.6552C17.9776 58.2329 16.6291 62.8994 15.8218 67.6545C18.084 68.0005 20.2664 68.6481 22.298 69.6151C24.0901 70.4668 25.8732 71.7088 26.4854 73.5718C26.8225 74.6098 26.7515 75.7365 26.5563 76.8011C25.9619 80.0392 24.1699 83.0466 21.5971 85.1492C24.3385 88.6534 27.6475 91.6165 31.1962 94.278C32.6067 92.1488 34.8512 91.0931 36.9715 90.2858C38.3821 89.7535 39.8725 89.2567 41.3807 89.4075C42.9598 89.5583 44.4059 90.41 45.568 91.4746C47.7327 93.4618 49.0723 96.3007 49.2409 99.2106C54.1646 99.0864 58.9286 98.4742 63.6305 97.525C63.9676 94.7571 64.1362 92.1311 65.0588 89.718C65.9815 87.305 67.7824 85.096 70.2575 84.2532C73.4247 83.1797 76.8668 84.5104 79.9453 85.8146C82.3761 81.8135 84.3988 77.2535 85.8271 72.5072C81.1341 71.3451 77.2927 67.619 76.3079 63.1478ZM55.3622 76.1623C51.2724 77.5285 46.3754 75.9849 43.8026 72.5605C43.0397 71.5491 42.4719 70.3869 42.259 69.1449C42.046 67.9029 42.2057 66.6254 42.5162 65.4011C43.2614 62.4203 44.9914 59.608 47.5908 57.9136C50.1901 56.2191 53.7121 55.8021 56.4889 57.2127C59.9311 58.9604 62.0602 62.6776 62.2199 66.3593C62.3974 70.6087 59.452 74.805 55.3622 76.1623Z" fill="#FFB217"></path><path d="M49.223 100C48.8149 100 48.4778 99.6807 48.4512 99.2726C48.3004 96.549 47.0495 93.923 45.0268 92.06C44.1928 91.2882 42.8621 90.3389 41.2918 90.1881C39.9256 90.0551 38.5417 90.5252 37.2287 91.0221C35.1794 91.7939 33.1034 92.7786 31.817 94.7126C31.7017 94.89 31.5154 95.0142 31.3025 95.0497C31.0896 95.0852 30.8767 95.032 30.7081 94.9078C26.6361 91.8471 23.4512 88.813 20.9672 85.637C20.7099 85.3088 20.7631 84.8297 21.0914 84.5636C23.5133 82.5941 25.2166 79.7197 25.7844 76.6768C26.0062 75.4969 25.9884 74.592 25.74 73.8201C25.3053 72.4805 24.0367 71.3006 21.9608 70.3159C20.0356 69.4021 17.9331 68.7634 15.6975 68.4262C15.4934 68.3908 15.3071 68.2843 15.1918 68.1157C15.0676 67.9472 15.0232 67.7343 15.0587 67.5302C15.866 62.8106 17.2234 58.0465 19.1041 53.3712C19.2549 52.9898 19.6896 52.7946 20.08 52.9277C22.5818 53.8059 28.8185 53.8947 31.3469 50.9316C35.552 45.999 33.5559 40.3389 32.8461 38.7243C32.6776 38.3428 32.8461 37.8904 33.2187 37.713C35.6673 36.5508 39.7482 35.3798 44.0686 34.1377C45.3994 33.7563 46.7567 33.3659 48.1141 32.9578C48.3802 32.878 48.673 32.9489 48.877 33.153C49.0811 33.3482 49.152 33.6409 49.0811 33.9159C48.8504 34.741 51.2368 39.0792 54.7677 40.8624C63.0892 45.0586 68.3589 39.8155 69.7784 38.1122C69.9203 37.9436 70.1155 37.846 70.3373 37.8372C70.5591 37.8283 70.7631 37.9081 70.9228 38.059C75.0658 42.1931 78.5789 46.2917 81.6574 50.5944C81.7727 50.763 81.8259 50.967 81.7904 51.1711C81.7549 51.3751 81.6396 51.5526 81.4711 51.6768C77.9579 54.1697 76.1393 58.8095 77.0619 62.9791C77.9757 67.1133 81.5598 70.653 85.9955 71.7797C86.1996 71.8329 86.377 71.966 86.4746 72.1523C86.5811 72.3386 86.5988 72.5515 86.5456 72.7556C85.1084 77.5284 83.0502 82.1949 80.5839 86.2403C80.3887 86.5685 79.9718 86.7016 79.6258 86.5508C76.4231 85.1935 73.3181 84.049 70.4881 85.0071C68.4654 85.6903 66.6911 87.5622 65.7596 90.0107C65.0321 91.9181 64.7926 94.0029 64.5442 96.2119C64.4909 96.6821 64.4377 97.1612 64.3756 97.6402C64.3312 97.9685 64.0917 98.2346 63.7635 98.3056C58.7156 99.3258 53.9693 99.8847 49.2407 100.009C49.2319 100 49.223 100 49.223 100ZM40.8217 88.6267C41.0257 88.6267 41.2297 88.6356 41.4338 88.6534C43.0129 88.8042 44.6187 89.5937 46.0647 90.9245C48.1939 92.8851 49.569 95.582 49.9239 98.4298C54.1467 98.279 58.4139 97.7733 62.9118 96.895C62.9473 96.6111 62.9739 96.3184 63.0094 96.0345C63.2667 93.7279 63.5151 91.5455 64.3135 89.4518C65.4313 86.5331 67.4984 84.3773 69.9913 83.5345C73.1318 82.4699 76.4409 83.5433 79.608 84.8563C81.7195 81.2634 83.5204 77.2091 84.8334 73.0483C80.2113 71.5756 76.5296 67.752 75.5537 63.3074C74.5601 58.8095 76.361 53.8148 79.9629 50.8872C77.1772 47.0724 74.0456 43.4085 70.3994 39.7268C68.4033 41.7939 62.5835 46.5401 54.0669 42.2375C50.9263 40.6494 48.1495 37.0299 47.6173 34.7144C46.5704 35.0249 45.5147 35.3265 44.4856 35.6193C40.6087 36.7371 36.927 37.7928 34.5317 38.8042C35.4366 41.235 36.794 46.8861 32.509 51.9252C29.6701 55.252 23.5399 55.4294 20.2752 54.5955C18.6694 58.703 17.4718 62.8815 16.7088 67.0245C18.8025 67.4149 20.7897 68.0448 22.6173 68.9142C25.1279 70.103 26.6272 71.549 27.2038 73.3322C27.5321 74.3524 27.5676 75.4969 27.3014 76.9429C26.7159 80.0923 25.0392 83.0732 22.6527 85.2467C24.8529 87.9436 27.6031 90.5607 31.0275 93.1867C32.5356 91.3237 34.6293 90.3389 36.6875 89.5671C37.9207 89.1147 39.349 88.6267 40.8217 88.6267ZM52.2305 77.4397C48.7617 77.4397 45.284 75.8251 43.1904 73.0306C42.3032 71.8507 41.7266 70.5554 41.5048 69.2779C41.3007 68.0714 41.3894 66.7407 41.7709 65.2147C42.6137 61.8436 44.5832 58.9514 47.1737 57.2658C50.1456 55.3407 53.9338 55.048 56.8348 56.5206C60.3923 58.3304 62.8053 62.1807 62.9828 66.3237C63.1779 70.8837 60.0108 75.4259 55.6016 76.8986C54.5104 77.2623 53.3749 77.4397 52.2305 77.4397ZM52.7894 57.1239C51.157 57.1239 49.4714 57.6118 48.0165 58.5611C45.7542 60.0338 44.0243 62.5976 43.2702 65.5873C42.942 66.9003 42.8621 68.027 43.0307 69.0118C43.2081 70.0409 43.6872 71.1143 44.4235 72.0991C46.7833 75.2485 51.3788 76.6768 55.1226 75.4259C58.9019 74.1661 61.6165 70.2804 61.448 66.3858C61.2883 62.7839 59.2124 59.4482 56.1428 57.8868C55.1226 57.3812 53.9693 57.1239 52.7894 57.1239Z" fill="black"></path><path d="M94.4055 59.4038C99.7905 64.709 105.184 70.0053 110.569 75.3105C113.417 78.1139 116.265 80.9173 119.37 83.3481C121.047 84.6611 122.901 85.8942 124.941 85.8942C126.973 85.8942 129.138 84.182 129.12 81.8754C129.111 80.0833 127.869 78.6373 126.707 77.413C118.128 68.364 109.159 59.7853 99.8438 51.7122C98.1404 54.2139 96.4282 56.7157 94.4055 59.4038Z" fill="white"></path><path d="M124.941 86.6572C122.67 86.6572 120.692 85.3531 118.891 83.9425C115.75 81.4851 112.841 78.6196 110.028 75.8516L93.8643 59.945C93.5893 59.6699 93.5538 59.2352 93.7933 58.9247C95.8072 56.2544 97.5371 53.726 99.2138 51.2775C99.338 51.0912 99.5332 50.9758 99.755 50.9403C99.9768 50.9137 100.199 50.9758 100.358 51.1178C109.656 59.1731 118.713 67.8406 127.275 76.8719C128.534 78.2026 129.883 79.7995 129.9 81.8577C129.909 83.0553 129.421 84.2175 128.525 85.1135C127.558 86.0894 126.228 86.6572 124.941 86.6572ZM95.4257 59.324L111.111 74.7516C113.896 77.4929 116.779 80.3229 119.849 82.7271C121.428 83.9691 123.14 85.1135 124.941 85.1135C125.82 85.1135 126.751 84.7054 127.425 84.0312C128.029 83.4279 128.357 82.6561 128.348 81.8754C128.339 80.3761 127.257 79.1075 126.148 77.9453C117.817 69.1625 109.026 60.7257 99.9945 52.8655C98.5751 54.9414 97.1024 57.0795 95.4257 59.324Z" fill="black"></path><path d="M73.371 0.771729C54.8118 0.771729 39.7656 15.8179 39.7656 34.3771C39.7656 52.9364 54.8118 67.9825 73.371 67.9825C91.9303 67.9825 106.976 52.9364 106.976 34.3771C106.976 15.8179 91.9303 0.771729 73.371 0.771729ZM73.371 59.9005C59.2741 59.9005 47.8476 48.474 47.8476 34.3771C47.8476 20.2802 59.2741 8.8537 73.371 8.8537C87.4679 8.8537 98.8944 20.2802 98.8944 34.3771C98.8944 48.474 87.4679 59.9005 73.371 59.9005ZM73.371 59.9005C59.2741 59.9005 47.8476 48.474 47.8476 34.3771C47.8476 20.2802 59.2741 8.8537 73.371 8.8537C87.4679 8.8537 98.8944 20.2802 98.8944 34.3771C98.8944 48.474 87.4679 59.9005 73.371 59.9005Z" fill="white"></path><path d="M73.3711 68.7633C54.4126 68.7633 38.9939 53.3446 38.9939 34.3861C38.9939 15.4187 54.4126 0 73.3711 0C92.3296 0 107.748 15.4187 107.748 34.3772C107.748 53.3357 92.3296 68.7633 73.3711 68.7633ZM73.3711 1.54365C55.2643 1.54365 40.5375 16.2704 40.5375 34.3772C40.5375 52.484 55.2643 67.2108 73.3711 67.2108C91.4779 67.2108 106.205 52.484 106.205 34.3772C106.205 16.2704 91.4779 1.54365 73.3711 1.54365ZM73.3711 60.6725C58.875 60.6725 47.0759 48.8733 47.0759 34.3772C47.0759 19.8811 58.875 8.08197 73.3711 8.08197C87.8672 8.08197 99.6664 19.8811 99.6664 34.3772C99.6664 48.8822 87.8672 60.6725 73.3711 60.6725ZM48.6195 34.3772C48.6195 48.0305 59.7267 59.1288 73.3711 59.1288C87.0244 59.1288 98.1227 48.0216 98.1227 34.3772C98.1227 20.7239 87.0155 9.62562 73.3711 9.62562C59.7178 9.62562 48.6195 20.7328 48.6195 34.3772Z" fill="black"></path><path d="M60.2589 36.6659C61.7141 36.6659 62.8937 35.4863 62.8937 34.0311C62.8937 32.5759 61.7141 31.3962 60.2589 31.3962C58.8037 31.3962 57.624 32.5759 57.624 34.0311C57.624 35.4863 58.8037 36.6659 60.2589 36.6659Z" fill="white"></path><path d="M60.259 37.4379C58.3782 37.4379 56.8523 35.9119 56.8523 34.0312C56.8523 32.1504 58.3782 30.6245 60.259 30.6245C62.1397 30.6245 63.6656 32.1504 63.6656 34.0312C63.6656 35.9119 62.1397 37.4379 60.259 37.4379ZM60.259 32.1682C59.2299 32.1682 58.3959 33.0021 58.3959 34.0312C58.3959 35.0603 59.2299 35.8942 60.259 35.8942C61.2881 35.8942 62.122 35.0603 62.122 34.0312C62.122 33.0021 61.2881 32.1682 60.259 32.1682Z" fill="black"></path><path d="M73.025 36.6659C74.4802 36.6659 75.6598 35.4863 75.6598 34.0311C75.6598 32.5759 74.4802 31.3962 73.025 31.3962C71.5698 31.3962 70.3901 32.5759 70.3901 34.0311C70.3901 35.4863 71.5698 36.6659 73.025 36.6659Z" fill="white"></path><path d="M73.0251 37.4379C71.1443 37.4379 69.6184 35.9119 69.6184 34.0312C69.6184 32.1504 71.1443 30.6245 73.0251 30.6245C74.9058 30.6245 76.4318 32.1504 76.4318 34.0312C76.4406 35.9119 74.9058 37.4379 73.0251 37.4379ZM73.0251 32.1682C71.996 32.1682 71.1621 33.0021 71.1621 34.0312C71.1621 35.0603 71.996 35.8942 73.0251 35.8942C74.0542 35.8942 74.8881 35.0603 74.8881 34.0312C74.897 33.0021 74.0542 32.1682 73.0251 32.1682Z" fill="black"></path><path d="M85.8001 36.6659C87.2553 36.6659 88.435 35.4863 88.435 34.0311C88.435 32.5759 87.2553 31.3962 85.8001 31.3962C84.3449 31.3962 83.1653 32.5759 83.1653 34.0311C83.1653 35.4863 84.3449 36.6659 85.8001 36.6659Z" fill="white"></path><path d="M85.8002 37.4379C83.9195 37.4379 82.3936 35.9119 82.3936 34.0312C82.3936 32.1504 83.9195 30.6245 85.8002 30.6245C87.681 30.6245 89.2069 32.1504 89.2069 34.0312C89.2069 35.9119 87.681 37.4379 85.8002 37.4379ZM85.8002 32.1682C84.7711 32.1682 83.9372 33.0021 83.9372 34.0312C83.9372 35.0603 84.7711 35.8942 85.8002 35.8942C86.8293 35.8942 87.6633 35.0603 87.6633 34.0312C87.6633 33.0021 86.8293 32.1682 85.8002 32.1682Z" fill="black"></path><path d="M98.7349 60.3619C98.7082 60.3619 98.6905 60.3619 98.6639 60.353C98.5308 60.3175 98.451 60.1756 98.4865 60.0336L99.0808 57.9666C99.1163 57.8335 99.2583 57.7448 99.4002 57.7891C99.5333 57.8246 99.6131 57.9666 99.5777 58.1085L98.9833 60.1756C98.9478 60.2909 98.8502 60.3619 98.7349 60.3619Z" fill="black"></path><path d="M101.565 63.9904C101.556 63.9904 101.538 63.9904 101.529 63.9904C101.387 63.9726 101.29 63.8396 101.308 63.6976C101.627 61.2845 102.008 58.836 102.443 56.4407C102.47 56.2987 102.603 56.21 102.745 56.2366C102.887 56.2633 102.975 56.3963 102.949 56.5383C102.514 58.9336 102.133 61.3644 101.822 63.7774C101.804 63.8928 101.689 63.9904 101.565 63.9904Z" fill="black"></path><path d="M105.238 67.5035C105.096 67.5035 104.98 67.3882 104.98 67.2462C104.98 66.0397 105.167 64.0081 105.326 62.216C105.424 61.1248 105.513 60.1845 105.539 59.5901C105.548 59.4481 105.655 59.3239 105.806 59.3505C105.947 59.3594 106.054 59.4747 106.045 59.6167C106.018 60.22 105.93 61.1692 105.823 62.2693C105.664 64.0525 105.477 66.0663 105.477 67.2551C105.495 67.3882 105.38 67.5035 105.238 67.5035Z" fill="black"></path><path d="M108.99 70.9723C108.848 70.9723 108.733 70.857 108.733 70.7239L108.538 62.1363C108.538 61.9943 108.644 61.879 108.786 61.8701C108.928 61.879 109.044 61.9766 109.052 62.1185L109.248 70.7062C109.256 70.8481 109.141 70.9634 108.99 70.9723Z" fill="black"></path><path d="M112.565 74.7695C112.423 74.7695 112.317 74.663 112.308 74.5211L111.971 65.5342C111.962 65.3923 112.077 65.2769 112.219 65.2681C112.352 65.2681 112.477 65.3745 112.485 65.5165L112.823 74.5033C112.831 74.6453 112.716 74.7606 112.574 74.7695C112.574 74.7695 112.574 74.7695 112.565 74.7695Z" fill="black"></path><path d="M116.212 77.963C116.079 77.963 115.963 77.8566 115.954 77.7235L115.502 69.3222C115.493 69.1802 115.6 69.056 115.742 69.0471C115.901 69.0383 116.008 69.1447 116.017 69.2867L116.469 77.688C116.478 77.83 116.371 77.9542 116.229 77.963C116.221 77.963 116.212 77.963 116.212 77.963Z" fill="black"></path><path d="M119.814 80.9263C119.681 80.9263 119.565 80.8198 119.556 80.6868L118.927 72.5161C118.918 72.3741 119.024 72.2499 119.166 72.2411C119.299 72.2233 119.432 72.3386 119.441 72.4806L120.071 80.6513C120.08 80.7932 119.973 80.9174 119.831 80.9263C119.823 80.9263 119.823 80.9263 119.814 80.9263Z" fill="black"></path><path d="M123.229 83.5787C123.096 83.5787 122.99 83.4811 122.972 83.3481L122.236 76.1799C122.218 76.0379 122.324 75.9137 122.466 75.896C122.599 75.8782 122.732 75.9847 122.75 76.1266L123.486 83.2948C123.504 83.4368 123.398 83.561 123.256 83.5787C123.247 83.5787 123.238 83.5787 123.229 83.5787Z" fill="black"></path><path d="M126.565 83.1971C126.441 83.1971 126.334 83.1083 126.308 82.9841L125.793 79.7815C125.767 79.6396 125.864 79.5065 126.006 79.4888C126.148 79.4621 126.281 79.5597 126.299 79.7017L126.813 82.9043C126.84 83.0462 126.742 83.1793 126.601 83.1971C126.592 83.1971 126.583 83.1971 126.565 83.1971Z" fill="black"></path><g opacity="0.1294"><path d="M97.1468 42.5125C96.304 43.2222 95.9136 44.3755 95.195 45.2183C95.062 45.4578 93.3409 47.4007 92.365 48.3322C91.5222 49.0863 90.7149 49.7516 89.8899 50.3726C89.7479 50.3993 89.5971 50.4525 89.4551 50.5412C85.25 53.5841 82.0918 54.6931 76.7866 55.6689C74.2671 56.1391 71.3572 56.5384 67.3916 55.5536C64.606 54.906 63.2664 54.143 60.3565 52.1824C59.1233 51.313 56.3732 48.8911 54.5013 46.6288C52.4874 43.8787 51.8043 41.4745 51.3874 40.3833C50.9704 39.2566 50.651 38.1033 50.3228 36.95C49.8348 35.3709 49.684 34.812 49.684 33.4635C49.3735 32.6029 49.0985 31.7424 48.8412 30.8641C48.5928 30.7488 48.3178 30.6956 48.0428 30.7133C47.5903 34.1821 47.6613 37.6686 48.096 41.1285C48.8501 44.1182 49.7816 47.3563 52.6471 50.5767C54.9537 53.1228 56.5417 54.0011 57.5353 54.8173C59.8508 56.4851 62.3171 58.011 65.0407 58.8982C66.5311 59.3329 68.0836 59.5103 69.6184 59.6966C69.6273 59.6966 69.6361 59.6966 69.645 59.7055C71.3217 60.0071 73.0251 60.016 74.7106 59.8297C76.0325 59.7232 77.31 59.3329 78.5875 58.9869C81.2401 58.3393 83.8838 57.5231 86.3057 56.2456C87.2905 55.6423 87.6276 55.4028 88.0889 55.0568C91.0609 53.2027 94.1304 50.6299 95.7007 48.8379C96.1088 47.9951 96.508 47.1434 96.8718 46.2829C97.3331 44.9965 97.8033 43.7101 98.2557 42.4237C97.9097 42.2907 97.4928 42.2995 97.1468 42.5125Z" fill="black"></path></g><g opacity="0.1294"><path d="M102.629 53.4776C101.352 53.1139 100.491 54.001 99.8615 54.9769C99.8349 55.0124 99.8083 55.039 99.7728 55.0834C98.655 56.3875 98.3445 56.2721 96.4992 57.94C96.4903 57.9489 96.4814 57.9489 96.4726 57.9577C96.1088 58.215 95.6741 58.3924 95.4435 58.7917C93.891 60.699 96.2597 63.3605 98.3622 62.1185C99.826 61.3112 101.086 60.1667 102.097 58.836C102.745 58.1263 103.375 57.39 103.871 56.5649C104.59 55.4116 103.925 53.8147 102.629 53.4776Z" fill="black"></path></g><path d="M28.3659 14.6823L27.0795 10.3441L29.7853 6.44061L23.1139 1.72095C22.2534 3.15814 21.3928 4.58645 20.5323 6.02364C20.4879 6.10349 20.4347 6.17446 20.3637 6.22769C20.2662 6.29866 20.142 6.29866 20.0177 6.28979C18.5362 6.27205 17.0458 6.24543 15.5642 6.20995C14.8279 4.7905 14.1182 3.44203 13.3197 2.14678C13.2576 2.04032 13.1778 1.93386 13.0625 1.90725C12.9471 1.88064 12.8318 1.94274 12.7253 2.00484C10.9599 3.08716 9.19447 4.16949 7.42904 5.26069C7.39355 5.27843 7.34032 5.30505 7.31371 5.34941C7.23386 5.46474 7.30483 5.61555 7.36694 5.73975C8.0323 6.94628 8.83074 8.07297 9.73564 9.10207C8.9372 10.6014 8.0944 12.0031 7.18063 13.3427C6.95884 13.662 6.71044 14.008 6.33784 14.1145C6.02733 14.2032 5.69909 14.1234 5.39745 14.0346C4.15544 13.6798 2.92229 13.2717 1.71576 12.8192C0.677794 15.321 0.48262 18.1777 1.16573 20.7948C1.25444 20.9899 5.86764 20.3157 5.86764 20.3157L8.61782 25.1862L6.40881 28.8945L11.4656 32.656L14.0916 28.7348L18.7225 28.8324L20.5146 32.9665L27.4255 30.5268L25.7488 26.2862L28.2328 22.1698L32.917 21.7884L33.0589 15.9509L28.3659 14.6823ZM20.3904 16.8913C20.4347 17.0953 20.2573 17.5034 20.1863 17.6897C20.1242 17.8494 20.0532 18.0091 19.9556 18.151C19.7782 18.4261 19.5564 18.6922 19.3169 18.914C18.8201 19.3842 18.2701 19.7213 17.6402 19.9608C17.3829 20.0584 17.1168 20.1205 16.8417 20.1649C16.6022 20.2092 16.3893 20.227 16.1498 20.2004C15.9989 20.1826 15.8481 20.1383 15.7062 20.1383C16.1143 20.1383 15.6707 20.1471 15.511 20.0939C14.8013 19.8899 14.1004 19.2955 13.7544 18.639C13.5415 18.2398 13.3552 17.7962 13.3375 17.3349C13.3197 16.9268 13.4262 16.4921 13.5859 16.1195C13.8077 15.5783 14.0649 15.0371 14.3932 14.5492C14.7658 14.008 15.2271 13.4403 15.8215 13.1386C16.4248 12.837 17.0635 12.7838 17.649 13.0144C17.8886 12.8991 18.1636 12.8636 18.3943 12.9523C18.829 13.1209 19.1927 13.3249 19.4943 13.6975C19.7871 14.0613 19.9823 14.4072 20.1508 14.8508C20.2041 14.9839 20.2484 15.1258 20.2839 15.2678C20.3016 15.3476 20.3194 15.4363 20.3283 15.5162C20.346 15.6493 20.3637 15.7735 20.3815 15.9065C20.3815 15.8799 20.3726 15.8444 20.3726 15.8178C20.3637 15.7025 20.3637 15.7025 20.3815 15.809C20.3992 15.942 20.417 16.0751 20.4347 16.2082C20.4436 16.2791 20.4436 16.3412 20.4436 16.4122C20.4436 16.5542 20.4347 16.7316 20.3904 16.8913Z" fill="white"></path><g opacity="0.1294"><path d="M21.3218 17.752C21.2686 17.0245 20.1685 16.9535 20.0088 17.6632C19.787 18.3463 19.8757 18.231 19.1571 18.9407C18.4652 19.5085 18.7136 19.34 17.6312 19.7481C16.6199 20.0586 17.028 19.9965 16.1763 19.9876C16.061 19.9698 15.9456 19.9344 15.8303 19.8989C15.4134 19.7392 15.5464 19.819 14.748 19.3754C14.4197 19.2069 14.127 18.8964 13.7455 18.8786C12.5922 18.6657 12.0244 20.3691 13.0447 20.9546C14.8545 22.2232 16.6731 22.791 18.7402 21.7441C19.8048 21.1498 20.5855 20.1473 20.9669 18.9762C21.1266 18.577 21.3484 18.1689 21.3218 17.752Z" fill="black"></path></g><g opacity="0.1294"><path d="M25.0834 29.285C24.4092 29.5334 24.1608 29.7019 22.8833 29.9326C22.28 30.1278 21.5437 30.0302 21.0203 30.4294C19.9379 31.219 20.834 33.0288 22.0937 32.6473C23.6107 32.3279 25.3496 32.2569 26.5295 31.1214C27.4699 30.0568 26.29 28.664 25.0834 29.285Z" fill="black"></path></g><g opacity="0.1294"><path d="M33.4671 19.4286C33.4671 19.4198 33.4671 19.402 33.476 19.3932C33.476 19.402 33.476 19.4198 33.4671 19.4286C33.476 19.1714 33.4139 18.9141 33.2897 18.6923C32.7663 17.6898 31.2315 17.8584 30.8678 18.8875C30.8412 18.9318 30.8145 18.9939 30.7879 19.056C30.6903 19.2601 30.6194 19.473 30.5395 19.6859C30.4685 19.8456 30.3798 20.0674 30.3177 20.1916C30.1847 20.4223 30.1226 20.6707 30.1226 20.9368C30.1403 22.6401 32.5001 22.9684 32.9526 21.3272C33.1832 20.7949 33.3695 20.2537 33.4405 19.6859C33.4583 19.5972 33.4671 19.5174 33.4671 19.4286Z" fill="black"></path></g><path d="M20.4525 33.6852C20.142 33.6852 19.8492 33.4901 19.7339 33.1973C19.246 31.9553 18.7758 30.7754 18.0749 29.5954C16.7176 29.7374 15.3513 29.6664 14.0561 29.5422C13.6746 30.2253 13.3109 30.935 12.9294 31.6714C12.6899 32.1327 12.4415 32.6029 12.1842 33.082C11.9979 33.428 11.5898 33.5788 11.2172 33.4368C8.93723 32.5408 6.95 31.0681 5.46845 29.2051C5.25554 28.9389 5.24666 28.5575 5.44184 28.2825C6.1693 27.2534 6.92339 26.1976 7.71295 24.9379C6.89677 23.8289 6.16043 22.5248 5.47732 20.9723C5.22005 21.0255 4.96278 21.0788 4.69663 21.1409C3.60543 21.3715 2.47874 21.6111 1.26334 21.7885C0.872995 21.8417 0.509262 21.6022 0.411675 21.2207C-0.289176 18.6213 -0.0940024 15.6849 0.988325 12.4911C1.1214 12.1096 1.52062 11.8967 1.91097 11.9943C3.38364 12.3669 4.86519 12.7484 6.41771 13.121C7.03872 11.8257 7.78393 10.6103 8.57349 9.35059C7.84603 8.35698 7.04759 7.22142 6.32899 5.89956C6.15156 5.58906 6.22253 5.19871 6.47981 4.95918C8.1654 3.41553 10.2857 2.07593 12.7786 0.975857C13.1423 0.816169 13.5682 0.958114 13.7633 1.3041C14.4908 2.60822 15.1562 3.96557 15.7328 5.34065C17.1878 5.12774 18.6604 5.07451 20.1242 5.18984C20.8073 3.86798 21.5259 2.51063 22.422 1.09119C22.6349 0.754068 23.0785 0.629867 23.4333 0.816169C25.2697 1.7743 26.9997 2.93647 28.5788 4.2672C29.0047 4.62206 29.4127 4.99466 29.8297 5.36727C30.0426 5.56244 30.3443 5.82859 30.4507 6.24555C30.5039 6.45847 30.4685 6.68026 30.3443 6.86656C29.9894 7.39885 29.6168 7.93114 29.2442 8.47231C28.7562 9.17316 28.2594 9.89175 27.7449 10.6724C28.1707 11.7459 28.6054 12.8371 29.0135 13.946C30.3265 14.0791 31.9766 14.3541 33.7421 15.0816C34.0171 15.1969 34.2034 15.4542 34.2211 15.747C34.3631 18.1423 34.0526 20.3336 33.263 22.445C33.1477 22.7555 32.8638 22.9684 32.5089 22.9418L31.9944 22.924C30.8765 22.8797 29.7232 22.8353 28.5078 22.9152C28.0199 24.0419 27.3191 25.1863 26.3254 26.4372C26.9908 27.6171 27.665 28.8591 28.2683 30.314C28.4191 30.6778 28.2683 31.0947 27.9223 31.2899C25.5093 32.6029 23.0341 33.4102 20.5501 33.6764C20.5057 33.6852 20.4791 33.6852 20.4525 33.6852ZM18.4741 27.9986C18.7314 27.9986 18.9798 28.1316 19.1218 28.3534C19.9291 29.6043 20.4702 30.8552 20.9582 32.0795C22.8389 31.8045 24.7108 31.2012 26.5561 30.2697C25.9795 28.9833 25.3407 27.8566 24.7197 26.7566C24.56 26.4815 24.5955 26.1355 24.7995 25.8871C25.9972 24.4322 26.7779 23.1724 27.2481 21.9304C27.3545 21.6554 27.6029 21.4602 27.8957 21.4336C29.3684 21.2917 30.708 21.3449 32.0032 21.3981C32.5355 19.8013 32.7662 18.1334 32.7041 16.3414C31.0717 15.7381 29.5547 15.5429 28.3925 15.4453C28.0909 15.4187 27.8336 15.2235 27.7271 14.9308C27.2481 13.5646 26.698 12.1984 26.1658 10.8765C26.077 10.6458 26.0948 10.3797 26.2367 10.1668C26.84 9.22639 27.4166 8.39246 27.9755 7.58515C28.2417 7.20368 28.499 6.83107 28.7474 6.46734C28.3659 6.12135 27.9755 5.77536 27.5852 5.43824C26.2722 4.33817 24.8528 3.3623 23.3623 2.52838C22.5728 3.84136 21.9074 5.11887 21.2687 6.36088C21.1267 6.64477 20.8162 6.80446 20.5057 6.77784C18.8024 6.60041 17.0813 6.67139 15.3957 6.97302C15.0408 7.03512 14.6771 6.83994 14.544 6.50283C14.0206 5.20758 13.4262 3.92121 12.7609 2.68806C10.9156 3.55747 9.30983 4.56883 7.9791 5.69552C8.67995 6.89317 9.4429 7.94002 10.1171 8.84491C10.3123 9.10219 10.3212 9.44818 10.1526 9.71432C9.17676 11.2757 8.24524 12.7573 7.55327 14.3275C7.40245 14.6735 7.02984 14.8509 6.66611 14.7622C5.13133 14.3896 3.6764 14.0259 2.23921 13.6533C1.52949 16.0042 1.3698 18.1866 1.75128 20.1384C2.66505 19.9876 3.53446 19.8013 4.37725 19.6238C4.86519 19.5262 5.33538 19.4287 5.80557 19.3311C6.1693 19.2601 6.53304 19.4553 6.66611 19.7924C7.44681 21.682 8.29848 23.1991 9.26547 24.4056C9.46952 24.6629 9.48726 25.0177 9.3187 25.2927C8.52026 26.5969 7.77505 27.6703 7.04759 28.6905C8.1654 29.968 9.56711 31.006 11.1462 31.7335C11.2882 31.4673 11.4213 31.2101 11.5543 30.9528C12.0245 30.0479 12.477 29.1874 12.956 28.3446C13.1068 28.0784 13.3996 27.9276 13.7101 27.9542C15.2094 28.1139 16.8152 28.2292 18.3588 27.9986C18.3943 27.9986 18.4298 27.9986 18.4741 27.9986Z" fill="black"></path><path d="M16.3449 20.5375C15.6796 20.5375 15.0142 20.4045 14.3932 20.1294C13.8432 19.881 13.4439 19.5794 13.1778 19.1891C12.8141 18.6656 12.7253 18.0624 12.6899 17.5922C12.5657 15.9864 12.956 14.5226 13.7811 13.4669C14.8102 12.1539 16.5135 11.5773 17.9418 12.0652C18.0483 12.1007 18.137 12.1628 18.2168 12.2338C19.6984 12.7483 20.7896 14.2387 20.8783 15.8711C20.967 17.4502 20.1508 19.0116 18.7935 19.8633C18.066 20.3069 17.2143 20.5375 16.3449 20.5375ZM16.895 13.4226C16.2119 13.4226 15.4844 13.7863 15.0053 14.4073C14.4198 15.1614 14.1448 16.2526 14.2335 17.468C14.2513 17.743 14.2956 18.089 14.4464 18.3019C14.5529 18.4527 14.7392 18.5858 15.0231 18.7189C15.9901 19.1447 17.1168 19.0826 17.9773 18.5414C18.8467 17.9914 19.3967 16.9446 19.3435 15.9421C19.2903 14.9307 18.5983 13.9726 17.7023 13.671L17.5958 13.6355C17.4273 13.5822 17.2942 13.5201 17.1877 13.4492C17.0813 13.4314 16.9926 13.4226 16.895 13.4226Z" fill="black"></path><path d="M28.3659 14.6823L27.0795 10.3441L29.7853 6.44061L23.1139 1.72095C22.2534 3.15814 21.3928 4.58645 20.5323 6.02364C20.4879 6.10349 20.4347 6.17446 20.3637 6.22769C20.2662 6.29866 20.142 6.29866 20.0177 6.28979C18.5362 6.27205 17.0458 6.24543 15.5642 6.20995C14.8279 4.7905 14.1182 3.44203 13.3197 2.14678C13.2576 2.04032 13.1778 1.93386 13.0625 1.90725C12.9471 1.88064 12.8318 1.94274 12.7253 2.00484C10.9599 3.08716 9.19447 4.16949 7.42904 5.26069C7.39355 5.27843 7.34032 5.30505 7.31371 5.34941C7.23386 5.46474 7.30483 5.61555 7.36694 5.73975C8.0323 6.94628 8.83074 8.07297 9.73564 9.10207C8.9372 10.6014 8.0944 12.0031 7.18063 13.3427C6.95884 13.662 6.71044 14.008 6.33784 14.1145C6.02733 14.2032 5.69909 14.1234 5.39745 14.0346C4.15544 13.6798 2.92229 13.2717 1.71576 12.8192C0.677794 15.321 0.48262 18.1777 1.16573 20.7948C1.25444 20.9899 5.86764 20.3157 5.86764 20.3157L8.61782 25.1862L6.40881 28.8945L11.4656 32.656L14.0916 28.7348L18.7225 28.8324L20.5146 32.9665L27.4255 30.5268L25.7488 26.2862L28.2328 22.1698L32.917 21.7884L33.0589 15.9509L28.3659 14.6823ZM20.3904 16.8913C20.4347 17.0953 20.2573 17.5034 20.1863 17.6897C20.1242 17.8494 20.0532 18.0091 19.9556 18.151C19.7782 18.4261 19.5564 18.6922 19.3169 18.914C18.8201 19.3842 18.2701 19.7213 17.6402 19.9608C17.3829 20.0584 17.1168 20.1205 16.8417 20.1649C16.6022 20.2092 16.3893 20.227 16.1498 20.2004C15.9989 20.1826 15.8481 20.1383 15.7062 20.1383C16.1143 20.1383 15.6707 20.1471 15.511 20.0939C14.8013 19.8899 14.1004 19.2955 13.7544 18.639C13.5415 18.2398 13.3552 17.7962 13.3375 17.3349C13.3197 16.9268 13.4262 16.4921 13.5859 16.1195C13.8077 15.5783 14.0649 15.0371 14.3932 14.5492C14.7658 14.008 15.2271 13.4403 15.8215 13.1386C16.4248 12.837 17.0635 12.7838 17.649 13.0144C17.8886 12.8991 18.1636 12.8636 18.3943 12.9523C18.829 13.1209 19.1927 13.3249 19.4943 13.6975C19.7871 14.0613 19.9823 14.4072 20.1508 14.8508C20.2041 14.9839 20.2484 15.1258 20.2839 15.2678C20.3016 15.3476 20.3194 15.4363 20.3283 15.5162C20.346 15.6493 20.3637 15.7735 20.3815 15.9065C20.3815 15.8799 20.3726 15.8444 20.3726 15.8178C20.3637 15.7025 20.3637 15.7025 20.3815 15.809C20.3992 15.942 20.417 16.0751 20.4347 16.2082C20.4436 16.2791 20.4436 16.3412 20.4436 16.4122C20.4436 16.5542 20.4347 16.7316 20.3904 16.8913Z" fill="white"></path><g opacity="0.1294"><path d="M21.3218 17.752C21.2686 17.0245 20.1685 16.9535 20.0088 17.6632C19.787 18.3463 19.8757 18.231 19.1571 18.9407C18.4652 19.5085 18.7136 19.34 17.6312 19.7481C16.6199 20.0586 17.028 19.9965 16.1763 19.9876C16.061 19.9698 15.9456 19.9344 15.8303 19.8989C15.4134 19.7392 15.5464 19.819 14.748 19.3754C14.4197 19.2069 14.127 18.8964 13.7455 18.8786C12.5922 18.6657 12.0244 20.3691 13.0447 20.9546C14.8545 22.2232 16.6731 22.791 18.7402 21.7441C19.8048 21.1498 20.5855 20.1473 20.9669 18.9762C21.1266 18.577 21.3484 18.1689 21.3218 17.752Z" fill="black"></path></g><g opacity="0.1294"><path d="M25.0834 29.285C24.4092 29.5334 24.1608 29.7019 22.8833 29.9326C22.28 30.1278 21.5437 30.0302 21.0203 30.4294C19.9379 31.219 20.834 33.0288 22.0937 32.6473C23.6107 32.3279 25.3496 32.2569 26.5295 31.1214C27.4699 30.0568 26.29 28.664 25.0834 29.285Z" fill="black"></path></g><g opacity="0.1294"><path d="M33.4671 19.4286C33.4671 19.4198 33.4671 19.402 33.476 19.3932C33.476 19.402 33.476 19.4198 33.4671 19.4286C33.476 19.1714 33.4139 18.9141 33.2897 18.6923C32.7663 17.6898 31.2315 17.8584 30.8678 18.8875C30.8412 18.9318 30.8145 18.9939 30.7879 19.056C30.6903 19.2601 30.6194 19.473 30.5395 19.6859C30.4685 19.8456 30.3798 20.0674 30.3177 20.1916C30.1847 20.4223 30.1226 20.6707 30.1226 20.9368C30.1403 22.6401 32.5001 22.9684 32.9526 21.3272C33.1832 20.7949 33.3695 20.2537 33.4405 19.6859C33.4583 19.5972 33.4671 19.5174 33.4671 19.4286Z" fill="black"></path></g><path d="M20.4525 33.6852C20.142 33.6852 19.8492 33.4901 19.7339 33.1973C19.246 31.9553 18.7758 30.7754 18.0749 29.5954C16.7176 29.7374 15.3513 29.6664 14.0561 29.5422C13.6746 30.2253 13.3109 30.935 12.9294 31.6714C12.6899 32.1327 12.4415 32.6029 12.1842 33.082C11.9979 33.428 11.5898 33.5788 11.2172 33.4368C8.93723 32.5408 6.95 31.0681 5.46845 29.2051C5.25554 28.9389 5.24666 28.5575 5.44184 28.2825C6.1693 27.2534 6.92339 26.1976 7.71295 24.9379C6.89677 23.8289 6.16043 22.5248 5.47732 20.9723C5.22005 21.0255 4.96278 21.0788 4.69663 21.1409C3.60543 21.3715 2.47874 21.6111 1.26334 21.7885C0.872995 21.8417 0.509262 21.6022 0.411675 21.2207C-0.289176 18.6213 -0.0940024 15.6849 0.988325 12.4911C1.1214 12.1096 1.52062 11.8967 1.91097 11.9943C3.38364 12.3669 4.86519 12.7484 6.41771 13.121C7.03872 11.8257 7.78393 10.6103 8.57349 9.35059C7.84603 8.35698 7.04759 7.22142 6.32899 5.89956C6.15156 5.58906 6.22253 5.19871 6.47981 4.95918C8.1654 3.41553 10.2857 2.07593 12.7786 0.975857C13.1423 0.816169 13.5682 0.958114 13.7633 1.3041C14.4908 2.60822 15.1562 3.96557 15.7328 5.34065C17.1878 5.12774 18.6604 5.07451 20.1242 5.18984C20.8073 3.86798 21.5259 2.51063 22.422 1.09119C22.6349 0.754068 23.0785 0.629867 23.4333 0.816169C25.2697 1.7743 26.9997 2.93647 28.5788 4.2672C29.0047 4.62206 29.4127 4.99466 29.8297 5.36727C30.0426 5.56244 30.3443 5.82859 30.4507 6.24555C30.5039 6.45847 30.4685 6.68026 30.3443 6.86656C29.9894 7.39885 29.6168 7.93114 29.2442 8.47231C28.7562 9.17316 28.2594 9.89175 27.7449 10.6724C28.1707 11.7459 28.6054 12.8371 29.0135 13.946C30.3265 14.0791 31.9766 14.3541 33.7421 15.0816C34.0171 15.1969 34.2034 15.4542 34.2211 15.747C34.3631 18.1423 34.0526 20.3336 33.263 22.445C33.1477 22.7555 32.8638 22.9684 32.5089 22.9418L31.9944 22.924C30.8765 22.8797 29.7232 22.8353 28.5078 22.9152C28.0199 24.0419 27.3191 25.1863 26.3254 26.4372C26.9908 27.6171 27.665 28.8591 28.2683 30.314C28.4191 30.6778 28.2683 31.0947 27.9223 31.2899C25.5093 32.6029 23.0341 33.4102 20.5501 33.6764C20.5057 33.6852 20.4791 33.6852 20.4525 33.6852ZM18.4741 27.9986C18.7314 27.9986 18.9798 28.1316 19.1218 28.3534C19.9291 29.6043 20.4702 30.8552 20.9582 32.0795C22.8389 31.8045 24.7108 31.2012 26.5561 30.2697C25.9795 28.9833 25.3407 27.8566 24.7197 26.7566C24.56 26.4815 24.5955 26.1355 24.7995 25.8871C25.9972 24.4322 26.7779 23.1724 27.2481 21.9304C27.3545 21.6554 27.6029 21.4602 27.8957 21.4336C29.3684 21.2917 30.708 21.3449 32.0032 21.3981C32.5355 19.8013 32.7662 18.1334 32.7041 16.3414C31.0717 15.7381 29.5547 15.5429 28.3925 15.4453C28.0909 15.4187 27.8336 15.2235 27.7271 14.9308C27.2481 13.5646 26.698 12.1984 26.1658 10.8765C26.077 10.6458 26.0948 10.3797 26.2367 10.1668C26.84 9.22639 27.4166 8.39246 27.9755 7.58515C28.2417 7.20368 28.499 6.83107 28.7474 6.46734C28.3659 6.12135 27.9755 5.77536 27.5852 5.43824C26.2722 4.33817 24.8528 3.3623 23.3623 2.52838C22.5728 3.84136 21.9074 5.11887 21.2687 6.36088C21.1267 6.64477 20.8162 6.80446 20.5057 6.77784C18.8024 6.60041 17.0813 6.67139 15.3957 6.97302C15.0408 7.03512 14.6771 6.83994 14.544 6.50283C14.0206 5.20758 13.4262 3.92121 12.7609 2.68806C10.9156 3.55747 9.30983 4.56883 7.9791 5.69552C8.67995 6.89317 9.4429 7.94002 10.1171 8.84491C10.3123 9.10219 10.3212 9.44818 10.1526 9.71432C9.17676 11.2757 8.24524 12.7573 7.55327 14.3275C7.40245 14.6735 7.02984 14.8509 6.66611 14.7622C5.13133 14.3896 3.6764 14.0259 2.23921 13.6533C1.52949 16.0042 1.3698 18.1866 1.75128 20.1384C2.66505 19.9876 3.53446 19.8013 4.37725 19.6238C4.86519 19.5262 5.33538 19.4287 5.80557 19.3311C6.1693 19.2601 6.53304 19.4553 6.66611 19.7924C7.44681 21.682 8.29848 23.1991 9.26547 24.4056C9.46952 24.6629 9.48726 25.0177 9.3187 25.2927C8.52026 26.5969 7.77505 27.6703 7.04759 28.6905C8.1654 29.968 9.56711 31.006 11.1462 31.7335C11.2882 31.4673 11.4213 31.2101 11.5543 30.9528C12.0245 30.0479 12.477 29.1874 12.956 28.3446C13.1068 28.0784 13.3996 27.9276 13.7101 27.9542C15.2094 28.1139 16.8152 28.2292 18.3588 27.9986C18.3943 27.9986 18.4298 27.9986 18.4741 27.9986Z" fill="black"></path><path d="M16.3449 20.5375C15.6796 20.5375 15.0142 20.4045 14.3932 20.1294C13.8432 19.881 13.4439 19.5794 13.1778 19.1891C12.8141 18.6656 12.7253 18.0624 12.6899 17.5922C12.5657 15.9864 12.956 14.5226 13.7811 13.4669C14.8102 12.1539 16.5135 11.5773 17.9418 12.0652C18.0483 12.1007 18.137 12.1628 18.2168 12.2338C19.6984 12.7483 20.7896 14.2387 20.8783 15.8711C20.967 17.4502 20.1508 19.0116 18.7935 19.8633C18.066 20.3069 17.2143 20.5375 16.3449 20.5375ZM16.895 13.4226C16.2119 13.4226 15.4844 13.7863 15.0053 14.4073C14.4198 15.1614 14.1448 16.2526 14.2335 17.468C14.2513 17.743 14.2956 18.089 14.4464 18.3019C14.5529 18.4527 14.7392 18.5858 15.0231 18.7189C15.9901 19.1447 17.1168 19.0826 17.9773 18.5414C18.8467 17.9914 19.3967 16.9446 19.3435 15.9421C19.2903 14.9307 18.5983 13.9726 17.7023 13.671L17.5958 13.6355C17.4273 13.5822 17.2942 13.5201 17.1877 13.4492C17.0813 13.4314 16.9926 13.4226 16.895 13.4226Z" fill="black"></path><path d="M28.3659 14.6823L27.0795 10.3441L29.7853 6.44061L23.1139 1.72095C22.2534 3.15814 21.3928 4.58645 20.5323 6.02364C20.4879 6.10349 20.4347 6.17446 20.3637 6.22769C20.2662 6.29866 20.142 6.29866 20.0177 6.28979C18.5362 6.27205 17.0458 6.24543 15.5642 6.20995C14.8279 4.7905 14.1182 3.44203 13.3197 2.14678C13.2576 2.04032 13.1778 1.93386 13.0625 1.90725C12.9471 1.88064 12.8318 1.94274 12.7253 2.00484C10.9599 3.08716 9.19447 4.16949 7.42904 5.26069C7.39355 5.27843 7.34032 5.30505 7.31371 5.34941C7.23386 5.46474 7.30483 5.61555 7.36694 5.73975C8.0323 6.94628 8.83074 8.07297 9.73564 9.10207C8.9372 10.6014 8.0944 12.0031 7.18063 13.3427C6.95884 13.662 6.71044 14.008 6.33784 14.1145C6.02733 14.2032 5.69909 14.1234 5.39745 14.0346C4.15544 13.6798 2.92229 13.2717 1.71576 12.8192C0.677794 15.321 0.48262 18.1777 1.16573 20.7948C1.25444 20.9899 5.86764 20.3157 5.86764 20.3157L8.61782 25.1862L6.40881 28.8945L11.4656 32.656L14.0916 28.7348L18.7225 28.8324L20.5146 32.9665L27.4255 30.5268L25.7488 26.2862L28.2328 22.1698L32.917 21.7884L33.0589 15.9509L28.3659 14.6823ZM20.3904 16.8913C20.4347 17.0953 20.2573 17.5034 20.1863 17.6897C20.1242 17.8494 20.0532 18.0091 19.9556 18.151C19.7782 18.4261 19.5564 18.6922 19.3169 18.914C18.8201 19.3842 18.2701 19.7213 17.6402 19.9608C17.3829 20.0584 17.1168 20.1205 16.8417 20.1649C16.6022 20.2092 16.3893 20.227 16.1498 20.2004C15.9989 20.1826 15.8481 20.1383 15.7062 20.1383C16.1143 20.1383 15.6707 20.1471 15.511 20.0939C14.8013 19.8899 14.1004 19.2955 13.7544 18.639C13.5415 18.2398 13.3552 17.7962 13.3375 17.3349C13.3197 16.9268 13.4262 16.4921 13.5859 16.1195C13.8077 15.5783 14.0649 15.0371 14.3932 14.5492C14.7658 14.008 15.2271 13.4403 15.8215 13.1386C16.4248 12.837 17.0635 12.7838 17.649 13.0144C17.8886 12.8991 18.1636 12.8636 18.3943 12.9523C18.829 13.1209 19.1927 13.3249 19.4943 13.6975C19.7871 14.0613 19.9823 14.4072 20.1508 14.8508C20.2041 14.9839 20.2484 15.1258 20.2839 15.2678C20.3016 15.3476 20.3194 15.4363 20.3283 15.5162C20.346 15.6493 20.3637 15.7735 20.3815 15.9065C20.3815 15.8799 20.3726 15.8444 20.3726 15.8178C20.3637 15.7025 20.3637 15.7025 20.3815 15.809C20.3992 15.942 20.417 16.0751 20.4347 16.2082C20.4436 16.2791 20.4436 16.3412 20.4436 16.4122C20.4436 16.5542 20.4347 16.7316 20.3904 16.8913Z" fill="white"></path><g opacity="0.1294"><path d="M21.3218 17.752C21.2686 17.0245 20.1685 16.9535 20.0088 17.6632C19.787 18.3463 19.8757 18.231 19.1571 18.9407C18.4652 19.5085 18.7136 19.34 17.6312 19.7481C16.6199 20.0586 17.028 19.9965 16.1763 19.9876C16.061 19.9698 15.9456 19.9344 15.8303 19.8989C15.4134 19.7392 15.5464 19.819 14.748 19.3754C14.4197 19.2069 14.127 18.8964 13.7455 18.8786C12.5922 18.6657 12.0244 20.3691 13.0447 20.9546C14.8545 22.2232 16.6731 22.791 18.7402 21.7441C19.8048 21.1498 20.5855 20.1473 20.9669 18.9762C21.1266 18.577 21.3484 18.1689 21.3218 17.752Z" fill="black"></path></g><g opacity="0.1294"><path d="M25.0834 29.285C24.4092 29.5334 24.1608 29.7019 22.8833 29.9326C22.28 30.1278 21.5437 30.0302 21.0203 30.4294C19.9379 31.219 20.834 33.0288 22.0937 32.6473C23.6107 32.3279 25.3496 32.2569 26.5295 31.1214C27.4699 30.0568 26.29 28.664 25.0834 29.285Z" fill="black"></path></g><g opacity="0.1294"><path d="M33.4671 19.4286C33.4671 19.4198 33.4671 19.402 33.476 19.3932C33.476 19.402 33.476 19.4198 33.4671 19.4286C33.476 19.1714 33.4139 18.9141 33.2897 18.6923C32.7663 17.6898 31.2315 17.8584 30.8678 18.8875C30.8412 18.9318 30.8145 18.9939 30.7879 19.056C30.6903 19.2601 30.6194 19.473 30.5395 19.6859C30.4685 19.8456 30.3798 20.0674 30.3177 20.1916C30.1847 20.4223 30.1226 20.6707 30.1226 20.9368C30.1403 22.6401 32.5001 22.9684 32.9526 21.3272C33.1832 20.7949 33.3695 20.2537 33.4405 19.6859C33.4583 19.5972 33.4671 19.5174 33.4671 19.4286Z" fill="black"></path></g><path d="M20.4525 33.6852C20.142 33.6852 19.8492 33.4901 19.7339 33.1973C19.246 31.9553 18.7758 30.7754 18.0749 29.5954C16.7176 29.7374 15.3513 29.6664 14.0561 29.5422C13.6746 30.2253 13.3109 30.935 12.9294 31.6714C12.6899 32.1327 12.4415 32.6029 12.1842 33.082C11.9979 33.428 11.5898 33.5788 11.2172 33.4368C8.93723 32.5408 6.95 31.0681 5.46845 29.2051C5.25554 28.9389 5.24666 28.5575 5.44184 28.2825C6.1693 27.2534 6.92339 26.1976 7.71295 24.9379C6.89677 23.8289 6.16043 22.5248 5.47732 20.9723C5.22005 21.0255 4.96278 21.0788 4.69663 21.1409C3.60543 21.3715 2.47874 21.6111 1.26334 21.7885C0.872995 21.8417 0.509262 21.6022 0.411675 21.2207C-0.289176 18.6213 -0.0940024 15.6849 0.988325 12.4911C1.1214 12.1096 1.52062 11.8967 1.91097 11.9943C3.38364 12.3669 4.86519 12.7484 6.41771 13.121C7.03872 11.8257 7.78393 10.6103 8.57349 9.35059C7.84603 8.35698 7.04759 7.22142 6.32899 5.89956C6.15156 5.58906 6.22253 5.19871 6.47981 4.95918C8.1654 3.41553 10.2857 2.07593 12.7786 0.975857C13.1423 0.816169 13.5682 0.958114 13.7633 1.3041C14.4908 2.60822 15.1562 3.96557 15.7328 5.34065C17.1878 5.12774 18.6604 5.07451 20.1242 5.18984C20.8073 3.86798 21.5259 2.51063 22.422 1.09119C22.6349 0.754068 23.0785 0.629867 23.4333 0.816169C25.2697 1.7743 26.9997 2.93647 28.5788 4.2672C29.0047 4.62206 29.4127 4.99466 29.8297 5.36727C30.0426 5.56244 30.3443 5.82859 30.4507 6.24555C30.5039 6.45847 30.4685 6.68026 30.3443 6.86656C29.9894 7.39885 29.6168 7.93114 29.2442 8.47231C28.7562 9.17316 28.2594 9.89175 27.7449 10.6724C28.1707 11.7459 28.6054 12.8371 29.0135 13.946C30.3265 14.0791 31.9766 14.3541 33.7421 15.0816C34.0171 15.1969 34.2034 15.4542 34.2211 15.747C34.3631 18.1423 34.0526 20.3336 33.263 22.445C33.1477 22.7555 32.8638 22.9684 32.5089 22.9418L31.9944 22.924C30.8765 22.8797 29.7232 22.8353 28.5078 22.9152C28.0199 24.0419 27.3191 25.1863 26.3254 26.4372C26.9908 27.6171 27.665 28.8591 28.2683 30.314C28.4191 30.6778 28.2683 31.0947 27.9223 31.2899C25.5093 32.6029 23.0341 33.4102 20.5501 33.6764C20.5057 33.6852 20.4791 33.6852 20.4525 33.6852ZM18.4741 27.9986C18.7314 27.9986 18.9798 28.1316 19.1218 28.3534C19.9291 29.6043 20.4702 30.8552 20.9582 32.0795C22.8389 31.8045 24.7108 31.2012 26.5561 30.2697C25.9795 28.9833 25.3407 27.8566 24.7197 26.7566C24.56 26.4815 24.5955 26.1355 24.7995 25.8871C25.9972 24.4322 26.7779 23.1724 27.2481 21.9304C27.3545 21.6554 27.6029 21.4602 27.8957 21.4336C29.3684 21.2917 30.708 21.3449 32.0032 21.3981C32.5355 19.8013 32.7662 18.1334 32.7041 16.3414C31.0717 15.7381 29.5547 15.5429 28.3925 15.4453C28.0909 15.4187 27.8336 15.2235 27.7271 14.9308C27.2481 13.5646 26.698 12.1984 26.1658 10.8765C26.077 10.6458 26.0948 10.3797 26.2367 10.1668C26.84 9.22639 27.4166 8.39246 27.9755 7.58515C28.2417 7.20368 28.499 6.83107 28.7474 6.46734C28.3659 6.12135 27.9755 5.77536 27.5852 5.43824C26.2722 4.33817 24.8528 3.3623 23.3623 2.52838C22.5728 3.84136 21.9074 5.11887 21.2687 6.36088C21.1267 6.64477 20.8162 6.80446 20.5057 6.77784C18.8024 6.60041 17.0813 6.67139 15.3957 6.97302C15.0408 7.03512 14.6771 6.83994 14.544 6.50283C14.0206 5.20758 13.4262 3.92121 12.7609 2.68806C10.9156 3.55747 9.30983 4.56883 7.9791 5.69552C8.67995 6.89317 9.4429 7.94002 10.1171 8.84491C10.3123 9.10219 10.3212 9.44818 10.1526 9.71432C9.17676 11.2757 8.24524 12.7573 7.55327 14.3275C7.40245 14.6735 7.02984 14.8509 6.66611 14.7622C5.13133 14.3896 3.6764 14.0259 2.23921 13.6533C1.52949 16.0042 1.3698 18.1866 1.75128 20.1384C2.66505 19.9876 3.53446 19.8013 4.37725 19.6238C4.86519 19.5262 5.33538 19.4287 5.80557 19.3311C6.1693 19.2601 6.53304 19.4553 6.66611 19.7924C7.44681 21.682 8.29848 23.1991 9.26547 24.4056C9.46952 24.6629 9.48726 25.0177 9.3187 25.2927C8.52026 26.5969 7.77505 27.6703 7.04759 28.6905C8.1654 29.968 9.56711 31.006 11.1462 31.7335C11.2882 31.4673 11.4213 31.2101 11.5543 30.9528C12.0245 30.0479 12.477 29.1874 12.956 28.3446C13.1068 28.0784 13.3996 27.9276 13.7101 27.9542C15.2094 28.1139 16.8152 28.2292 18.3588 27.9986C18.3943 27.9986 18.4298 27.9986 18.4741 27.9986Z" fill="black"></path><path d="M16.3449 20.5375C15.6796 20.5375 15.0142 20.4045 14.3932 20.1294C13.8432 19.881 13.4439 19.5794 13.1778 19.1891C12.8141 18.6656 12.7253 18.0624 12.6899 17.5922C12.5657 15.9864 12.956 14.5226 13.7811 13.4669C14.8102 12.1539 16.5135 11.5773 17.9418 12.0652C18.0483 12.1007 18.137 12.1628 18.2168 12.2338C19.6984 12.7483 20.7896 14.2387 20.8783 15.8711C20.967 17.4502 20.1508 19.0116 18.7935 19.8633C18.066 20.3069 17.2143 20.5375 16.3449 20.5375ZM16.895 13.4226C16.2119 13.4226 15.4844 13.7863 15.0053 14.4073C14.4198 15.1614 14.1448 16.2526 14.2335 17.468C14.2513 17.743 14.2956 18.089 14.4464 18.3019C14.5529 18.4527 14.7392 18.5858 15.0231 18.7189C15.9901 19.1447 17.1168 19.0826 17.9773 18.5414C18.8467 17.9914 19.3967 16.9446 19.3435 15.9421C19.2903 14.9307 18.5983 13.9726 17.7023 13.671L17.5958 13.6355C17.4273 13.5822 17.2942 13.5201 17.1877 13.4492C17.0813 13.4314 16.9926 13.4226 16.895 13.4226Z" fill="black"></path><g opacity="0.1294"><path d="M46.6679 55.1542C45.4082 53.859 43.9355 51.5879 42.658 48.9885C41.4515 46.4069 40.8482 45.431 40.3337 42.2639C40.1119 40.6493 40.0852 41.013 40.0409 39.3186C40.1828 38.5822 40.2361 37.7572 39.6328 37.2071C38.5593 36.0982 36.6076 36.9942 36.7141 38.529C36.6963 38.6709 36.7318 38.8129 36.7496 38.9459C36.7584 39.0435 36.7762 39.1411 36.785 39.2387C36.7762 39.2032 36.7762 39.2298 36.7762 39.3984C36.7141 40.0904 37.0867 42.7164 37.0867 42.6454C37.3439 45.156 38.2577 47.507 39.3134 49.7781C40.5909 52.5815 42.1257 55.3051 44.2105 57.5939C45.8784 59.1553 48.2293 56.8044 46.6679 55.1542Z" fill="black"></path></g><g opacity="0.1294"><path d="M77.1682 67.477C74.8173 68.098 73.8858 68.0359 70.9936 67.8851C67.7555 67.5834 66.0788 67.5923 62.823 66.2616C62.7875 66.2438 62.752 66.2261 62.6988 66.1995C61.4124 65.401 59.709 66.856 60.3833 68.2399C60.7293 69.2069 61.9181 69.3134 62.7431 69.6948C66.4071 70.9635 70.3726 70.9812 74.2051 71.2208C75.1455 71.203 76.0859 71.0522 77.0085 70.8925C77.5497 70.7506 78.1796 70.7506 78.6143 70.3691C80.0604 69.3311 78.8804 66.989 77.1682 67.477Z" fill="black"></path></g></svg>