<svg xmlns="http://www.w3.org/2000/svg" width="117" height="89" viewBox="0 0 117 89" fill="none"><path d="M112.048 51.9705L62.9737 17.8707C62.8316 17.7716 62.6821 17.6763 62.525 17.5847C61.3604 16.9134 59.8388 16.4984 58.1788 16.4068C56.2963 16.3039 54.4606 16.6367 53.0137 17.3341L5.29625 40.3596C2.30339 41.8012 1.90335 44.3889 4.40456 46.1296L53.4829 80.2256C53.625 80.3247 53.7745 80.4201 53.9316 80.5117C55.0999 81.1848 56.6216 81.5999 58.2778 81.6896C60.1584 81.7887 61.9923 81.4596 63.4429 80.7622L78.0427 73.7153L81.9197 71.8437L85.679 70.032H85.6809L89.1953 68.3361L92.992 66.5038L111.157 57.7386C114.151 56.2952 114.55 53.7075 112.048 51.9705ZM110.957 57.5946L92.7658 66.3711L88.9728 68.2015L85.4566 69.8973L81.6991 71.711L63.2391 80.6164C61.8558 81.2839 60.1061 81.5961 58.3078 81.5008C56.7244 81.4166 55.2738 81.0203 54.1578 80.3752C54.0101 80.2911 53.868 80.2013 53.7315 80.106L4.65319 46.0099C2.266 44.3496 2.64923 41.8797 5.50375 40.5036L53.2212 17.48C54.6027 16.8125 56.3524 16.5002 58.1507 16.5956C59.7341 16.6797 61.1847 17.0761 62.2989 17.7174C62.4484 17.8034 62.5905 17.8969 62.7288 17.9904L111.805 52.0883C114.191 53.7486 113.811 56.2185 110.957 57.5946Z" fill="#BEBEBE"></path><path d="M104.23 36.0833C104.226 36.1824 104.215 36.2797 104.196 36.3769C104.194 36.3862 104.192 36.3956 104.19 36.4049C104.17 36.5059 104.142 36.6069 104.102 36.7078V36.7097C104.063 36.8144 104.015 36.9172 103.957 37.0201C103.953 37.0275 103.949 37.035 103.944 37.0444C103.925 37.078 103.902 37.1117 103.882 37.1453C103.867 37.1678 103.854 37.1921 103.839 37.2145C103.815 37.2519 103.787 37.2874 103.759 37.323C103.744 37.3417 103.73 37.3622 103.716 37.3809C103.669 37.4408 103.616 37.5006 103.562 37.5585C103.545 37.5754 103.529 37.5941 103.512 37.6109C103.472 37.652 103.431 37.6932 103.39 37.7324C103.373 37.7474 103.357 37.7623 103.34 37.7792C103.248 37.8633 103.149 37.9456 103.043 38.0241C103.029 38.0334 103.016 38.0428 103.003 38.0521C102.891 38.1344 102.773 38.2129 102.646 38.2896C102.639 38.2933 102.631 38.299 102.624 38.3027C102.485 38.385 102.34 38.4654 102.183 38.5401L62.6848 57.5981C62.5446 57.6654 62.3988 57.729 62.2511 57.787C62.2006 57.8075 62.1501 57.8225 62.0997 57.8412C62.0006 57.8786 61.9015 57.916 61.7987 57.9478C61.6323 58.0001 61.4641 58.0487 61.294 58.0917C61.2585 58.1011 61.2211 58.1067 61.1855 58.116C61.0491 58.1478 60.9107 58.1796 60.7724 58.2039C60.7332 58.2114 60.692 58.217 60.6528 58.2226C60.4714 58.2544 60.2882 58.2787 60.1032 58.2993C60.0415 58.3067 59.9779 58.3123 59.9162 58.318C59.7817 58.3292 59.6471 58.3385 59.5125 58.3441C59.4526 58.3479 59.3928 58.3516 59.333 58.3535C59.1928 58.3572 59.0526 58.3572 58.9124 58.3553C58.8675 58.3553 58.8227 58.3553 58.7778 58.3553C58.5965 58.3497 58.417 58.3404 58.2376 58.3273C58.2039 58.3254 58.1721 58.3198 58.1385 58.3161C57.9927 58.303 57.8469 58.288 57.7029 58.2675C57.645 58.26 57.5889 58.2488 57.5328 58.2394C57.4094 58.2207 57.2879 58.2002 57.1664 58.1759C57.1066 58.1646 57.0468 58.1497 56.987 58.1366C56.8561 58.1085 56.7271 58.0768 56.6 58.0412C56.542 58.0263 56.4841 58.0095 56.428 57.9926C56.2186 57.9309 56.0111 57.8636 55.8149 57.7851C55.7158 57.7458 55.6223 57.7028 55.527 57.6598C55.4821 57.6393 55.4354 57.6224 55.3905 57.6C55.2522 57.5345 55.1195 57.4635 54.9905 57.3906C54.8652 57.3177 54.7456 57.2429 54.6297 57.1625L14.0046 28.941C13.1073 28.3184 12.6717 27.5612 12.6736 26.8096L12.625 44.2072C12.6231 44.9589 13.0587 45.7161 13.956 46.3387L54.5792 74.5639C54.6951 74.6443 54.8147 74.7191 54.94 74.792C55.069 74.8668 55.2017 74.936 55.34 75.0014C55.3868 75.0238 55.4354 75.0425 55.4821 75.0631C55.5737 75.1042 55.6634 75.1454 55.7588 75.1828C55.7606 75.1828 55.7625 75.1846 55.7644 75.1846C55.9625 75.2631 56.1682 75.3305 56.3775 75.3922C56.4018 75.3996 56.4243 75.409 56.4504 75.4165C56.4822 75.4258 56.5177 75.4314 56.5495 75.4408C56.6766 75.4744 56.8056 75.5062 56.9365 75.5361C56.9757 75.5455 57.015 75.5567 57.0561 75.5661C57.0767 75.5698 57.0972 75.5717 57.1159 75.5773C57.2374 75.6016 57.3608 75.6221 57.4842 75.6408C57.5309 75.6483 57.5758 75.6577 57.6225 75.6651C57.6319 75.667 57.6431 75.667 57.6524 75.6689C57.7964 75.6894 57.9422 75.7044 58.0899 75.7175C58.1198 75.7194 58.1497 75.725 58.1815 75.7268C58.1833 75.7268 58.1871 75.7268 58.189 75.7268C58.3684 75.7418 58.5497 75.7512 58.7292 75.7549C58.7348 75.7549 58.7404 75.7549 58.7442 75.7549C58.7834 75.7568 58.8227 75.753 58.8619 75.7549C59.0021 75.7568 59.1423 75.7568 59.2844 75.753C59.2994 75.753 59.3162 75.753 59.3311 75.753C59.376 75.7512 59.419 75.7455 59.4639 75.7437C59.5985 75.7381 59.7331 75.7287 59.8676 75.7175C59.8976 75.7156 59.9293 75.7138 59.9592 75.7119C59.991 75.7081 60.0228 75.7025 60.0546 75.6988C60.2396 75.6782 60.4228 75.6539 60.6042 75.6221C60.6322 75.6165 60.6621 75.6147 60.6902 75.6109C60.7014 75.6091 60.7126 75.6053 60.7238 75.6034C60.864 75.5773 61.0005 75.5473 61.1369 75.5156C61.1725 75.5062 61.2098 75.5006 61.2454 75.4913C61.4173 75.4483 61.5856 75.3996 61.7501 75.3473C61.7557 75.3454 61.7613 75.3454 61.765 75.3436C61.8623 75.3118 61.9557 75.2762 62.0511 75.2407C62.1015 75.222 62.1539 75.2052 62.2025 75.1865C62.3502 75.1285 62.496 75.065 62.6362 74.9977L102.134 55.9397C102.289 55.8649 102.435 55.7845 102.573 55.7022C102.579 55.6985 102.585 55.6966 102.59 55.6929C102.592 55.691 102.594 55.691 102.596 55.6891C102.723 55.6125 102.841 55.534 102.951 55.4517C102.964 55.4423 102.979 55.433 102.992 55.4218C103.099 55.3414 103.196 55.261 103.289 55.1768C103.297 55.1694 103.308 55.1619 103.315 55.1544C103.325 55.1469 103.332 55.1376 103.34 55.1301C103.383 55.0908 103.422 55.0497 103.461 55.0086C103.478 54.9917 103.495 54.973 103.512 54.9562C103.566 54.8983 103.616 54.8384 103.665 54.7786L103.667 54.7767C103.68 54.7599 103.693 54.7412 103.706 54.7225C103.734 54.6851 103.762 54.6496 103.787 54.6122C103.802 54.5897 103.815 54.5673 103.83 54.5449C103.852 54.5112 103.873 54.4776 103.893 54.442C103.895 54.4383 103.897 54.4364 103.899 54.4327C103.901 54.4271 103.902 54.4233 103.906 54.4177C103.962 54.3149 104.013 54.2121 104.052 54.1074V54.1055C104.089 54.0045 104.117 53.9036 104.14 53.8026C104.142 53.797 104.144 53.7895 104.145 53.7839C104.145 53.782 104.145 53.7783 104.147 53.7764C104.166 53.6792 104.177 53.5801 104.181 53.4829C104.181 53.4735 104.183 53.4661 104.185 53.4567C104.185 53.4399 104.185 53.4231 104.185 53.4062L104.233 36.0086C104.233 36.0329 104.23 36.0572 104.23 36.0833Z" fill="#BEC1D0"></path><path d="M61.9143 5.42017C62.0395 5.49309 62.161 5.56975 62.2769 5.65015L102.9 33.8753C104.927 35.2832 104.603 37.3717 102.18 38.5421L62.6845 57.5982C60.4001 58.7014 57.0595 58.591 54.9883 57.3944C54.863 57.3215 54.7434 57.2467 54.6275 57.1663L14.0043 28.9411C11.9779 27.5333 12.3013 25.4448 14.724 24.2743L54.2218 5.21824C56.5062 4.11511 59.8449 4.22356 61.9143 5.42017Z" fill="white"></path><path d="M79.8096 32.849L79.819 29.7061C79.8246 29.7098 79.8284 29.7135 79.834 29.7173L79.8246 32.8603C79.819 32.8565 79.8133 32.8528 79.8096 32.849Z" fill="#141EA7"></path><path d="M80.95 31.5177C80.95 31.5103 80.95 31.5028 80.95 31.4953C80.95 31.4429 80.9463 31.3925 80.9407 31.3401C80.9388 31.3251 80.937 31.3102 80.9332 31.2952C80.9314 31.2821 80.9295 31.2691 80.9276 31.256C80.9239 31.2373 80.9239 31.2204 80.9201 31.2017C80.9108 31.1569 80.9014 31.112 80.8884 31.069C80.8865 31.0615 80.8846 31.0559 80.8828 31.0484C80.8809 31.0391 80.8771 31.0316 80.8753 31.0223C80.8678 30.9961 80.8603 30.9699 80.851 30.9437C80.836 30.9026 80.8211 30.8633 80.8042 30.8241C80.8024 30.8185 80.8005 30.8147 80.7968 30.811C80.7949 30.8054 80.7912 30.7979 80.7874 30.7923C80.7743 30.7642 80.7612 30.7362 80.7482 30.7081C80.7295 30.6708 80.707 30.6334 80.6865 30.596C80.6827 30.5904 80.679 30.5847 80.6771 30.5791C80.6734 30.5735 80.6696 30.566 80.664 30.5604C80.6491 30.5343 80.6323 30.51 80.6154 30.4838C80.5911 30.4464 80.565 30.4109 80.5369 30.3753C80.5313 30.3679 80.5257 30.3604 80.5201 30.3548C80.5145 30.3473 80.5089 30.3398 80.5033 30.3323C80.4864 30.3099 80.4696 30.2893 80.4509 30.2669C80.4191 30.2314 80.3874 30.194 80.3537 30.1584C80.3462 30.1491 80.3369 30.1416 80.3294 30.1341C80.3219 30.1267 80.3145 30.1192 80.3051 30.1098C80.2864 30.0911 80.2677 30.0706 80.2472 30.0519C80.2079 30.0145 80.1687 29.979 80.1257 29.9434C80.1182 29.936 80.1088 29.9285 80.0995 29.9229C80.0901 29.9135 80.0789 29.906 80.0696 29.8967C80.0434 29.8743 80.0172 29.8537 79.9911 29.8312C79.9425 29.7939 79.8901 29.7546 79.8378 29.7191V29.7209C79.8322 29.7172 79.8284 29.7135 79.8228 29.7097L79.8135 32.8527C79.9013 32.9144 79.9836 32.9761 80.0602 33.0415C80.0714 33.0509 80.0808 33.0584 80.092 33.0677C80.1649 33.1294 80.2341 33.193 80.2976 33.2566C80.3051 33.264 80.3145 33.2734 80.3219 33.2809C80.3855 33.3463 80.4435 33.4117 80.4958 33.4791C80.5014 33.4865 80.507 33.494 80.5126 33.5015C80.565 33.5688 80.6136 33.638 80.6566 33.7072C80.6603 33.7128 80.664 33.7203 80.6696 33.7259C80.7126 33.7969 80.75 33.868 80.7818 33.939C80.7855 33.9446 80.7874 33.9521 80.7912 33.9577C80.8229 34.0288 80.8491 34.0998 80.8697 34.1708C80.8715 34.1802 80.8753 34.1877 80.8771 34.197C80.8977 34.2662 80.9108 34.3354 80.922 34.4046C80.9239 34.4177 80.9257 34.4307 80.9276 34.4438C80.937 34.5167 80.9426 34.5915 80.9426 34.6645L80.95 31.5177Z" fill="#B3B4C8"></path><path d="M61.6335 17.0706C61.5811 17.0332 61.5269 16.9977 61.4708 16.964C61.4241 16.9341 61.3755 16.9061 61.3269 16.8761C61.3044 16.8631 61.282 16.85 61.2596 16.8387C61.1792 16.7939 61.0969 16.7509 61.0128 16.7097C61.0072 16.7079 61.0016 16.7041 60.996 16.7023C60.968 16.6892 60.938 16.6779 60.91 16.6649C60.8427 16.6331 60.7754 16.6013 60.7044 16.5732C60.6894 16.5676 60.6745 16.562 60.6614 16.5564C60.5941 16.5284 60.5231 16.5041 60.4539 16.4798C60.4071 16.4629 60.3623 16.4442 60.3137 16.4274C60.2987 16.4218 60.2819 16.4181 60.2669 16.4125C60.2314 16.4012 60.194 16.39 60.1566 16.3788C60.0707 16.3526 59.9847 16.3283 59.8968 16.304C59.8557 16.2928 59.8146 16.2834 59.7716 16.2722C59.7417 16.2647 59.7136 16.2573 59.6837 16.2498C59.6501 16.2423 59.6164 16.2367 59.5828 16.2311C59.4743 16.2087 59.3659 16.1862 59.2556 16.1675C59.2238 16.1619 59.1921 16.1544 59.1584 16.1488C59.1322 16.1451 59.1042 16.1432 59.078 16.1395C58.9958 16.1283 58.9135 16.117 58.8313 16.1077C58.7864 16.1021 58.7434 16.0946 58.6985 16.0909C58.6668 16.0871 58.6369 16.0853 58.6051 16.0834C58.5714 16.0796 58.5378 16.0778 58.5041 16.0759C58.4705 16.074 58.4368 16.0703 58.4013 16.0684C58.3209 16.0628 58.2406 16.0591 58.1602 16.0572C58.1508 16.0572 58.1396 16.0572 58.1303 16.0572C58.1172 16.0572 58.1041 16.0572 58.0929 16.0572C58.0443 16.0553 57.9938 16.0553 57.9452 16.0535C57.876 16.0535 57.805 16.0535 57.7358 16.0553C57.7227 16.0553 57.7078 16.0553 57.6947 16.0572C57.6816 16.0572 57.6685 16.0572 57.6554 16.0591C57.6143 16.0609 57.5751 16.0609 57.5339 16.0628C57.4666 16.0647 57.3993 16.0684 57.3339 16.074C57.3096 16.0759 57.2853 16.0778 57.261 16.0796C57.246 16.0815 57.2311 16.0815 57.2161 16.0834C57.1881 16.0853 57.1619 16.0871 57.1339 16.089C57.0685 16.0946 57.0012 16.1021 56.9357 16.1096C56.8983 16.1133 56.8628 16.1189 56.8254 16.1226C56.8124 16.1245 56.7993 16.1264 56.7862 16.1283C56.7712 16.1301 56.7544 16.132 56.7394 16.1339C56.674 16.1432 56.6086 16.1526 56.545 16.1638C56.4927 16.1731 56.4404 16.1825 56.3861 16.1918C56.3787 16.1937 56.3731 16.1937 56.3656 16.1956C56.36 16.1956 56.3562 16.1974 56.3506 16.1974C56.2871 16.2105 56.2235 16.2217 56.1599 16.2367C56.0964 16.2498 56.0347 16.2647 55.973 16.2797C55.9674 16.2816 55.9637 16.2816 55.9581 16.2834C55.9524 16.2853 55.945 16.2872 55.9394 16.2891C55.8889 16.3021 55.8384 16.3152 55.7879 16.3283C55.7263 16.3451 55.6627 16.3638 55.6029 16.3825C55.5898 16.3863 55.5748 16.3919 55.5617 16.3956C55.5487 16.3994 55.5374 16.4031 55.5244 16.4068C55.4888 16.4181 55.4533 16.4293 55.4178 16.4405C55.3543 16.4629 55.2907 16.4854 55.229 16.5078C55.2103 16.5153 55.1916 16.5228 55.1729 16.5302C55.158 16.5359 55.143 16.5415 55.1281 16.5489C55.0981 16.5602 55.0682 16.5714 55.0402 16.5845C54.9729 16.6125 54.9075 16.6406 54.8439 16.6705C54.8215 16.6798 54.8009 16.691 54.7785 16.7023L37.6588 24.9645C37.6102 24.987 37.5635 25.0113 37.5186 25.0356C37.5074 25.0412 37.4981 25.0468 37.4868 25.0543C37.4495 25.0748 37.4121 25.0954 37.3747 25.116C37.3522 25.129 37.3298 25.1403 37.3093 25.1515C37.3018 25.1571 37.2943 25.1608 37.2868 25.1664C37.2289 25.2001 37.1747 25.2356 37.1204 25.2711C37.1092 25.2786 37.0961 25.2861 37.0849 25.2936C37.0831 25.2955 37.0812 25.2955 37.0812 25.2973C36.9971 25.3534 36.9204 25.4114 36.8456 25.4712C36.8363 25.4787 36.827 25.4843 36.8195 25.4899C36.8101 25.4974 36.8027 25.5049 36.7952 25.5123C36.7335 25.5628 36.6755 25.6152 36.6195 25.6675C36.6157 25.6713 36.612 25.675 36.6082 25.6787C36.5503 25.7348 36.4961 25.7909 36.4456 25.8489C36.4325 25.8638 36.4194 25.8807 36.4063 25.8956C36.3652 25.9442 36.3278 25.9929 36.2923 26.0415C36.2848 26.0527 36.2755 26.0639 36.2661 26.077C36.225 26.1368 36.1876 26.1967 36.154 26.2565C36.1465 26.2714 36.139 26.2864 36.1316 26.2995C36.1054 26.35 36.0811 26.3986 36.0605 26.4491C36.053 26.464 36.0474 26.4809 36.04 26.4958C36.0156 26.5575 35.9951 26.6211 35.9764 26.6828C35.9727 26.694 35.9708 26.7033 35.9689 26.7146C35.9558 26.7688 35.9446 26.823 35.9371 26.8772C35.9353 26.8941 35.9315 26.9109 35.9297 26.9296C35.9222 26.9932 35.9166 27.0586 35.9166 27.1222L35.9072 30.2651C35.9072 30.2016 35.9128 30.1361 35.9203 30.0726C35.9222 30.0557 35.9259 30.037 35.9278 30.0202C35.9353 29.966 35.9465 29.9118 35.9596 29.8594C35.9614 29.8482 35.9633 29.837 35.967 29.8258C35.9839 29.7622 36.0063 29.7005 36.0306 29.6388C36.0362 29.6238 36.0437 29.607 36.0512 29.5921C36.0717 29.5416 36.096 29.493 36.1222 29.4425C36.1297 29.4275 36.1372 29.4126 36.1446 29.3976C36.1783 29.3378 36.2157 29.2761 36.2568 29.2181C36.2643 29.2069 36.2736 29.1957 36.283 29.1826C36.3185 29.134 36.3559 29.0835 36.397 29.0367C36.4101 29.0218 36.4232 29.005 36.4363 28.99C36.4867 28.932 36.5409 28.876 36.5989 28.8199C36.6026 28.8161 36.6064 28.8124 36.6101 28.8086C36.6643 28.7563 36.7241 28.7039 36.7858 28.6535C36.8027 28.6404 36.8195 28.6254 36.8363 28.6123C36.9111 28.5525 36.9877 28.4945 37.0718 28.4384C37.0849 28.4291 37.098 28.4216 37.1111 28.4141C37.1653 28.3786 37.2195 28.3431 37.2775 28.3094C37.3055 28.2926 37.3373 28.2758 37.3672 28.2589C37.4046 28.2384 37.4401 28.2178 37.4794 28.1972C37.5354 28.1673 37.5934 28.1374 37.6532 28.1094L54.7729 19.8471C54.8869 19.7929 55.0047 19.7424 55.1243 19.6938C55.1393 19.6882 55.1542 19.6826 55.1692 19.6751C55.2832 19.6302 55.401 19.5891 55.5188 19.5517C55.5318 19.548 55.5449 19.5442 55.5561 19.5386C55.6795 19.4993 55.8066 19.4638 55.9338 19.432C55.9412 19.4302 55.9468 19.4283 55.9543 19.4264C56.0889 19.3928 56.2235 19.3629 56.3618 19.3367C56.3674 19.3348 56.3749 19.3348 56.3805 19.3329C56.5133 19.3086 56.646 19.2862 56.7806 19.2694C56.7937 19.2675 56.8067 19.2656 56.8217 19.2638C56.9507 19.2469 57.0815 19.2338 57.2124 19.2226C57.2274 19.2208 57.2423 19.2208 57.2573 19.2189C57.3881 19.2095 57.5208 19.2021 57.6517 19.1983C57.6648 19.1983 57.6779 19.1983 57.6891 19.1965C57.8237 19.1927 57.9564 19.1946 58.091 19.1983C58.1041 19.1983 58.1153 19.1983 58.1284 19.1983C58.2536 19.2021 58.377 19.2095 58.5023 19.2189C58.5359 19.2208 58.5696 19.2245 58.6013 19.2264C58.678 19.2338 58.7528 19.2413 58.8275 19.2507C58.9098 19.26 58.992 19.2694 59.0743 19.2825C59.1341 19.2918 59.1921 19.3012 59.2519 19.3105C59.3622 19.3292 59.4706 19.3498 59.579 19.3741C59.6426 19.3872 59.7061 19.4003 59.7678 19.4152C59.8089 19.4246 59.8501 19.4358 59.8912 19.447C59.9791 19.4694 60.0669 19.4956 60.1529 19.5218C60.1884 19.533 60.2258 19.5442 60.2613 19.5554C60.3249 19.576 60.3866 19.6003 60.4501 19.6227C60.5193 19.6471 60.5885 19.6714 60.6558 19.6994C60.7418 19.7331 60.824 19.7705 60.9063 19.8078C60.9343 19.8209 60.9642 19.8322 60.9904 19.8452C61.1044 19.8995 61.2147 19.9574 61.3213 20.0191C61.4278 20.0808 61.5306 20.1444 61.6278 20.2136L79.8112 32.8491L79.8205 29.7061L61.6335 17.0706Z" fill="#B3B4C8"></path><path d="M61.3173 20.0191C61.4239 20.0808 61.5267 20.1444 61.6239 20.2136L79.8072 32.8491C81.5289 34.0457 81.256 35.8219 79.1959 36.8166L62.0744 45.077C60.1321 46.0137 57.2926 45.9221 55.5298 44.9031C55.4232 44.8414 55.3204 44.7778 55.2232 44.7087L37.0398 32.075C35.3163 30.8784 35.5911 29.1022 37.6511 28.1075L54.7708 19.8452C56.7168 18.9085 59.5564 19.002 61.3173 20.0191Z" fill="#D4D7E0"></path><path d="M99.2547 33.5912C101.124 34.8907 100.825 36.824 98.5911 37.9009L62.9348 55.106C61.8505 55.6277 60.4803 55.8745 59.0745 55.7978C57.8351 55.7324 56.6986 55.422 55.8274 54.919C55.7097 54.8517 55.5975 54.7788 55.4928 54.7059L18.8177 29.2273C16.9484 27.9279 17.2475 25.9946 19.4832 24.9158L55.1395 7.71069C56.2219 7.18904 57.594 6.94224 58.9979 7.01703C60.2392 7.08433 61.3757 7.39471 62.2469 7.89766C62.3628 7.96497 62.4749 8.03602 62.5815 8.11081L99.2547 33.5912ZM98.4378 37.7962C100.571 36.766 100.857 34.9206 99.0715 33.681L62.3983 8.19868C62.2955 8.12763 62.1889 8.06032 62.0767 7.99488C61.2449 7.51437 60.1606 7.21895 58.9773 7.15538C57.6333 7.08434 56.3266 7.31805 55.2928 7.81726L19.6346 25.0205C17.5017 26.0507 17.2157 27.8961 19.0009 29.1357L55.6742 54.6162C55.7751 54.6872 55.8817 54.7545 55.9938 54.8181C56.8257 55.2986 57.9118 55.594 59.0951 55.6576C60.4392 55.7286 61.7459 55.4949 62.7796 54.9957L98.4378 37.7962Z" fill="#E1E2E7"></path><path d="M108.363 27.8306L108.357 30.1172L105.002 32.0673L105.008 29.7807L108.363 27.8306Z" fill="#07B182"></path><path d="M105.008 29.7807L105.002 32.0673L101.624 30.1172L101.63 27.8306L105.008 29.7807Z" fill="#057B5A"></path><path d="M108.364 27.8305L105.008 29.7806L101.63 27.8305L104.986 25.8804L108.364 27.8305Z" fill="#08C591"></path><path d="M112.175 21.1951L112.169 23.0236L110.333 24.0913L110.337 22.2627L112.175 21.1951Z" fill="#07B182"></path><path d="M110.338 22.2627L110.335 24.0913L108.486 23.0236L108.49 21.1951L110.338 22.2627Z" fill="#057B5A"></path><path d="M112.175 21.195L110.338 22.2627L108.489 21.195L110.326 20.1274L112.175 21.195Z" fill="#08C591"></path><path d="M5.21486 9.73389L5.21112 11.5625L3.37354 12.6301L3.37914 10.8015L5.21486 9.73389Z" fill="#07B182"></path><path d="M3.37834 10.8015L3.37273 12.6301L1.52393 11.5625L1.52953 9.73389L3.37834 10.8015Z" fill="#057B5A"></path><path d="M5.21431 9.73387L3.37859 10.8015L1.52979 9.73387L3.3655 8.66626L5.21431 9.73387Z" fill="#08C591"></path><path d="M116.999 28.8499L116.991 31.1365L114.935 32.3313L114.941 30.0465L116.999 28.8499Z" fill="#07B182"></path><path d="M114.941 30.0461L114.936 32.3309L112.528 30.9417L112.533 28.655L114.941 30.0461Z" fill="#057B5A"></path><path d="M116.999 28.8498L114.94 30.0464L112.533 28.6554L114.591 27.4587L116.999 28.8498Z" fill="#08C591"></path><path d="M6.73759 19.1255L6.73198 21.4121L3.37646 23.3623L3.38207 21.0775L6.73759 19.1255Z" fill="#07B182"></path><path d="M3.38355 21.0775L3.37795 23.3623L0 21.4121L0.0056081 19.1255L3.38355 21.0775Z" fill="#057B5A"></path><path d="M6.73932 19.1254L3.38381 21.0774L0.00585938 19.1254L3.36324 17.1753L6.73932 19.1254Z" fill="#08C591"></path><path d="M15.3797 13.8188L15.3741 16.1036L13.3159 17.3003L13.3215 15.0136L15.3797 13.8188Z" fill="#07B182"></path><path d="M13.3215 15.0139L13.3159 17.3005L10.9062 15.9095L10.9119 13.6228L13.3215 15.0139Z" fill="#057B5A"></path><path d="M15.3789 13.819L13.3207 15.0137L10.9111 13.6226L12.9693 12.426L15.3789 13.819Z" fill="#08C591"></path><path d="M102.335 82.7161H102.109V80.7249C102.109 80.1135 101.781 79.5376 101.256 79.2253L85.3291 69.9572L85.5067 69.8674L101.37 79.0309C101.966 79.3843 102.335 80.0331 102.335 80.7249V82.7161Z" fill="#BEBEBE"></path><path d="M85.6648 81.2709H85.4386V78.3804C85.4274 78.1373 85.2909 77.9148 85.0759 77.7914L77.7798 73.6967L77.8901 73.4985L85.1881 77.5951C85.4722 77.7577 85.6517 78.0494 85.6666 78.3766L85.6648 81.2709Z" fill="#BEBEBE"></path><path d="M85.4609 83.9183C84.9225 83.9183 84.3879 83.808 83.9692 83.5837C83.5093 83.3369 83.2494 82.991 83.2364 82.6095C83.2233 82.23 83.4588 81.871 83.8962 81.598C84.7599 81.0577 86.1974 81.0128 87.1003 81.4971C87.5602 81.7439 87.82 82.0898 87.8331 82.4712C87.8462 82.8507 87.6107 83.2097 87.1732 83.4827C86.7115 83.7706 86.0834 83.9183 85.4609 83.9183ZM85.6086 81.3849C85.0309 81.3849 84.4477 81.5214 84.0178 81.7906C83.6514 82.0187 83.4551 82.3085 83.4644 82.6021C83.4738 82.8993 83.6925 83.1761 84.0776 83.3836C84.915 83.8323 86.2516 83.7912 87.0536 83.2901C87.42 83.062 87.6163 82.7722 87.6069 82.4787C87.5976 82.1814 87.3789 81.9047 86.9938 81.6971C86.605 81.4858 86.1077 81.3849 85.6086 81.3849Z" fill="#BEBEBE"></path><path d="M102.151 85.3561C101.612 85.3561 101.078 85.2458 100.659 85.0214C100.199 84.7746 99.9394 84.4287 99.9263 84.0473C99.9132 83.6677 100.149 83.3087 100.586 83.0358C101.45 82.4954 102.887 82.4506 103.79 82.9348C104.25 83.1816 104.51 83.5275 104.523 83.9089C104.536 84.2885 104.301 84.6475 103.863 84.9204C103.4 85.2102 102.771 85.3561 102.151 85.3561ZM102.297 82.8226C101.719 82.8226 101.136 82.9591 100.706 83.2284C100.339 83.4565 100.143 83.7463 100.152 84.0398C100.162 84.3371 100.381 84.6138 100.766 84.8213C101.603 85.2701 102.94 85.2289 103.742 84.7279C104.108 84.4998 104.304 84.21 104.295 83.9164C104.286 83.6191 104.067 83.3424 103.682 83.1349C103.293 82.9255 102.798 82.8226 102.297 82.8226Z" fill="#BEBEBE"></path><path d="M94.0565 86.2967H93.8303V80.0462C93.8303 79.4348 93.5031 78.8589 92.9778 78.5467L81.5635 71.7634L81.8215 71.6531L93.0937 78.3523C93.6882 78.7056 94.0583 79.3544 94.0583 80.0462V86.2967H94.0565Z" fill="#BEBEBE"></path><path d="M93.8696 89.0001C93.3312 89.0001 92.7966 88.8898 92.3778 88.6655C91.918 88.4186 91.6581 88.0728 91.645 87.6913C91.632 87.3118 91.8675 86.9528 92.3049 86.6798C93.1686 86.1395 94.6061 86.0946 95.509 86.5789C95.9689 86.8257 96.2287 87.1715 96.2418 87.553C96.2549 87.9325 96.0194 88.2915 95.5819 88.5645C95.1183 88.8524 94.4921 89.0001 93.8696 89.0001ZM94.0173 86.4667C93.4396 86.4667 92.8564 86.6032 92.4264 86.8724C92.06 87.1005 91.8638 87.3903 91.8731 87.6839C91.8825 87.9811 92.1012 88.2579 92.4863 88.4654C93.3237 88.9141 94.6603 88.873 95.4623 88.3719C95.8287 88.1438 96.025 87.854 96.0156 87.5605C96.0063 87.2632 95.7876 86.9865 95.4025 86.7789C95.0136 86.5695 94.5164 86.4667 94.0173 86.4667Z" fill="#BEBEBE"></path><path d="M110.674 73.848H98.2973L88.8794 68.2444L89.0944 68.1416L98.3589 73.6217H110.674V73.848Z" fill="#BEBEBE"></path><path d="M102.68 69.0317L96.7987 68.8466L92.6431 66.4309L92.888 66.3113L96.8622 68.6222L102.687 68.8055L102.68 69.0317Z" fill="#BEBEBE"></path><path d="M112.784 74.9757C112.245 74.9757 111.711 74.8654 111.292 74.641C110.832 74.3942 110.572 74.0483 110.559 73.6669C110.546 73.2874 110.782 72.9284 111.219 72.6554C112.083 72.1151 113.52 72.0702 114.423 72.5544C114.883 72.8012 115.143 73.1471 115.156 73.5286C115.169 73.9081 114.933 74.2671 114.496 74.5401C114.034 74.8299 113.406 74.9757 112.784 74.9757ZM112.929 72.4423C112.352 72.4423 111.769 72.5787 111.339 72.848C110.972 73.0761 110.776 73.3659 110.785 73.6594C110.795 73.9567 111.013 74.2334 111.398 74.441C112.238 74.8897 113.573 74.8486 114.374 74.3475C114.741 74.1194 114.937 73.8296 114.928 73.536C114.918 73.2388 114.7 72.962 114.315 72.7545C113.928 72.5451 113.43 72.4423 112.929 72.4423Z" fill="#BEBEBE"></path><path d="M104.838 70.2975C104.3 70.2975 103.765 70.1872 103.347 69.9628C102.887 69.716 102.627 69.3701 102.614 68.9887C102.601 68.6091 102.836 68.2502 103.274 67.9772C104.137 67.4368 105.575 67.392 106.478 67.8762C106.938 68.123 107.197 68.4689 107.211 68.8503C107.224 69.2299 106.988 69.5889 106.551 69.8618C106.087 70.1498 105.461 70.2975 104.838 70.2975ZM104.984 67.7622C104.407 67.7622 103.823 67.8987 103.393 68.1679C103.027 68.396 102.831 68.6858 102.84 68.9793C102.849 69.2766 103.068 69.5533 103.453 69.7609C104.291 70.2096 105.627 70.1685 106.429 69.6674C106.796 69.4393 106.992 69.1495 106.983 68.8559C106.973 68.5587 106.754 68.2819 106.369 68.0744C105.982 67.865 105.485 67.7622 104.984 67.7622Z" fill="#BEBEBE"></path><path d="M14.0615 75.5983L14.2877 75.6151L14.4298 73.6295C14.4728 73.0181 14.841 72.4702 15.3888 72.1954L31.2074 64.4473L31.0354 64.3445L15.2878 71.9916C14.6691 72.302 14.2541 72.9227 14.2036 73.6126L14.0615 75.5983Z" fill="#BEBEBE"></path><path d="M30.792 75.3533L31.0182 75.3701L31.2257 72.487C31.2537 72.2458 31.4051 72.0327 31.6295 71.9261L37.7703 69.0206L37.5647 68.8691L31.5323 71.7205C31.2369 71.8625 31.0387 72.1411 30.9995 72.4646L30.792 75.3533Z" fill="#BEBEBE"></path><path d="M29.1278 77.4489C28.7109 77.1441 28.5016 76.7683 28.5427 76.3925C28.5819 76.0129 28.868 75.6857 29.3446 75.4744C30.2793 75.0575 31.7094 75.2052 32.5338 75.8054C32.9507 76.1101 33.16 76.4841 33.1189 76.8618C33.0796 77.2413 32.7955 77.5685 32.3188 77.7817C31.8851 77.9761 31.3449 78.0472 30.8084 78.0079C30.1859 77.963 29.5708 77.7704 29.1278 77.4489ZM29.4362 75.6801C29.0362 75.8577 28.7988 76.1195 28.7689 76.4149C28.7371 76.7084 28.9128 77.0095 29.2624 77.2656C30.027 77.8228 31.3561 77.9612 32.2253 77.5723C32.6254 77.3928 32.8628 77.1329 32.8927 76.8356C32.9245 76.542 32.7488 76.241 32.3992 75.9867C31.9898 75.6876 31.4178 75.51 30.842 75.4688C30.3429 75.4333 29.84 75.5006 29.4362 75.6801Z" fill="#BEBEBE"></path><path d="M12.3832 77.6886C11.9663 77.3838 11.7569 77.0099 11.7981 76.6322C11.8373 76.2527 12.1215 75.9255 12.5981 75.7142C13.5328 75.2972 14.9629 75.4449 15.7873 76.0451C16.2042 76.3499 16.4135 76.7238 16.3724 77.1015C16.3331 77.4811 16.049 77.8083 15.5723 78.0195C15.1386 78.214 14.5984 78.285 14.0619 78.2458C13.4394 78.2009 12.8243 78.0102 12.3832 77.6886ZM12.6897 75.9198C12.2897 76.0975 12.0523 76.3592 12.0224 76.6546C11.9906 76.9482 12.1663 77.2492 12.5159 77.5035C13.2805 78.0607 14.6096 78.199 15.4788 77.8101C15.8789 77.6325 16.1163 77.3707 16.1462 77.0753C16.178 76.7818 16.0023 76.4808 15.6527 76.2265C15.2433 75.9273 14.6713 75.7497 14.0955 75.7086C13.5964 75.6712 13.0935 75.7385 12.6897 75.9198Z" fill="#BEBEBE"></path><path d="M22.061 79.762L22.2872 79.7788L22.7359 73.5452C22.7789 72.9338 23.1471 72.3859 23.6949 72.1111L34.4624 66.7132L34.2138 66.5842L23.5939 71.9073C22.9752 72.2177 22.5602 72.8384 22.5116 73.5283L22.061 79.762Z" fill="#BEBEBE"></path><path d="M20.3768 81.9158C19.96 81.611 19.7506 81.2371 19.7917 80.8594C19.831 80.4799 20.1151 80.1527 20.5918 79.9395C21.5265 79.5226 22.9565 79.6703 23.7809 80.2705C24.1978 80.5752 24.4072 80.9492 24.3661 81.3269C24.3268 81.7064 24.0427 82.0336 23.566 82.2449C23.1323 82.4393 22.592 82.5104 22.0555 82.4711C21.433 82.4281 20.818 82.2374 20.3768 81.9158ZM20.6853 80.1471C20.2852 80.3266 20.0478 80.5864 20.0179 80.8819C19.9861 81.1754 20.1618 81.4764 20.5114 81.7307C21.276 82.2879 22.6051 82.4262 23.4744 82.0373C23.8744 81.8597 24.1118 81.598 24.1417 81.3025C24.1735 81.009 23.9978 80.708 23.6482 80.4537C23.2388 80.1545 22.6668 79.9769 22.091 79.9358C21.59 79.9003 21.0872 79.9657 20.6853 80.1471Z" fill="#BEBEBE"></path><path d="M6.38281 66.1546L18.7281 67.0427L28.1385 62.3273L27.9553 62.1982L18.6814 66.8127L6.39964 65.9283L6.38281 66.1546Z" fill="#BEBEBE"></path><path d="M14.7002 61.9251L20.5794 62.1626L24.8976 60.0498L24.6602 59.9133L20.5308 61.9345L14.7095 61.697L14.7002 61.9251Z" fill="#BEBEBE"></path><path d="M2.51793 66.5714C2.10107 66.2666 1.8917 65.8927 1.93282 65.515C1.97208 65.1355 2.25809 64.8083 2.73478 64.5951C3.66946 64.1763 5.09953 64.3259 5.92392 64.9261C6.34079 65.2308 6.55016 65.6048 6.50903 65.9825C6.46978 66.362 6.18563 66.6892 5.70894 66.9005C5.27525 67.0949 4.735 67.166 4.19663 67.1267C3.57413 67.0837 2.9591 66.893 2.51793 66.5714ZM2.82638 64.8027C2.42634 64.9822 2.18893 65.242 2.15715 65.5375C2.12537 65.831 2.30109 66.132 2.65066 66.3863C3.41523 66.9435 4.74435 67.0818 5.61361 66.6929C6.01365 66.5153 6.25106 66.2536 6.28097 65.9581C6.31275 65.6646 6.13703 65.3636 5.78746 65.1093C5.37806 64.8101 4.80604 64.6325 4.23027 64.5914C3.73115 64.5559 3.23016 64.6213 2.82638 64.8027Z" fill="#BEBEBE"></path><path d="M10.7816 62.473C10.3647 62.1683 10.1554 61.7943 10.1965 61.4166C10.2358 61.0371 10.5199 60.7099 10.9966 60.4986C11.9313 60.0817 13.3613 60.2294 14.1857 60.8295C14.6026 61.1343 14.812 61.5082 14.7708 61.8859C14.7316 62.2655 14.4474 62.5927 13.9707 62.804C13.5371 62.9984 12.9968 63.0695 12.4603 63.0302C11.8378 62.9872 11.2228 62.7946 10.7816 62.473ZM11.0901 60.7043C10.69 60.8819 10.4526 61.1437 10.4227 61.4391C10.3909 61.7326 10.5666 62.0336 10.9162 62.2879C11.6808 62.8451 13.0099 62.9835 13.8791 62.5946C14.2792 62.4169 14.5166 62.1552 14.5465 61.8598C14.5783 61.5662 14.4026 61.2652 14.053 61.0109C13.6436 60.7118 13.0716 60.5341 12.4958 60.493C11.9948 60.4575 11.492 60.5248 11.0901 60.7043Z" fill="#BEBEBE"></path><mask id="mask0_5512_649" style="mask-type:luminance" maskUnits="userSpaceOnUse" x="33" y="12" width="2" height="5"><path d="M33.7206 15.5484L33.9206 12.5063C33.8963 12.8747 34.1169 13.258 34.5842 13.5683L34.3842 16.6104C33.9168 16.3 33.6963 15.9148 33.7206 15.5484Z" fill="white"></path></mask><g mask="url(#mask0_5512_649)"><path d="M34.5857 13.5683L34.3857 16.6104C33.9165 16.2981 33.6977 15.9148 33.722 15.5484L33.9221 12.5063C33.8959 12.8747 34.1165 13.258 34.5857 13.5683Z" fill="#0B1160"></path></g><path d="M86.3205 22.8686C86.3317 22.8629 86.3411 22.8573 86.3523 22.8536C86.3766 22.8405 86.3971 22.8274 86.4196 22.8143C86.4513 22.7975 86.4831 22.7788 86.5112 22.762C86.5373 22.7451 86.5598 22.7283 86.5841 22.7115C86.6102 22.6928 86.6383 22.6741 86.6626 22.6535C86.6682 22.6498 86.6738 22.6461 86.6794 22.6423C86.6888 22.6348 86.6962 22.6255 86.7074 22.6161C86.7486 22.5825 86.7841 22.547 86.8196 22.5096C86.8271 22.5021 86.8364 22.4946 86.8439 22.4871C86.8514 22.4797 86.8551 22.4703 86.8626 22.4628C86.885 22.4366 86.9056 22.4086 86.9262 22.3806C86.9336 22.3693 86.9449 22.3581 86.9523 22.3469C86.9561 22.3413 86.9579 22.3338 86.9617 22.3282C86.9766 22.3039 86.9897 22.2796 87.0028 22.2534C87.0103 22.2385 87.0196 22.2254 87.0271 22.2104C87.029 22.2048 87.0308 22.2011 87.0327 22.1955C87.0421 22.1711 87.0514 22.1468 87.0589 22.1225C87.0645 22.1057 87.072 22.0908 87.0757 22.0739C87.0776 22.0702 87.0776 22.0646 87.0776 22.0608C87.0832 22.0347 87.0869 22.0104 87.0907 21.9842C87.0925 21.9674 87.0981 21.9505 87.1 21.9337C87.1 21.9262 87.1019 21.9187 87.1019 21.9113L87.3019 18.8692C87.3 18.8935 87.2944 18.916 87.2907 18.9403C87.287 18.9665 87.2832 18.9926 87.2776 19.0188C87.272 19.0394 87.2645 19.0599 87.257 19.0805C87.2496 19.1048 87.2421 19.1291 87.2309 19.1534C87.2215 19.174 87.2122 19.1927 87.201 19.2114C87.1879 19.2357 87.1748 19.2619 87.1598 19.2862C87.1486 19.3049 87.1355 19.3217 87.1224 19.3385C87.1038 19.3666 87.0813 19.3946 87.0589 19.4208C87.0458 19.4376 87.0309 19.4526 87.0159 19.4675C86.9822 19.5031 86.9449 19.5386 86.9037 19.5741C86.8888 19.5872 86.8757 19.5984 86.8607 19.6115C86.8364 19.6321 86.8084 19.6508 86.7804 19.6695C86.7561 19.6863 86.7336 19.7031 86.7074 19.72C86.6775 19.7387 86.6458 19.7555 86.6158 19.7742C86.5841 19.7929 86.5523 19.8116 86.5186 19.8284L64.0545 31.0598C63.9778 31.0972 63.8974 31.1308 63.8152 31.1626C63.7909 31.1719 63.7666 31.1794 63.7423 31.1888C63.6769 31.2112 63.6114 31.2318 63.5441 31.2505C63.5198 31.2579 63.4955 31.2636 63.4712 31.271C63.4282 31.2823 63.3852 31.2897 63.3422 31.2991C63.3105 31.3066 63.2768 31.314 63.2432 31.3196C63.1983 31.3271 63.1516 31.3346 63.1048 31.3402C63.073 31.344 63.0431 31.3496 63.0114 31.3533C62.9179 31.3645 62.8244 31.3701 62.7291 31.3739C62.6992 31.3757 62.6711 31.3757 62.6412 31.3757C62.5851 31.3776 62.5291 31.3776 62.473 31.3757C62.4375 31.3757 62.4019 31.3739 62.3646 31.372C62.3197 31.3701 62.2748 31.3683 62.23 31.3645C62.1926 31.3608 62.1552 31.3589 62.1178 31.3552C62.0767 31.3514 62.0337 31.3458 61.9925 31.3402C61.9552 31.3346 61.9159 31.329 61.8785 31.3234C61.8374 31.3159 61.7963 31.3103 61.757 31.3028C61.7196 31.2953 61.6841 31.2879 61.6467 31.2804C61.6037 31.271 61.5607 31.2598 61.5177 31.2486C61.4841 31.2393 61.4504 31.2318 61.4168 31.2206C61.3663 31.2056 61.3158 31.1906 61.2654 31.1738C61.2373 31.1645 61.2093 31.1551 61.1831 31.1458C61.0934 31.114 61.0074 31.0785 60.9233 31.0392C60.8821 31.0205 60.8429 30.9999 60.8018 30.9794C60.7812 30.9681 60.7588 30.9588 60.7401 30.9476C60.6803 30.9139 60.6204 30.8784 60.5644 30.841L34.5858 13.5686L34.3857 16.6106L60.3718 33.8793C60.4279 33.9167 60.4858 33.9522 60.5475 33.9859C60.5681 33.9971 60.5887 34.0064 60.6092 34.0176C60.6447 34.0363 60.6803 34.055 60.7176 34.0737C60.7214 34.0756 60.727 34.0775 60.7307 34.0793C60.8148 34.1186 60.9008 34.1523 60.9906 34.1859C60.998 34.1878 61.0037 34.1915 61.0111 34.1953C61.0317 34.2027 61.0523 34.2084 61.0728 34.214C61.1233 34.2308 61.1719 34.2457 61.2242 34.2607C61.2373 34.2644 61.2504 34.2701 61.2654 34.2738C61.2859 34.2794 61.3065 34.2831 61.3252 34.2888C61.3682 34.3 61.4112 34.3093 61.4542 34.3205C61.471 34.3243 61.4878 34.3299 61.5065 34.3336C61.5252 34.3374 61.5439 34.3392 61.5626 34.343C61.6037 34.3505 61.6448 34.3579 61.686 34.3654C61.7065 34.3692 61.7252 34.3729 61.7439 34.3766C61.7626 34.3785 61.7794 34.3804 61.7981 34.3822C61.8393 34.3878 61.8804 34.3916 61.9234 34.3972C61.9439 34.3991 61.9645 34.4028 61.9869 34.4047C62.0038 34.4065 62.0206 34.4065 62.0374 34.4084C62.0823 34.4122 62.1271 34.414 62.172 34.4159C62.1944 34.4178 62.2169 34.4196 62.2393 34.4196C62.2524 34.4196 62.2655 34.4196 62.2786 34.4196C62.3346 34.4215 62.3907 34.4196 62.4468 34.4196C62.4692 34.4196 62.4917 34.4196 62.5141 34.4196C62.5216 34.4196 62.5272 34.4178 62.5347 34.4178C62.63 34.414 62.7235 34.4065 62.8169 34.3972C62.8207 34.3972 62.8263 34.3972 62.8319 34.3953C62.8599 34.3916 62.8861 34.3878 62.9123 34.3841C62.959 34.3785 63.0039 34.371 63.0506 34.3635C63.0843 34.3579 63.116 34.3505 63.1497 34.343C63.1927 34.3336 63.2357 34.3261 63.2787 34.3149C63.288 34.3131 63.2974 34.3112 63.3067 34.3093C63.3217 34.3056 63.3366 34.3 63.3516 34.2962C63.4189 34.2775 63.4843 34.257 63.5497 34.2345C63.574 34.2252 63.5983 34.2177 63.6226 34.2084C63.7049 34.1766 63.7853 34.1429 63.8619 34.1055L86.3205 22.8686Z" fill="#0B1160"></path><path d="M86.6365 17.8052C87.5675 18.4241 87.5151 19.329 86.5225 19.8264L64.0583 31.0577C63.0638 31.5551 61.5029 31.456 60.5719 30.8371L34.5859 13.5685C33.6549 12.9496 33.7073 12.0465 34.7018 11.5473L57.1641 0.317808C58.1586 -0.179536 59.7195 -0.0823105 60.6505 0.536564L86.6365 17.8052Z" fill="#0854F5"></path><path d="M40.0993 12.9004C40.1298 12.4367 39.5056 12.0182 38.7052 11.9656C37.9048 11.9129 37.2312 12.2461 37.2007 12.7098C37.1702 13.1735 37.7944 13.592 38.5948 13.6446C39.3952 13.6973 40.0688 13.3641 40.0993 12.9004Z" fill="#426CF6"></path><path d="M60.1388 3.0586C60.1693 2.59495 59.5452 2.17642 58.7447 2.12378C57.9443 2.07115 57.2707 2.40435 57.2402 2.868C57.2098 3.33165 57.8339 3.75019 58.6344 3.80282C59.4348 3.85545 60.1084 3.52226 60.1388 3.0586Z" fill="#426CF6"></path><path d="M83.9103 18.5418C83.9408 18.0781 83.3166 17.6596 82.5162 17.6069C81.7158 17.5543 81.0422 17.8875 81.0117 18.3512C80.9812 18.8148 81.6054 19.2333 82.4058 19.286C83.2063 19.3386 83.8799 19.0054 83.9103 18.5418Z" fill="#426CF6"></path><path d="M63.7629 28.6445C63.7933 28.1809 63.1692 27.7624 62.3688 27.7097C61.5683 27.6571 60.8947 27.9903 60.8643 28.4539C60.8338 28.9176 61.458 29.3361 62.2584 29.3888C63.0588 29.4414 63.7324 29.1082 63.7629 28.6445Z" fill="#426CF6"></path><path d="M51.8407 10.3394C49.9543 11.2996 48.6367 12.5803 48.0542 14.0196C47.4718 15.4588 47.6508 16.9919 48.5685 18.4251C49.4863 19.8582 51.1017 21.1271 53.2103 22.0711C55.3189 23.0151 57.8262 23.5919 60.4149 23.7286C63.0037 23.8652 65.5577 23.5556 67.754 22.8389C69.9504 22.1222 71.6903 21.0305 72.7539 19.702C73.8175 18.3734 74.1569 16.8676 73.7293 15.3751C73.3016 13.8825 72.1261 12.4702 70.3514 11.3167C67.9681 9.77326 64.6819 8.80383 61.2126 8.62066C57.7432 8.43749 54.3732 9.05551 51.8407 10.3394ZM66.0559 18.3032L65.689 18.4899L66.3793 18.9386C66.5624 19.0576 66.6606 19.211 66.6525 19.3652C66.6443 19.5194 66.5305 19.6616 66.3359 19.7607C66.1413 19.8597 65.882 19.9074 65.6149 19.8933C65.3479 19.8792 65.0951 19.8045 64.912 19.6855L64.2217 19.2369L62.7544 19.9838C62.5599 20.0828 62.3005 20.1305 62.0335 20.1164C61.7665 20.1023 61.5136 20.0276 61.3305 19.9086C61.1475 19.7896 61.0492 19.6362 61.0573 19.482C61.0655 19.3278 61.1794 19.1856 61.3739 19.0865L64.6754 17.406C64.9672 17.2574 65.1381 17.044 65.1503 16.8127C65.1625 16.5815 65.0151 16.3513 64.7405 16.1728C64.4659 15.9943 64.0866 15.8822 63.686 15.861C63.2855 15.8399 62.8965 15.9115 62.6046 16.0601L60.4037 17.1804C59.7227 17.5271 58.815 17.6941 57.8804 17.6448C56.9458 17.5954 56.0608 17.3338 55.42 16.9173C54.7793 16.5009 54.4354 15.9638 54.4638 15.4242C54.4923 14.8846 54.8909 14.3867 55.5719 14.04L55.9388 13.8533L55.2485 13.4046C55.0655 13.2857 54.9672 13.1322 54.9753 12.978C54.9835 12.8239 55.0973 12.6816 55.2919 12.5826C55.4865 12.4835 55.7458 12.4358 56.0129 12.4499C56.2799 12.464 56.5328 12.5387 56.7158 12.6577L57.4061 13.1064L58.8734 12.3595C59.0679 12.2604 59.3273 12.2127 59.5943 12.2268C59.8613 12.2409 60.1142 12.3156 60.2973 12.4346C60.4803 12.5536 60.5786 12.7071 60.5705 12.8612C60.5623 13.0154 60.4484 13.1577 60.2539 13.2567L56.9524 14.9373C56.6606 15.0858 56.4897 15.2992 56.4775 15.5305C56.4653 15.7617 56.6127 15.9919 56.8873 16.1704C57.1619 16.3489 57.5412 16.461 57.9418 16.4822C58.3423 16.5033 58.7313 16.4317 59.0232 16.2832L61.2241 15.1628C61.9051 14.8161 62.8128 14.6491 63.7474 14.6984C64.682 14.7478 65.567 15.0095 66.2078 15.4259C66.8485 15.8424 67.1925 16.3795 67.164 16.9191C67.1355 17.4587 66.7369 17.9565 66.0559 18.3032Z" fill="white"></path></svg>