<svg xmlns="http://www.w3.org/2000/svg" width="101" height="72" viewBox="0 0 101 72" fill="none"><path d="M8.08893 69.0235C22.8384 71.8573 60.6851 69.4769 86.8048 70.7643C90.5845 70.9505 94.7834 70.9505 97.5994 67.6794C100.021 64.8618 100.709 59.8581 99.1888 56.1336C97.6682 52.4092 94.0825 50.3203 90.0526 50.5713C90.9349 47.4702 91.836 44.1911 91.423 40.9282C91.1164 38.5073 90.1151 36.3293 89.0388 34.3051C88.0501 32.4348 86.9675 30.605 85.6096 29.18C81.517 24.9049 75.3719 25.0264 69.7337 29.18C69.1017 24.071 67.5936 18.9944 64.7964 15.2861C61.9992 11.586 57.769 9.47274 53.8829 10.7196C52.331 11.2216 50.898 12.2175 49.6152 13.4482C46.067 16.8569 43.6516 22.1683 43.4388 28.3298C39.8406 20.1927 31.1799 16.5735 24.578 20.4437C17.9761 24.322 14.3842 35.1391 16.4618 44.5393C14.1652 42.0536 10.7047 41.8917 7.98255 43.511C5.26044 45.1303 3.22668 48.2799 1.87502 51.7372C1.2555 53.316 0.779916 55.0082 0.598442 56.7652C-0.165 64.4489 6.3618 68.6915 8.08893 69.0235Z" fill="white"></path><path d="M88.9762 71.5336C88.2441 71.5336 87.5119 71.5093 86.7798 71.4688C75.9476 70.9344 63.1193 71.0316 50.7103 71.1287C33.2074 71.2583 16.6745 71.3878 8.00757 69.7199C5.81737 69.2989 -0.72821 64.5786 0.0665208 56.6763C0.235479 54.9841 0.67352 53.2676 1.39316 51.4215C2.50077 48.5958 4.50324 44.8147 7.75726 42.8796C10.3605 41.325 13.3454 41.406 15.6107 42.9687C14.2465 33.6656 17.9636 23.5691 24.3527 19.8123C30.7294 16.0635 38.9207 19.035 43.0445 26.2734C43.6515 20.9701 45.873 16.1769 49.2897 12.8897C50.7541 11.4808 52.2559 10.5254 53.7515 10.0396C57.5812 8.80896 62.0743 10.6712 65.1844 14.7924C67.6311 18.031 69.3332 22.6137 70.1342 28.087C75.8788 24.2007 81.8862 24.3869 85.9475 28.6295C87.4306 30.176 88.5695 32.1677 89.4893 33.9004C90.5782 35.9651 91.6358 38.224 91.9612 40.8069C92.3554 43.9564 91.5919 47.1465 90.8348 49.8427C94.8272 49.8832 98.1626 52.1098 99.6707 55.8018C101.316 59.8258 100.578 65.1615 97.9623 68.1978C95.5781 70.9749 92.3178 71.5336 88.9762 71.5336ZM65.2782 69.6471C72.8376 69.6471 80.1966 69.7361 86.8173 70.06C90.6595 70.2462 94.6269 70.1814 97.2302 67.1533C99.4516 64.5705 100.096 59.8744 98.707 56.4576C97.324 53.0652 93.9323 51.0329 90.0776 51.2758C89.8898 51.292 89.7209 51.1786 89.6145 50.9924C89.5081 50.7981 89.4768 50.5552 89.5457 50.3285C90.3654 47.4623 91.2916 44.2074 90.8911 41.0417C90.597 38.7341 89.6145 36.629 88.6008 34.702C87.7247 33.0503 86.6483 31.1638 85.2779 29.7307C81.4106 25.6904 75.5597 25.7147 70.0153 29.7954C69.8589 29.9088 69.6712 29.9169 69.5084 29.8197C69.3457 29.7226 69.2331 29.5282 69.2081 29.2934C68.5135 23.6744 66.8552 19.0107 64.4209 15.7802C61.5737 12.0071 57.4936 10.2906 54.0268 11.408C52.6689 11.8452 51.2985 12.7196 49.9531 14.0151C46.3611 17.4643 44.1897 22.6947 43.9957 28.3623C43.9832 28.6781 43.8142 28.9453 43.5827 29.0182C43.3449 29.091 43.1009 28.9534 42.982 28.6862C39.5089 20.8325 31.1862 17.3509 24.8221 21.0915C18.4955 24.8079 14.9912 35.2445 17.0062 44.3532C17.0687 44.6528 16.9811 44.9685 16.7809 45.1386C16.5806 45.3086 16.3178 45.2843 16.1363 45.09C14.1276 42.912 10.955 42.5395 8.2391 44.1589C5.26669 45.932 3.42066 49.4379 2.38813 52.0612C1.71856 53.7615 1.32432 55.3322 1.16788 56.8625C0.429469 64.198 6.7748 68.052 8.18904 68.3273C16.7746 69.979 33.2637 69.8495 50.7228 69.7199C55.5475 69.6794 60.4535 69.6471 65.2782 69.6471Z" fill="black"></path><path d="M11.1052 66.983C11.0551 66.983 11.005 66.9587 10.9675 66.902C8.63336 63.4205 6.40562 59.7527 4.34683 55.9959C4.29051 55.8906 4.30928 55.7449 4.39063 55.672C4.47198 55.5991 4.58462 55.6234 4.64094 55.7287C6.69347 59.4774 8.91496 63.129 11.2428 66.6025C11.3054 66.6996 11.2992 66.8454 11.2241 66.9344C11.1928 66.9587 11.149 66.983 11.1052 66.983Z" fill="black"></path><path d="M16.1489 67.2986C16.0988 67.2986 16.055 67.2743 16.0174 67.2258C13.1076 63.3637 10.4168 59.1615 8.01382 54.7408C7.9575 54.6355 7.97627 54.4898 8.05762 54.4169C8.13897 54.344 8.25161 54.3683 8.30793 54.4736C10.6984 58.87 13.3829 63.0479 16.274 66.9019C16.3428 66.991 16.3428 67.1448 16.2678 67.2339C16.2365 67.2743 16.1927 67.2986 16.1489 67.2986Z" fill="black"></path><path d="M20.3476 68.1168C20.2913 68.1168 20.2412 68.0844 20.2037 68.0277L14.2901 58.0284C14.2275 57.9231 14.2463 57.7774 14.3214 57.6964C14.4028 57.6155 14.5154 57.6398 14.578 57.7369L20.4915 67.7363C20.5541 67.8415 20.5353 67.9873 20.4602 68.0682C20.4227 68.1006 20.3851 68.1168 20.3476 68.1168Z" fill="black"></path><path d="M23.4954 65.7121C23.4453 65.7121 23.3953 65.6878 23.3577 65.6311L19.2464 59.5424C19.1776 59.4453 19.1901 59.2995 19.2652 59.2105C19.3403 59.1295 19.4529 59.1376 19.5217 59.2348L23.6331 65.3234C23.7019 65.4206 23.6894 65.5663 23.6143 65.6554C23.5767 65.6878 23.5329 65.7121 23.4954 65.7121Z" fill="black"></path><path d="M26.3989 63.1208C26.3489 63.1208 26.2926 63.0884 26.2613 63.0318L23.7144 59.0239C23.6518 58.9268 23.6643 58.7729 23.7394 58.692C23.8145 58.611 23.9334 58.6272 23.996 58.7244L26.5366 62.7322C26.5992 62.8294 26.5867 62.9832 26.5116 63.0642C26.4803 63.1046 26.4427 63.1208 26.3989 63.1208Z" fill="black"></path><path d="M20.9234 43.7702C20.8671 43.7702 20.8108 43.7379 20.7795 43.6731L18.2013 39.1714C18.1387 39.0661 18.1575 38.9204 18.2389 38.8394C18.3202 38.7665 18.4328 38.7827 18.4954 38.888L21.0736 43.3897C21.1362 43.495 21.1174 43.6407 21.0361 43.7217C20.9985 43.754 20.961 43.7702 20.9234 43.7702Z" fill="black"></path><path d="M25.0726 43.5758C25.0163 43.5758 24.9662 43.5434 24.9287 43.4787L18.5958 32.532C18.5333 32.4268 18.552 32.281 18.6334 32.2C18.7147 32.1191 18.8274 32.1434 18.89 32.2486L25.2165 43.1953C25.2791 43.3005 25.2603 43.4463 25.179 43.5272C25.1477 43.5596 25.1101 43.5758 25.0726 43.5758Z" fill="black"></path><path d="M27.876 41.2441C27.8322 41.2441 27.7884 41.2279 27.7571 41.1793C26.299 39.4709 25.0162 37.5277 23.9273 35.4064C23.871 35.3011 23.8961 35.1554 23.9774 35.0825C24.0588 35.0096 24.1714 35.042 24.2277 35.1473C25.2978 37.2362 26.5618 39.147 27.9949 40.8311C28.07 40.9202 28.0762 41.0659 28.0074 41.1631C27.9761 41.2117 27.926 41.2441 27.876 41.2441Z" fill="black"></path><path d="M48.8957 32.637C48.8519 32.637 48.8081 32.6127 48.7706 32.5722L45.6542 28.8721C45.5791 28.783 45.5729 28.6373 45.6417 28.5401C45.7105 28.443 45.8232 28.443 45.8983 28.5239L49.0146 32.2241C49.0897 32.3132 49.096 32.4589 49.0271 32.556C48.9958 32.6127 48.9458 32.637 48.8957 32.637Z" fill="black"></path><path d="M54.5153 33.1717C54.4777 33.1717 54.4339 33.1555 54.4026 33.1231C51.6618 30.346 48.9459 27.415 46.3427 24.4112C46.2676 24.3221 46.2613 24.1764 46.3302 24.0792C46.399 23.982 46.5116 23.9739 46.5867 24.063C49.1837 27.0588 51.8933 29.9816 54.6279 32.7588C54.7093 32.8398 54.7218 32.9855 54.6592 33.0908C54.6217 33.1393 54.5716 33.1717 54.5153 33.1717Z" fill="black"></path><g opacity="0.1294"><path d="M99.508 60.506C98.9323 61.1862 98.4192 61.9391 97.8497 62.6273C97.3554 63.1212 97.4367 63.1455 96.3229 63.9957C96.229 64.0686 96.1351 64.1333 96.035 64.1981C95.9036 64.2629 95.866 64.2791 95.8848 64.2791C92.8748 65.7446 90.5094 65.4693 86.6046 65.7688C83.4132 65.9389 80.2217 65.7931 77.0366 65.8579C74.5898 65.7769 72.143 65.615 69.6963 65.6555C67.481 65.6474 65.272 65.7769 63.0568 65.7365C61.361 65.7203 59.6714 65.5017 57.9818 65.445C54.2772 65.364 50.5727 65.5502 46.8681 65.4855C40.4477 65.3073 34.0398 64.522 27.6131 64.6677C23.9023 64.7325 20.1852 64.6758 16.4743 64.611C14.6346 64.5058 11.0677 63.9066 10.8862 63.8742C9.61588 63.5908 8.36434 63.1617 7.1566 62.595C6.18665 62.1173 6.45573 62.2387 6.12407 62.0606C5.28554 61.5829 4.45952 61.0485 3.68982 60.3927C3.23926 60.0364 2.8638 59.4292 2.30686 59.4049C1.51213 59.2268 0.867586 59.8745 0.623535 60.7246C0.91139 61.429 1.21802 62.1335 1.52465 62.8217C1.28685 63.2751 1.26182 63.9309 1.61851 64.3519C2.32564 65.1697 2.99521 66.0279 3.80246 66.6838C3.82749 66.7081 3.85878 66.7323 3.88381 66.7566C3.95264 66.8295 4.04025 66.9186 4.10909 66.9833C4.80995 67.6877 5.6172 68.214 6.39941 68.7484C7.23169 69.299 8.11403 69.7443 9.01514 70.0843C9.52201 70.2382 10.0477 70.2382 10.5608 70.3273C10.5358 70.3192 10.5107 70.3191 10.4857 70.3111C11.6684 70.5054 12.945 70.5378 13.2954 69.3557C13.3267 69.2828 13.3455 69.2018 13.358 69.1289C13.8962 69.2099 14.4343 69.2828 14.9725 69.3557C16.5932 69.5824 18.2265 69.5419 19.8598 69.5905C21.6808 69.6309 23.5018 69.8172 25.3228 69.89C34.4152 69.5986 43.4827 70.9831 52.5751 70.6916C54.2835 70.6835 55.9981 70.5782 57.7065 70.6511C59.5149 70.6997 61.3172 70.9345 63.1319 70.9507C66.7238 70.9669 70.3158 70.7726 73.9077 70.9102C76.8426 71.1126 79.7774 70.9588 82.7186 70.9426C86.9801 70.8131 91.3104 70.5944 95.453 69.2018C95.8973 69.0237 96.3229 68.7889 96.7484 68.546C96.7171 68.5622 96.5356 68.6593 96.4355 68.716C96.9924 68.4407 97.5056 68.0278 97.9686 67.542C97.856 67.6554 97.7496 67.7606 97.637 67.874C97.9311 67.6554 98.2127 67.4206 98.4943 67.1696C98.7696 66.4166 99.045 65.6636 99.3266 64.9106C99.5644 64.2305 99.8021 63.5504 100.04 62.8703C100.071 62.6193 100.103 62.3683 100.128 62.1173C100.184 61.3724 100.253 60.6356 100.315 59.8907C99.6833 60.0769 99.7271 60.3117 99.508 60.506Z" fill="black"></path></g><path d="M73.7821 12.1905C71.4803 13.0563 69.4416 14.8847 68.3489 17.3282C67.2612 19.7717 67.1955 22.8076 68.3489 25.2112C70.0284 28.7085 74.1918 30.2691 77.4902 28.8566C81.082 27.313 83.2725 22.4544 82.2202 18.2908C81.168 14.1214 76.9388 11.0058 73.7821 12.1905ZM78.1529 23.1152C77.8291 23.9695 77.0956 24.7613 76.357 25.1657C74.6775 26.0884 72.7703 25.2967 71.7788 23.5822C70.7569 21.8222 70.9036 19.4413 71.9609 17.7326C72.487 16.8839 73.1497 16.2175 74.0755 16.0181C74.9304 15.8359 75.7854 16.0124 76.4582 16.6219C76.8933 16.7073 77.3081 16.9124 77.6521 17.2314C78.3148 17.8522 78.5981 19.0882 78.6537 20.0223C78.7094 21.0476 78.507 22.1753 78.1529 23.1152Z" fill="white"></path><path d="M91.1037 20.0219C90.1476 19.6972 89.2269 19.1334 88.5945 18.2562C87.7143 17.0373 87.5018 15.3114 87.861 13.7907C88.2202 12.2699 89.0954 10.9541 90.1628 9.94027C89.2218 8.2543 88.2 6.67086 87.1275 5.13298C85.8274 6.21519 84.5829 7.24044 83.1411 7.32019C81.7499 7.39993 80.4043 6.53986 79.5392 5.31525C78.6742 4.08495 78.2442 2.52999 78.0722 0.975023C78.0216 0.826931 77.9507 0.798452 77.9002 0.792756C76.4432 0.673143 74.9812 0.547835 73.5243 0.428223C73.2612 1.9604 72.639 3.3331 71.6879 4.32418C70.7368 5.31525 69.4418 5.90762 68.1467 5.86205C67.6155 5.84497 67.0894 5.71966 66.5684 5.59435C65.7185 5.3836 64.818 5.12729 64.216 4.41531C63.0575 5.30386 62.0154 6.24937 61.0087 7.23475C61.5247 7.62776 61.7422 8.17456 61.9243 8.70428C62.3139 9.83775 62.6073 11.0794 62.3645 12.2642C62.1115 13.4888 61.292 14.5026 60.3106 15.1064C59.3292 15.7102 58.201 15.9494 57.0881 16.0234C56.7795 17.8176 56.6277 19.7371 56.5771 21.6623C57.5282 22.0439 58.4287 22.3686 59.2432 22.904C60.0526 23.4337 60.781 24.197 61.1402 25.1709C61.5449 26.2702 61.4488 27.5518 61.0239 28.6397C60.5989 29.7276 59.8705 30.639 59.0459 31.3908C60.0425 33.2078 60.9986 34.8937 61.98 36.5569C63.4976 35.4348 65.4099 35.0874 67.0742 35.6912C67.4891 35.8393 67.8887 36.05 68.2327 36.3576C68.6577 36.7392 68.9713 37.2575 69.2192 37.8043C69.806 39.1144 70.0286 40.6294 69.8414 42.0819C71.612 42.4806 73.327 42.7369 75.047 42.8907C74.9458 40.8744 75.7147 38.8523 77.1312 37.7474C78.5477 36.6424 80.5662 36.5683 81.9928 37.6619C82.6656 38.1802 83.1866 38.915 83.6875 39.6384C85.2405 38.4024 86.7734 37.1436 88.2101 35.7538C87.4057 34.3469 86.5912 32.9401 86.5558 31.3566C86.5204 29.7048 87.4057 28.1328 88.635 27.2328C89.8643 26.3386 91.4022 26.0652 92.8591 26.2361C93.36 24.3166 93.7849 22.4426 94.139 20.5516C93.0666 20.4548 92.0649 20.3466 91.1037 20.0219ZM81.9523 24.2368C81.3604 25.7064 80.3992 26.9765 79.2458 27.9334C78.573 28.4916 77.8293 28.9416 77.0351 29.2321C73.7772 30.4054 69.9578 28.3435 68.4452 24.8862C67.3424 22.3686 67.3929 19.2473 68.5717 16.7753C69.7504 14.3033 72.0319 12.5319 74.5107 12.1787C76.7265 11.8598 79.5342 13.2097 81.1328 15.6361C82.7314 18.0625 83.0551 21.4857 81.9523 24.2368Z" fill="#FFB217"></path><g opacity="0.1294"><path d="M83.9404 20.2329C83.905 19.9481 83.8544 19.6633 83.7937 19.3842C83.7633 19.3158 83.738 19.2532 83.7077 19.1848C83.2473 18.1596 82.6959 17.1913 82.0686 16.2856C81.9675 16.3654 81.8865 16.485 81.8511 16.6274C81.7853 17.1115 82.1243 17.5615 82.2305 18.0229C82.6099 19.2987 82.8629 19.9139 82.7415 21.0758C82.7566 21.5201 82.104 23.9921 81.8966 24.2997C81.6487 24.8408 81.3654 25.3648 81.0366 25.8547C80.9354 25.9914 80.9051 26.0483 80.9152 26.054C80.7533 26.1964 80.6117 26.3844 80.4498 26.5325C80.1109 26.8571 79.7719 27.1818 79.4279 27.5064C79.3369 27.5805 79.1901 27.7172 79.0839 27.8368C79.1396 27.7457 78.9878 27.9052 78.8512 28.0362C78.7753 28.0931 78.4364 28.3551 78.2644 28.452C77.0705 28.9247 75.8311 29.1867 75.1734 29.2266C74.2983 29.3177 73.4382 29.0671 72.7654 28.8905C72.2848 28.7367 71.8649 28.2013 71.3489 28.3096C71.1264 28.3722 70.9797 28.5602 70.9189 28.7823C70.9695 28.845 71.0201 28.9019 71.0707 28.9589C71.2478 29.1184 71.4198 29.2835 71.5968 29.443C72.2342 29.9101 72.8767 30.3828 73.5192 30.8442C74.5815 31.1917 75.7198 31.26 77.0756 30.9695C77.0503 30.9695 77.025 30.9752 76.9946 30.9809C78.4212 30.6392 78.8664 30.4284 79.9085 29.819C80.8191 29.2095 81.5526 28.3209 82.1192 27.3128C82.1344 27.2843 82.1546 27.2558 82.1698 27.2274C82.1698 27.2217 82.1749 27.2217 82.1749 27.2217C82.8376 26.2875 83.3435 25.2224 83.6976 24.0946C84.0517 22.8586 84.0466 21.5201 83.9404 20.2329Z" fill="black"></path></g><g opacity="0.1294"><path d="M87.4159 33.3674C87.2743 33.3788 87.1326 33.413 87.0112 33.4927C86.8291 33.6067 86.7127 33.7946 86.5964 33.9826C86.4902 34.1364 86.3789 34.2845 86.2827 34.4496C85.9995 34.8597 85.9185 35.0363 85.2912 35.754C84.9422 36.1755 84.3958 36.4375 84.1682 36.9615C84.1631 36.9729 84.1631 36.9786 84.158 36.99C84.0214 37.0754 83.8899 37.1666 83.7533 37.2463C83.5004 37.4229 83.1716 37.5083 82.9945 37.7931C82.4431 38.5279 83.298 39.6101 84.0214 39.1088C84.7752 38.6589 85.4834 38.1235 86.1209 37.4798C86.1512 37.4457 86.1816 37.4058 86.217 37.3716C86.7127 36.9216 87.1933 36.4546 87.6385 35.9419C87.8004 35.7483 87.9926 35.5205 88.1495 35.2755C87.9825 34.8996 87.8409 34.5123 87.7093 34.125C87.598 33.8801 87.5019 33.6237 87.4159 33.3674Z" fill="black"></path></g><g opacity="0.1294"><path d="M92.3279 20.4607C92.0395 21.7024 91.7157 22.9327 91.3616 24.1573C91.1997 24.7212 91.0379 25.2965 90.876 25.866C91.0682 26.1338 91.397 26.2875 91.7006 26.1793C91.7157 26.1736 91.7309 26.1622 91.7461 26.1565C92.0092 26.5723 92.6972 26.5211 92.8287 25.9401C92.8945 25.6724 92.9956 25.4047 93.0766 25.137C93.1272 25.1085 93.1828 25.0743 93.2283 25.0288C93.542 24.7724 93.628 24.2883 93.7443 23.8953C93.9163 23.0979 94.0125 22.2777 94.0428 21.4632C94.0428 21.4176 94.0479 21.3663 94.0529 21.3151C93.4712 21.0417 92.8945 20.7569 92.3279 20.4607Z" fill="black"></path></g><path d="M75.0469 43.3239C75.0367 43.3239 75.0266 43.3239 75.0165 43.3239C73.1953 43.1644 71.4804 42.8967 69.7654 42.5094C69.5631 42.4638 69.4315 42.2474 69.4619 42.0195C69.639 40.6582 69.4315 39.2286 68.8751 37.9983C68.6171 37.4173 68.3287 36.9901 67.9948 36.6939C67.7267 36.449 67.3878 36.2554 66.9578 36.1016C65.4249 35.5434 63.6442 35.8509 62.1974 36.9161C62.0203 37.0471 61.7826 36.9901 61.6662 36.7908C60.6899 35.1561 59.7287 33.4644 58.722 31.6189C58.6208 31.431 58.6562 31.1917 58.808 31.055C59.6882 30.2576 60.3155 29.3862 60.6747 28.4691C61.0895 27.4097 61.13 26.2649 60.786 25.3364C60.4116 24.3283 59.6376 23.6619 59.0508 23.2745C58.3679 22.836 57.609 22.5341 56.8047 22.2151L56.4506 22.0727C56.2937 22.0101 56.1875 21.8392 56.1926 21.6512C56.2482 19.5381 56.4202 17.6186 56.7086 15.944C56.744 15.7503 56.8907 15.6079 57.0627 15.5965C58.3173 15.5111 59.3189 15.2263 60.1233 14.7308C61.0794 14.1384 61.7775 13.1815 61.9849 12.1677C62.2227 11.0228 61.8838 9.79818 61.56 8.85837C61.393 8.37422 61.2109 7.91286 60.791 7.5882C60.6949 7.51415 60.6292 7.38884 60.6241 7.25784C60.619 7.12114 60.6646 6.99583 60.7556 6.9047C61.9141 5.76553 62.9461 4.85989 63.9983 4.05108C64.1552 3.93147 64.3626 3.95425 64.4941 4.11374C65.0101 4.72319 65.8044 4.96242 66.6492 5.16747C67.1854 5.29847 67.666 5.41239 68.1567 5.42947C69.3253 5.46934 70.5141 4.95102 71.4247 4.00551C72.2948 3.09988 72.8867 1.8354 73.1447 0.348786C73.1801 0.132344 73.3572 -0.0157481 73.5494 0.00133947L77.9253 0.365873C78.158 0.38296 78.3402 0.553836 78.4312 0.827237C78.4413 0.861412 78.4464 0.889891 78.4515 0.924066C78.6386 2.62143 79.1091 4.01121 79.8376 5.04785C80.6875 6.24968 81.9421 6.95026 83.1208 6.88761C84.4664 6.81356 85.7008 5.78262 86.8997 4.78015C87.0667 4.63775 87.3044 4.67762 87.4309 4.85989C88.6298 6.58573 89.6315 8.16917 90.4864 9.70135C90.5876 9.88362 90.5573 10.1228 90.4105 10.2652C89.6315 11.0057 88.6248 12.2303 88.2302 13.8935C87.8811 15.363 88.1341 16.9237 88.8878 17.9717C89.4089 18.6951 90.2082 19.2533 91.2098 19.595C92.1306 19.9083 93.0917 20.0165 94.1642 20.1133C94.2755 20.1247 94.3767 20.1874 94.4424 20.2842C94.5082 20.3811 94.5335 20.5121 94.5133 20.6317C94.1642 22.4942 93.7443 24.3624 93.2283 26.3503C93.1777 26.5496 93.0057 26.6806 92.8186 26.6579C91.3211 26.487 89.9097 26.8117 88.8423 27.5863C87.6585 28.4464 86.9098 29.9159 86.9402 31.3342C86.9705 32.7752 87.7142 34.0795 88.5034 35.4579L88.5287 35.5035C88.6349 35.6858 88.5995 35.925 88.4578 36.0674C86.9655 37.5027 85.3871 38.7957 83.9049 39.9747C83.7379 40.1057 83.5052 40.0716 83.3788 39.8893C82.9285 39.24 82.4176 38.4995 81.7701 38.004C80.5104 37.0357 78.6487 37.0756 77.3486 38.0894C76.0839 39.0748 75.3301 40.943 75.4313 42.8511C75.4364 42.9764 75.3959 43.0961 75.315 43.1872C75.2441 43.2783 75.148 43.3239 75.0469 43.3239ZM70.2612 41.7347C71.6979 42.0423 73.1397 42.2702 74.6523 42.4183C74.6776 40.3677 75.5224 38.471 76.9136 37.3888C78.497 36.1585 80.6723 36.1187 82.2102 37.3034C82.8425 37.7875 83.3332 38.4312 83.7632 39.0463C85.0583 38.0097 86.4141 36.8933 87.7041 35.6687C86.9452 34.3302 86.2067 32.9461 86.1712 31.3626C86.1358 29.6539 87.0211 27.8882 88.4275 26.8686C89.5607 26.0427 91.0227 25.6668 92.5757 25.775C93.0057 24.1061 93.3649 22.517 93.6684 20.9449C92.7477 20.8538 91.8473 20.7285 90.9923 20.438C89.844 20.045 88.9131 19.3843 88.296 18.5299C87.3904 17.2711 87.0818 15.4143 87.4916 13.6827C87.8204 12.2987 88.5691 10.9829 89.6618 9.86653C88.9131 8.55649 88.0582 7.20088 87.0565 5.74275C85.8627 6.73382 84.6182 7.67933 83.1612 7.76477C81.7448 7.85021 80.2372 7.01292 79.2356 5.59465C78.4413 4.46688 77.9304 2.99735 77.7078 1.22594L73.8277 0.901282C73.509 2.41068 72.8614 3.70363 71.9458 4.65484C70.8885 5.75414 69.4973 6.3579 68.1314 6.30663C67.5749 6.28955 67.0336 6.16424 66.4822 6.02754C65.6627 5.82818 64.8179 5.57757 64.1754 4.9795C63.3356 5.63453 62.506 6.36929 61.5954 7.24075C61.9445 7.65085 62.1266 8.12361 62.2783 8.55649C62.6375 9.61022 63.0169 11 62.7336 12.3727C62.4706 13.6429 61.6561 14.782 60.4926 15.4997C59.6528 16.018 58.641 16.3313 57.4067 16.4452C57.174 17.9091 57.0273 19.5665 56.9666 21.3721L57.0526 21.4063C57.8923 21.7367 58.6866 22.0556 59.4302 22.5398C60.1182 22.9897 61.0339 23.7872 61.4892 25.0175C61.9141 26.1623 61.8686 27.5521 61.3728 28.828C61.0035 29.7792 60.3914 30.6734 59.5466 31.4936C60.4167 33.0771 61.2514 34.5466 62.0912 35.9763C63.6695 34.951 65.5464 34.689 67.1854 35.2871C67.7014 35.475 68.1213 35.7142 68.4653 36.0275C68.8852 36.4034 69.2444 36.9275 69.553 37.6224C70.1246 38.8754 70.3725 40.3222 70.2612 41.7347Z" fill="black"></path><path d="M74.8494 25.9684C73.5543 25.9684 72.239 25.1596 71.5055 23.8552C70.7315 22.4825 70.6101 20.6143 71.1767 18.991C71.5612 17.8917 72.2239 16.969 73.0485 16.3937C73.959 15.7558 75.0416 15.5564 76.0129 15.8526C77.1158 16.1886 77.9404 16.7354 78.4614 17.4873C79.0887 18.3929 79.4277 19.6005 79.4226 20.8991C79.4175 21.782 79.2557 22.5395 78.9319 23.1547C78.6486 23.6958 78.254 24.1059 77.9049 24.4419C77.0247 25.2849 76.2355 25.752 75.4261 25.9114C75.2389 25.9513 75.0467 25.9684 74.8494 25.9684ZM75.1125 16.5931C74.5459 16.5931 73.959 16.781 73.4532 17.1342C72.7702 17.6126 72.2188 18.3872 71.895 19.3157C71.4144 20.6884 71.5156 22.2547 72.1581 23.3996C72.836 24.6071 74.131 25.2963 75.2996 25.0628C75.9674 24.9318 76.6402 24.5274 77.4092 23.7869C77.7076 23.5021 78.0466 23.149 78.2692 22.7218C78.5221 22.2433 78.6486 21.6282 78.6536 20.9048C78.6587 19.8055 78.3754 18.7803 77.8544 18.0341C77.4395 17.436 76.7515 16.9861 75.8156 16.7013C75.5931 16.6272 75.3553 16.5931 75.1125 16.5931Z" fill="black"></path><path d="M75.1276 29.9953C72.2997 29.9953 69.4111 28.0815 68.1009 25.0798C66.9424 22.4313 66.993 19.1733 68.2324 16.5703C69.4718 13.973 71.8596 12.1218 74.4598 11.7459C76.8931 11.3984 79.8272 12.9249 81.441 15.3741C83.1357 17.9486 83.4696 21.4972 82.301 24.4134C81.699 25.9114 80.7227 27.2443 79.4681 28.2809C78.7194 28.896 77.9403 29.3574 77.1461 29.6422C76.4935 29.8814 75.8105 29.9953 75.1276 29.9953ZM75.1832 12.5661C74.9708 12.5661 74.7633 12.5832 74.5559 12.6116C72.1985 12.9534 70.0333 14.628 68.9103 16.986C67.7872 19.3441 67.7366 22.3003 68.7889 24.6982C70.261 28.0588 73.9033 29.9099 76.9134 28.822C77.6266 28.5657 78.3349 28.1499 79.0128 27.586C80.1561 26.6405 81.0515 25.4216 81.5978 24.0603C82.64 21.463 82.3263 18.1822 80.8188 15.8925C79.5035 13.8875 77.2169 12.5661 75.1832 12.5661Z" fill="black"></path><path d="M91.1037 20.0219C90.1476 19.6972 89.2269 19.1334 88.5945 18.2562C87.7143 17.0373 87.5018 15.3114 87.861 13.7907C88.2202 12.2699 89.0954 10.9541 90.1628 9.94027C89.2218 8.2543 88.2 6.67086 87.1275 5.13298C85.8274 6.21519 84.5829 7.24044 83.1411 7.32019C81.7499 7.39993 80.4043 6.53986 79.5392 5.31525C78.6742 4.08495 78.2442 2.52999 78.0722 0.975023C78.0216 0.826931 77.9507 0.798452 77.9002 0.792756C76.4432 0.673143 74.9812 0.547835 73.5243 0.428223C73.2612 1.9604 72.639 3.3331 71.6879 4.32418C70.7368 5.31525 69.4418 5.90762 68.1467 5.86205C67.6155 5.84497 67.0894 5.71966 66.5684 5.59435C65.7185 5.3836 64.818 5.12729 64.216 4.41531C63.0575 5.30386 62.0154 6.24937 61.0087 7.23475C61.5247 7.62776 61.7422 8.17456 61.9243 8.70428C62.3139 9.83775 62.6073 11.0794 62.3645 12.2642C62.1115 13.4888 61.292 14.5026 60.3106 15.1064C59.3292 15.7102 58.201 15.9494 57.0881 16.0234C56.7795 17.8176 56.6277 19.7371 56.5771 21.6623C57.5282 22.0439 58.4287 22.3686 59.2432 22.904C60.0526 23.4337 60.781 24.197 61.1402 25.1709C61.5449 26.2702 61.4488 27.5518 61.0239 28.6397C60.5989 29.7276 59.8705 30.639 59.0459 31.3908C60.0425 33.2078 60.9986 34.8937 61.98 36.5569C63.4976 35.4348 65.4099 35.0874 67.0742 35.6912C67.4891 35.8393 67.8887 36.05 68.2327 36.3576C68.6577 36.7392 68.9713 37.2575 69.2192 37.8043C69.806 39.1144 70.0286 40.6294 69.8414 42.0819C71.612 42.4806 73.327 42.7369 75.047 42.8907C74.9458 40.8744 75.7147 38.8523 77.1312 37.7474C78.5477 36.6424 80.5662 36.5683 81.9928 37.6619C82.6656 38.1802 83.1866 38.915 83.6875 39.6384C85.2405 38.4024 86.7734 37.1436 88.2101 35.7538C87.4057 34.3469 86.5912 32.9401 86.5558 31.3566C86.5204 29.7048 87.4057 28.1328 88.635 27.2328C89.8643 26.3386 91.4022 26.0652 92.8591 26.2361C93.36 24.3166 93.7849 22.4426 94.139 20.5516C93.0666 20.4548 92.0649 20.3466 91.1037 20.0219ZM81.9523 24.2368C81.3604 25.7064 80.3992 26.9765 79.2458 27.9334C78.573 28.4916 77.8293 28.9416 77.0351 29.2321C73.7772 30.4054 69.9578 28.3435 68.4452 24.8862C67.3424 22.3686 67.3929 19.2473 68.5717 16.7753C69.7504 14.3033 72.0319 12.5319 74.5107 12.1787C76.7265 11.8598 79.5342 13.2097 81.1328 15.6361C82.7314 18.0625 83.0551 21.4857 81.9523 24.2368Z" fill="#FFB217"></path><g opacity="0.1294"><path d="M83.9404 20.2329C83.905 19.9481 83.8544 19.6633 83.7937 19.3842C83.7633 19.3158 83.738 19.2532 83.7077 19.1848C83.2473 18.1596 82.6959 17.1913 82.0686 16.2856C81.9675 16.3654 81.8865 16.485 81.8511 16.6274C81.7853 17.1115 82.1243 17.5615 82.2305 18.0229C82.6099 19.2987 82.8629 19.9139 82.7415 21.0758C82.7566 21.5201 82.104 23.9921 81.8966 24.2997C81.6487 24.8408 81.3654 25.3648 81.0366 25.8547C80.9354 25.9914 80.9051 26.0483 80.9152 26.054C80.7533 26.1964 80.6117 26.3844 80.4498 26.5325C80.1109 26.8571 79.7719 27.1818 79.4279 27.5064C79.3369 27.5805 79.1901 27.7172 79.0839 27.8368C79.1396 27.7457 78.9878 27.9052 78.8512 28.0362C78.7753 28.0931 78.4364 28.3551 78.2644 28.452C77.0705 28.9247 75.8311 29.1867 75.1734 29.2266C74.2983 29.3177 73.4382 29.0671 72.7654 28.8905C72.2848 28.7367 71.8649 28.2013 71.3489 28.3096C71.1264 28.3722 70.9797 28.5602 70.9189 28.7823C70.9695 28.845 71.0201 28.9019 71.0707 28.9589C71.2478 29.1184 71.4198 29.2835 71.5968 29.443C72.2342 29.9101 72.8767 30.3828 73.5192 30.8442C74.5815 31.1917 75.7198 31.26 77.0756 30.9695C77.0503 30.9695 77.025 30.9752 76.9946 30.9809C78.4212 30.6392 78.8664 30.4284 79.9085 29.819C80.8191 29.2095 81.5526 28.3209 82.1192 27.3128C82.1344 27.2843 82.1546 27.2558 82.1698 27.2274C82.1698 27.2217 82.1749 27.2217 82.1749 27.2217C82.8376 26.2875 83.3435 25.2224 83.6976 24.0946C84.0517 22.8586 84.0466 21.5201 83.9404 20.2329Z" fill="black"></path></g><g opacity="0.1294"><path d="M87.4159 33.3674C87.2743 33.3788 87.1326 33.413 87.0112 33.4927C86.8291 33.6067 86.7127 33.7946 86.5964 33.9826C86.4902 34.1364 86.3789 34.2845 86.2827 34.4496C85.9995 34.8597 85.9185 35.0363 85.2912 35.754C84.9422 36.1755 84.3958 36.4375 84.1682 36.9615C84.1631 36.9729 84.1631 36.9786 84.158 36.99C84.0214 37.0754 83.8899 37.1666 83.7533 37.2463C83.5004 37.4229 83.1716 37.5083 82.9945 37.7931C82.4431 38.5279 83.298 39.6101 84.0214 39.1088C84.7752 38.6589 85.4834 38.1235 86.1209 37.4798C86.1512 37.4457 86.1816 37.4058 86.217 37.3716C86.7127 36.9216 87.1933 36.4546 87.6385 35.9419C87.8004 35.7483 87.9926 35.5205 88.1495 35.2755C87.9825 34.8996 87.8409 34.5123 87.7093 34.125C87.598 33.8801 87.5019 33.6237 87.4159 33.3674Z" fill="black"></path></g><g opacity="0.1294"><path d="M92.3279 20.4607C92.0395 21.7024 91.7157 22.9327 91.3616 24.1573C91.1997 24.7212 91.0379 25.2965 90.876 25.866C91.0682 26.1338 91.397 26.2875 91.7006 26.1793C91.7157 26.1736 91.7309 26.1622 91.7461 26.1565C92.0092 26.5723 92.6972 26.5211 92.8287 25.9401C92.8945 25.6724 92.9956 25.4047 93.0766 25.137C93.1272 25.1085 93.1828 25.0743 93.2283 25.0288C93.542 24.7724 93.628 24.2883 93.7443 23.8953C93.9163 23.0979 94.0125 22.2777 94.0428 21.4632C94.0428 21.4176 94.0479 21.3663 94.0529 21.3151C93.4712 21.0417 92.8945 20.7569 92.3279 20.4607Z" fill="black"></path></g><path d="M75.0469 43.3239C75.0367 43.3239 75.0266 43.3239 75.0165 43.3239C73.1953 43.1644 71.4804 42.8967 69.7654 42.5094C69.5631 42.4638 69.4315 42.2474 69.4619 42.0195C69.639 40.6582 69.4315 39.2286 68.8751 37.9983C68.6171 37.4173 68.3287 36.9901 67.9948 36.6939C67.7267 36.449 67.3878 36.2554 66.9578 36.1016C65.4249 35.5434 63.6442 35.8509 62.1974 36.9161C62.0203 37.0471 61.7826 36.9901 61.6662 36.7908C60.6899 35.1561 59.7287 33.4644 58.722 31.6189C58.6208 31.431 58.6562 31.1917 58.808 31.055C59.6882 30.2576 60.3155 29.3862 60.6747 28.4691C61.0895 27.4097 61.13 26.2649 60.786 25.3364C60.4116 24.3283 59.6376 23.6619 59.0508 23.2745C58.3679 22.836 57.609 22.5341 56.8047 22.2151L56.4506 22.0727C56.2937 22.0101 56.1875 21.8392 56.1926 21.6512C56.2482 19.5381 56.4202 17.6186 56.7086 15.944C56.744 15.7503 56.8907 15.6079 57.0627 15.5965C58.3173 15.5111 59.3189 15.2263 60.1233 14.7308C61.0794 14.1384 61.7775 13.1815 61.9849 12.1677C62.2227 11.0228 61.8838 9.79818 61.56 8.85837C61.393 8.37422 61.2109 7.91286 60.791 7.5882C60.6949 7.51415 60.6292 7.38884 60.6241 7.25784C60.619 7.12114 60.6646 6.99583 60.7556 6.9047C61.9141 5.76553 62.9461 4.85989 63.9983 4.05108C64.1552 3.93147 64.3626 3.95425 64.4941 4.11374C65.0101 4.72319 65.8044 4.96242 66.6492 5.16747C67.1854 5.29847 67.666 5.41239 68.1567 5.42947C69.3253 5.46934 70.5141 4.95102 71.4247 4.00551C72.2948 3.09988 72.8867 1.8354 73.1447 0.348786C73.1801 0.132344 73.3572 -0.0157481 73.5494 0.00133947L77.9253 0.365873C78.158 0.38296 78.3402 0.553836 78.4312 0.827237C78.4413 0.861412 78.4464 0.889891 78.4515 0.924066C78.6386 2.62143 79.1091 4.01121 79.8376 5.04785C80.6875 6.24968 81.9421 6.95026 83.1208 6.88761C84.4664 6.81356 85.7008 5.78262 86.8997 4.78015C87.0667 4.63775 87.3044 4.67762 87.4309 4.85989C88.6298 6.58573 89.6315 8.16917 90.4864 9.70135C90.5876 9.88362 90.5573 10.1228 90.4105 10.2652C89.6315 11.0057 88.6248 12.2303 88.2302 13.8935C87.8811 15.363 88.1341 16.9237 88.8878 17.9717C89.4089 18.6951 90.2082 19.2533 91.2098 19.595C92.1306 19.9083 93.0917 20.0165 94.1642 20.1133C94.2755 20.1247 94.3767 20.1874 94.4424 20.2842C94.5082 20.3811 94.5335 20.5121 94.5133 20.6317C94.1642 22.4942 93.7443 24.3624 93.2283 26.3503C93.1777 26.5496 93.0057 26.6806 92.8186 26.6579C91.3211 26.487 89.9097 26.8117 88.8423 27.5863C87.6585 28.4464 86.9098 29.9159 86.9402 31.3342C86.9705 32.7752 87.7142 34.0795 88.5034 35.4579L88.5287 35.5035C88.6349 35.6858 88.5995 35.925 88.4578 36.0674C86.9655 37.5027 85.3871 38.7957 83.9049 39.9747C83.7379 40.1057 83.5052 40.0716 83.3788 39.8893C82.9285 39.24 82.4176 38.4995 81.7701 38.004C80.5104 37.0357 78.6487 37.0756 77.3486 38.0894C76.0839 39.0748 75.3301 40.943 75.4313 42.8511C75.4364 42.9764 75.3959 43.0961 75.315 43.1872C75.2441 43.2783 75.148 43.3239 75.0469 43.3239ZM70.2612 41.7347C71.6979 42.0423 73.1397 42.2702 74.6523 42.4183C74.6776 40.3677 75.5224 38.471 76.9136 37.3888C78.497 36.1585 80.6723 36.1187 82.2102 37.3034C82.8425 37.7875 83.3332 38.4312 83.7632 39.0463C85.0583 38.0097 86.4141 36.8933 87.7041 35.6687C86.9452 34.3302 86.2067 32.9461 86.1712 31.3626C86.1358 29.6539 87.0211 27.8882 88.4275 26.8686C89.5607 26.0427 91.0227 25.6668 92.5757 25.775C93.0057 24.1061 93.3649 22.517 93.6684 20.9449C92.7477 20.8538 91.8473 20.7285 90.9923 20.438C89.844 20.045 88.9131 19.3843 88.296 18.5299C87.3904 17.2711 87.0818 15.4143 87.4916 13.6827C87.8204 12.2987 88.5691 10.9829 89.6618 9.86653C88.9131 8.55649 88.0582 7.20088 87.0565 5.74275C85.8627 6.73382 84.6182 7.67933 83.1612 7.76477C81.7448 7.85021 80.2372 7.01292 79.2356 5.59465C78.4413 4.46688 77.9304 2.99735 77.7078 1.22594L73.8277 0.901282C73.509 2.41068 72.8614 3.70363 71.9458 4.65484C70.8885 5.75414 69.4973 6.3579 68.1314 6.30663C67.5749 6.28955 67.0336 6.16424 66.4822 6.02754C65.6627 5.82818 64.8179 5.57757 64.1754 4.9795C63.3356 5.63453 62.506 6.36929 61.5954 7.24075C61.9445 7.65085 62.1266 8.12361 62.2783 8.55649C62.6375 9.61022 63.0169 11 62.7336 12.3727C62.4706 13.6429 61.6561 14.782 60.4926 15.4997C59.6528 16.018 58.641 16.3313 57.4067 16.4452C57.174 17.9091 57.0273 19.5665 56.9666 21.3721L57.0526 21.4063C57.8923 21.7367 58.6866 22.0556 59.4302 22.5398C60.1182 22.9897 61.0339 23.7872 61.4892 25.0175C61.9141 26.1623 61.8686 27.5521 61.3728 28.828C61.0035 29.7792 60.3914 30.6734 59.5466 31.4936C60.4167 33.0771 61.2514 34.5466 62.0912 35.9763C63.6695 34.951 65.5464 34.689 67.1854 35.2871C67.7014 35.475 68.1213 35.7142 68.4653 36.0275C68.8852 36.4034 69.2444 36.9275 69.553 37.6224C70.1246 38.8754 70.3725 40.3222 70.2612 41.7347Z" fill="black"></path><path d="M74.8494 25.9684C73.5543 25.9684 72.239 25.1596 71.5055 23.8552C70.7315 22.4825 70.6101 20.6143 71.1767 18.991C71.5612 17.8917 72.2239 16.969 73.0485 16.3937C73.959 15.7558 75.0416 15.5564 76.0129 15.8526C77.1158 16.1886 77.9404 16.7354 78.4614 17.4873C79.0887 18.3929 79.4277 19.6005 79.4226 20.8991C79.4175 21.782 79.2557 22.5395 78.9319 23.1547C78.6486 23.6958 78.254 24.1059 77.9049 24.4419C77.0247 25.2849 76.2355 25.752 75.4261 25.9114C75.2389 25.9513 75.0467 25.9684 74.8494 25.9684ZM75.1125 16.5931C74.5459 16.5931 73.959 16.781 73.4532 17.1342C72.7702 17.6126 72.2188 18.3872 71.895 19.3157C71.4144 20.6884 71.5156 22.2547 72.1581 23.3996C72.836 24.6071 74.131 25.2963 75.2996 25.0628C75.9674 24.9318 76.6402 24.5274 77.4092 23.7869C77.7076 23.5021 78.0466 23.149 78.2692 22.7218C78.5221 22.2433 78.6486 21.6282 78.6536 20.9048C78.6587 19.8055 78.3754 18.7803 77.8544 18.0341C77.4395 17.436 76.7515 16.9861 75.8156 16.7013C75.5931 16.6272 75.3553 16.5931 75.1125 16.5931Z" fill="black"></path><path d="M75.1276 29.9953C72.2997 29.9953 69.4111 28.0815 68.1009 25.0798C66.9424 22.4313 66.993 19.1733 68.2324 16.5703C69.4718 13.973 71.8596 12.1218 74.4598 11.7459C76.8931 11.3984 79.8272 12.9249 81.441 15.3741C83.1357 17.9486 83.4696 21.4972 82.301 24.4134C81.699 25.9114 80.7227 27.2443 79.4681 28.2809C78.7194 28.896 77.9403 29.3574 77.1461 29.6422C76.4935 29.8814 75.8105 29.9953 75.1276 29.9953ZM75.1832 12.5661C74.9708 12.5661 74.7633 12.5832 74.5559 12.6116C72.1985 12.9534 70.0333 14.628 68.9103 16.986C67.7872 19.3441 67.7366 22.3003 68.7889 24.6982C70.261 28.0588 73.9033 29.9099 76.9134 28.822C77.6266 28.5657 78.3349 28.1499 79.0128 27.586C80.1561 26.6405 81.0515 25.4216 81.5978 24.0603C82.64 21.463 82.3263 18.1822 80.8188 15.8925C79.5035 13.8875 77.2169 12.5661 75.1832 12.5661Z" fill="black"></path></svg>