<svg xmlns="http://www.w3.org/2000/svg" width="119" height="100" viewBox="0 0 119 100" fill="none"><path d="M53.8852 81.9062H40.5464V99.3505H53.8852V81.9062Z" fill="#FFB217"></path><path d="M53.8852 99.9998H40.5464C40.1881 99.9998 39.897 99.7087 39.897 99.3504V81.9062C39.897 81.5479 40.1881 81.2568 40.5464 81.2568H53.8852C54.2435 81.2568 54.5346 81.5479 54.5346 81.9062V99.3504C54.5346 99.7087 54.2435 99.9998 53.8852 99.9998ZM41.1958 98.701H53.2358V82.5556H41.1958V98.701Z" fill="black"></path><path d="M66.9328 100H27.4165C27.0582 100 26.7671 99.7089 26.7671 99.3506C26.7671 98.9923 27.0582 98.7012 27.4165 98.7012H66.9328C67.2911 98.7012 67.5822 98.9923 67.5822 99.3506C67.5822 99.7089 67.2911 100 66.9328 100Z" fill="black"></path><path d="M93.7001 18.3174H0.649414V82.7422H93.7001V18.3174Z" fill="white"></path><path d="M93.7001 83.3916H0.649399C0.29111 83.3916 0 83.1005 0 82.7422V18.3174C0 17.9591 0.29111 17.668 0.649399 17.668H93.7001C94.0584 17.668 94.3495 17.9591 94.3495 18.3174V82.7422C94.3495 83.1005 94.0658 83.3916 93.7001 83.3916ZM1.2988 82.0928H93.0507V18.9668H1.2988V82.0928Z" fill="black"></path><path d="M93.7001 76.9873H0.649414V85.4892H93.7001V76.9873Z" fill="#FFB217"></path><path d="M93.7001 86.1313H0.649399C0.29111 86.1313 0 85.8402 0 85.4819V76.98C0 76.6217 0.29111 76.3306 0.649399 76.3306H93.7001C94.0584 76.3306 94.3495 76.6217 94.3495 76.98V85.4819C94.3495 85.8402 94.0658 86.1313 93.7001 86.1313ZM1.2988 84.8325H93.0507V77.6294H1.2988V84.8325Z" fill="black"></path><path d="M46.9136 65.313C46.9136 64.0441 47.9437 63.0215 49.2051 63.0215C50.4741 63.0215 51.4967 64.0516 51.4967 65.313C51.4967 66.582 50.4666 67.6046 49.2051 67.6046C47.9437 67.6046 46.9136 66.5745 46.9136 65.313Z" fill="white"></path><path d="M49.2051 68.254C47.5854 68.254 46.2642 66.9328 46.2642 65.313C46.2642 63.6933 47.5854 62.3721 49.2051 62.3721C50.8249 62.3721 52.1461 63.6933 52.1461 65.313C52.1461 66.9328 50.8323 68.254 49.2051 68.254ZM49.2051 63.6709C48.3019 63.6709 47.563 64.4098 47.563 65.313C47.563 66.2162 48.3019 66.9552 49.2051 66.9552C50.1083 66.9552 50.8473 66.2162 50.8473 65.313C50.8473 64.4098 50.1158 63.6709 49.2051 63.6709Z" fill="black"></path><path d="M58.0205 65.313C58.0205 64.0441 59.0506 63.0215 60.3121 63.0215C61.581 63.0215 62.6036 64.0516 62.6036 65.313C62.6036 66.582 61.5735 67.6046 60.3121 67.6046C59.0431 67.6046 58.0205 66.5745 58.0205 65.313Z" fill="white"></path><path d="M60.3121 68.254C58.6923 68.254 57.3711 66.9328 57.3711 65.313C57.3711 63.6933 58.6923 62.3721 60.3121 62.3721C61.9318 62.3721 63.253 63.6933 63.253 65.313C63.253 66.9328 61.9318 68.254 60.3121 68.254ZM60.3121 63.6709C59.4089 63.6709 58.6699 64.4098 58.6699 65.313C58.6699 66.2162 59.4089 66.9552 60.3121 66.9552C61.2152 66.9552 61.9542 66.2162 61.9542 65.313C61.9542 64.4098 61.2152 63.6709 60.3121 63.6709Z" fill="black"></path><path d="M69.1201 65.313C69.1201 64.0441 70.1502 63.0215 71.4117 63.0215C72.6806 63.0215 73.7032 64.0516 73.7032 65.313C73.7032 66.582 72.6732 67.6046 71.4117 67.6046C70.1427 67.6046 69.1201 66.5745 69.1201 65.313Z" fill="white"></path><path d="M71.4117 68.254C69.7919 68.254 68.4707 66.9328 68.4707 65.313C68.4707 63.6933 69.7919 62.3721 71.4117 62.3721C73.0314 62.3721 74.3526 63.6933 74.3526 65.313C74.3526 66.9328 73.0314 68.254 71.4117 68.254ZM71.4117 63.6709C70.5085 63.6709 69.7695 64.4098 69.7695 65.313C69.7695 66.2162 70.5085 66.9552 71.4117 66.9552C72.3148 66.9552 73.0538 66.2162 73.0538 65.313C73.0538 64.4098 72.3223 63.6709 71.4117 63.6709Z" fill="black"></path><path d="M88.2361 49.9814C92.7669 54.445 97.3053 58.9013 101.836 63.365C104.232 65.7237 106.628 68.0824 109.241 70.1277C110.652 71.2324 112.212 72.2699 113.928 72.2699C115.638 72.2699 117.459 70.8293 117.444 68.8886C117.437 67.3808 116.392 66.1641 115.414 65.134C108.196 57.5204 100.649 50.3023 92.8117 43.5098C91.3786 45.6147 89.9454 47.7197 88.2361 49.9814Z" fill="white"></path><path d="M113.929 72.9119C112.018 72.9119 110.353 71.8146 108.838 70.6278C106.195 68.5602 103.747 66.1492 101.381 63.8203L87.7809 50.4442C87.5495 50.2128 87.5196 49.847 87.7211 49.5858C89.423 47.339 90.8786 45.2042 92.2819 43.144C92.3864 42.9948 92.5506 42.8902 92.7372 42.8679C92.9238 42.8455 93.1029 42.8977 93.2448 43.0171C101.067 49.7948 108.689 57.0875 115.892 64.6862C116.952 65.8058 118.086 67.1419 118.101 68.8811C118.109 69.8888 117.698 70.8667 116.944 71.6206C116.138 72.4342 115.011 72.9119 113.929 72.9119ZM89.0946 49.9142L102.292 62.8947C104.635 65.2012 107.061 67.5823 109.644 69.6052C110.973 70.6502 112.413 71.6131 113.929 71.6131C114.667 71.6131 115.451 71.2697 116.019 70.7024C116.526 70.1949 116.802 69.5455 116.795 68.8886C116.787 67.6271 115.877 66.5597 114.944 65.5819C107.935 58.1922 100.537 51.0936 92.9387 44.4802C91.7519 46.2268 90.5053 48.0257 89.0946 49.9142Z" fill="black"></path><path d="M70.5382 0.649414C54.9227 0.649414 42.2632 13.309 42.2632 28.9244C42.2632 44.5398 54.9227 57.2068 70.5382 57.2068C86.1536 57.2068 98.8132 44.5473 98.8132 28.9319C98.8132 13.3164 86.1611 0.649414 70.5382 0.649414ZM70.5382 50.3994C58.6773 50.3994 49.0632 40.7853 49.0632 28.9244C49.0632 17.0635 58.6773 7.44944 70.5382 7.44944C82.399 7.44944 92.0131 17.0635 92.0131 28.9244C92.0131 40.7853 82.399 50.3994 70.5382 50.3994ZM70.5382 50.3994C58.6773 50.3994 49.0632 40.7853 49.0632 28.9244C49.0632 17.0635 58.6773 7.44944 70.5382 7.44944C82.399 7.44944 92.0131 17.0635 92.0131 28.9244C92.0131 40.7853 82.399 50.3994 70.5382 50.3994Z" fill="white"></path><path d="M70.5382 57.8562C54.5868 57.8562 41.6138 44.8832 41.6138 28.9318C41.6138 12.9731 54.5943 0 70.5382 0C86.4895 0 99.4625 12.9731 99.4625 28.9244C99.47 44.8757 86.4895 57.8562 70.5382 57.8562ZM70.5382 1.2988C55.3034 1.2988 42.9126 13.6896 42.9126 28.9244C42.9126 44.1591 55.3034 56.55 70.5382 56.55C85.7729 56.55 98.1637 44.1591 98.1637 28.9244C98.1712 13.6896 85.7729 1.2988 70.5382 1.2988ZM70.5382 51.0487C58.3414 51.0487 48.4138 41.1211 48.4138 28.9244C48.4138 16.7276 58.3414 6.80003 70.5382 6.80003C82.7349 6.80003 92.6625 16.7276 92.6625 28.9244C92.6625 41.1211 82.7424 51.0487 70.5382 51.0487ZM49.7126 28.9244C49.7126 40.412 59.058 49.7499 70.5382 49.7499C82.0183 49.7499 91.3637 40.4046 91.3637 28.9244C91.3637 17.4442 82.0183 8.09883 70.5382 8.09883C59.058 8.09883 49.7126 17.4442 49.7126 28.9244Z" fill="black"></path><path d="M91.8787 50.7877C91.8563 50.7877 91.8414 50.7877 91.819 50.7802C91.707 50.7503 91.6398 50.6309 91.6697 50.5115L92.1698 48.7723C92.1997 48.6603 92.3191 48.5857 92.4385 48.623C92.5505 48.6528 92.6177 48.7723 92.5878 48.8917L92.0877 50.6309C92.0578 50.7279 91.9757 50.7877 91.8787 50.7877Z" fill="black"></path><path d="M94.26 53.8403C94.2525 53.8403 94.2376 53.8403 94.2301 53.8403C94.1107 53.8254 94.0286 53.7134 94.0435 53.594C94.3122 51.5562 94.6332 49.5035 94.9989 47.4881C95.0213 47.3687 95.1333 47.2941 95.2527 47.3165C95.3722 47.3389 95.4468 47.4508 95.4244 47.5702C95.0587 49.5856 94.7377 51.6309 94.4764 53.6612C94.4615 53.7582 94.3645 53.8403 94.26 53.8403Z" fill="black"></path><path d="M97.35 56.7963C97.2306 56.7963 97.1335 56.6993 97.1335 56.5799C97.1335 55.5647 97.2903 53.8554 97.4247 52.3476C97.5068 51.4294 97.5814 50.6382 97.6038 50.1381C97.6113 50.0187 97.7008 49.9217 97.8277 49.9366C97.9472 49.944 98.0367 50.0411 98.0293 50.1605C98.0069 50.6681 97.9322 51.4668 97.8501 52.3849C97.7158 53.8852 97.559 55.5796 97.559 56.5799C97.5665 56.6993 97.4694 56.7963 97.35 56.7963Z" fill="black"></path><path d="M100.508 59.7151C100.388 59.7151 100.291 59.618 100.291 59.5061L100.127 52.2806C100.127 52.1611 100.217 52.0641 100.336 52.0566C100.463 52.0566 100.552 52.1462 100.56 52.2656L100.724 59.4911C100.732 59.6106 100.635 59.7076 100.508 59.7151C100.515 59.7151 100.515 59.7151 100.508 59.7151Z" fill="black"></path><path d="M103.523 62.9094C103.404 62.9094 103.314 62.8198 103.307 62.7004L103.023 55.139C103.016 55.0195 103.113 54.9225 103.232 54.915C103.352 54.915 103.449 55.0046 103.456 55.124L103.74 62.6854C103.747 62.8049 103.65 62.9019 103.531 62.9094C103.523 62.9094 103.523 62.9094 103.523 62.9094Z" fill="black"></path><path d="M106.583 65.5969C106.471 65.5969 106.374 65.5074 106.367 65.3954L105.986 58.3267C105.979 58.2072 106.068 58.1027 106.188 58.0953C106.322 58.0803 106.412 58.1774 106.419 58.2968L106.8 65.3656C106.807 65.485 106.718 65.5895 106.598 65.5969C106.591 65.5969 106.591 65.5969 106.583 65.5969Z" fill="black"></path><path d="M109.614 68.0899C109.502 68.0899 109.405 68.0003 109.398 67.8883L108.868 61.0137C108.86 60.8942 108.95 60.7897 109.069 60.7823C109.181 60.7674 109.293 60.8644 109.301 60.9838L109.831 67.8585C109.838 67.9779 109.748 68.0824 109.629 68.0899C109.629 68.0899 109.622 68.0899 109.614 68.0899Z" fill="black"></path><path d="M112.488 70.3217C112.376 70.3217 112.286 70.2396 112.271 70.1276L111.652 64.0964C111.637 63.977 111.726 63.8725 111.846 63.8576C111.958 63.8427 112.07 63.9322 112.085 64.0517L112.704 70.0829C112.719 70.2023 112.63 70.3068 112.51 70.3217C112.503 70.3217 112.495 70.3217 112.488 70.3217Z" fill="black"></path><path d="M115.294 70.0007C115.19 70.0007 115.1 69.9261 115.078 69.8216L114.645 67.127C114.623 67.0075 114.705 66.8956 114.824 66.8806C114.944 66.8582 115.056 66.9404 115.071 67.0598L115.503 69.7544C115.526 69.8738 115.444 69.9858 115.324 70.0007C115.324 70.0007 115.309 70.0007 115.294 70.0007Z" fill="black"></path><g opacity="0.1294"><path d="M90.5426 35.7693C89.8335 36.3664 89.5051 37.3368 88.9005 38.0459C88.7885 38.2474 87.3404 39.8821 86.5193 40.6659C85.8102 41.3004 85.131 41.8602 84.4368 42.3827C84.3173 42.4051 84.1904 42.4499 84.071 42.5245C80.5329 45.0848 77.8756 46.0178 73.4119 46.8389C71.292 47.2345 68.8437 47.5704 65.5072 46.7419C63.1634 46.197 62.0362 45.555 59.5879 43.9054C58.5504 43.1739 56.2364 41.1362 54.6614 39.2327C52.967 36.9188 52.3923 34.8959 52.0415 33.9778C51.6906 33.0299 51.4219 32.0595 51.1457 31.0891C50.7352 29.7605 50.6083 29.2902 50.6083 28.1556C50.347 27.4316 50.1157 26.7075 49.8992 25.9686C49.6902 25.8715 49.4588 25.8268 49.2274 25.8417C48.8467 28.7602 48.9064 31.6937 49.2722 34.6048C49.9067 37.1203 50.6904 39.8448 53.1014 42.5544C55.0421 44.6966 56.3782 45.4356 57.2143 46.1223C59.1625 47.5256 61.2375 48.8095 63.5291 49.5559C64.7831 49.9217 66.0894 50.071 67.3807 50.2277C67.3882 50.2277 67.3956 50.2277 67.4031 50.2352C68.8139 50.489 70.247 50.4965 71.6653 50.3397C72.7774 50.2501 73.8523 49.9217 74.9272 49.6306C77.159 49.0857 79.3834 48.399 81.4212 47.3241C82.2497 46.8165 82.5334 46.615 82.9215 46.3239C85.4221 44.7638 88.0047 42.5992 89.3259 41.0914C89.6693 40.3822 90.0052 39.6657 90.3112 38.9416C90.6994 37.8593 91.095 36.777 91.4757 35.6946C91.192 35.5827 90.8412 35.5901 90.5426 35.7693Z" fill="black"></path></g><g opacity="0.1294"><path d="M95.1555 44.9949C94.0807 44.6889 93.3566 45.4353 92.8267 46.2564C92.8043 46.2862 92.7819 46.3086 92.752 46.346C91.8115 47.4432 91.5503 47.3462 89.9977 48.7495C89.9902 48.7569 89.9827 48.7569 89.9753 48.7644C89.6692 48.9809 89.3035 49.1302 89.1094 49.4661C88.6242 50.0632 88.5944 50.7425 88.8407 51.3098C88.4525 51.3172 88.0719 51.4889 87.8181 51.7949C87.0567 52.519 87.4299 52.1682 86.8328 52.6235C85.4817 53.5938 82.1526 55.2808 81.7272 55.3778C77.4277 57.0349 74.427 57.8635 70.2918 57.6022C63.6709 57.4305 58.1323 54.9076 53.2282 51.459C52.3624 50.7872 51.504 50.0781 50.8396 49.1973C50.9068 49.2869 50.974 49.3765 51.0412 49.4586C50.347 48.6301 49.8021 47.5477 48.8243 47.0252C47.5553 46.4355 46.3909 48.1523 47.3986 49.1376C48.2794 49.8841 48.8691 51.1605 50.2873 52.4145C51.6607 53.6237 53.1536 54.6762 54.7808 55.5271C56.0722 56.4154 57.468 57.1021 58.8862 57.7814C59.6849 58.1396 62.1631 59.222 64.0814 59.625C67.2986 60.3118 70.6426 60.6626 73.9269 60.3715C77.7636 59.9311 81.451 58.5427 84.8473 56.7513C86.5491 55.7809 88.348 54.8926 89.7513 53.4893C90.0424 53.2132 90.1544 52.8176 90.1096 52.4443C90.565 52.5787 91.0725 52.5488 91.5652 52.2577C92.7968 51.5785 93.8567 50.6156 94.7077 49.4959C95.2526 48.8988 95.7825 48.2792 96.2006 47.585C96.8052 46.6221 96.2453 45.2786 95.1555 44.9949Z" fill="black"></path></g><path d="M10.5173 64.2382C10.3979 64.2382 10.2784 64.2083 10.1739 64.1411C9.86789 63.9545 9.77832 63.5514 9.96492 63.2454L20.1687 46.9134C20.2583 46.7641 20.4076 46.6596 20.5792 46.6223C20.7509 46.585 20.9301 46.6148 21.0719 46.7118L31.6489 53.7059L40.0239 43.3902C40.2478 43.114 40.6584 43.0692 40.9345 43.2932C41.2107 43.5171 41.2555 43.9276 41.0316 44.2038L32.3057 54.9824C32.0967 55.2436 31.7235 55.2959 31.4473 55.1167L20.9301 48.1674L11.0771 63.9321C10.9502 64.1262 10.7338 64.2382 10.5173 64.2382Z" fill="black"></path><path d="M86.3776 37.1055C86.2059 37.1055 86.0342 37.0383 85.9073 36.904L69.3589 19.2881L55.0198 36.0456C54.7884 36.3217 54.3779 36.3516 54.1017 36.1202C53.833 35.8888 53.7957 35.4783 54.0271 35.2021L68.8438 17.8997C68.9633 17.7579 69.1349 17.6758 69.3215 17.6758C69.4858 17.6758 69.6798 17.743 69.8067 17.8773L86.8479 36.0157C87.0942 36.277 87.0793 36.6875 86.818 36.9338C86.6986 37.0458 86.5418 37.1055 86.3776 37.1055Z" fill="black"></path><g opacity="0.1294"><path d="M52.4968 68.2094C52.4147 67.2465 51.198 66.918 50.5039 67.5077C50.4889 67.5152 50.4815 67.5152 50.4665 67.5226C50.3546 67.5674 50.2053 67.5973 50.1082 67.6197C50.0859 67.6197 50.0709 67.6271 50.056 67.6271C49.1976 67.5824 49.9067 67.7092 49.0334 67.4704C48.914 67.4107 48.802 67.3435 48.6975 67.2614C48.7049 67.2688 48.705 67.2688 48.7124 67.2763C48.69 67.2614 48.6751 67.2465 48.6527 67.2315C48.5482 67.142 48.4437 67.0524 48.3541 66.9404C48.3392 66.9255 48.3317 66.918 48.3243 66.9031C48.1675 66.6792 48.0108 66.4403 47.757 66.3059C46.4507 65.5595 45.1221 67.2763 46.182 68.3437C47.2569 69.7395 48.8393 70.2994 50.7576 69.9112C51.5265 69.6574 52.676 69.2096 52.4968 68.2094Z" fill="black"></path></g><g opacity="0.1294"><path d="M62.9916 68.0227C62.9468 67.418 62.3721 66.9552 61.7824 66.9552C61.3793 66.9329 61.0882 67.1941 60.7673 67.3807C60.7299 67.3956 60.7001 67.4106 60.6627 67.418C60.6404 67.4255 60.6254 67.4255 60.603 67.433C60.4836 67.4404 60.3567 67.4404 60.2373 67.4255C60.2298 67.4255 60.2298 67.4255 60.2298 67.4255C60.0656 67.3882 59.8939 67.3509 59.7372 67.2911C59.6775 67.2613 59.6028 67.2165 59.5282 67.1717C59.4908 67.1493 59.461 67.1269 59.4311 67.112C59.3416 67.0299 59.252 66.9478 59.1699 66.8657C58.931 66.6417 58.7444 66.3357 58.416 66.2387C57.2142 65.6714 56.117 67.3285 57.0649 68.2391C58.0278 69.3886 59.5356 70.1201 61.036 69.7842C61.9093 69.62 63.1782 69.105 62.9916 68.0227Z" fill="black"></path></g><g opacity="0.1294"><path d="M74.5839 68.0452C74.5092 67.1271 73.4045 66.724 72.6581 67.1719C72.5162 67.2167 72.367 67.254 72.2177 67.2764C72.0609 67.2913 71.7997 67.3063 71.6578 67.2913C71.5683 67.2913 71.4712 67.2839 71.3891 67.2764C71.2174 67.2466 71.0532 67.2092 70.8965 67.1495C70.7845 67.0898 70.68 67.0226 70.6128 66.9704C70.3441 66.7539 70.1053 66.5001 69.7619 66.4105C69.2618 66.2911 68.6796 66.4329 68.3885 66.8808C67.8809 67.4481 68.0973 68.4334 68.7542 68.7991C69.5305 69.4859 70.5307 69.8143 71.5608 69.8143C72.6879 69.7994 74.7481 69.5754 74.5839 68.0452Z" fill="black"></path></g></svg>