<svg xmlns="http://www.w3.org/2000/svg" width="142" height="98" viewBox="0 0 142 98" fill="none"><path d="M13.479 29.7342L91.1068 10.5073L62.2635 67.8857L47.9803 49.8842L38.4812 55.5658L36.7855 39.0329L13.479 29.7342Z" fill="white"></path><path d="M42.2786 48.2477C42.1662 48.2477 42.071 48.1638 42.0624 48.0547L41.1886 36.809C41.1799 36.6915 41.2664 36.5908 41.3876 36.5824C41.5087 36.574 41.6125 36.6579 41.6211 36.7754L42.4949 48.0211C42.5036 48.1386 42.4171 48.2393 42.2959 48.2477C42.2873 48.2477 42.2873 48.2477 42.2786 48.2477Z" fill="black"></path><path d="M45.9469 44.454C45.8344 44.454 45.7306 44.3617 45.7306 44.2526C45.5749 41.1391 45.3067 37.9836 44.926 34.8868C44.9087 34.7693 44.9952 34.6602 45.1164 34.6518C45.2288 34.635 45.3499 34.7189 45.3586 34.8364C45.7393 37.95 46.0074 41.1139 46.1632 44.2358C46.1718 44.3533 46.0767 44.454 45.9555 44.4624C45.9555 44.454 45.9555 44.454 45.9469 44.454Z" fill="black"></path><path d="M49.6498 41.9283C49.5719 41.9283 49.494 41.8864 49.4594 41.8192C49.4508 41.7941 49.4335 41.7521 49.4248 41.7269C49.0442 38.8567 48.7673 35.9362 48.5943 33.0408C48.5856 32.9234 48.6808 32.8226 48.8019 32.8143C48.9317 32.8059 49.0269 32.8982 49.0355 33.0157C49.2085 35.8942 49.4854 38.798 49.8574 41.6514C49.892 41.7437 49.8487 41.8528 49.7536 41.9032C49.719 41.9199 49.6844 41.9283 49.6498 41.9283Z" fill="black"></path><path d="M53.1707 38.8232C53.0669 38.8232 52.9717 38.7477 52.9544 38.647C52.5218 36.0789 52.2277 33.4605 52.0806 30.8673C52.072 30.7498 52.1671 30.6491 52.2883 30.6407C52.418 30.6323 52.5132 30.7246 52.5218 30.8421C52.6689 33.4269 52.9631 36.0286 53.3956 38.5798C53.4129 38.6973 53.3351 38.8064 53.2139 38.8232C53.1966 38.8232 53.1793 38.8232 53.1707 38.8232Z" fill="black"></path><path d="M56.7697 35.9107C56.6573 35.9107 56.5621 35.8268 56.5534 35.7177C56.3372 33.5021 56.1901 31.253 56.1036 29.029C56.0949 28.9115 56.1901 28.8108 56.3112 28.8108C56.4323 28.8108 56.5361 28.9031 56.5361 29.0122C56.6226 31.2278 56.7697 33.4685 56.986 35.6757C56.9947 35.7932 56.9081 35.8939 56.787 35.9107C56.787 35.9107 56.7784 35.9107 56.7697 35.9107Z" fill="black"></path><path d="M61.0523 33.519C60.9311 33.519 60.836 33.4267 60.836 33.3092L60.6543 26.1757C60.6543 26.0582 60.7495 25.9575 60.8706 25.9575C60.8706 25.9575 60.8706 25.9575 60.8792 25.9575C61.0003 25.9575 61.0955 26.0498 61.0955 26.1673L61.2772 33.3008C61.2772 33.4183 61.182 33.519 61.0523 33.519Z" fill="black"></path><path d="M64.374 30.7163C64.2529 30.7163 64.1577 30.6156 64.1577 30.4981L64.2096 25.0599C64.2096 24.9424 64.3048 24.8501 64.4259 24.8501C64.547 24.8501 64.6422 24.9508 64.6422 25.0683L64.5903 30.5065C64.5989 30.624 64.4951 30.7163 64.374 30.7163Z" fill="black"></path><path d="M68.0854 28.5089C67.9643 28.5089 67.8691 28.4081 67.8691 28.2907L67.9211 22.693C67.9211 22.5755 68.0162 22.4832 68.1373 22.4832C68.2585 22.4832 68.3536 22.5839 68.3536 22.7014L68.3017 28.299C68.3017 28.4165 68.2065 28.5089 68.0854 28.5089Z" fill="black"></path><path d="M71.8748 25.7394C71.7537 25.7394 71.6585 25.647 71.6585 25.5295L71.5547 20.9138C71.5547 20.7963 71.6499 20.6956 71.771 20.6956C71.771 20.6956 71.771 20.6956 71.7796 20.6956C71.9007 20.6956 71.9959 20.7879 71.9959 20.9054L72.0997 25.5212C72.0997 25.6386 72.0046 25.7394 71.8748 25.7394Z" fill="black"></path><path d="M75.3265 22.8692C75.214 22.8692 75.1102 22.7769 75.1102 22.6678C75.041 21.4005 75.041 20.1165 75.1015 18.8492C75.1102 18.7318 75.214 18.631 75.3351 18.6478C75.4562 18.6562 75.5514 18.7569 75.5427 18.8744C75.4822 20.1249 75.4822 21.4005 75.5514 22.651C75.56 22.7685 75.4649 22.8692 75.3438 22.8776C75.3351 22.8692 75.3265 22.8692 75.3265 22.8692Z" fill="black"></path><path d="M78.9168 20.0911C78.7957 20.0911 78.7005 19.9988 78.7005 19.8813L78.5967 16.902C78.5967 16.7845 78.6918 16.6838 78.8043 16.6838C78.9081 16.6838 79.0292 16.7678 79.0292 16.8853L79.1331 19.8645C79.1417 19.9904 79.0465 20.0911 78.9168 20.0911C78.9254 20.0911 78.9254 20.0911 78.9168 20.0911Z" fill="black"></path><path d="M39.6836 52.276C39.5712 52.276 39.4673 52.1837 39.4673 52.0746C39.2511 47.5679 38.8791 43.0108 38.3513 38.5293C38.334 38.4118 38.4205 38.3027 38.5417 38.2943C38.6541 38.2859 38.7666 38.3615 38.7839 38.479C39.3116 42.9689 39.6923 47.5427 39.8999 52.0494C39.9086 52.1669 39.8134 52.2676 39.6923 52.276C39.6923 52.276 39.6923 52.276 39.6836 52.276Z" fill="black"></path><path d="M62.1767 69.0356C61.9691 69.0356 61.7701 68.9433 61.649 68.7755L44.2773 46.242C44.061 45.9651 44.1129 45.5707 44.3984 45.3608C44.6666 45.151 68.4316 26.9313 84.5316 14.4854C68.9507 22.8442 53.1448 31.1274 37.4514 39.1757C37.3217 39.2428 37.1832 39.268 37.0448 39.2428C29.5615 38.1015 13.2538 30.4057 12.5617 30.0784C12.3108 29.9609 12.1638 29.7091 12.1984 29.4406C12.2243 29.172 12.4233 28.9538 12.6915 28.8867L91.2364 9.43324C91.4872 9.37449 91.7468 9.45842 91.9111 9.65144C92.0755 9.84447 92.1015 10.113 91.9977 10.3312L62.7737 68.6748C62.6699 68.8762 62.4709 69.0105 62.246 69.0356C62.22 69.0356 62.2027 69.0356 62.1767 69.0356ZM45.722 45.9735L62.0643 67.1725L89.5926 12.2027C74.9893 23.5156 49.6065 42.9942 45.722 45.9735ZM14.7764 29.684C19.1194 31.6729 31.0235 36.9433 37.0275 37.942C53.5774 29.4574 70.2484 20.7042 86.6512 11.8838L14.7764 29.684Z" fill="black"></path><path d="M37.7542 56.4136C37.6936 56.4136 37.6417 56.4052 37.5812 56.3884C37.313 56.3213 37.114 56.0863 37.0967 55.8093L35.9807 39.3939C35.9547 39.0414 36.2316 38.7393 36.5949 38.7141C36.941 38.6974 37.2697 38.9575 37.2957 39.31L38.2906 53.8623L44.0696 45.5371C44.2773 45.2434 44.6839 45.1679 44.9867 45.3609C45.2895 45.5623 45.3673 45.9567 45.1683 46.2505L38.3079 56.1199C38.1781 56.3129 37.9705 56.4136 37.7542 56.4136Z" fill="black"></path><path d="M38.282 56.4135C38.0657 56.4135 37.8494 56.3044 37.7283 56.1114C37.538 55.8093 37.6245 55.4149 37.9359 55.2302L47.5648 49.3388C47.8676 49.1542 48.2828 49.2381 48.4732 49.5402C48.6635 49.8423 48.577 50.2368 48.2655 50.4214L38.628 56.3128C38.5242 56.38 38.4031 56.4135 38.282 56.4135Z" fill="black"></path><path d="M103.288 66.3501L105.07 77.8056L111.299 73.4332L121.603 84.2593L137.408 44.488L87.5425 62.0532L95.3373 64.9653L103.288 66.3501Z" fill="#FFB217"></path><path d="M121.542 85.1488C121.36 85.1488 121.179 85.0732 121.058 84.939L108.375 71.3602C108.133 71.1084 108.15 70.7139 108.41 70.4706C108.565 70.3279 121.196 58.5367 130.851 49.4729C121.888 55.4651 112.813 61.4236 103.798 67.2311C103.677 67.3067 103.547 67.3402 103.4 67.3402C98.4086 67.0885 87.2572 63.1357 86.79 62.9678C86.5304 62.8755 86.3574 62.6321 86.3574 62.372C86.3574 62.1034 86.5304 61.8684 86.79 61.7761L137.011 43.8165C137.253 43.7326 137.521 43.7913 137.703 43.9676C137.884 44.1438 137.945 44.4124 137.85 44.6473L122.156 84.7543C122.079 84.9641 121.888 85.1152 121.663 85.1572C121.62 85.1488 121.577 85.1488 121.542 85.1488ZM109.776 70.9573L121.3 83.3025L135.583 46.7874C126.793 55.0706 112.519 68.4061 109.776 70.9573ZM88.9441 62.3552C92.2489 63.463 99.5073 65.7876 103.245 66.0478C113.038 59.7368 122.9 53.2495 132.616 46.737L88.9441 62.3552Z" fill="black"></path><path d="M104.828 78.5187C104.793 78.5187 104.75 78.5187 104.716 78.5103C104.439 78.46 104.222 78.2502 104.179 77.9816L102.484 67.3233C102.432 66.9709 102.674 66.652 103.037 66.5932C103.392 66.5429 103.729 66.7778 103.79 67.1303L105.191 75.9339L108.167 70.6719C108.34 70.3614 108.747 70.2523 109.059 70.4201C109.379 70.588 109.491 70.974 109.318 71.2845L105.416 78.1998C105.287 78.4012 105.07 78.5187 104.828 78.5187Z" fill="black"></path><path d="M105.174 78.485C104.975 78.485 104.785 78.4011 104.655 78.2417C104.43 77.9647 104.482 77.5619 104.767 77.3437L110.719 72.8454C111.005 72.6272 111.42 72.6775 111.645 72.9545C111.87 73.2314 111.818 73.6343 111.533 73.8525L105.58 78.3508C105.451 78.4431 105.312 78.485 105.174 78.485Z" fill="black"></path><path d="M107.146 13.1092L140.626 0.864746L130.747 26.5453L123.653 19.7559L119.751 22.7352L118.168 15.8451L107.146 13.1092Z" fill="white"></path><path d="M130.747 27.6027C130.574 27.6027 130.409 27.5356 130.28 27.4181L121.438 18.8579C121.308 18.732 121.239 18.5725 121.248 18.3963C121.248 18.2201 121.326 18.0606 121.455 17.9431C121.551 17.8592 128.489 11.4558 134.649 5.75744C129.285 9.31579 123.878 12.849 118.497 16.2982C118.384 16.3737 118.263 16.4157 118.125 16.4073C114.664 16.3402 106.947 13.9903 106.618 13.8896C106.35 13.8057 106.169 13.5707 106.16 13.3021C106.151 13.0336 106.324 12.7818 106.584 12.6895L140.921 0.0506456C141.163 -0.0416701 141.44 0.0170763 141.622 0.193315C141.803 0.369554 141.864 0.638109 141.769 0.873095L131.361 27.1915C131.283 27.3929 131.102 27.5439 130.885 27.5859C130.842 27.6027 130.799 27.6027 130.747 27.6027ZM122.848 18.4131L130.496 25.8151L139.502 3.02153C133.68 8.4262 124.994 16.4409 122.848 18.4131ZM108.859 13.2098C111.316 13.898 115.607 15.0226 117.943 15.1233C124.059 11.1873 130.219 7.15896 136.31 3.10546L108.859 13.2098Z" fill="black"></path><path d="M119.206 23.6331C119.172 23.6331 119.137 23.6331 119.094 23.6247C118.817 23.5827 118.601 23.3729 118.557 23.1044L117.294 16.2226C117.234 15.8785 117.467 15.5429 117.831 15.4841C118.185 15.4254 118.531 15.652 118.592 16.0044L119.535 21.1238L121.256 18.1277C121.43 17.8172 121.836 17.7081 122.156 17.8759C122.476 18.0438 122.589 18.4382 122.407 18.7487L119.786 23.3142C119.665 23.5156 119.44 23.6331 119.206 23.6331Z" fill="black"></path><path d="M119.44 23.6078C119.241 23.6078 119.051 23.5238 118.921 23.356C118.696 23.079 118.748 22.6762 119.042 22.458L123.091 19.42C123.376 19.2018 123.791 19.2521 124.016 19.5375C124.241 19.8144 124.189 20.2172 123.895 20.4354L119.846 23.4735C119.725 23.5658 119.578 23.6078 119.44 23.6078Z" fill="black"></path><path d="M0.657715 83.2523C0.432782 83.2523 0.2165 83.1432 0.0953826 82.9418C-0.0949453 82.6397 0.00886992 82.2453 0.311664 82.0606C10.2693 76.186 19.8981 69.4637 28.9214 62.0701C29.1982 61.8435 29.6135 61.8771 29.8471 62.1456C30.0807 62.4142 30.0461 62.817 29.7692 63.0436C20.6941 70.4876 11.0219 77.2518 1.00377 83.16C0.891299 83.2272 0.778833 83.2523 0.657715 83.2523Z" fill="black"></path><path d="M27.5286 78.024C27.3988 78.024 27.269 77.9904 27.1479 77.9065C26.8538 77.7051 26.7759 77.3022 26.9835 77.0169C30.9977 71.4612 35.6607 66.4593 40.8515 62.1457C41.1283 61.9191 41.5436 61.9442 41.7772 62.2128C42.0108 62.4814 41.9848 62.8842 41.708 63.1108C36.6037 67.3573 32.0099 72.2752 28.0649 77.747C27.9352 77.9233 27.7362 78.024 27.5286 78.024Z" fill="black"></path><path d="M86.5041 97.0074C86.409 97.0074 86.3052 96.9822 86.21 96.9402C85.8812 96.7808 85.7515 96.4031 85.9158 96.0842C88.7448 90.5453 92.6898 85.5434 97.3182 81.6242C97.5951 81.3892 98.0103 81.4228 98.2439 81.683C98.4861 81.9515 98.4515 82.3544 98.1833 82.581C93.676 86.3911 89.8435 91.2502 87.0924 96.6381C86.98 96.8731 86.7464 97.0074 86.5041 97.0074Z" fill="black"></path></svg>