<svg xmlns="http://www.w3.org/2000/svg" width="136" height="80" viewBox="0 0 136 80" fill="none"><path d="M28.429 22.3807C28.306 22.3807 28.1752 22.3423 28.0676 22.2577C27.8138 22.0577 27.7676 21.6885 27.9676 21.4347L35.0892 12.3058C35.2892 12.052 35.6583 12.0059 35.9121 12.2059C36.1659 12.4058 36.212 12.775 36.0121 13.0288L28.8905 22.15C28.7751 22.3038 28.5982 22.3807 28.429 22.3807Z" fill="black"></path><path d="M51.6856 78.7154C51.6163 76.6235 51.5548 74.5317 51.4856 72.4321C51.401 69.8865 51.3241 67.3408 51.3933 64.7875C51.4548 62.511 51.6394 60.2423 51.6856 57.9735C51.7471 54.9664 51.5548 51.967 51.4395 48.9599C51.1549 41.6076 51.301 34.2399 51.5548 26.8568C47.4403 26.5184 43.295 26.5722 39.3188 26.9567C41.8876 23.6113 44.9562 20.6965 48.0094 17.7971C49.486 16.3974 50.9626 14.99 52.4393 13.5902C57.0152 9.26035 61.5835 4.92278 66.3672 0.739014C67.5362 1.52347 68.559 2.50788 69.5511 3.50768C76.7958 10.8062 82.9484 19.1199 89.8162 26.6184C85.5402 26.6414 81.2565 26.6645 76.965 26.7337C77.1188 44.1609 77.5264 61.5881 77.9033 78.9615C69.2358 79.7921 60.4991 79.8613 51.6856 78.7154Z" fill="white"></path><path d="M47.5021 23.8575C47.4483 23.8575 47.3944 23.8344 47.356 23.796C47.2791 23.719 47.2868 23.596 47.3637 23.5191L67.4826 4.76907C67.5596 4.69216 67.6826 4.69985 67.7595 4.77676C67.8364 4.85367 67.8287 4.97672 67.7518 5.05362L47.6328 23.8036C47.5944 23.8421 47.5482 23.8575 47.5021 23.8575Z" fill="black"></path><path d="M52.8547 24.1806C52.8009 24.1806 52.747 24.1576 52.7086 24.1114C52.6394 24.0268 52.6471 23.9038 52.724 23.8346C58.4689 18.7587 64.3677 13.6828 70.2512 8.7684C70.3358 8.69918 70.4588 8.70688 70.528 8.79147C70.5972 8.87607 70.5895 8.99912 70.5049 9.06834C64.6215 13.9827 58.7304 19.0509 52.9931 24.1268C52.947 24.1653 52.9008 24.1806 52.8547 24.1806Z" fill="black"></path><path d="M53.9087 29.241C53.8548 29.241 53.801 29.2179 53.7625 29.1718C53.6933 29.0872 53.701 28.9641 53.7856 28.8949L73.2278 12.2752C73.3124 12.206 73.4355 12.2137 73.5047 12.2983C73.5739 12.3829 73.5662 12.506 73.4816 12.5752L54.0317 29.1949C53.9933 29.2256 53.9548 29.241 53.9087 29.241Z" fill="black"></path><path d="M53.1935 35.6706C53.1397 35.6706 53.0858 35.6476 53.0474 35.6091C52.9705 35.5322 52.9782 35.4091 53.0551 35.3322C60.4843 28.426 68.252 21.7042 76.1581 15.3517C76.2427 15.2825 76.3657 15.2979 76.4349 15.3825C76.5041 15.4671 76.4888 15.5901 76.4042 15.6593C68.5058 22.0042 60.7458 28.7259 53.3243 35.6168C53.2858 35.6553 53.2397 35.6706 53.1935 35.6706Z" fill="black"></path><path d="M53.6394 40.8154C53.5856 40.8154 53.5395 40.7923 53.501 40.7539C53.4241 40.677 53.4318 40.5539 53.5087 40.477C61.6609 32.6478 70.4437 25.3339 79.6187 18.7276C79.7033 18.6661 79.8264 18.6814 79.8879 18.7737C79.9495 18.8583 79.9341 18.9814 79.8418 19.0429C70.6821 25.6416 61.907 32.9478 53.7702 40.7616C53.7317 40.8 53.6856 40.8154 53.6394 40.8154Z" fill="black"></path><path d="M53.1548 46.3834C53.1009 46.3834 53.0471 46.3603 53.0086 46.3219C52.9394 46.245 52.9394 46.1219 53.024 46.045C59.638 39.9924 66.5674 34.1244 73.6198 28.6024C73.7044 28.5332 73.8275 28.5486 73.8967 28.6332C73.9659 28.7178 73.9505 28.8408 73.8659 28.9101C66.8212 34.4243 59.8995 40.2847 53.2932 46.3296C53.247 46.368 53.2009 46.3834 53.1548 46.3834Z" fill="black"></path><path d="M79.1727 24.3881C79.1111 24.3881 79.0496 24.3573 79.0188 24.3112C78.9573 24.2266 78.9727 24.1035 79.065 24.042L82.5028 21.5272C82.5873 21.4656 82.7104 21.481 82.7719 21.5733C82.8335 21.6579 82.8181 21.7809 82.7258 21.8425L79.288 24.3573C79.2496 24.3804 79.2111 24.3881 79.1727 24.3881Z" fill="black"></path><path d="M53.6088 50.7828C53.555 50.7828 53.5011 50.7597 53.4627 50.7212C53.3858 50.6443 53.3935 50.5213 53.4704 50.4444C60.1536 44.2379 67.2675 38.3392 74.5968 32.9095C74.6814 32.848 74.8045 32.8633 74.8737 32.9479C74.9352 33.0325 74.9198 33.1556 74.8352 33.2248C67.5137 38.6468 60.4151 44.5302 53.7395 50.7289C53.7088 50.7597 53.6549 50.7828 53.6088 50.7828Z" fill="black"></path><path d="M53.6854 55.8969C53.6316 55.8969 53.5701 55.8739 53.5316 55.8277C53.4624 55.7431 53.4778 55.6201 53.5624 55.5509L74.0044 38.9696C74.089 38.9004 74.212 38.9158 74.2812 39.0004C74.3505 39.085 74.3351 39.208 74.2505 39.2772L53.8085 55.8508C53.77 55.8816 53.7239 55.8969 53.6854 55.8969Z" fill="black"></path><path d="M54.393 60.796C54.3392 60.796 54.2854 60.7729 54.2469 60.7268C54.1777 60.6422 54.1854 60.5191 54.27 60.4499C60.7225 55.051 67.4135 49.7598 74.1582 44.7301C74.2428 44.6685 74.3659 44.6839 74.4351 44.7685C74.4966 44.8531 74.4813 44.9762 74.3967 45.0454C67.6596 50.0751 60.9763 55.3587 54.5315 60.7576C54.4853 60.7806 54.4392 60.796 54.393 60.796Z" fill="black"></path><path d="M54.324 66.4104C54.2702 66.4104 54.2086 66.3874 54.1702 66.3412C54.101 66.2566 54.1163 66.1336 54.1933 66.0643C60.9457 60.4732 67.8981 54.9512 74.866 49.6523C74.9506 49.5831 75.0736 49.6062 75.1428 49.6908C75.212 49.7754 75.189 49.8984 75.1044 49.9676C68.1443 55.2665 61.1918 60.7885 54.447 66.372C54.4086 66.395 54.3624 66.4104 54.324 66.4104Z" fill="black"></path><path d="M54.2238 72.9243C54.17 72.9243 54.1162 72.9012 54.0777 72.8551C54.0085 72.7705 54.0162 72.6474 54.0931 72.5782C60.5918 66.8563 67.5673 61.5497 74.812 56.7968C74.9042 56.7353 75.0196 56.7583 75.0811 56.8506C75.1427 56.9429 75.1119 57.0583 75.0273 57.1198C67.798 61.8573 60.8456 67.1562 54.3546 72.8627C54.3161 72.9089 54.27 72.9243 54.2238 72.9243Z" fill="black"></path><path d="M57.2078 76.2467C57.1463 76.2467 57.0848 76.216 57.0463 76.1621C56.9848 76.0699 57.0078 75.9545 57.1001 75.893L74.735 63.9723C74.8273 63.9108 74.9427 63.9339 75.0042 64.0262C75.0657 64.1185 75.0426 64.2338 74.9503 64.2953L57.3155 76.216C57.2847 76.2391 57.2463 76.2467 57.2078 76.2467Z" fill="black"></path><path d="M64.4295 76.7004C64.368 76.7004 64.3064 76.6697 64.268 76.6158C64.2065 76.5236 64.2295 76.4082 64.3218 76.3467C67.2212 74.3855 70.2206 72.4859 73.2354 70.694C73.3277 70.6401 73.4507 70.6709 73.5046 70.7632C73.5584 70.8555 73.5276 70.9785 73.4353 71.0324C70.4283 72.8166 67.4366 74.7162 64.5448 76.6774C64.5064 76.6927 64.4679 76.7004 64.4295 76.7004Z" fill="black"></path><path d="M71.3973 76.9544C71.3281 76.9544 71.2666 76.9237 71.2282 76.8621C71.1743 76.7698 71.2051 76.6468 71.2974 76.593L73.8968 75.0394C73.9891 74.9856 74.1122 75.0164 74.166 75.1086C74.2198 75.2009 74.1891 75.324 74.0968 75.3778L71.4973 76.9314C71.4666 76.9467 71.4358 76.9544 71.3973 76.9544Z" fill="black"></path><g opacity="0.1294"><path d="M74.4273 76.4388C74.4581 77.354 74.112 78.3538 74.4735 79.2228C74.5504 79.4382 74.6657 79.6228 74.8118 79.7766C75.5655 79.6997 76.3192 79.6535 77.0729 79.6381C77.2575 79.6381 77.4344 79.6381 77.619 79.6381C78.065 79.1152 77.9574 78.5153 78.0573 77.9692C78.1419 76.7541 78.165 75.539 78.0881 74.3315C77.842 69.2633 77.965 64.1874 77.8497 59.1192C77.742 55.42 77.3882 51.7284 77.4421 48.0292C77.4267 44.1992 77.7036 40.3692 77.6959 36.5392C77.6651 33.8167 77.3344 32.1478 77.2883 30.0175C77.2883 29.1561 77.3267 28.2871 77.3575 27.4257C77.3575 27.1258 77.2344 26.8412 77.0268 26.6259C76.3654 25.926 75.0656 26.449 75.1041 27.4257C74.8964 31.0557 74.7811 34.6935 74.6657 38.3235C74.4119 42.2842 74.1428 46.2449 74.1197 50.2057C74.1043 58.95 74.6965 67.6944 74.4273 76.4388Z" fill="black"></path></g><path d="M75.3118 79.7922C66.8443 79.7922 59.0766 79.6614 51.6397 79.3922C51.3244 79.3845 51.0783 79.1231 51.0783 78.8154C50.8937 61.865 50.6937 44.3455 50.9398 27.2952C46.9791 26.9875 42.9876 27.1567 39.0653 27.8104C38.8192 27.8489 38.5654 27.7258 38.4501 27.5028C38.3347 27.2798 38.3732 27.0029 38.5577 26.8183C47.3559 18.0048 56.4695 8.89892 65.9522 0.154545C66.1829 -0.0531049 66.5367 -0.0531049 66.7597 0.162236C75.2349 8.39902 83.2256 17.2203 90.501 26.3723C90.6471 26.5492 90.6702 26.7953 90.5625 27.0029C90.4549 27.2106 90.2472 27.3259 90.0165 27.3259C85.1329 27.1106 81.2106 27.026 77.3806 27.0568C77.7882 43.9764 78.2112 61.4651 78.6188 79.1923C78.6188 79.3461 78.565 79.4999 78.4496 79.6153C78.3419 79.7306 78.1881 79.7922 78.0343 79.7922C77.1191 79.7922 76.2116 79.7922 75.3118 79.7922ZM52.2396 78.2463C60.1149 78.5232 68.367 78.6385 77.4267 78.6232C77.0191 60.896 76.5961 43.4073 76.1885 26.4953C76.1885 26.3415 76.2424 26.1877 76.35 26.0723C76.4577 25.957 76.6115 25.8954 76.7653 25.8954C80.4646 25.857 84.21 25.9185 88.7706 26.1108C81.8566 17.4972 74.3197 9.19116 66.3367 1.40044C57.4616 9.59108 48.9172 18.1124 40.6342 26.3953C44.2643 25.9262 47.9327 25.8493 51.5782 26.18C51.8858 26.2108 52.1165 26.4646 52.1088 26.7722C51.8627 43.7918 52.055 61.2959 52.2396 78.2463Z" fill="black"></path><path d="M34.3124 25.165C34.1817 25.165 34.051 25.1189 33.9433 25.0343C33.6972 24.8266 33.6587 24.4575 33.8664 24.2113L48.8787 6.04582C49.0864 5.79972 49.4555 5.76127 49.7016 5.96892C49.9477 6.17657 49.9862 6.54572 49.7785 6.79183L34.7585 24.9574C34.6431 25.0958 34.4816 25.165 34.3124 25.165Z" fill="black"></path><path d="M47.5021 23.8575C47.4483 23.8575 47.3944 23.8344 47.356 23.796C47.2791 23.719 47.2868 23.596 47.3637 23.5191L67.4826 4.76907C67.5596 4.69216 67.6826 4.69985 67.7595 4.77676C67.8364 4.85367 67.8287 4.97672 67.7518 5.05362L47.6328 23.8036C47.5944 23.8421 47.5482 23.8575 47.5021 23.8575Z" fill="black"></path><path d="M52.8547 24.1806C52.8009 24.1806 52.747 24.1576 52.7086 24.1114C52.6394 24.0268 52.6471 23.9038 52.724 23.8346C58.4689 18.7587 64.3677 13.6828 70.2512 8.7684C70.3358 8.69918 70.4588 8.70688 70.528 8.79147C70.5972 8.87607 70.5895 8.99912 70.5049 9.06834C64.6215 13.9827 58.7304 19.0509 52.9931 24.1268C52.947 24.1653 52.9008 24.1806 52.8547 24.1806Z" fill="black"></path><path d="M53.9087 29.241C53.8548 29.241 53.801 29.2179 53.7625 29.1718C53.6933 29.0872 53.701 28.9641 53.7856 28.8949L73.2278 12.2752C73.3124 12.206 73.4355 12.2137 73.5047 12.2983C73.5739 12.3829 73.5662 12.506 73.4816 12.5752L54.0317 29.1949C53.9933 29.2256 53.9548 29.241 53.9087 29.241Z" fill="black"></path><path d="M53.1935 35.6706C53.1397 35.6706 53.0858 35.6476 53.0474 35.6091C52.9705 35.5322 52.9782 35.4091 53.0551 35.3322C60.4843 28.426 68.252 21.7042 76.1581 15.3517C76.2427 15.2825 76.3657 15.2979 76.4349 15.3825C76.5041 15.4671 76.4888 15.5901 76.4042 15.6593C68.5058 22.0042 60.7458 28.7259 53.3243 35.6168C53.2858 35.6553 53.2397 35.6706 53.1935 35.6706Z" fill="black"></path><path d="M53.6394 40.8154C53.5856 40.8154 53.5395 40.7923 53.501 40.7539C53.4241 40.677 53.4318 40.5539 53.5087 40.477C61.6609 32.6478 70.4437 25.3339 79.6187 18.7276C79.7033 18.6661 79.8264 18.6814 79.8879 18.7737C79.9495 18.8583 79.9341 18.9814 79.8418 19.0429C70.6821 25.6416 61.907 32.9478 53.7702 40.7616C53.7317 40.8 53.6856 40.8154 53.6394 40.8154Z" fill="black"></path><path d="M53.1548 46.3834C53.1009 46.3834 53.0471 46.3603 53.0086 46.3219C52.9394 46.245 52.9394 46.1219 53.024 46.045C59.638 39.9924 66.5674 34.1244 73.6198 28.6024C73.7044 28.5332 73.8275 28.5486 73.8967 28.6332C73.9659 28.7178 73.9505 28.8408 73.8659 28.9101C66.8212 34.4243 59.8995 40.2847 53.2932 46.3296C53.247 46.368 53.2009 46.3834 53.1548 46.3834Z" fill="black"></path><path d="M79.1727 24.3881C79.1111 24.3881 79.0496 24.3573 79.0188 24.3112C78.9573 24.2266 78.9727 24.1035 79.065 24.042L82.5028 21.5272C82.5873 21.4656 82.7104 21.481 82.7719 21.5733C82.8335 21.6579 82.8181 21.7809 82.7258 21.8425L79.288 24.3573C79.2496 24.3804 79.2111 24.3881 79.1727 24.3881Z" fill="black"></path><path d="M53.6088 50.7828C53.555 50.7828 53.5011 50.7597 53.4627 50.7212C53.3858 50.6443 53.3935 50.5213 53.4704 50.4444C60.1536 44.2379 67.2675 38.3392 74.5968 32.9095C74.6814 32.848 74.8045 32.8633 74.8737 32.9479C74.9352 33.0325 74.9198 33.1556 74.8352 33.2248C67.5137 38.6468 60.4151 44.5302 53.7395 50.7289C53.7088 50.7597 53.6549 50.7828 53.6088 50.7828Z" fill="black"></path><path d="M53.6854 55.8969C53.6316 55.8969 53.5701 55.8739 53.5316 55.8277C53.4624 55.7431 53.4778 55.6201 53.5624 55.5509L74.0044 38.9696C74.089 38.9004 74.212 38.9158 74.2812 39.0004C74.3505 39.085 74.3351 39.208 74.2505 39.2772L53.8085 55.8508C53.77 55.8816 53.7239 55.8969 53.6854 55.8969Z" fill="black"></path><path d="M54.393 60.796C54.3392 60.796 54.2854 60.7729 54.2469 60.7268C54.1777 60.6422 54.1854 60.5191 54.27 60.4499C60.7225 55.051 67.4135 49.7598 74.1582 44.7301C74.2428 44.6685 74.3659 44.6839 74.4351 44.7685C74.4966 44.8531 74.4813 44.9762 74.3967 45.0454C67.6596 50.0751 60.9763 55.3587 54.5315 60.7576C54.4853 60.7806 54.4392 60.796 54.393 60.796Z" fill="black"></path><path d="M54.324 66.4104C54.2702 66.4104 54.2086 66.3874 54.1702 66.3412C54.101 66.2566 54.1163 66.1336 54.1933 66.0643C60.9457 60.4732 67.8981 54.9512 74.866 49.6523C74.9506 49.5831 75.0736 49.6062 75.1428 49.6908C75.212 49.7754 75.189 49.8984 75.1044 49.9676C68.1443 55.2665 61.1918 60.7885 54.447 66.372C54.4086 66.395 54.3624 66.4104 54.324 66.4104Z" fill="black"></path><path d="M54.2238 72.9243C54.17 72.9243 54.1162 72.9012 54.0777 72.8551C54.0085 72.7705 54.0162 72.6474 54.0931 72.5782C60.5918 66.8563 67.5673 61.5497 74.812 56.7968C74.9042 56.7353 75.0196 56.7583 75.0811 56.8506C75.1427 56.9429 75.1119 57.0583 75.0273 57.1198C67.798 61.8573 60.8456 67.1562 54.3546 72.8627C54.3161 72.9089 54.27 72.9243 54.2238 72.9243Z" fill="black"></path><path d="M57.2078 76.2467C57.1463 76.2467 57.0848 76.216 57.0463 76.1621C56.9848 76.0699 57.0078 75.9545 57.1001 75.893L74.735 63.9723C74.8273 63.9108 74.9427 63.9339 75.0042 64.0262C75.0657 64.1185 75.0426 64.2338 74.9503 64.2953L57.3155 76.216C57.2847 76.2391 57.2463 76.2467 57.2078 76.2467Z" fill="black"></path><path d="M64.4295 76.7004C64.368 76.7004 64.3064 76.6697 64.268 76.6158C64.2065 76.5236 64.2295 76.4082 64.3218 76.3467C67.2212 74.3855 70.2206 72.4859 73.2354 70.694C73.3277 70.6401 73.4507 70.6709 73.5046 70.7632C73.5584 70.8555 73.5276 70.9785 73.4353 71.0324C70.4283 72.8166 67.4366 74.7162 64.5448 76.6774C64.5064 76.6927 64.4679 76.7004 64.4295 76.7004Z" fill="black"></path><path d="M71.3973 76.9544C71.3281 76.9544 71.2666 76.9237 71.2282 76.8621C71.1743 76.7698 71.2051 76.6468 71.2974 76.593L73.8968 75.0394C73.9891 74.9856 74.1122 75.0164 74.166 75.1086C74.2198 75.2009 74.1891 75.324 74.0968 75.3778L71.4973 76.9314C71.4666 76.9467 71.4358 76.9544 71.3973 76.9544Z" fill="black"></path><g opacity="0.1294"><path d="M74.4273 76.4388C74.4581 77.354 74.112 78.3538 74.4735 79.2228C74.5504 79.4382 74.6657 79.6228 74.8118 79.7766C75.5655 79.6997 76.3192 79.6535 77.0729 79.6381C77.2575 79.6381 77.4344 79.6381 77.619 79.6381C78.065 79.1152 77.9574 78.5153 78.0573 77.9692C78.1419 76.7541 78.165 75.539 78.0881 74.3315C77.842 69.2633 77.965 64.1874 77.8497 59.1192C77.742 55.42 77.3882 51.7284 77.4421 48.0292C77.4267 44.1992 77.7036 40.3692 77.6959 36.5392C77.6651 33.8167 77.3344 32.1478 77.2883 30.0175C77.2883 29.1561 77.3267 28.2871 77.3575 27.4257C77.3575 27.1258 77.2344 26.8412 77.0268 26.6259C76.3654 25.926 75.0656 26.449 75.1041 27.4257C74.8964 31.0557 74.7811 34.6935 74.6657 38.3235C74.4119 42.2842 74.1428 46.2449 74.1197 50.2057C74.1043 58.95 74.6965 67.6944 74.4273 76.4388Z" fill="black"></path></g><path d="M75.3118 79.7922C66.8443 79.7922 59.0766 79.6614 51.6397 79.3922C51.3244 79.3845 51.0783 79.1231 51.0783 78.8154C50.8937 61.865 50.6937 44.3455 50.9398 27.2952C46.9791 26.9875 42.9876 27.1567 39.0653 27.8104C38.8192 27.8489 38.5654 27.7258 38.4501 27.5028C38.3347 27.2798 38.3732 27.0029 38.5577 26.8183C47.3559 18.0048 56.4695 8.89892 65.9522 0.154545C66.1829 -0.0531049 66.5367 -0.0531049 66.7597 0.162236C75.2349 8.39902 83.2256 17.2203 90.501 26.3723C90.6471 26.5492 90.6702 26.7953 90.5625 27.0029C90.4549 27.2106 90.2472 27.3259 90.0165 27.3259C85.1329 27.1106 81.2106 27.026 77.3806 27.0568C77.7882 43.9764 78.2112 61.4651 78.6188 79.1923C78.6188 79.3461 78.565 79.4999 78.4496 79.6153C78.3419 79.7306 78.1881 79.7922 78.0343 79.7922C77.1191 79.7922 76.2116 79.7922 75.3118 79.7922ZM52.2396 78.2463C60.1149 78.5232 68.367 78.6385 77.4267 78.6232C77.0191 60.896 76.5961 43.4073 76.1885 26.4953C76.1885 26.3415 76.2424 26.1877 76.35 26.0723C76.4577 25.957 76.6115 25.8954 76.7653 25.8954C80.4646 25.857 84.21 25.9185 88.7706 26.1108C81.8566 17.4972 74.3197 9.19116 66.3367 1.40044C57.4616 9.59108 48.9172 18.1124 40.6342 26.3953C44.2643 25.9262 47.9327 25.8493 51.5782 26.18C51.8858 26.2108 52.1165 26.4646 52.1088 26.7722C51.8627 43.7918 52.055 61.2959 52.2396 78.2463Z" fill="black"></path><path d="M34.3124 25.165C34.1817 25.165 34.051 25.1189 33.9433 25.0343C33.6972 24.8266 33.6587 24.4575 33.8664 24.2113L48.8787 6.04582C49.0864 5.79972 49.4555 5.76127 49.7016 5.96892C49.9477 6.17657 49.9862 6.54572 49.7785 6.79183L34.7585 24.9574C34.6431 25.0958 34.4816 25.165 34.3124 25.165Z" fill="black"></path><path d="M28.429 22.3807C28.306 22.3807 28.1752 22.3423 28.0676 22.2577C27.8138 22.0577 27.7676 21.6885 27.9676 21.4347L35.0892 12.3058C35.2892 12.052 35.6583 12.0059 35.9121 12.2059C36.1659 12.4058 36.212 12.775 36.0121 13.0288L28.8905 22.15C28.7751 22.3038 28.5982 22.3807 28.429 22.3807Z" fill="black"></path><path d="M97.8997 78.8155L98.4227 44.3687L89.9937 44.0457L111.105 22.4116L129.993 43.9765L121.756 44.1764L120.78 78.9462L97.8997 78.8155Z" fill="white"></path><g opacity="0.1294"><path d="M121.918 51.9364C121.918 51.9056 121.918 51.8825 121.918 51.8518C121.895 49.6061 121.787 47.3604 121.695 45.1147C121.679 44.7455 121.895 44.5148 122.164 44.4302C122.164 44.2533 122.156 44.0764 122.156 43.8996C122.156 43.7996 122.179 43.7073 122.218 43.6304C122.187 43.5689 122.156 43.5073 122.11 43.4458C122.072 43.4458 122.025 43.4458 121.987 43.4458C121.795 43.4535 121.802 43.4535 121.602 43.5073C121.556 43.5227 121.51 43.5304 121.464 43.5458C121.51 43.5227 121.51 43.5227 121.472 43.5381C121.41 43.5612 121.349 43.5919 121.287 43.6227C121.126 43.6919 120.956 43.7611 120.787 43.815C120.772 43.8226 120.749 43.8226 120.733 43.8303C120.418 44.1226 120.149 44.4533 119.918 44.7994C119.511 47.7219 119.118 52.4209 118.665 57.1122C118.38 59.0042 118.326 59.8732 118.118 62.9803C117.765 66.6103 117.565 70.248 117.68 73.8934C117.726 74.7625 117.734 75.6315 117.711 76.4929C117.665 76.6006 117.626 76.7159 117.596 76.8313C117.565 76.9159 117.534 76.9928 117.511 77.0851C116.903 79.4308 119.664 80.8689 121.241 79.4154C121.21 78.9155 121.187 78.4233 121.149 77.9234C121.056 76.6006 120.956 75.2701 120.856 73.9473C120.826 73.5858 121.156 73.2705 121.495 73.2167C121.456 71.3709 121.525 69.5328 121.495 67.687C121.456 65.3875 121.349 63.088 121.572 60.7961C121.687 59.6271 121.587 58.4658 121.579 57.2968C121.687 55.5203 121.802 53.7283 121.918 51.9364Z" fill="black"></path></g><path d="M120.764 79.8922C120.756 79.8922 120.756 79.8922 120.749 79.8922C117.357 79.823 113.289 79.746 109.213 79.6691C105.137 79.5922 101.06 79.5153 97.6688 79.4461C97.515 79.4461 97.3612 79.3769 97.2535 79.2615C97.1459 79.1462 97.0843 78.9924 97.092 78.8385C97.4919 66.8717 97.6842 55.7048 97.6842 44.707C97.6765 44.707 97.6688 44.707 97.6534 44.707C94.7771 44.707 92.1776 44.5686 89.732 44.284C89.5089 44.261 89.3167 44.1072 89.2475 43.8918C89.1706 43.6765 89.2321 43.4457 89.3859 43.2842C96.3922 36.3472 103.629 29.1717 110.72 21.8502C110.835 21.7271 110.997 21.6579 111.158 21.6733C111.328 21.681 111.481 21.7579 111.589 21.8809C114.035 24.8034 116.834 27.9874 119.803 31.3636C123.294 35.3397 126.909 39.4466 130.616 43.8764C130.762 44.0533 130.793 44.2994 130.693 44.5071C130.593 44.707 130.393 44.8378 130.162 44.8378C130.155 44.8378 130.147 44.8378 130.147 44.8378C129.224 44.807 128.155 44.7916 127.078 44.7686C125.156 44.7301 123.171 44.6916 121.948 44.607C121.441 55.8048 121.341 66.218 121.341 79.3C121.341 79.4538 121.279 79.6076 121.164 79.7153C121.064 79.8306 120.918 79.8922 120.764 79.8922ZM98.2918 78.2848C101.56 78.354 105.398 78.4232 109.236 78.4925C113.073 78.5617 116.911 78.6386 120.18 78.7001C120.18 65.6489 120.295 55.228 120.818 43.9456C120.826 43.7841 120.903 43.6303 121.026 43.5303C121.149 43.4227 121.31 43.3765 121.472 43.3919C122.495 43.4996 124.84 43.5534 127.117 43.5996C127.724 43.6149 128.324 43.6226 128.901 43.638C125.494 39.5927 122.164 35.8088 118.941 32.1404C116.134 28.9487 113.481 25.9262 111.128 23.1345C104.46 29.9946 97.6765 36.724 91.0932 43.2458C93.3159 43.4534 95.6769 43.5457 98.2687 43.5303C98.4225 43.5303 98.5686 43.5919 98.684 43.6995C98.7917 43.8072 98.8609 43.961 98.8609 44.1148C98.8686 55.1357 98.684 66.318 98.2918 78.2848Z" fill="black"></path><path d="M134.507 40.6846C134.331 40.6846 134.154 40.6077 134.038 40.4539L126.648 30.7559C126.448 30.5021 126.501 30.1329 126.755 29.933C127.009 29.733 127.378 29.7868 127.578 30.0406L134.977 39.7386C135.169 39.9924 135.123 40.3616 134.869 40.5616C134.754 40.6462 134.631 40.6846 134.507 40.6846Z" fill="black"></path><g opacity="0.1294"><path d="M121.918 51.9364C121.918 51.9056 121.918 51.8825 121.918 51.8518C121.895 49.6061 121.787 47.3604 121.695 45.1147C121.679 44.7455 121.895 44.5148 122.164 44.4302C122.164 44.2533 122.156 44.0764 122.156 43.8996C122.156 43.7996 122.179 43.7073 122.218 43.6304C122.187 43.5689 122.156 43.5073 122.11 43.4458C122.072 43.4458 122.025 43.4458 121.987 43.4458C121.795 43.4535 121.802 43.4535 121.602 43.5073C121.556 43.5227 121.51 43.5304 121.464 43.5458C121.51 43.5227 121.51 43.5227 121.472 43.5381C121.41 43.5612 121.349 43.5919 121.287 43.6227C121.126 43.6919 120.956 43.7611 120.787 43.815C120.772 43.8226 120.749 43.8226 120.733 43.8303C120.418 44.1226 120.149 44.4533 119.918 44.7994C119.511 47.7219 119.118 52.4209 118.665 57.1122C118.38 59.0042 118.326 59.8732 118.118 62.9803C117.765 66.6103 117.565 70.248 117.68 73.8934C117.726 74.7625 117.734 75.6315 117.711 76.4929C117.665 76.6006 117.626 76.7159 117.596 76.8313C117.565 76.9159 117.534 76.9928 117.511 77.0851C116.903 79.4308 119.664 80.8689 121.241 79.4154C121.21 78.9155 121.187 78.4233 121.149 77.9234C121.056 76.6006 120.956 75.2701 120.856 73.9473C120.826 73.5858 121.156 73.2705 121.495 73.2167C121.456 71.3709 121.525 69.5328 121.495 67.687C121.456 65.3875 121.349 63.088 121.572 60.7961C121.687 59.6271 121.587 58.4658 121.579 57.2968C121.687 55.5203 121.802 53.7283 121.918 51.9364Z" fill="black"></path></g><path d="M120.764 79.8922C120.756 79.8922 120.756 79.8922 120.749 79.8922C117.357 79.823 113.289 79.746 109.213 79.6691C105.137 79.5922 101.06 79.5153 97.6688 79.4461C97.515 79.4461 97.3612 79.3769 97.2535 79.2615C97.1459 79.1462 97.0843 78.9924 97.092 78.8385C97.4919 66.8717 97.6842 55.7048 97.6842 44.707C97.6765 44.707 97.6688 44.707 97.6534 44.707C94.7771 44.707 92.1776 44.5686 89.732 44.284C89.5089 44.261 89.3167 44.1072 89.2475 43.8918C89.1706 43.6765 89.2321 43.4457 89.3859 43.2842C96.3922 36.3472 103.629 29.1717 110.72 21.8502C110.835 21.7271 110.997 21.6579 111.158 21.6733C111.328 21.681 111.481 21.7579 111.589 21.8809C114.035 24.8034 116.834 27.9874 119.803 31.3636C123.294 35.3397 126.909 39.4466 130.616 43.8764C130.762 44.0533 130.793 44.2994 130.693 44.5071C130.593 44.707 130.393 44.8378 130.162 44.8378C130.155 44.8378 130.147 44.8378 130.147 44.8378C129.224 44.807 128.155 44.7916 127.078 44.7686C125.156 44.7301 123.171 44.6916 121.948 44.607C121.441 55.8048 121.341 66.218 121.341 79.3C121.341 79.4538 121.279 79.6076 121.164 79.7153C121.064 79.8306 120.918 79.8922 120.764 79.8922ZM98.2918 78.2848C101.56 78.354 105.398 78.4232 109.236 78.4925C113.073 78.5617 116.911 78.6386 120.18 78.7001C120.18 65.6489 120.295 55.228 120.818 43.9456C120.826 43.7841 120.903 43.6303 121.026 43.5303C121.149 43.4227 121.31 43.3765 121.472 43.3919C122.495 43.4996 124.84 43.5534 127.117 43.5996C127.724 43.6149 128.324 43.6226 128.901 43.638C125.494 39.5927 122.164 35.8088 118.941 32.1404C116.134 28.9487 113.481 25.9262 111.128 23.1345C104.46 29.9946 97.6765 36.724 91.0932 43.2458C93.3159 43.4534 95.6769 43.5457 98.2687 43.5303C98.4225 43.5303 98.5686 43.5919 98.684 43.6995C98.7917 43.8072 98.8609 43.961 98.8609 44.1148C98.8686 55.1357 98.684 66.318 98.2918 78.2848Z" fill="black"></path><path d="M134.507 40.6846C134.331 40.6846 134.154 40.6077 134.038 40.4539L126.648 30.7559C126.448 30.5021 126.501 30.1329 126.755 29.933C127.009 29.733 127.378 29.7868 127.578 30.0406L134.977 39.7386C135.169 39.9924 135.123 40.3616 134.869 40.5616C134.754 40.6462 134.631 40.6846 134.507 40.6846Z" fill="black"></path><path d="M11.9476 79.0691C12.9859 72.0244 13.5858 64.9105 13.7396 57.4428C10.1711 57.3351 6.59487 57.4428 3.04175 57.7658C10.1557 52.1669 16.7697 45.9297 22.7685 39.0081C28.1443 45.699 33.6278 52.4976 40.5879 57.312C37.1656 57.3658 33.7432 57.4966 30.39 57.6581C30.2977 64.8413 30.6131 72.0244 31.2437 79.2306C29.3672 79.3229 27.4829 79.3152 25.5987 79.3075C24.1067 79.2998 22.6224 79.2921 21.1304 79.2845C18.1002 79.2614 15.0624 79.246 11.9476 79.0691Z" fill="#FFB217"></path><g opacity="0.1294"><path d="M31.4747 76.2005C31.3747 74.6701 31.2747 73.1396 31.2132 71.6092C31.144 68.7867 30.9287 65.9641 30.8671 63.1416C30.8518 62.0265 30.8364 60.919 30.9056 59.8039C30.8902 59.1348 31.1671 58.3965 30.8979 57.7658C30.3749 56.3892 28.2523 56.8276 28.2677 58.2965C27.8293 62.0803 27.7062 62.5879 27.1679 66.7178C26.9679 69.648 27.0679 72.5859 27.2986 75.5007C27.5447 77.308 27.4063 77.7848 27.7139 78.4693C28.1754 79.8152 30.1211 80.1613 31.0748 79.1384C31.9054 78.3386 31.667 77.2157 31.4747 76.2005Z" fill="black"></path></g><path d="M27.3063 79.892C26.7295 79.892 26.1604 79.892 25.5913 79.8843L21.123 79.8612C18.1313 79.8458 15.0396 79.8304 11.9095 79.6536C11.748 79.6459 11.5941 79.569 11.4865 79.4382C11.3865 79.3075 11.3404 79.146 11.3634 78.9845C12.3863 72.0551 12.9631 65.195 13.1323 58.0118C9.78682 57.9349 6.41059 58.0426 3.08819 58.3502C2.83439 58.3733 2.58829 58.2272 2.48831 57.9811C2.38833 57.7426 2.46524 57.4658 2.67289 57.3043C9.8868 51.6208 16.4931 45.3375 22.315 38.6158C22.4304 38.485 22.5996 38.4081 22.7688 38.4158C22.9457 38.4158 23.1072 38.5004 23.2149 38.6312C28.4984 45.2067 33.9588 52.013 40.9112 56.8197C41.1189 56.9659 41.2112 57.2274 41.142 57.4735C41.0651 57.7196 40.842 57.8888 40.5882 57.8888C37.6965 57.9349 34.6279 58.0349 30.9594 58.2118C30.8979 64.9027 31.1825 71.9551 31.8208 79.1767C31.8362 79.3382 31.7823 79.4921 31.6824 79.6151C31.5747 79.7382 31.4286 79.8074 31.2671 79.8151C29.9519 79.8766 28.6214 79.892 27.3063 79.892ZM12.617 78.5153C15.501 78.6614 18.3543 78.6691 21.1307 78.6845L25.599 78.7076C27.2448 78.7153 28.9291 78.723 30.6057 78.6614C29.9904 71.4168 29.7212 64.3413 29.7981 57.635C29.8058 57.3273 30.0442 57.0735 30.3596 57.0582C33.5358 56.9043 36.2737 56.8044 38.8194 56.7505C32.5976 52.0823 27.5832 45.9297 22.7457 39.9078C17.4007 46.0143 11.4019 51.7592 4.9032 57.0197C7.84876 56.8121 10.8097 56.7582 13.7552 56.8505C14.0783 56.8582 14.3321 57.1274 14.3244 57.4504C14.1782 64.672 13.6168 71.5706 12.617 78.5153Z" fill="black"></path><path d="M0.58853 53.5127C0.434715 53.5127 0.273209 53.4512 0.157848 53.3281C-0.0651831 53.0897 -0.0498016 52.7206 0.188611 52.4975C3.24183 49.6674 6.18739 46.6449 8.92529 43.5071C9.14063 43.261 9.50979 43.2379 9.7482 43.4532C9.9943 43.6686 10.0174 44.0377 9.80203 44.2761C7.03337 47.4447 4.06474 50.4979 0.980757 53.3589C0.873087 53.4666 0.734654 53.5127 0.58853 53.5127Z" fill="black"></path><path d="M11.9476 79.0691C12.9859 72.0244 13.5858 64.9105 13.7396 57.4428C10.1711 57.3351 6.59487 57.4428 3.04175 57.7658C10.1557 52.1669 16.7697 45.9297 22.7685 39.0081C28.1443 45.699 33.6278 52.4976 40.5879 57.312C37.1656 57.3658 33.7432 57.4966 30.39 57.6581C30.2977 64.8413 30.6131 72.0244 31.2437 79.2306C29.3672 79.3229 27.4829 79.3152 25.5987 79.3075C24.1067 79.2998 22.6224 79.2921 21.1304 79.2845C18.1002 79.2614 15.0624 79.246 11.9476 79.0691Z" fill="#FFB217"></path><g opacity="0.1294"><path d="M31.4747 76.2005C31.3747 74.6701 31.2747 73.1396 31.2132 71.6092C31.144 68.7867 30.9287 65.9641 30.8671 63.1416C30.8518 62.0265 30.8364 60.919 30.9056 59.8039C30.8902 59.1348 31.1671 58.3965 30.8979 57.7658C30.3749 56.3892 28.2523 56.8276 28.2677 58.2965C27.8293 62.0803 27.7062 62.5879 27.1679 66.7178C26.9679 69.648 27.0679 72.5859 27.2986 75.5007C27.5447 77.308 27.4063 77.7848 27.7139 78.4693C28.1754 79.8152 30.1211 80.1613 31.0748 79.1384C31.9054 78.3386 31.667 77.2157 31.4747 76.2005Z" fill="black"></path></g><path d="M27.3063 79.892C26.7295 79.892 26.1604 79.892 25.5913 79.8843L21.123 79.8612C18.1313 79.8458 15.0396 79.8304 11.9095 79.6536C11.748 79.6459 11.5941 79.569 11.4865 79.4382C11.3865 79.3075 11.3404 79.146 11.3634 78.9845C12.3863 72.0551 12.9631 65.195 13.1323 58.0118C9.78682 57.9349 6.41059 58.0426 3.08819 58.3502C2.83439 58.3733 2.58829 58.2272 2.48831 57.9811C2.38833 57.7426 2.46524 57.4658 2.67289 57.3043C9.8868 51.6208 16.4931 45.3375 22.315 38.6158C22.4304 38.485 22.5996 38.4081 22.7688 38.4158C22.9457 38.4158 23.1072 38.5004 23.2149 38.6312C28.4984 45.2067 33.9588 52.013 40.9112 56.8197C41.1189 56.9659 41.2112 57.2274 41.142 57.4735C41.0651 57.7196 40.842 57.8888 40.5882 57.8888C37.6965 57.9349 34.6279 58.0349 30.9594 58.2118C30.8979 64.9027 31.1825 71.9551 31.8208 79.1767C31.8362 79.3382 31.7823 79.4921 31.6824 79.6151C31.5747 79.7382 31.4286 79.8074 31.2671 79.8151C29.9519 79.8766 28.6214 79.892 27.3063 79.892ZM12.617 78.5153C15.501 78.6614 18.3543 78.6691 21.1307 78.6845L25.599 78.7076C27.2448 78.7153 28.9291 78.723 30.6057 78.6614C29.9904 71.4168 29.7212 64.3413 29.7981 57.635C29.8058 57.3273 30.0442 57.0735 30.3596 57.0582C33.5358 56.9043 36.2737 56.8044 38.8194 56.7505C32.5976 52.0823 27.5832 45.9297 22.7457 39.9078C17.4007 46.0143 11.4019 51.7592 4.9032 57.0197C7.84876 56.8121 10.8097 56.7582 13.7552 56.8505C14.0783 56.8582 14.3321 57.1274 14.3244 57.4504C14.1782 64.672 13.6168 71.5706 12.617 78.5153Z" fill="black"></path><path d="M0.58853 53.5127C0.434715 53.5127 0.273209 53.4512 0.157848 53.3281C-0.0651831 53.0897 -0.0498016 52.7206 0.188611 52.4975C3.24183 49.6674 6.18739 46.6449 8.92529 43.5071C9.14063 43.261 9.50979 43.2379 9.7482 43.4532C9.9943 43.6686 10.0174 44.0377 9.80203 44.2761C7.03337 47.4447 4.06474 50.4979 0.980757 53.3589C0.873087 53.4666 0.734654 53.5127 0.58853 53.5127Z" fill="black"></path></svg>