<svg xmlns="http://www.w3.org/2000/svg" width="79" height="75" viewBox="0 0 79 75" fill="none"><path d="M65.6977 24.9097C62.4964 16.8762 51.8742 4.69238 34.1219 4.69238C14.9994 4.69238 1.67312 18.6965 0.678795 35.6858C-0.739931 60.1141 17.3397 73.8391 34.1219 73.8391C45.5809 73.8391 56.5426 68.1355 62.7875 58.5365C69.0444 48.9375 69.105 33.4651 65.6977 24.9097Z" fill="white"></path><path d="M34.122 74.4457C24.9306 74.4457 15.9696 70.5382 9.54291 63.7182C4.77745 58.6699 -0.727695 49.6898 0.0847381 35.6615C0.581898 27.094 4.17115 19.1818 10.1856 13.3933C16.4183 7.39845 24.9185 4.09766 34.122 4.09766C53.0626 4.09766 63.4302 17.5678 66.2556 24.6912C69.7721 33.5378 69.6387 49.1195 63.2969 58.8641C57.0399 68.4752 45.8599 74.4457 34.122 74.4457ZM34.122 5.29905C16.1151 5.29905 2.30377 18.1017 1.2852 35.7343C0.484891 49.3379 5.80815 58.0146 10.416 62.893C16.6123 69.4703 25.258 73.2443 34.122 73.2443C45.4597 73.2443 56.2517 67.4801 62.2904 58.2088C68.2321 49.0831 68.5716 33.732 65.14 25.1402C62.4117 18.2716 52.4078 5.29905 34.122 5.29905Z" fill="black"></path><path d="M66.3524 22.1908C70.2084 18.7444 74.2342 15.4922 78.3934 12.4219C74.8405 11.9487 71.3725 11.6938 67.9045 11.4997C68.7897 8.01685 69.4445 4.57044 70.0993 1.12402C66.0735 3.87873 62.6298 6.63343 58.2038 10.3347C57.6096 13.4777 56.8093 16.8028 56.9549 20.2977C59.7196 21.2321 63.3694 21.3899 66.3524 22.1908Z" fill="white"></path><path d="M66.3526 22.798C66.3041 22.798 66.2434 22.7859 66.1949 22.7737C64.8853 22.4218 63.406 22.1912 61.963 21.9607C60.1805 21.6816 58.3252 21.3903 56.761 20.8564C56.5306 20.7714 56.3609 20.5651 56.3487 20.3103C56.2153 17.2401 56.7853 14.3519 57.3431 11.5608C57.4279 11.1118 57.5249 10.6628 57.6098 10.2138C57.6341 10.0803 57.7068 9.95891 57.816 9.86183C62.3147 6.11203 65.7099 3.39374 69.7599 0.626898C69.9661 0.49341 70.2207 0.481275 70.4269 0.614763C70.633 0.74825 70.73 0.990956 70.6936 1.23366C70.0873 4.4131 69.4689 7.67748 68.6686 10.9419C71.5909 11.1118 74.9741 11.3666 78.4663 11.8277C78.7088 11.8641 78.9028 12.034 78.9635 12.2767C79.0241 12.5195 78.9392 12.7622 78.7331 12.9078C74.5982 15.9416 70.5602 19.2181 66.7285 22.6403C66.6436 22.7495 66.4981 22.798 66.3526 22.798ZM57.5492 19.8491C58.9437 20.2739 60.5685 20.5287 62.157 20.7714C63.5151 20.9777 64.9096 21.1962 66.1949 21.5238C69.6023 18.49 73.1794 15.5775 76.8293 12.835C73.6038 12.4588 70.5239 12.2525 67.8804 12.0947C67.6985 12.0826 67.5409 11.9976 67.4318 11.852C67.3226 11.7064 67.2863 11.5244 67.3348 11.3545C68.0866 8.38133 68.6807 5.38392 69.2385 2.45932C65.7827 4.88637 62.6906 7.3741 58.7497 10.6506C58.6769 11.0268 58.6041 11.4151 58.5314 11.7913C58.0221 14.4004 57.4886 17.0823 57.5492 19.8491Z" fill="black"></path><path d="M39.9547 17.0337C34.3404 15.7717 28.2654 16.609 23.2332 19.3394C18.2009 22.0699 14.2721 26.657 12.429 31.9601C11.2043 35.4793 10.8769 39.2413 11.0224 42.9547C11.2285 48.1 13.9811 53.2696 17.9948 56.5097C22.9543 60.5144 27.7197 62.5167 33.3704 62.8929C41.0218 63.4026 48.7581 59.6164 53.1234 53.4759C57.4766 47.3355 58.4103 39.1078 55.779 32.1057C53.1355 25.1037 47.3151 18.6841 39.9547 17.0337Z" fill="white"></path><path d="M34.7404 63.5356C34.2675 63.5356 33.7946 63.5235 33.3217 63.4871C27.5619 63.1109 22.7237 61.0964 17.6066 56.9704C13.3746 53.5604 10.6221 48.1966 10.4159 42.9663C10.2462 38.6826 10.7191 35.0056 11.8468 31.7412C13.7384 26.3046 17.7763 21.584 22.9298 18.7929C28.0712 16.0018 34.3281 15.1402 40.0637 16.4265C46.9875 17.9799 53.3779 24.0475 56.3245 31.8747C59.0649 39.168 58.0221 47.5777 53.5961 53.8031C49.3521 59.8344 42.0644 63.5356 34.7404 63.5356ZM34.7404 17.0576C30.8359 17.0576 26.9192 18.0163 23.524 19.8608C18.6373 22.5184 14.7934 26.9963 12.9987 32.1417C11.9195 35.2605 11.4709 38.7797 11.6285 42.9178C11.8225 47.8083 14.4053 52.8323 18.3705 56.0239C23.2815 59.98 27.9135 61.9095 33.4066 62.2735C40.7791 62.7589 48.3214 59.1669 52.6261 53.1114C56.8216 47.2016 57.8159 39.2287 55.2089 32.2995C52.3957 24.8363 46.357 19.072 39.809 17.6037C38.1599 17.2517 36.4502 17.0576 34.7404 17.0576Z" fill="black"></path><path d="M37.2626 27.7492C34.2433 27.0818 30.9693 27.5308 28.2531 28.9627C25.549 30.3947 23.427 32.8218 22.4327 35.6129C21.7779 37.4696 21.596 39.4597 21.6809 41.4135C21.79 44.1318 23.2694 46.8501 25.4399 48.5612C28.1076 50.6727 30.6783 51.7285 33.7219 51.9226C37.8446 52.1896 42.0159 50.1994 44.3562 46.9593C46.7087 43.7192 47.2058 39.3869 45.7871 35.6978C44.3684 32.0087 41.2278 28.623 37.2626 27.7492Z" fill="#FFB217"></path><path d="M34.4495 52.5538C34.1949 52.5538 33.9281 52.5416 33.6735 52.5295C30.5207 52.3232 27.8652 51.2432 25.0641 49.0346C22.7238 47.19 21.1959 44.2775 21.0868 41.4379C20.9898 39.1443 21.2566 37.1663 21.875 35.4188C22.9178 32.4821 25.1369 29.9458 27.9743 28.441C30.7996 26.9363 34.2312 26.4751 37.384 27.1668C41.2642 28.0163 44.6959 31.2079 46.345 35.4795C47.8607 39.4113 47.2787 43.9499 44.8414 47.3113C42.489 50.5515 38.4874 52.5538 34.4495 52.5538ZM34.4495 28.0527C32.3881 28.0527 30.3267 28.5502 28.5321 29.4968C25.9614 30.8681 23.9364 33.1616 23.0027 35.8193C22.4328 37.4211 22.1903 39.2535 22.2873 41.3893C22.3843 43.8771 23.7424 46.4497 25.8159 48.088C28.4108 50.1389 30.8603 51.134 33.7583 51.3281C37.6386 51.583 41.6038 49.7263 43.8713 46.6075C46.0782 43.5737 46.5996 39.472 45.2294 35.9163C43.75 32.0695 40.5731 29.0963 37.1415 28.3439C36.2563 28.1498 35.359 28.0527 34.4495 28.0527Z" fill="black"></path><path d="M35.0194 39.2413C34.8497 39.2413 34.692 39.1685 34.5708 39.035C34.3525 38.7923 34.3767 38.4039 34.6193 38.1855C47.412 26.7905 60.8718 15.8445 74.6467 5.66302C74.9135 5.46886 75.2894 5.5174 75.4834 5.78437C75.6774 6.05135 75.6289 6.42754 75.3622 6.62171C61.6114 16.8032 48.176 27.7128 35.4196 39.0835C35.2983 39.1927 35.1528 39.2413 35.0194 39.2413Z" fill="black"></path><path d="M18.1159 53.0391C18.0431 53.0391 17.9704 53.0027 17.934 52.9298C16.1394 49.3742 14.563 45.673 13.2656 41.911C13.2292 41.8018 13.2898 41.6926 13.3868 41.6562C13.4959 41.6198 13.6051 41.6805 13.6415 41.7775C14.9389 45.5152 16.5032 49.2043 18.2857 52.7478C18.3342 52.8449 18.2978 52.9662 18.2008 53.0148C18.1765 53.0269 18.1402 53.0391 18.1159 53.0391Z" fill="black"></path><path d="M24.3365 59.4339C24.2638 59.4339 24.191 59.3975 24.1547 59.3247C20.0561 51.5581 16.576 43.4032 13.787 35.0663C13.7507 34.9571 13.8113 34.8479 13.9083 34.8115C14.0174 34.7751 14.1266 34.8357 14.1629 34.9328C16.9398 43.2455 20.4078 51.3761 24.5063 59.1305C24.5548 59.2276 24.5184 59.3489 24.4214 59.3975C24.3972 59.4339 24.3608 59.4339 24.3365 59.4339Z" fill="black"></path><path d="M27.477 60.2475C27.4042 60.2475 27.3315 60.199 27.2951 60.1261C23.1238 50.7456 19.2072 41.1102 15.6543 31.4748C15.6179 31.3656 15.6664 31.2564 15.7755 31.22C15.8847 31.1836 15.9938 31.2321 16.0302 31.3413C19.5831 40.9646 23.4997 50.5878 27.6589 59.9684C27.7074 60.0655 27.6589 60.1868 27.5619 60.2354C27.5376 60.2475 27.5012 60.2475 27.477 60.2475Z" fill="black"></path><path d="M20.4562 34.6542C20.3834 34.6542 20.3107 34.6057 20.2743 34.5329C19.1951 32.1665 18.1886 29.7152 17.3034 27.2639C17.2671 27.1546 17.3156 27.0454 17.4247 27.009C17.5338 26.9726 17.643 27.0212 17.6793 27.1304C18.5645 29.5696 19.5589 32.0087 20.6381 34.3751C20.6866 34.4722 20.6381 34.5936 20.5411 34.6421C20.5047 34.6542 20.4804 34.6542 20.4562 34.6542Z" fill="black"></path><path d="M22.6146 31.3897C22.5418 31.3897 22.4569 31.3412 22.4327 31.2684L19.6316 24.6061C19.5831 24.509 19.6316 24.3877 19.7407 24.3391C19.8377 24.2906 19.959 24.3391 20.0075 24.4483L22.8086 31.1106C22.8571 31.2077 22.8086 31.329 22.6994 31.3776C22.6631 31.3776 22.6388 31.3897 22.6146 31.3897Z" fill="black"></path><path d="M24.8217 28.1128C24.7489 28.1128 24.664 28.0642 24.6398 27.9914L22.2146 22.1908C22.1661 22.0937 22.2146 21.9723 22.3237 21.9238C22.4207 21.8874 22.542 21.9238 22.5905 22.033L25.0157 27.8337C25.0642 27.9308 25.0157 28.0521 24.9065 28.1007C24.8823 28.1128 24.8459 28.1128 24.8217 28.1128Z" fill="black"></path><path d="M28.3621 26.1719C28.2893 26.1719 28.2166 26.1234 28.1802 26.0506C27.3435 24.1453 26.5917 22.1673 25.9491 20.1893C25.9127 20.08 25.9733 19.9708 26.0824 19.9344C26.1916 19.898 26.3007 19.9587 26.3371 20.0679C26.9798 22.0338 27.7316 23.9997 28.5561 25.8928C28.6046 25.9899 28.5561 26.1113 28.447 26.1598C28.4106 26.1719 28.3864 26.1719 28.3621 26.1719Z" fill="black"></path><path d="M31.7333 24.946C31.6605 24.946 31.5757 24.8975 31.5514 24.8247C30.7753 22.9801 30.1084 21.0627 29.5749 19.1211C29.5506 19.0119 29.6113 18.9027 29.7204 18.8784C29.8295 18.8541 29.9387 18.9148 29.9629 19.0119C30.4965 20.9293 31.1513 22.8345 31.9273 24.6669C31.9758 24.764 31.9273 24.8854 31.8182 24.9339C31.7818 24.946 31.7575 24.946 31.7333 24.946Z" fill="black"></path><path d="M35.468 25.0675C35.3832 25.0675 35.2983 25.0068 35.274 24.9219L33.4552 18.6722C33.4188 18.563 33.4794 18.4538 33.5885 18.4295C33.6977 18.3931 33.8068 18.4538 33.8311 18.563L35.6499 24.8127C35.6863 24.9219 35.6257 25.0311 35.5166 25.0554C35.5166 25.0675 35.4923 25.0675 35.468 25.0675Z" fill="black"></path><path d="M39.5909 26.9245C39.5061 26.9245 39.4333 26.8759 39.3969 26.791L37.0081 19.3035C36.9718 19.1943 37.0324 19.0851 37.1415 19.0487C37.2507 19.0123 37.3598 19.0729 37.3962 19.1822L39.785 26.6696C39.8213 26.7788 39.7607 26.888 39.6516 26.9245C39.6273 26.9245 39.6031 26.9245 39.5909 26.9245Z" fill="black"></path><path d="M44.3197 28.744C44.2348 28.744 44.1621 28.6955 44.1378 28.6105L40.9123 20.0187C40.876 19.9095 40.9245 19.8003 41.0336 19.7639C41.1306 19.7275 41.2519 19.776 41.2882 19.8853L44.5137 28.477C44.5501 28.5862 44.5016 28.6955 44.3925 28.7319C44.3682 28.7319 44.344 28.744 44.3197 28.744Z" fill="black"></path><path d="M31.709 61.5335C31.6362 61.5335 31.5756 61.4971 31.5392 61.4243C30.0841 58.8031 28.8109 56.0363 27.768 53.2209C27.7317 53.1117 27.7802 53.0025 27.8893 52.9661C27.9984 52.9296 28.1076 52.9782 28.1439 53.0874C29.1868 55.8785 30.4479 58.6211 31.8908 61.2302C31.9393 61.3272 31.9151 61.4486 31.8181 61.4971C31.7817 61.5214 31.7453 61.5335 31.709 61.5335Z" fill="black"></path><path d="M34.898 61.3639C34.8252 61.3639 34.7646 61.3275 34.7282 61.2668C33.2853 58.949 32.0848 56.4855 31.1511 53.925C31.1147 53.8158 31.1632 53.7066 31.2724 53.6702C31.3815 53.6337 31.4906 53.6823 31.527 53.7915C32.4486 56.3278 33.6369 58.7791 35.0678 61.0605C35.1284 61.1576 35.092 61.279 35.0071 61.3396C34.9708 61.3639 34.9344 61.3639 34.898 61.3639Z" fill="black"></path><path d="M38.0387 60.9146C37.966 60.9146 37.8932 60.8782 37.8569 60.8054C36.7655 58.6211 35.747 56.3761 34.8375 54.1189C34.8011 54.0218 34.8496 53.9005 34.9467 53.8519C35.0437 53.8155 35.1649 53.8641 35.2134 53.9611C36.1229 56.2062 37.1293 58.4512 38.2206 60.6234C38.2691 60.7205 38.2328 60.8418 38.1358 60.8904C38.0994 60.9025 38.063 60.9146 38.0387 60.9146Z" fill="black"></path><path d="M46.1994 25.4312C46.1145 25.4312 46.0417 25.3827 46.0054 25.2977L44.7322 21.6936C44.6958 21.5843 44.7443 21.4751 44.8534 21.4387C44.9626 21.4023 45.0717 21.4508 45.1081 21.5601L46.3813 25.1642C46.4177 25.2735 46.3692 25.3827 46.26 25.4191C46.2479 25.4191 46.2236 25.4312 46.1994 25.4312Z" fill="black"></path><path d="M54.9057 44.7991C54.8329 44.7991 54.7602 44.7505 54.7238 44.6777C52.4805 39.8357 50.3342 34.8724 48.3456 29.9212C48.3092 29.8241 48.3577 29.7028 48.4547 29.6664C48.5517 29.63 48.673 29.6785 48.7093 29.7756C50.698 34.7147 52.8443 39.678 55.0754 44.5078C55.1239 44.6049 55.0754 44.7262 54.9784 44.7748C54.9663 44.7991 54.9299 44.7991 54.9057 44.7991Z" fill="black"></path><path d="M55.3059 37.785C55.2332 37.785 55.1604 37.7486 55.124 37.6758C53.4507 34.557 51.8985 31.3291 50.4919 28.0768C50.4434 27.9797 50.4919 27.8584 50.6011 27.8098C50.6981 27.7613 50.8193 27.8098 50.8678 27.919C52.2623 31.1592 53.8144 34.375 55.4878 37.4816C55.5363 37.5787 55.4999 37.7001 55.4029 37.7486C55.3787 37.7729 55.3423 37.785 55.3059 37.785Z" fill="black"></path><path d="M53.584 49.3012C53.5112 49.3012 53.4384 49.2527 53.4021 49.1799L46.0295 32.1784C45.981 32.0813 46.0295 31.9599 46.1387 31.9114C46.2357 31.8629 46.3569 31.9114 46.4054 32.0206L53.778 49.0221C53.8265 49.1192 53.778 49.2405 53.6688 49.2891C53.6325 49.3012 53.6082 49.3012 53.584 49.3012Z" fill="black"></path><path d="M51.8499 52.4449C51.7771 52.4449 51.7044 52.3964 51.668 52.3236L47.9575 44.2294C47.909 44.1323 47.9575 44.0109 48.0545 43.9624C48.1515 43.9139 48.2728 43.9624 48.3213 44.0595L52.0318 52.1537C52.0803 52.2508 52.0318 52.3721 51.9348 52.4207C51.8984 52.4449 51.8742 52.4449 51.8499 52.4449Z" fill="black"></path><path d="M49.4976 54.7985C49.4248 54.7985 49.3521 54.75 49.3157 54.6772L46.1145 47.7479C46.066 47.6509 46.1145 47.5295 46.2115 47.481C46.3085 47.4324 46.4298 47.481 46.4783 47.578L49.6795 54.5073C49.728 54.6044 49.6795 54.7257 49.5825 54.7742C49.5461 54.7864 49.5219 54.7985 49.4976 54.7985Z" fill="black"></path><path d="M47.0603 56.7282C46.9875 56.7282 46.9147 56.6797 46.8784 56.6069L44.1743 50.7577C44.1258 50.6606 44.1743 50.5393 44.2713 50.4907C44.3683 50.4422 44.4896 50.4907 44.5381 50.5878L47.2421 56.437C47.2906 56.5341 47.2421 56.6554 47.1451 56.704C47.1209 56.7161 47.0845 56.7282 47.0603 56.7282Z" fill="black"></path><path d="M44.4291 58.5241C44.3563 58.5241 44.2836 58.4756 44.2472 58.4028L41.531 52.5536C41.4825 52.4565 41.531 52.3352 41.628 52.2866C41.725 52.2381 41.8463 52.2866 41.8948 52.3837L44.611 58.2329C44.6595 58.33 44.611 58.4513 44.514 58.4999C44.4776 58.512 44.4533 58.5241 44.4291 58.5241Z" fill="black"></path><path d="M41.2399 60.5268C41.1671 60.5268 41.0944 60.4782 41.058 60.4054L38.3054 54.4227C38.2569 54.3257 38.3054 54.2043 38.4024 54.1558C38.4994 54.1072 38.6207 54.1558 38.6692 54.2528L41.4218 60.2355C41.4703 60.3326 41.4218 60.454 41.3247 60.5025C41.2884 60.5146 41.2641 60.5268 41.2399 60.5268Z" fill="black"></path><g opacity="0.1294"><path d="M69.3598 12.2647C68.7899 11.391 67.9047 11.6579 67.2378 12.2647C66.6193 12.7258 66.013 13.187 65.3825 13.636C62.6784 15.6383 59.938 17.3858 57.9251 19.1454C57.1975 20.0313 58.3131 21.2933 59.2953 20.6987C61.7205 18.8056 64.279 17.1067 66.7891 15.3349C67.456 14.8859 68.0987 14.4126 68.7535 13.9636C69.3719 13.6724 69.7478 12.9079 69.3598 12.2647Z" fill="black"></path></g><g opacity="0.1294"><path d="M44.6353 38.429C44.6595 38.2225 44.6716 38.2103 44.6353 38.429V38.429Z" fill="black"></path></g><g opacity="0.1294"><path d="M31.1875 48.5498C31.236 48.5498 31.2724 48.562 31.3088 48.5741C31.2966 48.562 31.2481 48.5498 31.1875 48.5498Z" fill="black"></path></g><g opacity="0.1294"><path d="M47.1694 38.3072C47.133 37.7125 47.2179 37.0087 46.842 36.5233C46.4904 36.0015 45.6658 35.9044 45.205 36.317C44.5138 36.8145 44.7927 37.7975 44.6351 38.5256C44.6351 38.5013 44.6472 38.4649 44.6472 38.4407C44.6472 38.4649 44.6351 38.4892 44.6351 38.5256C44.5017 39.2901 44.3198 40.0546 44.0531 40.7828C43.5195 42.2147 42.1372 44.3991 40.7185 45.6975C39.0451 47.0567 37.687 47.7241 35.3467 48.4158C33.9158 48.8163 32.4122 48.7678 31.139 48.5493C31.1633 48.5493 31.1754 48.5493 31.1996 48.5493C28.5198 48.1731 27.3921 47.5785 25.8764 46.1708C24.8214 45.1636 23.2936 46.6805 24.3 47.7484C26.5069 50.0056 29.6233 51.0735 32.7154 51.3647C33.3217 51.389 33.9037 51.3647 34.4736 51.304C34.4615 51.4133 34.4736 51.5346 34.4858 51.6802C34.9829 52.7724 35.6135 52.3841 36.3289 52.287C37.299 52.0807 36.9473 52.1656 38.0871 51.9108C40.0152 51.5467 41.5551 50.2483 42.9254 48.9255C44.6957 47.2509 45.9326 45.1272 46.6601 42.8094C47.1209 41.341 47.1815 39.8119 47.1694 38.3072Z" fill="black"></path></g><g opacity="0.1294"><path d="M32.5213 63.2695C32.5092 63.2695 32.5092 63.2695 32.4971 63.2695C32.5334 63.2695 32.5577 63.2817 32.5213 63.2695Z" fill="black"></path></g><g opacity="0.1294"><path d="M56.9428 38.6835C56.8943 38.0282 56.8216 37.3729 56.6882 36.7419C56.6397 36.3414 56.4821 35.9288 56.1062 35.7347C55.2937 35.225 54.1903 36.0623 54.4692 36.9846C54.7602 38.3316 54.7359 40.1398 54.457 41.4261C54.0811 43.2585 53.3778 44.9939 52.7352 46.7292C52.6018 47.069 52.4563 47.4088 52.3229 47.7486C52.1046 48.1248 52.2501 48.0641 51.9591 48.5738C51.4377 49.7023 50.8557 50.8066 50.1524 51.8381C48.673 54.1074 45.7385 56.9228 43.9924 58.1121C42.3797 59.3135 42.6465 58.7916 41.1671 59.6533C41.3247 59.5683 41.4702 59.4712 41.6279 59.3863C41.3854 59.4712 41.155 59.5562 40.9125 59.6411C38.8874 60.4178 36.8139 61.0973 34.6798 61.4493C34.5949 61.4614 34.5343 61.4735 34.4857 61.4735C34.413 61.4857 34.3402 61.4857 34.2675 61.4978C33.6127 61.5342 32.9458 61.5342 32.291 61.4978C32.0242 61.4857 31.7453 61.4614 31.4785 61.425C31.2845 61.4007 31.0905 61.425 30.9329 61.5221C30.3145 61.8497 30.46 62.8691 31.1511 63.0026C31.5513 63.0875 31.9514 63.1603 32.3516 63.221H32.3395C32.3516 63.221 32.3758 63.221 32.388 63.2331C32.4243 63.2331 32.4607 63.2453 32.4971 63.2453C32.485 63.2453 32.4607 63.2331 32.4486 63.2331C34.0856 63.4759 35.7347 63.2332 37.3353 62.8327C38.9602 62.5172 40.5123 61.9347 42.0887 61.4493C42.3433 61.3765 42.0159 61.4493 41.9189 61.4493C42.5616 61.3765 43.2042 61.1338 43.7984 60.9032C47.23 59.2528 50.2009 56.6316 52.432 53.5614C53.2202 52.5299 53.8265 51.3649 54.36 50.1877C54.5904 49.581 54.9906 48.9985 55.0391 48.3432C55.027 48.4645 55.0027 48.598 54.9906 48.7194C55.6696 46.8506 56.3851 44.9696 56.7003 43.0037C56.6882 43.1129 56.664 43.2342 56.6518 43.3435C56.9428 41.8266 57.1369 40.249 56.9428 38.6835Z" fill="black"></path></g><g opacity="0.1294"><path d="M67.8682 38.404C67.8682 38.1371 67.7591 37.8701 67.5651 37.6881C66.9588 37.057 65.7947 37.5303 65.8189 38.404C65.9038 41.0981 65.5522 42.6635 64.7276 45.4668C63.8788 48.3792 63.321 49.8597 62.1448 52.1412C61.2232 53.8522 60.4229 55.624 59.4407 57.2986C57.2581 60.5752 57.0762 60.7693 55.1118 63.075C52.1167 66.121 49.9098 68.2568 46.5631 69.3489C43.4467 70.6231 40.5608 71.8245 36.6926 72.3221C36.5835 72.3342 36.3531 72.3706 36.3046 72.3828C36.244 72.3949 35.9772 72.4313 35.8196 72.4556C35.6013 72.4677 35.3952 72.5405 35.2375 72.6983C34.704 73.1958 35.1041 74.1788 35.8438 74.1545C37.1049 74.1181 38.366 73.9967 39.615 73.754C41.834 73.3293 44.0045 72.6497 46.1023 71.8124C47.5453 71.3027 49.0246 70.8659 50.3706 70.1256C52.6988 68.815 53.4991 68.0019 55.3665 66.2545C56.1789 65.5385 56.9307 64.7618 57.6461 63.9488C57.828 64.507 58.6162 64.7618 59.0527 64.2885C61.3324 61.9586 63.0785 59.1432 64.4972 56.2307C65.1642 54.8109 65.7704 53.3425 66.1585 51.8256C66.2312 51.2796 66.5586 50.6728 66.2797 50.1388C66.2191 50.0296 66.1463 49.9568 66.0615 49.884C67.1407 46.8138 67.6985 43.7071 67.8803 40.819C67.9167 40.0059 67.9046 39.205 67.8682 38.404Z" fill="black"></path></g></svg>