<svg xmlns="http://www.w3.org/2000/svg" width="52" height="52" viewBox="0 0 52 52" fill="none"><circle cx="26" cy="26" r="26" fill="#FF6166"></circle><path d="M27 22C27.7956 22 28.5587 22.3161 29.1213 22.8787C29.6839 23.4413 30 24.2044 30 25C30 25.2652 30.1054 25.5196 30.2929 25.7071C30.4804 25.8946 30.7348 26 31 26C31.2652 26 31.5196 25.8946 31.7071 25.7071C31.8946 25.5196 32 25.2652 32 25C32 23.6739 31.4732 22.4021 30.5355 21.4645C29.5979 20.5268 28.3261 20 27 20C26.7348 20 26.4804 20.1054 26.2929 20.2929C26.1054 20.4804 26 20.7348 26 21C26 21.2652 26.1054 21.5196 26.2929 21.7071C26.4804 21.8946 26.7348 22 27 22Z" fill="white"></path><path d="M27 18C28.8565 18 30.637 18.7375 31.9497 20.0503C33.2625 21.363 34 23.1435 34 25C34 25.2652 34.1054 25.5196 34.2929 25.7071C34.4804 25.8946 34.7348 26 35 26C35.2652 26 35.5196 25.8946 35.7071 25.7071C35.8946 25.5196 36 25.2652 36 25C36 22.6131 35.0518 20.3239 33.364 18.636C31.6761 16.9482 29.3869 16 27 16C26.7348 16 26.4804 16.1054 26.2929 16.2929C26.1054 16.4804 26 16.7348 26 17C26 17.2652 26.1054 17.5196 26.2929 17.7071C26.4804 17.8946 26.7348 18 27 18ZM35.75 29.91C35.695 29.7495 35.6 29.6056 35.4741 29.4919C35.3481 29.3781 35.1953 29.2984 35.03 29.26L29.03 27.89C28.8671 27.8531 28.6976 27.8575 28.5369 27.9029C28.3762 27.9484 28.2294 28.0333 28.11 28.15C27.97 28.28 27.96 28.29 27.31 29.53C25.1532 28.5362 23.425 26.8009 22.44 24.64C23.71 24 23.72 24 23.85 23.85C23.9667 23.7306 24.0516 23.5838 24.0971 23.4231C24.1425 23.2624 24.1469 23.0929 24.11 22.93L22.74 17C22.7016 16.8347 22.6219 16.6819 22.5081 16.5559C22.3944 16.43 22.2505 16.335 22.09 16.28C21.8565 16.1966 21.6153 16.1363 21.37 16.1C21.1173 16.0414 20.8593 16.0079 20.6 16C19.38 16 18.21 16.4846 17.3473 17.3473C16.4846 18.21 16 19.38 16 20.6C16.0053 24.6827 17.6295 28.5967 20.5164 31.4836C23.4033 34.3705 27.3173 35.9947 31.4 36C32.0041 36 32.6022 35.881 33.1603 35.6498C33.7184 35.4187 34.2255 35.0798 34.6527 34.6527C35.0798 34.2255 35.4187 33.7184 35.6498 33.1603C35.881 32.6022 36 32.0041 36 31.4C36.0003 31.1455 35.9802 30.8913 35.94 30.64C35.898 30.3916 35.8344 30.1474 35.75 29.91ZM31.4 34C27.8469 33.9974 24.4401 32.5847 21.9277 30.0723C19.4153 27.5599 18.0026 24.1531 18 20.6C18.0026 19.9112 18.2774 19.2515 18.7644 18.7644C19.2515 18.2774 19.9112 18.0026 20.6 18H20.93L22 22.64L21.46 22.92C20.6 23.37 19.92 23.73 20.28 24.51C20.8662 26.1696 21.8148 27.6777 23.0567 28.9249C24.2987 30.172 25.8029 31.1269 27.46 31.72C28.3 32.06 28.63 31.43 29.08 30.56L29.37 30.01L34 31.07V31.4C33.9974 32.0888 33.7226 32.7485 33.2356 33.2356C32.7485 33.7226 32.0888 33.9974 31.4 34Z" fill="white"></path></svg>