<svg xmlns="http://www.w3.org/2000/svg" width="60" height="60" viewBox="0 0 60 60" fill="none"><circle cx="30" cy="30" r="30" fill="#6CBAFF" fill-opacity="0.1"></circle><path d="M22.8535 40.9233V18.6355H26.2829L27.426 19.7785H32.5701L33.7132 18.6355H37.1426V40.9233H22.8535Z" fill="url(#paint0_linear_2611_44)"></path><path d="M33.9544 31.9569C33.6648 31.8345 33.3308 31.9699 33.2084 32.2595C32.6325 33.6211 31.2029 34.4579 29.7318 34.294C28.2393 34.1279 27.0814 33.0052 26.8005 31.6058L27.0325 31.7609C27.2939 31.9356 27.6473 31.8653 27.8221 31.6039C27.9968 31.3425 27.9265 30.989 27.6651 30.8143L26.5502 30.069C26.3507 29.9054 26.0465 29.8891 25.8278 30.064L24.786 30.8972C24.5405 31.0935 24.5006 31.4517 24.697 31.6972C24.8939 31.9435 25.2522 31.9821 25.4971 31.7863L25.6544 31.6605C25.9686 33.6104 27.5496 35.1966 29.6059 35.4255C31.6382 35.6518 33.5011 34.49 34.2569 32.7029C34.3794 32.4133 34.244 32.0794 33.9544 31.9569Z" fill="white"></path><path d="M34.5032 28.9161L34.3459 29.0419C34.0317 27.092 32.4507 25.5058 30.3944 25.2769C29.4097 25.1673 28.4403 25.3767 27.5911 25.8825C26.7701 26.3716 26.1138 27.1234 25.7433 27.9995C25.6209 28.289 25.7564 28.623 26.0459 28.7454C26.3354 28.8678 26.6694 28.7324 26.7919 28.4429C27.3677 27.0813 28.7973 26.2447 30.2684 26.4084C31.7609 26.5745 32.9189 27.6972 33.1997 29.0966L32.9678 28.9415C32.7064 28.7668 32.3529 28.8371 32.1782 29.0985C32.0035 29.3599 32.0738 29.7134 32.3351 29.8881L33.4501 30.6333C33.5507 30.7158 33.6733 30.7583 33.7961 30.7616C33.8031 30.7618 33.81 30.763 33.8168 30.763C33.943 30.763 34.0689 30.7212 34.1724 30.6384L35.2143 29.8052C35.4598 29.6089 35.4997 29.2507 35.3033 29.0051C35.107 28.7597 34.7488 28.7197 34.5032 28.9161Z" fill="white"></path><path d="M28.5712 18.0618H31.429C31.7434 18.0618 31.9982 17.807 31.9982 17.4926C31.9982 17.1782 31.7434 16.9233 31.429 16.9233H28.5712C28.2568 16.9233 28.002 17.1782 28.002 17.4926C28.002 17.807 28.2568 18.0618 28.5712 18.0618Z" fill="#020288"></path><path d="M37.723 14.6372H22.277C21.0214 14.6372 20 15.6585 20 16.9139V41.5019C20 42.7573 21.0214 43.7786 22.277 43.7786H37.723C38.9786 43.7786 40 42.7573 40 41.5019V16.9139C39.9999 15.6585 38.9785 14.6372 37.723 14.6372ZM38.8615 41.5019C38.8615 42.1296 38.3507 42.6402 37.723 42.6402H22.277C21.6492 42.6402 21.1385 42.1296 21.1385 41.5019V16.9139C21.1385 16.2862 21.6492 15.7755 22.277 15.7755H37.723C38.3508 15.7755 38.8615 16.2862 38.8615 16.9139V41.5019H38.8615Z" fill="#001042"></path><defs><linearGradient id="paint0_linear_2611_44" x1="22.8535" y1="20.2663" x2="38.0731" y2="21.1979" gradientUnits="userSpaceOnUse"><stop stop-color="#0082F8"></stop><stop offset="1" stop-color="#1C40F2"></stop></linearGradient></defs></svg>