<svg xmlns="http://www.w3.org/2000/svg" width="56" height="61" viewBox="0 0 56 61" fill="none"><circle opacity="0.15" cx="43.5" cy="48.5" r="12.5" fill="#297FFF"></circle><path fill-rule="evenodd" clip-rule="evenodd" d="M23.6327 33.3985C22.5585 33.3985 21.6796 32.5196 21.6796 31.4454V27.5391C21.6796 26.4649 22.5585 25.586 23.6327 25.586H32.3242V21.1914C32.3242 20.1177 31.4448 19.2383 30.3711 19.2383H7.91015C6.83632 19.2383 5.95703 20.1172 5.95703 21.1914V37.3047H21.6796V35.3516C21.6796 34.2774 22.5585 33.3985 23.6327 33.3985Z" fill="url(#paint0_linear_2732_48)"></path><path d="M50 27.5392C50 25.9237 48.6857 24.6095 47.0703 24.6095H38.2813V12.042C38.2813 10.4966 37.8652 9.50592 36.7461 8.38698L29.843 1.48388C28.6226 0.263476 27.9899 0 26.2796 0H2.92968C1.31425 0 0 1.31425 0 2.92968V35.3516C0 36.967 1.31425 38.2813 2.92968 38.2813H20.7031C20.6873 39.4416 20.643 40.3034 21.451 41.211C20.9861 41.7297 20.7031 42.4144 20.7031 43.1641V47.0703C20.7031 48.6857 22.0174 50 23.6328 50H47.0702C48.6856 50 49.9999 48.6857 49.9999 47.0703V43.1641C49.9999 42.4144 49.7169 41.7297 49.252 41.211C49.7169 40.6922 49.9999 40.0076 49.9999 39.2579V35.3516C49.9999 34.6019 49.7169 33.9172 49.252 33.3985C49.7169 32.8798 49.9999 32.1951 49.9999 31.4454V27.5392H50ZM6.93366 1.95312H22.5586V9.76559C22.5586 10.3041 22.1205 10.7421 21.582 10.7421H7.91022C7.37175 10.7421 6.93366 10.3041 6.93366 9.76559V1.95312ZM2.92968 36.3282C2.3912 36.3282 1.95312 35.8901 1.95312 35.3516V2.92968C1.95312 2.3912 2.3912 1.95312 2.92968 1.95312H4.98055V9.76559C4.98055 11.381 6.2948 12.6953 7.91022 12.6953H21.582C23.1975 12.6953 24.5117 11.381 24.5117 9.76559V1.95312H26.2796C27.479 1.95312 27.6014 2.00419 28.4621 2.86493L35.3652 9.76803C36.1212 10.524 36.3283 11.0127 36.3283 12.0419V24.6094H23.6328C22.0174 24.6094 20.7031 25.9236 20.7031 27.5391V31.4453C20.7031 32.195 20.9861 32.8797 21.451 33.3984C20.6433 34.3046 20.687 35.1704 20.7031 36.3281H2.92968V36.3282ZM48.0469 47.0703C48.0469 47.6088 47.6088 48.0469 47.0703 48.0469H23.6329C23.0944 48.0469 22.6564 47.6088 22.6564 47.0703V43.1641C22.6564 42.6256 23.0944 42.1875 23.6329 42.1875H47.0703C47.6088 42.1875 48.0469 42.6256 48.0469 43.1641V47.0703ZM48.0469 39.2579C48.0469 39.7963 47.6088 40.2344 47.0703 40.2344H23.6329C23.0944 40.2344 22.6564 39.7963 22.6564 39.2579V35.3516C22.6564 34.8131 23.0944 34.3751 23.6329 34.3751H47.0703C47.6088 34.3751 48.0469 34.8131 48.0469 35.3516V39.2579ZM48.0469 31.4454C48.0469 31.9839 47.6088 32.4219 47.0703 32.4219H23.6329C23.0944 32.4219 22.6564 31.9839 22.6564 31.4454V27.5392C22.6564 27.0007 23.0944 26.5626 23.6329 26.5626H47.0703C47.6088 26.5626 48.0469 27.0007 48.0469 27.5392V31.4454Z" fill="#020288"></path><path d="M26.5629 28.5156C26.0233 28.5152 25.5859 28.9526 25.5859 29.4922C25.634 30.7858 27.4917 30.7861 27.5395 29.4922C27.5395 28.9528 27.1022 28.5156 26.5629 28.5156Z" fill="#020288"></path><path d="M30.9574 28.5156C30.4179 28.5152 29.9805 28.9526 29.9805 29.4922C30.0285 30.7858 31.8862 30.7861 31.934 29.4922C31.934 28.9528 31.4968 28.5156 30.9574 28.5156Z" fill="#020288"></path><path d="M35.352 28.5156C34.8124 28.5152 34.375 28.9526 34.375 29.4922C34.423 30.7858 36.2808 30.7861 36.3285 29.4922C36.3285 28.9528 35.8913 28.5156 35.352 28.5156Z" fill="#020288"></path><path d="M26.5629 36.3281C26.0233 36.3277 25.5859 36.7651 25.5859 37.3047C25.634 38.5983 27.4917 38.5986 27.5395 37.3047C27.5395 36.7653 27.1022 36.3281 26.5629 36.3281Z" fill="#020288"></path><path d="M30.9574 36.3281C30.4179 36.3277 29.9805 36.7651 29.9805 37.3047C30.0285 38.5983 31.8862 38.5986 31.934 37.3047C31.934 36.7653 31.4968 36.3281 30.9574 36.3281Z" fill="#020288"></path><path d="M35.352 36.3281C34.8124 36.3277 34.375 36.7651 34.375 37.3047C34.423 38.5983 36.2808 38.5986 36.3285 37.3047C36.3285 36.7653 35.8913 36.3281 35.352 36.3281Z" fill="#020288"></path><path d="M26.5629 44.1406C26.0232 44.1401 25.5859 44.5776 25.5859 45.1172C25.634 46.4108 27.4917 46.4111 27.5395 45.1172C27.5395 44.5778 27.1022 44.1406 26.5629 44.1406Z" fill="#020288"></path><path d="M30.9574 44.1406C30.4178 44.1401 29.9805 44.5776 29.9805 45.1172C30.0285 46.4108 31.8862 46.4111 31.934 45.1172C31.934 44.5778 31.4968 44.1406 30.9574 44.1406Z" fill="#020288"></path><path d="M35.352 44.1406C34.8123 44.1401 34.375 44.5776 34.375 45.1172C34.423 46.4108 36.2808 46.4111 36.3285 45.1172C36.3285 44.5778 35.8913 44.1406 35.352 44.1406Z" fill="#020288"></path><path d="M19.4873 8.78906C20.0267 8.78906 20.4639 8.35176 20.4639 7.8125V4.88281C20.4639 4.34355 20.0267 3.90625 19.4873 3.90625C18.9479 3.90625 18.5107 4.34355 18.5107 4.88281V7.8125C18.5107 8.35176 18.9479 8.78906 19.4873 8.78906Z" fill="#020288"></path><defs><linearGradient id="paint0_linear_2732_48" x1="5.95703" y1="20.5602" x2="33.6095" y2="24.4133" gradientUnits="userSpaceOnUse"><stop stop-color="#0082F8"></stop><stop offset="1" stop-color="#1C40F2"></stop></linearGradient></defs></svg>