<svg xmlns="http://www.w3.org/2000/svg" width="49" height="48" viewBox="0 0 49 48" fill="none"><ellipse cx="24.1096" cy="24" rx="24.1096" ry="24" fill="#002BFF" fill-opacity="0.05"></ellipse><g clip-path="url(#clip0_1049_249)"><path fill-rule="evenodd" clip-rule="evenodd" d="M20.25 27.5467H27.75V29.8904H20.25V27.5467Z" fill="url(#paint0_linear_1049_249)"></path><path fill-rule="evenodd" clip-rule="evenodd" d="M24 16.531C28.1422 16.531 31.5 19.8889 31.5 24.031H33.6562C33.1461 11.2191 14.8492 11.2289 14.3438 24.031H16.5C16.5 19.8889 19.8579 16.531 24 16.531Z" fill="url(#paint1_linear_1049_249)"></path><path d="M24 12.031C17.3832 12.031 12 17.4142 12 24.031C12.6592 39.9507 35.3433 39.9461 36 24.031C36 17.4142 30.6168 12.031 24 12.031ZM24 35.0936C17.9002 35.0936 12.9375 30.1309 12.9375 24.031C13.5452 9.35508 34.4571 9.35939 35.0625 24.0311C35.0625 30.1309 30.0999 35.0936 24 35.0936Z" fill="#001042"></path><path d="M24 13.906C18.417 13.906 13.875 18.4481 13.875 24.031C14.4312 37.4633 33.5708 37.4593 34.125 24.0309C34.125 18.4481 29.583 13.906 24 13.906ZM24 33.2185C19.0912 33.2185 15.0692 29.3489 14.8244 24.4998H16.5C17.1219 24.475 17.1215 23.5869 16.5 23.5623H14.8244C14.8916 22.231 15.2435 20.9736 15.8203 19.8497L17.2694 20.6864C17.4896 20.8147 17.7795 20.7411 17.9097 20.5148C18.0392 20.2906 17.9624 20.004 17.7382 19.8745L16.2904 19.0386C16.9953 17.9538 17.9228 17.0263 19.0076 16.3214L19.8435 17.7691C20.1768 18.2966 20.9452 17.8484 20.6553 17.3004L19.8187 15.8513C20.9425 15.2745 22.2 14.9226 23.5312 14.8553V16.531C23.556 17.153 24.4442 17.1525 24.4688 16.531V14.8553C25.8 14.9226 27.0575 15.2745 28.1813 15.8513L27.3447 17.3004C27.2153 17.5246 27.2921 17.8112 27.5163 17.9407C27.7365 18.069 28.0264 17.9954 28.1566 17.7691L28.9925 16.3214C30.0773 17.0263 31.0048 17.9538 31.7097 19.0386L30.2619 19.8745C30.0377 20.004 29.9609 20.2906 30.0904 20.5148C30.2205 20.7411 30.5105 20.8147 30.7307 20.6864L32.1798 19.8497C32.7566 20.9735 33.1085 22.231 33.1757 23.5622H31.5C30.8781 23.587 30.8785 24.4752 31.5 24.4997H33.1757C32.9308 29.3489 28.9088 33.2185 24 33.2185Z" fill="#001042"></path><path d="M24.4688 22.4586V18.5936C24.444 17.9716 23.5558 17.9721 23.5312 18.5936V22.4586C22.8543 22.6608 22.3594 23.2892 22.3594 24.031C22.4495 26.2076 25.5509 26.2069 25.6406 24.031C25.6406 23.2892 25.1457 22.6608 24.4688 22.4586ZM24 24.7342C23.6123 24.7342 23.2969 24.4187 23.2969 24.031C23.3355 23.0982 24.6646 23.0985 24.7031 24.031C24.7031 24.4187 24.3877 24.7342 24 24.7342Z" fill="url(#paint2_linear_1049_249)"></path></g><defs><linearGradient id="paint0_linear_1049_249" x1="20.25" y1="27.7182" x2="27.5838" y2="29.9588" gradientUnits="userSpaceOnUse"><stop stop-color="#0082F8"></stop><stop offset="1" stop-color="#1C40F2"></stop></linearGradient><linearGradient id="paint1_linear_1049_249" x1="14.3437" y1="15.1286" x2="34.2571" y2="18.9512" gradientUnits="userSpaceOnUse"><stop stop-color="#0082F8"></stop><stop offset="1" stop-color="#1C40F2"></stop></linearGradient><linearGradient id="paint2_linear_1049_249" x1="22.3594" y1="18.6787" x2="25.8613" y2="18.8243" gradientUnits="userSpaceOnUse"><stop stop-color="#0082F8"></stop><stop offset="1" stop-color="#1C40F2"></stop></linearGradient><clipPath id="clip0_1049_249"><rect width="24" height="24" fill="white" transform="translate(12 12)"></rect></clipPath></defs></svg>