<svg xmlns="http://www.w3.org/2000/svg" width="60" height="60" viewBox="0 0 60 60" fill="none"><circle cx="30" cy="30" r="30" fill="#6CBAFF" fill-opacity="0.1"></circle><path fill-rule="evenodd" clip-rule="evenodd" d="M30.8173 23.4229C26.9351 23.4229 23.7879 26.5697 23.7879 30.4515C23.7155 35.2653 28.7628 38.7662 33.2401 37.0514L30.8173 30.4515L37.418 32.874C39.133 28.3965 35.6316 23.3507 30.8173 23.4229Z" fill="url(#paint0_linear_2611_43)"></path><path d="M44.8295 40.4892L41.708 37.3682L43.65 35.4265C43.9518 35.142 43.8311 34.5936 43.4375 34.4623L41.4597 33.7364C43.116 28.6903 40.5439 22.8751 35.9934 20.6004C35.7736 20.1805 35.5247 19.7724 35.253 19.3841C34.8782 18.8616 34.0664 19.2296 34.2012 19.8488C25.6754 17.0853 17.4486 25.3141 20.2122 33.8358C19.593 33.7012 19.2248 34.5125 19.7475 34.8875C20.1361 35.1596 20.5438 35.4079 20.964 35.628C23.2384 40.1776 29.0559 42.7496 34.1017 41.0934L34.8277 43.0708C34.9591 43.4642 35.5076 43.5853 35.7921 43.2832L37.734 41.3417L40.8555 44.4627C40.9699 44.577 41.1199 44.6343 41.2698 44.6343C41.4198 44.6343 41.5698 44.577 41.6841 44.4627L44.8296 41.3177C45.0563 41.0996 45.0566 40.7073 44.8295 40.4892ZM30.8208 40.4159C17.6242 39.9151 17.6274 20.9951 30.821 20.4962C37.3817 20.3932 42.3403 27.0911 40.3578 33.332L31.0228 29.906C30.8085 29.8274 30.5679 29.8804 30.4065 30.0417C30.2451 30.2031 30.1921 30.4436 30.2708 30.6579L33.6973 39.9917C32.7642 40.2733 31.7986 40.4159 30.8208 40.4159ZM41.2698 43.2199L38.1483 40.0988C37.9195 39.8701 37.5485 39.8701 37.3196 40.0988L35.6118 41.8064L31.807 31.4421L42.1728 35.2464L40.465 36.954C40.2381 37.1722 40.238 37.5643 40.4651 37.7826L43.5865 40.9036L41.2698 43.2199Z" fill="#001042"></path><path d="M25.2655 15.8465C25.8404 15.7963 26.4264 15.7963 27.0014 15.8465C27.3188 15.8759 27.609 15.637 27.636 15.3139C27.6641 14.9916 27.4257 14.7075 27.1034 14.6793C26.4608 14.6232 25.806 14.6232 25.1634 14.6793C24.3938 14.773 24.4905 15.8883 25.2655 15.8465Z" fill="#001042"></path><path d="M20.0836 17.7158C20.1995 17.7158 20.3168 17.6814 20.4191 17.6097C20.6552 17.4444 20.9017 17.2874 21.1518 17.143C21.4013 16.9989 21.6605 16.8639 21.9224 16.7417C22.2156 16.6049 22.3424 16.2564 22.2056 15.9632C22.0688 15.67 21.7204 15.5434 21.4271 15.68C21.1345 15.8165 20.8447 15.9673 20.5659 16.1283C20.2864 16.2897 20.0109 16.4652 19.747 16.65C19.2783 16.9762 19.5208 17.7203 20.0836 17.7158Z" fill="#001042"></path><path d="M17.8292 19.2403C17.5643 19.0547 17.199 19.1191 17.0133 19.3841C16.8285 19.648 16.6529 19.9236 16.4916 20.2029C16.3304 20.4822 16.1795 20.772 16.0433 21.0642C15.9066 21.3574 16.0334 21.7059 16.3267 21.8427C16.6131 21.9782 16.968 21.8555 17.1051 21.5593C17.227 21.2978 17.362 21.0386 17.5063 20.7887C17.6505 20.5387 17.8076 20.2922 17.973 20.0561C18.1585 19.7911 18.0942 19.4259 17.8292 19.2403Z" fill="#001042"></path><path d="M16.2094 26.6364C16.1589 26.06 16.1589 25.4771 16.2094 24.9006C16.2505 24.1264 15.1364 24.0279 15.0423 24.7985C14.9859 25.4428 14.9859 26.0942 15.0423 26.7386C15.1374 27.5098 16.2508 27.41 16.2094 26.6364Z" fill="#001042"></path><path d="M17.5053 30.7487C17.361 30.4988 17.226 30.2396 17.1041 29.9782C16.7527 29.2872 15.7388 29.7588 16.0423 30.4732C16.3156 31.0594 16.6412 31.6237 17.0123 32.1534C17.1263 32.3162 17.308 32.4033 17.4927 32.4033C17.9533 32.4132 18.2475 31.8572 17.972 31.4815C17.8066 31.2451 17.6495 30.9986 17.5053 30.7487Z" fill="#001042"></path><path d="M30.3417 16.7418C30.8667 16.9867 31.3711 17.2779 31.8451 17.6098C32.4931 18.0324 33.1381 17.1185 32.5172 16.6501C31.9874 16.2791 31.4239 15.9537 30.8371 15.6801C30.1235 15.3767 29.6501 16.3895 30.3417 16.7418Z" fill="#001042"></path><defs><linearGradient id="paint0_linear_2611_43" x1="23.7871" y1="24.4517" x2="38.6967" y2="25.8754" gradientUnits="userSpaceOnUse"><stop stop-color="#0082F8"></stop><stop offset="1" stop-color="#1C40F2"></stop></linearGradient></defs></svg>