<svg xmlns="http://www.w3.org/2000/svg" width="60" height="60" viewBox="0 0 60 60" fill="none"><circle cx="30" cy="30" r="30" fill="#6CBAFF" fill-opacity="0.1"></circle><g clip-path="url(#clip0_2611_46)"><path fill-rule="evenodd" clip-rule="evenodd" d="M36.0942 31.183H40.2337C42.3051 31.183 44.0001 29.4882 44.0001 27.4167C44.0011 25.3332 42.283 23.631 40.1998 23.6503C40.8116 15.9696 30.6202 13.2057 27.2152 19.993C24.2375 17.6547 19.7449 19.827 19.7663 23.6503C17.6949 23.6503 16 25.3451 16 27.4166C16 29.4881 17.6949 31.1829 19.7663 31.1829H23.9059H24.5313V25.3808H35.4688V31.1777L36.0942 31.183Z" fill="url(#paint0_linear_2611_46)"></path><path d="M37.4101 40.037C36.5448 40.037 35.812 40.6145 35.5761 41.4042H31.834C31.6498 40.7878 31.1631 40.3011 30.5467 40.117V36.9043H34.3749C35.2795 36.9043 36.0155 36.1684 36.0155 35.2637V33.8053C36.0155 33.3855 35.8571 33.0021 35.5968 32.7116C35.8571 32.4211 36.0155 32.0377 36.0155 31.6179V30.1595C36.0155 29.7397 35.857 29.3563 35.5968 29.0658C35.857 28.7753 36.0155 28.3919 36.0155 27.972V26.5137C36.0155 25.609 35.2795 24.873 34.3749 24.873H25.6249C24.7203 24.873 23.9843 25.609 23.9843 26.5137V27.972C23.9843 28.3919 24.1428 28.7753 24.403 29.0658C24.1428 29.3563 23.9843 29.7397 23.9843 30.1595V31.6179C23.9843 32.0377 24.1427 32.4211 24.403 32.7116C24.1427 33.0021 23.9843 33.3855 23.9843 33.8053V35.2637C23.9843 36.1684 24.7203 36.9043 25.6249 36.9043H29.4531V40.117C28.8368 40.3012 28.3501 40.7879 28.1659 41.4042H24.4238C24.1878 40.6145 23.4551 40.037 22.5897 40.037C20.0504 40.1421 20.0512 43.7603 22.5897 43.8651C23.4551 43.8651 24.1878 43.2876 24.4237 42.4979H28.1659C28.719 44.31 31.2815 44.3088 31.8339 42.4979H35.576C36.2438 44.5835 39.2709 44.165 39.3241 41.951C39.3242 40.8956 38.4655 40.037 37.4101 40.037ZM25.0781 26.5137C25.0781 26.2121 25.3234 25.9668 25.6249 25.9668H34.3749C34.6765 25.9668 34.9218 26.2121 34.9218 26.5137V27.972C34.9218 28.2736 34.6765 28.5189 34.3749 28.5189H25.6249C25.3234 28.5189 25.0781 28.2736 25.0781 27.972V26.5137ZM25.0781 30.1595C25.0781 29.858 25.3234 29.6127 25.6249 29.6127H34.3749C34.6765 29.6127 34.9218 29.858 34.9218 30.1595V31.6179C34.9218 31.9194 34.6765 32.1647 34.3749 32.1647H25.6249C25.3234 32.1647 25.0781 31.9194 25.0781 31.6179V30.1595ZM25.0781 35.2637V33.8053C25.0781 33.5038 25.3234 33.2584 25.6249 33.2584H34.3749C34.6765 33.2584 34.9218 33.5038 34.9218 33.8053V35.2637C34.9218 35.5653 34.6765 35.8106 34.3749 35.8106H25.6249C25.3234 35.8106 25.0781 35.5653 25.0781 35.2637ZM22.5898 42.7713C22.1375 42.7713 21.7695 42.4034 21.7695 41.951C21.8145 40.8627 23.3652 40.8631 23.4101 41.951C23.4101 42.4034 23.0421 42.7713 22.5898 42.7713ZM30 42.7713C29.5477 42.7713 29.1797 42.4034 29.1797 41.951C29.2247 40.863 30.7748 40.863 30.8203 41.9505C30.8202 41.9509 30.8202 41.9512 30.8203 41.9516C30.82 42.4037 30.4522 42.7713 30 42.7713ZM37.4101 42.7713C36.9578 42.7713 36.5898 42.4034 36.5898 41.951C36.6348 40.8627 38.1856 40.8631 38.2304 41.951C38.2304 42.4034 37.8625 42.7713 37.4101 42.7713Z" fill="#001042"></path></g><defs><linearGradient id="paint0_linear_2611_46" x1="16" y1="17.2361" x2="45.0193" y2="22.3914" gradientUnits="userSpaceOnUse"><stop stop-color="#0082F8"></stop><stop offset="1" stop-color="#1C40F2"></stop></linearGradient><clipPath id="clip0_2611_46"><rect width="28" height="28" fill="white" transform="translate(16 16)"></rect></clipPath></defs></svg>