<svg xmlns="http://www.w3.org/2000/svg" width="49" height="48" viewBox="0 0 49 48" fill="none"><ellipse cx="24.1096" cy="24" rx="24.1096" ry="24" fill="#002BFF" fill-opacity="0.05"></ellipse><g clip-path="url(#clip0_1047_86)"><path fill-rule="evenodd" clip-rule="evenodd" d="M17.2031 17.6719H30.7969V26.5782L27.0469 30.3282H17.2031V17.6719Z" fill="url(#paint0_linear_1047_86)"></path><path d="M20.4844 22.5937C20.7428 22.5937 20.9531 22.804 20.9531 23.0625C20.9761 23.6839 21.8679 23.6831 21.8906 23.0625C21.8202 21.2 19.1487 21.1995 19.0781 23.0625V24.9375C19.1486 26.8001 21.82 26.8005 21.8906 24.9375C21.8906 24.6787 21.6808 24.4688 21.4219 24.4688C21.163 24.4688 20.9531 24.6787 20.9531 24.9375C20.9298 25.558 20.0393 25.5589 20.0156 24.9375V23.0625C20.0156 22.8041 20.2259 22.5937 20.4844 22.5937Z" fill="white"></path><path d="M28.4531 21.6562C28.1942 21.6562 27.9844 21.8661 27.9844 22.125V24.9375C27.9844 25.196 27.7741 25.4062 27.5156 25.4062C27.2572 25.4062 27.0469 25.196 27.0469 24.9375V22.125C27.0469 21.8661 26.837 21.6562 26.5781 21.6562C26.3192 21.6562 26.1094 21.8661 26.1094 22.125V24.9375C26.1797 26.7998 28.8512 26.8006 28.9219 24.9375V22.125C28.9219 21.8661 28.712 21.6562 28.4531 21.6562Z" fill="white"></path><path d="M24 21.6562H23.0625C22.8036 21.6562 22.5938 21.8661 22.5938 22.125V25.875C22.6163 26.4952 23.508 26.4968 23.5312 25.875V24.4687H24C25.8631 24.398 25.8623 21.7265 24 21.6562ZM24 23.5312H23.5312V22.5937H24C24.621 22.6173 24.6208 23.5078 24 23.5312Z" fill="white"></path><path d="M34.5938 25.4062C36.4571 25.3353 36.456 22.6641 34.5938 22.5937H33.375V20.7187H34.5938C35.3692 20.7187 36 20.0879 36 19.3125C36 18.5371 35.3692 17.9062 34.5938 17.9062H33.375V16.5C33.375 15.7246 32.7442 15.0937 31.9688 15.0937H30.0938V13.4062C30.0937 12.6308 29.4629 12 28.6875 12C27.9121 12 27.2812 12.6308 27.2812 13.4062V15.0937H25.4062V13.4062C25.4062 12.6308 24.7754 12 24 12C23.2246 12 22.5937 12.6308 22.5937 13.4062V15.0937H20.7187V13.4062C20.7188 12.6308 20.0879 12 19.3125 12C18.5371 12 17.9062 12.6308 17.9062 13.4062V15.0937H16.0312C15.2558 15.0937 14.625 15.7246 14.625 16.5V17.9063H13.4062C12.6308 17.9063 12 18.5371 12 19.3125C12 20.0879 12.6308 20.7188 13.4062 20.7188H14.625V22.5937H13.4062C12.6308 22.5937 12 23.2246 12 24C12 24.7754 12.6308 25.4062 13.4062 25.4062H14.625V27.2812H13.4062C12.6308 27.2812 12 27.9121 12 28.6875C12 29.4629 12.6308 30.0937 13.4062 30.0937H14.625V31.5C14.625 32.2754 15.2559 32.9062 16.0313 32.9062H17.9063V34.5938C17.9063 35.3692 18.5371 36 19.3125 36C20.0879 36 20.7188 35.3692 20.7188 34.5938V32.9062H22.5938V34.5938C22.5938 35.3692 23.2246 36 24 36C24.7754 36 25.4063 35.3692 25.4063 34.5938V32.9062H27.2813V34.5938C27.2813 35.3692 27.9121 36 28.6875 36C29.4629 36 30.0938 35.3692 30.0938 34.5938V32.9062H31.9688C32.7442 32.9062 33.375 32.2754 33.375 31.5V30.0937H34.5938C35.3692 30.0937 36 29.4629 36 28.6875C36 27.9121 35.3692 27.2812 34.5938 27.2812H33.375V25.4062H34.5938ZM34.5938 23.5312C35.2148 23.5549 35.2146 24.4452 34.5938 24.4687H33.375V23.5312H34.5938ZM34.5938 18.8437C35.2148 18.8674 35.2146 19.7577 34.5938 19.7812H33.375V18.8437H34.5938ZM28.2187 13.4062C28.2423 12.7852 29.1327 12.7854 29.1562 13.4062V15.0937H28.2187V13.4062ZM23.5312 13.4062C23.5548 12.7853 24.4452 12.7854 24.4687 13.4062V15.0937H23.5312V13.4062ZM18.8438 13.4062C18.8674 12.7852 19.7578 12.7854 19.7813 13.4062V15.0937H18.8438V13.4062ZM13.4062 19.7813C12.7852 19.7577 12.7854 18.8673 13.4062 18.8438H14.625V19.7813H13.4062ZM13.4062 24.4687C12.7852 24.4451 12.7854 23.5547 13.4062 23.5312H14.625V24.4687H13.4062ZM13.4062 29.1562C12.7852 29.1326 12.7854 28.2422 13.4062 28.2187H14.625V29.1562H13.4062ZM19.7813 34.5938C19.7577 35.2147 18.8673 35.2146 18.8438 34.5938V32.9062H19.7813V34.5938ZM24.4688 34.5938C24.4452 35.2147 23.5548 35.2146 23.5313 34.5938V32.9062H24.4688V34.5938ZM29.1562 34.5938C29.1326 35.2147 28.2422 35.2146 28.2187 34.5938V32.9062H29.1562V34.5938ZM32.4375 31.5C32.4375 31.7584 32.2272 31.9687 31.9688 31.9687H16.0313C15.7728 31.9687 15.5625 31.7584 15.5625 31.5V16.5C15.5625 16.2415 15.7728 16.0312 16.0313 16.0312H31.9688C32.2272 16.0312 32.4375 16.2415 32.4375 16.5V31.5ZM34.5938 28.2187C35.2148 28.2423 35.2146 29.1327 34.5938 29.1562H33.375V28.2187H34.5938Z" fill="#001042"></path></g><defs><linearGradient id="paint0_linear_1047_86" x1="17.2031" y1="18.5979" x2="31.5851" y2="20.0727" gradientUnits="userSpaceOnUse"><stop stop-color="#0082F8"></stop><stop offset="1" stop-color="#1C40F2"></stop></linearGradient><clipPath id="clip0_1047_86"><rect width="24" height="24" fill="white" transform="translate(12 12)"></rect></clipPath></defs></svg>