<svg xmlns="http://www.w3.org/2000/svg" width="49" height="48" viewBox="0 0 49 48" fill="none"><ellipse cx="24.1096" cy="24" rx="24.1096" ry="24" fill="#002BFF" fill-opacity="0.05"></ellipse><path fill-rule="evenodd" clip-rule="evenodd" d="M23.2969 17.2585H21.4219C20.9063 17.2585 20.4844 17.6804 20.4844 18.196V29.804C20.4844 30.3196 20.9063 30.7415 21.4219 30.7415H23.2969C23.8125 30.7415 24.2344 30.3196 24.2344 29.804V18.196C24.2344 17.6804 23.8126 17.2585 23.2969 17.2585Z" fill="url(#paint0_linear_1049_193)"></path><path fill-rule="evenodd" clip-rule="evenodd" d="M27.9844 13.4062V34.5938H30.7969C31.3125 34.5938 31.7344 34.1718 31.7344 33.6562V14.3438C31.7344 13.8282 31.3125 13.4062 30.7969 13.4062H27.9844Z" fill="url(#paint1_linear_1049_193)"></path><path d="M29.8594 17.7273C30.4805 17.7043 30.4803 16.8127 29.8594 16.7898H28.4531V15.8011H29.8594C30.1183 15.8011 30.3281 15.5912 30.3281 15.3324C30.3281 15.0735 30.1183 14.8636 29.8594 14.8636H28.4531V13.4062C28.4531 12.6308 27.8223 12 27.0469 12H24.2344C23.9755 12 23.7656 12.2099 23.7656 12.4688C23.7656 13.2442 23.1348 13.875 22.3594 13.875C21.584 13.875 20.9531 13.2442 20.9531 12.4688C20.9531 12.2099 20.7433 12 20.4844 12H17.6719C16.8965 12 16.2656 12.6308 16.2656 13.4062V34.5938C16.2656 35.3692 16.8965 36 17.6719 36H20.4844C20.7433 36 20.9531 35.7901 20.9531 35.5312C20.9531 34.7558 21.584 34.125 22.3594 34.125C23.1348 34.125 23.7656 34.7558 23.7656 35.5312C23.7656 35.7901 23.9755 36 24.2344 36H27.0469C27.8223 36 28.4531 35.3692 28.4531 34.5938V33.1363H29.8594C30.1183 33.1363 30.3281 32.9264 30.3281 32.6676C30.3281 32.4087 30.1183 32.1988 29.8594 32.1988H28.4531V31.2102H29.8594C30.1183 31.2102 30.3281 31.0003 30.3281 30.7414C30.3281 30.4826 30.1183 30.2727 29.8594 30.2727H28.4531V29.2841H29.8594C30.1183 29.2841 30.3281 29.0742 30.3281 28.8153C30.3281 28.5565 30.1183 28.3466 29.8594 28.3466H28.4531V27.3579H29.8594C30.1183 27.3579 30.3281 27.148 30.3281 26.8891C30.3281 26.6303 30.1183 26.4204 29.8594 26.4204H28.4531V25.4318H29.8594C30.1183 25.4318 30.3281 25.2218 30.3281 24.963C30.3281 24.7042 30.1183 24.4943 29.8594 24.4943H28.4531V23.5056H29.8594C30.1183 23.5056 30.3281 23.2957 30.3281 23.0369C30.3281 22.778 30.1183 22.5681 29.8594 22.5681H28.4531V21.5795H29.8594C30.1183 21.5795 30.3281 21.3696 30.3281 21.1107C30.3281 20.8519 30.1183 20.642 29.8594 20.642H28.4531V19.6533H29.8594C30.1183 19.6533 30.3281 19.4434 30.3281 19.1846C30.3281 18.9257 30.1183 18.7158 29.8594 18.7158H28.4531V17.7272H29.8594V17.7273ZM27.5156 34.5938C27.5156 34.8522 27.3053 35.0625 27.0469 35.0625H24.6561C24.1128 32.5777 20.6051 32.5795 20.0627 35.0625H17.6719C17.4134 35.0625 17.2031 34.8522 17.2031 34.5938V13.4062C17.2031 13.1478 17.4134 12.9375 17.6719 12.9375H20.0627C20.606 15.4223 24.1137 15.4205 24.656 12.9375H27.0469C27.3053 12.9375 27.5156 13.1478 27.5156 13.4062V34.5938Z" fill="#001042"></path><defs><linearGradient id="paint0_linear_1049_193" x1="20.4844" y1="18.2451" x2="24.4908" y2="18.3515" gradientUnits="userSpaceOnUse"><stop stop-color="#0082F8"></stop><stop offset="1" stop-color="#1C40F2"></stop></linearGradient><linearGradient id="paint1_linear_1049_193" x1="27.9844" y1="14.9566" x2="31.9924" y2="15.0243" gradientUnits="userSpaceOnUse"><stop stop-color="#0082F8"></stop><stop offset="1" stop-color="#1C40F2"></stop></linearGradient></defs></svg>