<svg xmlns="http://www.w3.org/2000/svg" width="61" height="61" viewBox="0 0 61 61" fill="none"><circle opacity="0.15" cx="48.5" cy="48.499" r="12.5" fill="#297FFF"></circle><path d="M24.9999 31.3711C30.9547 31.3711 35.782 26.5438 35.782 20.589C35.782 14.6342 30.9547 9.80688 24.9999 9.80688C19.0451 9.80688 14.2178 14.6342 14.2178 20.589C14.2178 26.5438 19.0451 31.3711 24.9999 31.3711Z" fill="url(#paint0_linear_2732_50)"></path><path d="M40.195 20.5889C40.195 12.2105 33.3787 5.39429 25.0003 5.39429C16.6219 5.39429 9.80566 12.2105 9.80566 20.5889C9.80566 28.9673 16.6219 35.7836 25.0003 35.7836C33.3787 35.7836 40.195 28.9673 40.195 20.5889ZM25.0003 33.8304C17.6989 33.8304 11.7588 27.8904 11.7588 20.5889C11.7588 13.2875 17.6989 7.34743 25.0003 7.34743C32.3017 7.34743 38.2418 13.2875 38.2418 20.5889C38.2418 27.8904 32.3016 33.8304 25.0003 33.8304Z" fill="#001042"></path><path d="M26.1946 19.62C24.0495 18.8619 23.8823 18.6093 23.9709 18.1054C24.142 17.1306 25.4683 17.1046 25.9989 17.5983C25.9992 17.5986 26.0056 17.6044 26.0059 17.6046C26.401 17.9714 27.0156 17.9455 27.3825 17.5506C27.7495 17.1556 27.7239 16.5352 27.3291 16.168C26.9248 15.792 26.4487 15.543 25.9245 15.4219V14.7056C25.9245 14.1663 25.4872 13.729 24.948 13.729C24.4087 13.729 23.9714 14.1663 23.9714 14.7056V15.5194C23.0207 15.8111 22.2403 16.6674 22.0472 17.7677C21.8801 18.7196 22.2025 19.6453 22.8886 20.1834C23.5815 20.7267 24.5741 21.1188 25.5436 21.4615C26.3096 21.7322 26.3321 22.3187 26.2775 22.6442C26.1862 23.1874 25.7291 23.7745 24.9413 23.7797C24.1192 23.7854 23.8857 23.7482 23.2652 23.3423C22.814 23.047 22.2088 23.1735 21.9134 23.6249C21.6181 24.0762 21.7445 24.6814 22.196 24.9767C22.8708 25.4182 23.3763 25.6105 23.9715 25.6875V26.4723C23.9715 27.0115 24.4088 27.4488 24.9481 27.4488C25.4873 27.4488 25.9246 27.0115 25.9246 26.4723V25.5867C27.2012 25.1947 28.0176 24.0739 28.2035 22.9681C28.4539 21.4788 27.6466 20.1333 26.1946 19.62Z" fill="white"></path><path d="M49.7145 41.401L41.7909 33.4774C43.5156 31.5005 42.5895 28.5142 43.1961 26.6085C43.7372 24.9077 46.0358 23.0698 46.0358 20.5889C46.0358 18.1096 43.7359 16.2662 43.1961 14.5692C42.621 12.7623 43.4244 9.95462 42.0241 7.99191C41.1572 6.77666 39.7005 6.26113 38.4153 5.80644C36.2681 5.04647 36.0353 4.86737 34.688 3.04363C33.8648 1.92907 32.9316 0.665777 31.5073 0.193899C29.2547 -0.552103 26.8836 1.09684 25.0002 1.09684C23.1122 1.09684 20.7463 -0.552689 18.4931 0.193997C17.0687 0.665777 16.1356 1.92907 15.3125 3.04363C13.9647 4.86806 13.7314 5.04696 11.5853 5.80634C10.3 6.26113 8.84328 6.77657 7.97638 7.99191C6.57598 9.95471 7.37823 12.7661 6.8044 14.5693C6.26328 16.2701 3.96473 18.1079 3.96473 20.5889C3.96473 23.0681 6.26455 24.9116 6.8044 26.6085C7.40382 28.4915 6.49385 31.5107 8.20959 33.4774L0.286089 41.401C0.0046413 41.6825 -0.0778788 42.1065 0.0775911 42.4729C0.235893 42.8461 0.603572 43.0753 0.993028 43.0681L7.03526 42.9665L6.9336 49.0087C6.92696 49.4066 7.16241 49.7688 7.52882 49.9242C7.89894 50.0811 8.32199 49.9942 8.60061 49.7157L17.7008 40.6156C19.2885 41.5712 20.8461 41.1357 22.6087 40.5939C24.8286 39.9114 25.1685 39.9104 27.3917 40.5939C29.1623 41.1382 30.7143 41.5698 32.2996 40.6156L41.3998 49.7157C41.6801 49.996 42.104 50.08 42.4717 49.9242C42.8381 49.7688 43.0735 49.4066 43.0669 49.0087L42.9652 42.9665L49.0075 43.0681C49.4083 43.0773 49.7676 42.8392 49.9229 42.4729C50.0785 42.1064 49.9959 41.6824 49.7145 41.401ZM8.01242 40.9965L3.37488 41.0746L9.79729 34.6522C11.1692 35.3384 12.7917 35.6418 13.7508 36.354C14.6059 36.9889 15.3203 38.2532 16.2351 39.3191L8.92717 46.627L9.0053 41.9894C9.01428 41.4428 8.57258 40.9896 8.01242 40.9965ZM25.0003 38.1277C22.8124 38.1277 20.5407 39.6049 19.1073 39.1295C17.5924 38.6278 16.6323 36.0608 14.9151 34.786C13.177 33.4953 10.4954 33.3538 9.56633 32.0516C8.64611 30.7617 9.33157 28.1083 8.66555 26.0163C8.01457 23.9708 5.91777 22.2758 5.91777 20.589C5.91777 18.9038 8.01535 17.2047 8.66555 15.1618C9.32961 13.0754 8.64699 10.415 9.56643 9.12629C10.4937 7.82628 13.1819 7.67882 14.9151 6.39199C16.6368 5.11386 17.5893 2.55105 19.1073 2.04831C20.5452 1.57184 22.8054 3.05027 25.0003 3.05027C27.19 3.05027 29.4556 1.57282 30.8933 2.04821C32.4083 2.55026 33.3683 5.11708 35.0857 6.39209C36.8286 7.68614 39.5037 7.82169 40.4343 9.12639C41.3557 10.4179 40.6681 13.0664 41.3351 15.1617C41.9861 17.2071 44.0829 18.9021 44.0829 20.589C44.0829 22.2741 41.9853 23.9733 41.3351 26.0162C40.6711 28.1023 41.3537 30.763 40.4343 32.0516C39.5075 33.351 36.8181 33.4997 35.0857 34.7859C33.3696 36.0601 32.4081 38.6278 30.8933 39.1296C29.4553 39.6061 27.1956 38.1277 25.0003 38.1277ZM41.9883 40.9965C41.4429 40.9853 40.9861 41.4328 40.9954 41.9893L41.0735 46.6269L33.7655 39.319C34.6809 38.2526 35.3947 36.989 36.2498 36.354C37.2117 35.64 38.82 35.3442 40.2034 34.6522L46.6258 41.0746L41.9883 40.9965Z" fill="#001042"></path><defs><linearGradient id="paint0_linear_2732_50" x1="14.2178" y1="11.3848" x2="37.064" y2="13.566" gradientUnits="userSpaceOnUse"><stop stop-color="#0082F8"></stop><stop offset="1" stop-color="#1C40F2"></stop></linearGradient></defs></svg>