<svg xmlns="http://www.w3.org/2000/svg" width="152" height="28" viewBox="0 0 152 28" fill="none"><path d="M12.9362 2.0519C13.0859 1.59125 13.7376 1.59125 13.8873 2.0519L16.3106 9.51019C16.3776 9.7162 16.5696 9.85568 16.7862 9.85568H24.6283C25.1126 9.85568 25.314 10.4755 24.9222 10.7602L18.5778 15.3697C18.4025 15.497 18.3292 15.7227 18.3961 15.9287L20.8195 23.387C20.9692 23.8476 20.4419 24.2307 20.0501 23.946L13.7057 19.3365C13.5304 19.2092 13.2931 19.2092 13.1179 19.3365L6.77348 23.946C6.38162 24.2307 5.85438 23.8476 6.00406 23.387L8.4274 15.9287C8.49434 15.7227 8.42101 15.497 8.24577 15.3697L1.90137 10.7602C1.50951 10.4755 1.7109 9.85568 2.19526 9.85568H10.0374C10.254 9.85568 10.446 9.7162 10.5129 9.51019L12.9362 2.0519Z" fill="#00D172"></path><path d="M44.2302 2.0519C44.3799 1.59125 45.0316 1.59125 45.1812 2.0519L47.6046 9.51019C47.6715 9.7162 47.8635 9.85568 48.0801 9.85568H55.9222C56.4066 9.85568 56.608 10.4755 56.2161 10.7602L49.8717 15.3697C49.6965 15.497 49.6231 15.7227 49.6901 15.9287L52.1134 23.387C52.2631 23.8476 51.7359 24.2307 51.344 23.946L44.9996 19.3365C44.8244 19.2092 44.5871 19.2092 44.4118 19.3365L38.0674 23.946C37.6756 24.2307 37.1483 23.8476 37.298 23.387L39.7213 15.9287C39.7883 15.7227 39.715 15.497 39.5397 15.3697L33.1953 10.7602C32.8035 10.4755 33.0048 9.85568 33.4892 9.85568H41.3313C41.5479 9.85568 41.7399 9.7162 41.8068 9.51019L44.2302 2.0519Z" fill="#00D172"></path><path d="M75.5241 2.0519C75.6738 1.59125 76.3255 1.59125 76.4752 2.0519L78.8985 9.51019C78.9655 9.7162 79.1574 9.85568 79.3741 9.85568H87.2162C87.7005 9.85568 87.9019 10.4755 87.5101 10.7602L81.1657 15.3697C80.9904 15.497 80.9171 15.7227 80.984 15.9287L83.4074 23.387C83.5571 23.8476 83.0298 24.2307 82.638 23.946L76.2936 19.3365C76.1183 19.2092 75.881 19.2092 75.7058 19.3365L69.3614 23.946C68.9695 24.2307 68.4423 23.8476 68.5919 23.387L71.0153 15.9287C71.0822 15.7227 71.0089 15.497 70.8337 15.3697L64.4893 10.7602C64.0974 10.4755 64.2988 9.85568 64.7832 9.85568H72.6253C72.8419 9.85568 73.0339 9.7162 73.1008 9.51019L75.5241 2.0519Z" fill="#00D172"></path><path d="M106.819 2.0519C106.969 1.59125 107.62 1.59125 107.77 2.0519L110.193 9.51019C110.26 9.7162 110.452 9.85568 110.669 9.85568H118.511C118.995 9.85568 119.197 10.4755 118.805 10.7602L112.461 15.3697C112.285 15.497 112.212 15.7227 112.279 15.9287L114.702 23.387C114.852 23.8476 114.325 24.2307 113.933 23.946L107.588 19.3365C107.413 19.2092 107.176 19.2092 107.001 19.3365L100.656 23.946C100.264 24.2307 99.7372 23.8476 99.8869 23.387L102.31 15.9287C102.377 15.7227 102.304 15.497 102.129 15.3697L95.7842 10.7602C95.3923 10.4755 95.5937 9.85568 96.0781 9.85568H103.92C104.137 9.85568 104.329 9.7162 104.396 9.51019L106.819 2.0519Z" fill="#00D172"></path><path d="M138.113 2.0519C138.263 1.59125 138.914 1.59125 139.064 2.0519L141.487 9.51019C141.554 9.7162 141.746 9.85568 141.963 9.85568H149.805C150.289 9.85568 150.491 10.4755 150.099 10.7602L143.755 15.3697C143.579 15.497 143.506 15.7227 143.573 15.9287L145.996 23.387C146.146 23.8476 145.619 24.2307 145.227 23.946L138.882 19.3365C138.707 19.2092 138.47 19.2092 138.295 19.3365L131.95 23.946C131.558 24.2307 131.031 23.8476 131.181 23.387L133.604 15.9287C133.671 15.7227 133.598 15.497 133.423 15.3697L127.078 10.7602C126.686 10.4755 126.888 9.85568 127.372 9.85568H135.214C135.431 9.85568 135.623 9.7162 135.69 9.51019L138.113 2.0519Z" fill="#00D172"></path></svg>