<svg xmlns="http://www.w3.org/2000/svg" width="70" height="70" viewBox="0 0 70 70" fill="none"><circle cx="35" cy="35" r="35" fill="url(#paint0_linear_2731_43)" fill-opacity="0.05"></circle><g clip-path="url(#clip0_2731_43)"><path d="M35 37.5781C39.2069 37.5781 42.6172 34.1678 42.6172 29.9609C42.6172 25.7541 39.2069 22.3438 35 22.3438C30.7931 22.3438 27.3828 25.7541 27.3828 29.9609C27.3828 34.1678 30.7931 37.5781 35 37.5781Z" fill="url(#paint1_linear_2731_43)"></path><path d="M32.3871 33.3389H37.6131C37.9033 33.3389 38.1498 33.1264 38.1926 32.8394C38.3784 31.5934 37.693 30.4709 36.6094 29.9029C36.8855 29.5535 37.0509 29.1128 37.0509 28.6339C37.0509 27.5031 36.1309 26.5831 35.0001 26.5831C33.8693 26.5831 32.9494 27.5031 32.9494 28.6339C32.9494 29.1128 33.1148 29.5535 33.3909 29.9029C32.3057 30.4718 31.6221 31.5952 31.8077 32.8394C31.8504 33.1264 32.0969 33.3389 32.3871 33.3389ZM34.1212 28.6339C34.1212 28.1492 34.5155 27.7549 35.0001 27.7549C35.4848 27.7549 35.879 28.1492 35.879 28.6339C35.879 29.1185 35.4848 29.5128 35.0001 29.5128C34.5155 29.5128 34.1212 29.1185 34.1212 28.6339ZM33.347 31.4035C33.735 30.9533 34.353 30.6846 35.0001 30.6846C35.956 30.6846 36.8645 31.2817 37.026 32.1669H32.9744C33.0246 31.8923 33.1509 31.631 33.347 31.4035Z" fill="white"></path><path d="M35 39.9219C40.4925 39.9219 44.9609 35.4534 44.9609 29.9609C44.9609 24.4685 40.4925 20 35 20C29.5075 20 25.0391 24.4685 25.0391 29.9609C25.0391 35.4534 29.5075 39.9219 35 39.9219ZM35 21.1719C39.8463 21.1719 43.7891 25.1146 43.7891 29.9609C43.7891 34.8072 39.8463 38.75 35 38.75C30.1537 38.75 26.2109 34.8072 26.2109 29.9609C26.2109 25.1146 30.1537 21.1719 35 21.1719Z" fill="#001042"></path><path d="M39.1027 44.1102L36.6308 43.751L35.5254 41.5112C35.4267 41.3112 35.223 41.1846 35 41.1846C34.7769 41.1846 34.5732 41.3112 34.4745 41.5112L33.3691 43.751L30.8972 44.1102C30.6764 44.1423 30.4932 44.2968 30.4242 44.509C30.3553 44.7211 30.4128 44.954 30.5724 45.1097L32.3611 46.8532L31.9388 49.3151C31.9011 49.5349 31.9915 49.757 32.172 49.8881C32.3525 50.0193 32.5917 50.0364 32.789 49.9328L35 48.7704L37.2108 49.9328C37.4103 50.0376 37.6492 50.0179 37.8279 49.8881C38.0083 49.757 38.0987 49.5349 38.061 49.3151L37.6387 46.8532L39.4274 45.1097C39.5871 44.954 39.6445 44.7211 39.5756 44.509C39.5068 44.2969 39.3234 44.1423 39.1027 44.1102ZM36.6002 46.229C36.4622 46.3637 36.3991 46.5576 36.4317 46.7477L36.7053 48.3431L35.2727 47.5899C35.1019 47.5002 34.8981 47.5002 34.7273 47.5899L33.2946 48.3431L33.5683 46.7477C33.6009 46.5576 33.5378 46.3637 33.3998 46.229L32.2407 45.0992L33.8424 44.8665C34.0333 44.8387 34.1983 44.7188 34.2836 44.5459L35 43.0945L35.7163 44.5459C35.8016 44.7188 35.9666 44.8387 36.1575 44.8665L37.7593 45.0992L36.6002 46.229Z" fill="#001042"></path><path d="M49.9125 44.509C49.8436 44.2969 49.6602 44.1423 49.4395 44.1102L46.9677 43.751L45.8622 41.5112C45.7635 41.3112 45.5598 41.1846 45.3368 41.1846C45.1137 41.1846 44.91 41.3112 44.8113 41.5112L43.7059 43.751L41.2341 44.1102C41.0134 44.1423 40.8301 44.2968 40.7611 44.509C40.6922 44.7211 40.7497 44.954 40.9094 45.1096L42.6979 46.8532L42.2757 49.315C42.238 49.5349 42.3284 49.757 42.5088 49.8881C42.6893 50.0193 42.9286 50.0364 43.1259 49.9327L45.3368 48.7704L47.5477 49.9327C47.6334 49.9778 47.727 50 47.8203 50C48.1849 50 48.4589 49.6711 48.3978 49.315L47.9756 46.8532L49.7642 45.1096C49.924 44.954 49.9814 44.7211 49.9125 44.509ZM46.937 46.229C46.799 46.3637 46.7359 46.5576 46.7685 46.7477L47.0421 48.343L45.6095 47.5899C45.4387 47.5002 45.2349 47.5002 45.0641 47.5899L43.6314 48.343L43.9051 46.7477C43.9377 46.5576 43.8746 46.3637 43.7366 46.229L42.5775 45.0992L44.1793 44.8665C44.3702 44.8387 44.5351 44.7188 44.6205 44.5459L45.3368 43.0945L46.0532 44.5459C46.1386 44.7188 46.3035 44.8387 46.4944 44.8665L48.0962 45.0992L46.937 46.229Z" fill="#001042"></path><path d="M28.7657 44.1102L26.2938 43.751L25.1884 41.5112C25.0897 41.3112 24.886 41.1846 24.663 41.1846C24.4399 41.1846 24.2362 41.3112 24.1375 41.5112L23.0321 43.751L20.5603 44.1102C20.3395 44.1423 20.1562 44.2968 20.0873 44.509C20.0184 44.7211 20.0759 44.954 20.2355 45.1097L22.0242 46.8532L21.6019 49.3151C21.5643 49.5349 21.6546 49.757 21.8351 49.8881C22.0155 50.0193 22.2547 50.0364 22.4521 49.9328L24.663 48.7704L26.8738 49.9328C27.0733 50.0376 27.3122 50.0179 27.4909 49.8881C27.6713 49.757 27.7617 49.5349 27.724 49.3151L27.3017 46.8532L29.0904 45.1097C29.2501 44.954 29.3075 44.7211 29.2386 44.509C29.1697 44.2969 28.9864 44.1423 28.7657 44.1102ZM26.2632 46.229C26.1251 46.3637 26.0621 46.5576 26.0947 46.7477L26.3683 48.3431L24.9357 47.5899C24.7649 47.5002 24.5611 47.5002 24.3903 47.5899L22.9577 48.343L23.2313 46.7477C23.2639 46.5576 23.2008 46.3636 23.0628 46.229L21.9037 45.0992L23.5055 44.8664C23.6964 44.8387 23.8613 44.7188 23.9467 44.5459L24.663 43.0944L25.3793 44.5459C25.4647 44.7188 25.6297 44.8387 25.8206 44.8664L27.4223 45.0992L26.2632 46.229Z" fill="#001042"></path></g><defs><linearGradient id="paint0_linear_2731_43" x1="-4.88915e-07" y1="5.12196" x2="74.1616" y2="12.2025" gradientUnits="userSpaceOnUse"><stop stop-color="#0082F8"></stop><stop offset="1" stop-color="#1C40F2"></stop></linearGradient><linearGradient id="paint1_linear_2731_43" x1="27.3828" y1="23.4585" x2="43.5229" y2="24.9994" gradientUnits="userSpaceOnUse"><stop stop-color="#0082F8"></stop><stop offset="1" stop-color="#1C40F2"></stop></linearGradient><clipPath id="clip0_2731_43"><rect width="30" height="30" fill="white" transform="translate(20 20)"></rect></clipPath></defs></svg>