<svg xmlns="http://www.w3.org/2000/svg" width="50" height="50" viewBox="0 0 50 50" fill="none"><circle cx="25" cy="25" r="25" fill="#F98012" fill-opacity="0.1"></circle><path d="M15.3758 29.8456V26.7533C15.3758 26.108 15.1039 25.7825 14.566 25.7825C14.0251 25.7825 13.7533 26.1052 13.7533 26.7533V29.8456H12.1597V26.7533C12.1597 26.108 11.8936 25.7825 11.3614 25.7825C10.8206 25.7825 10.5516 26.1052 10.5516 26.7533V29.8456H8.95801V26.5706C8.95801 25.8967 9.19517 25.3856 9.66949 25.0401C10.086 24.7318 10.6528 24.5747 11.3643 24.5747C12.0845 24.5747 12.6166 24.7574 12.9579 25.1229C13.2529 24.7574 13.788 24.5747 14.566 24.5747C15.2775 24.5747 15.8414 24.7289 16.2579 25.0401C16.7322 25.3856 16.9694 25.8967 16.9694 26.5706V29.8456H15.3758Z" fill="#F98012"></path><path d="M34.9121 29.8315V21H36.5086V29.8315H34.9121Z" fill="#F98012"></path><path d="M32.8793 29.8315V29.3119C32.7375 29.5003 32.4946 29.6488 32.1533 29.763C31.8496 29.8658 31.5604 29.9172 31.2857 29.9172C30.525 29.9172 29.9148 29.6602 29.4549 29.1434C28.995 28.6294 28.7637 27.9898 28.7637 27.2303C28.7637 26.4794 28.9893 25.8512 29.4404 25.3458C29.8396 24.8975 30.4932 24.5863 31.2423 24.5863C32.0868 24.5863 32.5814 24.9004 32.8793 25.2602V21H34.4324V29.8315H32.8793ZM32.8793 26.8905C32.8793 26.6107 32.7433 26.3395 32.4744 26.0825C32.2054 25.8255 31.9248 25.697 31.6414 25.697C31.2336 25.697 30.9097 25.8626 30.6725 26.1881C30.4643 26.4794 30.3602 26.8363 30.3602 27.256C30.3602 27.6701 30.4643 28.0213 30.6725 28.3096C30.9097 28.6466 31.2336 28.815 31.6414 28.815C31.8872 28.815 32.1562 28.7008 32.4454 28.4695C32.7347 28.2411 32.8793 28.0041 32.8793 27.7586V26.8905Z" fill="#F98012"></path><path d="M25.7588 29.9714C24.9518 29.9714 24.2837 29.7173 23.7573 29.2119C23.231 28.7065 22.9678 28.0555 22.9678 27.256C22.9678 26.4594 23.231 25.8084 23.7573 25.303C24.2837 24.7976 24.9518 24.5435 25.7588 24.5435C26.5657 24.5435 27.2367 24.7976 27.7659 25.303C28.2981 25.8084 28.5642 26.4622 28.5642 27.256C28.5642 28.0527 28.2981 28.7037 27.7659 29.2119C27.2338 29.7173 26.5657 29.9714 25.7588 29.9714ZM25.7588 25.8084C25.3741 25.8084 25.0791 25.9511 24.8708 26.2395C24.6655 26.5279 24.5614 26.8677 24.5614 27.2646C24.5614 27.6615 24.6568 27.9955 24.8506 28.2668C25.0704 28.578 25.3741 28.7322 25.7588 28.7322C26.1434 28.7322 26.4442 28.578 26.6669 28.2668C26.8694 27.9927 26.9706 27.6586 26.9706 27.2646C26.9706 26.8677 26.8751 26.5336 26.6814 26.2624C26.4587 25.9597 26.1521 25.8084 25.7588 25.8084Z" fill="#F98012"></path><path d="M19.9892 29.9714C19.1823 29.9714 18.5142 29.7173 17.9878 29.2119C17.4614 28.7065 17.1982 28.0555 17.1982 27.256C17.1982 26.4594 17.4614 25.8084 17.9878 25.303C18.5142 24.7976 19.1823 24.5435 19.9892 24.5435C20.7961 24.5435 21.4642 24.7976 21.9964 25.303C22.5286 25.8084 22.7946 26.4622 22.7946 27.256C22.7946 28.0527 22.5286 28.7037 21.9964 29.2119C21.4671 29.7173 20.7961 29.9714 19.9892 29.9714ZM19.9892 25.8084C19.6046 25.8084 19.3095 25.9511 19.1013 26.2395C18.896 26.5279 18.7918 26.8677 18.7918 27.2646C18.7918 27.6615 18.8873 27.9955 19.0811 28.2668C19.3009 28.578 19.6046 28.7322 19.9892 28.7322C20.3739 28.7322 20.6747 28.578 20.8974 28.2668C21.0998 27.9927 21.201 27.6586 21.201 27.2646C21.201 26.8677 21.1056 26.5336 20.9118 26.2624C20.692 25.9597 20.3854 25.8084 19.9892 25.8084Z" fill="#F98012"></path><path d="M38.3973 27.7356C38.432 28.1096 38.9237 28.9177 39.7364 28.9177C40.526 28.9177 40.8991 28.4666 40.9193 28.2838L42.5997 28.2695C42.4175 28.8235 41.6713 29.9999 39.7075 29.9999C38.8919 29.9999 38.1428 29.7486 37.6077 29.2489C37.0727 28.7464 36.8037 28.0925 36.8037 27.2873C36.8037 26.4536 37.0727 25.7911 37.6077 25.2971C38.1457 24.806 38.8398 24.5576 39.6959 24.5576C40.6272 24.5576 41.3531 24.8631 41.8737 25.4713C42.3567 26.0338 42.5997 26.7876 42.5997 27.7356H38.3973ZM41.0032 26.7648C40.9367 26.4279 40.7949 26.1509 40.5751 25.9339C40.3264 25.6997 40.043 25.5827 39.719 25.5827C39.3864 25.5827 39.1088 25.694 38.8861 25.9196C38.6634 26.1452 38.513 26.425 38.4378 26.7648H41.0032Z" fill="#F98012"></path><path d="M12.0527 24.3376L13.6347 23.1955L13.6144 23.127C10.7599 23.4724 9.46126 23.718 7 25.1257L7.02314 25.1885L7.21981 25.1914C7.20245 25.3855 7.17064 25.8652 7.21113 26.5905C6.93926 27.37 7.20535 27.9011 7.45407 28.4778C7.49457 27.8782 7.48878 27.2215 7.30368 26.5676C7.26608 25.8509 7.2979 25.377 7.31525 25.1942L8.94645 25.2085C8.94645 25.2085 8.93488 25.6939 8.99561 26.1536C10.4533 26.659 11.9196 26.1507 12.6976 24.9058C12.4778 24.6631 12.0527 24.3376 12.0527 24.3376Z" fill="#333333"></path></svg>