<svg xmlns="http://www.w3.org/2000/svg" width="100" height="100" viewBox="0 0 100 100" fill="none"><circle cx="50" cy="50" r="50" fill="#F2F9FF"></circle><path d="M50.0004 47.7656V35.7344L41.373 32.2969V45.5622L50.0004 47.7656Z" fill="url(#paint0_linear_1016_73043)"></path><path d="M50.0005 65.125V71.1406L32.3145 65.9844V59.9688L50.0005 65.125Z" fill="url(#paint1_linear_1016_73043)"></path><path d="M50.001 65.125V71.1406L67.687 65.9844V59.9688L50.001 65.125Z" fill="url(#paint2_linear_1016_73043)"></path><path d="M71.8686 49.8883C67.2599 42.5438 67.5372 42.9743 67.463 42.8925C67.3848 42.8066 67.2862 42.7333 67.1715 42.6832C67.0037 42.6091 67.14 42.6726 59.4901 40.7086C59.4901 31.677 59.4915 32.3008 59.4881 32.2448C59.4667 31.9048 59.2495 31.6192 58.9478 31.499L50.3204 28.0615C50.1147 27.9795 49.8853 27.9795 49.6796 28.0615C40.4639 31.7339 41.0383 31.5017 40.9712 31.5368C40.7064 31.6754 40.5428 31.9332 40.5149 32.2107C40.5025 32.3338 40.5137 32.1178 40.51 40.7085C32.6755 42.7102 32.8903 42.6375 32.7312 42.733C32.6158 42.8027 32.5139 42.901 32.44 43.0213L28.1314 49.8883C27.8313 50.3667 28.0681 50.9993 28.6093 51.1651L31.4512 52.0362V65.9844C31.4512 66.3661 31.7039 66.702 32.0716 66.8092C50.7883 72.2659 49.7402 71.9729 49.8894 71.9921C49.9701 72.0025 50.0284 72.0027 50.1105 71.9921C50.243 71.975 49.0633 72.3061 67.9283 66.8092C68.2961 66.702 68.5488 66.3661 68.5488 65.9844V52.0362L71.3907 51.1652C71.9319 50.9993 72.1687 50.3667 71.8686 49.8883ZM42.2354 33.5662L49.6796 36.5323C49.8851 36.6143 50.1147 36.6143 50.3204 36.5323L57.7646 33.5662V44.8954L50 46.8785L42.2354 44.8954V33.5662ZM63.3499 43.4688L59.4901 44.4546V42.4829L63.3499 43.4688ZM50 29.7851L56.3043 32.2969L50 34.8089L43.6957 32.2969L50 29.7851ZM40.5099 44.4546L36.6502 43.4688L40.5099 42.4829V44.4546ZM33.5738 44.4574L48.7031 48.3217L45.2717 54.4739C44.1709 54.1365 30.9 50.0691 30.1895 49.8513L33.5738 44.4574ZM33.1767 52.565L45.4326 56.3213C45.8213 56.4405 46.2422 56.273 46.4405 55.9174L49.1373 51.0822V69.9937L33.1767 65.3406V52.565ZM66.8233 65.3406L50.8627 69.9938V51.0822L53.5595 55.9174C53.7589 56.2749 54.1807 56.4401 54.5674 56.3214L66.8233 52.565V65.3406ZM54.7283 54.4739L51.297 48.3217L66.4262 44.4574L69.8104 49.8513C69.0301 50.0904 55.7393 54.164 54.7283 54.4739Z" fill="#001042"></path><defs><linearGradient id="paint0_linear_1016_73043" x1="41.373" y1="33.4287" x2="50.5705" y2="33.9185" gradientUnits="userSpaceOnUse"><stop stop-color="#0082F8"></stop><stop offset="1" stop-color="#1C40F2"></stop></linearGradient><linearGradient id="paint1_linear_1016_73043" x1="32.3145" y1="60.7862" x2="50.8004" y2="63.5803" gradientUnits="userSpaceOnUse"><stop stop-color="#0082F8"></stop><stop offset="1" stop-color="#1C40F2"></stop></linearGradient><linearGradient id="paint2_linear_1016_73043" x1="50.001" y1="60.7862" x2="68.487" y2="63.5803" gradientUnits="userSpaceOnUse"><stop stop-color="#0082F8"></stop><stop offset="1" stop-color="#1C40F2"></stop></linearGradient></defs></svg>