<svg xmlns="http://www.w3.org/2000/svg" width="100" height="100" viewBox="0 0 100 100" fill="none"><circle cx="50" cy="50" r="50" fill="#F2F9FF"></circle><g clip-path="url(#clip0_1016_73058)"><path fill-rule="evenodd" clip-rule="evenodd" d="M43.125 56.5022H56.875V60.7991H43.125V56.5022Z" fill="url(#paint0_linear_1016_73058)"></path><path fill-rule="evenodd" clip-rule="evenodd" d="M50 36.307C57.594 36.307 63.75 42.463 63.75 50.057H67.7031C66.7679 26.5684 33.2235 26.5863 32.2969 50.057H36.25C36.25 42.463 42.4061 36.307 50 36.307Z" fill="url(#paint1_linear_1016_73058)"></path><path d="M50 28.0569C37.8691 28.0569 28 37.926 28 50.0569C29.2085 79.243 70.796 79.2344 72 50.0567C72 37.926 62.1309 28.0569 50 28.0569ZM50 70.3382C38.817 70.3382 29.7188 61.24 29.7188 50.0569C30.8328 23.151 69.1713 23.1589 70.2812 50.0571C70.2812 61.24 61.1831 70.3382 50 70.3382Z" fill="#001042"></path><path d="M50 31.4944C39.7646 31.4944 31.4375 39.8215 31.4375 50.0569C32.4571 74.6826 67.5465 74.6754 68.5625 50.0567C68.5625 39.8215 60.2354 31.4944 50 31.4944ZM50 66.9007C41.0005 66.9007 33.6269 59.8063 33.178 50.9163H36.25C37.3902 50.8709 37.3894 49.2426 36.25 49.1975H33.178C33.3012 46.7569 33.9464 44.4515 35.0039 42.3912L37.6606 43.925C38.0643 44.1602 38.5958 44.0253 38.8345 43.6105C39.0718 43.1994 38.931 42.6739 38.52 42.4366L35.8658 40.9041C37.1581 38.9153 38.8585 37.2148 40.8473 35.9226L42.3797 38.5768C42.9909 39.5437 44.3995 38.722 43.8681 37.7174L42.3343 35.0607C44.3946 34.0032 46.7 33.358 49.1406 33.2348V36.3069C49.1861 37.4471 50.8143 37.4462 50.8594 36.3069V33.2348C53.3001 33.358 55.6054 34.0032 57.6658 35.0607L56.132 37.7174C55.8946 38.1284 56.0355 38.6539 56.4465 38.8913C56.8503 39.1265 57.3818 38.9916 57.6204 38.5768L59.1529 35.9226C61.1417 37.2149 62.8421 38.9153 64.1344 40.9041L61.4802 42.4366C61.0692 42.6739 60.9283 43.1994 61.1657 43.6105C61.4043 44.0253 61.9359 44.1602 62.3396 43.925L64.9963 42.3911C66.0537 44.4514 66.6989 46.7568 66.8222 49.1974H63.75C62.6098 49.2429 62.6106 50.8712 63.75 50.9162H66.8222C66.3732 59.8063 58.9995 66.9007 50 66.9007Z" fill="#001042"></path><path d="M50.8594 47.1741V40.0882C50.8139 38.948 49.1856 38.9489 49.1406 40.0882V47.1741C47.8995 47.5448 46.9922 48.6969 46.9922 50.0569C47.1574 54.0472 52.8432 54.046 53.0078 50.0569C53.0078 48.6969 52.1005 47.5448 50.8594 47.1741ZM50 51.346C49.2892 51.346 48.7109 50.7677 48.7109 50.0569C48.7817 48.3467 51.2185 48.3473 51.2891 50.0569C51.2891 50.7677 50.7108 51.346 50 51.346Z" fill="url(#paint2_linear_1016_73058)"></path></g><defs><linearGradient id="paint0_linear_1016_73058" x1="43.125" y1="56.8166" x2="56.5702" y2="60.9244" gradientUnits="userSpaceOnUse"><stop stop-color="#0082F8"></stop><stop offset="1" stop-color="#1C40F2"></stop></linearGradient><linearGradient id="paint1_linear_1016_73058" x1="32.2969" y1="33.7358" x2="68.8047" y2="40.7439" gradientUnits="userSpaceOnUse"><stop stop-color="#0082F8"></stop><stop offset="1" stop-color="#1C40F2"></stop></linearGradient><linearGradient id="paint2_linear_1016_73058" x1="46.9922" y1="40.2443" x2="53.4124" y2="40.5112" gradientUnits="userSpaceOnUse"><stop stop-color="#0082F8"></stop><stop offset="1" stop-color="#1C40F2"></stop></linearGradient><clipPath id="clip0_1016_73058"><rect width="44" height="44" fill="white" transform="translate(28 28)"></rect></clipPath></defs></svg>