<svg xmlns="http://www.w3.org/2000/svg" width="54" height="61" viewBox="0 0 54 61" fill="none"><circle opacity="0.15" cx="38.5" cy="48.5" r="12.5" fill="#297FFF"></circle><path fill-rule="evenodd" clip-rule="evenodd" d="M5.89844 5.97852H48.2116V33.1537H5.89844V5.97852Z" fill="url(#paint0_linear_2732_46)"></path><path d="M50.843 0H3.26706C1.52591 0 0.109375 1.46289 0.109375 3.261V35.8712C0.109375 37.6693 1.52591 39.1322 3.26706 39.1322H20.727L19.83 45.6545H18.6346C17.2395 45.708 17.2405 47.7756 18.6346 47.8285H35.4755C36.8706 47.775 36.8696 45.7074 35.4755 45.6545H34.2801L33.383 39.1322H50.843C52.5842 39.1322 54.0007 37.6693 54.0007 35.8712V3.261C54.0007 1.46289 52.5842 0 50.843 0ZM32.1539 45.6545H21.9562L22.8533 39.1322H31.2568L32.1539 45.6545ZM51.8956 35.8712C51.8956 36.4705 51.4234 36.9582 50.843 36.9582H3.26706C2.68668 36.9582 2.2145 36.4705 2.2145 35.8712V3.261C2.2145 2.66163 2.68668 2.174 3.26706 2.174H50.843C51.4234 2.174 51.8956 2.66163 51.8956 3.261V35.8712Z" fill="#020288"></path><path d="M27.0557 9.78271C18.4949 9.78271 11.5303 16.9753 11.5303 25.8161C11.5303 26.4164 12.0015 26.9031 12.5828 26.9031H15.0219C16.417 26.8496 16.4159 24.782 15.0219 24.7291H13.6762C13.9031 21.7233 15.0625 18.9836 16.8552 16.8191L17.126 17.0988C18.1489 18.0798 19.5641 16.617 18.6146 15.5615L18.3438 15.2819C20.4398 13.4305 23.0927 12.2331 26.0032 11.9989V13.3886C26.055 14.8293 28.0571 14.8282 28.1083 13.3886V11.9989C31.0189 12.2331 33.6717 13.4306 35.7677 15.2819L35.4969 15.5615C34.5471 16.6181 35.9636 18.0793 36.9855 17.0988L37.2562 16.8192C39.049 18.9836 40.2084 21.7233 40.4352 24.7292H39.0895C37.6944 24.7827 37.6955 26.8503 39.0895 26.9032H41.5286C42.1099 26.9032 42.5811 26.4166 42.5811 25.8162C42.5811 16.9753 35.6165 9.78271 27.0557 9.78271Z" fill="white"></path><path d="M32.8658 18.2792L28.6129 22.6711C26.3978 21.4567 23.601 23.2132 23.6351 25.8164C23.6351 27.7643 25.1696 29.3491 27.0559 29.3491C29.5763 29.384 31.2776 26.496 30.1014 24.2085L34.3542 19.8166C34.7652 19.3922 34.7653 18.7039 34.3542 18.2794C33.9432 17.8548 33.2768 17.8548 32.8658 18.2792ZM27.0558 27.175C26.3303 27.175 25.7401 26.5655 25.7401 25.8163C25.8062 24.0162 28.3056 24.0166 28.3715 25.8163C28.3715 26.5655 27.7813 27.175 27.0558 27.175Z" fill="white"></path><defs><linearGradient id="paint0_linear_2732_46" x1="5.89844" y1="7.96694" x2="50.1577" y2="14.5465" gradientUnits="userSpaceOnUse"><stop stop-color="#0082F8"></stop><stop offset="1" stop-color="#1C40F2"></stop></linearGradient></defs></svg>