<svg xmlns="http://www.w3.org/2000/svg" width="60" height="60" viewBox="0 0 60 60" fill="none"><circle cx="30" cy="30" r="30" fill="#6CBAFF" fill-opacity="0.1"></circle><path d="M30.07 41.3745C24.4615 38.3469 20.9414 32.48 20.9414 26.0762V21.8356C22.9466 21.1254 24.5384 19.5356 25.2492 17.5327H34.8907C35.6017 19.5356 37.1934 21.1255 39.1986 21.8356V26.0762C39.1986 32.4697 35.6871 38.3422 30.07 41.3745Z" fill="url(#paint0_linear_2611_47)"></path><path d="M33.1962 25.2094L28.1965 30.2033L26.9448 28.9531C26.2572 28.2663 25.1384 28.2663 24.4508 28.9531C23.7612 29.642 23.7612 30.757 24.4508 31.4459L26.5331 33.5258C27.4502 34.4419 28.9427 34.442 29.86 33.5258L35.6902 27.7023C36.3798 27.0136 36.38 25.8984 35.6902 25.2095C35.0026 24.5226 33.8837 24.5226 33.1962 25.2094ZM34.862 26.8733L29.0317 32.6968C28.5713 33.1568 27.8219 33.1568 27.3612 32.6968L25.279 30.6169C25.0479 30.3862 25.0479 30.0128 25.279 29.7821C25.5099 29.5515 25.8857 29.5514 26.1166 29.7821L27.7824 31.4459C28.0111 31.6744 28.3818 31.6744 28.6106 31.4459L34.0244 26.0383C34.2553 25.8077 34.631 25.8077 34.862 26.0383C35.0931 26.2692 35.093 26.6424 34.862 26.8733Z" fill="white"></path><path d="M41.5547 19.3C39.2798 19.3 37.4291 17.4518 37.4291 15.1799C37.4291 14.8563 37.1667 14.594 36.8432 14.594H23.2975C22.9738 14.594 22.7115 14.8563 22.7115 15.1799C22.7115 17.4517 20.8608 19.3 18.5859 19.3C18.2623 19.3 18 19.5623 18 19.8859V26.0762C18 34.0061 22.6131 41.2117 29.825 44.5362C29.9805 44.608 30.1599 44.6081 30.3156 44.5362C37.5175 41.2163 42.1406 34.0166 42.1406 26.0762V19.8859C42.1406 19.5623 41.8783 19.3 41.5547 19.3ZM40.9688 26.0762C40.9688 33.4326 36.6999 40.1856 30.0703 43.357C23.4407 40.1856 19.1719 33.4326 19.1719 26.0762V20.4396C21.6254 20.1686 23.5796 18.2167 23.8512 15.7657H36.2895C36.561 18.2166 38.5151 20.1686 40.9688 20.4396V26.0762Z" fill="#001042"></path><defs><linearGradient id="paint0_linear_2611_47" x1="20.9414" y1="19.2772" x2="40.3566" y2="20.6967" gradientUnits="userSpaceOnUse"><stop stop-color="#0082F8"></stop><stop offset="1" stop-color="#1C40F2"></stop></linearGradient></defs></svg>