<svg xmlns="http://www.w3.org/2000/svg" width="60" height="60" viewBox="0 0 60 60" fill="none"><circle cx="30" cy="30" r="30" fill="#6CBAFF" fill-opacity="0.1"></circle><path d="M38.494 18H17.506C17.2265 18 17 18.2666 17 18.5954V41.4046C17 41.7334 17.2265 42 17.506 42H36.9272C37.2066 42 37.4331 41.7334 37.4331 41.4046C37.4331 41.0758 37.2066 40.8092 36.9272 40.8092H18.012V19.1908H25.3238V24.3581C25.3238 24.5525 25.4045 24.7347 25.54 24.8461C25.6261 24.917 25.7275 24.9535 25.8298 24.9535C25.8884 24.9535 25.9473 24.9415 26.0037 24.9172L28 24.0571L29.9963 24.9172C30.1514 24.984 30.3246 24.9575 30.46 24.8461C30.5955 24.7347 30.6762 24.5525 30.6762 24.3581V19.1908H37.988V36.2036C37.988 36.5324 38.2146 36.799 38.494 36.799C38.7735 36.799 39 36.5324 39 36.2036V18.5954C39 18.2666 38.7735 18 38.494 18ZM29.6642 23.506L28.174 22.864C28.0616 22.8156 27.9384 22.8156 27.8261 22.864L26.3358 23.506V19.1908H29.6642V23.506Z" fill="#001042"></path><path d="M23.5352 36.1111C23.2115 36.1111 22.9492 36.3734 22.9492 36.697C22.9492 37.0206 23.2115 37.283 23.5352 37.283H29.9411C30.2647 37.283 30.527 37.0206 30.527 36.697C30.527 36.3734 30.2647 36.1111 29.9411 36.1111H23.5352Z" fill="#001042"></path><path d="M22 27.6152H34.9243V33.29H22V27.6152Z" fill="url(#paint0_linear_2611_48)"></path><path d="M38.8906 43.8366C41.7124 43.8366 43.9999 41.5464 43.9999 38.7214C43.9999 35.8963 41.7124 33.6062 38.8906 33.6062C36.0688 33.6062 33.7812 35.8963 33.7812 38.7214C33.7812 41.5464 36.0688 43.8366 38.8906 43.8366Z" fill="url(#paint1_linear_2611_48)"></path><path d="M38.707 40.266C38.5634 40.266 38.4237 40.2132 38.3156 40.1161L37.343 39.243C37.1022 39.0268 37.0822 38.6563 37.2984 38.4155C37.5145 38.1747 37.885 38.1547 38.1258 38.3709L38.6059 38.8019L39.5668 37.427C39.7522 37.1618 40.1176 37.0972 40.3827 37.2824C40.648 37.4678 40.7127 37.8331 40.5273 38.0984L39.1873 40.0157C39.0911 40.1532 38.9407 40.2429 38.774 40.2622C38.7517 40.2647 38.7293 40.266 38.707 40.266Z" fill="white"></path><defs><linearGradient id="paint0_linear_2611_48" x1="22" y1="28.0305" x2="35.1937" y2="30.8993" gradientUnits="userSpaceOnUse"><stop stop-color="#0082F8"></stop><stop offset="1" stop-color="#1C40F2"></stop></linearGradient><linearGradient id="paint1_linear_2611_48" x1="33.7812" y1="34.3548" x2="44.6076" y2="35.3872" gradientUnits="userSpaceOnUse"><stop stop-color="#0082F8"></stop><stop offset="1" stop-color="#1C40F2"></stop></linearGradient></defs></svg>