<svg xmlns="http://www.w3.org/2000/svg" width="56" height="47" viewBox="0 0 56 47" fill="none"><path fill-rule="evenodd" clip-rule="evenodd" d="M34.8907 21.9999C34.8907 14.8807 29.1193 9.10938 22.0001 9.10938C4.91948 9.74136 4.92412 34.2611 22.0003 34.8905C29.1193 34.8905 34.8907 29.1192 34.8907 21.9999ZM22.0001 16.9243C25.856 16.9243 29.2223 18.9658 31.0235 22C27.1385 28.7241 16.8591 28.7206 12.9768 22C14.778 18.9657 18.1442 16.9243 22.0001 16.9243Z" fill="url(#paint0_linear_2732_47)"></path><path d="M43.2102 18.1356L40.4625 17.9122C39.9866 15.7476 39.1415 13.7094 37.944 11.837L39.7303 9.73451C40.0201 9.39343 39.9995 8.88692 39.683 8.57041L35.4294 4.3167C35.1128 4.0002 34.6065 3.97957 34.2653 4.26952L32.1628 6.05607C30.2908 4.85871 28.2525 4.01386 26.0878 3.53785L25.8644 0.789761C25.8281 0.343576 25.4555 0 25.0078 0H18.9922C18.5445 0 18.1719 0.343576 18.1356 0.789761L17.9122 3.53785C15.7484 4.01369 13.7102 4.85871 11.8376 6.05641L9.73443 4.26961C9.39326 3.97966 8.88683 4.00037 8.57032 4.31679L4.31679 8.57041C4.00028 8.88692 3.97974 9.39343 4.26952 9.73451L6.05607 11.8372C4.85845 13.7092 4.01334 15.7474 3.53717 17.9122L0.789589 18.1355C0.343576 18.1719 0 18.5445 0 18.9922V25.0078C0 25.4553 0.343576 25.828 0.789675 25.8643L3.53785 26.0877C4.01369 28.2515 4.85862 30.2896 6.05632 32.1624L4.26952 34.2654C3.97974 34.6065 4.00028 35.113 4.31679 35.4295L8.57041 39.6832C8.88692 39.9997 9.39351 40.0203 9.73451 39.7304L11.8373 37.9439C13.7093 39.1415 15.7475 39.9866 17.9123 40.4627L18.1357 43.2102C18.172 43.6563 18.5446 43.9999 18.9922 43.9999H25.0078C25.4555 43.9999 25.8281 43.6563 25.8644 43.2102L26.0879 40.4621C28.2518 39.9861 30.2899 39.1412 32.1624 37.9436L34.2656 39.7304C34.6067 40.0203 35.1131 39.9996 35.4297 39.6832L39.6834 35.4295C39.9999 35.113 40.0204 34.6065 39.7306 34.2654L37.9441 32.1627C39.1417 30.2906 39.9868 28.2523 40.4629 26.0877L43.2105 25.8644C43.6566 25.8281 44.0002 25.4554 44.0002 25.0078V18.9922C44 18.5445 43.6564 18.1719 43.2102 18.1356ZM42.2813 24.2154L39.6788 24.427C39.2915 24.4585 38.9735 24.7459 38.9033 25.1282C38.4649 27.5119 37.5429 29.7359 36.1626 31.7385C35.9422 32.0585 35.9639 32.4865 36.2153 32.7826L37.9076 34.7744L34.7744 37.9075L32.7823 36.215C32.4862 35.9634 32.0581 35.9419 31.7383 36.1622C29.735 37.5425 27.5109 38.4645 25.1282 38.9025C24.7461 38.9728 24.4586 39.2907 24.4272 39.6781L24.2155 42.2812H19.7845L19.5729 39.6787C19.5415 39.2915 19.254 38.9735 18.8718 38.9033C16.488 38.4647 14.2639 37.5426 12.2614 36.1625C11.9417 35.9422 11.5135 35.9636 11.2174 36.2152L9.22551 37.9075L6.0925 34.7744L7.78495 32.7823C8.03648 32.4862 8.05814 32.0583 7.83771 31.7383C6.45739 29.7348 5.53546 27.5108 5.09735 25.1282C5.02714 24.7461 4.70909 24.4586 4.32186 24.4271L1.71874 24.2154V19.7845L4.32117 19.5729C4.70849 19.5414 5.02637 19.254 5.09667 18.8719C5.5352 16.488 6.45731 14.2639 7.83745 12.2615C8.05788 11.9415 8.03631 11.5135 7.78477 11.2174L6.0925 9.22559L9.22559 6.0925L11.2177 7.78503C11.5137 8.03648 11.9418 8.05823 12.2616 7.8378C14.2652 6.45748 16.4892 5.53546 18.8718 5.09753C19.254 5.02723 19.5415 4.70926 19.5729 4.32194L19.7846 1.71874H24.2156L24.4272 4.32177C24.4586 4.70909 24.7461 5.02714 25.1282 5.09735C27.5121 5.53563 29.7362 6.45756 31.7388 7.83737C32.0586 8.05771 32.4868 8.03631 32.7827 7.78469L34.7745 6.0925L37.9076 9.22559L36.2156 11.2172C35.964 11.5132 35.9424 11.9413 36.1629 12.2611C37.543 14.2641 38.465 16.4882 38.9032 18.8718C38.9735 19.2539 39.2915 19.5414 39.6787 19.5729L42.2813 19.7845V24.2154H42.2813Z" fill="#020288"></path><path d="M22 16.0649C17.9912 16.0649 14.2503 18.171 12.2376 21.5613C12.0771 21.8317 12.0771 22.1683 12.2376 22.4387C16.4422 29.7095 27.5594 29.708 31.7622 22.4385C31.9227 22.1683 31.9227 21.8317 31.7622 21.5613C29.7497 18.171 26.0089 16.0649 22 16.0649ZM21.9999 25.6522C19.986 25.6522 18.3476 24.0139 18.3476 21.9999C18.5312 17.1612 25.4695 17.1626 25.6524 22C25.6524 24.0139 24.014 25.6522 21.9999 25.6522ZM13.993 21.9999C14.9263 20.6123 16.2158 19.5096 17.7033 18.7804C16.2852 20.5686 16.2854 23.4314 17.7033 25.2195C16.2158 24.4904 14.9263 23.3875 13.993 21.9999ZM26.2965 25.2196C27.7148 23.4314 27.7146 20.5685 26.2965 18.7804C27.7841 19.5096 29.0736 20.6124 30.0069 22C29.0736 23.3876 27.7841 24.4904 26.2965 25.2196Z" fill="#020288"></path><path d="M22.0003 21.1406H21.9997C21.5252 21.1406 21.1406 21.5254 21.1406 22C21.1829 23.1385 22.8177 23.1386 22.8597 22C22.8597 21.5255 22.4749 21.1406 22.0003 21.1406Z" fill="#020288"></path><circle opacity="0.15" cx="43.5" cy="34.5" r="12.5" fill="#297FFF"></circle><defs><linearGradient id="paint0_linear_2732_47" x1="9.19141" y1="10.9958" x2="36.4201" y2="13.5872" gradientUnits="userSpaceOnUse"><stop stop-color="#0082F8"></stop><stop offset="1" stop-color="#1C40F2"></stop></linearGradient></defs></svg>