<svg xmlns="http://www.w3.org/2000/svg" width="100" height="100" viewBox="0 0 100 100" fill="none"><circle cx="50" cy="50" r="50" fill="#F2F9FF"></circle><path d="M49.9995 64.1176C57.7964 64.1176 64.1171 57.7969 64.1171 50C64.1171 42.203 57.7964 35.8823 49.9995 35.8823C42.2025 35.8823 35.8818 42.203 35.8818 50C35.8818 57.7969 42.2025 64.1176 49.9995 64.1176Z" fill="url(#paint0_linear_2605_42)"></path><path d="M45.9929 46.0068C45.6253 45.6393 45.0294 45.6393 44.6618 46.0068L41.3342 49.3343C40.9667 49.7018 40.9667 50.2978 41.3342 50.6654L44.6618 53.9929C45.0294 54.3605 45.6253 54.3605 45.9929 53.9929C46.3604 53.6254 46.3604 53.0295 45.9929 52.6618L43.3308 49.9999L45.9929 47.3379C46.3603 46.9704 46.3603 46.3744 45.9929 46.0068Z" fill="white"></path><path d="M55.3382 46.0068C54.9707 45.6393 54.3747 45.6393 54.0071 46.0068C53.6396 46.3743 53.6396 46.9703 54.0071 47.3379L56.6692 49.9999L54.0071 52.6619C53.6396 53.0295 53.6396 53.6254 54.0071 53.993C54.3747 54.3606 54.9706 54.3606 55.3382 53.993L58.6657 50.6655C59.0333 50.298 59.0333 49.702 58.6657 49.3344L55.3382 46.0068Z" fill="white"></path><path d="M51.5623 42.674C51.054 42.5655 50.554 42.8899 50.4456 43.3982L47.7142 56.209C47.6059 56.7175 47.93 57.2174 48.4385 57.3259C48.9446 57.4337 49.4464 57.1122 49.5553 56.6016L52.2867 43.7908C52.395 43.2824 52.0707 42.7824 51.5623 42.674Z" fill="white"></path><path d="M73.1338 46.7089L70.4082 46.4909C69.8892 43.4596 68.6914 40.5691 66.9109 38.052L68.6852 35.9692C69.0034 35.5957 68.9813 35.0404 68.6343 34.6934L65.3068 31.3656C64.9599 31.0187 64.4045 30.9964 64.031 31.3147L61.9481 33.089C59.431 31.3086 56.5405 30.1107 53.5093 29.5917L53.2913 26.8661C53.252 26.3769 52.8437 26 52.3529 26H47.6471C47.1563 26 46.748 26.3769 46.7089 26.8662L46.4909 29.5918C43.4596 30.1108 40.5691 31.3086 38.052 33.0891L35.9692 31.3148C35.5957 30.9967 35.0404 31.0187 34.6934 31.3657L31.3656 34.6932C31.0186 35.0402 30.9965 35.5955 31.3147 35.969L33.089 38.0519C31.3086 40.569 30.1108 43.4594 29.5917 46.4907L26.8662 46.7087C26.3769 46.748 26 47.1563 26 47.6471V52.3529C26 52.8437 26.3769 53.252 26.8662 53.2911L29.5917 53.5091C30.1107 56.5404 31.3085 59.4309 33.089 61.948L31.3147 64.0309C30.9965 64.4044 31.0186 64.9597 31.3656 65.3067L34.6932 68.6343C35.0402 68.9812 35.5955 69.0035 35.969 68.6852L38.0519 66.9109C40.569 68.6914 43.4595 69.8892 46.4907 70.4082L46.7087 73.1338C46.7479 73.623 47.1561 74 47.6469 74H52.3528C52.8435 74 53.2518 73.6231 53.2909 73.1338L53.5089 70.4082C56.5402 69.8892 59.4307 68.6914 61.9478 66.9109L64.0306 68.6852C64.4041 69.0034 64.9593 68.9813 65.3065 68.6343L68.634 65.3067C68.981 64.9597 69.0031 64.4044 68.6849 64.0309L66.9106 61.948C68.691 59.4309 69.8889 56.5404 70.4079 53.5091L73.1336 53.2911C73.6227 53.252 73.9997 52.8437 73.9997 52.3529V47.6471C74 47.1563 73.6231 46.748 73.1338 46.7089ZM72.1177 51.484L69.515 51.6922C69.0729 51.7276 68.7156 52.0667 68.6571 52.5064C68.2272 55.7385 66.95 58.8207 64.9635 61.4196C64.6943 61.7718 64.7073 62.264 64.9948 62.6015L66.6889 64.5902L64.5901 66.6889L62.6014 64.9948C62.264 64.7074 61.7717 64.6944 61.4195 64.9636C58.8206 66.95 55.7385 68.2273 52.5063 68.6572C52.0666 68.7157 51.7275 69.073 51.6921 69.5151L51.4841 72.1176H48.516L48.3078 69.515C48.2724 69.0729 47.9333 68.7156 47.4936 68.6571C44.2615 68.2272 41.1793 66.95 38.5804 64.9635C38.2282 64.6943 37.7359 64.7073 37.3985 64.9947L35.4098 66.6888L33.3111 64.5902L35.0052 62.6015C35.2926 62.2641 35.3057 61.7718 35.0365 61.4196C33.0501 58.8207 31.7728 55.7386 31.3429 52.5064C31.2844 52.0667 30.9271 51.7276 30.485 51.6922L27.8824 51.484V48.516L30.485 48.3078C30.9271 48.2724 31.2844 47.9333 31.3429 47.4936C31.7728 44.2615 33.05 41.1793 35.0365 38.5804C35.3057 38.2282 35.2927 37.736 35.0052 37.3985L33.3111 35.4098L35.4098 33.3111L37.3985 35.0052C37.7359 35.2926 38.2283 35.3057 38.5804 35.0365C41.1793 33.05 44.2614 31.7728 47.4936 31.3429C47.9333 31.2844 48.2724 30.9271 48.3078 30.485L48.516 27.8824H51.4841L51.6922 30.485C51.7276 30.9271 52.0667 31.2844 52.5064 31.3429C55.7385 31.7728 58.8207 33.05 61.4196 35.0365C61.7718 35.3056 62.264 35.2926 62.6015 35.0052L64.5902 33.3111L66.6889 35.4098L64.9948 37.3985C64.7074 37.7359 64.6943 38.2282 64.9635 38.5804C66.95 41.1793 68.2272 44.2614 68.6571 47.4936C68.7156 47.9333 69.073 48.2724 69.515 48.3078L72.1177 48.516V51.484Z" fill="#001042"></path><defs><linearGradient id="paint0_linear_2605_42" x1="35.8818" y1="37.9483" x2="65.7958" y2="40.8043" gradientUnits="userSpaceOnUse"><stop stop-color="#0082F8"></stop><stop offset="1" stop-color="#1C40F2"></stop></linearGradient></defs></svg>