<svg xmlns="http://www.w3.org/2000/svg" width="60" height="60" viewBox="0 0 60 60" fill="none"><circle cx="30" cy="30" r="30" fill="#6CBAFF" fill-opacity="0.1"></circle><g clip-path="url(#clip0_2611_42)"><path fill-rule="evenodd" clip-rule="evenodd" d="M30 21.7969C25.4695 21.7969 21.7969 25.4695 21.7969 30C21.7969 31.4963 22.1975 32.899 22.8974 34.1068L25.262 31.7462C24.4215 29.4822 25.3114 26.8767 27.4764 25.6288C29.271 24.5945 31.4368 24.7842 33.0046 25.938L28.9925 28.2505L28.9925 30.5807L31.014 31.7459L35.0262 29.4334C35.2432 31.3657 34.3248 33.333 32.5302 34.3675C31.1768 35.1475 29.6123 35.2314 28.2524 34.7308L25.8826 37.0965C27.0928 37.8002 28.4994 38.2032 30.0001 38.2032C34.5305 38.2032 38.2032 34.5305 38.2032 30.0001C38.2032 25.4696 34.5305 21.7969 30 21.7969Z" fill="url(#paint0_linear_2611_42)"></path><path d="M43.9245 27.3713L42.5725 27.1459C42.2501 25.7168 41.6917 24.3688 40.9081 23.1283L41.7049 22.0127C42.0781 21.4903 42.0523 20.8391 41.6424 20.4293L39.5708 18.3576C39.1609 17.9477 38.5097 17.9219 37.9873 18.2952L36.8718 19.0919C35.6318 18.3084 34.2836 17.7499 32.8541 17.4275L32.6288 16.0754C32.5232 15.4423 32.0446 15 31.4649 15H28.5351C27.9554 15 27.4768 15.4423 27.3713 16.0755L27.1459 17.4275C25.7165 17.7499 24.3683 18.3084 23.1282 19.0919L22.0127 18.2951C21.4902 17.9219 20.8391 17.9476 20.4292 18.3575L18.3577 20.4292C17.9477 20.8391 17.922 21.4902 18.2952 22.0127L19.092 23.1282C18.3084 24.3687 17.7499 25.7168 17.4275 27.1459L16.0756 27.3712C15.4422 27.4768 15 27.9554 15 28.5351V31.4648C15 32.0445 15.4422 32.5231 16.0755 32.6288L17.4275 32.8541C17.7608 34.3316 18.3465 35.7226 19.1725 36.9975L15.172 40.9912C14.9429 41.2198 14.9426 41.5908 15.1713 41.8198C15.4 42.0489 15.7709 42.0492 15.9999 41.8205L25.6761 32.1608C25.8384 31.9988 25.8912 31.7571 25.8114 31.5422C25.0534 29.5006 25.8767 27.2272 27.769 26.1365C29.0303 25.4096 30.5467 25.3504 31.8405 25.9326L28.7 27.7428C28.5184 27.8474 28.4066 28.041 28.4066 28.2504V30.5807C28.4066 30.7902 28.5185 30.9837 28.7 31.0883L30.7214 32.2535C30.9025 32.3578 31.1255 32.3579 31.3066 32.2535L34.4495 30.442C34.3079 31.8514 33.4986 33.1329 32.2375 33.8598C31.0844 34.5243 29.7057 34.6413 28.4547 34.1809C28.2405 34.1019 27.9999 34.1547 27.8383 34.316L18.1386 43.9994C17.9095 44.228 17.9092 44.599 18.1379 44.828C18.2524 44.9427 18.4024 45 18.5525 45C18.7023 45 18.8521 44.9429 18.9665 44.8287L22.9855 40.8165C24.2647 41.6482 25.6615 42.2377 27.1459 42.5725L27.3713 43.9245C27.4769 44.5577 27.9555 44.9999 28.5351 44.9999H31.4649C32.0446 44.9999 32.5232 44.5577 32.6287 43.9245L32.8541 42.5725C34.2835 42.2501 35.6317 41.6915 36.8718 40.9081L37.9873 41.7049C38.5097 42.078 39.1608 42.0523 39.5708 41.6424L41.6424 39.5708C42.0523 39.1609 42.078 38.5097 41.7049 37.9873L40.9081 36.8717C41.6916 35.6313 42.2501 34.283 42.5725 32.854L43.9245 32.6287C44.5577 32.5231 44.9999 32.0445 44.9999 31.4648V28.5351C45 27.9554 44.5578 27.4768 43.9245 27.3713ZM43.8281 31.4395C43.8114 31.4499 43.7797 31.4649 43.7319 31.4728L41.9848 31.764C41.7431 31.8043 41.5521 31.9906 41.5058 32.2311C41.2058 33.7872 40.6027 35.243 39.7132 36.5582C39.5761 36.761 39.5795 37.0278 39.7218 37.227L40.7513 38.6684C40.7795 38.7079 40.7914 38.7409 40.7959 38.7601L38.7601 40.7958C38.7409 40.7914 38.7079 40.7795 38.6685 40.7513L37.227 39.7217C37.0277 39.5793 36.7609 39.576 36.5581 39.7132C35.2434 40.6027 33.7876 41.2057 32.231 41.5057C31.9906 41.5521 31.8042 41.7431 31.764 41.9847L31.4728 43.7318C31.4648 43.7796 31.4499 43.8114 31.4394 43.8281H28.5604C28.55 43.8114 28.5351 43.7797 28.5271 43.7319L28.2359 41.9847C28.1956 41.7431 28.0093 41.5521 27.7688 41.5057C26.3659 41.2354 25.0449 40.7187 23.8353 39.9682L28.4111 35.4001C29.8898 35.8351 31.4778 35.6502 32.8227 34.8751C34.7649 33.7556 35.8583 31.5939 35.6083 29.368C35.5863 29.1716 35.4667 28.9996 35.2904 28.9105C35.1141 28.8213 34.9047 28.827 34.7335 28.9257L31.0139 31.0695L29.5784 30.2421V28.589L33.2972 26.4456C33.4687 26.3468 33.5786 26.1681 33.5897 25.9706C33.6007 25.773 33.5113 25.5833 33.3519 25.466C31.5467 24.1374 29.1255 24.002 27.1838 25.1212C24.9056 26.4343 23.8548 29.1058 24.5917 31.5874L20.0223 36.1491C19.2769 34.9432 18.7635 33.6275 18.4943 32.231C18.4479 31.9906 18.2569 31.8042 18.0153 31.764L16.2682 31.4728C16.2204 31.4648 16.1886 31.4499 16.1719 31.4394V28.5604C16.1886 28.5501 16.2203 28.5351 16.2681 28.5272L18.0152 28.236C18.2569 28.1957 18.4479 28.0094 18.4942 27.7689C18.7942 26.2129 19.3973 24.757 20.2868 23.4418C20.424 23.239 20.4206 22.9722 20.2782 22.773L19.2486 21.3315C19.2204 21.2921 19.2086 21.2591 19.2041 21.2399L21.2398 19.2042C21.259 19.2087 21.292 19.2205 21.3314 19.2487L22.7729 20.2783C22.9721 20.4206 23.2389 20.424 23.4418 20.2868C24.7564 19.3974 26.2123 18.7943 27.7688 18.4943C28.0093 18.4479 28.1956 18.2569 28.2358 18.0153L28.5271 16.2682C28.535 16.2204 28.55 16.1886 28.5604 16.1719H31.4394C31.4498 16.1886 31.4648 16.2203 31.4727 16.2681L31.7639 18.0153C31.8042 18.2569 31.9905 18.4479 32.231 18.4943C33.7875 18.7943 35.2433 19.3974 36.558 20.2868C36.7607 20.424 37.0276 20.4207 37.2269 20.2783L38.6684 19.2486C38.7079 19.2205 38.7409 19.2086 38.76 19.2041L40.7957 21.2399C40.7913 21.2591 40.7794 21.2921 40.7512 21.3315L39.7216 22.773C39.5793 22.9722 39.5759 23.239 39.713 23.4418C40.6026 24.757 41.2057 26.2129 41.5056 27.7689C41.5519 28.0094 41.743 28.1957 41.9846 28.236L43.7317 28.5272C43.7796 28.5351 43.8113 28.5501 43.828 28.5604V31.4395H43.8281Z" fill="#001042"></path></g><defs><linearGradient id="paint0_linear_2611_42" x1="21.7969" y1="22.9973" x2="39.1786" y2="24.6568" gradientUnits="userSpaceOnUse"><stop stop-color="#0082F8"></stop><stop offset="1" stop-color="#1C40F2"></stop></linearGradient><clipPath id="clip0_2611_42"><rect width="30" height="30" fill="white" transform="translate(15 15)"></rect></clipPath></defs></svg>