<svg xmlns="http://www.w3.org/2000/svg" width="100" height="100" viewBox="0 0 100 100" fill="none"><circle cx="50" cy="50" r="50" fill="#F2F9FF"></circle><path d="M34.0371 40.8025H65.9637V57.1972H34.0371V40.8025Z" fill="url(#paint0_linear_1016_73028)"></path><path d="M58.6572 43.3679H56.4717C55.9971 43.3679 55.6123 43.7527 55.6123 44.2273V53.7725C55.6123 54.2386 55.9872 54.6319 56.476 54.6319C56.491 54.6318 57.984 54.6243 58.7513 54.6108C60.1169 54.587 61.3326 53.9686 62.1748 52.8695C62.9464 51.8625 63.3713 50.4882 63.3713 48.9999C63.3713 45.6313 61.4769 43.3679 58.6572 43.3679ZM58.7213 52.8924C58.347 52.8989 57.7951 52.9041 57.3311 52.9076V45.0867H58.6572C60.8657 45.0867 61.6525 47.1081 61.6525 48.9999C61.6526 50.8499 60.7353 52.8571 58.7213 52.8924Z" fill="white"></path><path d="M41.552 48.2713C40.3927 47.8436 39.3249 47.3865 38.9194 47.2098C38.495 47.0248 38.3653 46.5939 38.3855 46.2523C38.3979 46.0429 38.5103 45.3382 39.4366 45.0592C40.4891 44.7422 41.363 44.9498 42.0345 45.6763C42.3566 46.025 42.9004 46.0462 43.2489 45.7242C43.5974 45.4021 43.6189 44.8584 43.2967 44.5098C42.174 43.295 40.6272 42.9058 38.9409 43.4135C36.0965 44.2705 35.9845 47.8058 38.2328 48.7854C38.6517 48.9681 39.7559 49.4407 40.9572 49.8838C42.0535 50.2881 42.6096 50.9266 42.4831 51.6352C42.3599 52.3253 41.5882 53.0587 40.4005 53.0587C39.2749 53.0587 38.7688 52.5932 38.1251 51.8828C37.8063 51.5311 37.263 51.5045 36.9111 51.8232C36.5595 52.1419 36.5328 52.6854 36.8515 53.0371C37.6496 53.9177 38.5811 54.7774 40.4005 54.7774C42.2634 54.7774 43.8862 53.5564 44.1752 51.9373C44.3937 50.7134 43.8193 49.1075 41.552 48.2713Z" fill="white"></path><path d="M63.3751 27H36.6257C34.7245 27 33.1777 28.5468 33.1777 30.4481V67.552C33.1777 69.4532 34.7245 71 36.6257 71H63.3751C65.2763 71 66.8231 69.4532 66.8231 67.552V30.4481C66.8231 28.5468 65.2763 27 63.3751 27V27ZM51.2983 65.8227V69.2812H48.7026V65.8227H51.2983ZM46.9839 69.2812H44.3883V67.552C44.3883 66.5985 45.164 65.8227 46.1175 65.8227H46.9839V69.2812ZM53.017 69.2812V65.8227H53.8834C54.837 65.8227 55.6127 66.5985 55.6127 67.552V69.2812H53.017ZM65.1044 67.552C65.1044 68.5056 64.3287 69.2812 63.3751 69.2812H57.3314V67.552C57.3314 65.6507 55.7846 64.1039 53.8834 64.1039H46.1175C44.2163 64.1039 42.6695 65.6507 42.6695 67.552V69.2812H36.6258C35.6722 69.2812 34.8966 68.5056 34.8966 67.552V30.4481C34.8965 29.4945 35.6722 28.7188 36.6257 28.7188H63.3751C64.3287 28.7188 65.1044 29.4945 65.1044 30.4481V67.552Z" fill="#001042"></path><path d="M38.3516 33.0328C38.8189 33.0328 39.2109 32.6421 39.2109 32.1743C39.2109 31.7066 38.8194 31.3141 38.3516 31.3141C37.8836 31.3141 37.4922 31.7066 37.4922 32.1743C37.4922 32.6422 37.8841 33.0328 38.3516 33.0328Z" fill="#001042"></path><path d="M61.6494 33.0327C62.1168 33.0327 62.5088 32.642 62.5088 32.1742C62.5088 31.7065 62.1173 31.314 61.6494 31.314C61.1815 31.314 60.79 31.7064 60.79 32.1742C60.79 32.642 61.1819 33.0327 61.6494 33.0327Z" fill="#001042"></path><path d="M38.3516 66.6859C38.8262 66.6859 39.2109 66.3012 39.2109 65.8265C39.2109 65.3519 38.8262 64.9672 38.3516 64.9672C37.8769 64.9672 37.4922 65.3519 37.4922 65.8265C37.4922 66.3012 37.8769 66.6859 38.3516 66.6859Z" fill="#001042"></path><path d="M61.6494 66.686C62.124 66.686 62.5088 66.3013 62.5088 65.8267C62.5088 65.352 62.124 64.9673 61.6494 64.9673C61.1748 64.9673 60.79 65.352 60.79 65.8267C60.79 66.3013 61.1748 66.686 61.6494 66.686Z" fill="#001042"></path><path d="M51.0422 48.2713C49.883 47.8436 48.8152 47.3865 48.4096 47.2098C47.9852 47.0248 47.8555 46.5939 47.8757 46.2523C47.8882 46.0429 48.0006 45.3382 48.9268 45.0592C49.9792 44.7422 50.8532 44.9498 51.5247 45.6763C51.8468 46.025 52.3906 46.0462 52.7391 45.7242C53.0876 45.4021 53.1091 44.8584 52.787 44.5098C51.6643 43.295 50.1174 42.9058 48.4311 43.4135C45.5868 44.2705 45.4747 47.8058 47.723 48.7854C48.1419 48.9681 49.2462 49.4407 50.4474 49.8838C51.5437 50.2881 52.0999 50.9266 51.9734 51.6352C51.8501 52.3253 51.0784 53.0587 49.8908 53.0587C48.7652 53.0587 48.2591 52.5932 47.6153 51.8828C47.2965 51.5311 46.7533 51.5045 46.4014 51.8232C46.0497 52.1419 46.0231 52.6854 46.3417 53.0371C47.1398 53.9177 48.0713 54.7774 49.8908 54.7774C51.7536 54.7774 53.3764 53.5564 53.6654 51.9373C53.8839 50.7134 53.3095 49.1075 51.0422 48.2713Z" fill="white"></path><defs><linearGradient id="paint0_linear_1016_73028" x1="34.0371" y1="42.0021" x2="67.0297" y2="48.1362" gradientUnits="userSpaceOnUse"><stop stop-color="#0082F8"></stop><stop offset="1" stop-color="#1C40F2"></stop></linearGradient></defs></svg>