<svg xmlns="http://www.w3.org/2000/svg" width="70" height="70" viewBox="0 0 70 70" fill="none"><circle cx="35" cy="35" r="35" fill="url(#paint0_linear_2731_44)" fill-opacity="0.05"></circle><g clip-path="url(#clip0_2731_44)"><path d="M26.5039 24.4531H43.4961V33.7695H26.5039V24.4531Z" fill="url(#paint1_linear_2731_44)"></path><path d="M49.4141 47.0703H46.3516C46.0907 46.0606 45.1721 45.3125 44.082 45.3125H41.7383C40.6483 45.3125 39.7296 46.0606 39.4687 47.0703H37.2696C37.0572 46.2479 36.4084 45.5991 35.586 45.3867V42.9102H43.4962C43.8197 42.9102 44.0821 42.6478 44.0821 42.3242V20.5859C44.0821 20.2623 43.8197 20 43.4962 20H26.5039C26.1804 20 25.918 20.2623 25.918 20.5859V42.3242C25.918 42.6478 26.1804 42.9102 26.5039 42.9102H34.4141V45.3867C33.5917 45.5991 32.9429 46.2479 32.7304 47.0703H30.5313C30.2705 46.0606 29.3518 45.3125 28.2618 45.3125H25.918C24.8279 45.3125 23.9093 46.0606 23.6485 47.0703H20.5859C20.2623 47.0703 20 47.3327 20 47.6562C20 47.9798 20.2623 48.2422 20.5859 48.2422H23.6484C23.9093 49.2519 24.8279 50 25.918 50H28.2617C29.3518 50 30.2704 49.2519 30.5313 48.2422H32.7304C32.9912 49.2519 33.9099 50 34.9999 50C36.09 50 37.0087 49.2519 37.2695 48.2422H39.4686C39.7295 49.2519 40.6481 50 41.7382 50H44.0819C45.1719 50 46.0906 49.2519 46.3515 48.2422H49.4141C49.7376 48.2422 50 47.9798 50 47.6562C50 47.3327 49.7376 47.0703 49.4141 47.0703ZM34.4141 38.2227V41.7383H33.2422V38.2227H34.4141ZM36.7578 38.2227V41.7383H35.5859V38.2227H36.7578ZM37.9297 41.7383V38.2227H39.1016V41.7383H37.9297ZM27.0898 21.1719H42.9102V41.7383H40.2734V37.6367C40.2734 37.3132 40.0111 37.0508 39.6875 37.0508H30.3125C29.9889 37.0508 29.7266 37.3132 29.7266 37.6367V41.7383H27.0898V21.1719ZM30.8984 38.2227H32.0703V41.7383H30.8984V38.2227ZM28.2617 48.8281H25.918C25.2718 48.8281 24.7461 48.3024 24.7461 47.6562C24.7461 47.0101 25.2718 46.4844 25.918 46.4844H28.2617C28.9079 46.4844 29.4336 47.0101 29.4336 47.6562C29.4336 48.3024 28.9079 48.8281 28.2617 48.8281ZM35 48.8281C34.3538 48.8281 33.8281 48.3024 33.8281 47.6562C33.8281 47.0101 34.3538 46.4844 35 46.4844C35.6462 46.4844 36.1719 47.0101 36.1719 47.6562C36.1719 48.3024 35.6462 48.8281 35 48.8281ZM44.082 48.8281H41.7383C41.0921 48.8281 40.5664 48.3024 40.5664 47.6562C40.5664 47.0101 41.0921 46.4844 41.7383 46.4844H44.082C44.7282 46.4844 45.2539 47.0101 45.2539 47.6562C45.2539 48.3024 44.7282 48.8281 44.082 48.8281Z" fill="#00008B"></path><path d="M30.0195 32.0703C30.9888 32.0703 31.7773 31.2818 31.7773 30.3125C31.7773 29.3432 30.9888 28.5547 30.0195 28.5547C29.6964 28.5547 29.4336 28.2918 29.4336 27.9688C29.4336 27.6457 29.6964 27.3828 30.0195 27.3828H31.1914C31.515 27.3828 31.7773 27.1204 31.7773 26.7969C31.7773 26.4733 31.515 26.2109 31.1914 26.2109H30.0195C29.0503 26.2109 28.2617 26.9995 28.2617 27.9688C28.2617 28.938 29.0503 29.7266 30.0195 29.7266C30.3426 29.7266 30.6055 29.9894 30.6055 30.3125C30.6055 30.6356 30.3426 30.8984 30.0195 30.8984H28.8477C28.524 30.8984 28.2617 31.1608 28.2617 31.4844C28.2617 31.8079 28.524 32.0703 28.8477 32.0703H30.0195Z" fill="white"></path><path d="M34.707 30.8984H33.5352C33.2115 30.8984 32.9492 31.1608 32.9492 31.4844C32.9492 31.8079 33.2115 32.0703 33.5352 32.0703H34.707C35.6763 32.0703 36.4648 31.2818 36.4648 30.3125C36.4648 29.3432 35.6763 28.5547 34.707 28.5547C34.3839 28.5547 34.1211 28.2918 34.1211 27.9688C34.1211 27.6457 34.3839 27.3828 34.707 27.3828H35.8789C36.2025 27.3828 36.4648 27.1204 36.4648 26.7969C36.4648 26.4733 36.2025 26.2109 35.8789 26.2109H34.707C33.7378 26.2109 32.9492 26.9995 32.9492 27.9688C32.9492 28.938 33.7378 29.7266 34.707 29.7266C35.0301 29.7266 35.293 29.9894 35.293 30.3125C35.293 30.6356 35.0301 30.8984 34.707 30.8984Z" fill="white"></path><path d="M38.2227 32.0703H38.8086C40.424 32.0703 41.7383 30.7561 41.7383 29.1406C41.7383 27.5252 40.424 26.2109 38.8086 26.2109H38.2227C37.8991 26.2109 37.6367 26.4733 37.6367 26.7969V31.4844C37.6367 31.8079 37.8991 32.0703 38.2227 32.0703ZM38.8086 27.3828C39.7779 27.3828 40.5664 28.1714 40.5664 29.1406C40.5664 30.1099 39.7779 30.8984 38.8086 30.8984V27.3828Z" fill="white"></path></g><defs><linearGradient id="paint0_linear_2731_44" x1="-4.88915e-07" y1="5.12196" x2="74.1616" y2="12.2025" gradientUnits="userSpaceOnUse"><stop stop-color="#0082F8"></stop><stop offset="1" stop-color="#1C40F2"></stop></linearGradient><linearGradient id="paint1_linear_2731_44" x1="26.5039" y1="25.1348" x2="44.1357" y2="28.2051" gradientUnits="userSpaceOnUse"><stop stop-color="#0082F8"></stop><stop offset="1" stop-color="#1C40F2"></stop></linearGradient><clipPath id="clip0_2731_44"><rect width="30" height="30" fill="white" transform="translate(20 20)"></rect></clipPath></defs></svg>