<svg xmlns="http://www.w3.org/2000/svg" width="56" height="61" viewBox="0 0 56 61" fill="none"><circle opacity="0.15" cx="43.5" cy="48.5" r="12.5" fill="#297FFF"></circle><path d="M10.8398 7.42188H39.1602V22.9492H10.8398V7.42188Z" fill="url(#paint0_linear_2732_45)"></path><path d="M49.0234 45.1172H43.9193C43.4846 43.4344 41.9534 42.1875 40.1367 42.1875H36.2305C34.4138 42.1875 32.8826 43.4344 32.4478 45.1172H28.7827C28.4286 43.7466 27.3473 42.6652 25.9767 42.3111V38.1836H39.1603C39.6995 38.1836 40.1368 37.7463 40.1368 37.207V0.976562C40.1368 0.437207 39.6995 0 39.1603 0H10.8398C10.3006 0 9.86328 0.437207 9.86328 0.976562V37.207C9.86328 37.7463 10.3006 38.1836 10.8398 38.1836H24.0234V42.3111C22.6528 42.6652 21.5715 43.7466 21.2174 45.1172H17.5522C17.1175 43.4344 15.5863 42.1875 13.7696 42.1875H9.86338C8.04658 42.1875 6.51553 43.4344 6.08076 45.1172H0.976562C0.437207 45.1172 0 45.5545 0 46.0938C0 46.633 0.437207 47.0703 0.976562 47.0703H6.08066C6.51543 48.7531 8.04658 50 9.86328 50H13.7695C15.5863 50 17.1174 48.7531 17.5521 47.0703H21.2173C21.6521 48.7531 23.1832 50 24.9999 50C26.8166 50 28.3478 48.7531 28.7825 47.0703H32.4477C32.8824 48.7531 34.4136 50 36.2303 50H40.1365C41.9532 50 43.4844 48.7531 43.9191 47.0703H49.0234C49.5627 47.0703 50 46.633 50 46.0938C50 45.5545 49.5627 45.1172 49.0234 45.1172ZM24.0234 30.3711V36.2305H22.0703V30.3711H24.0234ZM27.9297 30.3711V36.2305H25.9766V30.3711H27.9297ZM29.8828 36.2305V30.3711H31.8359V36.2305H29.8828ZM11.8164 1.95312H38.1836V36.2305H33.7891V29.3945C33.7891 28.8553 33.3518 28.418 32.8125 28.418H17.1875C16.6481 28.418 16.2109 28.8553 16.2109 29.3945V36.2305H11.8164V1.95312ZM18.1641 30.3711H20.1172V36.2305H18.1641V30.3711ZM13.7695 48.0469H9.86328C8.78633 48.0469 7.91016 47.1707 7.91016 46.0938C7.91016 45.0168 8.78633 44.1406 9.86328 44.1406H13.7695C14.8465 44.1406 15.7227 45.0168 15.7227 46.0938C15.7227 47.1707 14.8465 48.0469 13.7695 48.0469ZM25 48.0469C23.923 48.0469 23.0469 47.1707 23.0469 46.0938C23.0469 45.0168 23.923 44.1406 25 44.1406C26.077 44.1406 26.9531 45.0168 26.9531 46.0938C26.9531 47.1707 26.077 48.0469 25 48.0469ZM40.1367 48.0469H36.2305C35.1535 48.0469 34.2773 47.1707 34.2773 46.0938C34.2773 45.0168 35.1535 44.1406 36.2305 44.1406H40.1367C41.2137 44.1406 42.0898 45.0168 42.0898 46.0938C42.0898 47.1707 41.2137 48.0469 40.1367 48.0469Z" fill="#001042"></path><path d="M16.6992 20.1172C18.3146 20.1172 19.6289 18.8029 19.6289 17.1875C19.6289 15.5721 18.3146 14.2578 16.6992 14.2578C16.1607 14.2578 15.7227 13.8197 15.7227 13.2812C15.7227 12.7428 16.1607 12.3047 16.6992 12.3047H18.6523C19.1917 12.3047 19.6289 11.8674 19.6289 11.3281C19.6289 10.7889 19.1917 10.3516 18.6523 10.3516H16.6992C15.0838 10.3516 13.7695 11.6658 13.7695 13.2812C13.7695 14.8967 15.0838 16.2109 16.6992 16.2109C17.2377 16.2109 17.6758 16.649 17.6758 17.1875C17.6758 17.726 17.2377 18.1641 16.6992 18.1641H14.7461C14.2067 18.1641 13.7695 18.6013 13.7695 19.1406C13.7695 19.6799 14.2067 20.1172 14.7461 20.1172H16.6992Z" fill="white"></path><path d="M24.5117 18.1641H22.5586C22.0192 18.1641 21.582 18.6013 21.582 19.1406C21.582 19.6799 22.0192 20.1172 22.5586 20.1172H24.5117C26.1271 20.1172 27.4414 18.8029 27.4414 17.1875C27.4414 15.5721 26.1271 14.2578 24.5117 14.2578C23.9732 14.2578 23.5352 13.8197 23.5352 13.2812C23.5352 12.7428 23.9732 12.3047 24.5117 12.3047H26.4648C27.0041 12.3047 27.4414 11.8674 27.4414 11.3281C27.4414 10.7889 27.0041 10.3516 26.4648 10.3516H24.5117C22.8963 10.3516 21.582 11.6658 21.582 13.2812C21.582 14.8967 22.8963 16.2109 24.5117 16.2109C25.0502 16.2109 25.4883 16.649 25.4883 17.1875C25.4883 17.726 25.0502 18.1641 24.5117 18.1641Z" fill="white"></path><path d="M30.3711 20.1172H31.3477C34.04 20.1172 36.2305 17.9268 36.2305 15.2344C36.2305 12.542 34.04 10.3516 31.3477 10.3516H30.3711C29.8318 10.3516 29.3945 10.7889 29.3945 11.3281V19.1406C29.3945 19.6799 29.8318 20.1172 30.3711 20.1172ZM31.3477 12.3047C32.9631 12.3047 34.2773 13.6189 34.2773 15.2344C34.2773 16.8498 32.9631 18.1641 31.3477 18.1641V12.3047Z" fill="white"></path><defs><linearGradient id="paint0_linear_2732_45" x1="10.8398" y1="8.55802" x2="40.2262" y2="13.6752" gradientUnits="userSpaceOnUse"><stop stop-color="#0082F8"></stop><stop offset="1" stop-color="#1C40F2"></stop></linearGradient></defs></svg>