<svg xmlns="http://www.w3.org/2000/svg" width="70" height="70" viewBox="0 0 70 70" fill="none"><circle cx="35" cy="35" r="35" fill="url(#paint0_linear_2731_42)" fill-opacity="0.05"></circle><g clip-path="url(#clip0_2731_42)"><path d="M47.647 35.0608V33.5303C47.647 30.4759 46.5429 27.5267 44.5381 25.226C44.3255 24.982 43.9554 24.9564 43.7114 25.1691C43.4675 25.3817 43.442 25.7518 43.6546 25.9958C45.4734 28.0831 46.4751 30.7589 46.4751 33.5303V35.0036C44.8746 35.0036 45.6378 35.0036 44.7053 35.0036V33.5303C44.7053 31.2653 43.9079 29.0606 42.4599 27.3225C42.2529 27.0738 41.8834 27.0403 41.6348 27.2473C41.3861 27.4545 41.3525 27.8239 41.5596 28.0725C42.8325 29.6005 43.5335 31.5387 43.5335 33.5303V35.0035H42.3544C42.0307 35.0035 41.7684 35.2658 41.7684 35.5894V45.0027C41.7684 45.3263 42.0307 45.5886 42.3544 45.5886H45.2984V46.4735C45.2984 46.9614 44.9014 47.3584 44.4135 47.3584H39.8995C39.659 46.674 39.0065 46.1817 38.2408 46.1817H35.8779C34.9087 46.1817 34.1201 46.9703 34.1201 47.9395V47.9492C34.1201 48.9185 34.9087 49.707 35.8779 49.707H38.2408C39.0064 49.707 39.6589 49.2148 39.8995 48.5304H44.4135C45.5476 48.5304 46.4703 47.6077 46.4703 46.4736V45.5888H47.0706C48.686 45.5888 50.0003 44.2745 50.0003 42.6591V37.9333C50.0003 36.515 48.9873 35.3293 47.647 35.0608ZM38.8268 47.9492C38.8268 48.2723 38.5639 48.5351 38.2408 48.5351H35.8779C35.5548 48.5351 35.292 48.2723 35.292 47.9492V47.9397C35.292 47.6166 35.5548 47.3537 35.8779 47.3537H38.2408C38.5639 47.3537 38.8268 47.6166 38.8268 47.9397V47.9492ZM42.9403 36.1754H44.7101V44.4168H42.9403V36.1754ZM48.8284 42.659C48.8284 43.6283 48.0398 44.4168 47.0706 44.4168H45.8819V36.1754H47.0706C48.0398 36.1754 48.8284 36.964 48.8284 37.9333V42.659Z" fill="url(#paint1_linear_2731_42)"></path><path d="M34.409 34.4129C34.409 34.0893 34.1467 33.8269 33.8231 33.8269H32.0557V32.6455H33.8231C34.1467 32.6455 34.409 32.3832 34.409 32.0596V29.7062C34.409 29.3826 34.1467 29.1203 33.8231 29.1203H31.4697C31.1461 29.1203 30.8838 29.3826 30.8838 29.7062C30.8838 30.0298 31.1461 30.2922 31.4697 30.2922H33.2371V31.4736H31.4697C31.1461 31.4736 30.8838 31.736 30.8838 32.0596V34.4129C30.8838 34.7365 31.1461 34.9988 31.4697 34.9988H33.8231C34.1467 34.9988 34.409 34.7364 34.409 34.4129Z" fill="url(#paint2_linear_2731_42)"></path><path d="M36.1768 33.2338H37.9442V34.4129C37.9442 34.7365 38.2065 34.9988 38.5301 34.9988C38.8537 34.9988 39.1161 34.7365 39.1161 34.4129V30.8829C39.1161 30.5593 38.8537 30.297 38.5301 30.297C38.2065 30.297 37.9442 30.5593 37.9442 30.8829V32.0619H36.7627V29.7062C36.7627 29.3826 36.5004 29.1203 36.1768 29.1203C35.8531 29.1203 35.5908 29.3826 35.5908 29.7062V32.6479C35.5908 32.9715 35.8532 33.2338 36.1768 33.2338Z" fill="url(#paint3_linear_2731_42)"></path><path d="M28.3655 27.2474C28.1169 27.0402 27.7474 27.0739 27.5403 27.3226C26.0923 29.0607 25.2949 31.2653 25.2949 33.5304V35.0036C24.352 35.0036 25.1288 35.0036 23.5252 35.0036V33.5304C23.5252 30.759 24.5268 28.0832 26.3456 25.9959C26.5582 25.7519 26.5328 25.3818 26.2888 25.1692C26.0448 24.9566 25.6747 24.9821 25.4621 25.226C23.4574 27.5267 22.3533 30.4759 22.3533 33.5304V35.0609C21.013 35.3294 20 36.5151 20 37.9333V42.659C20 44.2745 21.3143 45.5887 22.9297 45.5887H27.6459C27.9695 45.5887 28.2318 45.3264 28.2318 45.0028V35.5895C28.2318 35.2659 27.9695 35.0036 27.6459 35.0036H26.4669V33.5304C26.4669 31.5388 27.1679 29.6005 28.4407 28.0726C28.6479 27.824 28.6142 27.4545 28.3655 27.2474ZM21.1719 42.659V37.9333C21.1719 36.964 21.9604 36.1755 22.9297 36.1755H24.1183V44.4168H22.9297C21.9604 44.4168 21.1719 43.6283 21.1719 42.659ZM27.06 44.4168H25.2902V36.1755H27.06V44.4168Z" fill="url(#paint4_linear_2731_42)"></path><path d="M41.4485 28.2588L44.6237 25.0836C39.7845 18.688 30.204 18.7042 25.377 25.0836L28.5522 28.2588C32.11 24.701 37.8839 24.6942 41.4485 28.2588Z" fill="url(#paint5_linear_2731_42)"></path></g><defs><linearGradient id="paint0_linear_2731_42" x1="-4.88915e-07" y1="5.12196" x2="74.1616" y2="12.2025" gradientUnits="userSpaceOnUse"><stop stop-color="#0082F8"></stop><stop offset="1" stop-color="#1C40F2"></stop></linearGradient><linearGradient id="paint1_linear_2731_42" x1="34.1201" y1="26.8309" x2="51.0252" y2="27.8688" gradientUnits="userSpaceOnUse"><stop stop-color="#18029D"></stop><stop offset="1" stop-color="#1C40F2"></stop></linearGradient><linearGradient id="paint2_linear_2731_42" x1="30.8838" y1="29.5504" x2="34.6384" y2="29.7653" gradientUnits="userSpaceOnUse"><stop stop-color="#18029D"></stop><stop offset="1" stop-color="#1C40F2"></stop></linearGradient><linearGradient id="paint3_linear_2731_42" x1="35.5908" y1="29.5504" x2="39.3454" y2="29.7653" gradientUnits="userSpaceOnUse"><stop stop-color="#18029D"></stop><stop offset="1" stop-color="#1C40F2"></stop></linearGradient><linearGradient id="paint4_linear_2731_42" x1="20" y1="26.5297" x2="29.1499" y2="26.8939" gradientUnits="userSpaceOnUse"><stop stop-color="#18029D"></stop><stop offset="1" stop-color="#1C40F2"></stop></linearGradient><linearGradient id="paint5_linear_2731_42" x1="25.377" y1="20.8758" x2="44.9142" y2="25.3827" gradientUnits="userSpaceOnUse"><stop stop-color="#0082F8"></stop><stop offset="1" stop-color="#1C40F2"></stop></linearGradient><clipPath id="clip0_2731_42"><rect width="30" height="30" fill="white" transform="translate(20 20)"></rect></clipPath></defs></svg>