<svg xmlns="http://www.w3.org/2000/svg" width="56" height="61" viewBox="0 0 56 61" fill="none"><circle opacity="0.15" cx="43.5" cy="48.5" r="12.5" fill="#297FFF"></circle><path d="M43.1747 6.82528C34.4421 -2.27485 18.7312 -2.27544 9.99901 6.82558C1.67878 14.8405 0.856847 28.8319 8.07442 37.8215L0.971209 44.4848C0.358936 45.0591 0.01419 45.847 0.000408015 46.7032C-0.0135695 47.5788 0.332154 48.4347 0.948727 49.0513C1.56501 49.668 2.42223 50.0136 3.29665 49.9995C4.153 49.9858 4.94092 49.6412 5.51526 49.0289L12.1785 41.9257C21.1693 49.1427 35.1585 48.3216 43.1745 40.0007C52.2749 31.2695 52.2754 15.5566 43.1747 6.82528ZM42.6035 37.7471C40.3158 35.6105 37.6228 33.9605 34.7097 32.8834C35.1367 30.2346 35.3815 27.3617 35.4255 24.3906H48.0688C47.8387 29.5087 45.811 34.1668 42.6035 37.7471ZM34.3529 34.8383C36.8859 35.8208 39.2289 37.2787 41.2342 39.1434C38.2893 41.8874 34.5756 43.8167 30.4562 44.5682C32.3874 42.2313 33.6738 38.2147 34.3529 34.8383ZM35.4255 22.4356C35.3815 19.4659 35.137 16.5945 34.7102 13.9468C34.9692 13.8511 35.2268 13.7507 35.4832 13.6456C38.129 12.5612 40.5215 11.0264 42.6035 9.07928C45.8109 12.6596 47.8386 17.3176 48.0687 22.4357H35.4255V22.4356ZM18.8203 12.0023C16.2984 11.0267 13.9662 9.57123 11.9393 7.68309C14.8792 4.9437 18.5851 3.01627 22.6962 2.26197C20.7133 4.75065 19.5412 8.51363 18.8203 12.0023ZM22.1699 7.30697C26.0458 -2.48344 30.4195 2.58727 32.4892 12.6259C28.7164 13.7123 24.4601 13.7126 20.6873 12.6267C21.0771 10.66 21.5752 8.86375 22.1699 7.30697ZM33.0728 7.27149C32.3266 5.15023 31.4411 3.46413 30.4563 2.25796C34.5758 3.00952 38.2896 4.93891 41.2345 7.68299C39.2083 9.57064 36.8768 11.0259 34.3557 12.0015C34.007 10.2959 33.5775 8.70638 33.0728 7.27149ZM15.5609 36.8916C15.1673 36.5223 14.5486 36.542 14.1793 36.9357L4.08975 47.6914C3.88078 47.9141 3.58803 48.0396 3.26557 48.0448C2.91496 48.0499 2.57549 47.9135 2.33113 47.669C2.08657 47.4245 1.94954 47.0838 1.95511 46.7344C1.96029 46.4121 2.08579 46.1194 2.30865 45.9105L13.0643 35.821C13.458 35.4516 13.4777 34.8331 13.1084 34.4393C12.7392 34.0457 12.1207 34.0259 11.7267 34.3952L9.50677 36.4776C6.84655 32.9977 5.3058 28.7634 5.10532 24.3905H14.1708C15.4663 24.3424 15.4653 22.4832 14.1708 22.4356H5.10503C5.33512 17.3175 7.36274 12.6595 10.5702 9.07918C12.8505 11.2141 15.5286 12.8633 18.4663 13.9477C18.0835 16.3259 17.8451 18.8908 17.7681 21.5448C17.7524 22.0844 18.1772 22.5344 18.7168 22.5502C19.2577 22.5628 19.7065 22.141 19.7222 21.6014C19.7936 19.1391 20.0072 16.7622 20.3483 14.5546C24.3844 15.6783 28.7934 15.678 32.8291 14.5537C33.1974 16.9309 33.4275 19.5783 33.4705 22.4355H26.9737C25.6781 22.4836 25.6791 24.3428 26.9737 24.3904H33.4705C33.4275 27.2491 33.1973 29.8979 32.8286 32.2763C31.5216 31.9144 30.1804 31.6648 28.82 31.5347C28.2805 31.4827 27.8053 31.8773 27.7538 32.4146C27.7025 32.952 28.0964 33.4292 28.6338 33.4807C29.9429 33.6059 31.2328 33.8518 32.487 34.2107C29.9317 46.7497 24.4645 48.8441 21.165 36.3068C21.0315 35.7838 20.4993 35.4678 19.9762 35.6013C19.4531 35.7349 19.1374 36.2671 19.2708 36.7901C20.1474 40.2251 21.3325 42.8657 22.7173 44.5638C19.3891 43.9527 16.2279 42.5612 13.5224 40.4931L15.6049 38.2732C15.9743 37.8795 15.9545 37.2609 15.5609 36.8916Z" fill="#001042"></path><path fill-rule="evenodd" clip-rule="evenodd" d="M20.5269 39.7369C26.1796 39.7369 30.7901 35.1265 30.7901 29.4737C30.2651 15.8786 10.7865 15.8823 10.2637 29.4738C10.2637 35.1265 14.8741 39.7369 20.5269 39.7369Z" fill="url(#paint0_linear_2732_51)"></path><path d="M19.3975 32.4058C19.2318 32.4058 19.0637 32.3636 18.9098 32.2746C18.4423 32.0048 18.2821 31.407 18.552 30.9395L20.8095 27.0297C21.0795 26.5622 21.6769 26.4019 22.1447 26.6719C22.6122 26.9418 22.7724 27.5396 22.5024 28.0071L20.245 31.9169C20.0639 32.2305 19.7353 32.4058 19.3975 32.4058Z" fill="white"></path><path d="M16.2897 32.4057C16.0395 32.4057 15.7895 32.3103 15.5986 32.1194L13.6437 30.1645C13.262 29.7828 13.262 29.1639 13.6437 28.7822L15.5986 26.8273C15.9804 26.4456 16.5991 26.4455 16.981 26.8273C17.3627 27.209 17.3627 27.8279 16.981 28.2096L15.7172 29.4735L16.981 30.7372C17.3627 31.1189 17.3627 31.7378 16.981 32.1196C16.79 32.3103 16.54 32.4057 16.2897 32.4057Z" fill="white"></path><path d="M24.7626 32.4056C24.5124 32.4056 24.2623 32.3102 24.0714 32.1193C23.6897 31.7376 23.6897 31.1187 24.0714 30.7369L25.3352 29.4731L24.0714 28.2093C23.6897 27.8276 23.6897 27.2087 24.0714 26.827C24.4533 26.4453 25.072 26.4454 25.4538 26.827L27.4087 28.7819C27.7904 29.1636 27.7904 29.7825 27.4087 30.1642L25.4538 32.1191C25.2628 32.3102 25.0128 32.4056 24.7626 32.4056Z" fill="white"></path><defs><linearGradient id="paint0_linear_2732_51" x1="10.2637" y1="20.7757" x2="32.0091" y2="22.8588" gradientUnits="userSpaceOnUse"><stop stop-color="#0082F8"></stop><stop offset="1" stop-color="#1C40F2"></stop></linearGradient></defs></svg>