<svg xmlns="http://www.w3.org/2000/svg" width="50" height="50" viewBox="0 0 50 50" fill="none"><circle cx="25" cy="25" r="25" fill="#00769D" fill-opacity="0.1"></circle><path d="M20.199 20.4065H18.8736L22.4869 30.6204L24.5098 24.8398L22.9414 20.4065H21.5431V19.4332H27.7355V20.4065H26.2854L29.8987 30.6204L31.1975 26.9087C32.9013 22.1534 29.801 20.672 29.801 19.6108C29.801 18.5495 30.6614 17.6892 31.7226 17.6892C31.78 17.6892 31.8358 17.6923 31.8904 17.6974C30.0922 15.9999 27.6676 14.959 24.9996 14.959C21.5135 14.959 18.4427 16.736 16.6426 19.4332H20.1989V20.4065H20.199Z" fill="#00769D"></path><path d="M14.959 24.9998C14.959 28.8439 17.1196 32.1829 20.2923 33.8701L15.7612 21.0615C15.245 22.2708 14.959 23.6019 14.959 24.9998Z" fill="#00769D"></path><path d="M33.7386 20.0522C33.8823 20.8979 33.8388 21.8484 33.6184 22.8025H33.6583L33.5065 23.2363C33.4165 23.5496 33.3033 23.87 33.1746 24.1849L29.7197 33.8638C32.8858 32.1745 35.0409 28.8391 35.0409 24.9999C35.0409 23.2009 34.5673 21.5127 33.7386 20.0522Z" fill="#00769D"></path><path d="M21.9033 34.553C22.8788 34.869 23.9192 35.0404 25 35.0404C26.0308 35.0404 27.0252 34.8848 27.9614 34.5962L25.0244 26.2939L21.9033 34.553Z" fill="#00769D"></path><path d="M33.4853 16.5147C31.2188 14.2482 28.2053 13 25 13C21.7947 13 18.7812 14.2482 16.5147 16.5147C14.2482 18.7812 13 21.7947 13 25C13 28.2053 14.2482 31.2188 16.5147 33.4853C18.7812 35.7518 21.7947 37 25 37C28.2053 37 31.2188 35.7518 33.4853 33.4853C35.7518 31.2188 37.0001 28.2053 37.0001 25C37 21.7947 35.7518 18.7812 33.4853 16.5147ZM25 36.1535C18.8499 36.1535 13.8465 31.1501 13.8465 25C13.8465 18.85 18.8499 13.8465 25 13.8465C31.15 13.8465 36.1534 18.85 36.1534 25C36.1534 31.1501 31.1501 36.1535 25 36.1535Z" fill="#00769D"></path></svg>