<svg xmlns="http://www.w3.org/2000/svg" width="56" height="56" viewBox="0 0 56 56" fill="none"><circle cx="28" cy="28" r="28" fill="white"></circle><path d="M23.1325 27.5555C23.6672 26.8663 23.5278 25.8795 23.0342 25.1462C22.5177 24.3788 21.0716 22.1978 20.3815 21.7401C19.8059 21.3582 18.9531 21.3713 18.337 21.7446C18.2311 21.809 17.9915 22.0215 17.709 22.2876L21.9939 28.5577C22.5581 28.0692 23.1018 27.5951 23.1325 27.5555Z" fill="url(#paint0_linear_2716_42)"></path><path d="M34.315 37.7216C34.689 37.1065 34.7022 36.2537 34.3203 35.6781C33.8626 34.988 31.7515 33.6065 30.9142 33.0254C30.188 32.5213 29.1933 32.3917 28.504 32.9263C28.4652 32.9564 28.011 33.4769 27.5342 34.0275L33.7592 38.3645C34.0314 38.0757 34.2498 37.8296 34.315 37.7216Z" fill="url(#paint1_linear_2716_42)"></path><path d="M33.4567 15C29.2395 15 25.8086 18.4305 25.8086 22.6471C25.8086 26.8638 29.2395 30.2943 33.4567 30.2943C37.6738 30.2943 41.1048 26.8638 41.1048 22.6471C41.1048 18.4305 37.6738 15 33.4567 15ZM33.4567 29.2746C29.8018 29.2746 26.8283 26.3016 26.8283 22.6471C26.8283 18.9927 29.8018 16.0196 33.4567 16.0196C37.1116 16.0196 40.085 18.9927 40.085 22.6471C40.085 26.3016 37.1116 29.2746 33.4567 29.2746Z" fill="#001042" stroke="black" stroke-width="0.2"></path><path d="M33.4562 17.0391C33.1746 17.0391 32.9463 17.2674 32.9463 17.549V18.0589C32.9463 18.3404 33.1746 18.5688 33.4562 18.5688C33.7377 18.5688 33.966 18.3404 33.966 18.0589V17.549C33.966 17.2674 33.7377 17.0391 33.4562 17.0391Z" fill="#001042"></path><path d="M30.2113 18.6817C30.0121 18.4827 29.6894 18.4827 29.4902 18.6817C29.291 18.8808 29.291 19.2037 29.4902 19.4028L29.8507 19.7634C30.0499 19.9625 30.3726 19.9624 30.5718 19.7634C30.7709 19.5643 30.7709 19.2414 30.5718 19.0423L30.2113 18.6817Z" fill="#001042"></path><path d="M28.8674 22.1374H28.3575C28.0759 22.1374 27.8477 22.3657 27.8477 22.6473C27.8477 22.9289 28.0759 23.1572 28.3575 23.1572H28.8674C29.149 23.1572 29.3773 22.9289 29.3773 22.6473C29.3773 22.3657 29.149 22.1374 28.8674 22.1374Z" fill="#001042"></path><path d="M29.8507 25.5311L29.4902 25.8917C29.291 26.0908 29.291 26.4136 29.4902 26.6128C29.6894 26.8119 30.0121 26.8118 30.2113 26.6128L30.5718 26.2522C30.7709 26.0531 30.7709 25.7303 30.5718 25.5311C30.3726 25.3321 30.0498 25.3321 29.8507 25.5311Z" fill="#001042"></path><path d="M33.4562 26.7254C33.1746 26.7254 32.9463 26.9537 32.9463 27.2353V27.7452C32.9463 28.0268 33.1746 28.255 33.4562 28.255C33.7377 28.255 33.966 28.0268 33.966 27.7452V27.2353C33.966 26.9537 33.7377 26.7254 33.4562 26.7254Z" fill="#001042"></path><path d="M37.0608 25.5311C36.8617 25.332 36.5389 25.332 36.3398 25.5311C36.1407 25.7302 36.1407 26.053 36.3398 26.2522L36.7003 26.6127C36.8995 26.8118 37.2222 26.8118 37.4214 26.6127C37.6205 26.4136 37.6205 26.0907 37.4214 25.8916L37.0608 25.5311Z" fill="#001042"></path><path d="M38.5549 22.1374H38.045C37.7634 22.1374 37.5352 22.3656 37.5352 22.6473C37.5352 22.9288 37.7634 23.1571 38.045 23.1571H38.5549C38.8365 23.1571 39.0648 22.9288 39.0648 22.6473C39.0648 22.3656 38.8365 22.1374 38.5549 22.1374Z" fill="#001042"></path><path d="M37.0609 19.7634L37.4214 19.4029C37.6205 19.2037 37.6205 18.8809 37.4214 18.6817C37.2223 18.4827 36.8995 18.4827 36.7003 18.6817L36.3398 19.0423C36.1407 19.2414 36.1407 19.5642 36.3398 19.7634C36.539 19.9625 36.8617 19.9625 37.0609 19.7634Z" fill="#001042"></path><path d="M33.4566 19.5885C33.175 19.5885 32.9467 19.8168 32.9467 20.0984V22.1379H31.4171C31.1355 22.1379 30.9072 22.3662 30.9072 22.6478C30.9072 22.9293 31.1355 23.1576 31.4171 23.1576H33.4566C33.7382 23.1576 33.9665 22.9293 33.9665 22.6478V20.0984C33.9665 19.8168 33.7382 19.5885 33.4566 19.5885Z" fill="#001042"></path><path d="M31.2052 32.5562C30.29 31.921 29.0582 31.8012 28.1919 32.473C28.144 32.51 28.0726 32.5654 26.223 34.7157C24.4024 34.0993 21.9094 31.6065 21.2922 29.7854C23.4429 27.9359 23.4982 27.8645 23.535 27.8169C24.1582 27.0139 24.1267 25.8059 23.457 24.8108C22.9048 24.0081 21.4788 21.806 20.6632 21.265C19.908 20.764 18.8418 20.7923 18.0718 21.2588C17.7505 21.4543 15.7669 23.3353 15.5117 23.8358C14.4054 26.0232 15.2967 30.0448 16.2628 32.2998C17.4721 35.1261 20.8818 38.5353 23.708 39.7442C25.1666 40.3693 27.5498 41 29.586 41C30.641 41 31.5117 40.8302 32.1713 40.4964C32.6579 40.2532 34.5474 38.2721 34.7509 37.9354C35.2333 37.1422 35.231 36.0772 34.7455 35.3454C34.221 34.5548 32.1662 33.2229 31.2052 32.5562ZM33.8795 37.4059C33.7019 37.6859 31.9276 39.4783 31.7131 39.5855C29.875 40.5156 26.0087 39.6209 24.1095 38.807C21.5318 37.7043 18.3032 34.4762 17.2002 31.8986C16.3198 29.8434 15.4962 26.1259 16.421 24.2974C16.5442 24.0554 18.3491 22.2908 18.601 22.1303C19.0608 21.8519 19.7004 21.8499 20.0995 22.1146C20.6996 22.5127 22.2105 24.7841 22.611 25.3801C22.9585 25.8962 23.1318 26.6452 22.7463 27.1696C22.5489 27.3554 21.2067 28.5147 20.38 29.2249C20.2359 29.3488 20.1726 29.5425 20.2158 29.7275C20.7523 32.0258 23.9835 35.2564 26.2811 35.792C26.4663 35.8352 26.6598 35.7718 26.7835 35.6277C27.494 34.8011 28.6535 33.459 28.8392 33.2617C29.3489 32.8869 30.0978 33.0288 30.6238 33.3937C31.2304 33.8149 33.4989 35.3109 33.8957 35.9091C34.1617 36.3099 34.1547 36.9533 33.8795 37.4059Z" fill="#001042" stroke="black" stroke-width="0.2"></path><defs><linearGradient id="paint0_linear_2716_42" x1="17.709" y1="21.9785" x2="23.8356" y2="22.4536" gradientUnits="userSpaceOnUse"><stop stop-color="#0082F8"></stop><stop offset="1" stop-color="#1C40F2"></stop></linearGradient><linearGradient id="paint1_linear_2716_42" x1="27.5342" y1="33.0048" x2="34.9881" y2="33.8745" gradientUnits="userSpaceOnUse"><stop stop-color="#0082F8"></stop><stop offset="1" stop-color="#1C40F2"></stop></linearGradient></defs></svg>