<svg xmlns="http://www.w3.org/2000/svg" width="56" height="56" viewBox="0 0 56 56" fill="none"><circle cx="28" cy="28" r="28" fill="white"></circle><g clip-path="url(#clip0_2716_43)"><path d="M27.9991 31.3123C31.0955 31.3123 33.6057 28.8022 33.6057 25.7058C33.6057 22.6094 31.0955 20.0993 27.9991 20.0993C24.9027 20.0993 22.3926 22.6094 22.3926 25.7058C22.3926 28.8022 24.9027 31.3123 27.9991 31.3123Z" fill="url(#paint0_linear_2716_43)"></path><path d="M35.9016 25.7058C35.9016 21.3492 32.3572 17.8048 28.0006 17.8048C23.644 17.8048 20.0996 21.3492 20.0996 25.7058C20.0996 30.0625 23.644 33.6068 28.0006 33.6068C32.3572 33.6068 35.9016 30.0625 35.9016 25.7058ZM28.0006 32.5912C24.204 32.5912 21.1152 29.5024 21.1152 25.7058C21.1152 21.9092 24.204 18.8204 28.0006 18.8204C31.7972 18.8204 34.886 21.9092 34.886 25.7058C34.886 29.5024 31.7972 32.5912 28.0006 32.5912Z" fill="#001042"></path><path d="M28.6206 25.2019C27.5052 24.8077 27.4183 24.6764 27.4643 24.4144C27.5533 23.9075 28.2429 23.894 28.5189 24.1507C28.519 24.1508 28.5223 24.1539 28.5225 24.154C28.7279 24.3447 29.0475 24.3313 29.2383 24.1259C29.4292 23.9205 29.4158 23.5979 29.2105 23.407C29.0003 23.2114 28.7527 23.082 28.4802 23.019V22.6465C28.4802 22.3661 28.2528 22.1387 27.9724 22.1387C27.692 22.1387 27.4646 22.3661 27.4646 22.6465V23.0697C26.9702 23.2214 26.5645 23.6666 26.464 24.2388C26.3771 24.7337 26.5448 25.2151 26.9015 25.4949C27.2619 25.7774 27.778 25.9813 28.2821 26.1595C28.6804 26.3003 28.6921 26.6052 28.6637 26.7745C28.6162 27.0569 28.3786 27.3622 27.9689 27.3649C27.5415 27.3679 27.42 27.3486 27.0974 27.1375C26.8627 26.984 26.548 27.0497 26.3944 27.2844C26.2409 27.5191 26.3066 27.8338 26.5414 27.9874C26.8923 28.2169 27.1551 28.3169 27.4646 28.3569V28.765C27.4646 29.0454 27.692 29.2728 27.9724 29.2728C28.2528 29.2728 28.4802 29.0454 28.4802 28.765V28.3045C29.144 28.1007 29.5685 27.5179 29.6652 26.9429C29.7954 26.1685 29.3756 25.4688 28.6206 25.2019Z" fill="white"></path><path d="M40.8508 36.5278L36.7306 32.4077C37.6275 31.3797 37.1459 29.8269 37.4613 28.8359C37.7427 27.9515 38.9379 26.9959 38.9379 25.7058C38.9379 24.4166 37.742 23.4581 37.4613 22.5757C37.1623 21.6361 37.58 20.1762 36.8519 19.1556C36.4011 18.5237 35.6437 18.2556 34.9754 18.0192C33.8589 17.624 33.7378 17.5309 33.0372 16.5826C32.6092 16.003 32.124 15.3461 31.3833 15.1007C30.212 14.7128 28.979 15.5703 27.9997 15.5703C27.018 15.5703 25.7878 14.7125 24.6161 15.1008C23.8755 15.3461 23.3903 16.003 22.9623 16.5826C22.2614 17.5312 22.1401 17.6243 21.0242 18.0191C20.3559 18.2556 19.5984 18.5236 19.1476 19.1556C18.4194 20.1762 18.8366 21.6381 18.5382 22.5757C18.2568 23.4601 17.0616 24.4158 17.0616 25.7058C17.0616 26.995 18.2575 27.9536 18.5382 28.836C18.8499 29.8151 18.3767 31.385 19.2689 32.4077L15.1488 36.5278C15.0024 36.6742 14.9595 36.8947 15.0403 37.0852C15.1227 37.2792 15.3138 37.3984 15.5164 37.3947L18.6582 37.3419L18.6054 40.4837C18.6019 40.6906 18.7243 40.8789 18.9149 40.9597C19.1073 41.0413 19.3273 40.9961 19.4722 40.8513L24.2041 36.1194C25.0297 36.6163 25.8397 36.3899 26.7562 36.1082C27.9105 35.7532 28.0872 35.7527 29.2433 36.1082C30.1639 36.3912 30.971 36.6156 31.7953 36.1194L36.5273 40.8513C36.6731 40.9971 36.8934 41.0408 37.0846 40.9597C37.2752 40.8789 37.3976 40.6906 37.3941 40.4837L37.3413 37.3419L40.4831 37.3947C40.6916 37.3995 40.8784 37.2757 40.9592 37.0852C41.04 36.8946 40.9971 36.6741 40.8508 36.5278ZM19.1663 36.3175L16.7549 36.3581L20.0944 33.0185C20.8078 33.3754 21.6515 33.5331 22.1502 33.9035C22.5949 34.2336 22.9663 34.891 23.442 35.4453L19.642 39.2452L19.6826 36.8338C19.6873 36.5496 19.4576 36.3139 19.1663 36.3175ZM27.9998 34.8257C26.8621 34.8257 25.6809 35.5939 24.9355 35.3467C24.1478 35.0858 23.6485 33.751 22.7556 33.0881C21.8518 32.417 20.4575 32.3434 19.9744 31.6663C19.4958 30.9956 19.8523 29.6158 19.506 28.528C19.1675 27.4644 18.0772 26.583 18.0772 25.7059C18.0772 24.8296 19.1679 23.9461 19.506 22.8838C19.8513 21.799 19.4963 20.4156 19.9744 19.7455C20.4566 19.0695 21.8544 18.9928 22.7556 18.3237C23.6509 17.6591 24.1462 16.3264 24.9355 16.065C25.6832 15.8173 26.8585 16.586 27.9998 16.586C29.1384 16.586 30.3165 15.8178 31.064 16.065C31.8518 16.326 32.351 17.6607 33.244 18.3237C34.1503 18.9966 35.5413 19.0671 36.0252 19.7455C36.5044 20.4171 36.1468 21.7942 36.4936 22.8838C36.8321 23.9474 37.9224 24.8288 37.9224 25.7059C37.9224 26.5821 36.8317 27.4657 36.4936 28.5279C36.1483 29.6127 36.5033 30.9962 36.0252 31.6663C35.5433 32.3419 34.1449 32.4193 33.244 33.0881C32.3517 33.7506 31.8517 35.0858 31.064 35.3468C30.3163 35.5945 29.1413 34.8257 27.9998 34.8257ZM36.8333 36.3175C36.5497 36.3117 36.3122 36.5444 36.317 36.8337L36.3576 39.2452L32.5576 35.4452C33.0335 34.8907 33.4047 34.2337 33.8494 33.9035C34.3495 33.5322 35.1858 33.3784 35.9052 33.0185L39.2447 36.3581L36.8333 36.3175Z" fill="#001042"></path></g><defs><linearGradient id="paint0_linear_2716_43" x1="22.3926" y1="20.9198" x2="34.2723" y2="22.054" gradientUnits="userSpaceOnUse"><stop stop-color="#0082F8"></stop><stop offset="1" stop-color="#1C40F2"></stop></linearGradient><clipPath id="clip0_2716_43"><rect width="26" height="26" fill="white" transform="translate(15 15)"></rect></clipPath></defs></svg>