<svg xmlns="http://www.w3.org/2000/svg" width="56" height="56" viewBox="0 0 56 56" fill="none"><circle cx="28" cy="28" r="28" fill="white"></circle><path d="M26.1512 25.5628C27.3183 25.2507 28.6159 25.5526 29.5317 26.4688C30.4479 27.3846 30.7498 28.6822 30.4382 29.8493C29.2706 30.1614 27.973 29.8595 27.0572 28.9433C26.141 28.0275 25.8391 26.7304 26.1512 25.5628Z" fill="url(#paint0_linear_977_612)"></path><path d="M40.2559 15.7466C40.2559 15.7466 41.241 18.7024 39.1938 23.1832C35.7782 22.8916 33.1069 20.1749 32.8193 16.8087C37.3001 14.7616 40.2559 15.7466 40.2559 15.7466Z" fill="url(#paint1_linear_977_612)"></path><path d="M20.8019 28.461L27.5399 35.199C26.6247 35.7308 25.7125 36.1963 24.8126 36.5966C24.1519 35.936 20.0664 31.8504 19.4043 31.1883C19.8046 30.2884 20.2701 29.3762 20.8019 28.461Z" fill="url(#paint2_linear_977_612)"></path><path d="M18.2861 34.1944C17.6357 34.2939 17.0359 34.5957 16.5625 35.0691C15.4339 36.1977 15.3184 39.7959 15.3089 40.2026L15.2988 40.6329C16.6135 40.8867 17.9026 40.3241 18.759 39.4671L18.9533 39.2729L19.3717 40.2773L19.8263 40.1171C21.0539 39.6847 21.6737 38.8245 21.8385 37.7468C21.4698 37.3781 18.6551 34.5635 18.2861 34.1944Z" fill="url(#paint3_linear_977_612)"></path><path d="M26.6987 23.6338C26.6987 23.6339 26.6986 23.634 26.6985 23.634C25.134 25.2003 25.3307 27.9362 26.6986 29.3042C28.2639 30.8695 30.8022 30.8712 32.3691 29.3043C33.9322 27.7413 33.9322 25.1975 32.3691 23.6338C30.8055 22.0709 28.2618 22.0709 26.6987 23.6338ZM31.6481 28.5832C30.481 29.7503 28.5879 29.752 27.4197 28.5831C26.7055 27.8693 26.2632 25.5128 27.42 24.3547L27.4199 24.3548C28.5854 23.1894 30.4822 23.1895 31.648 24.3548C32.8136 25.5209 32.8136 27.4177 31.6481 28.5832Z" fill="#001042"></path><path d="M40.7465 15.605C40.7232 15.5242 40.6798 15.449 40.6183 15.3871C40.5561 15.3245 40.4801 15.2804 40.3982 15.2567C40.0924 15.1638 38.4596 14.734 35.9242 15.2477C32.025 16.0377 28.5025 18.5294 25.6665 21.3656C24.7561 22.2761 23.906 23.2231 23.1197 24.2012L18.8939 23.4915C18.7313 23.4641 18.5655 23.5172 18.4489 23.6338L15.1493 26.9329C14.8946 27.1876 14.9775 27.6199 15.309 27.762L19.5993 29.6006C19.3641 30.0602 19.1433 30.5213 18.9389 30.981C18.8532 31.1737 18.8951 31.3994 19.0443 31.5486L19.5454 32.0497L17.3024 32.9187C16.9593 33.0516 16.8658 33.4943 17.1261 33.7546L22.2789 38.9067C22.541 39.1688 22.9877 39.072 23.1173 38.7242L23.9594 36.4632L24.4525 36.9562C24.6012 37.1048 24.8268 37.1475 25.0202 37.0615C25.4821 36.8561 25.9424 36.6353 26.4005 36.4006L28.2395 40.691C28.3062 40.8465 28.4456 40.9588 28.6117 40.9908C28.7792 41.023 28.95 40.9694 29.0687 40.8507L32.3683 37.5515C32.4849 37.4349 32.5379 37.2692 32.5106 37.1066L31.8004 32.8787C32.7815 32.091 33.7307 31.2403 34.6368 30.3343C37.4725 27.4996 39.9656 23.9774 40.7558 20.0781C41.2685 17.5484 40.8412 15.9175 40.7465 15.605ZM16.4029 27.1214L18.9841 24.5405L22.4097 25.1159C21.5089 26.319 20.7419 27.5114 20.0818 28.6981L16.4029 27.1214ZM22.4387 37.6244L18.4004 33.5867L20.3336 32.8378L23.1665 35.6703L22.4387 37.6244ZM31.4614 37.0162L28.8802 39.5971L27.3031 35.918C28.5242 35.2376 29.7241 34.4569 30.8855 33.5878L31.4614 37.0162ZM39.7564 19.8755C39.3044 22.1061 37.9241 25.6062 33.9158 29.6131C33.9158 29.6132 33.9158 29.6132 33.9158 29.6132C31.2059 32.3227 28.1034 34.5206 24.9241 35.9857C24.321 35.3826 20.7933 31.8554 20.0148 31.077C21.5575 27.73 23.8022 24.6723 26.3877 22.0865C30.3946 18.0792 33.8955 16.6991 36.1268 16.247C37.9862 15.8703 39.294 16.0507 39.8369 16.1662C39.9526 16.7092 40.1332 18.0167 39.7564 19.8755Z" fill="#001042"></path><defs><linearGradient id="paint0_linear_977_612" x1="26.0322" y1="25.7749" x2="30.8259" y2="26.2326" gradientUnits="userSpaceOnUse"><stop stop-color="#0082F8"></stop><stop offset="1" stop-color="#1C40F2"></stop></linearGradient><linearGradient id="paint1_linear_977_612" x1="32.8193" y1="16.0712" x2="40.949" y2="16.8474" gradientUnits="userSpaceOnUse"><stop stop-color="#0082F8"></stop><stop offset="1" stop-color="#1C40F2"></stop></linearGradient><linearGradient id="paint2_linear_977_612" x1="19.4043" y1="29.0563" x2="28.0236" y2="29.8792" gradientUnits="userSpaceOnUse"><stop stop-color="#0082F8"></stop><stop offset="1" stop-color="#1C40F2"></stop></linearGradient><linearGradient id="paint3_linear_977_612" x1="15.2988" y1="34.67" x2="22.2265" y2="35.3355" gradientUnits="userSpaceOnUse"><stop stop-color="#0082F8"></stop><stop offset="1" stop-color="#1C40F2"></stop></linearGradient></defs></svg>