<svg xmlns="http://www.w3.org/2000/svg" width="24" height="24" viewBox="0 0 24 24" fill="none"><g clip-path="url(#clip0_4110_251)"><path d="M10.1309 18.6538C13.8044 18.6538 16.7823 15.6747 16.7823 11.9998C16.7823 8.32482 13.8044 5.3457 10.1309 5.3457C6.45743 5.3457 3.47949 8.32482 3.47949 11.9998C3.47949 15.6747 6.45743 18.6538 10.1309 18.6538Z" fill="url(#paint0_linear_4110_251)"></path><path d="M22.2155 17.3137C23.3682 15.7919 24 13.9162 24 11.9998C24 7.14777 20.0541 3.20033 15.2039 3.20033C15.1918 3.20033 15.1798 3.2008 15.1679 3.20169C13.6515 2.32962 11.9268 1.86523 10.1308 1.86523C7.42472 1.86523 4.88062 2.91945 2.96719 4.83369C1.05375 6.74783 0 9.29277 0 11.9998C0 14.2215 0.73725 16.3957 2.08158 18.1545L1.44684 19.6497C1.38098 19.8049 1.40353 19.9836 1.50591 20.1175C1.60828 20.2514 1.77459 20.3199 1.9418 20.2973L3.942 20.024C5.706 21.3863 7.89548 22.1344 10.1307 22.1344C11.9268 22.1344 13.6515 21.6699 15.1679 20.7979C15.1797 20.7988 15.1917 20.7993 15.2038 20.7993C17.1356 20.7993 19.0278 20.1559 20.5557 18.9835L22.2529 19.2154C22.4199 19.2381 22.5863 19.1695 22.6888 19.0356C22.7911 18.9016 22.8137 18.723 22.7478 18.5678L22.2155 17.3137ZM4.36997 19.1676C4.28616 19.1001 4.18228 19.064 4.07597 19.064C4.05487 19.064 4.03364 19.0654 4.0125 19.0683L2.63217 19.2568L3.05292 18.2656C3.12066 18.106 3.09478 17.922 2.98561 17.7874C1.66486 16.1576 0.9375 14.1022 0.9375 11.9998C0.9375 6.92848 5.06156 2.80269 10.1308 2.80269C15.1999 2.80269 19.324 6.92848 19.324 11.9998C19.324 17.0711 15.1999 21.1969 10.1308 21.1969C8.01023 21.1969 6.01814 20.4952 4.36997 19.1676ZM20.4858 18.0278C20.3579 18.0104 20.2287 18.0463 20.1283 18.1272C19.1125 18.9453 17.9439 19.4854 16.6915 19.7231C16.8986 19.5464 17.0998 19.3607 17.2943 19.166C19.2077 17.2519 20.2615 14.7069 20.2615 11.9998C20.2615 9.29281 19.2077 6.74788 17.2943 4.83369C17.101 4.64023 16.9012 4.45559 16.6954 4.27991C20.3179 4.97895 23.0625 8.17475 23.0625 11.9998C23.0625 13.797 22.4408 15.554 21.3118 16.9472C21.2026 17.0819 21.1767 17.2658 21.2445 17.4254L21.5625 18.1748L20.4858 18.0278Z" fill="white"></path><path d="M13.5139 9.34819C13.2137 9.04805 12.8148 8.88281 12.3904 8.88281H12.3887C11.9636 8.88328 11.5644 9.04941 11.2644 9.35063L9.45306 11.1698L9.00329 10.7097C8.70423 10.4039 8.30392 10.2341 7.87614 10.2316C7.87304 10.2316 7.87 10.2316 7.8669 10.2316C7.44254 10.2316 7.04397 10.3967 6.74364 10.697C6.12765 11.313 6.12479 12.3182 6.73736 12.9376L8.49859 14.7189C8.75181 14.975 9.08964 15.1164 9.44978 15.1172H9.45268C9.81175 15.1172 10.149 14.9772 10.4027 14.7229L13.5193 11.5975C14.137 10.978 14.1363 9.97073 13.5187 9.35306L13.5139 9.34819ZM12.8555 10.9356L9.73886 14.061C9.66245 14.1375 9.56087 14.1797 9.45268 14.1797H9.45179C9.34333 14.1795 9.24156 14.1369 9.16525 14.0597L7.40401 12.2784C7.1529 12.0245 7.15403 11.6124 7.40659 11.3599C7.52968 11.2367 7.69309 11.1691 7.86709 11.1691H7.87089C8.04625 11.1701 8.21036 11.2397 8.33298 11.3651L9.1149 12.1649C9.20256 12.2545 9.32251 12.3053 9.44795 12.3059H9.45006C9.5747 12.3059 9.69423 12.2563 9.78222 12.1679L11.9288 10.0121C12.0517 9.88861 12.2154 9.8205 12.3897 9.82031H12.3904C12.5643 9.82031 12.7279 9.88805 12.85 10.0101L12.8549 10.015C13.1085 10.2687 13.1088 10.6816 12.8555 10.9356Z" fill="white"></path></g><defs><linearGradient id="paint0_linear_4110_251" x1="3.47949" y1="6.31947" x2="17.5733" y2="7.66454" gradientUnits="userSpaceOnUse"><stop stop-color="#0082F8"></stop><stop offset="1" stop-color="#1C40F2"></stop></linearGradient><clipPath id="clip0_4110_251"><rect width="24" height="24" fill="white"></rect></clipPath></defs></svg>