<svg xmlns="http://www.w3.org/2000/svg" width="67" height="56" viewBox="0 0 67 56" fill="none"><circle cx="28" cy="28" r="28" fill="url(#paint0_linear_5302_650)" fill-opacity="0.15"></circle><path fill-rule="evenodd" clip-rule="evenodd" d="M42.6445 48.2165C44.1832 47.5481 45.9207 46.4181 47.0482 45.6304C49.7521 43.7413 52.3131 41.4882 54.5243 39.0909C56.0344 37.4536 57.4459 35.6774 58.5927 33.7904C60.4773 30.6893 61.8193 26.8165 60.621 23.2633C59.8112 20.8622 57.9184 18.9768 55.4473 18.0662C52.0539 16.8156 48.5395 17.6885 45.9953 20.1054L42.6445 23.2888L39.2936 20.1056C36.7495 17.6886 33.235 16.8157 29.8416 18.0664C27.3707 18.977 25.4777 20.8624 24.668 23.2635C23.4698 26.8167 24.8117 30.6895 26.6964 33.7905C27.8432 35.6776 29.2546 37.4538 30.7648 39.091C32.9759 41.4883 35.537 43.7414 38.2409 45.6305C39.3681 46.4181 41.1057 47.5482 42.6445 48.2165Z" fill="url(#paint1_linear_5302_650)"></path><path fill-rule="evenodd" clip-rule="evenodd" d="M62.6962 36.0415C73.4909 18.2795 53.6404 6.47582 42.6441 16.9223C31.6477 6.47582 11.7973 18.2795 22.5919 36.0415C27.5599 44.2161 37.5798 51.7108 42.6441 53C47.7084 51.7108 57.7282 44.2161 62.6962 36.0415Z" stroke="#020288" stroke-width="2.00088" stroke-miterlimit="22.9256" stroke-linecap="round" stroke-linejoin="round"></path><path d="M14 33.0007H31.3893L32.9078 29.5961L36.8567 38.4499L41.5185 27.9976L43.7499 33.0007H47.4226" stroke="#020288" stroke-width="2.00088" stroke-miterlimit="22.9256" stroke-linecap="round" stroke-linejoin="round"></path><path d="M51.9168 34.7685C52.945 33.7918 52.945 32.2082 51.9168 31.2315C50.8887 30.2548 49.2218 30.2548 48.1936 31.2315C47.1655 32.2082 47.1655 33.7918 48.1936 34.7685C49.2218 35.7452 50.8887 35.7452 51.9168 34.7685Z" stroke="#020288" stroke-width="2.00088" stroke-miterlimit="22.9256" stroke-linecap="round" stroke-linejoin="round"></path><defs><linearGradient id="paint0_linear_5302_650" x1="2.5" y1="59.5" x2="43.5" y2="25.5" gradientUnits="userSpaceOnUse"><stop offset="0.149286" stop-color="#1C40F2"></stop><stop offset="1" stop-color="#1C40F2" stop-opacity="0"></stop></linearGradient><linearGradient id="paint1_linear_5302_650" x1="24.2134" y1="19.7457" x2="63.1126" y2="24.2024" gradientUnits="userSpaceOnUse"><stop stop-color="#0082F8"></stop><stop offset="1" stop-color="#1C40F2"></stop></linearGradient></defs></svg>