<svg xmlns="http://www.w3.org/2000/svg" width="60" height="56" viewBox="0 0 60 56" fill="none"><circle cx="28" cy="28" r="28" fill="url(#paint0_linear_5302_648)" fill-opacity="0.15"></circle><path fill-rule="evenodd" clip-rule="evenodd" d="M38.8942 9.88965H30.6429C27.1713 9.88965 24.332 12.7215 24.332 16.1843V22.479C24.6934 22.0712 25.2243 21.8121 25.8092 21.8121H27.0515C29.7936 21.3548 29.5994 19.032 29.9653 16.9503C35.6438 21.8121 39.5424 17.901 42.4833 21.8121H43.7279C44.3129 21.8121 44.8415 22.0711 45.2051 22.479V16.1843C45.2052 12.7215 42.3636 9.88965 38.8942 9.88965V9.88965Z" fill="url(#paint1_linear_5302_648)"></path><path d="M31.7793 22.9854C31.3392 22.9854 30.9824 23.3421 30.9824 23.7822V24.7599C30.9824 25.2 31.3392 25.5568 31.7793 25.5568C32.2193 25.5568 32.5761 25.2 32.5761 24.7599V23.7822C32.5761 23.3421 32.2193 22.9854 31.7793 22.9854Z" fill="#020288"></path><path d="M37.7558 25.5568C38.1958 25.5568 38.5527 25.2 38.5527 24.7599V23.7822C38.5527 23.3421 38.1958 22.9854 37.7558 22.9854C37.3158 22.9854 36.959 23.3421 36.959 23.7822V24.7599C36.959 25.2 37.3157 25.5568 37.7558 25.5568Z" fill="#020288"></path><path d="M46.3957 37.26C44.1521 35.9304 41.3672 35.3506 39.3337 34.9274C39.0635 34.8711 38.8014 34.8165 38.553 34.7629V33.3527C41.1253 32.0723 42.9599 29.5308 43.2399 26.5452H43.7261C45.254 26.5452 46.497 25.3044 46.497 23.7794C46.497 22.253 45.254 21.0112 43.7261 21.0112H42.8637C41.2989 19.1621 39.4937 19.0606 37.5879 18.9546C35.5561 18.8417 33.2532 18.7138 30.4817 16.3409C30.2642 16.1549 29.9637 16.0996 29.6944 16.1961C29.425 16.2927 29.2281 16.5264 29.1786 16.8083C29.1181 17.152 29.0728 17.4976 29.029 17.832C28.7818 19.7156 28.5753 20.7213 26.9769 21.0112H25.8074C24.2795 21.0112 23.0365 22.253 23.0365 23.7794C23.0365 25.3045 24.2796 26.5452 25.8074 26.5452H26.2913C26.5714 29.5317 28.407 32.0739 30.9804 33.3538V34.7629C30.7321 34.8165 30.47 34.8711 30.1997 34.9274C28.1662 35.3506 25.3814 35.9304 23.1378 37.26C20.3922 38.8871 19 41.3084 19 44.4566V47.2006C19 47.6407 19.3568 47.9975 19.7968 47.9975H49.7365C50.1765 47.9975 50.5334 47.6407 50.5334 47.2006V44.4566C50.5334 41.3084 49.1413 38.8871 46.3957 37.26ZM43.2784 22.6048H43.7261C44.3752 22.6048 44.9034 23.1317 44.9034 23.7793C44.9034 24.4256 44.3752 24.9514 43.7261 24.9514H43.2784V22.6048ZM26.2529 24.9514H25.8074C25.1583 24.9514 24.6302 24.4256 24.6302 23.7793C24.6302 23.1317 25.1583 22.6048 25.8074 22.6048H26.2529V24.9514ZM27.8465 25.7483V22.4392C29.9536 21.7932 30.3398 20.0003 30.5587 18.4175C33.261 20.3105 35.5864 20.4395 37.4996 20.5458C39.2561 20.6434 40.547 20.7151 41.6847 22.0843V25.7483C41.6847 29.5525 38.5808 32.6474 34.7656 32.6474C30.9504 32.6474 27.8465 29.5525 27.8465 25.7483V25.7483ZM36.9727 35.5438C36.9643 35.59 36.9593 35.6373 36.9593 35.686C36.9593 36.8901 35.9752 37.8697 34.7656 37.8697C33.5572 37.8697 32.5741 36.8901 32.5741 35.686C32.5741 35.6373 32.5691 35.59 32.5607 35.5438C32.5694 35.4969 32.5741 35.4488 32.5741 35.3998V33.9553C33.2737 34.1414 34.0081 34.2411 34.7656 34.2411C35.5239 34.2411 36.2591 34.1411 36.9593 33.9547V35.3998C36.9593 35.4488 36.9641 35.4969 36.9727 35.5438ZM48.9397 46.4037H44.0756V43.7514C44.0756 43.3113 43.7188 42.9545 43.2788 42.9545C42.8387 42.9545 42.4819 43.3113 42.4819 43.7514V46.4037H27.0515V43.7514C27.0515 43.3113 26.6946 42.9545 26.2546 42.9545C25.8146 42.9545 25.4578 43.3113 25.4578 43.7514V46.4037H20.5937V44.4565C20.5937 41.875 21.6916 39.9695 23.9503 38.631C25.9657 37.4366 28.4935 36.9104 30.5245 36.4876C30.702 36.4506 30.8757 36.4144 31.0453 36.3786C31.3723 38.1316 32.9156 39.4634 34.7656 39.4634C36.6167 39.4634 38.1609 38.1316 38.4881 36.3786C38.6577 36.4144 38.8314 36.4506 39.0089 36.4876C41.0399 36.9104 43.5678 37.4366 45.5831 38.631C47.8419 39.9695 48.9398 41.875 48.9398 44.4565V46.4037H48.9397Z" fill="#020288"></path><path d="M51.2715 21.0908C50.8314 21.0908 50.4746 21.4476 50.4746 21.8877V21.8922C50.4746 22.3323 50.8314 22.6868 51.2715 22.6868C51.7115 22.6868 52.0683 22.3278 52.0683 21.8877C52.0683 21.4476 51.7115 21.0908 51.2715 21.0908Z" fill="#020288"></path><path d="M54.0228 14.3895C54.745 13.6294 55.1131 12.6339 55.0594 11.5855C54.9564 9.61536 53.326 8.0408 51.3481 8.0008C51.3217 8.00024 51.2954 8 51.2691 8C49.3816 8 47.7746 9.3877 47.5147 11.2511C47.4891 11.4236 47.4766 11.5982 47.4766 11.7848C47.4766 12.2249 47.8334 12.5817 48.2734 12.5817C48.7134 12.5817 49.0702 12.2249 49.0702 11.7848C49.0702 11.6773 49.077 11.5793 49.092 11.4781C49.2449 10.3813 50.1993 9.5709 51.3156 9.59416C52.4628 9.61735 53.4083 10.5286 53.4678 11.6679C53.4989 12.2748 53.2857 12.8515 52.8674 13.2918C52.4473 13.734 51.8802 13.9775 51.2707 13.9775C50.8307 13.9775 50.4739 14.3343 50.4739 14.7744V17.8991C50.4739 18.3392 50.8307 18.6959 51.2707 18.6959C51.7107 18.6959 52.0676 18.3392 52.0676 17.8991V15.4858C52.8083 15.3255 53.4948 14.9452 54.0228 14.3895V14.3895Z" fill="#020288"></path><path d="M56.0029 36.374C55.5629 36.374 55.2061 36.7308 55.2061 37.1709V37.1776C55.2061 37.6177 55.5629 37.9711 56.0029 37.9711C56.4429 37.9711 56.7997 37.611 56.7997 37.1709C56.7997 36.7309 56.4429 36.374 56.0029 36.374V36.374Z" fill="#020288"></path><path d="M59.7956 26.8688C59.6926 24.8987 58.0624 23.3241 56.0844 23.2841C54.1602 23.2426 52.5145 24.6451 52.249 26.5476C52.2247 26.7326 52.2129 26.9029 52.2129 27.0681C52.2129 27.5082 52.5697 27.865 53.0097 27.865C53.4497 27.865 53.8066 27.5082 53.8066 27.0681C53.8066 26.973 53.814 26.8706 53.8282 26.7614C53.9813 25.6645 54.937 24.8533 56.0519 24.8775C57.1991 24.9007 58.1445 25.8119 58.204 26.9512C58.2352 27.5581 58.022 28.1349 57.6037 28.5751C57.1835 29.0173 56.6165 29.2608 56.0071 29.2608C55.567 29.2608 55.2102 29.6176 55.2102 30.0577V33.1825C55.2102 33.6226 55.567 33.9793 56.0071 33.9793C56.4471 33.9793 56.8039 33.6226 56.8039 33.1825V30.7691C57.5446 30.6088 58.2311 30.2284 58.759 29.6728C59.4811 28.9127 59.8493 27.9172 59.7956 26.8688V26.8688Z" fill="#020288"></path><defs><linearGradient id="paint0_linear_5302_648" x1="2.5" y1="59.5" x2="43.5" y2="25.5" gradientUnits="userSpaceOnUse"><stop offset="0.149286" stop-color="#1C40F2"></stop><stop offset="1" stop-color="#1C40F2" stop-opacity="0"></stop></linearGradient><linearGradient id="paint1_linear_5302_648" x1="24.332" y1="10.8108" x2="46.1021" y2="14.2569" gradientUnits="userSpaceOnUse"><stop stop-color="#0082F8"></stop><stop offset="1" stop-color="#1C40F2"></stop></linearGradient></defs></svg>