<svg xmlns="http://www.w3.org/2000/svg" width="56" height="56" viewBox="0 0 56 56" fill="none"><circle cx="28" cy="28" r="28" fill="url(#paint0_linear_5302_649)" fill-opacity="0.15"></circle><g clip-path="url(#clip0_5302_649)"><path d="M50.3551 42.3552C52.6523 40.058 52.6523 36.3336 50.3551 34.0364C48.058 31.7392 44.3335 31.7392 42.0363 34.0364C39.7392 36.3336 39.7392 40.058 42.0363 42.3552C44.3335 44.6524 48.058 44.6524 50.3551 42.3552Z" fill="url(#paint1_linear_5302_649)"></path><path d="M23.8429 21.333H19.9214V25.2546H23.8429V21.333Z" fill="url(#paint2_linear_5302_649)"></path><path d="M31.6862 21.333H27.7646V25.2546H31.6862V21.333Z" fill="url(#paint3_linear_5302_649)"></path><path d="M39.5295 21.333H35.6079V25.2546H39.5295V21.333Z" fill="url(#paint4_linear_5302_649)"></path><path d="M47.3722 21.333H43.4507V25.2546H47.3722V21.333Z" fill="url(#paint5_linear_5302_649)"></path><path d="M23.8429 28.3916H19.9214V32.3132H23.8429V28.3916Z" fill="url(#paint6_linear_5302_649)"></path><path d="M31.6862 28.3916H27.7646V32.3132H31.6862V28.3916Z" fill="url(#paint7_linear_5302_649)"></path><path d="M39.3577 32.3132H35.6079V28.3916H39.5295V32.1194" fill="url(#paint8_linear_5302_649)"></path><path d="M23.8429 35.4507H19.9214V39.3722H23.8429V35.4507Z" fill="url(#paint9_linear_5302_649)"></path><path d="M31.6862 35.4507H27.7646V39.3722H31.6862V35.4507Z" fill="url(#paint10_linear_5302_649)"></path><path d="M23.4507 11.9214V10.745C23.4507 9.66206 24.3286 8.78418 25.4115 8.78418C26.4944 8.78418 27.3722 9.66206 27.3722 10.745V13.0979C27.3722 14.1808 26.4944 15.0587 25.4115 15.0587" stroke="#020288" stroke-width="1.56862" stroke-miterlimit="10" stroke-linecap="round" stroke-linejoin="round"></path><path d="M32.0781 11.9214V10.745C32.0781 9.66206 32.956 8.78418 34.0389 8.78418C35.1218 8.78418 35.9997 9.66206 35.9997 10.745V13.0979C35.9997 14.1808 35.1218 15.0587 34.0389 15.0587" stroke="#020288" stroke-width="1.56862" stroke-miterlimit="10" stroke-linecap="round" stroke-linejoin="round"></path><path d="M40.7056 11.9214V10.745C40.7056 9.66206 41.5834 8.78418 42.6663 8.78418C43.7492 8.78418 44.6271 9.66206 44.6271 10.745V13.0979C44.6271 14.1808 43.7492 15.0587 42.6663 15.0587" stroke="#020288" stroke-width="1.56862" stroke-miterlimit="10" stroke-linecap="round" stroke-linejoin="round"></path><path d="M51.2938 30.7535V18.1959V14.2743C51.2938 12.9747 50.2405 11.9214 48.9409 11.9214H19.1371C17.8375 11.9214 16.7842 12.9747 16.7842 14.2743V18.1959V42.5095V43.2938C16.7842 44.5934 17.8375 45.6467 19.1371 45.6467H41.1104" stroke="#020288" stroke-width="1.56862" stroke-miterlimit="10" stroke-linecap="round" stroke-linejoin="round"></path><path d="M51.2938 30.7534V18.1958H16.7842V42.5094H38.2735" stroke="#020288" stroke-width="1.56862" stroke-miterlimit="10" stroke-linecap="round" stroke-linejoin="round"></path><path d="M16.7842 18.1958H51.2938" stroke="#020288" stroke-width="1.56862" stroke-miterlimit="10" stroke-linecap="round" stroke-linejoin="round"></path><path d="M46.3015 35.4526L46.1777 38.67" stroke="#020288" stroke-width="1.56862" stroke-miterlimit="10" stroke-linecap="round" stroke-linejoin="round"></path><path d="M46.1777 38.6704L48.1371 38.7458" stroke="#020288" stroke-width="1.56862" stroke-miterlimit="10" stroke-linecap="round" stroke-linejoin="round"></path><path d="M52.5732 44.5735C56.0955 41.0512 56.0955 35.3404 52.5732 31.8181C49.0508 28.2957 43.34 28.2957 39.8177 31.8181C36.2954 35.3404 36.2954 41.0512 39.8177 44.5735C43.34 48.0959 49.0508 48.0959 52.5732 44.5735Z" stroke="#020288" stroke-width="1.56862" stroke-miterlimit="10" stroke-linecap="round" stroke-linejoin="round"></path></g><defs><linearGradient id="paint0_linear_5302_649" x1="2.5" y1="59.5" x2="43.5" y2="25.5" gradientUnits="userSpaceOnUse"><stop offset="0.149286" stop-color="#1C40F2"></stop><stop offset="1" stop-color="#1C40F2" stop-opacity="0"></stop></linearGradient><linearGradient id="paint1_linear_5302_649" x1="38.4856" y1="38.8045" x2="48.1404" y2="30.8326" gradientUnits="userSpaceOnUse"><stop stop-color="#0082F8"></stop><stop offset="1" stop-color="#1C40F2"></stop></linearGradient><linearGradient id="paint2_linear_5302_649" x1="19.9214" y1="21.62" x2="24.0761" y2="22.0166" gradientUnits="userSpaceOnUse"><stop stop-color="#0082F8"></stop><stop offset="1" stop-color="#1C40F2"></stop></linearGradient><linearGradient id="paint3_linear_5302_649" x1="27.7646" y1="21.62" x2="31.9193" y2="22.0166" gradientUnits="userSpaceOnUse"><stop stop-color="#0082F8"></stop><stop offset="1" stop-color="#1C40F2"></stop></linearGradient><linearGradient id="paint4_linear_5302_649" x1="35.6079" y1="21.62" x2="39.7626" y2="22.0166" gradientUnits="userSpaceOnUse"><stop stop-color="#0082F8"></stop><stop offset="1" stop-color="#1C40F2"></stop></linearGradient><linearGradient id="paint5_linear_5302_649" x1="43.4507" y1="21.62" x2="47.6054" y2="22.0166" gradientUnits="userSpaceOnUse"><stop stop-color="#0082F8"></stop><stop offset="1" stop-color="#1C40F2"></stop></linearGradient><linearGradient id="paint6_linear_5302_649" x1="19.9214" y1="28.6785" x2="24.0761" y2="29.0752" gradientUnits="userSpaceOnUse"><stop stop-color="#0082F8"></stop><stop offset="1" stop-color="#1C40F2"></stop></linearGradient><linearGradient id="paint7_linear_5302_649" x1="27.7646" y1="28.6785" x2="31.9193" y2="29.0752" gradientUnits="userSpaceOnUse"><stop stop-color="#0082F8"></stop><stop offset="1" stop-color="#1C40F2"></stop></linearGradient><linearGradient id="paint8_linear_5302_649" x1="35.6079" y1="28.6785" x2="39.7626" y2="29.0752" gradientUnits="userSpaceOnUse"><stop stop-color="#0082F8"></stop><stop offset="1" stop-color="#1C40F2"></stop></linearGradient><linearGradient id="paint9_linear_5302_649" x1="19.9214" y1="35.7376" x2="24.0761" y2="36.1343" gradientUnits="userSpaceOnUse"><stop stop-color="#0082F8"></stop><stop offset="1" stop-color="#1C40F2"></stop></linearGradient><linearGradient id="paint10_linear_5302_649" x1="27.7646" y1="35.7376" x2="31.9193" y2="36.1343" gradientUnits="userSpaceOnUse"><stop stop-color="#0082F8"></stop><stop offset="1" stop-color="#1C40F2"></stop></linearGradient><clipPath id="clip0_5302_649"><rect width="40" height="40" fill="white" transform="translate(16 8)"></rect></clipPath></defs></svg>