<svg xmlns="http://www.w3.org/2000/svg" width="57" height="56" viewBox="0 0 57 56" fill="none"><circle cx="28" cy="28" r="28" fill="url(#paint0_linear_5302_647)" fill-opacity="0.15"></circle><g clip-path="url(#clip0_5302_647)"><path d="M42.9955 38.209H21.3487C19.3784 38.209 17.7812 36.6118 17.7812 34.6416V18.2713C17.7812 16.3011 19.3784 14.7039 21.3487 14.7039H42.9955C44.9658 14.7039 46.563 16.3011 46.563 18.2713V32.0711" stroke="#020288" stroke-width="1.875" stroke-miterlimit="10" stroke-linecap="round" stroke-linejoin="round"></path><path d="M25.4159 26.7871H23.2474C20.2286 26.7871 17.7812 24.338 17.7812 21.3168V20.0023" stroke="#020288" stroke-width="1.875" stroke-miterlimit="10" stroke-linecap="round" stroke-linejoin="round"></path><path d="M36.932 26.7866H27.3574" stroke="#020288" stroke-width="1.875" stroke-miterlimit="10" stroke-linecap="round" stroke-linejoin="round"></path><path d="M46.5636 20.0023V21.3169C46.5636 24.338 44.1163 26.7871 41.0974 26.7871H38.7676" stroke="#020288" stroke-width="1.875" stroke-miterlimit="10" stroke-linecap="round" stroke-linejoin="round"></path><path d="M39.6842 29.6821H36.1729V24.2095H39.6842V29.6821Z" fill="url(#paint1_linear_5302_647)"></path><path d="M28.1706 29.6821H24.6592V24.2095H28.1706V29.6821Z" fill="url(#paint2_linear_5302_647)"></path><path d="M36.4052 14.7036H27.9434V12.7192C27.9434 11.5274 28.9095 10.5613 30.1012 10.5613H34.2473C35.4391 10.5613 36.4052 11.5274 36.4052 12.7192V14.7036Z" stroke="#020288" stroke-width="1.875" stroke-miterlimit="10" stroke-linecap="round" stroke-linejoin="round"></path><path d="M36.4418 42.9793L44.7464 29.356C45.5762 27.9945 47.5516 27.9945 48.3815 29.356L56.6861 42.9793C57.5516 44.3992 56.5305 46.2197 54.8685 46.2197H38.2594C36.5974 46.2197 35.5763 44.3992 36.4418 42.9793Z" fill="url(#paint3_linear_5302_647)"></path><path d="M46.5176 34.6548V38.8218" stroke="white" stroke-width="1.875" stroke-miterlimit="10" stroke-linecap="round" stroke-linejoin="round"></path></g><defs><linearGradient id="paint0_linear_5302_647" x1="2.5" y1="59.5" x2="43.5" y2="25.5" gradientUnits="userSpaceOnUse"><stop offset="0.149286" stop-color="#1C40F2"></stop><stop offset="1" stop-color="#1C40F2" stop-opacity="0"></stop></linearGradient><linearGradient id="paint1_linear_5302_647" x1="36.1729" y1="29.2817" x2="39.9128" y2="29.0526" gradientUnits="userSpaceOnUse"><stop stop-color="#0082F8"></stop><stop offset="1" stop-color="#1C40F2"></stop></linearGradient><linearGradient id="paint2_linear_5302_647" x1="24.6592" y1="29.2817" x2="28.3992" y2="29.0526" gradientUnits="userSpaceOnUse"><stop stop-color="#0082F8"></stop><stop offset="1" stop-color="#1C40F2"></stop></linearGradient><linearGradient id="paint3_linear_5302_647" x1="36.127" y1="44.9111" x2="58.1698" y2="42.4548" gradientUnits="userSpaceOnUse"><stop stop-color="#0082F8"></stop><stop offset="1" stop-color="#1C40F2"></stop></linearGradient><clipPath id="clip0_5302_647"><rect width="40" height="40" fill="white" transform="translate(17 8)"></rect></clipPath></defs></svg>