<svg width="160" height="46" viewBox="0 0 160 46" fill="none" xmlns="http://www.w3.org/2000/svg">
<path d="M18.2184 2.35288C20.6947 0.90008 23.7631 0.900079 26.2394 2.35288L37.5647 8.99726C39.9899 10.4201 41.4797 13.0214 41.4797 15.8331V29.3433C41.4797 32.1551 39.9899 34.7564 37.5647 36.1792L26.2394 42.8236C23.7631 44.2764 20.6947 44.2764 18.2184 42.8236L6.89309 36.1792C4.46789 34.7564 2.97811 32.1551 2.97811 29.3433V15.8331C2.97811 13.0214 4.46789 10.4201 6.89309 8.99727L18.2184 2.35288Z" fill="url(#paint0_linear_2788_133)"/>
<path d="M25.3725 10.2029H24.6082V20.1522H21.1338V14.2164H14.1895V29.3009C14.1895 32.855 16.9617 35.7463 20.3695 35.7463H21.1338V26.3897H24.6082V32.5646H31.5525V16.6482C31.5525 13.0942 28.7802 10.2029 25.3725 10.2029ZM19.6052 34.0866C17.4023 33.7056 15.7181 31.7043 15.7181 29.3009V26.3897H19.6052V34.0866ZM30.0239 30.9704H26.1368V24.7955H15.7181V15.8107H19.6052V21.7464H30.0239V30.9704ZM30.0239 20.1522H26.1368V11.8626C28.3397 12.2435 30.0239 14.2443 30.0239 16.6482V20.1522Z" fill="white"/>
<path d="M54.037 14.204H58.5442V29.9794H54.037V14.204ZM66.4319 24.3453H61.9246L59.671 20.9649H66.4319V14.204H70.9391V29.9794H66.4319V24.3453ZM85.5877 18.7113C85.5877 17.9601 85.2121 17.5844 84.4609 17.5844V14.204C88.2169 14.204 90.0949 15.7064 90.0949 18.7113V25.4721C90.0949 28.477 88.2169 29.9794 84.4609 29.9794H79.9536V26.5989H84.4609C85.2121 26.5989 85.5877 26.2233 85.5877 25.4721V18.7113ZM77.7 25.4721C77.7 26.2233 78.0756 26.5989 78.8268 26.5989V29.9794C75.0708 29.9794 73.1928 28.477 73.1928 25.4721V18.7113C73.1928 15.7064 75.0708 14.204 78.8268 14.204H83.3341V17.5844H78.8268C78.0756 17.5844 77.7 17.9601 77.7 18.7113V25.4721ZM97.9826 14.204H109.251V17.5844H97.9826C97.2314 17.5844 96.8558 17.9601 96.8558 18.7113V19.8381C96.8558 20.5893 97.2314 20.9649 97.9826 20.9649H100.236V24.3453H97.9826C94.2266 24.3453 92.3485 22.8429 92.3485 19.8381V18.7113C92.3485 15.7064 94.2266 14.204 97.9826 14.204ZM103.617 29.9794H92.3485V26.5989H103.617C104.368 26.5989 104.743 26.2233 104.743 25.4721C104.743 24.7209 104.368 24.3453 103.617 24.3453H101.363V20.9649H103.617C107.373 20.9649 109.251 22.4673 109.251 25.4721C109.251 28.477 107.373 29.9794 103.617 29.9794ZM127.28 17.5844H111.504V14.204H127.28V17.5844ZM117.138 18.7113H121.646V29.9794H117.138V18.7113ZM129.263 14.204H133.77V29.9794H129.263V14.204ZM140.531 20.9423V29.9794H136.024V14.204H141.883L148.498 27.3201L146.165 31.8161L140.531 20.9423ZM156.306 14.204V29.9794H151.799V20.9423L149.185 25.9905L146.83 21.3255L150.447 14.204H156.306Z" fill="#001042"/>
<defs>
<linearGradient id="paint0_linear_2788_133" x1="-3.10516e-07" y1="3.3056" x2="47.1144" y2="7.73226" gradientUnits="userSpaceOnUse">
<stop stop-color="#0082F8"/>
<stop offset="1" stop-color="#1C40F2"/>
</linearGradient>
</defs>
</svg>
