<svg xmlns="http://www.w3.org/2000/svg" width="67" height="60" viewBox="0 0 67 60" fill="none"><circle cx="46.1538" cy="34.3482" r="20.3936" fill="#0082F8" fill-opacity="0.15"></circle><path d="M24.8307 43.0338L0 30.0441V38.7039L24.8307 53.1075V43.0338Z" fill="url(#paint0_linear_5452_1382)"></path><path d="M49.308 38.7041V30.0443L24.7424 43.1224L24.8308 53.1076L49.308 38.7041Z" fill="url(#paint1_linear_5452_1382)"></path><path d="M0 30.0443L24.7423 44.4479L49.3079 30.0443L24.6539 15.6408L0 30.0443Z" fill="url(#paint2_linear_5452_1382)"></path><path d="M24.8307 29.1604L0 16.1707V24.8305L24.8307 39.234V29.1604Z" fill="url(#paint3_linear_5452_1382)"></path><path d="M49.308 24.8302V16.1704L24.7424 29.2485L24.8308 39.2338L49.308 24.8302Z" fill="url(#paint4_linear_5452_1382)"></path><path d="M0 16.1708L24.7423 30.486L49.3079 16.1708L24.6539 1.76728L0 16.1708Z" fill="url(#paint5_linear_5452_1382)"></path><path d="M5.30192 17.4082L0 14.3154V16.171L5.30192 19.2638V17.4082Z" fill="url(#paint6_linear_5452_1382)"></path><path d="M29.8673 4.86009V3.00441L5.30176 16.1709V19.2636L29.8673 4.86009Z" fill="url(#paint7_linear_5452_1382)"></path><path d="M0 14.4036L5.30192 17.408L29.7791 3.00442L24.6539 0L0 14.4036Z" fill="url(#paint8_linear_5452_1382)"></path><path d="M19.3519 20.1474C19.0868 19.9707 18.8217 19.7056 18.645 19.3521C18.5566 19.0871 18.4683 18.822 18.5566 18.6452C18.645 18.3801 18.7334 18.115 18.9101 17.9383C19.1752 17.6732 19.4403 17.4965 19.7054 17.3197C20.0588 17.143 20.4123 16.9663 20.8541 16.8779C21.2076 16.7896 21.6494 16.7012 22.0029 16.7012C22.3563 16.7012 22.7982 16.7012 23.1516 16.7896C23.5051 16.8779 23.8585 16.9663 24.1236 17.143C24.3004 17.2314 24.5655 17.4081 24.7422 17.5848C24.8306 17.6732 24.9189 17.8499 25.0073 18.0267C25.0073 18.2034 25.0073 18.2918 25.0073 18.4685C24.9189 18.6452 24.8306 18.822 24.7422 18.9103C25.2724 18.7336 25.8909 18.6452 26.5095 18.6452C27.0397 18.6452 27.5699 18.822 28.1001 19.0871C28.4535 19.2638 28.7186 19.5289 28.8954 19.794C29.0721 20.0591 29.0721 20.3242 29.0721 20.5893C28.9837 20.8544 28.8954 21.1195 28.7186 21.3846C28.4535 21.6496 28.1884 21.9147 27.835 22.0915C27.4815 22.2682 27.0397 22.4449 26.5979 22.6217C26.2444 22.71 25.8026 22.7984 25.3608 22.7984C24.9189 22.7984 24.5655 22.7984 24.1236 22.71C23.6818 22.6217 23.3283 22.5333 22.8865 22.4449L23.1516 22.0031C23.24 21.9147 23.3284 21.8264 23.5051 21.738C23.6818 21.738 23.8585 21.738 23.9469 21.738L24.5655 21.8264C24.7422 21.8264 25.0073 21.9147 25.184 21.8264C25.4491 21.8264 25.6259 21.8264 25.8909 21.738C26.156 21.6496 26.4211 21.5613 26.5979 21.3846C26.7746 21.2962 26.9513 21.1195 27.1281 20.9427C27.2164 20.766 27.3048 20.6776 27.3048 20.5009C27.3048 20.3242 27.2164 20.2358 27.1281 20.0591C27.0397 19.8823 26.863 19.794 26.7746 19.7056C26.5979 19.6172 26.3328 19.5289 26.156 19.4405C25.8909 19.3521 25.7142 19.3521 25.4491 19.3521C25.184 19.3521 24.8306 19.4405 24.5655 19.5289C24.212 19.7056 23.8585 19.794 23.5051 20.0591L22.6214 19.5289C22.8865 19.3521 23.1516 19.1754 23.3283 18.9987C23.5051 18.9103 23.5934 18.7336 23.5934 18.5569C23.5934 18.3801 23.5934 18.2918 23.5051 18.115C23.4167 17.9383 23.24 17.8499 23.0633 17.7616C22.8865 17.6732 22.6214 17.5848 22.4447 17.4965C22.268 17.4081 22.0029 17.4081 21.8261 17.4081C21.6494 17.4081 21.3843 17.4081 21.2076 17.4965C21.0309 17.5848 20.7658 17.6732 20.589 17.7616C20.4123 17.8499 20.3239 17.9383 20.1472 18.115C20.0588 18.2034 19.9705 18.3801 19.9705 18.4685C19.9705 18.5569 19.9705 18.7336 19.9705 18.822C20.0588 18.9103 20.1472 19.0871 20.2356 19.1754C20.3239 19.2638 20.3239 19.3521 20.3239 19.4405C20.3239 19.5289 20.1472 19.6172 19.9705 19.7056L19.3519 20.1474Z" fill="url(#paint9_linear_5452_1382)"></path><path d="M33.0485 14.3155C33.6671 14.669 34.1973 15.0224 34.6391 15.4643C34.9926 15.7293 35.1693 16.1712 35.2577 16.5246C35.346 16.8781 35.2577 17.2316 35.0809 17.4967C34.8159 17.8501 34.5508 18.1152 34.1973 18.2919C33.7555 18.557 33.3136 18.7338 32.7834 18.8221C32.2533 18.9105 31.6347 18.9989 31.1045 18.9105C30.4859 18.8221 29.779 18.7338 29.1605 18.557C28.4535 18.2919 27.7466 18.0268 27.1281 17.6734C26.5095 17.3199 25.9793 16.9665 25.5375 16.5246C25.184 16.2595 25.0073 15.8177 24.8306 15.4643C24.7422 15.1108 24.8306 14.7573 25.0073 14.4922C25.2724 14.1388 25.5375 13.8737 25.8909 13.6969C26.3328 13.4318 26.7746 13.2551 27.3048 13.1668C27.835 13.0784 28.4535 12.99 28.9837 13.0784C29.6023 13.1668 30.2209 13.2551 30.8394 13.4318C31.7231 13.6086 32.43 13.8737 33.0485 14.3155ZM31.8114 15.0224C31.2812 14.669 30.751 14.4922 30.2209 14.2271C29.779 14.0504 29.3372 13.962 28.8954 13.8737C28.5419 13.7853 28.1884 13.7853 27.835 13.8737C27.5699 13.962 27.3048 14.0504 27.0397 14.1388C26.863 14.2271 26.6862 14.4039 26.5979 14.5806C26.5095 14.7573 26.5095 15.0224 26.5979 15.1992C26.6862 15.4643 26.9513 15.7293 27.2164 15.9944C27.6583 16.3479 28.1001 16.7014 28.5419 16.9665C29.0721 17.2316 29.6023 17.4967 30.1325 17.7618C30.5743 17.9385 31.0161 18.0268 31.458 18.1152C31.8114 18.2036 32.1649 18.2036 32.5184 18.1152C32.7834 18.0268 33.0485 17.9385 33.3136 17.8501C33.4904 17.7618 33.6671 17.585 33.7555 17.4083C33.8438 17.2316 33.8438 16.9665 33.7555 16.7897C33.6671 16.5246 33.402 16.2595 33.1369 15.9944C32.7834 15.5526 32.3416 15.2875 31.8114 15.0224Z" fill="url(#paint10_linear_5452_1382)"></path><path opacity="0.3" fill-rule="evenodd" clip-rule="evenodd" d="M24.8281 36.6241L0.088623 22.0915V22.9751L24.8336 37.4267L49.1314 22.5333V21.6497L24.8281 36.6241Z" fill="url(#paint11_linear_5452_1382)"></path><path opacity="0.3" fill-rule="evenodd" clip-rule="evenodd" d="M24.8239 33.4459L49.1314 18.9985V19.8822L24.838 34.2422L24.6636 34.1454L24.8309 33.844C24.6636 34.1454 24.6636 34.1454 24.6636 34.1454L24.024 33.7895C23.6095 33.5585 23.0053 33.2214 22.2465 32.7968C20.729 31.9477 18.5931 30.7487 16.1196 29.3491C11.173 26.5501 5.49239 23.5351 0.088623 20.3239V19.4403C5.48612 22.6478 11.5139 25.951 16.459 28.7492C18.9314 30.1482 21.0663 31.3467 22.5831 32.1953C23.3414 32.6197 23.9453 32.9566 24.3595 33.1874L24.8239 33.4459Z" fill="url(#paint12_linear_5452_1382)"></path><defs><linearGradient id="paint0_linear_5452_1382" x1="24.8307" y1="48.2216" x2="-1.96621" y2="43.4967" gradientUnits="userSpaceOnUse"><stop stop-color="#001DAC"></stop><stop offset="1" stop-color="#000F57"></stop></linearGradient><linearGradient id="paint1_linear_5452_1382" x1="49.308" y1="48.2217" x2="22.7802" y2="43.5942" gradientUnits="userSpaceOnUse"><stop stop-color="#001DAC"></stop><stop offset="1" stop-color="#000F57"></stop></linearGradient><linearGradient id="paint2_linear_5452_1382" x1="-3.44391e-07" y1="17.7486" x2="51.3443" y2="26.1393" gradientUnits="userSpaceOnUse"><stop stop-color="#0082F8"></stop><stop offset="1" stop-color="#1C40F2"></stop></linearGradient><linearGradient id="paint3_linear_5452_1382" x1="-4.61267" y1="27.6847" x2="20.1473" y2="27.6847" gradientUnits="userSpaceOnUse"><stop stop-color="#989AAD"></stop><stop offset="1" stop-color="#98A0B7"></stop></linearGradient><linearGradient id="paint4_linear_5452_1382" x1="55.6526" y1="27.6844" x2="56.0856" y2="27.6844" gradientUnits="userSpaceOnUse"><stop stop-color="#E7E9E9"></stop><stop offset="1" stop-color="#98AACD"></stop></linearGradient><linearGradient id="paint5_linear_5452_1382" x1="39.8291" y1="27.1418" x2="10.0942" y2="5.63371" gradientUnits="userSpaceOnUse"><stop stop-color="#CDD3DB"></stop><stop offset="1" stop-color="#ACB0C2"></stop></linearGradient><linearGradient id="paint6_linear_5452_1382" x1="-0.954346" y1="16.8029" x2="4.3299" y2="16.8029" gradientUnits="userSpaceOnUse"><stop stop-color="#989AAD"></stop><stop offset="1" stop-color="#98A0B7"></stop></linearGradient><linearGradient id="paint7_linear_5452_1382" x1="36.2296" y1="11.1384" x2="36.6538" y2="11.1384" gradientUnits="userSpaceOnUse"><stop stop-color="#E7E9E9"></stop><stop offset="1" stop-color="#98AACD"></stop></linearGradient><linearGradient id="paint8_linear_5452_1382" x1="21.5711" y1="13.5005" x2="8.55491" y2="4.0808" gradientUnits="userSpaceOnUse"><stop stop-color="#CDD3DB"></stop><stop offset="1" stop-color="#ACB0C2"></stop></linearGradient><linearGradient id="paint9_linear_5452_1382" x1="18.52" y1="17.1473" x2="29.5015" y2="18.9618" gradientUnits="userSpaceOnUse"><stop stop-color="#0082F8"></stop><stop offset="1" stop-color="#1C40F2"></stop></linearGradient><linearGradient id="paint10_linear_5452_1382" x1="24.7959" y1="13.4739" x2="35.7036" y2="15.3249" gradientUnits="userSpaceOnUse"><stop stop-color="#0082F8"></stop><stop offset="1" stop-color="#1C40F2"></stop></linearGradient><linearGradient id="paint11_linear_5452_1382" x1="-3.6203" y1="28.7578" x2="50.7857" y2="28.7578" gradientUnits="userSpaceOnUse"><stop stop-color="#050505"></stop><stop offset="1" stop-color="#ACB0C2"></stop></linearGradient><linearGradient id="paint12_linear_5452_1382" x1="-3.03919" y1="25.7012" x2="50.7856" y2="25.7012" gradientUnits="userSpaceOnUse"><stop stop-color="#050505"></stop><stop offset="1" stop-color="#ACB0C2"></stop></linearGradient></defs></svg>