<svg xmlns="http://www.w3.org/2000/svg" width="58" height="16" viewBox="0 0 58 16" fill="none"><path d="M0 12.6745C0.0578998 12.3657 0.126754 12.0603 0.173699 11.7499C0.561784 9.12782 0.945175 6.50577 1.32857 3.88372C1.48349 2.82579 1.63841 1.76618 1.78863 0.708246C1.85436 0.249303 2.07657 0.0367047 2.5116 0.0367047C3.99352 0.0367047 5.47544 0.0130827 6.9558 0.0502031C7.54419 0.0653887 8.14666 0.153128 8.71314 0.320169C10.1606 0.748741 10.8961 2.04964 10.6567 3.64413C10.6473 3.70656 10.6363 3.77068 10.627 3.8331C10.5503 3.80611 10.4752 3.77236 10.3969 3.75212C9.93216 3.63232 9.46896 3.42984 9.00107 3.41466C7.66312 3.3691 6.32203 3.39778 4.98251 3.39778C4.66484 3.39778 4.48019 3.56651 4.43012 3.89891C4.38161 4.21275 4.33935 4.52658 4.29241 4.84042C4.13123 5.94559 3.96692 7.05077 3.80887 8.15763C3.78696 8.31454 3.80261 8.47821 3.79948 8.6385C3.76818 8.73637 3.7228 8.83086 3.70715 8.9304C3.48025 10.4051 3.25804 11.8815 3.03426 13.3562C2.20019 13.3562 1.36769 13.3494 0.533617 13.3595C0.309842 13.3629 0.128318 13.3106 0 13.1064C0 12.963 0 12.8179 0 12.6745Z" fill="white"></path><path d="M42.8199 9.6801C42.4772 9.6801 42.2472 9.67842 42.0156 9.6801C41.6666 9.68179 41.5305 9.80495 41.4757 10.1744C41.3662 10.9083 41.2597 11.6439 41.1549 12.3778C41.1033 12.7388 41.0281 12.8164 40.6964 12.8164C40.2488 12.8164 39.8029 12.8164 39.3553 12.8164C39.0001 12.8164 38.9156 12.7135 38.9704 12.3356C39.1034 11.4111 39.2395 10.4865 39.3756 9.56369C39.6542 7.67584 39.9327 5.78967 40.2097 3.90181C40.2661 3.51716 40.3944 3.39062 40.7559 3.39062C41.881 3.39231 43.0046 3.38894 44.1297 3.40075C44.5866 3.40581 45.0295 3.51041 45.4473 3.72129C46.1218 4.0604 46.4879 4.64582 46.549 5.42863C46.6178 6.32448 46.4504 7.18489 46.0498 7.97614C45.5052 9.04913 44.6007 9.51645 43.5116 9.63793C43.2455 9.66829 42.9764 9.67167 42.8199 9.6801ZM41.8293 7.78044C41.9185 7.78044 41.9905 7.78212 42.0625 7.78044C42.4037 7.76863 42.7495 7.78887 43.0844 7.73657C43.7651 7.63029 44.0671 7.28443 44.1798 6.55898C44.2971 5.79979 44.0483 5.41345 43.3441 5.30885C43.0593 5.26667 42.7667 5.28523 42.4772 5.27173C42.2879 5.2633 42.1846 5.36284 42.1548 5.55685C42.0484 6.28736 41.942 7.01956 41.8293 7.78044Z" fill="#189BD6"></path><path d="M20.2165 9.67898C19.963 9.67898 19.7095 9.67561 19.4576 9.68067C19.179 9.68573 19.0335 9.82407 18.9897 10.121C18.8833 10.8397 18.7769 11.5584 18.6751 12.2771C18.6172 12.687 18.4811 12.8186 18.1024 12.8203C17.6627 12.822 17.2245 12.8237 16.7848 12.8203C16.5203 12.8186 16.4233 12.687 16.464 12.4104C16.8771 9.59125 17.2902 6.77215 17.7018 3.95136C17.766 3.50934 17.888 3.39125 18.3043 3.39293C19.4059 3.39462 20.5076 3.38619 21.6093 3.40643C21.9254 3.41318 22.2477 3.47223 22.5529 3.56502C23.5606 3.87375 24.0786 4.62281 24.0708 5.76328C24.0645 6.49041 23.9237 7.19392 23.6185 7.8485C23.0833 8.99572 22.1648 9.51196 21.0209 9.64018C20.7548 9.67055 20.4857 9.67223 20.2181 9.68742C20.2165 9.68404 20.2165 9.68236 20.2165 9.67898ZM19.3324 7.76415C19.7392 7.76415 20.1132 7.79452 20.4794 7.7574C21.3135 7.67642 21.7751 7.0522 21.7031 6.14962C21.6687 5.71098 21.4856 5.45792 21.0819 5.35669C20.8597 5.30102 20.6265 5.28077 20.3981 5.2774C19.6422 5.26559 19.7048 5.19473 19.5906 5.9826C19.5061 6.57139 19.42 7.16186 19.3324 7.76415Z" fill="white"></path><path d="M3.03545 13.3545C3.25922 11.8783 3.48143 10.4038 3.70834 8.92924C3.72398 8.8297 3.76937 8.73523 3.80066 8.63737C3.98062 8.41467 4.21692 8.359 4.48138 8.35225C5.27476 8.32694 6.0791 8.36069 6.86153 8.23753C9.10398 7.88661 10.3136 6.15731 10.5953 3.97587C10.6 3.96238 10.6062 3.94888 10.6109 3.93538C10.6203 3.91176 10.6313 3.88983 10.6407 3.86621C11.2697 4.18676 11.6422 4.7452 11.7314 5.45885C11.927 7.01606 11.5843 8.43661 10.5843 9.61253C9.949 10.3599 9.09928 10.6805 8.18227 10.7935C7.81453 10.8391 7.44053 10.8391 7.06966 10.8509C6.68314 10.8627 6.49379 11.0213 6.43119 11.4329C6.28097 12.4182 6.137 13.4052 5.99147 14.3904C5.92418 14.8443 5.74109 15.0197 5.32171 15.0197C4.64412 15.0214 3.9681 15.0214 3.29052 15.0197C2.94312 15.0197 2.82106 14.8578 2.87583 14.49C2.9306 14.1121 2.98224 13.7341 3.03545 13.3545Z" fill="#189AD6"></path><path d="M51.4047 7.21384C51.5064 6.52543 51.5064 6.52543 52.0932 6.52543C52.4203 6.52543 52.7489 6.52543 53.0759 6.52543C53.4593 6.52543 53.5391 6.61992 53.4797 7.03161C53.3451 7.97143 53.2043 8.91126 53.0665 9.85108C52.9523 10.6323 52.8334 11.4135 52.7238 12.1964C52.6519 12.7093 52.5439 12.8156 52.0556 12.8156C51.6989 12.8156 51.3405 12.8173 50.9837 12.8156C50.6942 12.814 50.6019 12.6891 50.652 12.3753C50.6645 12.2926 50.6707 12.2065 50.6864 12.0699C50.2623 12.4782 49.8242 12.7482 49.314 12.8764C48.7804 13.0114 48.2468 13.008 47.7257 12.8376C46.7304 12.5102 46.2422 11.7088 46.1295 10.6542C45.9261 8.74928 47.034 6.98268 48.6364 6.50518C49.2843 6.31114 49.9321 6.3297 50.5753 6.5288C50.9117 6.6351 51.1872 6.84433 51.4047 7.21384ZM49.4439 11.2397C50.2482 11.2363 50.8914 10.7082 51.0995 9.87807C51.3249 8.97875 50.8945 8.22115 50.1011 8.11485C49.1951 7.99337 48.4017 8.59742 48.203 9.56086C47.998 10.5547 48.5066 11.2431 49.4439 11.2397Z" fill="#189BD6"></path><path d="M28.8951 7.2042C28.9123 7.12998 28.9217 7.09961 28.9264 7.06756C28.9968 6.4265 29.1252 6.52941 29.5618 6.52603C29.9342 6.52434 30.3066 6.52266 30.6791 6.52603C30.931 6.52941 31.0327 6.66099 30.9952 6.92248C30.7307 8.7225 30.4663 10.5242 30.2034 12.3242C30.1533 12.6684 29.9999 12.8135 29.6791 12.8152C29.2926 12.8168 28.9045 12.8168 28.518 12.8152C28.1941 12.8152 28.1283 12.7342 28.1503 12.385C28.1549 12.3091 28.1503 12.2331 28.1503 12.1184C28.0611 12.191 28.0047 12.2382 27.9484 12.2854C27.0815 12.9923 26.1175 13.1526 25.0988 12.7898C24.2365 12.4811 23.8046 11.7456 23.6497 10.8228C23.318 8.85915 24.5511 6.87187 26.3507 6.45012C26.9359 6.31178 27.5212 6.35058 28.0939 6.53615C28.421 6.64412 28.6917 6.84825 28.8951 7.2042ZM26.9312 11.2395C27.7888 11.2395 28.4554 10.6541 28.6275 9.75157C28.7872 8.91482 28.3584 8.22315 27.6135 8.11518C26.6683 7.97854 25.8327 8.64996 25.6856 9.66384C25.5479 10.6187 26.0393 11.2395 26.9312 11.2395Z" fill="white"></path><path d="M34.8206 10.0454C35.4997 8.96733 36.1648 7.9264 36.8157 6.87535C36.9675 6.63072 37.1459 6.51263 37.4229 6.52275C37.847 6.53962 38.2726 6.516 38.6951 6.53456C38.8047 6.53962 38.9612 6.60542 39.0034 6.69314C39.0457 6.78256 39.0065 6.9597 38.944 7.05587C37.304 9.61854 35.6546 12.1762 34.01 14.7355C33.8785 14.9413 33.7126 15.0307 33.4842 15.0256C33.0601 15.0189 32.6345 15.0358 32.2119 15.0155C32.0883 15.0104 31.9193 14.9463 31.8614 14.8468C31.8145 14.7675 31.8739 14.5735 31.9397 14.4689C32.3903 13.7637 32.8504 13.0652 33.3167 12.3719C33.4106 12.2318 33.42 12.1154 33.3699 11.9568C32.852 10.3406 32.3403 8.72439 31.827 7.10648C31.8051 7.039 31.7816 6.96983 31.7675 6.90066C31.7253 6.67965 31.8223 6.53119 32.032 6.52781C32.5233 6.51938 33.0147 6.51938 33.5061 6.52781C33.7392 6.53119 33.8723 6.66953 33.9521 6.95464C34.2212 7.91796 34.4888 8.88297 34.758 9.8463C34.7736 9.90028 34.7908 9.95258 34.8206 10.0454Z" fill="white"></path><path d="M10.5926 3.9766C10.3109 6.15657 9.10126 7.88773 6.85882 8.23869C6.07639 8.36017 5.27361 8.32812 4.47866 8.35342C4.2142 8.36186 3.97947 8.41585 3.79795 8.63858C3.79951 8.47828 3.78543 8.31462 3.80734 8.1577C3.96382 7.05084 4.12813 5.94566 4.29088 4.84049C4.33626 4.52665 4.38008 4.21282 4.42859 3.89898C4.48023 3.56659 4.66488 3.39786 4.98098 3.39786C6.3205 3.39617 7.66159 3.36749 8.99954 3.41473C9.46744 3.4316 9.93063 3.63239 10.3954 3.75219C10.4736 3.77243 10.5488 3.80618 10.6254 3.83318C10.6348 3.84161 10.6395 3.85342 10.638 3.86692C10.6286 3.89054 10.6176 3.91248 10.6082 3.9361C10.5973 3.94623 10.591 3.95972 10.5926 3.9766Z" fill="white"></path><path d="M54.6567 12.8176C54.4564 12.8176 54.2545 12.821 54.0542 12.8176C53.7992 12.8126 53.7037 12.6979 53.7428 12.4246C53.9431 11.026 54.145 9.6292 54.3484 8.23066C54.5659 6.73766 54.7866 5.24634 55.0041 3.75502C55.0479 3.45136 55.1058 3.39231 55.3969 3.39231C55.8288 3.39062 56.2607 3.38894 56.6926 3.394C56.9242 3.39569 57.029 3.52221 56.9962 3.75502C56.5752 6.62125 56.1543 9.4858 55.7302 12.3503C55.6786 12.6945 55.5377 12.816 55.2169 12.8193C55.0291 12.8193 54.8429 12.8176 54.6567 12.8176Z" fill="#189BD6"></path><path d="M10.5921 3.97604C10.5905 3.95917 10.5953 3.94567 10.6083 3.93555C10.6034 3.94904 10.5986 3.96254 10.5921 3.97604Z" fill="#253B80"></path></svg>