<svg xmlns="http://www.w3.org/2000/svg" width="56" height="19" viewBox="0 0 56 19" fill="none"><path d="M24.2765 17.8906H19.7071L22.5629 0.341891H27.1329L24.2765 17.8906ZM15.8629 0.341891L11.5066 12.412L10.9911 9.81285L10.9916 9.81379L9.454 1.92195C9.454 1.92195 9.26808 0.341891 7.28639 0.341891H0.0845072L0 0.639031C0 0.639031 2.20235 1.09718 4.77981 2.64485L8.74977 17.8911H13.5108L20.7808 0.341891H15.8629ZM51.8043 17.8906H56L52.3418 0.341422H48.6686C46.9723 0.341422 46.5592 1.64922 46.5592 1.64922L39.7442 17.8906H44.5075L45.4601 15.2839H51.269L51.8043 17.8906ZM46.7761 11.683L49.177 5.11586L50.5277 11.683H46.7761ZM40.1014 4.56195L40.7535 0.793469C40.7535 0.793469 38.7413 0.0283203 36.6437 0.0283203C34.3761 0.0283203 28.9911 1.01926 28.9911 5.83783C28.9911 10.3715 35.3113 10.4278 35.3113 12.8091C35.3113 15.1905 29.6423 14.7638 27.7714 13.2621L27.092 17.2024C27.092 17.2024 29.1324 18.1934 32.2498 18.1934C35.3681 18.1934 40.0723 16.579 40.0723 12.1853C40.0723 7.62255 33.6953 7.19773 33.6953 5.21397C33.6958 3.22975 38.146 3.48464 40.1014 4.56195Z" fill="white"></path></svg>