<svg xmlns="http://www.w3.org/2000/svg" width="60" height="21" viewBox="0 0 60 21" fill="none"><path d="M14.42 20.8078C14.9695 19.3486 15.6946 18.0057 16.5132 16.7175C18.1686 14.1024 20.1365 11.7335 22.2981 9.52191C22.9115 8.89264 23.5385 8.27249 24.193 7.68882C24.8725 7.08463 25.5725 6.49639 26.3067 5.95604C27.5244 5.06001 28.8583 4.36006 30.2515 3.77411C31.72 3.15396 33.234 2.68429 34.796 2.37193C35.2224 2.28757 35.6602 2.24425 36.082 2.13709C36.4719 2.03678 36.5654 1.70846 36.3123 1.40522C35.6146 0.566197 34.7048 0.121603 33.6262 0.0418039C32.7917 -0.0197552 31.9731 0.135283 31.1796 0.388359C29.6974 0.862592 28.3521 1.6127 27.0615 2.46769C25.6774 3.38424 24.3868 4.41934 23.1874 5.56845C21.63 7.06183 20.1501 8.62588 18.8048 10.3176C17.3113 12.1963 15.9956 14.1844 14.9672 16.355C14.4929 17.3559 14.0825 18.3819 13.8362 19.4649C13.7792 19.7111 13.7541 19.9961 13.8225 20.2332C13.8864 20.4544 14.0939 20.6345 14.2239 20.8146C14.1646 20.8192 14.0392 20.8283 13.9137 20.8374C13.9137 20.842 13.916 20.8465 13.916 20.8511C14.1509 20.8511 14.3835 20.8511 14.6183 20.8511C14.6206 20.8465 14.6206 20.842 14.6229 20.8374C14.5636 20.8306 14.5066 20.8214 14.42 20.8078Z" fill="white"></path><path d="M34.8573 16.1475C35.4183 16.1475 35.9495 16.1543 36.4808 16.1384C36.5424 16.1361 36.6359 16.0198 36.6519 15.9423C36.9004 14.6585 37.1558 13.3748 37.3678 12.0842C37.4659 11.489 37.5434 10.8756 37.5138 10.2782C37.4682 9.36841 36.905 8.7938 36.043 8.66611C35.1697 8.53613 34.399 8.79152 33.7241 9.34789C33.4709 9.55767 33.227 9.77657 33.024 9.95215C33.0628 9.63064 33.113 9.22476 33.1631 8.80748C32.6387 8.80748 32.137 8.80748 31.6377 8.80748C31.1862 11.2519 30.7392 13.6803 30.2832 16.1475C30.8441 16.1475 31.3663 16.1543 31.8885 16.1384C31.9478 16.1361 32.039 16.0175 32.0549 15.9423C32.1758 15.3563 32.267 14.7657 32.3947 14.182C32.5703 13.3702 32.7185 12.5516 32.9647 11.7604C33.1722 11.0991 33.5918 10.5473 34.2325 10.2144C35.0739 9.77657 35.7762 10.2349 35.7329 11.1789C35.7329 11.1971 35.7284 11.2154 35.7238 11.2336C35.5619 12.1913 35.4046 13.149 35.2358 14.1067C35.1218 14.7771 34.9896 15.4452 34.8573 16.1475Z" fill="white"></path><path d="M56.7648 10.3387C56.8788 9.77556 56.9905 9.22383 57.1046 8.65386C55.7775 8.51251 55.0227 9.26259 54.3979 10.2657C54.4436 9.78468 54.4869 9.30134 54.5348 8.79521C54.0878 8.79521 53.6865 8.80661 53.2852 8.79065C53.064 8.78153 53.0139 8.86589 52.9819 9.07336C52.7653 10.5234 52.5396 11.9711 52.2979 13.4165C52.1474 14.3171 51.9604 15.213 51.7871 16.1318C52.3754 16.1318 52.9409 16.1318 53.5223 16.1318C53.5429 16.0361 53.5634 15.9449 53.5816 15.8537C53.8051 14.7366 53.9898 13.6103 54.2634 12.5046C54.6191 11.0591 55.4104 10.4002 56.7648 10.3387Z" fill="white"></path><path d="M18.0593 6.73545C18.0411 6.51429 18.0365 6.11987 17.975 5.73456C17.7561 4.34609 17.1928 3.10581 16.2921 2.0274C16.1097 1.80853 15.8954 1.60333 15.6605 1.44146C15.5328 1.35482 15.3322 1.37306 15.1634 1.3457C15.1566 1.48478 15.1475 1.62385 15.1406 1.76521C15.1406 1.78345 15.1429 1.80169 15.1452 1.82221C15.3253 2.96673 15.4804 4.11581 15.6947 5.25578C15.9569 6.64881 16.2648 8.03501 16.5635 9.4212C16.6068 9.62639 16.6866 9.83159 16.7847 10.0163C16.9557 10.34 17.2407 10.3377 17.43 10.0208C17.5052 9.89315 17.5645 9.75407 17.6124 9.61499C17.9043 8.73494 18.0502 7.83209 18.0593 6.73545Z" fill="white"></path><path d="M14.4216 20.8074C14.5082 20.8211 14.5675 20.8302 14.6268 20.8393C14.6245 20.8439 14.6245 20.8485 14.6222 20.853C14.3874 20.853 14.1548 20.853 13.9199 20.853C13.9199 20.8485 13.9177 20.8439 13.9177 20.8393C14.0431 20.8302 14.1685 20.8211 14.2278 20.8166C14.0978 20.6364 13.8903 20.4563 13.8264 20.2352C13.758 19.9981 13.7831 19.7131 13.8401 19.4669C14.0864 18.3839 14.4968 17.358 14.9711 16.3571C15.9995 14.1866 17.3152 12.1986 18.8087 10.3199C20.154 8.62827 21.6339 7.06427 23.1913 5.57094C24.3884 4.42188 25.679 3.38453 27.0654 2.4703C28.356 1.61534 29.7013 0.865255 31.1835 0.391039C31.977 0.137971 32.7933 -0.0193408 33.6301 0.044496C34.7087 0.124292 35.6185 0.56887 36.3162 1.40787C36.5693 1.71109 36.4758 2.04168 36.0859 2.13971C35.6641 2.24687 35.2263 2.28791 34.7999 2.37454C33.2379 2.68689 31.7239 3.15654 30.2554 3.77667C28.8622 4.36488 27.5283 5.06253 26.3106 5.95852C25.5787 6.49886 24.8764 7.08479 24.1969 7.69124C23.5402 8.27489 22.9154 8.89502 22.302 9.52427C20.1404 11.7335 18.1748 14.1046 16.5171 16.7196C15.6962 18.0054 14.9688 19.3483 14.4216 20.8074Z" fill="#FE4C00"></path><path d="M2.42732 12.2993C2.1765 13.5943 1.93479 14.8574 1.68853 16.1318C1.12304 16.1318 0.573507 16.1318 0.00345405 16.1318C0.00345405 16.0817 -0.0056668 16.0224 0.00573426 15.9654C0.473178 13.5076 0.942902 11.0499 1.41035 8.58983C1.554 7.83746 1.68853 7.0828 1.83675 6.3327C1.85271 6.25062 1.93251 6.12751 1.99864 6.11611C3.31204 5.88128 4.63457 5.72852 5.94113 6.12523C7.41871 6.57437 8.09365 7.74854 7.80862 9.27381C7.52132 10.8105 6.44962 11.8547 4.8033 12.2172C4.02575 12.3882 3.24592 12.411 2.42732 12.2993ZM2.69183 10.8948C3.13875 10.9062 3.54007 10.9496 3.93454 10.9222C5.07693 10.8424 5.93657 10.0855 6.08478 9.0595C6.19195 8.31852 5.92061 7.74626 5.31407 7.47723C4.72578 7.21731 4.10784 7.26975 3.49446 7.36095C3.42605 7.37235 3.34169 7.48863 3.32116 7.5707C3.24592 7.88761 3.19347 8.21136 3.13419 8.53283C2.99053 9.29433 2.84688 10.0558 2.69183 10.8948Z" fill="white"></path><path d="M13.4308 16.1339C12.8836 16.1339 12.3728 16.1339 11.8164 16.1339C11.8552 15.6094 11.894 15.1009 11.935 14.5446C11.7161 14.8387 11.5383 15.1055 11.3285 15.3472C10.7105 16.0564 9.9307 16.387 8.98669 16.3049C8.10425 16.2274 7.36318 15.5319 7.18304 14.5605C6.94362 13.2699 7.21496 12.0591 7.90587 10.9623C9.0551 9.13817 10.7858 8.50199 12.8631 8.66389C13.3259 8.70037 13.782 8.82122 14.2449 8.88507C14.4797 8.91699 14.5025 9.031 14.4592 9.23166C14.2289 10.3467 14.0169 11.4663 13.7866 12.5813C13.5562 13.694 13.4308 14.8136 13.4422 15.9515C13.4422 16.0062 13.4354 16.0609 13.4308 16.1339ZM12.5393 10.0639C11.8164 9.90889 11.1689 9.97957 10.5692 10.3581C9.46326 11.0558 8.74499 12.6679 8.95933 13.9608C9.08702 14.727 9.70268 15.0827 10.4301 14.8022C10.8382 14.6449 11.1278 14.3393 11.3718 13.9905C11.723 13.4865 11.9624 12.9302 12.0855 12.3282C12.236 11.5803 12.3842 10.8324 12.5393 10.0639Z" fill="white"></path><path d="M25.683 16.3123C23.9067 16.3055 22.7051 15.104 22.7051 13.3302C22.7051 11.8323 23.1953 10.5328 24.3628 9.55696C25.3889 8.69744 26.5928 8.42157 27.8857 8.759C29.0441 9.06223 29.7304 9.88755 29.8763 11.0503C30.118 12.9586 29.5001 14.5568 27.8857 15.6831C27.2313 16.1368 26.4788 16.3192 25.683 16.3123ZM24.5156 13.1888C24.5156 13.2914 24.5064 13.3963 24.5178 13.4966C24.5703 13.9868 24.7276 14.4291 25.154 14.7232C25.7172 15.1131 26.4583 15.0424 27.001 14.5135C27.888 13.6448 28.1935 12.5528 28.1115 11.3421C28.0841 10.95 27.9359 10.5761 27.6189 10.3025C27.0603 9.81915 26.1984 9.87843 25.6101 10.4507C24.8394 11.2031 24.5612 12.1515 24.5156 13.1888Z" fill="white"></path><path d="M34.857 16.1475C34.9893 15.4453 35.1215 14.7773 35.2378 14.107C35.4065 13.1517 35.5639 12.1919 35.7258 11.2344C35.7281 11.2161 35.7326 11.1979 35.7349 11.1797C35.7782 10.2335 35.0759 9.77754 34.2345 10.2153C33.596 10.5459 33.1742 11.0999 32.9667 11.761C32.7204 12.5499 32.5699 13.3706 32.3966 14.1822C32.2712 14.7659 32.1777 15.3564 32.0569 15.9423C32.0409 16.0198 31.9497 16.1384 31.8904 16.1384C31.3683 16.1543 30.8461 16.1475 30.2852 16.1475C30.7389 13.6829 31.1881 11.2526 31.6396 8.8086C32.139 8.8086 32.6406 8.8086 33.1651 8.8086C33.1149 9.22582 33.0648 9.63163 33.026 9.95309C33.2266 9.77754 33.4706 9.55868 33.726 9.34893C34.401 8.79264 35.1717 8.53958 36.045 8.66725C36.9069 8.79492 37.4702 9.36945 37.5158 10.2791C37.5454 10.8787 37.4679 11.4897 37.3698 12.0848C37.1555 13.3752 36.9001 14.6564 36.6538 15.9423C36.6401 16.0175 36.5444 16.1361 36.4828 16.1384C35.9492 16.1543 35.4179 16.1475 34.857 16.1475Z" fill="white"></path><path d="M43.74 14.4664C43.7925 14.8586 43.8495 15.2188 43.886 15.5813C43.8928 15.6474 43.8495 15.7614 43.7993 15.7819C42.495 16.3223 41.1588 16.5867 39.8044 16.0054C38.8376 15.5904 38.3975 14.7537 38.3291 13.7528C38.1968 11.8492 38.8512 10.2669 40.477 9.20222C41.437 8.57298 42.5201 8.42479 43.6169 8.8534C44.4127 9.16346 44.8049 9.79955 44.8323 10.6385C44.8574 11.4297 44.5313 12.0498 43.8381 12.4602C42.9967 12.9572 42.0572 13.0575 41.1109 13.1099C40.7598 13.1304 40.4041 13.1122 40.0552 13.1122C39.8933 14.0241 40.4086 14.6899 41.1451 14.8563C41.9295 15.0341 42.6866 14.8882 43.4231 14.601C43.5189 14.5645 43.6101 14.5212 43.74 14.4664ZM40.2194 11.84C40.7028 11.8104 41.1565 11.8036 41.6058 11.7488C41.9273 11.7101 42.2488 11.6303 42.5543 11.5254C42.9762 11.3795 43.2361 10.9623 43.1746 10.5998C43.1107 10.2213 42.8234 9.99334 42.3445 9.94774C41.4119 9.85426 40.395 10.7297 40.2194 11.84Z" fill="white"></path><path d="M50.5888 14.4911C50.6367 14.8468 50.6937 15.2071 50.7233 15.5673C50.7301 15.6426 50.6572 15.7726 50.591 15.7999C49.321 16.3267 48.0235 16.5638 46.6964 16.0325C45.8414 15.6905 45.3922 14.9904 45.2189 14.1194C44.8472 12.2542 45.7045 10.2111 47.3098 9.20325C48.3336 8.56251 49.4464 8.38921 50.5751 8.9091C51.9364 9.53616 52.0663 11.5291 50.8168 12.3682C50.1624 12.8083 49.4145 12.9793 48.6437 13.05C48.06 13.1024 47.474 13.1184 46.888 13.1503C46.7147 14.0624 47.3326 14.8422 48.288 14.9152C49.02 14.9722 49.7223 14.8468 50.3904 14.5435C50.4406 14.5207 50.493 14.5025 50.5454 14.482C50.5568 14.482 50.5682 14.4865 50.5888 14.4911ZM47.075 11.7867C47.4352 11.7867 47.7841 11.8232 48.1216 11.7776C48.5799 11.7138 49.0405 11.6248 49.4783 11.4789C49.8887 11.3398 50.0689 10.9567 50.0005 10.5623C49.9412 10.2111 49.6767 10.0059 49.2343 9.95116C48.19 9.81891 47.2391 10.7971 47.075 11.7867Z" fill="white"></path><path d="M56.7648 10.3384C55.4104 10.3999 54.6191 11.0588 54.2634 12.5065C53.9921 13.6123 53.8074 14.7385 53.5816 15.8556C53.5634 15.9468 53.5429 16.0358 53.5223 16.1338C52.9432 16.1338 52.3754 16.1338 51.7871 16.1338C51.9604 15.215 52.1474 14.319 52.2979 13.4185C52.5396 11.973 52.7653 10.5253 52.9819 9.07531C53.0139 8.86784 53.064 8.78349 53.2852 8.79261C53.6865 8.81085 54.0878 8.79717 54.5348 8.79717C54.4869 9.3033 54.4436 9.78435 54.3979 10.2677C55.0227 9.26454 55.7775 8.51446 57.1046 8.65581C56.9905 9.22122 56.8788 9.77523 56.7648 10.3384Z" fill="white"></path><path d="M18.06 6.73581C18.0508 7.8326 17.9049 8.73556 17.6085 9.61573C17.5606 9.75482 17.5013 9.89391 17.4261 10.0216C17.2391 10.3386 16.9518 10.3408 16.7808 10.017C16.6827 9.83007 16.6029 9.62713 16.5596 9.42191C16.2609 8.03553 15.953 6.64916 15.6908 5.25595C15.4765 4.11812 15.3237 2.96661 15.1413 1.82194C15.139 1.8037 15.1367 1.78546 15.1367 1.76494C15.1436 1.62584 15.1527 1.48675 15.1618 1.34766C15.3305 1.3773 15.5312 1.35678 15.6589 1.44343C15.8938 1.60532 16.1058 1.81054 16.2905 2.02944C17.1935 3.10798 17.7544 4.34842 17.9733 5.73708C18.0372 6.12015 18.044 6.51463 18.06 6.73581Z" fill="#FE4C00"></path><path d="M58.6149 10.3594C58.1223 10.3617 57.7438 9.98546 57.7461 9.49522C57.7484 9.01637 58.1474 8.62189 58.6217 8.63101C59.0937 8.63786 59.4745 9.02093 59.4745 9.48838C59.4745 9.98774 59.1097 10.3594 58.6149 10.3594ZM57.8784 9.5089C57.8784 9.89882 58.2158 10.2431 58.6057 10.2477C59.0025 10.2522 59.3445 9.9011 59.3445 9.49066C59.3445 9.0939 59.0139 8.76327 58.6149 8.76099C58.2044 8.75643 57.8806 9.08706 57.8784 9.5089Z" fill="white"></path><path d="M58.9255 10.0011C58.718 9.87112 58.8047 9.50629 58.4626 9.58154C58.4444 9.69783 58.4262 9.81868 58.4079 9.93953C58.3897 9.93725 58.3737 9.93725 58.3555 9.93497C58.3555 9.6431 58.3555 9.35123 58.3555 9.0206C58.4718 9.0206 58.5995 8.99096 58.7021 9.02972C58.7887 9.06165 58.921 9.21898 58.905 9.24178C58.7545 9.48577 58.8982 9.72291 58.9255 10.0011ZM58.4512 9.50857C58.5858 9.44472 58.6884 9.40596 58.7728 9.34439C58.7933 9.32843 58.7773 9.20302 58.7454 9.1825C58.6656 9.13233 58.5653 9.11637 58.4512 9.07989C58.4512 9.24406 58.4512 9.34211 58.4512 9.50857Z" fill="white"></path><path d="M58.4531 9.50876C58.4531 9.3423 58.4531 9.24197 58.4531 9.08008C58.5671 9.11656 58.6675 9.1348 58.7473 9.18269C58.7792 9.20321 58.7974 9.32862 58.7746 9.34458C58.6903 9.40843 58.5877 9.44491 58.4531 9.50876Z" fill="white"></path></svg>