<svg xmlns="http://www.w3.org/2000/svg" width="42" height="33" viewBox="0 0 42 33" fill="none"><path d="M41.1501 32.2311V32.3151H41.2283C41.243 32.3153 41.2575 32.3116 41.2703 32.3044C41.2754 32.3008 41.2795 32.2959 41.2823 32.2903C41.285 32.2847 41.2863 32.2785 41.2861 32.2723C41.2863 32.2661 41.285 32.2601 41.2823 32.2546C41.2795 32.2491 41.2754 32.2444 41.2703 32.241C41.2577 32.2334 41.2431 32.2297 41.2283 32.2303H41.1501V32.2311ZM41.2292 32.1718C41.2627 32.1697 41.296 32.1793 41.3232 32.199C41.3341 32.208 41.3428 32.2194 41.3485 32.2323C41.3542 32.2452 41.3569 32.2592 41.3562 32.2733C41.3567 32.2854 41.3546 32.2975 41.35 32.3088C41.3454 32.3201 41.3385 32.3302 41.3297 32.3386C41.3087 32.3568 41.2823 32.3678 41.2546 32.3698L41.3595 32.4894H41.2787L41.1822 32.3707H41.1509V32.4894H41.0833V32.172H41.2302L41.2292 32.1718ZM41.2082 32.599C41.2436 32.5993 41.2788 32.5921 41.3112 32.578C41.3426 32.5645 41.3711 32.5452 41.3952 32.5211C41.4194 32.4971 41.4387 32.4686 41.4521 32.4372C41.4796 32.3707 41.4796 32.296 41.4521 32.2295C41.4385 32.1982 41.4192 32.1697 41.3952 32.1455C41.371 32.1214 41.3426 32.1022 41.3112 32.0887C41.2786 32.0753 41.2435 32.0686 41.2082 32.0689C41.1723 32.0686 41.1366 32.0753 41.1032 32.0887C41.0712 32.1019 41.0421 32.1212 41.0174 32.1455C40.9803 32.1836 40.9552 32.2317 40.9452 32.284C40.9352 32.3362 40.9409 32.3902 40.9614 32.4393C40.9741 32.4708 40.9932 32.4993 41.0174 32.5232C41.0421 32.5475 41.0712 32.5668 41.1032 32.5801C41.1364 32.5942 41.1721 32.6014 41.2082 32.6011V32.599ZM41.2082 31.9926C41.3004 31.9925 41.389 32.0286 41.4548 32.0933C41.4865 32.1243 41.5118 32.1613 41.5291 32.2022C41.547 32.2441 41.5563 32.2893 41.5563 32.3349C41.5563 32.3805 41.547 32.4257 41.5291 32.4676C41.5114 32.5082 41.4862 32.5452 41.4548 32.5765C41.4226 32.6074 41.3851 32.6322 41.3442 32.6499C41.3012 32.6682 41.2549 32.6775 41.2082 32.6772C41.1609 32.6776 41.1141 32.6683 41.0705 32.6499C41.0291 32.6327 40.9913 32.6077 40.9591 32.5765C40.9277 32.544 40.9028 32.5059 40.8858 32.464C40.8679 32.4221 40.8586 32.3769 40.8586 32.3313C40.8586 32.2857 40.8679 32.2406 40.8858 32.1986C40.9031 32.1578 40.9284 32.1207 40.9601 32.0897C40.9919 32.0579 41.0298 32.0329 41.0716 32.0163C41.1151 31.9979 41.162 31.9887 41.2092 31.989L41.2082 31.9926ZM9.07064 30.7666C9.07064 30.1612 9.46732 29.6639 10.1157 29.6639C10.7352 29.6639 11.1533 30.1398 11.1533 30.7666C11.1533 31.3933 10.7352 31.8692 10.1157 31.8692C9.46732 31.8692 9.07064 31.3719 9.07064 30.7666ZM11.8596 30.7666V29.0439H11.1105V29.4635C10.8729 29.1534 10.5125 28.9589 10.0225 28.9589C9.057 28.9589 8.29931 29.716 8.29931 30.7674C8.29931 31.8188 9.05658 32.5759 10.0225 32.5759C10.5123 32.5759 10.8729 32.3812 11.1105 32.0712V32.4894H11.8587V30.7666H11.8596ZM37.17 30.7666C37.17 30.1612 37.5667 29.6639 38.2152 29.6639C38.8354 29.6639 39.2529 30.1398 39.2529 30.7666C39.2529 31.3933 38.8354 31.8692 38.2152 31.8692C37.5669 31.8692 37.17 31.3719 37.17 30.7666ZM39.9598 30.7666V27.6611H39.2101V29.4635C38.9725 29.1534 38.6121 28.9589 38.122 28.9589C37.1566 28.9589 36.3989 29.716 36.3989 30.7674C36.3989 31.8188 37.1562 32.5759 38.122 32.5759C38.6121 32.5759 38.9725 32.3812 39.2101 32.0712V32.4894H39.9598V30.7666ZM21.1566 29.6285C21.6394 29.6285 21.9494 29.931 22.0285 30.4638H20.2411C20.3211 29.9665 20.6231 29.6285 21.1569 29.6285H21.1566ZM21.1718 28.957C20.1622 28.957 19.4559 29.6914 19.4559 30.7655C19.4559 31.8606 20.1905 32.574 21.2219 32.574C21.7408 32.574 22.2159 32.4445 22.634 32.0914L22.2669 31.5364C21.9781 31.7672 21.6104 31.8967 21.2647 31.8967C20.782 31.8967 20.3425 31.6732 20.2344 31.0532H22.7923C22.7996 30.96 22.8072 30.866 22.8072 30.7653C22.7996 29.6916 22.1355 28.9568 21.1713 28.9568L21.1718 28.957ZM30.2153 30.7653C30.2153 30.1599 30.612 29.6627 31.2603 29.6627C31.8799 29.6627 32.298 30.1385 32.298 30.7653C32.298 31.392 31.8799 31.8679 31.2603 31.8679C30.612 31.8679 30.2151 31.3706 30.2151 30.7653H30.2153ZM33.004 30.7653V29.0439H32.2553V29.4635C32.0169 29.1534 31.6574 28.9589 31.1673 28.9589C30.2018 28.9589 29.4442 29.716 29.4442 30.7674C29.4442 31.8188 30.2014 32.5759 31.1673 32.5759C31.6574 32.5759 32.0169 32.3812 32.2553 32.0712V32.4894H33.0042V30.7666L33.004 30.7653ZM25.985 30.7653C25.985 31.81 26.7125 32.5738 27.8228 32.5738C28.3416 32.5738 28.6873 32.4584 29.0611 32.1632L28.7014 31.5578C28.4201 31.7599 28.1248 31.8679 27.7989 31.8679C27.2009 31.8606 26.7612 31.4283 26.7612 30.7653C26.7612 30.1022 27.2009 29.6702 27.7989 29.6627C28.124 29.6627 28.4193 29.7707 28.7014 29.9728L29.0611 29.3674C28.6867 29.0722 28.341 28.9568 27.8228 28.9568C26.7125 28.9568 25.985 29.7204 25.985 30.7653ZM35.6418 28.9568C35.2097 28.9568 34.9282 29.1589 34.7337 29.4614V29.0439H33.9913V32.4875H34.7412V30.5571C34.7412 29.9873 34.9862 29.6706 35.4758 29.6706C35.6362 29.6683 35.7954 29.6978 35.9443 29.7573L36.1752 29.0514C36.0093 28.9862 35.7932 28.9574 35.6414 28.9574L35.6418 28.9568ZM15.563 29.3177C15.2026 29.0802 14.706 28.9574 14.1582 28.9574C13.2855 28.9574 12.7237 29.3756 12.7237 30.0599C12.7237 30.6214 13.142 30.9678 13.9123 31.0758L14.2661 31.1262C14.6769 31.1839 14.8708 31.292 14.8708 31.4865C14.8708 31.7527 14.598 31.9046 14.0856 31.9046C13.5668 31.9046 13.1924 31.7389 12.9399 31.5444L12.5879 32.1283C12.9986 32.4309 13.5175 32.5752 14.0793 32.5752C15.0742 32.5752 15.6507 32.1069 15.6507 31.4512C15.6507 30.8459 15.197 30.5292 14.4473 30.4212L14.0942 30.37C13.77 30.328 13.5101 30.2628 13.5101 30.032C13.5101 29.7802 13.7551 29.6287 14.166 29.6287C14.6057 29.6287 15.0314 29.7944 15.24 29.9239L15.5643 29.3185L15.563 29.3177ZM25.2284 28.9581C24.7963 28.9581 24.5148 29.1601 24.3211 29.4627V29.0439H23.5787V32.4875H24.3278V30.5571C24.3278 29.9873 24.5727 29.6706 25.0624 29.6706C25.2227 29.6683 25.382 29.6978 25.5309 29.7573L25.7617 29.0514C25.5959 28.9862 25.3797 28.9574 25.228 28.9574L25.2284 28.9581ZM18.8362 29.0439H17.6113V27.9992H16.854V29.0439H16.1553V29.7283H16.854V31.2993C16.854 32.0983 17.1642 32.5742 18.0503 32.5742C18.3755 32.5742 18.7499 32.4735 18.9875 32.3079L18.7711 31.6667C18.5476 31.7962 18.3026 31.8614 18.1079 31.8614C17.7334 31.8614 17.6113 31.6306 17.6113 31.285V29.729H18.8362V29.0439ZM7.63692 32.4884V30.3272C7.63692 29.5133 7.11808 28.9656 6.28169 28.9583C5.84198 28.9509 5.38842 29.0877 5.07087 29.571C4.83328 29.1891 4.45884 28.9583 3.93245 28.9583C3.56452 28.9583 3.20499 29.0663 2.92354 29.4696V29.0439H2.17383V32.4875H2.92941V30.5781C2.92941 29.9803 3.26103 29.6627 3.77315 29.6627C4.27058 29.6627 4.52223 29.9868 4.52223 30.5706V32.4871H5.27949V30.5777C5.27949 29.9799 5.62517 29.6622 6.12239 29.6622C6.63388 29.6622 6.87797 29.9864 6.87797 30.5702V32.4867L7.63692 32.4884Z" fill="white"></path><path d="M41.5777 21.0348V20.5312H41.4465L41.2947 20.8768L41.1438 20.5312H41.0122V21.0348H41.1054V20.6555L41.2473 20.9828H41.3439L41.4857 20.6546V21.0348H41.5781H41.5777ZM40.7455 21.0348V20.6175H40.9134V20.5325H40.4844V20.6175H40.6523V21.0348H40.7446H40.7455Z" fill="#F79410"></path><path d="M26.6682 23.1943H15.3164V2.80176H26.6685L26.6682 23.1943Z" fill="#FF5F00"></path><path d="M16.0352 12.9983C16.0352 8.86174 17.9728 5.17687 20.9901 2.80219C18.7062 1.00203 15.8813 0.0250152 12.9728 0.029311C5.80793 0.029311 0 5.83563 0 12.9983C0 20.1609 5.80793 25.9673 12.9728 25.9673C15.8814 25.9716 18.7064 24.9946 20.9904 23.1944C17.9733 20.8201 16.0352 17.1351 16.0352 12.9983Z" fill="#EB001B"></path><path d="M41.9836 12.9983C41.9836 20.1609 36.1757 25.9673 29.0108 25.9673C26.1019 25.9715 23.2766 24.9945 20.9922 23.1944C24.0103 20.8197 25.948 17.1351 25.948 12.9983C25.948 8.86153 24.0103 5.17687 20.9922 2.80219C23.2766 1.00208 26.1018 0.0250905 29.0106 0.0293105C36.1754 0.0293105 41.9834 5.83563 41.9834 12.9983" fill="#F79E1B"></path></svg>