<svg width="61" height="81" viewBox="0 0 61 81" fill="none" xmlns="http://www.w3.org/2000/svg">
<path opacity="0.1" fill-rule="evenodd" clip-rule="evenodd" d="M9.89481 50.1549C22.852 43.1333 38.1866 43.1333 51.0249 50.1549C62.4368 57.1766 62.4368 68.7122 51.0249 75.7339C38.0677 82.7556 22.7331 82.7556 9.89481 75.7339C-1.51702 68.7122 -1.51702 57.302 9.89481 50.1549Z" fill="url(#paint0_linear_1839_2259)"/>
<path fill-rule="evenodd" clip-rule="evenodd" d="M1.33408 40.2489C14.1724 33.2272 46.6248 33.3526 59.4631 40.3743C59.4631 46.0167 59.4631 47.8975 59.4631 52.5368C59.4631 57.1762 56.6101 61.6901 51.0231 65.0756C38.0659 72.0972 22.7313 72.0972 9.89295 65.0756C4.18704 61.5647 1.45296 56.9254 1.33408 52.4115C1.21521 47.8975 1.33408 47.1452 1.33408 40.2489Z" fill="url(#paint1_linear_1839_2259)"/>
<path fill-rule="evenodd" clip-rule="evenodd" d="M9.89481 27.5851C22.852 20.5634 38.1866 20.5634 51.0249 27.5851C62.4368 34.6068 62.4368 46.1424 51.0249 53.1641C38.0677 60.1858 22.7331 60.1858 9.89481 53.1641C-1.51702 46.017 -1.51702 34.6068 9.89481 27.5851Z" fill="url(#paint2_linear_1839_2259)"/>
<path fill-rule="evenodd" clip-rule="evenodd" d="M1.33408 17.9305C14.1724 10.9089 46.6248 11.0343 59.4631 18.0559C59.4631 23.6984 59.4631 25.5792 59.4631 30.2185C59.4631 34.8578 56.6101 39.2464 51.0231 42.8826C38.0659 49.9043 22.7313 49.9043 9.89295 42.8826C4.18704 39.3717 1.45296 34.7324 1.33408 30.2185C1.21521 25.7045 1.33408 24.8268 1.33408 17.9305Z" fill="url(#paint3_linear_1839_2259)"/>
<path fill-rule="evenodd" clip-rule="evenodd" d="M9.89481 5.26626C22.852 -1.75542 38.1866 -1.75542 51.0249 5.26626C62.4368 12.2879 62.4368 23.8236 51.0249 30.8452C38.0677 37.8669 22.7331 37.8669 9.89481 30.8452C-1.51702 23.8236 -1.51702 12.2879 9.89481 5.26626Z" fill="url(#paint4_linear_1839_2259)"/>
<path fill-rule="evenodd" clip-rule="evenodd" d="M14.057 7.89903C24.2801 2.25662 36.5241 2.13123 46.866 7.77365C55.9004 13.4161 55.9004 22.5693 46.866 28.0864C36.6429 33.7288 24.399 33.7288 14.057 28.0864C5.02266 22.5693 5.02266 13.5415 14.057 7.89903Z" fill="url(#paint5_linear_1839_2259)"/>
<g opacity="0.7">
<path opacity="0.7" d="M0.507812 25.0767C0.745559 28.4621 2.17204 31.5968 4.43063 33.9791C6.57034 36.3615 9.18555 38.2423 12.1574 39.6216C17.9822 42.3801 24.2824 43.7593 30.5827 43.7593C36.883 43.7593 43.1833 42.3801 49.0081 39.6216C51.9799 38.3677 54.5951 36.4869 56.7348 33.9791C58.9934 31.5968 60.301 28.3367 60.4199 25.0767C60.4199 28.4621 59.2312 31.8476 57.0914 34.4807C54.9517 37.1138 52.3365 39.12 49.3647 40.6247C43.5399 43.5086 37.1208 45.1386 30.5827 45.1386C24.0447 45.1386 17.6256 43.5086 11.8008 40.6247C8.82893 39.2454 6.21372 37.1138 3.95513 34.6061C1.81542 31.7222 0.626686 28.4621 0.507812 25.0767Z" fill="url(#paint6_linear_1839_2259)"/>
</g>
<g opacity="0.7">
<path opacity="0.7" d="M0.507812 20.563C0.745559 23.9484 2.05316 27.0831 4.43063 29.4655C6.57034 31.8478 9.18555 33.854 12.1574 35.1079C17.9822 37.8664 24.2824 39.2457 30.5827 39.2457C36.883 39.2457 43.1833 37.8664 49.0081 35.1079C51.9799 33.854 54.5951 31.9732 56.7348 29.4655C58.9934 27.0831 60.301 23.8231 60.4199 20.563C60.4199 23.9484 59.2312 27.3339 57.0914 29.967C54.9517 32.6002 52.3365 34.6063 49.3647 36.111C43.421 38.7441 37.1208 40.3742 30.5827 40.3742C24.0447 40.3742 17.6256 38.7441 11.8008 35.8602C8.82893 34.481 6.21372 32.3494 3.95513 29.8416C1.81542 27.2085 0.626686 23.9484 0.507812 20.563Z" fill="url(#paint7_linear_1839_2259)"/>
</g>
<path d="M25.2269 21.4414C25.108 21.3161 24.9891 21.1907 24.8703 21.0653C24.8703 20.9399 24.9891 20.8145 25.108 20.5637L26.1779 19.9368L23.9193 18.5575C23.4438 18.3068 22.9683 17.8052 22.4928 17.4291C22.1362 17.0529 22.0173 16.6767 21.8984 16.1752C21.8984 15.6736 22.0173 15.1721 22.2551 14.7959C22.6117 14.2944 23.206 13.7928 23.6815 13.4167C24.157 13.1659 24.6325 12.9151 25.108 12.6643C25.5835 12.539 26.1779 12.4136 26.6534 12.4136C27.1289 12.4136 27.7232 12.4136 28.1987 12.4136C28.6742 12.4136 29.1497 12.539 29.7441 12.6643L29.5063 13.4167C29.3874 13.5421 29.2686 13.6674 29.1497 13.7928C29.0308 14.0436 28.7931 14.0436 28.5553 14.0436H27.7232C27.4855 14.0436 27.2477 14.0436 27.01 14.0436C26.7722 14.0436 26.5345 14.169 26.2967 14.169C26.059 14.2944 25.8213 14.4198 25.5835 14.5452C24.8703 14.9213 24.6325 15.4229 24.6325 15.9244C24.6325 16.426 25.2269 16.9275 25.9401 17.4291L28.1987 18.8083L32.1215 16.426L32.9536 16.9275C33.0725 16.9275 33.1914 17.0529 33.1914 17.3037C33.1914 17.4291 33.0725 17.5544 32.9536 17.6798L29.6252 19.686L31.646 20.9399C32.0027 21.1907 32.3593 21.4414 32.4782 21.8176C32.597 22.0684 32.7159 22.4445 32.7159 22.8207C33.0725 22.5699 33.4291 22.1938 33.7858 21.943L39.6105 18.4322L40.4427 18.9337C40.5615 18.9337 40.6804 19.0591 40.6804 19.1845C40.6804 19.3099 40.7993 19.3099 40.7993 19.4353C40.7993 19.5606 40.7993 19.686 40.6804 19.686C40.5615 19.8114 40.5615 19.9368 40.4427 19.9368L31.5272 25.3284L30.2196 24.5761C30.3384 24.4507 30.4573 24.2 30.5762 24.0746C30.6951 23.9492 30.6951 23.6984 30.6951 23.573C30.6951 23.3223 30.5762 23.1969 30.4573 23.0715C30.3384 22.8207 30.1007 22.6953 29.8629 22.5699L27.3666 21.0653L25.5835 22.1938L25.2269 21.4414Z" fill="url(#paint8_linear_1839_2259)"/>
<defs>
<linearGradient id="paint0_linear_1839_2259" x1="62.9863" y1="58.6792" x2="5.13499" y2="65.5646" gradientUnits="userSpaceOnUse">
<stop/>
<stop offset="1"/>
</linearGradient>
<linearGradient id="paint1_linear_1839_2259" x1="1.28125" y1="37.6276" x2="61.9806" y2="47.1802" gradientUnits="userSpaceOnUse">
<stop stop-color="#0082F8"/>
<stop offset="1" stop-color="#1C40F2"/>
</linearGradient>
<linearGradient id="paint2_linear_1839_2259" x1="59.5838" y1="50.7802" x2="-1.00273" y2="34.7753" gradientUnits="userSpaceOnUse">
<stop stop-color="#001DAC"/>
<stop offset="1" stop-color="#000F57"/>
</linearGradient>
<linearGradient id="paint3_linear_1839_2259" x1="61.2701" y1="30.2505" x2="-11.4687" y2="30.6787" gradientUnits="userSpaceOnUse">
<stop offset="0.42" stop-color="#E7E9E9"/>
<stop offset="0.68" stop-color="#B1B4C3"/>
<stop offset="0.88" stop-color="#8F92AA"/>
<stop offset="0.99" stop-color="#8285A1"/>
</linearGradient>
<linearGradient id="paint4_linear_1839_2259" x1="62.9883" y1="13.7575" x2="5.1373" y2="20.6315" gradientUnits="userSpaceOnUse">
<stop stop-color="#CDD3DB"/>
<stop offset="1" stop-color="#ACB0C2"/>
</linearGradient>
<linearGradient id="paint5_linear_1839_2259" x1="10.3286" y1="32.1115" x2="50.1517" y2="6.98854" gradientUnits="userSpaceOnUse">
<stop stop-color="#CDD3DB"/>
<stop offset="0.98" stop-color="#ACB0C2"/>
</linearGradient>
<linearGradient id="paint6_linear_1839_2259" x1="-0.0271168" y1="34.9133" x2="61.0618" y2="34.9133" gradientUnits="userSpaceOnUse">
<stop stop-color="#989AAD"/>
<stop offset="1" stop-color="#98A0B7"/>
</linearGradient>
<linearGradient id="paint7_linear_1839_2259" x1="-0.0271168" y1="30.3871" x2="61.0618" y2="30.3871" gradientUnits="userSpaceOnUse">
<stop stop-color="#989AAD"/>
<stop offset="1" stop-color="#98A0B7"/>
</linearGradient>
<linearGradient id="paint8_linear_1839_2259" x1="21.8984" y1="13.3586" x2="41.7185" y2="16.128" gradientUnits="userSpaceOnUse">
<stop stop-color="#0082F8"/>
<stop offset="1" stop-color="#1C40F2"/>
</linearGradient>
</defs>
</svg>
