<svg xmlns="http://www.w3.org/2000/svg" width="24" height="24" viewBox="0 0 24 24" fill="none"><circle cx="12" cy="12" r="12" fill="#FF0766"></circle><path fill-rule="evenodd" clip-rule="evenodd" d="M12.7184 8.16746C12.8226 8.06023 12.9639 8 13.1112 8C13.2585 8 13.3998 8.06023 13.504 8.16746L16.8373 11.5991C16.9415 11.7063 17 11.8518 17 12.0035C17 12.1551 16.9415 12.3006 16.8373 12.4078L13.504 15.8394C13.3992 15.9436 13.2588 16.0013 13.1132 16C12.9675 15.9987 12.8282 15.9385 12.7252 15.8325C12.6222 15.7264 12.5637 15.583 12.5625 15.433C12.5612 15.2831 12.6172 15.1386 12.7184 15.0307L15.1034 12.5754L8.66667 12.5754C8.51933 12.5754 8.37802 12.5151 8.27383 12.4079C8.16964 12.3006 8.11111 12.1551 8.11111 12.0035C8.11111 11.8518 8.16964 11.7063 8.27383 11.599C8.37802 11.4918 8.51933 11.4315 8.66667 11.4315L15.1034 11.4315L12.7184 8.97618C12.6142 8.86892 12.5557 8.72347 12.5557 8.57182C12.5557 8.42016 12.6142 8.27471 12.7184 8.16746Z" fill="white"></path></svg>