<svg xmlns="http://www.w3.org/2000/svg" width="80" height="82" viewBox="0 0 80 82" fill="none"><circle cx="30" cy="52" r="30" fill="url(#paint0_linear_5312_648)" fill-opacity="0.15"></circle><path d="M46.8264 26.0463C42.9605 23.572 40.6523 19.3546 40.6523 14.7646V10.2139L47.9993 7.27516L55.3463 10.2139V14.7646C55.3463 19.3546 53.0382 23.572 49.1721 26.0463L47.9993 26.7969L46.8264 26.0463Z" fill="url(#paint1_linear_5312_648)"></path><path d="M37.0775 21.5912C37.2446 22.0057 37.4263 22.4131 37.6227 22.8132V22.8155C38.2336 24.062 38.9849 25.2351 39.8641 26.3143C40.4751 27.0656 41.1483 27.7705 41.8788 28.4205C42.5934 29.0582 43.3654 29.6448 44.1873 30.1716L48.0007 32.6118L51.814 30.1716C55.0666 28.0899 57.5239 25.0704 58.9239 21.5912L58.9233 21.5916H70.6538V48.5303H25.3477V21.5916H37.0785" fill="url(#paint2_linear_5312_648)"></path><path d="M78 53.4287H18V58.3415C18 60.3621 19.638 62 21.6585 62H74.3415C76.362 62 78 60.3621 78 58.3415V53.4287Z" stroke="#090E8C" stroke-width="2.43903" stroke-miterlimit="10" stroke-linecap="round" stroke-linejoin="round"></path><path d="M35.8563 16.6939H24.1218C22.093 16.6939 20.4482 18.3386 20.4482 20.3673V53.4287H75.5504V20.3673C75.5504 18.3386 73.9056 16.6939 71.8769 16.6939H60.1422" stroke="#090E8C" stroke-width="2.43903" stroke-miterlimit="10" stroke-linecap="round" stroke-linejoin="round"></path><path d="M45.5518 17.3057L47.3885 19.1426L51.0619 15.469" stroke="white" stroke-width="2.43903" stroke-miterlimit="10" stroke-linecap="round" stroke-linejoin="round"></path><path d="M60.2456 6.89802V14.7655C60.2456 21.0017 57.0668 26.8095 51.8138 30.1719L48.0007 32.6123L44.1877 30.1719C43.3648 29.6454 42.5933 29.0589 41.8783 28.4208C41.1484 27.7707 40.475 27.0654 39.864 26.3149C38.9848 25.236 38.2342 24.0617 37.6232 22.8163V22.814C36.4121 20.3466 35.7559 17.6001 35.7559 14.7655V6.89802L37.382 6.2479L48.0007 2.00009L60.2456 6.89802Z" stroke="#090E8C" stroke-width="2.43903" stroke-miterlimit="10" stroke-linecap="round" stroke-linejoin="round"></path><path d="M30.2451 43.6323H38.8166" stroke="white" stroke-width="2.43903" stroke-miterlimit="10" stroke-linecap="round" stroke-linejoin="round"></path><path d="M30.2451 38.7344H38.8166" stroke="white" stroke-width="2.43903" stroke-miterlimit="10" stroke-linecap="round" stroke-linejoin="round"></path><path d="M30.2451 33.8364H38.8166" stroke="white" stroke-width="2.43903" stroke-miterlimit="10" stroke-linecap="round" stroke-linejoin="round"></path><path d="M57.1836 43.6323H65.7551" stroke="white" stroke-width="2.43903" stroke-miterlimit="10" stroke-linecap="round" stroke-linejoin="round"></path><path d="M57.1836 38.7344H65.7551" stroke="white" stroke-width="2.43903" stroke-miterlimit="10" stroke-linecap="round" stroke-linejoin="round"></path><path d="M57.1836 33.8364H65.7551" stroke="white" stroke-width="2.43903" stroke-miterlimit="10" stroke-linecap="round" stroke-linejoin="round"></path><defs><linearGradient id="paint0_linear_5312_648" x1="-16.2" y1="73.6" x2="69" y2="38.8" gradientUnits="userSpaceOnUse"><stop offset="0.149286" stop-color="#1C40F2"></stop><stop offset="1" stop-color="#1C40F2" stop-opacity="0"></stop></linearGradient><linearGradient id="paint1_linear_5312_648" x1="40.6523" y1="25.3685" x2="56.281" y2="24.2453" gradientUnits="userSpaceOnUse"><stop stop-color="#0082F8"></stop><stop offset="1" stop-color="#1C40F2"></stop></linearGradient><linearGradient id="paint2_linear_5312_648" x1="25.3477" y1="46.5591" x2="72.5674" y2="38.9771" gradientUnits="userSpaceOnUse"><stop stop-color="#0082F8"></stop><stop offset="1" stop-color="#1C40F2"></stop></linearGradient></defs></svg>