<svg xmlns="http://www.w3.org/2000/svg" width="75" height="67" viewBox="0 0 75 67" fill="none"><circle cx="30" cy="37" r="30" fill="url(#paint0_linear_5313_653)" fill-opacity="0.15"></circle><path d="M20.8877 37.6645H24.4241L26.771 34.7305" stroke="#020288" stroke-width="2.34375" stroke-miterlimit="10" stroke-linecap="round" stroke-linejoin="round"></path><path d="M18.5297 41.1943C16.5834 41.1943 15 39.6108 15 37.6646C15 35.7183 16.5834 34.1348 18.5297 34.1348C20.4759 34.1348 22.0594 35.7183 22.0594 37.6646C22.0594 39.6108 20.4761 41.1943 18.5297 41.1943Z" fill="url(#paint1_linear_5313_653)"></path><path d="M20.8877 22.3359H24.4241L26.771 25.27" stroke="#020288" stroke-width="2.34375" stroke-miterlimit="10" stroke-linecap="round" stroke-linejoin="round"></path><path d="M18.5297 25.865C16.5834 25.865 15 24.2816 15 22.3355C15 20.3892 16.5834 18.8057 18.5297 18.8057C20.4759 18.8057 22.0594 20.3892 22.0594 22.3355C22.0594 24.2816 20.4761 25.865 18.5297 25.865Z" fill="url(#paint2_linear_5313_653)"></path><path d="M69.1118 22.3359H65.5754L63.2285 25.27" stroke="#020288" stroke-width="2.34375" stroke-miterlimit="10" stroke-linecap="round" stroke-linejoin="round"></path><path d="M71.4702 25.865C69.524 25.865 67.9404 24.2816 67.9404 22.3355C67.9404 20.3892 69.524 18.8057 71.4702 18.8057C73.4164 18.8057 74.9998 20.3892 74.9998 22.3355C74.9998 24.2816 73.4164 25.865 71.4702 25.865Z" fill="url(#paint3_linear_5313_653)"></path><path d="M69.1118 37.6645H65.5754L63.2285 34.7305" stroke="#020288" stroke-width="2.34375" stroke-miterlimit="10" stroke-linecap="round" stroke-linejoin="round"></path><path d="M71.4702 41.1943C69.524 41.1943 67.9404 39.6108 67.9404 37.6646C67.9404 35.7183 69.524 34.1348 71.4702 34.1348C73.4164 34.1348 74.9998 35.7183 74.9998 37.6646C74.9998 39.6108 73.4164 41.1943 71.4702 41.1943Z" fill="url(#paint4_linear_5313_653)"></path><path d="M37.3301 5.88818V9.42455L40.2641 11.7715" stroke="#020288" stroke-width="2.34375" stroke-miterlimit="10" stroke-linecap="round" stroke-linejoin="round"></path><path d="M37.3285 7.05937C39.2779 7.05937 40.8582 5.47908 40.8582 3.52969C40.8582 1.58029 39.2779 0 37.3285 0C35.3791 0 33.7988 1.58029 33.7988 3.52969C33.7988 5.47908 35.3791 7.05937 37.3285 7.05937Z" fill="url(#paint5_linear_5313_653)"></path><path d="M52.6585 5.88818V9.42455L49.7246 11.7715" stroke="#020288" stroke-width="2.34375" stroke-miterlimit="10" stroke-linecap="round" stroke-linejoin="round"></path><path d="M52.6597 7.05937C50.7134 7.05937 49.1299 5.47594 49.1299 3.52969C49.1299 1.58344 50.7134 0 52.6597 0C54.6058 0 56.1893 1.58344 56.1893 3.52969C56.1893 5.47594 54.6059 7.05937 52.6597 7.05937Z" fill="url(#paint6_linear_5313_653)"></path><path d="M52.6585 54.1118V50.5754L49.7246 48.2285" stroke="#020288" stroke-width="2.34375" stroke-miterlimit="10" stroke-linecap="round" stroke-linejoin="round"></path><path d="M52.6597 59.9998C50.7134 59.9998 49.1299 58.4164 49.1299 56.4701C49.1299 54.5239 50.7134 52.9404 52.6597 52.9404C54.6058 52.9404 56.1893 54.5239 56.1893 56.4701C56.1893 58.4164 54.6059 59.9998 52.6597 59.9998Z" fill="url(#paint7_linear_5313_653)"></path><path d="M37.3301 54.1118V50.5754L40.2641 48.2285" stroke="#020288" stroke-width="2.34375" stroke-miterlimit="10" stroke-linecap="round" stroke-linejoin="round"></path><path d="M37.3285 59.9998C39.2779 59.9998 40.8582 58.4195 40.8582 56.4701C40.8582 54.5207 39.2779 52.9404 37.3285 52.9404C35.3791 52.9404 33.7988 54.5207 33.7988 56.4701C33.7988 58.4195 35.3791 59.9998 37.3285 59.9998Z" fill="url(#paint8_linear_5313_653)"></path><path d="M37.3301 5.88818V9.42455L40.2641 11.7715" stroke="#020288" stroke-width="2.34375" stroke-miterlimit="10" stroke-linecap="round" stroke-linejoin="round"></path><path d="M52.6585 5.88818V9.42455L49.7246 11.7715" stroke="#020288" stroke-width="2.34375" stroke-miterlimit="10" stroke-linecap="round" stroke-linejoin="round"></path><path d="M52.6597 7.05937C50.7134 7.05937 49.1299 5.47594 49.1299 3.52969C49.1299 1.58344 50.7134 0 52.6597 0C54.6058 0 56.1893 1.58344 56.1893 3.52969C56.1893 5.47594 54.6059 7.05937 52.6597 7.05937Z" fill="url(#paint9_linear_5313_653)"></path><path d="M52.6585 54.1118V50.5754L49.7246 48.2285" stroke="#020288" stroke-width="2.34375" stroke-miterlimit="10" stroke-linecap="round" stroke-linejoin="round"></path><path d="M52.6597 59.9998C50.7134 59.9998 49.1299 58.4164 49.1299 56.4701C49.1299 54.5239 50.7134 52.9404 52.6597 52.9404C54.6058 52.9404 56.1893 54.5239 56.1893 56.4701C56.1893 58.4164 54.6059 59.9998 52.6597 59.9998Z" fill="url(#paint10_linear_5313_653)"></path><path d="M37.3301 54.1118V50.5754L40.2641 48.2285" stroke="#020288" stroke-width="2.34375" stroke-miterlimit="10" stroke-linecap="round" stroke-linejoin="round"></path><path d="M37.3285 59.9998C39.2779 59.9998 40.8582 58.4195 40.8582 56.4701C40.8582 54.5207 39.2779 52.9404 37.3285 52.9404C35.3791 52.9404 33.7988 54.5207 33.7988 56.4701C33.7988 58.4195 35.3791 59.9998 37.3285 59.9998Z" fill="url(#paint11_linear_5313_653)"></path><path d="M54.9992 29.4117V36.4699H35V29.4117C35 28.1121 36.0535 27.0586 37.3531 27.0586H38.5297C39.3532 27.0586 51.8294 27.0586 52.6461 27.0586C53.9457 27.0586 54.9992 28.1121 54.9992 29.4117Z" fill="url(#paint12_linear_5313_653)"></path><path d="M45.0004 48.8226C55.3959 48.8226 63.823 40.3954 63.823 29.9999C63.823 19.6044 55.3959 11.1772 45.0004 11.1772C34.6049 11.1772 26.1777 19.6044 26.1777 29.9999C26.1777 40.3954 34.6049 48.8226 45.0004 48.8226Z" stroke="#020288" stroke-width="2.34375" stroke-miterlimit="10" stroke-linecap="round" stroke-linejoin="round"></path><path d="M54.9992 38.823C54.9992 40.1227 53.9457 41.1762 52.6461 41.1762H37.3531C36.0535 41.1762 35 40.1227 35 38.823C35 38.0112 35 30.638 35 29.4117C35 28.1121 36.0535 27.0586 37.3531 27.0586C39.1082 27.0586 50.9546 27.0586 52.6461 27.0586C53.9457 27.0586 54.9992 28.1121 54.9992 29.4117C54.9992 30.2108 54.9992 37.5559 54.9992 38.823Z" stroke="#020288" stroke-width="2.34375" stroke-miterlimit="10" stroke-linecap="round" stroke-linejoin="round"></path><path d="M38.5303 27.0588V24.1186C38.5303 20.5443 41.4271 17.6475 45.0002 17.6475C48.5736 17.6475 51.4701 20.5443 51.4701 24.1186V27.0588" stroke="#020288" stroke-width="2.34375" stroke-miterlimit="10" stroke-linecap="round" stroke-linejoin="round"></path><path d="M43.2354 31.7646H46.765" stroke="white" stroke-width="2.34375" stroke-miterlimit="10" stroke-linecap="round" stroke-linejoin="round"></path><path d="M23.786 13.7783C22.4099 12.4021 22.4099 10.1627 23.786 8.78647C25.1655 7.40717 27.3981 7.40706 28.7778 8.78647C30.154 10.1627 30.154 12.4021 28.7778 13.7783C27.3981 15.158 25.1658 15.1578 23.786 13.7783Z" fill="url(#paint13_linear_5313_653)"></path><path d="M31.6901 16.6901L27.9502 12.9502" stroke="#020288" stroke-width="2.34375" stroke-miterlimit="10" stroke-linecap="round" stroke-linejoin="round"></path><path d="M23.786 51.2135C22.4099 49.8374 22.4099 47.5979 23.786 46.2217C25.1653 44.8424 27.398 44.8419 28.7777 46.2216C30.154 47.5979 30.154 49.8373 28.7778 51.2135C27.3983 52.5927 25.1658 52.5929 23.786 51.2135Z" fill="url(#paint14_linear_5313_653)"></path><path d="M31.6901 43.3096L27.9502 47.0496" stroke="#020288" stroke-width="2.34375" stroke-miterlimit="10" stroke-linecap="round" stroke-linejoin="round"></path><path d="M61.2216 51.2136C59.8454 49.8374 59.8454 47.598 61.2216 46.2217C62.6008 44.8424 64.8335 44.8418 66.2133 46.2216C67.5895 47.598 67.5895 49.8373 66.2134 51.2136C64.8337 52.5929 62.6012 52.593 61.2216 51.2136Z" fill="url(#paint15_linear_5313_653)"></path><path d="M58.3086 43.3096L62.0486 47.0496" stroke="#020288" stroke-width="2.34375" stroke-miterlimit="10" stroke-linecap="round" stroke-linejoin="round"></path><path d="M61.2216 13.7783C59.8454 12.4021 59.8454 10.1627 61.2216 8.78647C62.6011 7.40717 64.8336 7.40706 66.2134 8.78647C67.5895 10.1627 67.5895 12.4021 66.2134 13.7783C64.8335 15.158 62.6012 15.1578 61.2216 13.7783Z" fill="url(#paint16_linear_5313_653)"></path><path d="M58.3086 16.6901L62.0486 12.9502" stroke="#020288" stroke-width="2.34375" stroke-miterlimit="10" stroke-linecap="round" stroke-linejoin="round"></path><path d="M37.3285 7.05937C39.2779 7.05937 40.8582 5.47908 40.8582 3.52969C40.8582 1.58029 39.2779 0 37.3285 0C35.3791 0 33.7988 1.58029 33.7988 3.52969C33.7988 5.47908 35.3791 7.05937 37.3285 7.05937Z" fill="url(#paint17_linear_5313_653)"></path><path d="M23.786 13.7783C22.4099 12.4021 22.4099 10.1627 23.786 8.78647C25.1655 7.40717 27.3981 7.40706 28.7778 8.78647C30.154 10.1627 30.154 12.4021 28.7778 13.7783C27.3981 15.158 25.1658 15.1578 23.786 13.7783Z" fill="url(#paint18_linear_5313_653)"></path><path d="M23.786 51.2135C22.4099 49.8374 22.4099 47.5979 23.786 46.2217C25.1653 44.8424 27.398 44.8419 28.7777 46.2216C30.154 47.5979 30.154 49.8373 28.7778 51.2135C27.3983 52.5927 25.1658 52.5929 23.786 51.2135Z" fill="url(#paint19_linear_5313_653)"></path><path d="M61.2216 51.2136C59.8454 49.8374 59.8454 47.598 61.2216 46.2217C62.6008 44.8424 64.8335 44.8418 66.2133 46.2216C67.5895 47.598 67.5895 49.8373 66.2134 51.2136C64.8337 52.5929 62.6012 52.593 61.2216 51.2136Z" fill="url(#paint20_linear_5313_653)"></path><path d="M61.2216 13.7783C59.8454 12.4021 59.8454 10.1627 61.2216 8.78647C62.6011 7.40717 64.8336 7.40706 66.2134 8.78647C67.5895 10.1627 67.5895 12.4021 66.2134 13.7783C64.8335 15.158 62.6012 15.1578 61.2216 13.7783Z" fill="url(#paint21_linear_5313_653)"></path><defs><linearGradient id="paint0_linear_5313_653" x1="-16.2" y1="58.6" x2="69" y2="23.8" gradientUnits="userSpaceOnUse"><stop offset="0.149286" stop-color="#1C40F2"></stop><stop offset="1" stop-color="#1C40F2" stop-opacity="0"></stop></linearGradient><linearGradient id="paint1_linear_5313_653" x1="15" y1="34.6513" x2="22.4791" y2="35.3654" gradientUnits="userSpaceOnUse"><stop stop-color="#0082F8"></stop><stop offset="1" stop-color="#1C40F2"></stop></linearGradient><linearGradient id="paint2_linear_5313_653" x1="15" y1="19.3222" x2="22.4791" y2="20.0363" gradientUnits="userSpaceOnUse"><stop stop-color="#0082F8"></stop><stop offset="1" stop-color="#1C40F2"></stop></linearGradient><linearGradient id="paint3_linear_5313_653" x1="67.9404" y1="19.3222" x2="75.4195" y2="20.0363" gradientUnits="userSpaceOnUse"><stop stop-color="#0082F8"></stop><stop offset="1" stop-color="#1C40F2"></stop></linearGradient><linearGradient id="paint4_linear_5313_653" x1="67.9404" y1="34.6513" x2="75.4195" y2="35.3654" gradientUnits="userSpaceOnUse"><stop stop-color="#0082F8"></stop><stop offset="1" stop-color="#1C40F2"></stop></linearGradient><linearGradient id="paint5_linear_5313_653" x1="33.7988" y1="0.51654" x2="41.2779" y2="1.2306" gradientUnits="userSpaceOnUse"><stop stop-color="#0082F8"></stop><stop offset="1" stop-color="#1C40F2"></stop></linearGradient><linearGradient id="paint6_linear_5313_653" x1="49.1299" y1="0.51654" x2="56.6089" y2="1.2306" gradientUnits="userSpaceOnUse"><stop stop-color="#0082F8"></stop><stop offset="1" stop-color="#1C40F2"></stop></linearGradient><linearGradient id="paint7_linear_5313_653" x1="49.1299" y1="53.457" x2="56.6089" y2="54.171" gradientUnits="userSpaceOnUse"><stop stop-color="#0082F8"></stop><stop offset="1" stop-color="#1C40F2"></stop></linearGradient><linearGradient id="paint8_linear_5313_653" x1="33.7988" y1="53.457" x2="41.2779" y2="54.171" gradientUnits="userSpaceOnUse"><stop stop-color="#0082F8"></stop><stop offset="1" stop-color="#1C40F2"></stop></linearGradient><linearGradient id="paint9_linear_5313_653" x1="49.1299" y1="0.51654" x2="56.6089" y2="1.2306" gradientUnits="userSpaceOnUse"><stop stop-color="#0082F8"></stop><stop offset="1" stop-color="#1C40F2"></stop></linearGradient><linearGradient id="paint10_linear_5313_653" x1="49.1299" y1="53.457" x2="56.6089" y2="54.171" gradientUnits="userSpaceOnUse"><stop stop-color="#0082F8"></stop><stop offset="1" stop-color="#1C40F2"></stop></linearGradient><linearGradient id="paint11_linear_5313_653" x1="33.7988" y1="53.457" x2="41.2779" y2="54.171" gradientUnits="userSpaceOnUse"><stop stop-color="#0082F8"></stop><stop offset="1" stop-color="#1C40F2"></stop></linearGradient><linearGradient id="paint12_linear_5313_653" x1="35" y1="27.7472" x2="55.536" y2="31.9137" gradientUnits="userSpaceOnUse"><stop stop-color="#0082F8"></stop><stop offset="1" stop-color="#1C40F2"></stop></linearGradient><linearGradient id="paint13_linear_5313_653" x1="22.7539" y1="8.26862" x2="30.2295" y2="8.98184" gradientUnits="userSpaceOnUse"><stop stop-color="#0082F8"></stop><stop offset="1" stop-color="#1C40F2"></stop></linearGradient><linearGradient id="paint14_linear_5313_653" x1="22.7539" y1="45.7037" x2="30.2295" y2="46.4169" gradientUnits="userSpaceOnUse"><stop stop-color="#0082F8"></stop><stop offset="1" stop-color="#1C40F2"></stop></linearGradient><linearGradient id="paint15_linear_5313_653" x1="60.1895" y1="45.7037" x2="67.6651" y2="46.4169" gradientUnits="userSpaceOnUse"><stop stop-color="#0082F8"></stop><stop offset="1" stop-color="#1C40F2"></stop></linearGradient><linearGradient id="paint16_linear_5313_653" x1="60.1895" y1="8.26862" x2="67.6651" y2="8.98184" gradientUnits="userSpaceOnUse"><stop stop-color="#0082F8"></stop><stop offset="1" stop-color="#1C40F2"></stop></linearGradient><linearGradient id="paint17_linear_5313_653" x1="33.7988" y1="0.51654" x2="41.2779" y2="1.2306" gradientUnits="userSpaceOnUse"><stop stop-color="#0082F8"></stop><stop offset="1" stop-color="#1C40F2"></stop></linearGradient><linearGradient id="paint18_linear_5313_653" x1="22.7539" y1="8.26862" x2="30.2295" y2="8.98184" gradientUnits="userSpaceOnUse"><stop stop-color="#0082F8"></stop><stop offset="1" stop-color="#1C40F2"></stop></linearGradient><linearGradient id="paint19_linear_5313_653" x1="22.7539" y1="45.7037" x2="30.2295" y2="46.4169" gradientUnits="userSpaceOnUse"><stop stop-color="#0082F8"></stop><stop offset="1" stop-color="#1C40F2"></stop></linearGradient><linearGradient id="paint20_linear_5313_653" x1="60.1895" y1="45.7037" x2="67.6651" y2="46.4169" gradientUnits="userSpaceOnUse"><stop stop-color="#0082F8"></stop><stop offset="1" stop-color="#1C40F2"></stop></linearGradient><linearGradient id="paint21_linear_5313_653" x1="60.1895" y1="8.26862" x2="67.6651" y2="8.98184" gradientUnits="userSpaceOnUse"><stop stop-color="#0082F8"></stop><stop offset="1" stop-color="#1C40F2"></stop></linearGradient></defs></svg>