<svg xmlns="http://www.w3.org/2000/svg" width="87" height="73" viewBox="0 0 87 73" fill="none"><circle cx="30" cy="43" r="30" fill="url(#paint0_linear_5311_647)" fill-opacity="0.15"></circle><path d="M73.2197 19.2344C73.2197 19.2344 75.0673 27.5815 83.0197 28.6179C83.0197 28.6179 86.3931 21.0397 84.5455 17.5943C84.5455 17.5927 78.199 15.7056 73.2197 19.2344Z" fill="url(#paint1_linear_5311_647)"></path><path d="M28 5.50769C28.5204 3.88482 29.7999 3.08282 31.2164 2.45222C33.2703 1.53857 35.4412 1.04322 37.646 0.700399C42.6638 -0.0811598 47.7046 -0.170795 52.7548 0.244358C55.9157 0.505402 59.0581 0.950434 62.0405 2.1157C63.0135 2.49625 63.9435 3.04193 64.8165 3.63006C65.7403 4.25122 66.116 5.21205 66.1114 6.36473C66.0913 11.5054 66.1037 16.6461 66.1037 21.7883C66.1037 22.0195 66.1037 22.2507 66.1037 22.6438C66.4993 22.3136 66.7857 22.0714 67.0752 21.8324C70.133 19.3068 73.4355 17.2405 77.2693 16.1775C79.9437 15.4368 82.6351 15.2937 85.3541 15.9652C86.0208 16.1303 86.3703 16.5014 86.5412 17.154C87.2895 20.0082 87.077 22.8278 86.2517 25.6206C84.963 29.986 82.5735 33.7035 79.6989 37.1254C77.1985 40.1023 74.367 42.7158 71.2061 44.9473C70.8812 45.1769 70.8043 45.4033 70.8227 45.8122C71.0829 51.8414 68.6995 56.4835 63.7264 59.7277C62.8811 60.2797 62.1529 59.973 61.848 58.9839C61.1275 56.6487 60.4238 54.3087 59.7125 51.9703C59.6571 51.7879 59.5909 51.6102 59.5185 51.3963C59.0058 51.5567 58.53 51.6967 58.0589 51.8539C57.4692 52.0505 56.9904 51.9231 56.5454 51.4624C55.0104 49.8678 53.4707 48.2764 51.8956 46.7227C51.3352 46.1707 51.1689 45.6031 51.4337 44.8765C51.4599 44.8058 51.4676 44.7271 51.4799 44.6517C51.483 44.6359 51.4676 44.6171 51.4861 44.6642C50.1789 44.6642 48.8963 44.6752 47.6153 44.6627C43.1164 44.6202 38.6299 44.4158 34.2418 43.2835C33.2241 43.0209 32.2218 42.6592 31.2518 42.2457C29.7814 41.6198 28.5327 40.7124 28 39.066C28 27.8804 28 16.6948 28 5.50769ZM81.6574 17.89C80.7967 18.0032 79.6804 18.0787 78.5965 18.3067C74.7828 19.1071 71.5048 21.0304 68.5379 23.5307C63.1367 28.0817 59.0951 33.735 55.8094 39.9985C55.6139 40.3727 55.7941 40.5221 56.0019 40.7329C58.0266 42.7976 60.0635 44.8514 62.062 46.9429C62.4931 47.3942 62.8103 47.4665 63.3692 47.1646C68.2253 44.5416 72.6288 41.2927 76.4718 37.2795C79.4202 34.2021 81.9437 30.8132 83.4926 26.756C84.4934 24.1346 84.9399 21.4424 84.495 18.6291C84.4349 18.2485 84.2964 18.0865 83.9207 18.0677C83.2478 18.0362 82.5796 17.9654 81.6574 17.89ZM30.2941 9.08839C30.2941 11.3025 30.3896 13.4648 30.2587 15.6129C30.1771 16.9354 30.7406 17.6226 31.7799 18.118C32.1448 18.291 32.502 18.5111 32.8884 18.6039C34.8823 19.0851 36.8639 19.6622 38.8854 19.9673C43.1734 20.6136 47.4937 20.6875 51.8186 20.3479C54.5577 20.1324 57.2829 19.8006 59.9373 19.0442C61.1228 18.7077 62.2822 18.2957 63.2691 17.5C63.671 17.176 63.8588 16.8018 63.8496 16.2451C63.8157 14.0875 63.8357 11.9284 63.8357 9.76931C63.8357 9.56173 63.8357 9.35573 63.8357 9.08367C58.4238 11.4708 52.7763 11.9504 47.0765 11.9536C41.372 11.9583 35.7245 11.4692 30.2941 9.08839ZM30.2941 19.9925C30.2941 20.2425 30.2941 20.4501 30.2941 20.6577C30.2941 22.8356 30.3234 25.0136 30.2772 27.19C30.2633 27.8568 30.4804 28.3239 31.027 28.5707C32.1617 29.085 33.2949 29.6369 34.4805 29.9892C37.5937 30.9154 40.8069 31.2268 44.0341 31.3557C48.9779 31.5539 53.9003 31.3872 58.7456 30.2298C59.0197 30.1637 59.3137 29.9876 59.5016 29.7753C60.8626 28.2311 62.2006 26.6648 63.5401 25.1017C63.6602 24.9617 63.8172 24.7825 63.8203 24.6189C63.8419 23.0967 63.8326 21.5745 63.8326 19.9862C58.4377 22.3875 52.7871 22.8592 47.0919 22.8639C41.3735 22.8687 35.7045 22.3922 30.2941 19.9925ZM47.0503 2.31384C42.6823 2.38617 38.3373 2.62835 34.1063 3.85808C32.9054 4.20719 31.7198 4.61291 30.716 5.41176C30.2002 5.8222 30.1617 6.02978 30.679 6.40876C31.3272 6.8821 32.017 7.346 32.756 7.62906C36.1926 8.94686 39.8108 9.26137 43.4321 9.51298C47.1796 9.77402 50.9179 9.61362 54.6424 9.15287C57.0242 8.8588 59.4015 8.49239 61.6294 7.5237C62.3053 7.22963 62.9119 6.75787 63.5278 6.33485C63.8835 6.09111 63.8373 5.78446 63.5109 5.52184C63.3307 5.3756 63.1644 5.19003 62.9581 5.10354C61.8449 4.63492 60.7502 4.0861 59.597 3.75744C55.4969 2.58432 51.2782 2.3846 47.0503 2.31384ZM47.6831 42.2205C46.6484 41.8903 45.6138 41.5632 44.5807 41.2314C43.3828 40.8461 43.1334 40.1573 43.8016 39.0565C45.0164 37.0547 46.613 35.4381 48.5607 34.1816C48.727 34.0747 48.8886 33.9583 48.9949 33.886C45.857 33.7083 42.6961 33.6076 39.549 33.3309C36.3696 33.0509 33.278 32.3008 30.2941 30.8651C30.2941 31.1812 30.2941 31.3935 30.2941 31.6058C30.2941 33.4897 30.4173 35.3846 30.2556 37.2544C30.1186 38.8411 30.8299 39.6101 32.1201 40.1007C32.4435 40.2234 32.7545 40.3963 33.0871 40.4765C34.8377 40.9043 36.579 41.3949 38.3496 41.7047C41.4213 42.2441 44.5314 42.3699 47.6831 42.2205ZM61.694 50.6478C62.3222 52.7141 62.9627 54.8229 63.6063 56.9427C66.4131 55.3214 68.9659 50.0817 68.5394 46.924C66.2884 48.1474 64.0297 49.3756 61.694 50.6478ZM46.4483 39.3411C46.4929 39.371 46.533 39.4119 46.5807 39.4276C48.5022 40.0409 50.4268 40.6432 52.3437 41.2691C52.707 41.3886 52.7594 41.1543 52.8764 40.9263C53.9434 38.8678 55.0165 36.8125 56.085 34.7556C56.1513 34.6282 56.2036 34.4945 56.2713 34.3452C52.8918 34.0825 48.4129 36.2055 46.4483 39.3411ZM60.2883 48.6082C58.3838 46.6598 56.4931 44.7256 54.57 42.7583C54.3144 43.5006 54.0296 44.2868 53.7832 45.0841C53.7478 45.2005 53.8587 45.4112 53.9618 45.5181C55.1628 46.7604 56.3699 47.998 57.5924 49.2183C57.714 49.3394 57.9788 49.4306 58.1297 49.3835C58.8749 49.1476 59.6063 48.8582 60.2883 48.6082Z" fill="#001042"></path><path d="M44.4642 59.1384C44.4642 59.1384 52.6583 60.0615 56.2734 51.2615L52.0255 46.9229C52.0255 46.9244 44.1024 50.5853 44.4642 59.1384Z" fill="url(#paint2_linear_5311_647)"></path><path d="M70.1948 36.621C72.3589 36.621 74.1133 34.8292 74.1133 32.6189C74.1133 30.4085 72.3589 28.6167 70.1948 28.6167C68.0307 28.6167 66.2764 30.4085 66.2764 32.6189C66.2764 34.8292 68.0307 36.621 70.1948 36.621Z" fill="url(#paint3_linear_5311_647)"></path><defs><linearGradient id="paint0_linear_5311_647" x1="-16.2" y1="64.6" x2="69" y2="29.8" gradientUnits="userSpaceOnUse"><stop offset="0.149286" stop-color="#1C40F2"></stop><stop offset="1" stop-color="#1C40F2" stop-opacity="0"></stop></linearGradient><linearGradient id="paint1_linear_5311_647" x1="73.2197" y1="17.9325" x2="85.7978" y2="19.1698" gradientUnits="userSpaceOnUse"><stop stop-color="#0082F8"></stop><stop offset="1" stop-color="#1C40F2"></stop></linearGradient><linearGradient id="paint2_linear_5311_647" x1="44.4521" y1="47.8187" x2="56.9839" y2="48.9739" gradientUnits="userSpaceOnUse"><stop stop-color="#0082F8"></stop><stop offset="1" stop-color="#1C40F2"></stop></linearGradient><linearGradient id="paint3_linear_5311_647" x1="66.2764" y1="29.2024" x2="74.5823" y2="29.9788" gradientUnits="userSpaceOnUse"><stop stop-color="#0082F8"></stop><stop offset="1" stop-color="#1C40F2"></stop></linearGradient></defs></svg>