<svg xmlns="http://www.w3.org/2000/svg" width="84" height="79" viewBox="0 0 84 79" fill="none"><circle cx="30" cy="49" r="30" fill="url(#paint0_linear_5313_651)" fill-opacity="0.15"></circle><path d="M52.8208 12.5004C52.4593 13.1222 52.1539 13.6727 51.8143 14.2013C51.7486 14.304 51.539 14.3766 51.4076 14.3629C48.173 14.0287 44.9302 13.9329 41.6832 14.0369C37.3407 14.1766 33.0188 14.5368 28.8516 15.8775C27.8218 16.2089 26.8125 16.669 25.8813 17.2195C24.7625 17.8809 24.7885 18.4657 25.8635 19.2025C27.2521 20.1528 28.8475 20.6184 30.458 21.0101C35.5577 22.2536 40.752 22.5069 45.9737 22.3891C47.3897 22.3576 48.8029 22.233 50.2189 22.1522C50.3189 22.1467 50.4188 22.1508 50.527 22.1508C50.6859 22.7876 50.8365 23.397 51.0104 24.0927C50.4462 24.1502 49.8985 24.2214 49.3493 24.2598C44.9767 24.5652 40.6068 24.5282 36.2507 24.0516C32.99 23.6942 29.7554 23.1724 26.6906 21.9222C26.1579 21.7044 25.6458 21.4346 25.0747 21.1649C25.0638 21.3538 25.0473 21.5154 25.0473 21.6757C25.0459 23.3505 25.0679 25.0253 25.0336 26.6987C25.0227 27.2451 25.2048 27.6697 25.6389 27.9093C26.5605 28.4174 27.4849 28.9515 28.4695 29.3048C31.4303 30.3661 34.5252 30.844 37.6475 31.0316C40.4754 31.2014 43.3128 31.2631 46.1462 31.248C49.2042 31.2316 52.2484 30.9371 55.2625 30.3825C55.4474 30.3483 55.683 30.3634 55.8432 30.4496C56.606 30.8632 57.3509 31.3096 58.1781 31.7889C57.24 31.9889 56.343 32.208 55.4351 32.3682C50.3339 33.2693 45.189 33.535 40.0221 33.2775C35.8522 33.0694 31.7233 32.5599 27.7561 31.1617C26.8605 30.8468 25.9936 30.4469 25.0747 30.0703C25.0651 30.2346 25.0487 30.3962 25.0487 30.5564C25.0473 32.1628 25.0774 33.7691 25.0323 35.3741C25.0145 35.9917 25.2404 36.4176 25.6773 36.7929C26.566 37.5529 27.6246 37.9843 28.716 38.3321C31.4467 39.2031 34.2691 39.5879 37.1079 39.8741C40.8383 40.2507 44.5768 40.3205 48.3168 40.0672C52.0498 39.8138 55.7775 39.4537 59.3421 38.2253C60.324 37.887 61.2333 37.3091 62.1344 36.7696C62.6192 36.4793 62.8246 35.9808 62.789 35.3645C62.7383 34.4812 62.7766 33.5939 62.7766 32.6763C63.449 32.6311 64.0749 32.5901 64.7719 32.5435C64.7815 32.7297 64.7979 32.9064 64.7979 33.0831C64.7993 39.8481 64.7897 46.6144 64.8089 53.3795C64.8116 54.5353 64.3761 55.4295 63.4983 56.1334C62.1933 57.181 60.6526 57.7343 59.0778 58.2067C55.7377 59.2091 52.3018 59.6255 48.8372 59.8418C45.1328 60.0733 41.4271 60.0582 37.7269 59.7501C34.0609 59.4433 30.4251 58.9503 26.9796 57.585C26.0388 57.2125 25.1432 56.6798 24.3078 56.1033C23.4026 55.4774 23.0055 54.5503 23.0082 53.4096C23.0206 41.8255 23.0233 30.2415 23 18.6588C22.9973 17.3674 23.5149 16.4307 24.5078 15.694C25.8197 14.7217 27.3288 14.1848 28.8749 13.737C32.3875 12.7168 35.996 12.3101 39.6332 12.0992C43.0828 11.8993 46.5324 11.9417 49.9765 12.2074C50.9105 12.28 51.8417 12.3991 52.8208 12.5004ZM62.7712 38.9442C61.8126 39.3386 60.9484 39.7426 60.0528 40.0562C55.6378 41.5968 51.0461 42.0775 46.4091 42.2117C41.775 42.3473 37.16 42.0953 32.5861 41.2942C30.043 40.8478 27.5356 40.2767 25.2486 39.0072C25.1993 38.9798 25.1309 38.984 25.0432 38.9689C25.0432 40.7094 25.0911 42.4185 25.0227 44.1221C24.9898 44.9355 25.3281 45.445 25.9196 45.8845C26.8947 46.609 28.0108 47.0349 29.1625 47.3594C33.683 48.6316 38.3213 48.989 42.9883 49.0945C46.1681 49.1657 49.337 48.9617 52.4908 48.57C54.8955 48.2715 57.2989 47.9127 59.5722 47.0362C60.4965 46.6802 61.3538 46.1283 62.196 45.5928C62.463 45.423 62.7383 45.0259 62.7451 44.7246C62.7958 42.817 62.7712 40.9066 62.7712 38.9442ZM25.0432 47.7785C25.0432 49.7025 25.0624 51.5294 25.0309 53.3548C25.0213 53.9163 25.2007 54.3559 25.6567 54.6065C26.5496 55.0967 27.4425 55.6212 28.3983 55.954C32.3902 57.344 36.5547 57.7904 40.7424 57.8863C43.9305 57.9589 47.1295 57.8603 50.3148 57.6863C53.3001 57.5234 56.2595 57.0441 59.0983 56.0594C60.1501 55.6938 61.1429 55.1406 62.1316 54.6147C62.6082 54.3613 62.7958 53.8998 62.7849 53.3206C62.752 51.6814 62.7739 50.0408 62.7725 48.4002C62.7725 48.2235 62.7575 48.0482 62.7479 47.8319C62.0577 48.1373 61.4469 48.4372 60.8142 48.6809C57.2099 50.0695 53.4289 50.6063 49.6109 50.9241C46.4064 51.1911 43.1964 51.2226 39.9851 51.0418C36.8957 50.8679 33.8295 50.5256 30.8085 49.8326C28.842 49.3821 26.9262 48.7877 25.0432 47.7785Z" fill="#001042"></path><path d="M65.947 34.1263C75.3707 34.1263 83.0101 26.4869 83.0101 17.0632C83.0101 7.63944 75.3707 0 65.947 0C56.5232 0 48.8838 7.63944 48.8838 17.0632C48.8838 26.4869 56.5232 34.1263 65.947 34.1263Z" fill="url(#paint1_linear_5313_651)"></path><path d="M65.9176 9.04016C66.9077 9.04016 67.8992 9.03468 68.8893 9.04153C69.6713 9.04701 69.9931 9.35376 70.0711 10.1398C70.1848 11.2984 70.912 12.0269 72.0842 12.1543C72.821 12.2351 73.2017 12.5637 73.2126 13.2293C73.251 15.5669 73.0387 17.8717 72.113 20.0545C71.0215 22.6291 69.1317 24.297 66.4093 24.9804C66.0957 25.0598 65.7259 25.0598 65.4123 24.9777C61.8764 24.0615 59.9537 21.6225 59.1006 18.2044C58.7048 16.6214 58.587 15.0041 58.609 13.3758C58.6199 12.5774 58.9472 12.2405 59.7511 12.1543C60.9165 12.0283 61.6518 11.286 61.7532 10.133C61.8203 9.36472 62.1613 9.04701 62.9446 9.04153C63.9361 9.03468 64.9262 9.04016 65.9176 9.04016ZM65.9505 10.841C65.2932 10.841 64.6345 10.8191 63.9799 10.856C63.8073 10.8656 63.554 11.0258 63.4937 11.1779C62.9802 12.4747 62.101 13.3785 60.7877 13.8743C60.648 13.9277 60.4796 14.1755 60.4919 14.3193C60.5919 15.4491 60.6508 16.5912 60.8767 17.6991C61.419 20.3627 62.8912 22.2812 65.5534 23.1467C65.7437 23.2083 65.982 23.2426 66.1655 23.1837C68.0088 22.5989 69.4302 21.502 70.2766 19.7231C71.1051 17.9826 71.2831 16.1133 71.3529 14.2262C71.357 14.1057 71.1557 13.9167 71.0106 13.8606C69.7247 13.3635 68.8496 12.4761 68.3443 11.1943C68.2827 11.0382 68.0389 10.8684 67.8691 10.8574C67.2309 10.8177 66.59 10.841 65.9505 10.841Z" fill="white"></path><defs><linearGradient id="paint0_linear_5313_651" x1="-16.2" y1="70.6" x2="69" y2="35.8" gradientUnits="userSpaceOnUse"><stop offset="0.149286" stop-color="#1C40F2"></stop><stop offset="1" stop-color="#1C40F2" stop-opacity="0"></stop></linearGradient><linearGradient id="paint1_linear_5313_651" x1="48.8838" y1="2.49705" x2="85.039" y2="5.94895" gradientUnits="userSpaceOnUse"><stop stop-color="#0082F8"></stop><stop offset="1" stop-color="#1C40F2"></stop></linearGradient></defs></svg>