<svg xmlns="http://www.w3.org/2000/svg" width="79" height="73" viewBox="0 0 79 73" fill="none"><circle cx="30" cy="43" r="30" fill="url(#paint0_linear_5313_650)" fill-opacity="0.15"></circle><g clip-path="url(#clip0_5313_650)"><path d="M31.4845 22.0023L47.293 6.19385" stroke="#020288" stroke-width="2.34375" stroke-miterlimit="10" stroke-linecap="round" stroke-linejoin="round"></path><path d="M57.2773 16.1777L41.469 31.9862" stroke="#020288" stroke-width="2.34375" stroke-miterlimit="10" stroke-linecap="round" stroke-linejoin="round"></path><path d="M53.9496 19.5059C55.7876 21.3439 55.7876 24.324 53.9496 26.162L51.4535 28.6581C49.6154 30.4962 46.6353 30.4962 44.7973 28.6581" stroke="#020288" stroke-width="2.34375" stroke-miterlimit="10" stroke-linecap="round" stroke-linejoin="round"></path><path d="M54.3488 25.708L76.7435 46.6366C78.1546 47.9513 78.1945 50.1744 76.8299 51.5389C75.4946 52.8743 73.3363 52.8643 72.0125 51.5406C71.9842 51.5123 71.9559 51.4823 71.9276 51.4523L50.9989 29.0576" stroke="#020288" stroke-width="2.34375" stroke-miterlimit="10" stroke-linecap="round" stroke-linejoin="round"></path><path d="M70.3233 49.7254L75.0176 45.0312" stroke="#020288" stroke-width="2.34375" stroke-miterlimit="10" stroke-linecap="round" stroke-linejoin="round"></path><path d="M51.9414 58.8281H20.1716V56.4604C20.1716 54.5188 21.7457 52.9448 23.6873 52.9448H48.4258C50.3673 52.9448 51.9414 54.5188 51.9414 56.4604V58.8281V58.8281Z" stroke="#020288" stroke-width="2.34375" stroke-miterlimit="10" stroke-linecap="round" stroke-linejoin="round"></path><path d="M47.2344 52.9448H24.8778V50.5771C24.8778 48.6355 26.4519 47.0615 28.3934 47.0615H43.7187C45.6604 47.0615 47.2344 48.6355 47.2344 50.5771V52.9448Z" stroke="#020288" stroke-width="2.34375" stroke-miterlimit="10" stroke-linecap="round" stroke-linejoin="round"></path><path d="M59.3583 18.2094C60.4115 18.2094 61.4649 17.8084 62.2669 17.0065C63.8707 15.4025 63.8707 12.793 62.2669 11.1891L52.2826 1.2048C51.5056 0.427852 50.4728 0 49.3739 0C48.2751 0 47.2421 0.427851 46.4653 1.20492C45.6883 1.98176 45.2605 3.01465 45.2605 4.1134C45.2605 5.21227 45.6883 6.24516 46.4654 7.02211L56.4496 17.0064C57.2515 17.8084 58.3049 18.2094 59.3583 18.2094Z" fill="url(#paint1_linear_5313_650)"></path><path d="M39.3905 38.178C40.4438 38.178 41.4972 37.777 42.2991 36.9751C43.0761 36.1982 43.5039 35.1653 43.5039 34.0664C43.5039 32.9677 43.0761 31.9348 42.2991 31.1577L32.3148 21.1736C31.5379 20.3966 30.505 19.9688 29.4062 19.9688C28.3074 19.9688 27.2745 20.3966 26.4975 21.1737C25.7206 21.9505 25.2927 22.9834 25.2927 24.0821C25.2927 25.181 25.7206 26.2139 26.4977 26.9909L36.4818 36.9751C37.2838 37.777 38.3371 38.178 39.3905 38.178Z" fill="url(#paint2_linear_5313_650)"></path></g><defs><linearGradient id="paint0_linear_5313_650" x1="-16.2" y1="64.6" x2="69" y2="29.8" gradientUnits="userSpaceOnUse"><stop offset="0.149286" stop-color="#1C40F2"></stop><stop offset="1" stop-color="#1C40F2" stop-opacity="0"></stop></linearGradient><linearGradient id="paint1_linear_5313_650" x1="63.4697" y1="1.3324" x2="44.1779" y2="3.17425" gradientUnits="userSpaceOnUse"><stop stop-color="#0082F8"></stop><stop offset="1" stop-color="#1C40F2"></stop></linearGradient><linearGradient id="paint2_linear_5313_650" x1="43.5039" y1="21.3011" x2="24.2101" y2="23.1434" gradientUnits="userSpaceOnUse"><stop stop-color="#0082F8"></stop><stop offset="1" stop-color="#1C40F2"></stop></linearGradient><clipPath id="clip0_5313_650"><rect width="60" height="60" fill="white" transform="matrix(-1 0 0 1 79 0)"></rect></clipPath></defs></svg>