<svg xmlns="http://www.w3.org/2000/svg" width="81" height="70" viewBox="0 0 81 70" fill="none"><circle cx="29" cy="41" r="29" fill="url(#paint0_linear_5313_652)" fill-opacity="0.15"></circle><path d="M71.4973 40.7055C76.3484 40.7055 80.295 36.6954 80.295 31.7662C80.295 29.6608 79.5597 27.6062 78.2244 25.9803C77.1989 24.7316 75.8709 23.795 74.3963 23.2634C74.8372 21.8225 75.0966 20.4195 75.0966 18.6172C75.0966 8.35167 66.893 0 56.8094 0C50.4931 0 44.6747 3.29859 41.3362 8.68955C39.4575 7.67458 37.3628 7.14324 35.2075 7.14324C28.0159 7.14324 22.165 13.0689 22.165 20.3526C22.165 21.3991 22.2853 22.4336 22.5236 23.4405C20.6702 24.4694 18 26.812 18 31.7663C18 36.6954 21.9466 40.7055 26.7977 40.7055H32.9318V46.8949H27.5238C26.8519 46.8949 26.3071 47.4396 26.3071 48.1116C26.3071 48.7835 26.8519 49.3283 27.5238 49.3283H34.1484C34.8204 49.3283 35.3651 48.7835 35.3651 48.1116V40.7055H41.3088V47.2055C41.3088 47.8774 41.8535 48.4222 42.5255 48.4222C43.1975 48.4222 43.7422 47.8774 43.7422 47.2055V40.7055H54.5527V50.8556C54.5527 51.5275 55.0974 52.0723 55.7694 52.0723C56.4414 52.0723 56.9861 51.5275 56.9861 50.8556V40.7055H62.9298V48.1116C62.9298 48.7835 63.4745 49.3283 64.1465 49.3283H70.7711C71.4431 49.3283 71.9878 48.7835 71.9878 48.1116C71.9878 47.4396 71.4431 46.8949 70.7711 46.8949H65.3632V40.7055H71.4973ZM20.4334 31.7662C20.4334 27.653 22.7118 25.9735 24.2136 25.3138H29.9263C30.5983 25.3138 31.143 24.769 31.143 24.0971C31.143 23.4251 30.5983 22.8804 29.9263 22.8804H24.8916C24.6968 22.0569 24.5984 21.21 24.5984 20.3527C24.5984 14.4108 29.3576 9.57677 35.2075 9.57677C37.3123 9.57677 39.3461 10.2013 41.0888 11.3828C41.3751 11.577 41.7305 11.64 42.066 11.5563C42.4015 11.4726 42.6856 11.25 42.8472 10.9443C45.6219 5.69476 50.972 2.43364 56.8094 2.43364C65.5512 2.43364 72.6632 9.69369 72.6632 18.6175C72.6632 20.2705 72.4114 21.5087 71.9657 22.8805H66.8387C66.1667 22.8805 65.622 23.4252 65.622 24.0972C65.622 24.7691 66.1667 25.3139 66.8387 25.3139H72.7177C75.6575 25.9073 77.8616 28.6618 77.8616 31.7663C77.8616 35.3535 75.0066 38.2721 71.4973 38.2721H26.7977C23.2884 38.2721 20.4334 35.3536 20.4334 31.7662Z" fill="#020288"></path><path d="M75.9688 52.3419C78.2999 50.989 79.093 48.0025 77.7401 45.6713C76.3872 43.3402 73.4007 42.5471 71.0696 43.9C68.7384 45.2529 67.9454 48.2394 69.2982 50.5705C70.6511 52.9017 73.6376 53.6948 75.9688 52.3419Z" fill="url(#paint1_linear_5313_652)"></path><path d="M29.4961 49.3408C30.1591 46.7294 28.5795 44.075 25.9681 43.412C23.3567 42.749 20.7022 44.3286 20.0393 46.94C19.3763 49.5515 20.9559 52.2059 23.5673 52.8689C26.1787 53.5318 28.8332 51.9523 29.4961 49.3408Z" fill="url(#paint2_linear_5313_652)"></path><path d="M44.1171 55.4639C46.6611 54.5772 48.0047 51.7961 47.1181 49.252C46.2314 46.708 43.4503 45.3644 40.9062 46.251C38.3622 47.1377 37.0186 49.9188 37.9052 52.4629C38.7919 55.0069 41.573 56.3505 44.1171 55.4639Z" fill="url(#paint3_linear_5313_652)"></path><path d="M60.6506 55.1595C61.001 52.4861 59.1178 50.0348 56.4443 49.6845C53.7709 49.3341 51.3197 51.2174 50.9693 53.8908C50.619 56.5642 52.5022 59.0155 55.1756 59.3658C57.849 59.7162 60.3003 57.8329 60.6506 55.1595Z" fill="url(#paint4_linear_5313_652)"></path><defs><linearGradient id="paint0_linear_5313_652" x1="-15.66" y1="61.88" x2="66.7" y2="28.24" gradientUnits="userSpaceOnUse"><stop offset="0.149286" stop-color="#1C40F2"></stop><stop offset="1" stop-color="#1C40F2" stop-opacity="0"></stop></linearGradient><linearGradient id="paint1_linear_5313_652" x1="67.2071" y1="46.9673" x2="76.6464" y2="42.6307" gradientUnits="userSpaceOnUse"><stop stop-color="#0082F8"></stop><stop offset="1" stop-color="#1C40F2"></stop></linearGradient><linearGradient id="paint2_linear_5313_652" x1="19.5308" y1="51.8441" x2="23.0309" y2="42.0679" gradientUnits="userSpaceOnUse"><stop stop-color="#0082F8"></stop><stop offset="1" stop-color="#1C40F2"></stop></linearGradient><linearGradient id="paint3_linear_5313_652" x1="36.5347" y1="48.5306" x2="46.6201" y2="46.0607" gradientUnits="userSpaceOnUse"><stop stop-color="#0082F8"></stop><stop offset="1" stop-color="#1C40F2"></stop></linearGradient><linearGradient id="paint4_linear_5313_652" x1="51.0434" y1="58.8243" x2="53.3668" y2="48.6957" gradientUnits="userSpaceOnUse"><stop stop-color="#0082F8"></stop><stop offset="1" stop-color="#1C40F2"></stop></linearGradient></defs></svg>