<svg xmlns="http://www.w3.org/2000/svg" width="160" height="185" viewBox="0 0 160 185" fill="none"><path d="M13.2637 144.026L81.2938 179.677L146.741 144.026V4.61035H13.2637V144.026Z" fill="white"></path><path d="M148.107 5.14355L11.875 146.51L82.4886 182.517L148.107 147.929V5.14355Z" fill="#F2F3F2"></path><path d="M8.78516 51.0834V147.042L11.1964 148.284L79.2265 183.936L81.2932 185L83.36 183.936L148.979 148.284L151.39 147.042V0H8.78516V51.0834ZM13.2631 144.382V4.6117H146.912V144.382L81.2932 180.034L13.2631 144.382Z" fill="#DCDEDC"></path><path d="M80.0827 6.91755C80.7716 6.91755 81.4606 6.91755 82.1495 7.09492L80.0827 11.1745C76.9826 10.9971 74.227 13.4803 74.0547 16.6731C73.8825 19.8658 76.2937 22.7037 79.3938 22.8811H80.0827C81.4606 22.8811 82.8384 22.349 83.8718 21.4621L86.1107 25.3643C84.3884 26.6059 82.3217 27.3154 80.0827 27.3154C74.5714 27.4928 69.9213 23.2359 69.749 17.5599C69.5768 11.884 73.7103 7.09492 79.2216 6.91755C79.2216 6.91755 80.0827 6.91755 80.0827 6.91755ZM87.1441 15.6088L89.7275 20.0431L87.1441 24.3001L84.7329 20.0431H79.7383L82.3217 15.6088H87.1441ZM83.0106 14.0125C83.0106 13.303 83.1828 12.5935 83.5273 12.0614C83.8718 11.5292 84.5607 10.9971 85.0774 10.6424L85.4218 10.465C86.1107 10.1103 86.2829 9.93289 86.2829 9.57814C86.2829 9.22339 85.7663 8.86865 85.4218 8.86865C84.7329 8.86865 84.2162 9.22339 83.8718 9.93289L83.0106 9.04602C83.1828 8.69128 83.5273 8.33653 83.8718 7.98178C84.3884 7.62704 84.9051 7.62704 85.4218 7.62704C85.9385 7.62704 86.6274 7.80441 86.9719 8.15916C87.3163 8.5139 87.6608 9.04602 87.6608 9.57814C87.6608 10.465 87.1441 11.1745 86.1107 11.5292L85.594 11.884C85.0774 12.2387 84.7329 12.4161 84.5607 12.9482H87.6608V14.1898L83.0106 14.0125ZM80.0827 36.1841L96.4444 26.6059V0H63.5488V26.4286L80.0827 36.1841Z" fill="#FF492C"></path><path d="M154.661 98.9746H5.5113L0 111.391L5.5113 123.807H154.661L160 111.391L154.661 98.9746Z" fill="#FFD200"></path><path d="M56.1259 72.369C56.212 72.369 56.2809 72.4044 56.3498 72.4576C56.4014 72.5286 56.4359 72.5995 56.4359 72.6882V75.2956C56.4359 75.3843 56.4014 75.4553 56.3498 75.5262C56.2809 75.5794 56.212 75.6149 56.1259 75.6149H51.4929C51.4068 75.6149 51.3724 75.6681 51.3724 75.7568V90.6738C51.3724 90.7625 51.3379 90.8512 51.2863 90.9044C51.2174 90.9576 51.1485 90.9931 51.0624 90.9931H48.0311C47.945 90.9931 47.8761 90.9576 47.8245 90.9044C47.7556 90.8512 47.7211 90.7625 47.7211 90.6738V75.7568C47.7211 75.6681 47.6867 75.6149 47.6006 75.6149H43.1054C43.0193 75.6149 42.9504 75.5794 42.8815 75.5262C42.8298 75.4553 42.7954 75.3843 42.7954 75.2956V72.6882C42.7954 72.5995 42.8298 72.5286 42.8815 72.4576C42.9504 72.4044 43.0193 72.369 43.1054 72.369H56.1259ZM62.2227 91.206C60.776 91.206 59.536 90.8157 58.5026 90.0353C57.4692 89.2549 56.7631 88.1906 56.3842 86.8426C56.1431 86.0089 56.0225 85.1043 56.0225 84.1288C56.0225 83.0823 56.1431 82.1422 56.3842 81.3086C56.7803 79.996 57.5037 78.9672 58.5198 78.2223C59.5704 77.4773 60.8105 77.1048 62.24 77.1048C63.6695 77.1048 64.8751 77.4773 65.874 78.2045C66.8729 78.9495 67.579 79.9783 67.9752 81.2908C68.268 82.1777 68.4057 83.1 68.4057 84.0756C68.4057 85.0334 68.2852 85.938 68.0268 86.7716C67.6652 88.1551 66.959 89.2371 65.9256 90.0176C64.9095 90.8157 63.6695 91.206 62.2227 91.206ZM62.2227 87.9955C62.7911 87.9955 63.2733 87.8181 63.6695 87.4634C64.0656 87.1087 64.3584 86.612 64.5306 85.9912C64.6684 85.4236 64.7373 84.8028 64.7373 84.1288C64.7373 83.3838 64.6684 82.763 64.5306 82.2486C64.3412 81.6456 64.0484 81.1667 63.6522 80.8296C63.2561 80.4926 62.7739 80.333 62.2055 80.333C61.6199 80.333 61.1377 80.4926 60.7416 80.8296C60.3455 81.1667 60.0699 81.6456 59.8977 82.2486C59.7599 82.6566 59.691 83.2951 59.691 84.1288C59.691 84.927 59.7599 85.5478 59.8804 85.9912C60.0354 86.612 60.3282 87.1087 60.7416 87.4634C61.1377 87.8181 61.6372 87.9955 62.2227 87.9955ZM82.7007 91.206C81.3745 91.206 80.2206 90.9399 79.2044 90.4078C78.2055 89.8757 77.4305 89.1307 76.8621 88.1552C76.2938 87.1796 76.0182 86.0799 76.0182 84.8205V72.6882C76.0182 72.5995 76.0527 72.5286 76.1043 72.4576C76.1732 72.4044 76.2421 72.369 76.3282 72.369H79.3422C79.4283 72.369 79.5145 72.4044 79.5661 72.4576C79.635 72.5286 79.6695 72.5995 79.6695 72.6882V84.856C79.6695 85.7961 79.945 86.5411 80.4962 87.1264C81.0645 87.7117 81.7879 87.9955 82.7007 87.9955C83.6135 87.9955 84.3541 87.7117 84.9224 87.1264C85.4908 86.5411 85.7663 85.7961 85.7663 84.856V72.6882C85.7663 72.5995 85.8008 72.5286 85.8524 72.4576C85.9041 72.4044 85.9902 72.369 86.0763 72.369H89.0903C89.1765 72.369 89.2626 72.4044 89.3142 72.4576C89.3659 72.5286 89.4004 72.5995 89.4004 72.6882V84.8205C89.4004 86.0799 89.1248 87.1796 88.5564 88.1552C88.0053 89.1307 87.2303 89.8757 86.2141 90.4078C85.198 90.9399 84.0268 91.206 82.7007 91.206ZM97.4606 91.1705C96.3067 91.1705 95.3078 91.0109 94.4466 90.6738C93.5855 90.3368 92.9138 89.8757 92.4316 89.2726C91.9665 88.6695 91.7254 87.9778 91.7254 87.2151V86.949C91.7254 86.8603 91.7599 86.7894 91.8115 86.7184C91.8632 86.6652 91.9493 86.6297 92.0354 86.6297H94.9117C94.9978 86.6297 95.0667 86.6652 95.1183 86.7184C95.1872 86.7894 95.2217 86.8603 95.2217 86.949V86.9668C95.2217 87.3747 95.4283 87.7117 95.8417 87.9778C96.2723 88.2438 96.7889 88.3857 97.4262 88.3857C98.029 88.3857 98.494 88.2616 98.8557 88.031C99.2174 87.7827 99.3896 87.4811 99.3896 87.1441C99.3896 86.8249 99.2346 86.5765 98.9418 86.4169C98.6146 86.2573 98.1151 86.0976 97.409 85.9203C96.5995 85.7074 95.9622 85.4946 95.4972 85.2994C94.395 84.9092 93.5166 84.4303 92.8621 83.8627C92.2077 83.2951 91.8804 82.4792 91.8804 81.415C91.8804 80.1024 92.3799 79.0559 93.3616 78.2932C94.3433 77.5305 95.6695 77.1403 97.3056 77.1403C98.4079 77.1403 99.3724 77.3177 100.199 77.6724C101.026 78.0449 101.663 78.5593 102.128 79.2156C102.593 79.8718 102.817 80.6168 102.817 81.4505C102.817 81.5391 102.782 81.6101 102.714 81.6633C102.662 81.7165 102.593 81.752 102.507 81.752H99.734C99.6479 81.752 99.579 81.7165 99.5101 81.6633C99.4585 81.6101 99.424 81.5391 99.424 81.4505C99.424 81.0602 99.2346 80.7232 98.8385 80.4572C98.4596 80.1911 97.9429 80.0492 97.3056 80.0492C96.7373 80.0492 96.2723 80.1556 95.9106 80.3862C95.5489 80.5991 95.3767 80.8829 95.3767 81.2553C95.3767 81.6101 95.5489 81.8761 95.8934 82.0535C96.255 82.2309 96.8406 82.426 97.6673 82.6211L98.3218 82.7807C98.5629 82.834 98.8212 82.9226 99.0796 83.0113C100.302 83.3838 101.267 83.8627 101.973 84.4481C102.679 85.0334 103.041 85.8848 103.041 87.0022C103.041 88.3148 102.541 89.3435 101.525 90.0708C100.509 90.798 99.1657 91.1705 97.4606 91.1705ZM116.888 82.7453C116.991 83.4193 117.026 84.1643 116.991 84.9979C116.974 85.2285 116.854 85.3349 116.647 85.3349H108.673C108.569 85.3349 108.535 85.3704 108.569 85.4591C108.621 85.8138 108.724 86.1686 108.845 86.5233C109.293 87.5166 110.206 88.0133 111.601 88.0133C112.703 87.9955 113.564 87.5343 114.201 86.6297C114.27 86.5233 114.356 86.4701 114.442 86.4701C114.494 86.4701 114.546 86.5056 114.615 86.5765L116.475 88.4567C116.561 88.5454 116.595 88.6341 116.595 88.705C116.595 88.7405 116.561 88.8114 116.509 88.9179C115.941 89.6451 115.2 90.2127 114.305 90.6029C113.409 91.0109 112.427 91.206 111.359 91.206C109.878 91.206 108.621 90.869 107.605 90.1772C106.589 89.4854 105.848 88.5099 105.4 87.2683C105.039 86.3814 104.849 85.2285 104.849 83.7918C104.849 82.8162 104.987 81.9471 105.245 81.2021C105.641 79.9428 106.33 78.9495 107.312 78.2045C108.294 77.4596 109.482 77.0871 110.843 77.0871C112.565 77.0871 113.943 77.6015 114.993 78.6302C116.044 79.659 116.664 81.0248 116.888 82.7453ZM110.877 80.333C109.792 80.333 109.069 80.8474 108.724 81.8939C108.655 82.1245 108.587 82.4083 108.535 82.7453C108.535 82.834 108.587 82.8694 108.673 82.8694H113.151C113.254 82.8694 113.288 82.834 113.254 82.7453C113.168 82.2309 113.116 81.9826 113.116 82.0003C112.961 81.4682 112.703 81.0602 112.307 80.7587C111.911 80.4749 111.446 80.333 110.877 80.333ZM50.7523 48.6542C50.7523 48.7429 50.7179 48.8316 50.649 48.8848C50.5973 48.938 50.5285 48.9735 50.4423 48.9735H41.9515C41.8654 48.9735 41.8309 49.0267 41.8309 49.1154V53.2304C41.8309 53.3191 41.8654 53.3723 41.9515 53.3723H47.5145C47.6006 53.3723 47.6695 53.4078 47.7384 53.461C47.79 53.532 47.8245 53.6029 47.8245 53.6916V56.2635C47.8245 56.3522 47.79 56.4409 47.7384 56.4941C47.6695 56.565 47.6006 56.6005 47.5145 56.6005H41.9515C41.8654 56.6005 41.8309 56.636 41.8309 56.7247V61.0348C41.8309 61.1235 41.8654 61.1767 41.9515 61.1767H50.4423C50.5285 61.1767 50.5973 61.2122 50.649 61.2654C50.7179 61.3186 50.7523 61.3896 50.7523 61.4783V64.0679C50.7523 64.1566 50.7179 64.2453 50.649 64.2985C50.5973 64.3517 50.5285 64.3872 50.4423 64.3872H38.4897C38.4036 64.3872 38.3347 64.3517 38.283 64.2985C38.2141 64.2453 38.1797 64.1566 38.1797 64.0679V46.0823C38.1797 45.9936 38.2141 45.9227 38.283 45.8517C38.3347 45.7985 38.4036 45.763 38.4897 45.763H50.4423C50.5285 45.763 50.5973 45.7985 50.649 45.8517C50.7179 45.9227 50.7523 45.9936 50.7523 46.0823V48.6542ZM58.3476 50.4989C59.4671 50.4989 60.466 50.694 61.3444 51.1019C62.2227 51.5099 62.8944 52.042 63.3939 52.7338C63.8761 53.4255 64.1173 54.206 64.1173 55.0574V64.0679C64.1173 64.1566 64.0828 64.2453 64.0311 64.2985C63.9795 64.3517 63.8934 64.3872 63.8072 64.3872H60.7932C60.7071 64.3872 60.621 64.3517 60.5693 64.2985C60.5177 64.2453 60.4832 64.1566 60.4832 64.0679V63.1988C60.4832 63.1456 60.466 63.1101 60.4316 63.0924C60.3971 63.0746 60.3627 63.0924 60.3282 63.1456C59.6049 64.1211 58.4337 64.6 56.832 64.6C55.4886 64.6 54.4036 64.263 53.5941 63.589C52.7502 62.915 52.3368 61.9217 52.3368 60.6091C52.3368 59.2434 52.8019 58.1969 53.7491 57.4342C54.6619 56.6715 55.9881 56.299 57.7104 56.299H60.3627C60.4488 56.299 60.4832 56.2635 60.4832 56.1748V55.5895C60.4832 55.0042 60.311 54.543 59.9666 54.206C59.6221 53.8867 59.1054 53.7271 58.4165 53.7271C57.8826 53.7271 57.452 53.8158 57.0903 54.0109C56.7287 54.206 56.5048 54.4898 56.4014 54.8445C56.3498 55.0396 56.2464 55.1283 56.057 55.1106L52.9396 54.6849C52.733 54.6494 52.6296 54.5607 52.6469 54.4366C52.733 53.6916 53.0258 53.0176 53.5252 52.4145C54.0247 51.8114 54.6964 51.3503 55.5403 51.0133C56.367 50.6763 57.297 50.4989 58.3476 50.4989ZM57.8137 61.8153C58.5543 61.8153 59.1915 61.6024 59.7082 61.1945C60.2249 60.7865 60.4832 60.2544 60.4832 59.6158V58.658C60.4832 58.5693 60.4488 58.5339 60.3627 58.5339H58.5026C57.7276 58.5339 57.1076 58.6935 56.677 58.995C56.2464 59.2966 56.0225 59.7223 56.0225 60.2721C56.0225 60.751 56.1775 61.1235 56.5048 61.3896C56.832 61.6734 57.2626 61.8153 57.8137 61.8153ZM71.9881 64.5646C70.8342 64.5646 69.818 64.4049 68.9569 64.0679C68.0957 63.7309 67.424 63.2697 66.959 62.6667C66.4768 62.0636 66.2357 61.3718 66.2357 60.6091V60.3431C66.2357 60.2544 66.2701 60.1834 66.339 60.1125C66.3907 60.0593 66.4596 60.0238 66.5457 60.0238H69.4219C69.508 60.0238 69.5941 60.0593 69.6458 60.1125C69.6974 60.1834 69.7319 60.2544 69.7319 60.3431V60.3608C69.7319 60.7688 69.9386 61.1058 70.3691 61.3718C70.7825 61.6379 71.3164 61.7798 71.9536 61.7798C72.5392 61.7798 73.0042 61.6556 73.3659 61.4251C73.7276 61.1767 73.917 60.8752 73.917 60.5382C73.917 60.2189 73.762 59.9706 73.452 59.811C73.142 59.6513 72.6253 59.4917 71.9192 59.3143C71.1097 59.1015 70.4725 58.8886 70.0075 58.6935C68.9052 58.3033 68.0268 57.8244 67.3724 57.2568C66.7179 56.6892 66.3907 55.8733 66.3907 54.809C66.3907 53.4965 66.8901 52.45 67.889 51.6873C68.8707 50.9246 70.1969 50.5344 71.8331 50.5344C72.9353 50.5344 73.8998 50.7117 74.7265 51.0665C75.536 51.439 76.1732 51.9533 76.6382 52.6096C77.1033 53.2659 77.3272 54.0109 77.3272 54.8445C77.3272 54.9332 77.2927 55.0042 77.241 55.0574C77.1894 55.1106 77.1033 55.146 77.0171 55.146H74.2615C74.1754 55.146 74.0893 55.1106 74.0376 55.0574C73.9859 55.0042 73.9515 54.9332 73.9515 54.8445C73.9515 54.4543 73.762 54.1173 73.3659 53.8512C72.9698 53.5852 72.4703 53.4433 71.8331 53.4433C71.2647 53.4433 70.7825 53.5497 70.4208 53.7803C70.0591 53.9931 69.8869 54.2769 69.8869 54.6494C69.8869 55.0042 70.0591 55.2702 70.4208 55.4476C70.7653 55.625 71.3508 55.8201 72.1948 56.0152C72.3842 56.0684 72.5909 56.1216 72.832 56.1748C73.0731 56.228 73.3315 56.3167 73.607 56.4054C74.8298 56.7779 75.7943 57.2568 76.5005 57.8421C77.2066 58.4274 77.5511 59.2788 77.5511 60.3963C77.5511 61.7088 77.0516 62.7376 76.0527 63.4648C75.0365 64.1921 73.6931 64.5646 71.9881 64.5646ZM81.6156 49.1686C81.0301 49.1686 80.5478 48.9735 80.1517 48.5655C79.7728 48.1753 79.5833 47.6787 79.5833 47.0756C79.5833 46.4548 79.7728 45.9404 80.1517 45.5502C80.5306 45.16 81.0128 44.9648 81.6156 44.9648C82.2184 44.9648 82.7179 45.16 83.0796 45.5502C83.4757 45.9404 83.6652 46.4548 83.6652 47.0756C83.6652 47.6787 83.4757 48.1753 83.0796 48.5655C82.6835 48.9735 82.2012 49.1686 81.6156 49.1686ZM80.0656 64.3872C79.9795 64.3872 79.9106 64.3517 79.8417 64.2985C79.79 64.2453 79.7556 64.1566 79.7556 64.0679V51.0133C79.7556 50.9246 79.79 50.8359 79.8417 50.7827C79.9106 50.7295 79.9795 50.694 80.0656 50.694H83.0796C83.1657 50.694 83.2518 50.7295 83.3035 50.7827C83.3551 50.8359 83.3896 50.9246 83.3896 51.0133V64.0679C83.3896 64.1566 83.3551 64.2453 83.3035 64.2985C83.2518 64.3517 83.1657 64.3872 83.0796 64.3872H80.0656ZM97.9945 56.1393C98.0979 56.8134 98.1323 57.5583 98.0979 58.392C98.0807 58.6226 97.9773 58.729 97.7706 58.729H89.7793C89.6759 58.729 89.6415 58.7645 89.6759 58.8531C89.7276 59.2079 89.8309 59.5626 89.9687 59.9174C90.4165 60.9107 91.3293 61.4073 92.6899 61.4073C93.7922 61.3896 94.6705 60.9284 95.3078 60.0238C95.3767 59.9174 95.4628 59.8642 95.5489 59.8642C95.6006 59.8642 95.6522 59.8996 95.7211 59.9706L97.5812 61.8507C97.6673 61.9394 97.719 62.0281 97.719 62.0991C97.719 62.1345 97.6845 62.2055 97.5984 62.3119C97.0301 63.0391 96.3067 63.6067 95.4111 63.997C94.5155 64.4049 93.5338 64.6 92.466 64.6C90.9848 64.6 89.7276 64.263 88.7114 63.5713C87.6953 62.8795 86.9547 61.904 86.4897 60.6623C86.128 59.7755 85.9558 58.6226 85.9558 57.1858C85.9558 56.2103 86.0936 55.3412 86.3519 54.5962C86.748 53.3368 87.437 52.3436 88.4187 51.5986C89.4176 50.8536 90.5887 50.4811 91.9493 50.4811C93.6716 50.4811 95.0494 50.9955 96.1 52.0243C97.1506 53.053 97.7706 54.4188 97.9945 56.1393ZM91.9666 53.7271C90.8815 53.7271 90.1754 54.2414 89.8309 55.2879C89.762 55.5185 89.7104 55.8023 89.6587 56.1393C89.6587 56.228 89.6931 56.2635 89.7793 56.2635H94.2572C94.3433 56.2635 94.3777 56.228 94.3433 56.1393C94.2572 55.625 94.2227 55.3766 94.2227 55.3944C94.0677 54.8623 93.7922 54.4543 93.4133 54.1528C93.0171 53.869 92.5349 53.7271 91.9666 53.7271ZM105.469 64.5646C104.315 64.5646 103.299 64.4049 102.438 64.0679C101.577 63.7309 100.905 63.2697 100.44 62.6667C99.9752 62.0636 99.734 61.3718 99.734 60.6091V60.3431C99.734 60.2544 99.7685 60.1834 99.8202 60.1125C99.8718 60.0593 99.9579 60.0238 100.044 60.0238H102.903C102.989 60.0238 103.075 60.0593 103.127 60.1125C103.179 60.1834 103.213 60.2544 103.213 60.3431V60.3608C103.213 60.7688 103.42 61.1058 103.85 61.3718C104.281 61.6379 104.798 61.7798 105.435 61.7798C106.02 61.7798 106.503 61.6556 106.864 61.4251C107.226 61.1767 107.398 60.8752 107.398 60.5382C107.398 60.2189 107.243 59.9706 106.933 59.811C106.623 59.6513 106.124 59.4917 105.418 59.3143C104.608 59.1015 103.971 58.8886 103.506 58.6935C102.404 58.3033 101.525 57.8244 100.871 57.2568C100.216 56.6892 99.8891 55.8733 99.8891 54.809C99.8891 53.4965 100.389 52.45 101.37 51.6873C102.352 50.9246 103.678 50.5344 105.314 50.5344C106.417 50.5344 107.381 50.7117 108.208 51.0665C109.034 51.439 109.672 51.9533 110.119 52.6096C110.584 53.2659 110.808 54.0109 110.808 54.8445C110.808 54.9332 110.774 55.0042 110.722 55.0574C110.671 55.1106 110.584 55.146 110.498 55.146H107.743C107.657 55.146 107.57 55.1106 107.519 55.0574C107.467 55.0042 107.433 54.9332 107.433 54.8445C107.433 54.4543 107.243 54.1173 106.847 53.8512C106.451 53.5852 105.951 53.4433 105.314 53.4433C104.746 53.4433 104.281 53.5497 103.919 53.7803C103.558 53.9931 103.368 54.2769 103.368 54.6494C103.368 55.0042 103.54 55.2702 103.902 55.4476C104.264 55.625 104.849 55.8201 105.676 56.0152C105.865 56.0684 106.072 56.1216 106.313 56.1748C106.554 56.228 106.813 56.3167 107.088 56.4054C108.311 56.7779 109.275 57.2568 109.982 57.8421C110.688 58.4274 111.049 59.2788 111.049 60.3963C111.049 61.7088 110.55 62.7376 109.534 63.4648C108.518 64.1921 107.174 64.5646 105.469 64.5646ZM120.729 53.4078C120.729 53.4965 120.694 53.5674 120.643 53.6206C120.591 53.6916 120.505 53.7271 120.419 53.7271H117.939C117.852 53.7271 117.818 53.7625 117.818 53.8512V59.4917C117.818 60.077 117.939 60.5027 118.162 60.8042C118.386 61.088 118.765 61.2299 119.282 61.2299H120.143C120.229 61.2299 120.298 61.2654 120.35 61.3186C120.419 61.3718 120.453 61.4605 120.453 61.5492V64.0679C120.453 64.263 120.35 64.3872 120.143 64.4049C119.42 64.4404 118.903 64.4581 118.593 64.4581C117.164 64.4581 116.096 64.2098 115.39 63.7309C114.683 63.252 114.322 62.3297 114.305 60.9816V53.8512C114.305 53.7625 114.253 53.7271 114.167 53.7271H112.703C112.617 53.7271 112.531 53.6916 112.479 53.6206C112.427 53.5674 112.393 53.4965 112.393 53.4078V51.031C112.393 50.9423 112.427 50.8714 112.479 50.8004C112.531 50.7472 112.617 50.7117 112.703 50.7117H114.167C114.253 50.7117 114.305 50.6585 114.305 50.5698V47.4126C114.305 47.3239 114.339 47.253 114.391 47.182C114.442 47.1288 114.528 47.0933 114.615 47.0933H117.508C117.594 47.0933 117.663 47.1288 117.715 47.182C117.784 47.253 117.818 47.3239 117.818 47.4126V50.5698C117.818 50.6585 117.852 50.7117 117.939 50.7117H120.419C120.505 50.7117 120.591 50.7472 120.643 50.8004C120.694 50.8714 120.729 50.9423 120.729 51.031V53.4078V53.4078Z" fill="#252530"></path><path d="M53.0413 118.309C52.9208 118.309 52.8347 118.255 52.8002 118.131L49.6657 106.123L49.6484 106.052C49.6484 105.946 49.7173 105.893 49.8379 105.893H51.5257C51.6463 105.893 51.7324 105.946 51.7668 106.07L53.7302 114.158C53.7475 114.194 53.7647 114.211 53.7819 114.211C53.7991 114.211 53.8164 114.194 53.8336 114.158L55.7109 106.07C55.7453 105.946 55.8142 105.893 55.9348 105.893H57.5882C57.7087 105.893 57.7948 105.946 57.8293 106.07L59.8271 114.176C59.8444 114.211 59.8616 114.229 59.8788 114.229C59.896 114.229 59.9132 114.211 59.9305 114.176L61.8594 106.07C61.8939 105.946 61.98 105.893 62.1005 105.893H63.7023C63.8573 105.893 63.9262 105.964 63.8917 106.123L60.9122 118.131C60.8777 118.255 60.7916 118.309 60.671 118.309H59.0693C58.9488 118.309 58.8626 118.255 58.8282 118.131L56.8131 109.671C56.7959 109.635 56.7787 109.617 56.7615 109.6C56.7442 109.6 56.727 109.617 56.7098 109.671L54.7808 118.131C54.7464 118.255 54.6775 118.309 54.5569 118.309C54.5569 118.309 53.0413 118.309 53.0413 118.309ZM65.8034 118.309C65.7518 118.309 65.7001 118.291 65.6484 118.238C65.614 118.202 65.5968 118.149 65.5968 118.096V106.105C65.5968 106.052 65.614 105.999 65.6484 105.964C65.7001 105.91 65.7518 105.893 65.8034 105.893H67.3879C67.4396 105.893 67.4913 105.91 67.5257 105.964C67.5774 105.999 67.5946 106.052 67.5946 106.105V118.096C67.5946 118.149 67.5774 118.202 67.5257 118.238C67.4913 118.291 67.4396 118.309 67.3879 118.309H65.8034ZM77.1188 106.105C77.1188 106.052 77.1361 105.999 77.1705 105.964C77.2222 105.91 77.2739 105.893 77.3255 105.893H78.91C78.9617 105.893 79.0134 105.91 79.0478 105.964C79.0995 105.999 79.1167 106.052 79.1167 106.105V118.096C79.1167 118.149 79.0995 118.202 79.0478 118.238C79.0134 118.291 78.9617 118.309 78.91 118.309H77.3772C77.2566 118.309 77.1877 118.255 77.1361 118.167L72.1759 109.795C72.1587 109.759 72.1242 109.742 72.107 109.742C72.0898 109.759 72.0726 109.777 72.0726 109.83L72.107 118.096C72.107 118.149 72.0898 118.202 72.0381 118.238C72.0037 118.291 71.952 118.309 71.9003 118.309H70.3158C70.2642 118.309 70.2125 118.291 70.1608 118.238C70.1264 118.202 70.1092 118.149 70.1092 118.096V106.105C70.1092 106.052 70.1264 105.999 70.1608 105.964C70.2125 105.91 70.2642 105.893 70.3158 105.893H71.8487C71.9692 105.893 72.0381 105.946 72.0898 106.034L77.0327 114.406C77.0499 114.442 77.0844 114.46 77.1016 114.442C77.1188 114.442 77.1361 114.424 77.1361 114.371C77.1361 114.371 77.1188 106.105 77.1188 106.105ZM89.5537 105.893C89.6054 105.893 89.6571 105.91 89.6915 105.964C89.7432 105.999 89.7604 106.052 89.7604 106.105V107.471C89.7604 107.524 89.7432 107.578 89.6915 107.613C89.6571 107.666 89.6054 107.684 89.5537 107.684H86.3847C86.3331 107.684 86.2986 107.72 86.2986 107.773V118.096C86.2986 118.149 86.2814 118.202 86.2469 118.238C86.1953 118.291 86.1436 118.309 86.0919 118.309H84.5074C84.4558 118.309 84.4041 118.291 84.3697 118.238C84.318 118.202 84.3008 118.149 84.3008 118.096V107.773C84.3008 107.72 84.2663 107.684 84.2146 107.684H81.1662C81.1145 107.684 81.0629 107.666 81.0112 107.613C80.9768 107.578 80.9595 107.524 80.9595 107.471V106.105C80.9595 106.052 80.9768 105.999 81.0112 105.964C81.0629 105.91 81.1145 105.893 81.1662 105.893H89.5537ZM99.7669 107.453C99.7669 107.507 99.7496 107.56 99.698 107.595C99.6635 107.649 99.6119 107.666 99.5602 107.666H93.6872C93.6355 107.666 93.6011 107.702 93.6011 107.755V111.072C93.6011 111.125 93.6355 111.161 93.6872 111.161H97.6312C97.6829 111.161 97.7346 111.178 97.7862 111.214C97.8207 111.267 97.8379 111.32 97.8379 111.373V112.721C97.8379 112.775 97.8207 112.828 97.7862 112.881C97.7346 112.917 97.6829 112.934 97.6312 112.934H93.6872C93.6355 112.934 93.6011 112.97 93.6011 113.023V116.446C93.6011 116.499 93.6355 116.535 93.6872 116.535H99.5602C99.6119 116.535 99.6635 116.553 99.698 116.606C99.7496 116.641 99.7669 116.695 99.7669 116.748V118.096C99.7669 118.149 99.7496 118.202 99.698 118.238C99.6635 118.291 99.6119 118.309 99.5602 118.309H91.8099C91.7582 118.309 91.7066 118.291 91.6549 118.238C91.6205 118.202 91.6032 118.149 91.6032 118.096V106.105C91.6032 106.052 91.6205 105.999 91.6549 105.964C91.7066 105.91 91.7582 105.893 91.8099 105.893H99.5602C99.6119 105.893 99.6635 105.91 99.698 105.964C99.7496 105.999 99.7669 106.052 99.7669 106.105V107.453ZM108.568 118.309C108.447 118.309 108.378 118.255 108.327 118.149L106.053 113.041C106.036 112.987 106.002 112.97 105.95 112.97H103.883C103.831 112.97 103.797 113.005 103.797 113.058V118.096C103.797 118.149 103.78 118.202 103.728 118.238C103.694 118.291 103.642 118.309 103.59 118.309H102.006C101.954 118.309 101.902 118.291 101.851 118.238C101.816 118.202 101.799 118.149 101.799 118.096V106.105C101.799 106.052 101.816 105.999 101.851 105.964C101.902 105.91 101.954 105.893 102.006 105.893H106.742C107.448 105.893 108.068 106.034 108.602 106.336C109.136 106.638 109.567 107.063 109.859 107.613C110.152 108.163 110.307 108.801 110.307 109.511C110.307 110.327 110.101 111.019 109.687 111.586C109.291 112.172 108.723 112.562 107.999 112.792C107.982 112.792 107.965 112.81 107.948 112.828C107.93 112.846 107.93 112.881 107.948 112.899L110.376 118.06C110.393 118.114 110.411 118.149 110.411 118.167C110.411 118.255 110.342 118.309 110.221 118.309H108.568ZM103.883 107.666C103.831 107.666 103.797 107.702 103.797 107.755V111.285C103.797 111.338 103.831 111.373 103.883 111.373H106.467C107.018 111.373 107.465 111.196 107.81 110.859C108.137 110.522 108.309 110.079 108.309 109.529C108.309 108.979 108.137 108.518 107.81 108.181C107.465 107.844 107.018 107.666 106.467 107.666H103.883Z" fill="#242530"></path><path d="M57.477 150.341C57.4426 150.377 57.4254 150.412 57.4426 150.448C57.4598 150.483 57.4943 150.501 57.5459 150.501H64.3145C64.4006 150.501 64.4695 150.536 64.5212 150.59C64.5901 150.643 64.6245 150.714 64.6245 150.802V153.303C64.6245 153.392 64.5901 153.463 64.5212 153.516C64.4695 153.569 64.4006 153.605 64.3145 153.605H53.0852C52.9991 153.605 52.913 153.569 52.8613 153.516C52.8097 153.463 52.7752 153.392 52.7752 153.303V150.927C52.7752 150.767 52.8269 150.643 52.9302 150.536C53.7397 149.72 54.5836 148.834 55.4275 147.858C56.2714 146.882 56.8054 146.279 57.0292 146.049C57.4943 145.481 57.9593 144.931 58.4415 144.417C59.9571 142.696 60.7149 141.402 60.7149 140.568C60.7149 139.965 60.5083 139.468 60.0949 139.078C59.6816 138.706 59.1477 138.51 58.476 138.51C57.8043 138.51 57.2704 138.706 56.857 139.078C56.4264 139.468 56.2198 139.983 56.2198 140.621V141.26C56.2198 141.348 56.1853 141.419 56.1337 141.473C56.082 141.526 56.0131 141.561 55.927 141.561H52.9819C52.8958 141.561 52.8269 141.526 52.7752 141.473C52.7063 141.419 52.6719 141.348 52.6719 141.26V140.054C52.7235 139.131 53.0163 138.315 53.533 137.588C54.0497 136.879 54.7386 136.329 55.5825 135.956C56.4437 135.584 57.4082 135.389 58.476 135.389C59.6643 135.389 60.6805 135.619 61.5589 136.08C62.4372 136.524 63.1089 137.145 63.5739 137.907C64.0562 138.688 64.2973 139.539 64.2973 140.479C64.2973 141.206 64.1251 141.934 63.7634 142.696C63.4189 143.459 62.9022 144.275 62.1961 145.144C61.6794 145.8 61.1283 146.474 60.5255 147.131C59.9227 147.787 59.0443 148.727 57.8559 149.951L57.477 150.341ZM72.7365 153.889C70.8936 153.889 69.4469 153.357 68.3963 152.31C67.3285 151.264 66.7946 149.827 66.7946 148V141.207C66.7946 139.415 67.3285 138.014 68.3963 136.967C69.4469 135.921 70.8936 135.389 72.7365 135.389C74.5621 135.389 76.0088 135.921 77.0938 136.967C78.1616 138.014 78.6956 139.415 78.6956 141.207V148C78.6956 149.827 78.1616 151.264 77.0938 152.31C76.0088 153.357 74.5621 153.889 72.7365 153.889ZM72.7365 150.785C73.477 150.785 74.0798 150.554 74.5104 150.075C74.9582 149.596 75.1821 148.975 75.1821 148.177V141.1C75.1821 140.32 74.9582 139.699 74.5104 139.22C74.0798 138.741 73.477 138.51 72.7365 138.51C71.9959 138.51 71.4103 138.741 70.9797 139.22C70.5319 139.699 70.308 140.32 70.308 141.1V148.177C70.308 148.975 70.5319 149.596 70.9797 150.075C71.4103 150.554 71.9959 150.785 72.7365 150.785ZM85.688 150.341C85.6536 150.377 85.6536 150.412 85.6708 150.448C85.688 150.483 85.7225 150.501 85.7741 150.501H92.5427C92.6288 150.501 92.6977 150.536 92.7494 150.59C92.801 150.643 92.8355 150.714 92.8355 150.802V153.303C92.8355 153.392 92.801 153.463 92.7494 153.516C92.6977 153.569 92.6288 153.605 92.5427 153.605H81.2962C81.2101 153.605 81.1412 153.569 81.0895 153.516C81.0379 153.463 81.0034 153.392 81.0034 153.303V150.927C81.0034 150.767 81.0551 150.643 81.1412 150.536C81.9679 149.72 82.7946 148.834 83.6385 147.858C84.4824 146.882 85.0163 146.279 85.2402 146.049C85.7052 145.481 86.1875 144.931 86.6697 144.417C88.1853 142.696 88.9431 141.402 88.9431 140.568C88.9431 139.965 88.7365 139.468 88.3231 139.078C87.8925 138.706 87.3586 138.51 86.6869 138.51C86.0153 138.51 85.4813 138.706 85.068 139.078C84.6546 139.468 84.448 139.983 84.448 140.621V141.26C84.448 141.348 84.4135 141.419 84.3619 141.473C84.3102 141.526 84.2241 141.561 84.138 141.561H81.1929C81.1067 141.561 81.0379 141.526 80.9862 141.473C80.9345 141.419 80.9001 141.348 80.9001 141.26V140.054C80.9517 139.131 81.2273 138.315 81.744 137.588C82.2607 136.879 82.9496 136.329 83.8107 135.956C84.6719 135.584 85.6364 135.389 86.6869 135.389C87.8753 135.389 88.8915 135.619 89.7698 136.08C90.6482 136.524 91.3371 137.145 91.8021 137.907C92.2671 138.688 92.5083 139.539 92.5083 140.479C92.5083 141.206 92.336 141.934 91.9916 142.696C91.6299 143.459 91.1132 144.275 90.4071 145.144C89.8904 145.8 89.3393 146.474 88.7365 147.131C88.1337 147.787 87.2553 148.727 86.0669 149.951L85.688 150.341ZM99.6729 150.341C99.6385 150.377 99.6385 150.412 99.6557 150.448C99.673 150.483 99.7074 150.501 99.7591 150.501H106.528C106.614 150.501 106.683 150.536 106.734 150.59C106.786 150.643 106.82 150.714 106.82 150.802V153.303C106.82 153.392 106.786 153.463 106.734 153.516C106.683 153.569 106.614 153.605 106.528 153.605H95.2811C95.195 153.605 95.1261 153.569 95.0745 153.516C95.0228 153.463 94.9883 153.392 94.9883 153.303V150.927C94.9883 150.767 95.04 150.643 95.1261 150.536C95.9528 149.72 96.7795 148.834 97.6234 147.858C98.4674 146.882 99.0013 146.279 99.2252 146.049C99.6902 145.481 100.172 144.931 100.655 144.417C102.17 142.696 102.928 141.402 102.928 140.568C102.928 139.965 102.721 139.468 102.308 139.078C101.877 138.706 101.344 138.51 100.672 138.51C100 138.51 99.4663 138.706 99.0529 139.078C98.6396 139.468 98.4329 139.983 98.4329 140.621V141.26C98.4329 141.348 98.3985 141.419 98.3468 141.473C98.2951 141.526 98.209 141.561 98.1229 141.561H95.1778C95.0917 141.561 95.0228 141.526 94.9711 141.473C94.9194 141.419 94.885 141.348 94.885 141.26V140.054C94.9367 139.131 95.2122 138.315 95.7289 137.588C96.2456 136.879 96.9345 136.329 97.7957 135.956C98.6568 135.584 99.6213 135.389 100.672 135.389C101.86 135.389 102.876 135.619 103.755 136.08C104.633 136.524 105.322 137.145 105.787 137.907C106.252 138.688 106.493 139.539 106.493 140.479C106.493 141.206 106.321 141.934 105.976 142.696C105.615 143.459 105.098 144.275 104.392 145.144C103.875 145.8 103.324 146.474 102.721 147.131C102.119 147.787 101.24 148.727 100.052 149.951L99.6729 150.341Z" fill="#252530"></path></svg>