<svg xmlns="http://www.w3.org/2000/svg" width="160" height="185" viewBox="0 0 160 185" fill="none"><path d="M13.2617 144.025L81.2919 179.677L146.739 144.025V4.61035H13.2617V144.025Z" fill="white"></path><path d="M148.117 5.14355L11.8848 146.51L82.4983 182.517L148.117 147.929V5.14355Z" fill="#F2F3F2"></path><path d="M8.7832 51.0834V147.042L11.1944 148.284L79.2245 183.936L81.2913 185L83.358 183.936L148.977 148.284L151.388 147.042V0H8.7832V51.0834ZM13.2611 144.382V4.6117H146.91V144.382L81.2913 180.034L13.2611 144.382Z" fill="#DCDEDC"></path><path d="M80.0861 6.91755C80.775 6.91755 81.4639 6.91755 82.1528 7.09492L80.0861 11.1745C76.986 10.9971 74.2304 13.4803 74.0581 16.6731C73.8859 19.8658 76.2971 22.7037 79.3972 22.8811H80.0861C81.4639 22.8811 82.8418 22.349 83.8751 21.4621L86.1141 25.3643C84.3918 26.6059 82.3251 27.3154 80.0861 27.3154C74.5748 27.4928 69.9247 23.2359 69.7524 17.5599C69.5802 11.884 73.7137 7.09492 79.225 6.91755H80.0861V6.91755ZM87.1475 15.6088L89.7309 20.0431L87.1475 24.3001L84.7363 20.0431H79.7417L82.3251 15.6088H87.1475ZM83.014 14.0125C83.014 13.303 83.1862 12.5935 83.5307 12.0614C83.8751 11.5292 84.564 10.9971 85.0807 10.6424L85.4252 10.465C86.1141 10.1103 86.2863 9.93289 86.2863 9.57814C86.2863 9.2234 85.7696 8.86865 85.4252 8.86865C84.7363 8.86865 84.2196 9.2234 83.8751 9.93289L83.014 9.04602C83.1862 8.69128 83.5307 8.33653 83.8751 7.98178C84.3918 7.62704 84.9085 7.62704 85.4252 7.62704C85.9419 7.62704 86.6308 7.80441 86.9752 8.15916C87.3197 8.5139 87.6642 9.04602 87.6642 9.57814C87.6642 10.465 87.1475 11.1745 86.1141 11.5292L85.5974 11.884C85.0807 12.2387 84.7363 12.4161 84.564 12.9482H87.6642V14.1898L83.014 14.0125V14.0125ZM80.0861 36.1841L96.4478 26.6059V0H63.5522V26.4286L80.0861 36.1841ZM154.661 98.9741H5.5113L0 111.39L5.5113 123.806H154.661L160 111.39L154.661 98.9741Z" fill="#FF492C"></path><path d="M32.1898 90.9925C32.0865 90.9925 32.0004 90.9571 31.9315 90.8861C31.8626 90.8033 31.8281 90.7087 31.8281 90.6023V69.0338C31.8281 68.9273 31.8626 68.8327 31.9315 68.75C32.0004 68.679 32.0865 68.6436 32.1898 68.6436H35.8238C35.9272 68.6436 36.0133 68.679 36.0822 68.75C36.1625 68.8327 36.2027 68.9273 36.2027 69.0338V86.9662C36.2027 87.0726 36.2544 87.1258 36.3577 87.1258H46.4847C46.5881 87.1258 46.6799 87.1613 46.7603 87.2322C46.8292 87.315 46.8636 87.4096 46.8636 87.516V90.6023C46.8636 90.7087 46.8292 90.8033 46.7603 90.8861C46.6799 90.9571 46.5881 90.9925 46.4847 90.9925H32.1898V90.9925ZM63.3803 81.0951C63.5066 81.8992 63.5468 82.8038 63.5009 83.8089C63.4894 84.0691 63.3574 84.1992 63.1048 84.1992H53.5289C53.4026 84.1992 53.3624 84.2524 53.4083 84.3588C53.4657 84.7845 53.5748 85.2102 53.7356 85.6359C54.2752 86.8184 55.3717 87.4096 57.0251 87.4096C58.3455 87.3978 59.3904 86.8479 60.1597 85.76C60.24 85.63 60.3319 85.5649 60.4352 85.5649C60.5041 85.5649 60.5788 85.6063 60.6591 85.6891L62.8809 87.9595C62.9842 88.0659 63.0359 88.1605 63.0359 88.2433C63.0359 88.2906 62.9957 88.3792 62.9153 88.5093C62.2379 89.3725 61.3595 90.0466 60.2802 90.5314C59.2124 91.0044 58.0355 91.2409 56.7495 91.2409C54.9699 91.2409 53.4657 90.827 52.2372 89.9993C51.0086 89.1715 50.1245 88.0127 49.5849 86.5227C49.1485 85.4585 48.9304 84.0632 48.9304 82.3367C48.9304 81.1661 49.0854 80.1373 49.3954 79.2505C49.8776 77.7369 50.7101 76.5307 51.8927 75.632C53.0868 74.7452 54.4991 74.3017 56.1295 74.3017C58.1963 74.3017 59.8554 74.9166 61.1069 76.1464C62.3584 77.3762 63.1163 79.0258 63.3803 81.0951V81.0951ZM56.164 78.1862C54.855 78.1862 53.9939 78.8129 53.5805 80.0664C53.5002 80.3502 53.4313 80.6931 53.3739 81.0951C53.3739 81.2016 53.4255 81.2548 53.5289 81.2548H58.8852C59.0115 81.2548 59.0517 81.2016 59.0057 81.0951C58.9024 80.4802 58.8507 80.1846 58.8507 80.2083C58.667 79.5697 58.3455 79.0731 57.8863 78.7183C57.4155 78.3636 56.8414 78.1862 56.164 78.1862V78.1862ZM72.4051 74.3195C73.7485 74.3195 74.9483 74.5619 76.0047 75.0467C77.061 75.5197 77.8819 76.176 78.4675 77.0156C79.0531 77.8433 79.3459 78.7656 79.3459 79.7826V90.6023C79.3459 90.7087 79.3114 90.8033 79.2426 90.8861C79.1737 90.9571 79.0875 90.9925 78.9842 90.9925H75.3502C75.2469 90.9925 75.1607 90.9571 75.0919 90.8861C75.0115 90.8033 74.9713 90.7087 74.9713 90.6023V89.5558C74.9713 89.4967 74.9541 89.4553 74.9196 89.4317C74.8737 89.408 74.8335 89.4258 74.7991 89.4849C73.9264 90.6555 72.5314 91.2409 70.6139 91.2409C68.995 91.2409 67.6918 90.8388 66.7043 90.0347C65.7054 89.2306 65.2059 88.0363 65.2059 86.4518C65.2059 84.82 65.7686 83.5488 66.8938 82.6383C68.0075 81.7396 69.5978 81.2902 71.6645 81.2902H74.8163C74.9196 81.2902 74.9713 81.237 74.9713 81.1306V80.4211C74.9713 79.7235 74.7646 79.1736 74.3513 78.7715C73.9379 78.3813 73.3179 78.1862 72.4912 78.1862C71.8597 78.1862 71.3315 78.3045 70.9067 78.541C70.4819 78.7775 70.2063 79.1086 70.08 79.5343C70.0226 79.7708 69.8906 79.8772 69.6839 79.8535L65.9293 79.3391C65.6767 79.2918 65.5619 79.1972 65.5849 79.0553C65.6652 78.1567 66.0097 77.3467 66.6182 76.6253C67.2268 75.904 68.0362 75.3423 69.0466 74.9403C70.0456 74.5264 71.165 74.3195 72.4051 74.3195V74.3195ZM71.7851 87.8885C72.6692 87.8885 73.4212 87.6461 74.0413 87.1613C74.6613 86.6765 74.9713 86.0497 74.9713 85.2811V84.1282C74.9713 84.0218 74.9196 83.9686 74.8163 83.9686H72.5945C71.6645 83.9686 70.9354 84.1519 70.4072 84.5184C69.8791 84.8732 69.615 85.3816 69.615 86.0438C69.615 86.6233 69.8102 87.0726 70.2006 87.3919C70.591 87.723 71.1191 87.8885 71.7851 87.8885ZM92.3147 69.0338C92.3147 68.9273 92.3491 68.8327 92.418 68.75C92.4869 68.679 92.573 68.6436 92.6764 68.6436H96.3104C96.4137 68.6436 96.4998 68.679 96.5687 68.75C96.6376 68.8327 96.672 68.9273 96.672 69.0338V90.6023C96.672 90.7087 96.6376 90.8033 96.5687 90.8861C96.4998 90.9571 96.4137 90.9925 96.3104 90.9925H92.6764C92.573 90.9925 92.4869 90.9571 92.418 90.8861C92.3491 90.8033 92.3147 90.7087 92.3147 90.6023V89.5558C92.3147 89.4967 92.2917 89.4612 92.2458 89.4494C92.1999 89.4376 92.1597 89.4494 92.1252 89.4849C91.2526 90.6555 90.0642 91.2409 88.5601 91.2409C87.1134 91.2409 85.8676 90.827 84.8227 89.9993C83.7779 89.1715 83.0258 88.0363 82.5666 86.5937C82.2221 85.4822 82.0499 84.1932 82.0499 82.727C82.0499 81.2134 82.2336 79.8949 82.601 78.7715C83.0832 77.3999 83.8353 76.3179 84.8572 75.5256C85.8791 74.7215 87.1421 74.3195 88.6462 74.3195C90.1389 74.3195 91.2985 74.8516 92.1252 75.9158C92.1597 75.9868 92.1999 76.0104 92.2458 75.9868C92.2917 75.9631 92.3147 75.9218 92.3147 75.8626V69.0338V69.0338ZM91.6602 86.0084C92.0735 85.2279 92.2802 84.1519 92.2802 82.7802C92.2802 81.3612 92.0506 80.2437 91.5913 79.4278C91.1206 78.6001 90.4316 78.1862 89.5246 78.1862C88.5486 78.1862 87.8138 78.6001 87.3201 79.4278C86.8034 80.2674 86.545 81.3967 86.545 82.8157C86.545 84.0927 86.7632 85.157 87.1995 86.0084C87.7162 86.9307 88.4797 87.3919 89.4901 87.3919C90.4202 87.3919 91.1435 86.9307 91.6602 86.0084V86.0084ZM114.067 81.0951C114.193 81.8992 114.234 82.8038 114.188 83.8089C114.176 84.0691 114.044 84.1992 113.792 84.1992H104.216C104.089 84.1992 104.049 84.2524 104.095 84.3588C104.152 84.7845 104.262 85.2102 104.422 85.6359C104.962 86.8184 106.058 87.4096 107.712 87.4096C109.032 87.3978 110.077 86.8479 110.846 85.76C110.927 85.63 111.019 85.5649 111.122 85.5649C111.191 85.5649 111.266 85.6063 111.346 85.6891L113.568 87.9595C113.671 88.0659 113.723 88.1605 113.723 88.2433C113.723 88.2906 113.682 88.3792 113.602 88.5093C112.925 89.3725 112.046 90.0466 110.967 90.5314C109.899 91.0044 108.722 91.2409 107.436 91.2409C105.657 91.2409 104.152 90.827 102.924 89.9993C101.695 89.1715 100.811 88.0127 100.272 86.5227C99.8353 85.4585 99.6171 84.0632 99.6171 82.3367C99.6171 81.1661 99.7721 80.1373 100.082 79.2505C100.564 77.7369 101.397 76.5307 102.579 75.632C103.774 74.7452 105.186 74.3017 106.816 74.3017C108.883 74.3017 110.542 74.9166 111.794 76.1464C113.045 77.3762 113.803 79.0258 114.067 81.0951V81.0951ZM106.851 78.1862C105.542 78.1862 104.681 78.8129 104.267 80.0664C104.187 80.3502 104.118 80.6931 104.061 81.0951C104.061 81.2016 104.112 81.2548 104.216 81.2548H109.572C109.698 81.2548 109.738 81.2016 109.692 81.0951C109.589 80.4802 109.537 80.1846 109.537 80.2083C109.354 79.5697 109.032 79.0731 108.573 78.7183C108.102 78.3636 107.528 78.1862 106.851 78.1862ZM124.831 74.355C125.578 74.355 126.163 74.5028 126.588 74.7984C126.76 74.893 126.823 75.0526 126.778 75.2773L126.123 78.9312C126.112 79.1795 125.968 79.2505 125.692 79.144C125.382 79.0376 125.021 78.9844 124.607 78.9844C124.447 78.9844 124.223 79.008 123.936 79.0553C123.189 79.1145 122.558 79.3924 122.041 79.889C121.525 80.3975 121.266 81.0656 121.266 81.8933V90.6023C121.266 90.7087 121.232 90.8033 121.163 90.8861C121.083 90.9571 120.991 90.9925 120.887 90.9925H117.271C117.167 90.9925 117.075 90.9571 116.995 90.8861C116.926 90.8033 116.892 90.7087 116.892 90.6023V74.958C116.892 74.8516 116.926 74.7629 116.995 74.692C117.075 74.621 117.167 74.5855 117.271 74.5855H120.887C120.991 74.5855 121.083 74.621 121.163 74.692C121.232 74.7629 121.266 74.8516 121.266 74.958V76.1819C121.266 76.241 121.283 76.2824 121.318 76.3061C121.364 76.3297 121.398 76.3179 121.421 76.2706C122.271 74.9935 123.408 74.355 124.831 74.355V74.355Z" fill="#252530"></path><path d="M56.3872 118.45C55.4916 118.45 54.7108 118.302 54.0449 118.006C53.379 117.711 52.8623 117.297 52.4948 116.765C52.1389 116.233 51.9609 115.606 51.9609 114.885V114.441C51.9609 114.382 51.9839 114.329 52.0298 114.282C52.0643 114.246 52.1102 114.228 52.1676 114.228H53.7004C53.7579 114.228 53.8095 114.246 53.8554 114.282C53.8899 114.329 53.9071 114.382 53.9071 114.441V114.778C53.9071 115.322 54.1425 115.772 54.6133 116.126C55.084 116.493 55.727 116.676 56.5422 116.676C57.2426 116.676 57.7708 116.522 58.1267 116.215C58.4826 115.908 58.6606 115.511 58.6606 115.027C58.6606 114.696 58.563 114.412 58.3678 114.175C58.1726 113.951 57.8971 113.744 57.5411 113.554C57.1737 113.365 56.6283 113.129 55.905 112.845C55.0898 112.537 54.4295 112.248 53.9243 111.976C53.4191 111.704 53 111.331 52.6671 110.858C52.3226 110.397 52.1504 109.818 52.1504 109.12C52.1504 108.08 52.5178 107.258 53.2526 106.655C53.9875 106.052 54.9692 105.75 56.1978 105.75C57.0589 105.75 57.8224 105.904 58.4884 106.211C59.1429 106.519 59.6538 106.95 60.0212 107.506C60.3886 108.05 60.5723 108.683 60.5723 109.404V109.705C60.5723 109.765 60.5494 109.818 60.5035 109.865C60.469 109.901 60.4231 109.918 60.3657 109.918H58.8156C58.7582 109.918 58.7123 109.901 58.6778 109.865C58.6319 109.818 58.6089 109.765 58.6089 109.705V109.51C58.6089 108.955 58.3908 108.487 57.9545 108.109C57.5067 107.719 56.8924 107.524 56.1116 107.524C55.4801 107.524 54.9922 107.66 54.6477 107.932C54.2918 108.204 54.1138 108.588 54.1138 109.085C54.1138 109.439 54.2056 109.729 54.3894 109.954C54.5731 110.178 54.8486 110.379 55.216 110.557C55.5835 110.746 56.1518 110.983 56.9211 111.266C57.7363 111.586 58.3908 111.875 58.8845 112.135C59.3668 112.396 59.7858 112.756 60.1418 113.217C60.4862 113.69 60.6585 114.276 60.6585 114.973C60.6585 116.038 60.2738 116.883 59.5045 117.51C58.7467 118.137 57.7076 118.45 56.3872 118.45V118.45ZM67.5131 105.874C68.2365 105.874 68.8737 106.028 69.4249 106.335C69.976 106.643 70.4008 107.074 70.6994 107.63C71.0094 108.198 71.1644 108.848 71.1644 109.581C71.1644 110.303 71.0094 110.941 70.6994 111.497C70.3894 112.053 69.953 112.478 69.3904 112.774C68.8163 113.081 68.1561 113.235 67.4098 113.235H64.6542C64.5967 113.235 64.568 113.265 64.568 113.324V118.095C64.568 118.154 64.5508 118.202 64.5164 118.237C64.4704 118.284 64.4188 118.308 64.3614 118.308H62.7769C62.7195 118.308 62.6735 118.284 62.6391 118.237C62.5932 118.202 62.5702 118.154 62.5702 118.095V106.087C62.5702 106.028 62.5932 105.975 62.6391 105.927C62.6735 105.892 62.7195 105.874 62.7769 105.874H67.5131ZM67.2204 111.568C67.8059 111.568 68.2767 111.39 68.6326 111.036C68.9886 110.681 69.1665 110.214 69.1665 109.634C69.1665 109.043 68.9886 108.564 68.6326 108.198C68.2767 107.831 67.8059 107.648 67.2204 107.648H64.6542C64.5967 107.648 64.568 107.677 64.568 107.737V111.479C64.568 111.538 64.5967 111.568 64.6542 111.568H67.2204V111.568ZM79.6897 118.308C79.5749 118.308 79.4945 118.255 79.4486 118.148L77.1751 113.04C77.1522 112.993 77.1177 112.969 77.0718 112.969H75.0051C74.9477 112.969 74.919 112.999 74.919 113.058V118.095C74.919 118.154 74.896 118.202 74.8501 118.237C74.8156 118.284 74.7697 118.308 74.7123 118.308H73.1278C73.0704 118.308 73.0244 118.284 72.99 118.237C72.9441 118.202 72.9211 118.154 72.9211 118.095V106.105C72.9211 106.046 72.9441 105.998 72.99 105.963C73.0244 105.916 73.0704 105.892 73.1278 105.892H77.8641C78.5645 105.892 79.1845 106.04 79.7241 106.335C80.2638 106.643 80.6829 107.068 80.9814 107.612C81.2799 108.168 81.4292 108.801 81.4292 109.51C81.4292 110.326 81.2283 111.018 80.8264 111.586C80.413 112.165 79.8447 112.567 79.1213 112.792C79.0984 112.792 79.0811 112.804 79.0697 112.827C79.0582 112.851 79.0582 112.874 79.0697 112.898L81.4981 118.06C81.521 118.107 81.5325 118.142 81.5325 118.166C81.5325 118.261 81.4694 118.308 81.3431 118.308H79.6897V118.308ZM75.0051 107.666C74.9477 107.666 74.919 107.695 74.919 107.754V111.284C74.919 111.343 74.9477 111.373 75.0051 111.373H77.5885C78.1396 111.373 78.5817 111.201 78.9147 110.858C79.2591 110.527 79.4313 110.084 79.4313 109.528C79.4313 108.972 79.2591 108.523 78.9147 108.18C78.5817 107.837 78.1396 107.666 77.5885 107.666H75.0051V107.666ZM83.6854 118.308C83.628 118.308 83.5763 118.284 83.5304 118.237C83.4959 118.202 83.4787 118.154 83.4787 118.095V106.105C83.4787 106.046 83.4959 105.998 83.5304 105.963C83.5763 105.916 83.628 105.892 83.6854 105.892H85.2699C85.3273 105.892 85.3732 105.916 85.4077 105.963C85.4536 105.998 85.4765 106.046 85.4765 106.105V118.095C85.4765 118.154 85.4536 118.202 85.4077 118.237C85.3732 118.284 85.3273 118.308 85.2699 118.308H83.6854ZM95.0008 106.105C95.0008 106.046 95.0237 105.998 95.0697 105.963C95.1041 105.916 95.15 105.892 95.2074 105.892H96.7919C96.8493 105.892 96.901 105.916 96.9469 105.963C96.9814 105.998 96.9986 106.046 96.9986 106.105V118.095C96.9986 118.154 96.9814 118.202 96.9469 118.237C96.901 118.284 96.8493 118.308 96.7919 118.308H95.2591C95.1443 118.308 95.0639 118.261 95.018 118.166L90.0578 109.794C90.0349 109.759 90.0119 109.741 89.9889 109.741C89.966 109.753 89.9545 109.782 89.9545 109.83L89.9889 118.095C89.9889 118.154 89.966 118.202 89.92 118.237C89.8856 118.284 89.8397 118.308 89.7823 118.308H88.1978C88.1403 118.308 88.0944 118.284 88.06 118.237C88.014 118.202 87.9911 118.154 87.9911 118.095V106.105C87.9911 106.046 88.014 105.998 88.06 105.963C88.0944 105.916 88.1403 105.892 88.1978 105.892H89.7306C89.8454 105.892 89.9258 105.939 89.9717 106.034L94.9147 114.406C94.9376 114.441 94.9606 114.453 94.9835 114.441C95.0065 114.441 95.018 114.418 95.018 114.37L95.0008 106.105V106.105ZM103.543 118.45C102.682 118.45 101.924 118.278 101.27 117.936C100.615 117.581 100.11 117.084 99.7543 116.446C99.3983 115.807 99.2204 115.074 99.2204 114.246V109.954C99.2204 109.114 99.3983 108.375 99.7543 107.737C100.11 107.11 100.615 106.619 101.27 106.264C101.924 105.921 102.682 105.75 103.543 105.75C104.393 105.75 105.145 105.921 105.799 106.264C106.442 106.607 106.942 107.074 107.298 107.666C107.654 108.257 107.832 108.925 107.832 109.67V109.812C107.832 109.871 107.815 109.918 107.78 109.954C107.734 110.001 107.683 110.025 107.625 110.025H106.058C106 110.025 105.954 110.001 105.92 109.954C105.874 109.918 105.851 109.871 105.851 109.812V109.723C105.851 109.085 105.639 108.558 105.214 108.145C104.801 107.731 104.244 107.524 103.543 107.524C102.843 107.524 102.28 107.742 101.855 108.18C101.431 108.606 101.218 109.173 101.218 109.883V114.317C101.218 115.027 101.442 115.6 101.89 116.038C102.338 116.463 102.918 116.676 103.629 116.676C104.318 116.676 104.864 116.487 105.266 116.109C105.656 115.742 105.851 115.234 105.851 114.583V113.483C105.851 113.424 105.822 113.395 105.765 113.395H103.647C103.589 113.395 103.538 113.371 103.492 113.324C103.457 113.288 103.44 113.241 103.44 113.182V111.869C103.44 111.81 103.457 111.763 103.492 111.727C103.538 111.68 103.589 111.657 103.647 111.657H107.625C107.683 111.657 107.734 111.68 107.78 111.727C107.815 111.763 107.832 111.81 107.832 111.869V114.14C107.832 115.5 107.447 116.558 106.678 117.315C105.897 118.072 104.852 118.45 103.543 118.45V118.45Z" fill="white"></path><path d="M57.4712 150.342C57.4367 150.378 57.4253 150.413 57.4367 150.449C57.4597 150.484 57.4941 150.502 57.5401 150.502H64.3086C64.389 150.502 64.4579 150.531 64.5153 150.591C64.5842 150.65 64.6187 150.721 64.6187 150.803V153.304C64.6187 153.387 64.5842 153.458 64.5153 153.517C64.4579 153.576 64.389 153.606 64.3086 153.606H53.0794C52.9875 153.606 52.9129 153.576 52.8555 153.517C52.7981 153.458 52.7694 153.387 52.7694 153.304V150.928C52.7694 150.774 52.821 150.644 52.9244 150.537C53.7396 149.721 54.572 148.829 55.4217 147.859C56.2713 146.889 56.8052 146.286 57.0234 146.05C57.4827 145.482 57.9534 144.938 58.4357 144.418C59.9513 142.692 60.7091 141.409 60.7091 140.569C60.7091 139.966 60.5024 139.469 60.0891 139.079C59.6757 138.701 59.1361 138.511 58.4701 138.511C57.8042 138.511 57.2645 138.701 56.8512 139.079C56.4263 139.469 56.2139 139.984 56.2139 140.622V141.261C56.2139 141.343 56.1852 141.414 56.1278 141.474C56.0704 141.533 56.0015 141.562 55.9211 141.562H52.976C52.8957 141.562 52.8268 141.533 52.7694 141.474C52.7005 141.414 52.666 141.343 52.666 141.261V140.055C52.7234 139.132 53.0105 138.31 53.5272 137.589C54.0438 136.88 54.727 136.336 55.5767 135.957C56.4378 135.579 57.4023 135.39 58.4701 135.39C59.6527 135.39 60.6804 135.62 61.553 136.081C62.4256 136.531 63.0973 137.14 63.5681 137.908C64.0503 138.689 64.2914 139.546 64.2914 140.48C64.2914 141.202 64.1134 141.941 63.7575 142.697C63.4131 143.454 62.8906 144.27 62.1902 145.145C61.6735 145.807 61.1167 146.47 60.5196 147.132C59.9226 147.782 59.0327 148.722 57.8501 149.952L57.4712 150.342V150.342ZM72.7306 153.89C70.8935 153.89 69.4468 153.363 68.3905 152.311C67.3226 151.259 66.7887 149.822 66.7887 148.001V141.207C66.7887 139.422 67.3226 138.009 68.3905 136.968C69.4468 135.916 70.8935 135.39 72.7306 135.39C74.5562 135.39 76.0087 135.916 77.088 136.968C78.1558 138.009 78.6897 139.422 78.6897 141.207V148.001C78.6897 149.822 78.1558 151.259 77.088 152.311C76.0087 153.363 74.5562 153.89 72.7306 153.89ZM72.7306 150.786C73.4769 150.786 74.0682 150.549 74.5046 150.076C74.9523 149.603 75.1762 148.971 75.1762 148.178V141.101C75.1762 140.321 74.9523 139.694 74.5046 139.221C74.0682 138.748 73.4769 138.511 72.7306 138.511C71.9958 138.511 71.4102 138.748 70.9739 139.221C70.5261 139.694 70.3022 140.321 70.3022 141.101V148.178C70.3022 148.971 70.5261 149.603 70.9739 150.076C71.4102 150.549 71.9958 150.786 72.7306 150.786ZM85.6822 150.342C85.6477 150.378 85.642 150.413 85.6649 150.449C85.6764 150.484 85.7109 150.502 85.7683 150.502H92.5368C92.6172 150.502 92.6861 150.531 92.7435 150.591C92.8009 150.65 92.8296 150.721 92.8296 150.803V153.304C92.8296 153.387 92.8009 153.458 92.7435 153.517C92.6861 153.576 92.6172 153.606 92.5368 153.606H81.2903C81.21 153.606 81.1411 153.576 81.0837 153.517C81.0263 153.458 80.9976 153.387 80.9976 153.304V150.928C80.9976 150.774 81.0435 150.644 81.1353 150.537C81.962 149.721 82.7945 148.829 83.6326 147.859C84.4823 146.889 85.0162 146.286 85.2344 146.05C85.7051 145.482 86.1816 144.938 86.6639 144.418C88.1795 142.692 88.9373 141.409 88.9373 140.569C88.9373 139.966 88.7306 139.469 88.3173 139.079C87.8924 138.701 87.347 138.511 86.6811 138.511C86.0151 138.511 85.4755 138.701 85.0621 139.079C84.6488 139.469 84.4421 139.984 84.4421 140.622V141.261C84.4421 141.343 84.4134 141.414 84.356 141.474C84.2986 141.533 84.224 141.562 84.1321 141.562H81.187C81.1066 141.562 81.0377 141.533 80.9803 141.474C80.9229 141.414 80.8942 141.343 80.8942 141.261V140.055C80.9401 139.132 81.2215 138.31 81.7381 137.589C82.2548 136.88 82.9437 136.336 83.8049 135.957C84.666 135.579 85.6248 135.39 86.6811 135.39C87.8637 135.39 88.8913 135.62 89.764 136.081C90.6481 136.531 91.3255 137.14 91.7963 137.908C92.267 138.689 92.5024 139.546 92.5024 140.48C92.5024 141.202 92.3302 141.941 91.9857 142.697C91.6298 143.454 91.1016 144.27 90.4012 145.145C89.8845 145.807 89.3277 146.47 88.7306 147.132C88.1335 147.782 87.2437 148.722 86.0611 149.952L85.6822 150.342V150.342ZM99.6671 150.342C99.6326 150.378 99.6269 150.413 99.6499 150.449C99.6613 150.484 99.6958 150.502 99.7532 150.502H106.522C106.602 150.502 106.671 150.531 106.728 150.591C106.786 150.65 106.815 150.721 106.815 150.803V153.304C106.815 153.387 106.786 153.458 106.728 153.517C106.671 153.576 106.602 153.606 106.522 153.606H95.2753C95.1949 153.606 95.126 153.576 95.0686 153.517C95.0112 153.458 94.9825 153.387 94.9825 153.304V150.928C94.9825 150.774 95.0284 150.644 95.1203 150.537C95.947 149.721 96.7794 148.829 97.6176 147.859C98.4672 146.889 99.0011 146.286 99.2193 146.05C99.6901 145.482 100.167 144.938 100.649 144.418C102.164 142.692 102.922 141.409 102.922 140.569C102.922 139.966 102.716 139.469 102.302 139.079C101.877 138.701 101.332 138.511 100.666 138.511C100 138.511 99.4604 138.701 99.0471 139.079C98.6337 139.469 98.427 139.984 98.427 140.622V141.261C98.427 141.343 98.3983 141.414 98.3409 141.474C98.2835 141.533 98.2089 141.562 98.117 141.562H95.1719C95.0916 141.562 95.0227 141.533 94.9653 141.474C94.9079 141.414 94.8792 141.343 94.8792 141.261V140.055C94.9251 139.132 95.2064 138.31 95.7231 137.589C96.2398 136.88 96.9287 136.336 97.7898 135.957C98.6509 135.579 99.6097 135.39 100.666 135.39C101.849 135.39 102.876 135.62 103.749 136.081C104.633 136.531 105.31 137.14 105.781 137.908C106.252 138.689 106.487 139.546 106.487 140.48C106.487 141.202 106.315 141.941 105.971 142.697C105.615 143.454 105.087 144.27 104.386 145.145C103.869 145.807 103.313 146.47 102.716 147.132C102.118 147.782 101.229 148.722 100.046 149.952L99.6671 150.342V150.342Z" fill="#252530"></path></svg>