<svg xmlns="http://www.w3.org/2000/svg" width="40" height="40" viewBox="0 0 40 40" fill="none"><circle cx="20" cy="20" r="20" fill="url(#paint0_linear_2401_577)"></circle><path d="M14.4552 19.3937C14.1797 19.3945 13.91 19.4753 13.6773 19.6268C13.4447 19.7783 13.2586 19.9942 13.1406 20.2497C13.0226 20.5051 12.9775 20.7896 13.0105 21.0702C13.0436 21.3508 13.1534 21.6161 13.3273 21.8354L17.0341 26.4935C17.1663 26.6619 17.3357 26.7955 17.5283 26.8832C17.7209 26.9709 17.9311 27.0101 18.1415 26.9978C18.5914 26.973 18.9976 26.7261 19.2566 26.3201L26.9566 13.599C26.9579 13.5969 26.9592 13.5947 26.9606 13.5927C27.0328 13.4789 27.0094 13.2534 26.8603 13.1117C26.8193 13.0728 26.771 13.0429 26.7183 13.0239C26.6657 13.0048 26.6098 12.997 26.5541 13.001C26.4984 13.005 26.4441 13.0206 26.3945 13.0469C26.3449 13.0732 26.3011 13.1096 26.2658 13.154C26.263 13.1575 26.2602 13.1609 26.2572 13.1643L18.4916 22.1648C18.4621 22.1991 18.4262 22.227 18.3861 22.2469C18.3459 22.2668 18.3023 22.2783 18.2578 22.2808C18.2133 22.2832 18.1687 22.2766 18.1267 22.2613C18.0847 22.2459 18.0461 22.2222 18.0131 22.1914L15.4359 19.7855C15.1682 19.5338 14.8183 19.394 14.4552 19.3937Z" fill="white"></path><defs><linearGradient id="paint0_linear_2401_577" x1="40" y1="31.5261" x2="-3.34682" y2="24.4271" gradientUnits="userSpaceOnUse"><stop stop-color="#001DAC"></stop><stop offset="1" stop-color="#000F57"></stop></linearGradient></defs></svg>