<svg xmlns="http://www.w3.org/2000/svg" width="50" height="50" viewBox="0 0 50 50" fill="none"><circle cx="25" cy="25" r="25" fill="#03A9F4" fill-opacity="0.1"></circle><path d="M29.219 16.3404C27.6059 15.3419 26.143 14.1194 24.874 12.7094C24.7623 12.5837 24.5959 12.5209 24.429 12.5414C24.2621 12.5653 24.1185 12.6717 24.047 12.8243C23.4042 14.1685 22.43 15.3272 21.216 16.1914C16.9655 17.6117 14.0734 21.558 14 26.0378C14.1479 31.9689 19.0669 36.663 25 36.535C30.9331 36.663 35.8521 31.9689 36 26.0378C35.9581 21.7161 33.2646 17.8641 29.219 16.3404Z" fill="#03A9F4"></path><path d="M31.9999 24.5379C31.0104 24.6202 30.0889 25.0751 29.422 25.8105C29.052 26.1104 28.602 26.4723 28.039 26.8882C25.508 24.4948 23.928 23.5381 22.5 23.5381C19.408 23.5381 18 25.6105 18 27.537C18 29.7455 19.7909 31.5359 22 31.5359C23.86 31.5359 26.822 29.1926 27.929 28.2588C28.672 29.1835 30.3089 31.036 31.4999 31.036C33.0489 31.036 33.9999 28.9986 33.9999 27.537C34 24.8298 32.5999 24.5379 31.9999 24.5379Z" fill="#FAFAFA"></path><path d="M28.4407 32.5355C28.4607 32.5369 28.4807 32.5369 28.5007 32.5355C28.7554 32.5373 28.9707 32.3474 29.0007 32.0946C29.0655 31.7018 28.9559 31.3004 28.7007 30.9949C28.3884 30.6712 27.9483 30.5031 27.4997 30.536C26.5411 30.476 25.6243 30.9362 25.0998 31.7407C24.9425 31.9676 24.9991 32.279 25.2261 32.4362C25.4449 32.5878 25.7442 32.5413 25.9068 32.3305C26.2416 31.7824 26.8603 31.4737 27.4997 31.5357C27.6579 31.518 27.8169 31.5616 27.9437 31.6577C28.0037 31.7524 28.0251 31.8666 28.0037 31.9766C27.9692 32.2505 28.1634 32.5005 28.4373 32.535C28.4384 32.5352 28.4396 32.5353 28.4407 32.5355Z" fill="#FAFAFA"></path><path d="M28.6453 33.1813C27.8453 33.9811 24.5293 33.8592 23.8523 33.1813C23.6537 32.9895 23.3371 32.9951 23.1453 33.1936C22.9581 33.3873 22.9581 33.6944 23.1453 33.8882C24.0825 34.5193 25.2042 34.8181 26.3313 34.7369C27.407 34.8207 28.4776 34.5199 29.3523 33.8882C29.5441 33.6896 29.5386 33.3731 29.34 33.1813C29.1463 32.9943 28.8391 32.9943 28.6453 33.1813Z" fill="#FAFAFA"></path></svg>