<svg xmlns="http://www.w3.org/2000/svg" width="62" height="53" viewBox="0 0 62 53" fill="none"><circle cx="43" cy="33.0015" r="19" fill="#0082F8" fill-opacity="0.15"></circle><path fill-rule="evenodd" clip-rule="evenodd" d="M44.5023 30.9982C44.6652 30.8354 44.7466 30.591 44.7466 30.3467C44.7466 29.8581 44.7466 22.7728 44.7466 22.7728C44.7466 22.7728 35.9511 26.0304 35.7882 26.0304C34.6481 25.1346 33.6708 23.9944 32.8564 22.7728C32.6121 22.3656 32.1234 22.1213 31.6348 22.2842C29.5174 22.9357 23.8166 24.5645 22.5135 24.7274C22.4321 24.7274 22.2692 24.7274 22.1878 24.7274C20.8847 24.483 15.1839 22.8543 13.0665 22.2842C12.5779 22.1213 12.0892 22.3656 11.8449 22.7728C11.112 23.9944 10.1347 25.1346 8.99452 26.0304C8.83164 26.1118 7.20284 26.4376 5.32972 26.8448C3.78237 27.0891 0.0361328 22.6914 0.0361328 22.6914C0.0361328 22.6914 0.0361328 29.7766 0.0361328 30.2653C0.0361328 30.5096 0.117573 30.7539 0.280453 30.9982C0.931972 31.8126 1.82781 31.1611 2.47933 31.9755C3.13085 32.7899 0.524772 32.3827 0.524772 32.3827C0.524772 32.3827 0.524772 39.7123 0.524772 39.9566C0.606212 40.3638 0.931972 40.771 1.33917 40.8525L9.48316 42.4813C9.72748 42.5627 9.9718 42.6441 10.1347 42.8885L13.5552 47.5305C13.7995 47.9377 14.2881 48.1006 14.7767 47.9377L22.1063 45.6574C22.2692 45.576 22.5135 45.576 22.7579 45.6574L30.1689 47.9377C30.5761 48.1006 31.0647 47.9377 31.309 47.5305L34.7295 42.8885C34.8924 42.6441 35.1367 42.5627 35.381 42.4813L43.525 40.8525C43.9322 40.771 44.258 40.4453 44.3394 40.0381C44.4209 39.7937 44.3394 32.3013 44.3394 32.3013C44.3394 32.3013 41.7333 32.7085 42.3849 31.8941C43.0364 31.0797 43.8508 31.7312 44.5023 30.9982Z" fill="url(#paint0_linear_3001_45)"></path><path fill-rule="evenodd" clip-rule="evenodd" d="M44.5023 23.5059C44.9095 23.0988 44.8281 22.4472 44.4209 22.04C44.258 21.9586 44.0951 21.8772 43.9323 21.7957C41.1633 21.2256 36.0326 20.2484 35.7883 20.0855C34.7296 18.5381 33.7523 16.9093 32.9379 15.1991C32.6936 14.7919 32.2049 14.5476 31.7163 14.7104C29.5988 15.362 23.8981 16.9908 22.595 17.1536C22.5136 17.1536 22.3507 17.1536 22.2693 17.1536C20.9662 16.9093 15.2654 15.2805 13.148 14.7104C12.6594 14.5476 12.1707 14.7919 11.9264 15.1991C11.0306 16.9093 10.0533 18.5381 9.076 20.0855C8.83168 20.2484 3.70096 21.2256 0.932008 21.7957C0.361929 21.8772 0.0361687 22.4472 0.117609 23.0173C0.117609 23.1802 0.199049 23.3431 0.361928 23.5059C1.74641 25.0533 3.7824 27.4151 3.7824 27.6594C2.88656 29.0439 1.90929 30.4283 0.769128 31.7314C0.443368 32.22 0.524808 32.8715 1.01345 33.1973C1.09489 33.2787 1.25777 33.3602 1.42065 33.3602L9.56463 34.989C9.80895 35.0704 10.0533 35.1518 10.2162 35.3962L13.6366 40.0382C13.8809 40.364 14.3696 40.5269 14.7768 40.4454L22.0249 38.1651C22.1878 38.0837 22.4321 38.0837 22.6765 38.1651L30.0875 40.4454C30.4947 40.6083 30.9833 40.4454 31.2276 40.0382L34.6481 35.3147C34.811 35.0704 35.0553 34.989 35.2996 34.9075L43.4436 33.2787C44.0137 33.1973 44.3395 32.6272 44.258 32.0571C44.258 31.8943 44.1766 31.7314 44.0951 31.6499C43.0364 30.3469 42.0591 28.9624 41.0819 27.5779C41.0819 27.4151 43.1179 25.0533 44.5023 23.5059Z" fill="url(#paint1_linear_3001_45)"></path><path fill-rule="evenodd" clip-rule="evenodd" d="M44.5023 16.2577C44.6652 16.0948 44.7466 15.8505 44.7466 15.6061C44.7466 15.1175 44.7466 8.03223 44.7466 8.03223C44.7466 8.03223 35.9511 11.2898 35.7882 11.2898C34.6481 10.394 33.6708 9.25383 32.8564 7.95079C32.6121 7.54359 32.1234 7.29927 31.6348 7.46215C29.5174 8.11367 23.8166 9.74247 22.5135 9.90535C22.4321 9.90535 22.2692 9.90535 22.1878 9.90535C20.8847 9.66103 15.1839 8.03223 13.0665 7.46215C12.5779 7.29927 12.0892 7.54359 11.8449 7.95079C11.112 9.17239 10.1347 10.3125 8.99452 11.2084C8.83164 11.2898 7.20284 11.6156 5.32972 12.0228C3.78237 12.43 0.0361328 8.03223 0.0361328 8.03223C0.0361328 8.03223 0.0361328 15.1175 0.0361328 15.6061C0.0361328 15.8505 0.117573 16.0948 0.280453 16.3391C0.931972 17.1535 1.82781 16.502 2.47933 17.3164C3.13085 18.1308 0.524772 17.7236 0.524772 17.7236C0.524772 17.7236 0.524772 25.0532 0.524772 25.2975C0.606212 25.7861 0.931972 26.1119 1.33917 26.1933L9.48316 27.8221C9.72748 27.9036 9.9718 28.0664 10.1347 28.2293L13.5552 32.8714C13.7995 33.2786 14.2881 33.4415 14.7767 33.2786L22.1063 30.9983C22.2692 30.9168 22.5135 30.9168 22.7579 30.9983L30.1689 33.2786C30.5761 33.4415 31.0647 33.2786 31.309 32.8714L34.7295 28.1479C34.8924 27.9036 35.1367 27.8221 35.381 27.7407L43.525 26.1119C43.9322 26.0304 44.258 25.7047 44.3394 25.2975C44.4209 24.9717 44.3394 17.5607 44.3394 17.5607C44.3394 17.5607 41.7333 17.9679 42.3849 17.1535C43.0364 16.3391 43.8508 17.0721 44.5023 16.2577Z" fill="url(#paint2_linear_3001_45)"></path><path fill-rule="evenodd" clip-rule="evenodd" d="M44.5024 8.84653C44.9096 8.43933 44.8281 7.78781 44.4209 7.38061C44.258 7.29917 44.0952 7.21773 43.9323 7.13629C41.1633 6.56621 36.0326 5.58893 35.7883 5.42605C34.7296 3.87869 33.7523 2.2499 32.9379 0.539658C32.6121 0.132459 32.1235 -0.111861 31.6349 0.051019C29.5174 0.702538 23.8166 2.33134 22.5136 2.49422C22.4322 2.49422 22.2693 2.49422 22.1878 2.49422C20.8848 2.2499 15.184 0.621098 13.0666 0.051019C12.5779 -0.111861 12.0893 0.132459 11.845 0.539658C10.9491 2.2499 9.97186 3.87869 8.99458 5.42605C8.66882 5.58893 3.61955 6.56621 0.85059 7.13629C0.280511 7.21773 -0.126688 7.78781 0.0361914 8.35789C0.0361914 8.52077 0.117631 8.76509 0.280511 8.84653C1.66499 10.3939 3.70099 12.8371 3.70099 13C2.80515 14.3844 1.82787 15.7689 0.687711 17.072C0.361951 17.5606 0.443391 18.2121 0.93203 18.5379C1.01347 18.6193 1.17635 18.6193 1.33923 18.7008L9.48322 20.3295C9.72754 20.411 9.97186 20.4924 10.1347 20.7367L13.5552 25.3788C13.7995 25.7046 14.2882 25.8675 14.6954 25.786L22.025 23.5057C22.1878 23.4243 22.4322 23.4243 22.6765 23.5057L30.0875 25.786C30.4947 25.9489 30.9833 25.786 31.2277 25.3788L34.6481 20.7367C34.811 20.4924 35.0553 20.411 35.2997 20.3295L43.4436 18.7008C44.0137 18.6193 44.3395 18.0492 44.258 17.4792C44.258 17.3163 44.1766 17.2348 44.0952 17.072C43.0364 15.7689 42.0592 14.3844 41.0819 13C41.0819 12.7556 43.1179 10.3939 44.5024 8.84653Z" fill="url(#paint3_linear_3001_45)"></path><path d="M23.165 15.0362L24.0608 15.5248L19.663 18.0494L18.7672 17.5608L20.396 16.5835L15.3467 13.6517C15.1838 13.5702 14.9395 13.4074 14.7766 13.3259L14.6138 14.7104C14.6138 14.7918 14.5323 14.7918 14.5323 14.8733C14.4509 14.9547 14.4509 14.9547 14.3694 14.9547C14.288 14.9547 14.2066 14.9547 14.2066 15.0362H14.0437L13.0664 14.9547L13.3922 12.3486L14.3694 11.7786L21.6176 15.932L23.165 15.0362Z" fill="url(#paint4_linear_3001_45)"></path><path d="M21.8618 10.8826C22.0247 10.7197 22.1875 10.6382 22.3504 10.4754C22.5133 10.3125 22.6762 10.231 22.8391 10.1496C23.2463 9.90529 23.7349 9.74241 24.1421 9.57953C24.5493 9.49809 25.0379 9.41665 25.5266 9.41665C25.9338 9.41665 26.4224 9.49809 26.8296 9.57953C27.2368 9.66097 27.644 9.82385 27.9698 10.0682C28.377 10.231 28.7027 10.5568 28.947 10.8826C29.1099 11.1269 29.2728 11.4526 29.1914 11.7784C29.1914 12.1042 29.0285 12.4299 28.7842 12.6742C28.5398 13 28.2141 13.2443 27.8069 13.4886C27.5626 13.6515 27.2368 13.733 26.9925 13.8958C26.7482 13.9773 26.4224 14.0587 26.1781 14.1402C25.9338 14.2216 25.608 14.2216 25.3637 14.303C25.1194 14.303 24.7936 14.3845 24.5493 14.3845L24.3864 13.8958C24.3864 13.8144 24.3864 13.733 24.5493 13.5701C24.6307 13.4886 24.7936 13.4886 24.8751 13.4886L25.4451 13.4072C25.6895 13.4072 25.8523 13.3258 26.0967 13.2443C26.341 13.1629 26.5853 13.0814 26.8296 12.9186C27.0739 12.8371 27.2368 12.5928 27.3997 12.4299C27.4811 12.267 27.5626 12.1042 27.5626 11.9413C27.5626 11.7784 27.4811 11.5341 27.3182 11.4526C27.1554 11.2898 26.911 11.1269 26.7482 10.964C26.5038 10.8011 26.2595 10.7197 26.0152 10.6382C25.7709 10.5568 25.4451 10.5568 25.2008 10.5568C24.9565 10.5568 24.6307 10.6382 24.3864 10.6382C24.1421 10.7197 23.8163 10.8011 23.572 10.964C23.4091 11.0454 23.1648 11.2083 23.0019 11.3712C22.8391 11.5341 22.6762 11.697 22.5133 11.8598L21.6175 12.1042L18.3599 9.49809L22.269 7.21777L22.8391 7.54353C23.0019 7.62497 23.0834 7.78785 23.0834 7.86929C23.0834 7.95073 22.9205 8.11361 22.6762 8.27649L20.3144 9.57953L21.8618 10.8826Z" fill="url(#paint5_linear_3001_45)"></path><path opacity="0.5" d="M41.4891 9.33505C41.8149 8.92786 41.7334 8.35778 41.4077 8.03202C41.3262 7.95058 41.1633 7.86914 41.0005 7.86914C38.5573 7.3805 34.1595 6.5661 33.9966 6.40322C33.1008 5.01874 32.2864 3.63426 31.472 2.16835C31.3091 1.76115 30.8205 1.59827 30.4133 1.76115C28.5402 2.33123 23.6538 3.7157 22.5136 3.87858C22.4322 3.87858 22.3507 3.87858 22.1878 3.87858C21.0477 3.7157 16.1613 2.24979 14.2882 1.76115C13.881 1.67971 13.4738 1.84259 13.2295 2.16835C12.4965 3.63426 11.6007 5.01874 10.7048 6.40322C10.4605 6.5661 6.06275 7.3805 3.701 7.86914C3.21236 7.95058 2.8866 8.43922 2.96804 8.92786C2.96804 9.09074 3.04948 9.25362 3.13092 9.33505C4.27108 10.7195 6.06275 12.7555 6.06275 12.9184C5.24835 14.14 4.43396 15.3616 3.45668 16.5018C3.13092 16.909 3.21236 17.479 3.61956 17.8048C3.701 17.8862 3.86388 17.9677 3.94532 17.9677L11.0306 19.3522C11.2749 19.4336 11.4378 19.515 11.6007 19.6779L14.5325 23.7499C14.7768 24.0757 15.184 24.1571 15.5098 24.0757L21.9435 22.1211C22.1064 22.0397 22.2693 22.0397 22.5136 22.1211L28.8659 24.0757C29.2731 24.1571 29.5989 24.0757 29.8432 23.7499L32.775 19.6779C32.9379 19.515 33.1008 19.3522 33.3451 19.3522L40.4304 17.9677C40.919 17.8862 41.2448 17.3976 41.1633 16.909C41.1633 16.7461 41.0819 16.6646 41.0005 16.5832C40.1046 15.443 39.2088 14.2214 38.3944 12.9998C38.5573 12.837 40.2675 10.7195 41.4891 9.33505Z" stroke="#818696" stroke-linecap="round" stroke-linejoin="round"></path><defs><linearGradient id="paint0_linear_3001_45" x1="44.7466" y1="42.5415" x2="-1.28685" y2="29.4598" gradientUnits="userSpaceOnUse"><stop stop-color="#001DAC"></stop><stop offset="1" stop-color="#000F57"></stop></linearGradient><linearGradient id="paint1_linear_3001_45" x1="0.105224" y1="16.5508" x2="46.5916" y2="24.2199" gradientUnits="userSpaceOnUse"><stop stop-color="#0082F8"></stop><stop offset="1" stop-color="#1C40F2"></stop></linearGradient><linearGradient id="paint2_linear_3001_45" x1="45.4684" y1="24.6419" x2="-1.84" y2="13.0123" gradientUnits="userSpaceOnUse"><stop offset="0.17" stop-color="#E7E9E9"></stop><stop offset="0.55" stop-color="#B1B4C3"></stop><stop offset="0.84" stop-color="#8F92AA"></stop><stop offset="0.99" stop-color="#8285A1"></stop></linearGradient><linearGradient id="paint3_linear_3001_45" x1="45.1465" y1="18.315" x2="-0.37842" y2="7.12513" gradientUnits="userSpaceOnUse"><stop offset="0.17" stop-color="#CDD3DB"></stop><stop offset="1" stop-color="#ACB0C2"></stop></linearGradient><linearGradient id="paint4_linear_3001_45" x1="13.0664" y1="12.2374" x2="24.5002" y2="14.1513" gradientUnits="userSpaceOnUse"><stop stop-color="#0082F8"></stop><stop offset="1" stop-color="#1C40F2"></stop></linearGradient><linearGradient id="paint5_linear_3001_45" x1="18.3599" y1="7.74217" x2="29.7255" y2="9.38547" gradientUnits="userSpaceOnUse"><stop stop-color="#0082F8"></stop><stop offset="1" stop-color="#1C40F2"></stop></linearGradient></defs></svg>