<svg xmlns="http://www.w3.org/2000/svg" width="100" height="100" viewBox="0 0 100 100" fill="none"><path d="M50 77.25L4.25 59.4166V65L50 91.6666V77.25Z" fill="url(#paint0_linear_2388_372)"></path><path d="M95.6667 65V59.4166L50 77.25V91.6666L95.6667 65Z" fill="url(#paint1_linear_2388_372)"></path><path d="M4.25 59.5L50 86.0833L95.6667 59.5L50 32.75L4.25 59.5Z" fill="url(#paint2_linear_2388_372)"></path><path opacity="0.3" d="M18.4167 62.9167L50.0001 81.3333L81.5834 62.9167L50.0001 44.5L18.4167 62.9167Z" fill="url(#paint3_linear_2388_372)"></path><path d="M50.0001 55.8334L18.4167 39.3334V54L50.0001 72.4167V55.8334Z" fill="url(#paint4_linear_2388_372)"></path><path d="M81.5833 54V39.3334L50 55.8334V72.5L81.5833 54Z" fill="url(#paint5_linear_2388_372)"></path><path d="M18.4167 39.4166L50.0001 57.8333L81.5834 39.4166L50.0001 20.9166L18.4167 39.4166Z" fill="url(#paint6_linear_2388_372)"></path><path d="M54.8333 62.9166L62.5832 58.4166" stroke="url(#paint7_linear_2388_372)" stroke-width="0.9965" stroke-linecap="round" stroke-linejoin="round"></path><path fill-rule="evenodd" clip-rule="evenodd" d="M71.6667 52.5C72.3333 52.0833 72.8333 52.4167 72.8333 53.1667C72.8333 54 72.3333 54.8333 71.6667 55.25C71 55.6667 70.5 55.3333 70.5 54.5833C70.5 53.75 70.9167 52.9167 71.6667 52.5Z" fill="#F70E28"></path><path fill-rule="evenodd" clip-rule="evenodd" d="M76.7499 49.5834C77.4166 49.1667 77.9166 49.5 77.9166 50.25C77.9166 51.0834 77.4166 51.9167 76.7499 52.3334C76.0833 52.75 75.5833 52.4167 75.5833 51.6667C75.5833 50.8334 75.9999 50.0834 76.7499 49.5834Z" fill="#F70E28"></path><path d="M50.0001 35.0834L18.4167 18.5834V33.25L50.0834 51.6667L50.0001 35.0834Z" fill="url(#paint8_linear_2388_372)"></path><path d="M81.5833 33.25V18.5834L50 35V51.6667L81.5833 33.25Z" fill="url(#paint9_linear_2388_372)"></path><path d="M18.4167 18.5833L50.0001 37L81.5834 18.5833L50.0001 0.166626L18.4167 18.5833Z" fill="url(#paint10_linear_2388_372)"></path><path d="M54.8333 41.5833L62.5832 37" stroke="url(#paint11_linear_2388_372)" stroke-width="0.9965" stroke-linecap="round" stroke-linejoin="round"></path><path fill-rule="evenodd" clip-rule="evenodd" d="M71.6667 31.0834C72.3333 30.6667 72.8333 31 72.8333 31.75C72.8333 32.5834 72.3333 33.4167 71.6667 33.8334C71 34.25 70.5 33.9167 70.5 33.1667C70.5 32.3334 70.9167 31.5834 71.6667 31.0834Z" fill="#F70E28"></path><path fill-rule="evenodd" clip-rule="evenodd" d="M76.7499 28.25C77.4166 27.8333 77.9166 28.1667 77.9166 28.9167C77.9166 29.75 77.4166 30.5833 76.7499 31C76.0833 31.4167 75.5833 31.0833 75.5833 30.3333C75.5833 29.5 75.9999 28.75 76.7499 28.25Z" fill="#F70E28"></path><path d="M40.5294 10.8595L39.8098 11.275L49.0288 16.5976L45.7574 18.4864L40.2573 15.3109L33.7187 19.086L47.696 27.1558C50.9892 29.0571 56.2786 29.0968 59.4872 27.2443L60.2069 26.8288L51.5371 21.8233L54.8085 19.9345L60.5301 23.2379L67.0688 19.4628L52.3207 10.948C49.0275 9.0467 43.7381 9.007 40.5294 10.8595ZM57.2297 26.7719C54.8026 27.7656 51.3623 27.6105 49.1353 26.3248L46.4378 24.7674L50.0978 22.6543L57.2297 26.7719ZM64.1522 19.441L60.4922 21.5541L54.7706 18.2507L44.9606 23.9145L36.6353 19.1079L40.2953 16.9948L45.7953 20.1702L55.6054 14.5064L64.1522 19.441ZM54.1281 13.6535L50.4681 15.7666L42.787 11.3319C45.2141 10.3382 48.6539 10.493 50.8814 11.779L54.1281 13.6535Z" fill="#9195A8"></path><defs><linearGradient id="paint0_linear_2388_372" x1="50" y1="84.8346" x2="1.69944" y2="73.6129" gradientUnits="userSpaceOnUse"><stop stop-color="#001DAC"></stop><stop offset="1" stop-color="#000F57"></stop></linearGradient><linearGradient id="paint1_linear_2388_372" x1="50" y1="61.7764" x2="97.9222" y2="68.2518" gradientUnits="userSpaceOnUse"><stop stop-color="#18029D"></stop><stop offset="1" stop-color="#1C40F2"></stop></linearGradient><linearGradient id="paint2_linear_2388_372" x1="4.25" y1="36.6524" x2="99.4352" y2="52.2294" gradientUnits="userSpaceOnUse"><stop stop-color="#0082F8"></stop><stop offset="1" stop-color="#1C40F2"></stop></linearGradient><linearGradient id="paint3_linear_2388_372" x1="69.4719" y1="77.0068" x2="31.3127" y2="49.3943" gradientUnits="userSpaceOnUse"><stop></stop><stop offset="1"></stop></linearGradient><linearGradient id="paint4_linear_2388_372" x1="12.4508" y1="55.875" x2="44.0341" y2="55.875" gradientUnits="userSpaceOnUse"><stop stop-color="#989AAD"></stop><stop offset="1" stop-color="#98A0B7"></stop></linearGradient><linearGradient id="paint5_linear_2388_372" x1="89.7949" y1="55.9167" x2="90.3422" y2="55.9167" gradientUnits="userSpaceOnUse"><stop stop-color="#E7E9E9"></stop><stop offset="1" stop-color="#98AACD"></stop></linearGradient><linearGradient id="paint6_linear_2388_372" x1="69.4457" y1="53.4835" x2="31.2865" y2="25.8793" gradientUnits="userSpaceOnUse"><stop stop-color="#CDD3DB"></stop><stop offset="1" stop-color="#ACB0C2"></stop></linearGradient><linearGradient id="paint7_linear_2388_372" x1="54.3886" y1="60.6666" x2="62.9689" y2="60.6666" gradientUnits="userSpaceOnUse"><stop stop-color="#FC2632"></stop><stop offset="1" stop-color="#F70E28"></stop></linearGradient><linearGradient id="paint8_linear_2388_372" x1="12.4372" y1="35.125" x2="44.1039" y2="35.125" gradientUnits="userSpaceOnUse"><stop stop-color="#989AAD"></stop><stop offset="1" stop-color="#98A0B7"></stop></linearGradient><linearGradient id="paint9_linear_2388_372" x1="89.7949" y1="35.125" x2="90.3422" y2="35.125" gradientUnits="userSpaceOnUse"><stop stop-color="#E7E9E9"></stop><stop offset="1" stop-color="#98AACD"></stop></linearGradient><linearGradient id="paint10_linear_2388_372" x1="69.4758" y1="32.672" x2="31.3167" y2="5.0678" gradientUnits="userSpaceOnUse"><stop stop-color="#CDD3DB"></stop><stop offset="1" stop-color="#ACB0C2"></stop></linearGradient><linearGradient id="paint11_linear_2388_372" x1="54.3886" y1="39.2917" x2="62.9689" y2="39.2917" gradientUnits="userSpaceOnUse"><stop stop-color="#FC2632"></stop><stop offset="1" stop-color="#F70E28"></stop></linearGradient></defs></svg>