<svg xmlns="http://www.w3.org/2000/svg" width="92" height="92" viewBox="0 0 92 92" fill="none"><path d="M45.6285 77.2942L0 59.5082V65.0767L45.6285 91.6725V77.2942Z" fill="url(#paint0_linear_2388_709)"></path><path d="M91.2572 65.0767V59.5082L45.6287 77.2942V91.6725L91.2572 65.0767Z" fill="url(#paint1_linear_2388_709)"></path><path d="M0 59.5082L45.6285 86.1041L91.257 59.5082L45.6285 32.9124L0 59.5082Z" fill="url(#paint2_linear_2388_709)"></path><path opacity="0.3" d="M14.1292 63.1651L45.7117 81.616L77.3774 63.1651L45.7117 44.7142L14.1292 63.1651Z" fill="url(#paint3_linear_2388_709)"></path><path d="M63.3314 26.0972L32.4137 8.14502L32.3306 43.5508L63.082 61.8354L63.3314 26.0972Z" fill="url(#paint4_linear_2388_709)"></path><path d="M77.2111 53.7735V18.2015L63.082 26.2634V61.8354L77.2111 53.7735Z" fill="url(#paint5_linear_2388_709)"></path><path d="M32.3306 8.06187L63.082 26.2634L77.2111 18.2015L46.1272 0L32.3306 8.06187Z" fill="url(#paint6_linear_2388_709)"></path><path d="M70.645 31.5826L74.9668 29.0892" stroke="url(#paint7_linear_2388_709)" stroke-width="0.9" stroke-linecap="round" stroke-linejoin="round"></path><path d="M70.645 40.808L74.9668 38.2316" stroke="url(#paint8_linear_2388_709)" stroke-width="0.9" stroke-linecap="round" stroke-linejoin="round"></path><path d="M70.645 49.7011L74.9668 47.2078" stroke="url(#paint9_linear_2388_709)" stroke-width="0.9" stroke-linecap="round" stroke-linejoin="round"></path><path fill-rule="evenodd" clip-rule="evenodd" d="M67.2377 32.1644C67.8195 31.8319 68.3181 32.0813 68.3181 32.8293C68.3181 33.5773 67.9026 34.3253 67.2377 34.7408C66.6559 35.0733 66.1572 34.824 66.1572 34.076C66.2403 33.3279 66.5728 32.663 67.2377 32.1644Z" fill="url(#paint10_linear_2388_709)"></path><path fill-rule="evenodd" clip-rule="evenodd" d="M67.2377 41.0574C67.8195 40.725 68.3181 40.9743 68.3181 41.7223C68.3181 42.4703 67.9026 43.2184 67.2377 43.6339C66.6559 43.9664 66.1572 43.717 66.1572 42.969C66.2403 42.221 66.5728 41.473 67.2377 41.0574Z" fill="url(#paint11_linear_2388_709)"></path><path fill-rule="evenodd" clip-rule="evenodd" d="M67.2377 49.8673C67.8195 49.5348 68.3181 49.7841 68.3181 50.5322C68.3181 51.2802 67.9026 52.0282 67.2377 52.4437C66.6559 52.7762 66.1572 52.5268 66.1572 51.7788C66.2403 51.0308 66.5728 50.2828 67.2377 49.8673Z" fill="url(#paint12_linear_2388_709)"></path><path d="M44.9639 36.5693L14.2124 18.5339V54.0228L44.8807 72.3905L44.9639 36.5693Z" fill="url(#paint13_linear_2388_709)"></path><path d="M58.9264 64.2457V28.6737L44.7974 36.8187V72.3906L58.9264 64.2457Z" fill="url(#paint14_linear_2388_709)"></path><path d="M14.2124 18.5341L44.7976 36.8187L58.9267 28.6737L28.009 10.5553L14.2124 18.5341Z" fill="url(#paint15_linear_2388_709)"></path><path d="M52.6099 42.1379L56.8486 39.6445" stroke="url(#paint16_linear_2388_709)" stroke-width="0.9" stroke-linecap="round" stroke-linejoin="round"></path><path d="M52.6099 51.2802L56.8486 48.7869" stroke="url(#paint17_linear_2388_709)" stroke-width="0.9" stroke-linecap="round" stroke-linejoin="round"></path><path d="M52.6099 60.1733L56.8486 57.6799" stroke="url(#paint18_linear_2388_709)" stroke-width="0.9" stroke-linecap="round" stroke-linejoin="round"></path><path fill-rule="evenodd" clip-rule="evenodd" d="M49.1193 42.7197C49.7011 42.3872 50.1997 42.6366 50.1997 43.3846C50.1166 44.1326 49.7842 44.8806 49.1193 45.2961C48.5375 45.6286 48.0388 45.3793 48.0388 44.6312C48.1219 43.8832 48.4544 43.1352 49.1193 42.7197Z" fill="url(#paint19_linear_2388_709)"></path><path fill-rule="evenodd" clip-rule="evenodd" d="M49.1193 51.6127C49.7011 51.2803 50.1997 51.5296 50.1997 52.2776C50.1166 53.0256 49.7842 53.7737 49.1193 54.1892C48.5375 54.5217 48.0388 54.2723 48.0388 53.5243C48.1219 52.7763 48.4544 52.0283 49.1193 51.6127Z" fill="url(#paint20_linear_2388_709)"></path><path fill-rule="evenodd" clip-rule="evenodd" d="M49.1193 60.4226C49.7011 60.0901 50.1997 60.3394 50.1997 61.0875C50.1166 61.8355 49.7842 62.5835 49.1193 62.999C48.5375 63.3315 48.0388 63.0821 48.0388 62.3341C48.1219 61.503 48.4544 60.8381 49.1193 60.4226Z" fill="url(#paint21_linear_2388_709)"></path><path d="M31.6589 34.8856L30.9866 34.4974L30.9866 44.247L27.9305 42.4826L27.9305 36.666L21.8223 33.1394L21.8223 47.9211C21.8223 51.4038 24.2608 55.645 27.2582 57.3756L27.9305 57.7637L27.9305 48.5949L30.9866 50.3594L30.9866 56.4103L37.0948 59.9369L37.0948 44.34C37.0948 40.8573 34.6563 36.6162 31.6589 34.8856ZM26.5859 55.361C24.6483 53.869 23.1669 51.0525 23.1669 48.6974L23.1669 45.8446L26.5859 47.8186L26.5859 55.361ZM35.7503 57.5984L32.3312 55.6243L32.3312 49.5734L23.1669 44.2824L23.1669 35.478L26.5859 37.452L26.5859 43.2686L35.7503 48.5596L35.7503 57.5984ZM35.7503 46.9973L32.3312 45.0233L32.3312 36.9002C34.2688 38.3921 35.7503 41.2081 35.7503 43.5637L35.7503 46.9973Z" fill="#7A8299"></path><defs><linearGradient id="paint0_linear_2388_709" x1="45.6285" y1="84.8586" x2="-2.54378" y2="73.6668" gradientUnits="userSpaceOnUse"><stop stop-color="#001DAC"></stop><stop offset="1" stop-color="#000F57"></stop></linearGradient><linearGradient id="paint1_linear_2388_709" x1="91.2572" y1="84.8586" x2="43.0849" y2="73.6668" gradientUnits="userSpaceOnUse"><stop stop-color="#001DAC"></stop><stop offset="1" stop-color="#000F57"></stop></linearGradient><linearGradient id="paint2_linear_2388_709" x1="-6.37385e-07" y1="36.8044" x2="95.0145" y2="52.3676" gradientUnits="userSpaceOnUse"><stop stop-color="#0082F8"></stop><stop offset="1" stop-color="#1C40F2"></stop></linearGradient><linearGradient id="paint3_linear_2388_709" x1="65.2288" y1="77.2578" x2="27.0388" y2="49.623" gradientUnits="userSpaceOnUse"><stop></stop><stop offset="1"></stop></linearGradient><linearGradient id="paint4_linear_2388_709" x1="26.5241" y1="34.9902" x2="57.525" y2="34.9902" gradientUnits="userSpaceOnUse"><stop stop-color="#989AAD"></stop><stop offset="1" stop-color="#98A0B7"></stop></linearGradient><linearGradient id="paint5_linear_2388_709" x1="80.8537" y1="40.0185" x2="81.0995" y2="40.0185" gradientUnits="userSpaceOnUse"><stop stop-color="#E7E9E9"></stop><stop offset="1" stop-color="#98AACD"></stop></linearGradient><linearGradient id="paint6_linear_2388_709" x1="70.8198" y1="24.7459" x2="39.3058" y2="1.94025" gradientUnits="userSpaceOnUse"><stop stop-color="#CDD3DB"></stop><stop offset="1" stop-color="#ACB0C2"></stop></linearGradient><linearGradient id="paint7_linear_2388_709" x1="70.645" y1="29.2717" x2="75.1424" y2="30.0159" gradientUnits="userSpaceOnUse"><stop stop-color="#0082F8"></stop><stop offset="1" stop-color="#1C40F2"></stop></linearGradient><linearGradient id="paint8_linear_2388_709" x1="70.645" y1="38.4201" x2="75.15" y2="39.1416" gradientUnits="userSpaceOnUse"><stop stop-color="#0082F8"></stop><stop offset="1" stop-color="#1C40F2"></stop></linearGradient><linearGradient id="paint9_linear_2388_709" x1="70.645" y1="47.3902" x2="75.1424" y2="48.1345" gradientUnits="userSpaceOnUse"><stop stop-color="#0082F8"></stop><stop offset="1" stop-color="#1C40F2"></stop></linearGradient><linearGradient id="paint10_linear_2388_709" x1="66.1572" y1="32.2296" x2="68.4556" y2="32.395" gradientUnits="userSpaceOnUse"><stop stop-color="#0082F8"></stop><stop offset="1" stop-color="#1C40F2"></stop></linearGradient><linearGradient id="paint11_linear_2388_709" x1="66.1572" y1="41.1226" x2="68.4556" y2="41.2881" gradientUnits="userSpaceOnUse"><stop stop-color="#0082F8"></stop><stop offset="1" stop-color="#1C40F2"></stop></linearGradient><linearGradient id="paint12_linear_2388_709" x1="66.1572" y1="49.9324" x2="68.4556" y2="50.0979" gradientUnits="userSpaceOnUse"><stop stop-color="#0082F8"></stop><stop offset="1" stop-color="#1C40F2"></stop></linearGradient><linearGradient id="paint13_linear_2388_709" x1="8.40811" y1="45.4622" x2="39.2071" y2="45.4622" gradientUnits="userSpaceOnUse"><stop stop-color="#989AAD"></stop><stop offset="1" stop-color="#98A0B7"></stop></linearGradient><linearGradient id="paint14_linear_2388_709" x1="62.5561" y1="50.5322" x2="62.8014" y2="50.5322" gradientUnits="userSpaceOnUse"><stop stop-color="#E7E9E9"></stop><stop offset="1" stop-color="#98AACD"></stop></linearGradient><linearGradient id="paint15_linear_2388_709" x1="52.646" y1="35.2379" x2="21.2006" y2="12.482" gradientUnits="userSpaceOnUse"><stop stop-color="#CDD3DB"></stop><stop offset="1" stop-color="#ACB0C2"></stop></linearGradient><linearGradient id="paint16_linear_2388_709" x1="52.6099" y1="39.827" x2="57.0252" y2="40.5436" gradientUnits="userSpaceOnUse"><stop stop-color="#0082F8"></stop><stop offset="1" stop-color="#1C40F2"></stop></linearGradient><linearGradient id="paint17_linear_2388_709" x1="52.6099" y1="48.9693" x2="57.0252" y2="49.6859" gradientUnits="userSpaceOnUse"><stop stop-color="#0082F8"></stop><stop offset="1" stop-color="#1C40F2"></stop></linearGradient><linearGradient id="paint18_linear_2388_709" x1="52.6099" y1="57.8624" x2="57.0252" y2="58.579" gradientUnits="userSpaceOnUse"><stop stop-color="#0082F8"></stop><stop offset="1" stop-color="#1C40F2"></stop></linearGradient><linearGradient id="paint19_linear_2388_709" x1="48.0388" y1="42.7849" x2="50.3372" y2="42.9503" gradientUnits="userSpaceOnUse"><stop stop-color="#0082F8"></stop><stop offset="1" stop-color="#1C40F2"></stop></linearGradient><linearGradient id="paint20_linear_2388_709" x1="48.0388" y1="51.6779" x2="50.3372" y2="51.8434" gradientUnits="userSpaceOnUse"><stop stop-color="#0082F8"></stop><stop offset="1" stop-color="#1C40F2"></stop></linearGradient><linearGradient id="paint21_linear_2388_709" x1="48.0388" y1="60.4877" x2="50.3372" y2="60.6532" gradientUnits="userSpaceOnUse"><stop stop-color="#0082F8"></stop><stop offset="1" stop-color="#1C40F2"></stop></linearGradient></defs></svg>